<svg xmlns="http://www.w3.org/2000/svg" width="640" height="324" role="img" aria-labelledby="victory-container-4-title victory-container-4-desc" viewBox="0 0 640 324" style="pointer-events: all; width: 100%; height: 100%;"><g role="presentation"><line x1="15" x2="578" y1="274" y2="274" role="presentation" shape-rendering="auto" vector-effect="non-scaling-stroke" style="stroke: rgb(226, 226, 226); fill: transparent; stroke-width: 1; stroke-linejoin: round;"></line><g role="presentation"><line x1="81.26626071884692" x2="81.26626071884692" y1="274" y2="34" role="presentation" shape-rendering="auto" vector-effect="non-scaling-stroke" style="stroke: transparent; fill: transparent; stroke-width: 1; stroke-linecap: round; stroke-linejoin: round; pointer-events: none;"></line><line x1="81.26626071884692" x2="81.26626071884692" y1="274" y2="278" role="presentation" shape-rendering="auto" vector-effect="non-scaling-stroke" style="stroke: transparent; fill: transparent; size: 4px; stroke-width: 1; stroke-linecap: round; stroke-linejoin: round;"></line><text dx="0" dy="11.969999999999999" x="81.26626071884692" y="286"><tspan x="81.26626071884692" dx="0" text-anchor="middle" style="fill: rgb(153, 153, 153); font-size: 14px; font-family: inherit; stroke: transparent; letter-spacing: normal; padding: 8px; stroke-width: 0;">2017</tspan></text></g><g role="presentation"><line x1="193.74299854041232" x2="193.74299854041232" y1="274" y2="34" role="presentation" shape-rendering="auto" vector-effect="non-scaling-stroke" style="stroke: transparent; fill: transparent; stroke-width: 1; stroke-linecap: round; stroke-linejoin: round; pointer-events: none;"></line><line x1="193.74299854041232" x2="193.74299854041232" y1="274" y2="278" role="presentation" shape-rendering="auto" vector-effect="non-scaling-stroke" style="stroke: transparent; fill: transparent; size: 4px; stroke-width: 1; stroke-linecap: round; stroke-linejoin: round;"></line><text dx="0" dy="11.969999999999999" x="193.74299854041232" y="286"><tspan x="193.74299854041232" dx="0" text-anchor="middle" style="fill: rgb(153, 153, 153); font-size: 14px; font-family: inherit; stroke: transparent; letter-spacing: normal; padding: 8px; stroke-width: 0;">2018</tspan></text></g><g role="presentation"><line x1="306.2197363619777" x2="306.2197363619777" y1="274" y2="34" role="presentation" shape-rendering="auto" vector-effect="non-scaling-stroke" style="stroke: transparent; fill: transparent; stroke-width: 1; stroke-linecap: round; stroke-linejoin: round; pointer-events: none;"></line><line x1="306.2197363619777" x2="306.2197363619777" y1="274" y2="278" role="presentation" shape-rendering="auto" vector-effect="non-scaling-stroke" style="stroke: transparent; fill: transparent; size: 4px; stroke-width: 1; stroke-linecap: round; stroke-linejoin: round;"></line><text dx="0" dy="11.969999999999999" x="306.2197363619777" y="286"><tspan x="306.2197363619777" dx="0" text-anchor="middle" style="fill: rgb(153, 153, 153); font-size: 14px; font-family: inherit; stroke: transparent; letter-spacing: normal; padding: 8px; stroke-width: 0;">2019</tspan></text></g><g role="presentation"><line x1="418.69647418354316" x2="418.69647418354316" y1="274" y2="34" role="presentation" shape-rendering="auto" vector-effect="non-scaling-stroke" style="stroke: transparent; fill: transparent; stroke-width: 1; stroke-linecap: round; stroke-linejoin: round; pointer-events: none;"></line><line x1="418.69647418354316" x2="418.69647418354316" y1="274" y2="278" role="presentation" shape-rendering="auto" vector-effect="non-scaling-stroke" style="stroke: transparent; fill: transparent; size: 4px; stroke-width: 1; stroke-linecap: round; stroke-linejoin: round;"></line><text dx="0" dy="11.969999999999999" x="418.69647418354316" y="286"><tspan x="418.69647418354316" dx="0" text-anchor="middle" style="fill: rgb(153, 153, 153); font-size: 14px; font-family: inherit; stroke: transparent; letter-spacing: normal; padding: 8px; stroke-width: 0;">2020</tspan></text></g><g role="presentation"><line x1="531.4813674511951" x2="531.4813674511951" y1="274" y2="34" role="presentation" shape-rendering="auto" vector-effect="non-scaling-stroke" style="stroke: transparent; fill: transparent; stroke-width: 1; stroke-linecap: round; stroke-linejoin: round; pointer-events: none;"></line><line x1="531.4813674511951" x2="531.4813674511951" y1="274" y2="278" role="presentation" shape-rendering="auto" vector-effect="non-scaling-stroke" style="stroke: transparent; fill: transparent; size: 4px; stroke-width: 1; stroke-linecap: round; stroke-linejoin: round;"></line><text dx="0" dy="11.969999999999999" x="531.4813674511951" y="286"><tspan x="531.4813674511951" dx="0" text-anchor="middle" style="fill: rgb(153, 153, 153); font-size: 14px; font-family: inherit; stroke: transparent; letter-spacing: normal; padding: 8px; stroke-width: 0;">2021</tspan></text></g></g><g role="presentation"><line x1="578" x2="578" y1="34" y2="274" role="presentation" shape-rendering="auto" vector-effect="non-scaling-stroke" style="stroke: transparent; fill: transparent; stroke-width: 1; stroke-linejoin: round;"></line><g role="presentation"><line x1="578" x2="15" y1="274" y2="274" role="presentation" shape-rendering="auto" vector-effect="non-scaling-stroke" style="stroke: rgb(226, 226, 226); fill: transparent; stroke-width: 1; stroke-linecap: round; stroke-linejoin: round; pointer-events: none;"></line><line x1="578" x2="582" y1="274" y2="274" role="presentation" shape-rendering="auto" vector-effect="non-scaling-stroke" style="stroke: transparent; fill: transparent; size: 4px; stroke-width: 1; stroke-linecap: round; stroke-linejoin: round;"></line><text dx="0" dy="4.97" x="590" y="274"><tspan x="590" dx="0" text-anchor="start" style="fill: rgb(153, 153, 153); font-size: 14px; font-family: inherit; stroke: transparent; letter-spacing: normal; padding: 8px; stroke-width: 0;">$200K</tspan></text></g><g role="presentation"><line x1="578" x2="15" y1="234" y2="234" role="presentation" shape-rendering="auto" vector-effect="non-scaling-stroke" style="stroke: rgb(226, 226, 226); fill: transparent; stroke-width: 1; stroke-linecap: round; stroke-linejoin: round; pointer-events: none;"></line><line x1="578" x2="582" y1="234" y2="234" role="presentation" shape-rendering="auto" vector-effect="non-scaling-stroke" style="stroke: transparent; fill: transparent; size: 4px; stroke-width: 1; stroke-linecap: round; stroke-linejoin: round;"></line><text dx="0" dy="4.97" x="590" y="234"><tspan x="590" dx="0" text-anchor="start" style="fill: rgb(153, 153, 153); font-size: 14px; font-family: inherit; stroke: transparent; letter-spacing: normal; padding: 8px; stroke-width: 0;">$250K</tspan></text></g><g role="presentation"><line x1="578" x2="15" y1="194" y2="194" role="presentation" shape-rendering="auto" vector-effect="non-scaling-stroke" style="stroke: rgb(226, 226, 226); fill: transparent; stroke-width: 1; stroke-linecap: round; stroke-linejoin: round; pointer-events: none;"></line><line x1="578" x2="582" y1="194" y2="194" role="presentation" shape-rendering="auto" vector-effect="non-scaling-stroke" style="stroke: transparent; fill: transparent; size: 4px; stroke-width: 1; stroke-linecap: round; stroke-linejoin: round;"></line><text dx="0" dy="4.97" x="590" y="194"><tspan x="590" dx="0" text-anchor="start" style="fill: rgb(153, 153, 153); font-size: 14px; font-family: inherit; stroke: transparent; letter-spacing: normal; padding: 8px; stroke-width: 0;">$300K</tspan></text></g><g role="presentation"><line x1="578" x2="15" y1="154" y2="154" role="presentation" shape-rendering="auto" vector-effect="non-scaling-stroke" style="stroke: rgb(226, 226, 226); fill: transparent; stroke-width: 1; stroke-linecap: round; stroke-linejoin: round; pointer-events: none;"></line><line x1="578" x2="582" y1="154" y2="154" role="presentation" shape-rendering="auto" vector-effect="non-scaling-stroke" style="stroke: transparent; fill: transparent; size: 4px; stroke-width: 1; stroke-linecap: round; stroke-linejoin: round;"></line><text dx="0" dy="4.97" x="590" y="154"><tspan x="590" dx="0" text-anchor="start" style="fill: rgb(153, 153, 153); font-size: 14px; font-family: inherit; stroke: transparent; letter-spacing: normal; padding: 8px; stroke-width: 0;">$350K</tspan></text></g><g role="presentation"><line x1="578" x2="15" y1="114" y2="114" role="presentation" shape-rendering="auto" vector-effect="non-scaling-stroke" style="stroke: rgb(226, 226, 226); fill: transparent; stroke-width: 1; stroke-linecap: round; stroke-linejoin: round; pointer-events: none;"></line><line x1="578" x2="582" y1="114" y2="114" role="presentation" shape-rendering="auto" vector-effect="non-scaling-stroke" style="stroke: transparent; fill: transparent; size: 4px; stroke-width: 1; stroke-linecap: round; stroke-linejoin: round;"></line><text dx="0" dy="4.97" x="590" y="114"><tspan x="590" dx="0" text-anchor="start" style="fill: rgb(153, 153, 153); font-size: 14px; font-family: inherit; stroke: transparent; letter-spacing: normal; padding: 8px; stroke-width: 0;">$400K</tspan></text></g><g role="presentation"><line x1="578" x2="15" y1="74" y2="74" role="presentation" shape-rendering="auto" vector-effect="non-scaling-stroke" style="stroke: rgb(226, 226, 226); fill: transparent; stroke-width: 1; stroke-linecap: round; stroke-linejoin: round; pointer-events: none;"></line><line x1="578" x2="582" y1="74" y2="74" role="presentation" shape-rendering="auto" vector-effect="non-scaling-stroke" style="stroke: transparent; fill: transparent; size: 4px; stroke-width: 1; stroke-linecap: round; stroke-linejoin: round;"></line><text dx="0" dy="4.97" x="590" y="74"><tspan x="590" dx="0" text-anchor="start" style="fill: rgb(153, 153, 153); font-size: 14px; font-family: inherit; stroke: transparent; letter-spacing: normal; padding: 8px; stroke-width: 0;">$450K</tspan></text></g><g role="presentation"><line x1="578" x2="15" y1="34" y2="34" role="presentation" shape-rendering="auto" vector-effect="non-scaling-stroke" style="stroke: rgb(226, 226, 226); fill: transparent; stroke-width: 1; stroke-linecap: round; stroke-linejoin: round; pointer-events: none;"></line><line x1="578" x2="582" y1="34" y2="34" role="presentation" shape-rendering="auto" vector-effect="non-scaling-stroke" style="stroke: transparent; fill: transparent; size: 4px; stroke-width: 1; stroke-linecap: round; stroke-linejoin: round;"></line><text dx="0" dy="4.97" x="590" y="34"><tspan x="590" dx="0" text-anchor="start" style="fill: rgb(153, 153, 153); font-size: 14px; font-family: inherit; stroke: transparent; letter-spacing: normal; padding: 8px; stroke-width: 0;">$500K</tspan></text></g></g><g style="height: 100%; width: 100%; user-select: none;"><defs><clipPath id="victory-clip-5"><rect x="15" y="34" width="563" height="240"></rect></clipPath></defs><g clip-path="url(#victory-clip-5)"><path shape-rendering="auto" role="presentation" d="M15.30815544608648,204C18.389709906951285,203.13333333333333,21.471264367816094,202.26666666666668,24.5528188286809,198.8C27.73709177157453,195.2177777777778,30.921364714468165,177.66,34.1056376573618,167.6C37.28991060025543,157.54,40.47418354314906,138.44,43.658456486042695,138.44C46.7400109469075,138.44,49.821565407772304,214,52.90311986863711,214C56.08739281153075,214,59.271665754424376,184.6245837928929,62.45593869731801,175.60000000000002C65.54177309493402,166.85440199640357,68.62760749255003,160,71.71344189016602,160C74.89771483305965,160,78.0819877759533,184.4,81.26626071884692,186C84.45053366174056,187.6,87.63480660463419,187.32227602905567,90.81907954752783,188.39999999999998C93.69519704433499,189.37342810278838,96.57131454114213,192,99.44743203794928,192C102.62742504409171,192,105.80741805023415,174,108.98741105637657,174C112.06896551724138,174,115.15051997810617,188.8,118.23207443897098,188.8C121.41634738186463,188.8,124.60062032475825,168.8,127.7848932676519,168.8C130.8664477285167,168.8,133.9480021893815,202.2,137.02955665024632,202.2C140.21382959313993,202.2,143.39810253603358,186.98666666666668,146.5823754789272,184C149.76664842182083,181.01333333333332,152.95092136471445,179.51999999999998,156.1351943076081,179.51999999999998C159.2167487684729,179.51999999999998,162.2983032293377,203.36774193548388,165.37985769020253,204.4C168.56413063309614,205.46666666666667,171.74840357598978,206,174.9326765188834,206C178.0185109164994,206,181.10434531411542,184,184.19017971173142,184C187.37445265462506,184,190.55872559751867,208.036,193.74299854041232,208.036C196.92727148330596,208.036,200.1115444261996,175.92000000000002,203.29581736909324,175.92000000000002C206.1719348659004,175.92000000000002,209.04805236270755,210,211.9241698595147,210C215.10416286565712,210,218.28415587179956,197.5833406749196,221.46414887794197,190.8C224.5457033388068,184.22664160707654,227.62725779967158,177.33100652212235,230.7088122605364,170C233.89308520343002,162.42462659380695,237.07735814632366,146,240.26163108921727,146C243.3431855500821,146,246.4247400109469,151.5251189846642,249.5062944718117,158C252.69056741470536,164.69071038251366,255.874840357599,177.93999999999997,259.05911330049264,186C262.2433862433863,194.05999999999997,265.42765918627987,206.36,268.6119321291735,206.36C271.69348659003833,206.36,274.7750410509031,165.74193548387098,277.8565955117679,158C281.04086845466156,150,284.22514139755515,146,287.4094143404488,146C290.4952487380648,146,293.58108313568084,163.08655913978495,296.66691753329684,165.8C299.8511904761905,168.6,303.03546341908407,167.20000000000002,306.2197363619777,170C309.40400930487135,172.8,312.588282247765,220,315.77255519065864,220C318.6486726874658,220,321.52479018427294,204.5069147298619,324.4009076810801,198.2C327.58090068722254,191.22672969600094,330.76089369336495,180.8,333.94088669950736,180.8C337.0224411603722,180.8,340.10399562123695,181.33333333333334,343.18555008210177,182.4C346.3698230249954,183.50222222222223,349.55409596788905,196,352.7383689107827,196C355.8199233716475,196,358.9014778325123,156.4,361.9830322933771,156.4C365.16730523627075,156.4,368.35157817916433,184.8,371.535851122058,184.8C374.7201240649516,184.8,377.90439700784526,178.54844444444444,381.0886699507389,178.07999999999998C384.1702244116037,177.62666666666664,387.2517788724685,177.39999999999998,390.3333333333333,177.39999999999998C393.51760627622696,177.39999999999998,396.7018792191206,180.8,399.88615216201424,180.8C402.97198655963024,180.8,406.0578209572463,171.68,409.1436553548623,171.68C412.32792829775593,171.68,415.5122012406495,248,418.69647418354316,248C421.8807471264368,248,425.0650200693304,184.17351724137924,428.24929301222403,171.44C431.22812899106003,159.528,434.206964969896,153.572,437.185800948732,153.572C440.3657939548744,153.572,443.54578696101686,175.8,446.72577996715927,175.8C449.8073344280241,175.8,452.8888888888889,166.8,455.97044334975374,166.8C459.1547162926473,166.8,462.33898923554096,182,465.52326217843455,182C468.6048166392994,182,471.6863711001642,173.21460955402787,474.767925561029,170.04000000000002C477.95219850392266,166.7595701275046,481.1364714468163,165.2666666666667,484.32074438970994,162.8C487.50501733260353,160.33333333333334,490.68929027549717,155.24,493.87356321839076,155.24C496.9551176792556,155.24,500.0366721401204,179.84,503.1182266009852,179.84C506.3024995438788,179.84,509.48677248677245,178.32,512.671045429666,175.28C515.7568798272821,172.33397849462358,518.8427142248981,153.75463799283156,521.9285486225142,146C525.1128215654078,137.997987979658,528.2970945083015,128.4,531.4813674511951,128.4C534.6656403940887,128.4,537.8499133369824,156.816,541.0341862798759,156.816C543.9103037766831,156.816,546.7864212734902,154.58533333333332,549.6625387702974,150.124C552.8425317764398,145.19130555555554,556.0225247825822,112,559.2025177887247,112C562.2840722495895,112,565.3656267104543,142,568.4471811713191,142C571.6314541142127,142,574.8157270571064,134.7,578,127.4" style="fill: transparent; stroke: rgb(51, 51, 51); stroke-width: 2; opacity: 1;"></path></g></g></svg>