<svg xmlns="http://www.w3.org/2000/svg" width="640" height="324" role="img" aria-labelledby="victory-container-4-title victory-container-4-desc" viewBox="0 0 640 324" style="pointer-events: all; width: 100%; height: 100%;"><g role="presentation"><line x1="15" x2="578" y1="274" y2="274" role="presentation" shape-rendering="auto" vector-effect="non-scaling-stroke" style="stroke: rgb(226, 226, 226); fill: transparent; stroke-width: 1; stroke-linejoin: round;"></line><g role="presentation"><line x1="81.26626071884692" x2="81.26626071884692" y1="274" y2="34" role="presentation" shape-rendering="auto" vector-effect="non-scaling-stroke" style="stroke: transparent; fill: transparent; stroke-width: 1; stroke-linecap: round; stroke-linejoin: round; pointer-events: none;"></line><line x1="81.26626071884692" x2="81.26626071884692" y1="274" y2="278" role="presentation" shape-rendering="auto" vector-effect="non-scaling-stroke" style="stroke: transparent; fill: transparent; size: 4px; stroke-width: 1; stroke-linecap: round; stroke-linejoin: round;"></line><text dx="0" dy="11.969999999999999" x="81.26626071884692" y="286"><tspan x="81.26626071884692" dx="0" text-anchor="middle" style="fill: rgb(153, 153, 153); font-size: 14px; font-family: inherit; stroke: transparent; letter-spacing: normal; padding: 8px; stroke-width: 0;">2017</tspan></text></g><g role="presentation"><line x1="193.74299854041232" x2="193.74299854041232" y1="274" y2="34" role="presentation" shape-rendering="auto" vector-effect="non-scaling-stroke" style="stroke: transparent; fill: transparent; stroke-width: 1; stroke-linecap: round; stroke-linejoin: round; pointer-events: none;"></line><line x1="193.74299854041232" x2="193.74299854041232" y1="274" y2="278" role="presentation" shape-rendering="auto" vector-effect="non-scaling-stroke" style="stroke: transparent; fill: transparent; size: 4px; stroke-width: 1; stroke-linecap: round; stroke-linejoin: round;"></line><text dx="0" dy="11.969999999999999" x="193.74299854041232" y="286"><tspan x="193.74299854041232" dx="0" text-anchor="middle" style="fill: rgb(153, 153, 153); font-size: 14px; font-family: inherit; stroke: transparent; letter-spacing: normal; padding: 8px; stroke-width: 0;">2018</tspan></text></g><g role="presentation"><line x1="306.2197363619777" x2="306.2197363619777" y1="274" y2="34" role="presentation" shape-rendering="auto" vector-effect="non-scaling-stroke" style="stroke: transparent; fill: transparent; stroke-width: 1; stroke-linecap: round; stroke-linejoin: round; pointer-events: none;"></line><line x1="306.2197363619777" x2="306.2197363619777" y1="274" y2="278" role="presentation" shape-rendering="auto" vector-effect="non-scaling-stroke" style="stroke: transparent; fill: transparent; size: 4px; stroke-width: 1; stroke-linecap: round; stroke-linejoin: round;"></line><text dx="0" dy="11.969999999999999" x="306.2197363619777" y="286"><tspan x="306.2197363619777" dx="0" text-anchor="middle" style="fill: rgb(153, 153, 153); font-size: 14px; font-family: inherit; stroke: transparent; letter-spacing: normal; padding: 8px; stroke-width: 0;">2019</tspan></text></g><g role="presentation"><line x1="418.69647418354316" x2="418.69647418354316" y1="274" y2="34" role="presentation" shape-rendering="auto" vector-effect="non-scaling-stroke" style="stroke: transparent; fill: transparent; stroke-width: 1; stroke-linecap: round; stroke-linejoin: round; pointer-events: none;"></line><line x1="418.69647418354316" x2="418.69647418354316" y1="274" y2="278" role="presentation" shape-rendering="auto" vector-effect="non-scaling-stroke" style="stroke: transparent; fill: transparent; size: 4px; stroke-width: 1; stroke-linecap: round; stroke-linejoin: round;"></line><text dx="0" dy="11.969999999999999" x="418.69647418354316" y="286"><tspan x="418.69647418354316" dx="0" text-anchor="middle" style="fill: rgb(153, 153, 153); font-size: 14px; font-family: inherit; stroke: transparent; letter-spacing: normal; padding: 8px; stroke-width: 0;">2020</tspan></text></g><g role="presentation"><line x1="531.4813674511951" x2="531.4813674511951" y1="274" y2="34" role="presentation" shape-rendering="auto" vector-effect="non-scaling-stroke" style="stroke: transparent; fill: transparent; stroke-width: 1; stroke-linecap: round; stroke-linejoin: round; pointer-events: none;"></line><line x1="531.4813674511951" x2="531.4813674511951" y1="274" y2="278" role="presentation" shape-rendering="auto" vector-effect="non-scaling-stroke" style="stroke: transparent; fill: transparent; size: 4px; stroke-width: 1; stroke-linecap: round; stroke-linejoin: round;"></line><text dx="0" dy="11.969999999999999" x="531.4813674511951" y="286"><tspan x="531.4813674511951" dx="0" text-anchor="middle" style="fill: rgb(153, 153, 153); font-size: 14px; font-family: inherit; stroke: transparent; letter-spacing: normal; padding: 8px; stroke-width: 0;">2021</tspan></text></g></g><g role="presentation"><line x1="578" x2="578" y1="34" y2="274" role="presentation" shape-rendering="auto" vector-effect="non-scaling-stroke" style="stroke: transparent; fill: transparent; stroke-width: 1; stroke-linejoin: round;"></line><g role="presentation"><line x1="578" x2="15" y1="274" y2="274" role="presentation" shape-rendering="auto" vector-effect="non-scaling-stroke" style="stroke: rgb(226, 226, 226); fill: transparent; stroke-width: 1; stroke-linecap: round; stroke-linejoin: round; pointer-events: none;"></line><line x1="578" x2="582" y1="274" y2="274" role="presentation" shape-rendering="auto" vector-effect="non-scaling-stroke" style="stroke: transparent; fill: transparent; size: 4px; stroke-width: 1; stroke-linecap: round; stroke-linejoin: round;"></line><text dx="0" dy="4.97" x="590" y="274"><tspan x="590" dx="0" text-anchor="start" style="fill: rgb(153, 153, 153); font-size: 14px; font-family: inherit; stroke: transparent; letter-spacing: normal; padding: 8px; stroke-width: 0;">$200K</tspan></text></g><g role="presentation"><line x1="578" x2="15" y1="214" y2="214" role="presentation" shape-rendering="auto" vector-effect="non-scaling-stroke" style="stroke: rgb(226, 226, 226); fill: transparent; stroke-width: 1; stroke-linecap: round; stroke-linejoin: round; pointer-events: none;"></line><line x1="578" x2="582" y1="214" y2="214" role="presentation" shape-rendering="auto" vector-effect="non-scaling-stroke" style="stroke: transparent; fill: transparent; size: 4px; stroke-width: 1; stroke-linecap: round; stroke-linejoin: round;"></line><text dx="0" dy="4.97" x="590" y="214"><tspan x="590" dx="0" text-anchor="start" style="fill: rgb(153, 153, 153); font-size: 14px; font-family: inherit; stroke: transparent; letter-spacing: normal; padding: 8px; stroke-width: 0;">$250K</tspan></text></g><g role="presentation"><line x1="578" x2="15" y1="154" y2="154" role="presentation" shape-rendering="auto" vector-effect="non-scaling-stroke" style="stroke: rgb(226, 226, 226); fill: transparent; stroke-width: 1; stroke-linecap: round; stroke-linejoin: round; pointer-events: none;"></line><line x1="578" x2="582" y1="154" y2="154" role="presentation" shape-rendering="auto" vector-effect="non-scaling-stroke" style="stroke: transparent; fill: transparent; size: 4px; stroke-width: 1; stroke-linecap: round; stroke-linejoin: round;"></line><text dx="0" dy="4.97" x="590" y="154"><tspan x="590" dx="0" text-anchor="start" style="fill: rgb(153, 153, 153); font-size: 14px; font-family: inherit; stroke: transparent; letter-spacing: normal; padding: 8px; stroke-width: 0;">$300K</tspan></text></g><g role="presentation"><line x1="578" x2="15" y1="94" y2="94" role="presentation" shape-rendering="auto" vector-effect="non-scaling-stroke" style="stroke: rgb(226, 226, 226); fill: transparent; stroke-width: 1; stroke-linecap: round; stroke-linejoin: round; pointer-events: none;"></line><line x1="578" x2="582" y1="94" y2="94" role="presentation" shape-rendering="auto" vector-effect="non-scaling-stroke" style="stroke: transparent; fill: transparent; size: 4px; stroke-width: 1; stroke-linecap: round; stroke-linejoin: round;"></line><text dx="0" dy="4.97" x="590" y="94"><tspan x="590" dx="0" text-anchor="start" style="fill: rgb(153, 153, 153); font-size: 14px; font-family: inherit; stroke: transparent; letter-spacing: normal; padding: 8px; stroke-width: 0;">$350K</tspan></text></g><g role="presentation"><line x1="578" x2="15" y1="34" y2="34" role="presentation" shape-rendering="auto" vector-effect="non-scaling-stroke" style="stroke: rgb(226, 226, 226); fill: transparent; stroke-width: 1; stroke-linecap: round; stroke-linejoin: round; pointer-events: none;"></line><line x1="578" x2="582" y1="34" y2="34" role="presentation" shape-rendering="auto" vector-effect="non-scaling-stroke" style="stroke: transparent; fill: transparent; size: 4px; stroke-width: 1; stroke-linecap: round; stroke-linejoin: round;"></line><text dx="0" dy="4.97" x="590" y="34"><tspan x="590" dx="0" text-anchor="start" style="fill: rgb(153, 153, 153); font-size: 14px; font-family: inherit; stroke: transparent; letter-spacing: normal; padding: 8px; stroke-width: 0;">$400K</tspan></text></g></g><g style="height: 100%; width: 100%; user-select: none;"><defs><clipPath id="victory-clip-5"><rect x="15" y="34" width="563" height="240"></rect></clipPath></defs><g clip-path="url(#victory-clip-5)"><path shape-rendering="auto" role="presentation" d="M24.5528188286809,103.60000000000002C27.73709177157453,105.50000000000001,30.921364714468165,107.40000000000002,34.1056376573618,115C37.28991060025543,122.59999999999998,40.47418354314906,150.47466666666668,43.658456486042695,154.36C46.7400109469075,158.12,49.821565407772304,160,52.90311986863711,160C56.08739281153075,160,59.271665754424376,154.16100315735162,62.45593869731801,148C65.54177309493402,142.02945796176007,68.62760749255003,124,71.71344189016602,124C74.89771483305965,124,78.0819877759533,160,81.26626071884692,160C84.45053366174056,160,87.63480660463419,94,90.81907954752783,94C93.69519704433499,94,96.57131454114213,112.65838494499901,99.44743203794928,125.25999999999999C102.62742504409171,139.19303569325257,105.80741805023415,175.06,108.98741105637657,175.06C112.06896551724138,175.06,115.15051997810617,130,118.23207443897098,130C121.41634738186463,130,124.60062032475825,133.60000000000002,127.7848932676519,133.60000000000002C130.8664477285167,133.60000000000002,133.9480021893815,129.86208355367532,137.02955665024632,124C140.21382959313993,117.94251366120218,143.39810253603358,97.30000000000001,146.5823754789272,97.30000000000001C149.76664842182083,97.30000000000001,152.95092136471445,99.11377049180328,156.1351943076081,100.6C159.2167487684729,102.03828662083554,162.2983032293377,103.65742993125329,165.37985769020253,106C168.56413063309614,108.42065573770492,171.74840357598978,110.90329794133102,174.9326765188834,115C178.0185109164994,118.97005669932842,181.10434531411542,127.67419354838708,184.19017971173142,130C187.37445265462506,132.4,190.55872559751867,133.60000000000002,193.74299854041232,133.60000000000002C196.92727148330596,133.60000000000002,200.1115444261996,133.60000000000002,203.29581736909324,133.60000000000002C206.1719348659004,133.60000000000002,209.04805236270755,139.65351187288664,211.9241698595147,142C215.10416286565712,144.59440577149587,218.28415587179956,148.12,221.46414887794197,148.12C224.5457033388068,148.12,227.62725779967158,118.60000000000002,230.7088122605364,118.60000000000002C233.89308520343002,118.60000000000002,237.07735814632366,121.17726775956285,240.26163108921727,125.19999999999999C243.3431855500821,129.092966684294,246.4247400109469,142,249.5062944718117,142C252.69056741470536,142,255.874840357599,113.36180000000002,259.05911330049264,100.96179999999998C262.2433862433863,88.56180000000002,265.42765918627987,67.6,268.6119321291735,67.6C271.69348659003833,67.6,274.7750410509031,107.01458064516127,277.8565955117679,113.5C281.04086845466156,120.2016,284.22514139755515,123.16192898751737,287.4094143404488,123.5524C290.4952487380648,123.93079999999999,293.58108313568084,124.11999999999998,296.66691753329684,124.11999999999998C299.8511904761905,124.11999999999998,303.03546341908407,124.09819999999999,306.2197363619777,124.05460000000002C309.40400930487135,124.01100000000005,312.588282247765,85,315.77255519065864,85C318.6486726874658,85,321.52479018427294,146.5,324.4009076810801,146.5C327.58090068722254,146.5,330.76089369336495,140,333.94088669950736,127C337.0224411603722,114.40242261103627,340.10399562123695,70,343.18555008210177,70C346.3698230249954,70,349.55409596788905,74,352.7383689107827,82C355.8199233716475,89.74193548387093,358.9014778325123,118.12,361.9830322933771,118.12C365.16730523627075,118.12,368.35157817916433,88,371.535851122058,88C374.7201240649516,88,377.90439700784526,88,381.0886699507389,88C384.1702244116037,88,387.2517788724685,103,390.3333333333333,103C393.51760627622696,103,396.7018792191206,84.71200000000002,399.88615216201424,84.71200000000002C402.97198655963024,84.71200000000002,406.0578209572463,88.308,409.1436553548623,95.5C412.32792829775593,102.92142579750342,415.5122012406495,143.5,418.69647418354316,143.5C421.8807471264368,143.5,425.0650200693304,40.06,428.24929301222403,40.06C431.22812899106003,40.06,434.206964969896,76,437.185800948732,76C440.3657939548744,76,443.54578696101686,63.64599999999999,446.72577996715927,63.64599999999999C449.8073344280241,63.64599999999999,452.8888888888889,143.2,455.97044334975374,143.2C459.1547162926473,143.2,462.33898923554096,98.80000000000001,465.52326217843455,98.80000000000001C468.6048166392994,98.80000000000001,471.6863711001642,121.726,474.767925561029,121.726C477.95219850392266,121.726,481.1364714468163,71.20000000000002,484.32074438970994,71.20000000000002C487.50501733260353,71.20000000000002,490.68929027549717,76.85759562841531,493.87356321839076,79.6C496.9551176792556,82.25393971443683,500.0366721401204,87.4,503.1182266009852,87.4C506.3024995438788,87.4,509.48677248677245,62.12760055478492,512.671045429666,58C515.7568798272821,54,518.8427142248981,52,521.9285486225142,52C525.1128215654078,52,528.2970945083015,74.75,531.4813674511951,82C534.6656403940887,89.25,537.8499133369824,95.5,541.0341862798759,95.5C543.9103037766831,95.5,546.7864212734902,89.26362944609045,549.6625387702974,84.39999999999998C552.8425317764398,79.02250494278981,556.0225247825822,64,559.2025177887247,64C562.2840722495895,64,565.3656267104543,113.80000000000001,568.4471811713191,113.80000000000001C571.6314541142127,113.80000000000001,574.8157270571064,91.9,578,70" style="fill: transparent; stroke: rgb(51, 51, 51); stroke-width: 2; opacity: 1;"></path></g></g></svg>