<svg xmlns="http://www.w3.org/2000/svg" width="640" height="324" role="img" aria-labelledby="victory-container-4-title victory-container-4-desc" viewBox="0 0 640 324" style="pointer-events: all; width: 100%; height: 100%;"><g role="presentation"><line x1="15" x2="578" y1="274" y2="274" role="presentation" shape-rendering="auto" vector-effect="non-scaling-stroke" style="stroke: rgb(226, 226, 226); fill: transparent; stroke-width: 1; stroke-linejoin: round;"></line><g role="presentation"><line x1="81.26626071884692" x2="81.26626071884692" y1="274" y2="34" role="presentation" shape-rendering="auto" vector-effect="non-scaling-stroke" style="stroke: transparent; fill: transparent; stroke-width: 1; stroke-linecap: round; stroke-linejoin: round; pointer-events: none;"></line><line x1="81.26626071884692" x2="81.26626071884692" y1="274" y2="278" role="presentation" shape-rendering="auto" vector-effect="non-scaling-stroke" style="stroke: transparent; fill: transparent; size: 4px; stroke-width: 1; stroke-linecap: round; stroke-linejoin: round;"></line><text dx="0" dy="11.969999999999999" x="81.26626071884692" y="286"><tspan x="81.26626071884692" dx="0" text-anchor="middle" style="fill: rgb(153, 153, 153); font-size: 14px; font-family: inherit; stroke: transparent; letter-spacing: normal; padding: 8px; stroke-width: 0;">2017</tspan></text></g><g role="presentation"><line x1="193.74299854041232" x2="193.74299854041232" y1="274" y2="34" role="presentation" shape-rendering="auto" vector-effect="non-scaling-stroke" style="stroke: transparent; fill: transparent; stroke-width: 1; stroke-linecap: round; stroke-linejoin: round; pointer-events: none;"></line><line x1="193.74299854041232" x2="193.74299854041232" y1="274" y2="278" role="presentation" shape-rendering="auto" vector-effect="non-scaling-stroke" style="stroke: transparent; fill: transparent; size: 4px; stroke-width: 1; stroke-linecap: round; stroke-linejoin: round;"></line><text dx="0" dy="11.969999999999999" x="193.74299854041232" y="286"><tspan x="193.74299854041232" dx="0" text-anchor="middle" style="fill: rgb(153, 153, 153); font-size: 14px; font-family: inherit; stroke: transparent; letter-spacing: normal; padding: 8px; stroke-width: 0;">2018</tspan></text></g><g role="presentation"><line x1="306.2197363619777" x2="306.2197363619777" y1="274" y2="34" role="presentation" shape-rendering="auto" vector-effect="non-scaling-stroke" style="stroke: transparent; fill: transparent; stroke-width: 1; stroke-linecap: round; stroke-linejoin: round; pointer-events: none;"></line><line x1="306.2197363619777" x2="306.2197363619777" y1="274" y2="278" role="presentation" shape-rendering="auto" vector-effect="non-scaling-stroke" style="stroke: transparent; fill: transparent; size: 4px; stroke-width: 1; stroke-linecap: round; stroke-linejoin: round;"></line><text dx="0" dy="11.969999999999999" x="306.2197363619777" y="286"><tspan x="306.2197363619777" dx="0" text-anchor="middle" style="fill: rgb(153, 153, 153); font-size: 14px; font-family: inherit; stroke: transparent; letter-spacing: normal; padding: 8px; stroke-width: 0;">2019</tspan></text></g><g role="presentation"><line x1="418.69647418354316" x2="418.69647418354316" y1="274" y2="34" role="presentation" shape-rendering="auto" vector-effect="non-scaling-stroke" style="stroke: transparent; fill: transparent; stroke-width: 1; stroke-linecap: round; stroke-linejoin: round; pointer-events: none;"></line><line x1="418.69647418354316" x2="418.69647418354316" y1="274" y2="278" role="presentation" shape-rendering="auto" vector-effect="non-scaling-stroke" style="stroke: transparent; fill: transparent; size: 4px; stroke-width: 1; stroke-linecap: round; stroke-linejoin: round;"></line><text dx="0" dy="11.969999999999999" x="418.69647418354316" y="286"><tspan x="418.69647418354316" dx="0" text-anchor="middle" style="fill: rgb(153, 153, 153); font-size: 14px; font-family: inherit; stroke: transparent; letter-spacing: normal; padding: 8px; stroke-width: 0;">2020</tspan></text></g><g role="presentation"><line x1="531.4813674511951" x2="531.4813674511951" y1="274" y2="34" role="presentation" shape-rendering="auto" vector-effect="non-scaling-stroke" style="stroke: transparent; fill: transparent; stroke-width: 1; stroke-linecap: round; stroke-linejoin: round; pointer-events: none;"></line><line x1="531.4813674511951" x2="531.4813674511951" y1="274" y2="278" role="presentation" shape-rendering="auto" vector-effect="non-scaling-stroke" style="stroke: transparent; fill: transparent; size: 4px; stroke-width: 1; stroke-linecap: round; stroke-linejoin: round;"></line><text dx="0" dy="11.969999999999999" x="531.4813674511951" y="286"><tspan x="531.4813674511951" dx="0" text-anchor="middle" style="fill: rgb(153, 153, 153); font-size: 14px; font-family: inherit; stroke: transparent; letter-spacing: normal; padding: 8px; stroke-width: 0;">2021</tspan></text></g></g><g role="presentation"><line x1="578" x2="578" y1="34" y2="274" role="presentation" shape-rendering="auto" vector-effect="non-scaling-stroke" style="stroke: transparent; fill: transparent; stroke-width: 1; stroke-linejoin: round;"></line><g role="presentation"><line x1="578" x2="15" y1="274" y2="274" role="presentation" shape-rendering="auto" vector-effect="non-scaling-stroke" style="stroke: rgb(226, 226, 226); fill: transparent; stroke-width: 1; stroke-linecap: round; stroke-linejoin: round; pointer-events: none;"></line><line x1="578" x2="582" y1="274" y2="274" role="presentation" shape-rendering="auto" vector-effect="non-scaling-stroke" style="stroke: transparent; fill: transparent; size: 4px; stroke-width: 1; stroke-linecap: round; stroke-linejoin: round;"></line><text dx="0" dy="4.97" x="590" y="274"><tspan x="590" dx="0" text-anchor="start" style="fill: rgb(153, 153, 153); font-size: 14px; font-family: inherit; stroke: transparent; letter-spacing: normal; padding: 8px; stroke-width: 0;">$100K</tspan></text></g><g role="presentation"><line x1="578" x2="15" y1="214" y2="214" role="presentation" shape-rendering="auto" vector-effect="non-scaling-stroke" style="stroke: rgb(226, 226, 226); fill: transparent; stroke-width: 1; stroke-linecap: round; stroke-linejoin: round; pointer-events: none;"></line><line x1="578" x2="582" y1="214" y2="214" role="presentation" shape-rendering="auto" vector-effect="non-scaling-stroke" style="stroke: transparent; fill: transparent; size: 4px; stroke-width: 1; stroke-linecap: round; stroke-linejoin: round;"></line><text dx="0" dy="4.97" x="590" y="214"><tspan x="590" dx="0" text-anchor="start" style="fill: rgb(153, 153, 153); font-size: 14px; font-family: inherit; stroke: transparent; letter-spacing: normal; padding: 8px; stroke-width: 0;">$200K</tspan></text></g><g role="presentation"><line x1="578" x2="15" y1="154" y2="154" role="presentation" shape-rendering="auto" vector-effect="non-scaling-stroke" style="stroke: rgb(226, 226, 226); fill: transparent; stroke-width: 1; stroke-linecap: round; stroke-linejoin: round; pointer-events: none;"></line><line x1="578" x2="582" y1="154" y2="154" role="presentation" shape-rendering="auto" vector-effect="non-scaling-stroke" style="stroke: transparent; fill: transparent; size: 4px; stroke-width: 1; stroke-linecap: round; stroke-linejoin: round;"></line><text dx="0" dy="4.97" x="590" y="154"><tspan x="590" dx="0" text-anchor="start" style="fill: rgb(153, 153, 153); font-size: 14px; font-family: inherit; stroke: transparent; letter-spacing: normal; padding: 8px; stroke-width: 0;">$300K</tspan></text></g><g role="presentation"><line x1="578" x2="15" y1="94" y2="94" role="presentation" shape-rendering="auto" vector-effect="non-scaling-stroke" style="stroke: rgb(226, 226, 226); fill: transparent; stroke-width: 1; stroke-linecap: round; stroke-linejoin: round; pointer-events: none;"></line><line x1="578" x2="582" y1="94" y2="94" role="presentation" shape-rendering="auto" vector-effect="non-scaling-stroke" style="stroke: transparent; fill: transparent; size: 4px; stroke-width: 1; stroke-linecap: round; stroke-linejoin: round;"></line><text dx="0" dy="4.97" x="590" y="94"><tspan x="590" dx="0" text-anchor="start" style="fill: rgb(153, 153, 153); font-size: 14px; font-family: inherit; stroke: transparent; letter-spacing: normal; padding: 8px; stroke-width: 0;">$400K</tspan></text></g><g role="presentation"><line x1="578" x2="15" y1="34" y2="34" role="presentation" shape-rendering="auto" vector-effect="non-scaling-stroke" style="stroke: rgb(226, 226, 226); fill: transparent; stroke-width: 1; stroke-linecap: round; stroke-linejoin: round; pointer-events: none;"></line><line x1="578" x2="582" y1="34" y2="34" role="presentation" shape-rendering="auto" vector-effect="non-scaling-stroke" style="stroke: transparent; fill: transparent; size: 4px; stroke-width: 1; stroke-linecap: round; stroke-linejoin: round;"></line><text dx="0" dy="4.97" x="590" y="34"><tspan x="590" dx="0" text-anchor="start" style="fill: rgb(153, 153, 153); font-size: 14px; font-family: inherit; stroke: transparent; letter-spacing: normal; padding: 8px; stroke-width: 0;">$500K</tspan></text></g></g><g style="height: 100%; width: 100%; user-select: none;"><defs><clipPath id="victory-clip-5"><rect x="15" y="34" width="563" height="240"></rect></clipPath></defs><g clip-path="url(#victory-clip-5)"><path shape-rendering="auto" role="presentation" d="M24.5528188286809,204.4C27.73709177157453,191.35000000000002,30.921364714468165,178.3,34.1056376573618,178.3C37.28991060025543,178.3,40.47418354314906,178.5,43.658456486042695,178.9C46.7400109469075,179.28709677419354,49.821565407772304,187.71671073506081,52.90311986863711,194.5C56.08739281153075,201.50939890710382,59.271665754424376,220.6,62.45593869731801,220.6C65.54177309493402,220.6,68.62760749255003,190,71.71344189016602,190C74.89771483305965,190,78.0819877759533,243.1,81.26626071884692,243.1C84.45053366174056,243.1,87.63480660463419,172,90.81907954752783,172C93.69519704433499,172,96.57131454114213,187.63,99.44743203794928,187.63C102.62742504409171,187.63,105.80741805023415,160.60000000000002,108.98741105637657,160.60000000000002C112.06896551724138,160.60000000000002,115.15051997810617,171.1,118.23207443897098,171.1C121.41634738186463,171.1,124.60062032475825,153.28,127.7848932676519,153.28C130.8664477285167,153.28,133.9480021893815,188.258064516129,137.02955665024632,196C140.21382959313993,204,143.39810253603358,208,146.5823754789272,208C149.76664842182083,208,152.95092136471445,118,156.1351943076081,118C159.2167487684729,118,162.2983032293377,182.33548387096766,165.37985769020253,192.39999999999998C168.56413063309614,202.79999999999998,171.74840357598978,200.2003160191808,174.9326765188834,208C178.0185109164994,215.5585647179713,181.10434531411542,236.35255376344085,184.19017971173142,238C187.37445265462506,239.70000000000002,190.55872559751867,240.55,193.74299854041232,240.55C196.92727148330596,240.55,200.1115444261996,118,203.29581736909324,118C206.1719348659004,118,209.04805236270755,120.3,211.9241698595147,124.9C215.10416286565712,129.98601190476188,218.28415587179956,170.31794448241817,221.46414887794197,185.5C224.5457033388068,200.21208610048313,227.62725779967158,215.5,230.7088122605364,215.5C233.89308520343002,215.5,237.07735814632366,152.5,240.26163108921727,152.5C243.3431855500821,152.5,246.4247400109469,189.85076679005817,249.5062944718117,205.075C252.69056741470536,220.8067076502732,255.874840357599,244.9,259.05911330049264,244.9C262.2433862433863,244.9,265.42765918627987,221.54617486338796,268.6119321291735,211C271.69348659003833,200.79402432575355,274.7750410509031,198.03648863035434,277.8565955117679,182.5C281.04086845466156,166.44562841530055,284.22514139755515,135.24425925312298,287.4094143404488,115C290.4952487380648,95.38157134206753,293.58108313568084,62.5,296.66691753329684,62.5C299.8511904761905,62.5,303.03546341908407,121.44500000000004,306.2197363619777,142C309.40400930487135,162.5550000000001,312.588282247765,185.82999999999998,315.77255519065864,185.82999999999998C318.6486726874658,185.82999999999998,321.52479018427294,148,324.4009076810801,148C327.58090068722254,148,330.76089369336495,208,333.94088669950736,208C337.0224411603722,208,340.10399562123695,205,343.18555008210177,199C346.3698230249954,192.79999999999998,349.55409596788905,146.5,352.7383689107827,146.5C355.8199233716475,146.5,358.9014778325123,184,361.9830322933771,184C365.16730523627075,184,368.35157817916433,178,371.535851122058,178C374.7201240649516,178,377.90439700784526,185.125,381.0886699507389,185.125C384.1702244116037,185.125,387.2517788724685,163.3486911686938,390.3333333333333,151C393.51760627622696,138.23968579234972,396.7018792191206,109.6,399.88615216201424,109.6C402.97198655963024,109.6,406.0578209572463,148.95982513119742,409.1436553548623,167.2C412.32792829775593,186.0220389769612,415.5122012406495,220.6,418.69647418354316,220.6C421.8807471264368,220.6,425.0650200693304,166.8551724137931,428.24929301222403,166C431.22812899106003,165.20000000000002,434.206964969896,164.8,437.185800948732,164.8C440.3657939548744,164.8,443.54578696101686,166.95000000000002,446.72577996715927,171.25C449.8073344280241,175.4168909825034,452.8888888888889,208,455.97044334975374,208C459.1547162926473,208,462.33898923554096,181.82360655737696,465.52326217843455,168.4C468.6048166392994,155.40941300898987,471.6863711001642,128.8,474.767925561029,128.8C477.95219850392266,128.8,481.1364714468163,181.99999999999991,484.32074438970994,190C487.50501733260353,198,490.68929027549717,194,493.87356321839076,202C496.9551176792556,209.7419354838711,500.0366721401204,237.898,503.1182266009852,237.898C506.3024995438788,237.898,509.48677248677245,224.23914397049955,512.671045429666,210.4C515.7568798272821,196.98867902858817,518.8427142248981,157,521.9285486225142,157C525.1128215654078,157,528.2970945083015,164.25,531.4813674511951,175.3C534.6656403940887,186.35000000000002,537.8499133369824,223.3,541.0341862798759,223.3C543.9103037766831,223.3,546.7864212734902,204.2145422292397,549.6625387702974,196C552.8425317764398,186.91755226737337,556.0225247825822,172,559.2025177887247,172C562.2840722495895,172,565.3656267104543,182.7261766261237,568.4471811713191,190.3C571.6314541142127,198.12628415300546,574.8157270571064,208.31314207650274,578,218.5" style="fill: transparent; stroke: rgb(51, 51, 51); stroke-width: 2; opacity: 1;"></path></g></g></svg>