<svg xmlns="http://www.w3.org/2000/svg" width="640" height="324" role="img" aria-labelledby="victory-container-4-title victory-container-4-desc" viewBox="0 0 640 324" style="pointer-events: all; width: 100%; height: 100%;"><g role="presentation"><line x1="15" x2="578" y1="274" y2="274" role="presentation" shape-rendering="auto" vector-effect="non-scaling-stroke" style="stroke: rgb(226, 226, 226); fill: transparent; stroke-width: 1; stroke-linejoin: round;"></line><g role="presentation"><line x1="81.26626071884692" x2="81.26626071884692" y1="274" y2="34" role="presentation" shape-rendering="auto" vector-effect="non-scaling-stroke" style="stroke: transparent; fill: transparent; stroke-width: 1; stroke-linecap: round; stroke-linejoin: round; pointer-events: none;"></line><line x1="81.26626071884692" x2="81.26626071884692" y1="274" y2="278" role="presentation" shape-rendering="auto" vector-effect="non-scaling-stroke" style="stroke: transparent; fill: transparent; size: 4px; stroke-width: 1; stroke-linecap: round; stroke-linejoin: round;"></line><text dx="0" dy="11.969999999999999" x="81.26626071884692" y="286"><tspan x="81.26626071884692" dx="0" text-anchor="middle" style="fill: rgb(153, 153, 153); font-size: 14px; font-family: inherit; stroke: transparent; letter-spacing: normal; padding: 8px; stroke-width: 0;">2017</tspan></text></g><g role="presentation"><line x1="193.74299854041232" x2="193.74299854041232" y1="274" y2="34" role="presentation" shape-rendering="auto" vector-effect="non-scaling-stroke" style="stroke: transparent; fill: transparent; stroke-width: 1; stroke-linecap: round; stroke-linejoin: round; pointer-events: none;"></line><line x1="193.74299854041232" x2="193.74299854041232" y1="274" y2="278" role="presentation" shape-rendering="auto" vector-effect="non-scaling-stroke" style="stroke: transparent; fill: transparent; size: 4px; stroke-width: 1; stroke-linecap: round; stroke-linejoin: round;"></line><text dx="0" dy="11.969999999999999" x="193.74299854041232" y="286"><tspan x="193.74299854041232" dx="0" text-anchor="middle" style="fill: rgb(153, 153, 153); font-size: 14px; font-family: inherit; stroke: transparent; letter-spacing: normal; padding: 8px; stroke-width: 0;">2018</tspan></text></g><g role="presentation"><line x1="306.2197363619777" x2="306.2197363619777" y1="274" y2="34" role="presentation" shape-rendering="auto" vector-effect="non-scaling-stroke" style="stroke: transparent; fill: transparent; stroke-width: 1; stroke-linecap: round; stroke-linejoin: round; pointer-events: none;"></line><line x1="306.2197363619777" x2="306.2197363619777" y1="274" y2="278" role="presentation" shape-rendering="auto" vector-effect="non-scaling-stroke" style="stroke: transparent; fill: transparent; size: 4px; stroke-width: 1; stroke-linecap: round; stroke-linejoin: round;"></line><text dx="0" dy="11.969999999999999" x="306.2197363619777" y="286"><tspan x="306.2197363619777" dx="0" text-anchor="middle" style="fill: rgb(153, 153, 153); font-size: 14px; font-family: inherit; stroke: transparent; letter-spacing: normal; padding: 8px; stroke-width: 0;">2019</tspan></text></g><g role="presentation"><line x1="418.69647418354316" x2="418.69647418354316" y1="274" y2="34" role="presentation" shape-rendering="auto" vector-effect="non-scaling-stroke" style="stroke: transparent; fill: transparent; stroke-width: 1; stroke-linecap: round; stroke-linejoin: round; pointer-events: none;"></line><line x1="418.69647418354316" x2="418.69647418354316" y1="274" y2="278" role="presentation" shape-rendering="auto" vector-effect="non-scaling-stroke" style="stroke: transparent; fill: transparent; size: 4px; stroke-width: 1; stroke-linecap: round; stroke-linejoin: round;"></line><text dx="0" dy="11.969999999999999" x="418.69647418354316" y="286"><tspan x="418.69647418354316" dx="0" text-anchor="middle" style="fill: rgb(153, 153, 153); font-size: 14px; font-family: inherit; stroke: transparent; letter-spacing: normal; padding: 8px; stroke-width: 0;">2020</tspan></text></g><g role="presentation"><line x1="531.4813674511951" x2="531.4813674511951" y1="274" y2="34" role="presentation" shape-rendering="auto" vector-effect="non-scaling-stroke" style="stroke: transparent; fill: transparent; stroke-width: 1; stroke-linecap: round; stroke-linejoin: round; pointer-events: none;"></line><line x1="531.4813674511951" x2="531.4813674511951" y1="274" y2="278" role="presentation" shape-rendering="auto" vector-effect="non-scaling-stroke" style="stroke: transparent; fill: transparent; size: 4px; stroke-width: 1; stroke-linecap: round; stroke-linejoin: round;"></line><text dx="0" dy="11.969999999999999" x="531.4813674511951" y="286"><tspan x="531.4813674511951" dx="0" text-anchor="middle" style="fill: rgb(153, 153, 153); font-size: 14px; font-family: inherit; stroke: transparent; letter-spacing: normal; padding: 8px; stroke-width: 0;">2021</tspan></text></g></g><g role="presentation"><line x1="578" x2="578" y1="34" y2="274" role="presentation" shape-rendering="auto" vector-effect="non-scaling-stroke" style="stroke: transparent; fill: transparent; stroke-width: 1; stroke-linejoin: round;"></line><g role="presentation"><line x1="578" x2="15" y1="274" y2="274" role="presentation" shape-rendering="auto" vector-effect="non-scaling-stroke" style="stroke: rgb(226, 226, 226); fill: transparent; stroke-width: 1; stroke-linecap: round; stroke-linejoin: round; pointer-events: none;"></line><line x1="578" x2="582" y1="274" y2="274" role="presentation" shape-rendering="auto" vector-effect="non-scaling-stroke" style="stroke: transparent; fill: transparent; size: 4px; stroke-width: 1; stroke-linecap: round; stroke-linejoin: round;"></line><text dx="0" dy="4.97" x="590" y="274"><tspan x="590" dx="0" text-anchor="start" style="fill: rgb(153, 153, 153); font-size: 14px; font-family: inherit; stroke: transparent; letter-spacing: normal; padding: 8px; stroke-width: 0;">$300K</tspan></text></g><g role="presentation"><line x1="578" x2="15" y1="234" y2="234" role="presentation" shape-rendering="auto" vector-effect="non-scaling-stroke" style="stroke: rgb(226, 226, 226); fill: transparent; stroke-width: 1; stroke-linecap: round; stroke-linejoin: round; pointer-events: none;"></line><line x1="578" x2="582" y1="234" y2="234" role="presentation" shape-rendering="auto" vector-effect="non-scaling-stroke" style="stroke: transparent; fill: transparent; size: 4px; stroke-width: 1; stroke-linecap: round; stroke-linejoin: round;"></line><text dx="0" dy="4.97" x="590" y="234"><tspan x="590" dx="0" text-anchor="start" style="fill: rgb(153, 153, 153); font-size: 14px; font-family: inherit; stroke: transparent; letter-spacing: normal; padding: 8px; stroke-width: 0;">$350K</tspan></text></g><g role="presentation"><line x1="578" x2="15" y1="194" y2="194" role="presentation" shape-rendering="auto" vector-effect="non-scaling-stroke" style="stroke: rgb(226, 226, 226); fill: transparent; stroke-width: 1; stroke-linecap: round; stroke-linejoin: round; pointer-events: none;"></line><line x1="578" x2="582" y1="194" y2="194" role="presentation" shape-rendering="auto" vector-effect="non-scaling-stroke" style="stroke: transparent; fill: transparent; size: 4px; stroke-width: 1; stroke-linecap: round; stroke-linejoin: round;"></line><text dx="0" dy="4.97" x="590" y="194"><tspan x="590" dx="0" text-anchor="start" style="fill: rgb(153, 153, 153); font-size: 14px; font-family: inherit; stroke: transparent; letter-spacing: normal; padding: 8px; stroke-width: 0;">$400K</tspan></text></g><g role="presentation"><line x1="578" x2="15" y1="154" y2="154" role="presentation" shape-rendering="auto" vector-effect="non-scaling-stroke" style="stroke: rgb(226, 226, 226); fill: transparent; stroke-width: 1; stroke-linecap: round; stroke-linejoin: round; pointer-events: none;"></line><line x1="578" x2="582" y1="154" y2="154" role="presentation" shape-rendering="auto" vector-effect="non-scaling-stroke" style="stroke: transparent; fill: transparent; size: 4px; stroke-width: 1; stroke-linecap: round; stroke-linejoin: round;"></line><text dx="0" dy="4.97" x="590" y="154"><tspan x="590" dx="0" text-anchor="start" style="fill: rgb(153, 153, 153); font-size: 14px; font-family: inherit; stroke: transparent; letter-spacing: normal; padding: 8px; stroke-width: 0;">$450K</tspan></text></g><g role="presentation"><line x1="578" x2="15" y1="114" y2="114" role="presentation" shape-rendering="auto" vector-effect="non-scaling-stroke" style="stroke: rgb(226, 226, 226); fill: transparent; stroke-width: 1; stroke-linecap: round; stroke-linejoin: round; pointer-events: none;"></line><line x1="578" x2="582" y1="114" y2="114" role="presentation" shape-rendering="auto" vector-effect="non-scaling-stroke" style="stroke: transparent; fill: transparent; size: 4px; stroke-width: 1; stroke-linecap: round; stroke-linejoin: round;"></line><text dx="0" dy="4.97" x="590" y="114"><tspan x="590" dx="0" text-anchor="start" style="fill: rgb(153, 153, 153); font-size: 14px; font-family: inherit; stroke: transparent; letter-spacing: normal; padding: 8px; stroke-width: 0;">$500K</tspan></text></g><g role="presentation"><line x1="578" x2="15" y1="74" y2="74" role="presentation" shape-rendering="auto" vector-effect="non-scaling-stroke" style="stroke: rgb(226, 226, 226); fill: transparent; stroke-width: 1; stroke-linecap: round; stroke-linejoin: round; pointer-events: none;"></line><line x1="578" x2="582" y1="74" y2="74" role="presentation" shape-rendering="auto" vector-effect="non-scaling-stroke" style="stroke: transparent; fill: transparent; size: 4px; stroke-width: 1; stroke-linecap: round; stroke-linejoin: round;"></line><text dx="0" dy="4.97" x="590" y="74"><tspan x="590" dx="0" text-anchor="start" style="fill: rgb(153, 153, 153); font-size: 14px; font-family: inherit; stroke: transparent; letter-spacing: normal; padding: 8px; stroke-width: 0;">$550K</tspan></text></g><g role="presentation"><line x1="578" x2="15" y1="34" y2="34" role="presentation" shape-rendering="auto" vector-effect="non-scaling-stroke" style="stroke: rgb(226, 226, 226); fill: transparent; stroke-width: 1; stroke-linecap: round; stroke-linejoin: round; pointer-events: none;"></line><line x1="578" x2="582" y1="34" y2="34" role="presentation" shape-rendering="auto" vector-effect="non-scaling-stroke" style="stroke: transparent; fill: transparent; size: 4px; stroke-width: 1; stroke-linecap: round; stroke-linejoin: round;"></line><text dx="0" dy="4.97" x="590" y="34"><tspan x="590" dx="0" text-anchor="start" style="fill: rgb(153, 153, 153); font-size: 14px; font-family: inherit; stroke: transparent; letter-spacing: normal; padding: 8px; stroke-width: 0;">$600K</tspan></text></g></g><g style="height: 100%; width: 100%; user-select: none;"><defs><clipPath id="victory-clip-5"><rect x="15" y="34" width="563" height="240"></rect></clipPath></defs><g clip-path="url(#victory-clip-5)"><path shape-rendering="auto" role="presentation" d="M15.30815544608648,151C18.389709906951285,145.2,21.471264367816094,139.4,24.5528188286809,139.4C27.73709177157453,139.4,30.921364714468165,152,34.1056376573618,152C37.28991060025543,152,40.47418354314906,134.04,43.658456486042695,134.04C46.7400109469075,134.04,49.821565407772304,154,52.90311986863711,154C56.08739281153075,154,59.271665754424376,152.46666666666667,62.45593869731801,149.4C65.54177309493402,146.42813620071686,68.62760749255003,136.01047194392456,71.71344189016602,128C74.89771483305965,119.73399289004179,78.0819877759533,100.39999999999998,81.26626071884692,100.39999999999998C84.45053366174056,100.39999999999998,87.63480660463419,152,90.81907954752783,152C93.69519704433499,152,96.57131454114213,130,99.44743203794928,130C102.62742504409171,130,105.80741805023415,154,108.98741105637657,154C112.06896551724138,154,115.15051997810617,113.27234267583289,118.23207443897098,100C121.41634738186463,86.28524590163931,124.60062032475825,74,127.7848932676519,74C130.8664477285167,74,133.9480021893815,88.35769434161816,137.02955665024632,101.6C140.21382959313993,115.28371584699451,143.39810253603358,155.6,146.5823754789272,155.6C149.76664842182083,155.6,152.95092136471445,155.06666666666666,156.1351943076081,154C159.2167487684729,152.96774193548387,162.2983032293377,83.6,165.37985769020253,83.6C168.56413063309614,83.6,171.74840357598978,111.07141585366045,174.9326765188834,120.6C178.0185109164994,129.8340177009554,181.10434531411542,140.4,184.19017971173142,140.4C187.37445265462506,140.4,190.55872559751867,138,193.74299854041232,133.2C196.92727148330596,128.39999999999998,200.1115444261996,100,203.29581736909324,100C206.1719348659004,100,209.04805236270755,154,211.9241698595147,154C215.10416286565712,154,218.28415587179956,66,221.46414887794197,66C224.5457033388068,66,227.62725779967158,144,230.7088122605364,144C233.89308520343002,144,237.07735814632366,140.92000000000002,240.26163108921727,140.92000000000002C243.3431855500821,140.92000000000002,246.4247400109469,158,249.5062944718117,158C252.69056741470536,158,255.874840357599,120.8,259.05911330049264,110C262.2433862433863,99.20000000000007,265.42765918627987,93.20000000000002,268.6119321291735,93.20000000000002C271.69348659003833,93.20000000000002,274.7750410509031,160.07,277.8565955117679,160.07C281.04086845466156,160.07,284.22514139755515,129.19199999999998,287.4094143404488,129.19199999999998C290.4952487380648,129.19199999999998,293.58108313568084,132.21250232791414,296.66691753329684,137C299.8511904761905,141.94021951183336,303.03546341908407,151.43333333333337,306.2197363619777,158.8C309.40400930487135,166.16666666666669,312.588282247765,176.1052461662631,315.77255519065864,181.2C318.6486726874658,185.80171314014945,321.52479018427294,189.2,324.4009076810801,189.2C327.58090068722254,189.2,330.76089369336495,110,333.94088669950736,110C337.0224411603722,110,340.10399562123695,117.66451612903226,343.18555008210177,118C346.3698230249954,118.34666666666665,349.55409596788905,118.17333333333333,352.7383689107827,118.51999999999998C355.8199233716475,118.85548387096772,358.9014778325123,125.01333333333332,361.9830322933771,138C365.16730523627075,151.41955555555555,368.35157817916433,206,371.535851122058,206C374.7201240649516,206,377.90439700784526,173.23737704918037,381.0886699507389,154C384.1702244116037,135.38318350079325,387.2517788724685,92.80000000000001,390.3333333333333,92.80000000000001C393.51760627622696,92.80000000000001,396.7018792191206,126.39253495413872,399.88615216201424,138C402.97198655963024,149.24863212105643,406.0578209572463,162,409.1436553548623,162C412.32792829775593,162,415.5122012406495,101.54240000000001,418.69647418354316,101.54240000000001C421.8807471264368,101.54240000000001,425.0650200693304,122.80000000000001,428.24929301222403,122.80000000000001C431.22812899106003,122.80000000000001,434.206964969896,122.53333333333335,437.185800948732,122C440.3657939548744,121.43065134099616,443.54578696101686,109.03464064200902,446.72577996715927,98.80000000000001C449.8073344280241,88.88217865108139,452.8888888888889,62,455.97044334975374,62C459.1547162926473,62,462.33898923554096,108.8977777777778,465.52326217843455,110C468.6048166392994,111.06666666666666,471.6863711001642,110.63091838533403,474.767925561029,111.6C477.95219850392266,112.60138433515482,481.1364714468163,116,484.32074438970994,116C487.50501733260353,116,490.68929027549717,111.904,493.87356321839076,111.904C496.9551176792556,111.904,500.0366721401204,158.8,503.1182266009852,158.8C506.3024995438788,158.8,509.48677248677245,46.91999999999999,512.671045429666,46.91999999999999C515.7568798272821,46.91999999999999,518.8427142248981,53.679999999999986,521.9285486225142,67.19999999999999C525.1128215654078,81.1512898751731,528.2970945083015,131.06666666666666,531.4813674511951,138.79999999999998C534.6656403940887,146.5333333333333,537.8499133369824,150.39999999999998,541.0341862798759,150.39999999999998C543.9103037766831,150.39999999999998,546.7864212734902,97.45561722745622,549.6625387702974,85.99959999999999C552.8425317764398,73.33319999999999,556.0225247825822,67,559.2025177887247,67C562.2840722495895,67,565.3656267104543,178.1,568.4471811713191,178.1C571.6314541142127,178.1,574.8157270571064,135.03,578,91.96000000000001" style="fill: transparent; stroke: rgb(51, 51, 51); stroke-width: 2; opacity: 1;"></path></g></g></svg>