<svg xmlns="http://www.w3.org/2000/svg" width="640" height="324" role="img" aria-labelledby="victory-container-4-title victory-container-4-desc" viewBox="0 0 640 324" style="pointer-events: all; width: 100%; height: 100%;"><g role="presentation"><line x1="15" x2="578" y1="274" y2="274" role="presentation" shape-rendering="auto" vector-effect="non-scaling-stroke" style="stroke: rgb(226, 226, 226); fill: transparent; stroke-width: 1; stroke-linejoin: round;"></line><g role="presentation"><line x1="81.26626071884692" x2="81.26626071884692" y1="274" y2="34" role="presentation" shape-rendering="auto" vector-effect="non-scaling-stroke" style="stroke: transparent; fill: transparent; stroke-width: 1; stroke-linecap: round; stroke-linejoin: round; pointer-events: none;"></line><line x1="81.26626071884692" x2="81.26626071884692" y1="274" y2="278" role="presentation" shape-rendering="auto" vector-effect="non-scaling-stroke" style="stroke: transparent; fill: transparent; size: 4px; stroke-width: 1; stroke-linecap: round; stroke-linejoin: round;"></line><text dx="0" dy="11.969999999999999" x="81.26626071884692" y="286"><tspan x="81.26626071884692" dx="0" text-anchor="middle" style="fill: rgb(153, 153, 153); font-size: 14px; font-family: inherit; stroke: transparent; letter-spacing: normal; padding: 8px; stroke-width: 0;">2017</tspan></text></g><g role="presentation"><line x1="193.74299854041232" x2="193.74299854041232" y1="274" y2="34" role="presentation" shape-rendering="auto" vector-effect="non-scaling-stroke" style="stroke: transparent; fill: transparent; stroke-width: 1; stroke-linecap: round; stroke-linejoin: round; pointer-events: none;"></line><line x1="193.74299854041232" x2="193.74299854041232" y1="274" y2="278" role="presentation" shape-rendering="auto" vector-effect="non-scaling-stroke" style="stroke: transparent; fill: transparent; size: 4px; stroke-width: 1; stroke-linecap: round; stroke-linejoin: round;"></line><text dx="0" dy="11.969999999999999" x="193.74299854041232" y="286"><tspan x="193.74299854041232" dx="0" text-anchor="middle" style="fill: rgb(153, 153, 153); font-size: 14px; font-family: inherit; stroke: transparent; letter-spacing: normal; padding: 8px; stroke-width: 0;">2018</tspan></text></g><g role="presentation"><line x1="306.2197363619777" x2="306.2197363619777" y1="274" y2="34" role="presentation" shape-rendering="auto" vector-effect="non-scaling-stroke" style="stroke: transparent; fill: transparent; stroke-width: 1; stroke-linecap: round; stroke-linejoin: round; pointer-events: none;"></line><line x1="306.2197363619777" x2="306.2197363619777" y1="274" y2="278" role="presentation" shape-rendering="auto" vector-effect="non-scaling-stroke" style="stroke: transparent; fill: transparent; size: 4px; stroke-width: 1; stroke-linecap: round; stroke-linejoin: round;"></line><text dx="0" dy="11.969999999999999" x="306.2197363619777" y="286"><tspan x="306.2197363619777" dx="0" text-anchor="middle" style="fill: rgb(153, 153, 153); font-size: 14px; font-family: inherit; stroke: transparent; letter-spacing: normal; padding: 8px; stroke-width: 0;">2019</tspan></text></g><g role="presentation"><line x1="418.69647418354316" x2="418.69647418354316" y1="274" y2="34" role="presentation" shape-rendering="auto" vector-effect="non-scaling-stroke" style="stroke: transparent; fill: transparent; stroke-width: 1; stroke-linecap: round; stroke-linejoin: round; pointer-events: none;"></line><line x1="418.69647418354316" x2="418.69647418354316" y1="274" y2="278" role="presentation" shape-rendering="auto" vector-effect="non-scaling-stroke" style="stroke: transparent; fill: transparent; size: 4px; stroke-width: 1; stroke-linecap: round; stroke-linejoin: round;"></line><text dx="0" dy="11.969999999999999" x="418.69647418354316" y="286"><tspan x="418.69647418354316" dx="0" text-anchor="middle" style="fill: rgb(153, 153, 153); font-size: 14px; font-family: inherit; stroke: transparent; letter-spacing: normal; padding: 8px; stroke-width: 0;">2020</tspan></text></g><g role="presentation"><line x1="531.4813674511951" x2="531.4813674511951" y1="274" y2="34" role="presentation" shape-rendering="auto" vector-effect="non-scaling-stroke" style="stroke: transparent; fill: transparent; stroke-width: 1; stroke-linecap: round; stroke-linejoin: round; pointer-events: none;"></line><line x1="531.4813674511951" x2="531.4813674511951" y1="274" y2="278" role="presentation" shape-rendering="auto" vector-effect="non-scaling-stroke" style="stroke: transparent; fill: transparent; size: 4px; stroke-width: 1; stroke-linecap: round; stroke-linejoin: round;"></line><text dx="0" dy="11.969999999999999" x="531.4813674511951" y="286"><tspan x="531.4813674511951" dx="0" text-anchor="middle" style="fill: rgb(153, 153, 153); font-size: 14px; font-family: inherit; stroke: transparent; letter-spacing: normal; padding: 8px; stroke-width: 0;">2021</tspan></text></g></g><g role="presentation"><line x1="578" x2="578" y1="34" y2="274" role="presentation" shape-rendering="auto" vector-effect="non-scaling-stroke" style="stroke: transparent; fill: transparent; stroke-width: 1; stroke-linejoin: round;"></line><g role="presentation"><line x1="578" x2="15" y1="274" y2="274" role="presentation" shape-rendering="auto" vector-effect="non-scaling-stroke" style="stroke: rgb(226, 226, 226); fill: transparent; stroke-width: 1; stroke-linecap: round; stroke-linejoin: round; pointer-events: none;"></line><line x1="578" x2="582" y1="274" y2="274" role="presentation" shape-rendering="auto" vector-effect="non-scaling-stroke" style="stroke: transparent; fill: transparent; size: 4px; stroke-width: 1; stroke-linecap: round; stroke-linejoin: round;"></line><text dx="0" dy="4.97" x="590" y="274"><tspan x="590" dx="0" text-anchor="start" style="fill: rgb(153, 153, 153); font-size: 14px; font-family: inherit; stroke: transparent; letter-spacing: normal; padding: 8px; stroke-width: 0;">$200K</tspan></text></g><g role="presentation"><line x1="578" x2="15" y1="214" y2="214" role="presentation" shape-rendering="auto" vector-effect="non-scaling-stroke" style="stroke: rgb(226, 226, 226); fill: transparent; stroke-width: 1; stroke-linecap: round; stroke-linejoin: round; pointer-events: none;"></line><line x1="578" x2="582" y1="214" y2="214" role="presentation" shape-rendering="auto" vector-effect="non-scaling-stroke" style="stroke: transparent; fill: transparent; size: 4px; stroke-width: 1; stroke-linecap: round; stroke-linejoin: round;"></line><text dx="0" dy="4.97" x="590" y="214"><tspan x="590" dx="0" text-anchor="start" style="fill: rgb(153, 153, 153); font-size: 14px; font-family: inherit; stroke: transparent; letter-spacing: normal; padding: 8px; stroke-width: 0;">$300K</tspan></text></g><g role="presentation"><line x1="578" x2="15" y1="154" y2="154" role="presentation" shape-rendering="auto" vector-effect="non-scaling-stroke" style="stroke: rgb(226, 226, 226); fill: transparent; stroke-width: 1; stroke-linecap: round; stroke-linejoin: round; pointer-events: none;"></line><line x1="578" x2="582" y1="154" y2="154" role="presentation" shape-rendering="auto" vector-effect="non-scaling-stroke" style="stroke: transparent; fill: transparent; size: 4px; stroke-width: 1; stroke-linecap: round; stroke-linejoin: round;"></line><text dx="0" dy="4.97" x="590" y="154"><tspan x="590" dx="0" text-anchor="start" style="fill: rgb(153, 153, 153); font-size: 14px; font-family: inherit; stroke: transparent; letter-spacing: normal; padding: 8px; stroke-width: 0;">$400K</tspan></text></g><g role="presentation"><line x1="578" x2="15" y1="94" y2="94" role="presentation" shape-rendering="auto" vector-effect="non-scaling-stroke" style="stroke: rgb(226, 226, 226); fill: transparent; stroke-width: 1; stroke-linecap: round; stroke-linejoin: round; pointer-events: none;"></line><line x1="578" x2="582" y1="94" y2="94" role="presentation" shape-rendering="auto" vector-effect="non-scaling-stroke" style="stroke: transparent; fill: transparent; size: 4px; stroke-width: 1; stroke-linecap: round; stroke-linejoin: round;"></line><text dx="0" dy="4.97" x="590" y="94"><tspan x="590" dx="0" text-anchor="start" style="fill: rgb(153, 153, 153); font-size: 14px; font-family: inherit; stroke: transparent; letter-spacing: normal; padding: 8px; stroke-width: 0;">$500K</tspan></text></g><g role="presentation"><line x1="578" x2="15" y1="34" y2="34" role="presentation" shape-rendering="auto" vector-effect="non-scaling-stroke" style="stroke: rgb(226, 226, 226); fill: transparent; stroke-width: 1; stroke-linecap: round; stroke-linejoin: round; pointer-events: none;"></line><line x1="578" x2="582" y1="34" y2="34" role="presentation" shape-rendering="auto" vector-effect="non-scaling-stroke" style="stroke: transparent; fill: transparent; size: 4px; stroke-width: 1; stroke-linecap: round; stroke-linejoin: round;"></line><text dx="0" dy="4.97" x="590" y="34"><tspan x="590" dx="0" text-anchor="start" style="fill: rgb(153, 153, 153); font-size: 14px; font-family: inherit; stroke: transparent; letter-spacing: normal; padding: 8px; stroke-width: 0;">$600K</tspan></text></g></g><g style="height: 100%; width: 100%; user-select: none;"><defs><clipPath id="victory-clip-5"><rect x="15" y="34" width="563" height="240"></rect></clipPath></defs><g clip-path="url(#victory-clip-5)"><path shape-rendering="auto" role="presentation" d="M15.30815544608648,165.7C18.389709906951285,166.75,21.471264367816094,167.79999999999998,24.5528188286809,172C27.73709177157453,176.34,30.921364714468165,196.6,34.1056376573618,196.6C37.28991060025543,196.6,40.47418354314906,181,43.658456486042695,181C46.7400109469075,181,49.821565407772304,220,52.90311986863711,220C56.08739281153075,220,59.271665754424376,216.02,62.45593869731801,208.06C65.54177309493402,200.3460752688172,68.62760749255003,172,71.71344189016602,172C74.89771483305965,172,78.0819877759533,228.88,81.26626071884692,228.88C84.45053366174056,228.88,87.63480660463419,189.77105326876514,90.81907954752783,175C93.69519704433499,161.6584034991799,96.57131454114213,142.78,99.44743203794928,142.78C102.62742504409171,142.78,105.80741805023415,199,108.98741105637657,199C112.06896551724138,199,115.15051997810617,128.5,118.23207443897098,128.5C121.41634738186463,128.5,124.60062032475825,172,127.7848932676519,172C130.8664477285167,172,133.9480021893815,171,137.02955665024632,169C140.21382959313993,166.93333333333334,143.39810253603358,119.19999999999999,146.5823754789272,119.19999999999999C149.76664842182083,119.19999999999999,152.95092136471445,175.6954,156.1351943076081,175.6954C159.2167487684729,175.6954,162.2983032293377,146.55978836594397,165.37985769020253,134.2C168.56413063309614,121.42821868852462,171.74840357598978,100.6,174.9326765188834,100.6C178.0185109164994,100.6,181.10434531411542,121.72077195493412,184.19017971173142,139C187.37445265462506,156.8304378162677,190.55872559751867,206.8,193.74299854041232,206.8C196.92727148330596,206.8,200.1115444261996,170.8,203.29581736909324,170.8C206.1719348659004,170.8,209.04805236270755,178,211.9241698595147,178C215.10416286565712,178,218.28415587179956,147.24254166666663,221.46414887794197,140.215C224.5457033388068,133.405,227.62725779967158,132.53950555261767,230.7088122605364,130C233.89308520343002,127.37584426229509,237.07735814632366,124.9,240.26163108921727,124.9C243.3431855500821,124.9,246.4247400109469,142.86636700158647,249.5062944718117,151C252.69056741470536,159.40475409836066,255.874840357599,169.15,259.05911330049264,174.4C262.2433862433863,179.64999999999998,265.42765918627987,182.5,268.6119321291735,182.5C271.69348659003833,182.5,274.7750410509031,182.21,277.8565955117679,181.63C281.04086845466156,181.03066666666666,284.22514139755515,154,287.4094143404488,154C290.4952487380648,154,293.58108313568084,157.05271014532642,296.66691753329684,160C299.8511904761905,163.04130880981572,303.03546341908407,172.15,306.2197363619777,172.15C309.40400930487135,172.15,312.588282247765,171.1,315.77255519065864,169C318.6486726874658,167.1032258064516,321.52479018427294,159.40444145356662,324.4009076810801,158.5C327.58090068722254,157.5,330.76089369336495,157,333.94088669950736,157C337.0224411603722,157,340.10399562123695,157.02,343.18555008210177,157.06C346.3698230249954,157.10133333333334,349.55409596788905,168.1651,352.7383689107827,168.1651C355.8199233716475,168.1651,358.9014778325123,154,361.9830322933771,154C365.16730523627075,154,368.35157817916433,159.25,371.535851122058,160.75C374.7201240649516,162.25,377.90439700784526,162.10601092896175,381.0886699507389,163C384.1702244116037,163.86515071390798,387.2517788724685,166,390.3333333333333,166C393.51760627622696,166,396.7018792191206,161.8,399.88615216201424,161.8C402.97198655963024,161.8,406.0578209572463,176.64999999999998,409.1436553548623,176.64999999999998C412.32792829775593,176.64999999999998,415.5122012406495,171.975,418.69647418354316,169C421.8807471264368,166.025,425.0650200693304,158.8,428.24929301222403,158.8C431.22812899106003,158.8,434.206964969896,170.8,437.185800948732,170.8C440.3657939548744,170.8,443.54578696101686,116.38300000000001,446.72577996715927,116.38300000000001C449.8073344280241,116.38300000000001,452.8888888888889,117.42200000000001,455.97044334975374,119.5C459.1547162926473,121.64726666666662,462.33898923554096,160.60000000000002,465.52326217843455,160.60000000000002C468.6048166392994,160.60000000000002,471.6863711001642,112,474.767925561029,112C477.95219850392266,112,481.1364714468163,175,484.32074438970994,175C487.50501733260353,175,490.68929027549717,150.8232240437158,493.87356321839076,142C496.9551176792556,133.46139608672652,500.0366721401204,122.5,503.1182266009852,122.5C506.3024995438788,122.5,509.48677248677245,160.06,512.671045429666,160.06C515.7568798272821,160.06,518.8427142248981,85,521.9285486225142,85C525.1128215654078,85,528.2970945083015,178,531.4813674511951,178C534.6656403940887,178,537.8499133369824,169.32454128329297,541.0341862798759,162.3502C543.9103037766831,156.05079496992892,546.7864212734902,139.15,549.6625387702974,139.15C552.8425317764398,139.15,556.0225247825822,160,559.2025177887247,160C562.2840722495895,160,565.3656267104543,112,568.4471811713191,112C571.6314541142127,112,574.8157270571064,131.5,578,151" style="fill: transparent; stroke: rgb(51, 51, 51); stroke-width: 2; opacity: 1;"></path></g></g></svg>