<svg xmlns="http://www.w3.org/2000/svg" width="640" height="324" role="img" aria-labelledby="victory-container-4-title victory-container-4-desc" viewBox="0 0 640 324" style="pointer-events: all; width: 100%; height: 100%;"><g role="presentation"><line x1="15" x2="578" y1="274" y2="274" role="presentation" shape-rendering="auto" vector-effect="non-scaling-stroke" style="stroke: rgb(226, 226, 226); fill: transparent; stroke-width: 1; stroke-linejoin: round;"></line><g role="presentation"><line x1="81.26626071884692" x2="81.26626071884692" y1="274" y2="34" role="presentation" shape-rendering="auto" vector-effect="non-scaling-stroke" style="stroke: transparent; fill: transparent; stroke-width: 1; stroke-linecap: round; stroke-linejoin: round; pointer-events: none;"></line><line x1="81.26626071884692" x2="81.26626071884692" y1="274" y2="278" role="presentation" shape-rendering="auto" vector-effect="non-scaling-stroke" style="stroke: transparent; fill: transparent; size: 4px; stroke-width: 1; stroke-linecap: round; stroke-linejoin: round;"></line><text dx="0" dy="11.969999999999999" x="81.26626071884692" y="286"><tspan x="81.26626071884692" dx="0" text-anchor="middle" style="fill: rgb(153, 153, 153); font-size: 14px; font-family: inherit; stroke: transparent; letter-spacing: normal; padding: 8px; stroke-width: 0;">2017</tspan></text></g><g role="presentation"><line x1="193.74299854041232" x2="193.74299854041232" y1="274" y2="34" role="presentation" shape-rendering="auto" vector-effect="non-scaling-stroke" style="stroke: transparent; fill: transparent; stroke-width: 1; stroke-linecap: round; stroke-linejoin: round; pointer-events: none;"></line><line x1="193.74299854041232" x2="193.74299854041232" y1="274" y2="278" role="presentation" shape-rendering="auto" vector-effect="non-scaling-stroke" style="stroke: transparent; fill: transparent; size: 4px; stroke-width: 1; stroke-linecap: round; stroke-linejoin: round;"></line><text dx="0" dy="11.969999999999999" x="193.74299854041232" y="286"><tspan x="193.74299854041232" dx="0" text-anchor="middle" style="fill: rgb(153, 153, 153); font-size: 14px; font-family: inherit; stroke: transparent; letter-spacing: normal; padding: 8px; stroke-width: 0;">2018</tspan></text></g><g role="presentation"><line x1="306.2197363619777" x2="306.2197363619777" y1="274" y2="34" role="presentation" shape-rendering="auto" vector-effect="non-scaling-stroke" style="stroke: transparent; fill: transparent; stroke-width: 1; stroke-linecap: round; stroke-linejoin: round; pointer-events: none;"></line><line x1="306.2197363619777" x2="306.2197363619777" y1="274" y2="278" role="presentation" shape-rendering="auto" vector-effect="non-scaling-stroke" style="stroke: transparent; fill: transparent; size: 4px; stroke-width: 1; stroke-linecap: round; stroke-linejoin: round;"></line><text dx="0" dy="11.969999999999999" x="306.2197363619777" y="286"><tspan x="306.2197363619777" dx="0" text-anchor="middle" style="fill: rgb(153, 153, 153); font-size: 14px; font-family: inherit; stroke: transparent; letter-spacing: normal; padding: 8px; stroke-width: 0;">2019</tspan></text></g><g role="presentation"><line x1="418.69647418354316" x2="418.69647418354316" y1="274" y2="34" role="presentation" shape-rendering="auto" vector-effect="non-scaling-stroke" style="stroke: transparent; fill: transparent; stroke-width: 1; stroke-linecap: round; stroke-linejoin: round; pointer-events: none;"></line><line x1="418.69647418354316" x2="418.69647418354316" y1="274" y2="278" role="presentation" shape-rendering="auto" vector-effect="non-scaling-stroke" style="stroke: transparent; fill: transparent; size: 4px; stroke-width: 1; stroke-linecap: round; stroke-linejoin: round;"></line><text dx="0" dy="11.969999999999999" x="418.69647418354316" y="286"><tspan x="418.69647418354316" dx="0" text-anchor="middle" style="fill: rgb(153, 153, 153); font-size: 14px; font-family: inherit; stroke: transparent; letter-spacing: normal; padding: 8px; stroke-width: 0;">2020</tspan></text></g><g role="presentation"><line x1="531.4813674511951" x2="531.4813674511951" y1="274" y2="34" role="presentation" shape-rendering="auto" vector-effect="non-scaling-stroke" style="stroke: transparent; fill: transparent; stroke-width: 1; stroke-linecap: round; stroke-linejoin: round; pointer-events: none;"></line><line x1="531.4813674511951" x2="531.4813674511951" y1="274" y2="278" role="presentation" shape-rendering="auto" vector-effect="non-scaling-stroke" style="stroke: transparent; fill: transparent; size: 4px; stroke-width: 1; stroke-linecap: round; stroke-linejoin: round;"></line><text dx="0" dy="11.969999999999999" x="531.4813674511951" y="286"><tspan x="531.4813674511951" dx="0" text-anchor="middle" style="fill: rgb(153, 153, 153); font-size: 14px; font-family: inherit; stroke: transparent; letter-spacing: normal; padding: 8px; stroke-width: 0;">2021</tspan></text></g></g><g role="presentation"><line x1="578" x2="578" y1="34" y2="274" role="presentation" shape-rendering="auto" vector-effect="non-scaling-stroke" style="stroke: transparent; fill: transparent; stroke-width: 1; stroke-linejoin: round;"></line><g role="presentation"><line x1="578" x2="15" y1="274" y2="274" role="presentation" shape-rendering="auto" vector-effect="non-scaling-stroke" style="stroke: rgb(226, 226, 226); fill: transparent; stroke-width: 1; stroke-linecap: round; stroke-linejoin: round; pointer-events: none;"></line><line x1="578" x2="582" y1="274" y2="274" role="presentation" shape-rendering="auto" vector-effect="non-scaling-stroke" style="stroke: transparent; fill: transparent; size: 4px; stroke-width: 1; stroke-linecap: round; stroke-linejoin: round;"></line><text dx="0" dy="4.97" x="590" y="274"><tspan x="590" dx="0" text-anchor="start" style="fill: rgb(153, 153, 153); font-size: 14px; font-family: inherit; stroke: transparent; letter-spacing: normal; padding: 8px; stroke-width: 0;">$300K</tspan></text></g><g role="presentation"><line x1="578" x2="15" y1="234" y2="234" role="presentation" shape-rendering="auto" vector-effect="non-scaling-stroke" style="stroke: rgb(226, 226, 226); fill: transparent; stroke-width: 1; stroke-linecap: round; stroke-linejoin: round; pointer-events: none;"></line><line x1="578" x2="582" y1="234" y2="234" role="presentation" shape-rendering="auto" vector-effect="non-scaling-stroke" style="stroke: transparent; fill: transparent; size: 4px; stroke-width: 1; stroke-linecap: round; stroke-linejoin: round;"></line><text dx="0" dy="4.97" x="590" y="234"><tspan x="590" dx="0" text-anchor="start" style="fill: rgb(153, 153, 153); font-size: 14px; font-family: inherit; stroke: transparent; letter-spacing: normal; padding: 8px; stroke-width: 0;">$350K</tspan></text></g><g role="presentation"><line x1="578" x2="15" y1="194" y2="194" role="presentation" shape-rendering="auto" vector-effect="non-scaling-stroke" style="stroke: rgb(226, 226, 226); fill: transparent; stroke-width: 1; stroke-linecap: round; stroke-linejoin: round; pointer-events: none;"></line><line x1="578" x2="582" y1="194" y2="194" role="presentation" shape-rendering="auto" vector-effect="non-scaling-stroke" style="stroke: transparent; fill: transparent; size: 4px; stroke-width: 1; stroke-linecap: round; stroke-linejoin: round;"></line><text dx="0" dy="4.97" x="590" y="194"><tspan x="590" dx="0" text-anchor="start" style="fill: rgb(153, 153, 153); font-size: 14px; font-family: inherit; stroke: transparent; letter-spacing: normal; padding: 8px; stroke-width: 0;">$400K</tspan></text></g><g role="presentation"><line x1="578" x2="15" y1="154" y2="154" role="presentation" shape-rendering="auto" vector-effect="non-scaling-stroke" style="stroke: rgb(226, 226, 226); fill: transparent; stroke-width: 1; stroke-linecap: round; stroke-linejoin: round; pointer-events: none;"></line><line x1="578" x2="582" y1="154" y2="154" role="presentation" shape-rendering="auto" vector-effect="non-scaling-stroke" style="stroke: transparent; fill: transparent; size: 4px; stroke-width: 1; stroke-linecap: round; stroke-linejoin: round;"></line><text dx="0" dy="4.97" x="590" y="154"><tspan x="590" dx="0" text-anchor="start" style="fill: rgb(153, 153, 153); font-size: 14px; font-family: inherit; stroke: transparent; letter-spacing: normal; padding: 8px; stroke-width: 0;">$450K</tspan></text></g><g role="presentation"><line x1="578" x2="15" y1="114" y2="114" role="presentation" shape-rendering="auto" vector-effect="non-scaling-stroke" style="stroke: rgb(226, 226, 226); fill: transparent; stroke-width: 1; stroke-linecap: round; stroke-linejoin: round; pointer-events: none;"></line><line x1="578" x2="582" y1="114" y2="114" role="presentation" shape-rendering="auto" vector-effect="non-scaling-stroke" style="stroke: transparent; fill: transparent; size: 4px; stroke-width: 1; stroke-linecap: round; stroke-linejoin: round;"></line><text dx="0" dy="4.97" x="590" y="114"><tspan x="590" dx="0" text-anchor="start" style="fill: rgb(153, 153, 153); font-size: 14px; font-family: inherit; stroke: transparent; letter-spacing: normal; padding: 8px; stroke-width: 0;">$500K</tspan></text></g><g role="presentation"><line x1="578" x2="15" y1="74" y2="74" role="presentation" shape-rendering="auto" vector-effect="non-scaling-stroke" style="stroke: rgb(226, 226, 226); fill: transparent; stroke-width: 1; stroke-linecap: round; stroke-linejoin: round; pointer-events: none;"></line><line x1="578" x2="582" y1="74" y2="74" role="presentation" shape-rendering="auto" vector-effect="non-scaling-stroke" style="stroke: transparent; fill: transparent; size: 4px; stroke-width: 1; stroke-linecap: round; stroke-linejoin: round;"></line><text dx="0" dy="4.97" x="590" y="74"><tspan x="590" dx="0" text-anchor="start" style="fill: rgb(153, 153, 153); font-size: 14px; font-family: inherit; stroke: transparent; letter-spacing: normal; padding: 8px; stroke-width: 0;">$550K</tspan></text></g><g role="presentation"><line x1="578" x2="15" y1="34" y2="34" role="presentation" shape-rendering="auto" vector-effect="non-scaling-stroke" style="stroke: rgb(226, 226, 226); fill: transparent; stroke-width: 1; stroke-linecap: round; stroke-linejoin: round; pointer-events: none;"></line><line x1="578" x2="582" y1="34" y2="34" role="presentation" shape-rendering="auto" vector-effect="non-scaling-stroke" style="stroke: transparent; fill: transparent; size: 4px; stroke-width: 1; stroke-linecap: round; stroke-linejoin: round;"></line><text dx="0" dy="4.97" x="590" y="34"><tspan x="590" dx="0" text-anchor="start" style="fill: rgb(153, 153, 153); font-size: 14px; font-family: inherit; stroke: transparent; letter-spacing: normal; padding: 8px; stroke-width: 0;">$600K</tspan></text></g></g><g style="height: 100%; width: 100%; user-select: none;"><defs><clipPath id="victory-clip-5"><rect x="15" y="34" width="563" height="240"></rect></clipPath></defs><g clip-path="url(#victory-clip-5)"><path shape-rendering="auto" role="presentation" d="M15.30815544608648,167.37C18.389709906951285,164.685,21.471264367816094,162,24.5528188286809,162C27.73709177157453,162,30.921364714468165,180,34.1056376573618,180C37.28991060025543,180,40.47418354314906,178,43.658456486042695,178C46.7400109469075,178,49.821565407772304,198,52.90311986863711,198C56.08739281153075,198,59.271665754424376,196.66666666666666,62.45593869731801,194C65.54177309493402,191.415770609319,68.62760749255003,166,71.71344189016602,166C74.89771483305965,166,78.0819877759533,166,81.26626071884692,166C84.45053366174056,166,87.63480660463419,169.31985472154963,90.81907954752783,172.8C93.69519704433499,175.9433570256971,96.57131454114213,185.2,99.44743203794928,185.2C102.62742504409171,185.2,105.80741805023415,175.23351237943345,108.98741105637657,172.4C112.06896551724138,169.65420065519237,115.15051997810617,168.2,118.23207443897098,168.2C121.41634738186463,168.2,124.60062032475825,186,127.7848932676519,186C130.8664477285167,186,133.9480021893815,173.6,137.02955665024632,173.6C140.21382959313993,173.6,143.39810253603358,178.4,146.5823754789272,178.4C149.76664842182083,178.4,152.95092136471445,163.73307103825138,156.1351943076081,159.4C159.2167487684729,155.2067054468535,162.2983032293377,155.19595980962455,165.37985769020253,152.44C168.56413063309614,149.59217486338798,171.74840357598978,142.5,174.9326765188834,142.5C178.0185109164994,142.5,181.10434531411542,162,184.19017971173142,162C187.37445265462506,162,190.55872559751867,152.8,193.74299854041232,152.8C196.92727148330596,152.8,200.1115444261996,154.38050847457626,203.29581736909324,155C206.1719348659004,155.55954073264078,209.04805236270755,156.4,211.9241698595147,156.4C215.10416286565712,156.4,218.28415587179956,148.4,221.46414887794197,148.4C224.5457033388068,148.4,227.62725779967158,149.60000000000002,230.7088122605364,149.60000000000002C233.89308520343002,149.60000000000002,237.07735814632366,128.4,240.26163108921727,128.4C243.3431855500821,128.4,246.4247400109469,154.73290322580647,249.5062944718117,160.72C252.69056741470536,166.90666666666667,255.874840357599,170,259.05911330049264,170C262.2433862433863,170,265.42765918627987,167.33333333333334,268.6119321291735,162C271.69348659003833,156.83870967741933,274.7750410509031,144.16337035078442,277.8565955117679,136.4C281.04086845466156,128.37785063752278,284.22514139755515,114.80000000000001,287.4094143404488,114.80000000000001C290.4952487380648,114.80000000000001,293.58108313568084,170,296.66691753329684,170C299.8511904761905,170,303.03546341908407,155.95999999999998,306.2197363619777,155.95999999999998C309.40400930487135,155.95999999999998,312.588282247765,177.8,315.77255519065864,177.8C318.6486726874658,177.8,321.52479018427294,136.56473755047105,324.4009076810801,135.6C327.58090068722254,134.53333333333333,330.76089369336495,134,333.94088669950736,134C337.0224411603722,134,340.10399562123695,150,343.18555008210177,150C346.3698230249954,150,349.55409596788905,126.44,352.7383689107827,126.44C355.8199233716475,126.44,358.9014778325123,146.89456019742642,361.9830322933771,154C365.16730523627075,161.3422877959927,368.35157817916433,169.36,371.535851122058,169.36C374.7201240649516,169.36,377.90439700784526,162.8,381.0886699507389,162.8C384.1702244116037,162.8,387.2517788724685,170,390.3333333333333,170C393.51760627622696,170,396.7018792191206,144.84,399.88615216201424,144.84C402.97198655963024,144.84,406.0578209572463,158,409.1436553548623,158C412.32792829775593,158,415.5122012406495,154,418.69647418354316,154C421.8807471264368,154,425.0650200693304,189.24,428.24929301222403,189.24C431.22812899106003,189.24,434.206964969896,165.52017534982514,437.185800948732,158.39999999999998C440.3657939548744,150.7990082113217,443.54578696101686,150.95403825219614,446.72577996715927,146.4C449.8073344280241,141.98693466812756,452.8888888888889,131.6,455.97044334975374,131.6C459.1547162926473,131.6,462.33898923554096,138.89471766848817,465.52326217843455,142C468.6048166392994,145.00511193372117,471.6863711001642,147.05834655385158,474.767925561029,150C477.95219850392266,153.03970856102003,481.1364714468163,160,484.32074438970994,160C487.50501733260353,160,490.68929027549717,158,493.87356321839076,154C496.9551176792556,150.12903225806446,500.0366721401204,118,503.1182266009852,118C506.3024995438788,118,509.48677248677245,126.91342532413742,512.671045429666,130C515.7568798272821,132.99115637271098,518.8427142248981,136.4,521.9285486225142,136.4C525.1128215654078,136.4,528.2970945083015,130.04,531.4813674511951,130.04C534.6656403940887,130.04,537.8499133369824,146,541.0341862798759,146C543.9103037766831,146,546.7864212734902,121.20592193808882,549.6625387702974,120C552.8425317764398,118.66666666666667,556.0225247825822,119.33333333333333,559.2025177887247,118C562.2840722495895,116.7079407806191,565.3656267104543,78.6,568.4471811713191,78.6C571.6314541142127,78.6,574.8157270571064,95.2,578,111.80000000000001" style="fill: transparent; stroke: rgb(51, 51, 51); stroke-width: 2; opacity: 1;"></path></g></g></svg>