<svg xmlns="http://www.w3.org/2000/svg" width="640" height="324" role="img" aria-labelledby="victory-container-4-title victory-container-4-desc" viewBox="0 0 640 324" style="pointer-events: all; width: 100%; height: 100%;"><g role="presentation"><line x1="15" x2="578" y1="274" y2="274" role="presentation" shape-rendering="auto" vector-effect="non-scaling-stroke" style="stroke: rgb(226, 226, 226); fill: transparent; stroke-width: 1; stroke-linejoin: round;"></line><g role="presentation"><line x1="81.26626071884692" x2="81.26626071884692" y1="274" y2="34" role="presentation" shape-rendering="auto" vector-effect="non-scaling-stroke" style="stroke: transparent; fill: transparent; stroke-width: 1; stroke-linecap: round; stroke-linejoin: round; pointer-events: none;"></line><line x1="81.26626071884692" x2="81.26626071884692" y1="274" y2="278" role="presentation" shape-rendering="auto" vector-effect="non-scaling-stroke" style="stroke: transparent; fill: transparent; size: 4px; stroke-width: 1; stroke-linecap: round; stroke-linejoin: round;"></line><text dx="0" dy="11.969999999999999" x="81.26626071884692" y="286"><tspan x="81.26626071884692" dx="0" text-anchor="middle" style="fill: rgb(153, 153, 153); font-size: 14px; font-family: inherit; stroke: transparent; letter-spacing: normal; padding: 8px; stroke-width: 0;">2017</tspan></text></g><g role="presentation"><line x1="193.74299854041232" x2="193.74299854041232" y1="274" y2="34" role="presentation" shape-rendering="auto" vector-effect="non-scaling-stroke" style="stroke: transparent; fill: transparent; stroke-width: 1; stroke-linecap: round; stroke-linejoin: round; pointer-events: none;"></line><line x1="193.74299854041232" x2="193.74299854041232" y1="274" y2="278" role="presentation" shape-rendering="auto" vector-effect="non-scaling-stroke" style="stroke: transparent; fill: transparent; size: 4px; stroke-width: 1; stroke-linecap: round; stroke-linejoin: round;"></line><text dx="0" dy="11.969999999999999" x="193.74299854041232" y="286"><tspan x="193.74299854041232" dx="0" text-anchor="middle" style="fill: rgb(153, 153, 153); font-size: 14px; font-family: inherit; stroke: transparent; letter-spacing: normal; padding: 8px; stroke-width: 0;">2018</tspan></text></g><g role="presentation"><line x1="306.2197363619777" x2="306.2197363619777" y1="274" y2="34" role="presentation" shape-rendering="auto" vector-effect="non-scaling-stroke" style="stroke: transparent; fill: transparent; stroke-width: 1; stroke-linecap: round; stroke-linejoin: round; pointer-events: none;"></line><line x1="306.2197363619777" x2="306.2197363619777" y1="274" y2="278" role="presentation" shape-rendering="auto" vector-effect="non-scaling-stroke" style="stroke: transparent; fill: transparent; size: 4px; stroke-width: 1; stroke-linecap: round; stroke-linejoin: round;"></line><text dx="0" dy="11.969999999999999" x="306.2197363619777" y="286"><tspan x="306.2197363619777" dx="0" text-anchor="middle" style="fill: rgb(153, 153, 153); font-size: 14px; font-family: inherit; stroke: transparent; letter-spacing: normal; padding: 8px; stroke-width: 0;">2019</tspan></text></g><g role="presentation"><line x1="418.69647418354316" x2="418.69647418354316" y1="274" y2="34" role="presentation" shape-rendering="auto" vector-effect="non-scaling-stroke" style="stroke: transparent; fill: transparent; stroke-width: 1; stroke-linecap: round; stroke-linejoin: round; pointer-events: none;"></line><line x1="418.69647418354316" x2="418.69647418354316" y1="274" y2="278" role="presentation" shape-rendering="auto" vector-effect="non-scaling-stroke" style="stroke: transparent; fill: transparent; size: 4px; stroke-width: 1; stroke-linecap: round; stroke-linejoin: round;"></line><text dx="0" dy="11.969999999999999" x="418.69647418354316" y="286"><tspan x="418.69647418354316" dx="0" text-anchor="middle" style="fill: rgb(153, 153, 153); font-size: 14px; font-family: inherit; stroke: transparent; letter-spacing: normal; padding: 8px; stroke-width: 0;">2020</tspan></text></g><g role="presentation"><line x1="531.4813674511951" x2="531.4813674511951" y1="274" y2="34" role="presentation" shape-rendering="auto" vector-effect="non-scaling-stroke" style="stroke: transparent; fill: transparent; stroke-width: 1; stroke-linecap: round; stroke-linejoin: round; pointer-events: none;"></line><line x1="531.4813674511951" x2="531.4813674511951" y1="274" y2="278" role="presentation" shape-rendering="auto" vector-effect="non-scaling-stroke" style="stroke: transparent; fill: transparent; size: 4px; stroke-width: 1; stroke-linecap: round; stroke-linejoin: round;"></line><text dx="0" dy="11.969999999999999" x="531.4813674511951" y="286"><tspan x="531.4813674511951" dx="0" text-anchor="middle" style="fill: rgb(153, 153, 153); font-size: 14px; font-family: inherit; stroke: transparent; letter-spacing: normal; padding: 8px; stroke-width: 0;">2021</tspan></text></g></g><g role="presentation"><line x1="578" x2="578" y1="34" y2="274" role="presentation" shape-rendering="auto" vector-effect="non-scaling-stroke" style="stroke: transparent; fill: transparent; stroke-width: 1; stroke-linejoin: round;"></line><g role="presentation"><line x1="578" x2="15" y1="274" y2="274" role="presentation" shape-rendering="auto" vector-effect="non-scaling-stroke" style="stroke: rgb(226, 226, 226); fill: transparent; stroke-width: 1; stroke-linecap: round; stroke-linejoin: round; pointer-events: none;"></line><line x1="578" x2="582" y1="274" y2="274" role="presentation" shape-rendering="auto" vector-effect="non-scaling-stroke" style="stroke: transparent; fill: transparent; size: 4px; stroke-width: 1; stroke-linecap: round; stroke-linejoin: round;"></line><text dx="0" dy="4.97" x="590" y="274"><tspan x="590" dx="0" text-anchor="start" style="fill: rgb(153, 153, 153); font-size: 14px; font-family: inherit; stroke: transparent; letter-spacing: normal; padding: 8px; stroke-width: 0;">$800K</tspan></text></g><g role="presentation"><line x1="578" x2="15" y1="239.71428571428572" y2="239.71428571428572" role="presentation" shape-rendering="auto" vector-effect="non-scaling-stroke" style="stroke: rgb(226, 226, 226); fill: transparent; stroke-width: 1; stroke-linecap: round; stroke-linejoin: round; pointer-events: none;"></line><line x1="578" x2="582" y1="239.71428571428572" y2="239.71428571428572" role="presentation" shape-rendering="auto" vector-effect="non-scaling-stroke" style="stroke: transparent; fill: transparent; size: 4px; stroke-width: 1; stroke-linecap: round; stroke-linejoin: round;"></line><text dx="0" dy="4.97" x="590" y="239.71428571428572"><tspan x="590" dx="0" text-anchor="start" style="fill: rgb(153, 153, 153); font-size: 14px; font-family: inherit; stroke: transparent; letter-spacing: normal; padding: 8px; stroke-width: 0;">$900K</tspan></text></g><g role="presentation"><line x1="578" x2="15" y1="205.42857142857144" y2="205.42857142857144" role="presentation" shape-rendering="auto" vector-effect="non-scaling-stroke" style="stroke: rgb(226, 226, 226); fill: transparent; stroke-width: 1; stroke-linecap: round; stroke-linejoin: round; pointer-events: none;"></line><line x1="578" x2="582" y1="205.42857142857144" y2="205.42857142857144" role="presentation" shape-rendering="auto" vector-effect="non-scaling-stroke" style="stroke: transparent; fill: transparent; size: 4px; stroke-width: 1; stroke-linecap: round; stroke-linejoin: round;"></line><text dx="0" dy="4.97" x="590" y="205.42857142857144"><tspan x="590" dx="0" text-anchor="start" style="fill: rgb(153, 153, 153); font-size: 14px; font-family: inherit; stroke: transparent; letter-spacing: normal; padding: 8px; stroke-width: 0;">$1.0M</tspan></text></g><g role="presentation"><line x1="578" x2="15" y1="171.14285714285717" y2="171.14285714285717" role="presentation" shape-rendering="auto" vector-effect="non-scaling-stroke" style="stroke: rgb(226, 226, 226); fill: transparent; stroke-width: 1; stroke-linecap: round; stroke-linejoin: round; pointer-events: none;"></line><line x1="578" x2="582" y1="171.14285714285717" y2="171.14285714285717" role="presentation" shape-rendering="auto" vector-effect="non-scaling-stroke" style="stroke: transparent; fill: transparent; size: 4px; stroke-width: 1; stroke-linecap: round; stroke-linejoin: round;"></line><text dx="0" dy="4.97" x="590" y="171.14285714285717"><tspan x="590" dx="0" text-anchor="start" style="fill: rgb(153, 153, 153); font-size: 14px; font-family: inherit; stroke: transparent; letter-spacing: normal; padding: 8px; stroke-width: 0;">$1.1M</tspan></text></g><g role="presentation"><line x1="578" x2="15" y1="136.85714285714286" y2="136.85714285714286" role="presentation" shape-rendering="auto" vector-effect="non-scaling-stroke" style="stroke: rgb(226, 226, 226); fill: transparent; stroke-width: 1; stroke-linecap: round; stroke-linejoin: round; pointer-events: none;"></line><line x1="578" x2="582" y1="136.85714285714286" y2="136.85714285714286" role="presentation" shape-rendering="auto" vector-effect="non-scaling-stroke" style="stroke: transparent; fill: transparent; size: 4px; stroke-width: 1; stroke-linecap: round; stroke-linejoin: round;"></line><text dx="0" dy="4.97" x="590" y="136.85714285714286"><tspan x="590" dx="0" text-anchor="start" style="fill: rgb(153, 153, 153); font-size: 14px; font-family: inherit; stroke: transparent; letter-spacing: normal; padding: 8px; stroke-width: 0;">$1.2M</tspan></text></g><g role="presentation"><line x1="578" x2="15" y1="102.57142857142856" y2="102.57142857142856" role="presentation" shape-rendering="auto" vector-effect="non-scaling-stroke" style="stroke: rgb(226, 226, 226); fill: transparent; stroke-width: 1; stroke-linecap: round; stroke-linejoin: round; pointer-events: none;"></line><line x1="578" x2="582" y1="102.57142857142856" y2="102.57142857142856" role="presentation" shape-rendering="auto" vector-effect="non-scaling-stroke" style="stroke: transparent; fill: transparent; size: 4px; stroke-width: 1; stroke-linecap: round; stroke-linejoin: round;"></line><text dx="0" dy="4.97" x="590" y="102.57142857142856"><tspan x="590" dx="0" text-anchor="start" style="fill: rgb(153, 153, 153); font-size: 14px; font-family: inherit; stroke: transparent; letter-spacing: normal; padding: 8px; stroke-width: 0;">$1.3M</tspan></text></g><g role="presentation"><line x1="578" x2="15" y1="68.2857142857143" y2="68.2857142857143" role="presentation" shape-rendering="auto" vector-effect="non-scaling-stroke" style="stroke: rgb(226, 226, 226); fill: transparent; stroke-width: 1; stroke-linecap: round; stroke-linejoin: round; pointer-events: none;"></line><line x1="578" x2="582" y1="68.2857142857143" y2="68.2857142857143" role="presentation" shape-rendering="auto" vector-effect="non-scaling-stroke" style="stroke: transparent; fill: transparent; size: 4px; stroke-width: 1; stroke-linecap: round; stroke-linejoin: round;"></line><text dx="0" dy="4.97" x="590" y="68.2857142857143"><tspan x="590" dx="0" text-anchor="start" style="fill: rgb(153, 153, 153); font-size: 14px; font-family: inherit; stroke: transparent; letter-spacing: normal; padding: 8px; stroke-width: 0;">$1.4M</tspan></text></g><g role="presentation"><line x1="578" x2="15" y1="34" y2="34" role="presentation" shape-rendering="auto" vector-effect="non-scaling-stroke" style="stroke: rgb(226, 226, 226); fill: transparent; stroke-width: 1; stroke-linecap: round; stroke-linejoin: round; pointer-events: none;"></line><line x1="578" x2="582" y1="34" y2="34" role="presentation" shape-rendering="auto" vector-effect="non-scaling-stroke" style="stroke: transparent; fill: transparent; size: 4px; stroke-width: 1; stroke-linecap: round; stroke-linejoin: round;"></line><text dx="0" dy="4.97" x="590" y="34"><tspan x="590" dx="0" text-anchor="start" style="fill: rgb(153, 153, 153); font-size: 14px; font-family: inherit; stroke: transparent; letter-spacing: normal; padding: 8px; stroke-width: 0;">$1.5M</tspan></text></g></g><g style="height: 100%; width: 100%; user-select: none;"><defs><clipPath id="victory-clip-5"><rect x="15" y="34" width="563" height="240"></rect></clipPath></defs><g clip-path="url(#victory-clip-5)"><path shape-rendering="auto" role="presentation" d="M15.30815544608648,227.28571428571428C18.389709906951285,159.35714285714286,21.471264367816094,91.42857142857144,24.5528188286809,91.42857142857144C27.73709177157453,91.42857142857144,30.921364714468165,112.69999999999999,34.1056376573618,125.19999999999999C37.28991060025543,137.7,40.47418354314906,150.49640281030446,43.658456486042695,166.42857142857144C46.7400109469075,181.84679912366852,49.821565407772304,218.83428571428573,52.90311986863711,218.83428571428573C56.08739281153075,218.83428571428573,59.271665754424376,214.37714285714287,62.45593869731801,205.46285714285713C65.54177309493402,196.82414746543776,68.62760749255003,117.31428571428572,71.71344189016602,117.31428571428572C74.89771483305965,117.31428571428572,78.0819877759533,154,81.26626071884692,154C84.45053366174056,154,87.63480660463419,146.28571428571428,90.81907954752783,146.28571428571428C93.69519704433499,146.28571428571428,96.57131454114213,235.25714285714287,99.44743203794928,235.25714285714287C102.62742504409171,235.25714285714287,105.80741805023415,93.14285714285714,108.98741105637657,93.14285714285714C112.06896551724138,93.14285714285714,115.15051997810617,103.23988571428572,118.23207443897098,123.43394285714285C121.41634738186463,144.30113523809527,124.60062032475825,248.28571428571428,127.7848932676519,248.28571428571428C130.8664477285167,248.28571428571428,133.9480021893815,194.51945304827385,137.02955665024632,169.42857142857144C140.21382959313993,143.5013270882124,143.39810253603358,95.47428571428571,146.5823754789272,95.47428571428571C149.76664842182083,95.47428571428571,152.95092136471445,176.72000000000003,156.1351943076081,189.82857142857142C159.2167487684729,202.5142857142857,162.2983032293377,205.3732718894009,165.37985769020253,208.85714285714286C168.56413063309614,212.45714285714286,171.74840357598978,214.25714285714287,174.9326765188834,214.25714285714287C178.0185109164994,214.25714285714287,181.10434531411542,173.75714285714287,184.19017971173142,173.75714285714287C187.37445265462506,173.75714285714287,190.55872559751867,226.17142857142858,193.74299854041232,226.17142857142858C196.92727148330596,226.17142857142858,200.1115444261996,152.4897959183674,203.29581736909324,138.57142857142858C206.1719348659004,125.99999999999999,209.04805236270755,126.3283565337734,211.9241698595147,119.7142857142857C215.10416286565712,112.40140681714381,218.28415587179956,96.57142857142856,221.46414887794197,96.57142857142856C224.5457033388068,96.57142857142856,227.62725779967158,103.94409609428111,230.7088122605364,116.28571428571428C233.89308520343002,129.03871975019516,237.07735814632366,173.0285714285714,240.26163108921727,173.0285714285714C243.3431855500821,173.0285714285714,246.4247400109469,117.74285714285716,249.5062944718117,117.74285714285716C252.69056741470536,117.74285714285716,255.874840357599,138.78571428571422,259.05911330049264,152.1142857142857C262.2433862433863,165.4428571428571,265.42765918627987,197.71428571428572,268.6119321291735,197.71428571428572C271.69348659003833,197.71428571428572,274.7750410509031,168.29345622119814,277.8565955117679,159.5885714285714C281.04086845466156,150.59352380952382,284.22514139755515,145.42857142857144,287.4094143404488,145.42857142857144C290.4952487380648,145.42857142857144,293.58108313568084,147.14285714285717,296.66691753329684,150.57142857142858C299.8511904761905,154.10937190410144,303.03546341908407,194.08,306.2197363619777,198.74285714285713C309.40400930487135,203.40571428571428,312.588282247765,205.73714285714286,315.77255519065864,205.73714285714286C318.6486726874658,205.73714285714286,321.52479018427294,183.99788348394557,324.4009076810801,164.62857142857143C327.58090068722254,143.21279931972794,330.76089369336495,79.6,333.94088669950736,79.6C337.0224411603722,79.6,340.10399562123695,102.18421092392538,343.18555008210177,116.28571428571428C346.3698230249954,130.85726775956286,349.55409596788905,166,352.7383689107827,166C355.8199233716475,166,358.9014778325123,163.14285714285714,361.9830322933771,157.42857142857144C365.16730523627075,151.52380952380958,368.35157817916433,119.7142857142857,371.535851122058,119.7142857142857C374.7201240649516,119.7142857142857,377.90439700784526,144.22857142857143,381.0886699507389,144.22857142857143C384.1702244116037,144.22857142857143,387.2517788724685,99.13428571428571,390.3333333333333,99.13428571428571C393.51760627622696,99.13428571428571,396.7018792191206,196.85714285714283,399.88615216201424,196.85714285714283C402.97198655963024,196.85714285714283,406.0578209572463,85.77142857142857,409.1436553548623,85.77142857142857C412.32792829775593,85.77142857142857,415.5122012406495,87.08571428571427,418.69647418354316,89.7142857142857C421.8807471264368,92.34285714285711,425.0650200693304,157.60000000000002,428.24929301222403,157.60000000000002C431.22812899106003,157.60000000000002,434.206964969896,108.57142857142858,437.185800948732,108.57142857142858C440.3657939548744,108.57142857142858,443.54578696101686,136.85714285714286,446.72577996715927,136.85714285714286C449.8073344280241,136.85714285714286,452.8888888888889,48.46942857142858,455.97044334975374,48.46942857142858C459.1547162926473,48.46942857142858,462.33898923554096,55.28460577673713,465.52326217843455,68.2857142857143C468.6048166392994,80.86743219762788,471.6863711001642,124,474.767925561029,124C477.95219850392266,124,481.1364714468163,70.85714285714286,484.32074438970994,70.85714285714286C487.50501733260353,70.85714285714286,490.68929027549717,136.85714285714286,493.87356321839076,136.85714285714286C496.9551176792556,136.85714285714286,500.0366721401204,85.42857142857144,503.1182266009852,85.42857142857144C506.3024995438788,85.42857142857144,509.48677248677245,112.3709134139094,512.671045429666,118.85714285714286C515.7568798272821,125.14285714285715,518.8427142248981,128.2857142857143,521.9285486225142,128.2857142857143C525.1128215654078,128.2857142857143,528.2970945083015,79.02857142857145,531.4813674511951,68.2857142857143C534.6656403940887,57.54285714285716,537.8499133369824,52.17142857142858,541.0341862798759,52.17142857142858C543.9103037766831,52.17142857142858,546.7864212734902,92.9119263419715,549.6625387702974,107.71428571428572C552.8425317764398,124.08058484171056,556.0225247825822,143.2,559.2025177887247,143.2C562.2840722495895,143.2,565.3656267104543,141.53122308680219,568.4471811713191,138.57142857142858C571.6314541142127,135.5129742388759,574.8157270571064,130.18505854800938,578,124.85714285714286" style="fill: transparent; stroke: rgb(51, 51, 51); stroke-width: 2; opacity: 1;"></path></g></g></svg>