<svg xmlns="http://www.w3.org/2000/svg" width="640" height="324" role="img" aria-labelledby="victory-container-1-title victory-container-1-desc" viewBox="0 0 640 324" style="pointer-events: all; width: 100%; height: 100%;"><g role="presentation"><line x1="15" x2="578" y1="274" y2="274" role="presentation" shape-rendering="auto" vector-effect="non-scaling-stroke" style="stroke: rgb(226, 226, 226); fill: transparent; stroke-width: 1; stroke-linejoin: round;"></line><g role="presentation"><line x1="81.26626071884692" x2="81.26626071884692" y1="274" y2="34" role="presentation" shape-rendering="auto" vector-effect="non-scaling-stroke" style="stroke: transparent; fill: transparent; stroke-width: 1; stroke-linecap: round; stroke-linejoin: round; pointer-events: none;"></line><line x1="81.26626071884692" x2="81.26626071884692" y1="274" y2="278" role="presentation" shape-rendering="auto" vector-effect="non-scaling-stroke" style="stroke: transparent; fill: transparent; size: 4px; stroke-width: 1; stroke-linecap: round; stroke-linejoin: round;"></line><text dx="0" dy="11.969999999999999" x="81.26626071884692" y="286"><tspan x="81.26626071884692" dx="0" text-anchor="middle" style="fill: rgb(153, 153, 153); font-size: 14px; font-family: inherit; stroke: transparent; letter-spacing: normal; padding: 8px; stroke-width: 0;">2017</tspan></text></g><g role="presentation"><line x1="193.74299854041232" x2="193.74299854041232" y1="274" y2="34" role="presentation" shape-rendering="auto" vector-effect="non-scaling-stroke" style="stroke: transparent; fill: transparent; stroke-width: 1; stroke-linecap: round; stroke-linejoin: round; pointer-events: none;"></line><line x1="193.74299854041232" x2="193.74299854041232" y1="274" y2="278" role="presentation" shape-rendering="auto" vector-effect="non-scaling-stroke" style="stroke: transparent; fill: transparent; size: 4px; stroke-width: 1; stroke-linecap: round; stroke-linejoin: round;"></line><text dx="0" dy="11.969999999999999" x="193.74299854041232" y="286"><tspan x="193.74299854041232" dx="0" text-anchor="middle" style="fill: rgb(153, 153, 153); font-size: 14px; font-family: inherit; stroke: transparent; letter-spacing: normal; padding: 8px; stroke-width: 0;">2018</tspan></text></g><g role="presentation"><line x1="306.2197363619777" x2="306.2197363619777" y1="274" y2="34" role="presentation" shape-rendering="auto" vector-effect="non-scaling-stroke" style="stroke: transparent; fill: transparent; stroke-width: 1; stroke-linecap: round; stroke-linejoin: round; pointer-events: none;"></line><line x1="306.2197363619777" x2="306.2197363619777" y1="274" y2="278" role="presentation" shape-rendering="auto" vector-effect="non-scaling-stroke" style="stroke: transparent; fill: transparent; size: 4px; stroke-width: 1; stroke-linecap: round; stroke-linejoin: round;"></line><text dx="0" dy="11.969999999999999" x="306.2197363619777" y="286"><tspan x="306.2197363619777" dx="0" text-anchor="middle" style="fill: rgb(153, 153, 153); font-size: 14px; font-family: inherit; stroke: transparent; letter-spacing: normal; padding: 8px; stroke-width: 0;">2019</tspan></text></g><g role="presentation"><line x1="418.69647418354316" x2="418.69647418354316" y1="274" y2="34" role="presentation" shape-rendering="auto" vector-effect="non-scaling-stroke" style="stroke: transparent; fill: transparent; stroke-width: 1; stroke-linecap: round; stroke-linejoin: round; pointer-events: none;"></line><line x1="418.69647418354316" x2="418.69647418354316" y1="274" y2="278" role="presentation" shape-rendering="auto" vector-effect="non-scaling-stroke" style="stroke: transparent; fill: transparent; size: 4px; stroke-width: 1; stroke-linecap: round; stroke-linejoin: round;"></line><text dx="0" dy="11.969999999999999" x="418.69647418354316" y="286"><tspan x="418.69647418354316" dx="0" text-anchor="middle" style="fill: rgb(153, 153, 153); font-size: 14px; font-family: inherit; stroke: transparent; letter-spacing: normal; padding: 8px; stroke-width: 0;">2020</tspan></text></g><g role="presentation"><line x1="531.4813674511951" x2="531.4813674511951" y1="274" y2="34" role="presentation" shape-rendering="auto" vector-effect="non-scaling-stroke" style="stroke: transparent; fill: transparent; stroke-width: 1; stroke-linecap: round; stroke-linejoin: round; pointer-events: none;"></line><line x1="531.4813674511951" x2="531.4813674511951" y1="274" y2="278" role="presentation" shape-rendering="auto" vector-effect="non-scaling-stroke" style="stroke: transparent; fill: transparent; size: 4px; stroke-width: 1; stroke-linecap: round; stroke-linejoin: round;"></line><text dx="0" dy="11.969999999999999" x="531.4813674511951" y="286"><tspan x="531.4813674511951" dx="0" text-anchor="middle" style="fill: rgb(153, 153, 153); font-size: 14px; font-family: inherit; stroke: transparent; letter-spacing: normal; padding: 8px; stroke-width: 0;">2021</tspan></text></g></g><g role="presentation"><line x1="578" x2="578" y1="34" y2="274" role="presentation" shape-rendering="auto" vector-effect="non-scaling-stroke" style="stroke: transparent; fill: transparent; stroke-width: 1; stroke-linejoin: round;"></line><g role="presentation"><line x1="578" x2="15" y1="274" y2="274" role="presentation" shape-rendering="auto" vector-effect="non-scaling-stroke" style="stroke: rgb(226, 226, 226); fill: transparent; stroke-width: 1; stroke-linecap: round; stroke-linejoin: round; pointer-events: none;"></line><line x1="578" x2="582" y1="274" y2="274" role="presentation" shape-rendering="auto" vector-effect="non-scaling-stroke" style="stroke: transparent; fill: transparent; size: 4px; stroke-width: 1; stroke-linecap: round; stroke-linejoin: round;"></line><text dx="0" dy="4.97" x="590" y="274"><tspan x="590" dx="0" text-anchor="start" style="fill: rgb(153, 153, 153); font-size: 14px; font-family: inherit; stroke: transparent; letter-spacing: normal; padding: 8px; stroke-width: 0;">$300K</tspan></text></g><g role="presentation"><line x1="578" x2="15" y1="214" y2="214" role="presentation" shape-rendering="auto" vector-effect="non-scaling-stroke" style="stroke: rgb(226, 226, 226); fill: transparent; stroke-width: 1; stroke-linecap: round; stroke-linejoin: round; pointer-events: none;"></line><line x1="578" x2="582" y1="214" y2="214" role="presentation" shape-rendering="auto" vector-effect="non-scaling-stroke" style="stroke: transparent; fill: transparent; size: 4px; stroke-width: 1; stroke-linecap: round; stroke-linejoin: round;"></line><text dx="0" dy="4.97" x="590" y="214"><tspan x="590" dx="0" text-anchor="start" style="fill: rgb(153, 153, 153); font-size: 14px; font-family: inherit; stroke: transparent; letter-spacing: normal; padding: 8px; stroke-width: 0;">$350K</tspan></text></g><g role="presentation"><line x1="578" x2="15" y1="154" y2="154" role="presentation" shape-rendering="auto" vector-effect="non-scaling-stroke" style="stroke: rgb(226, 226, 226); fill: transparent; stroke-width: 1; stroke-linecap: round; stroke-linejoin: round; pointer-events: none;"></line><line x1="578" x2="582" y1="154" y2="154" role="presentation" shape-rendering="auto" vector-effect="non-scaling-stroke" style="stroke: transparent; fill: transparent; size: 4px; stroke-width: 1; stroke-linecap: round; stroke-linejoin: round;"></line><text dx="0" dy="4.97" x="590" y="154"><tspan x="590" dx="0" text-anchor="start" style="fill: rgb(153, 153, 153); font-size: 14px; font-family: inherit; stroke: transparent; letter-spacing: normal; padding: 8px; stroke-width: 0;">$400K</tspan></text></g><g role="presentation"><line x1="578" x2="15" y1="94" y2="94" role="presentation" shape-rendering="auto" vector-effect="non-scaling-stroke" style="stroke: rgb(226, 226, 226); fill: transparent; stroke-width: 1; stroke-linecap: round; stroke-linejoin: round; pointer-events: none;"></line><line x1="578" x2="582" y1="94" y2="94" role="presentation" shape-rendering="auto" vector-effect="non-scaling-stroke" style="stroke: transparent; fill: transparent; size: 4px; stroke-width: 1; stroke-linecap: round; stroke-linejoin: round;"></line><text dx="0" dy="4.97" x="590" y="94"><tspan x="590" dx="0" text-anchor="start" style="fill: rgb(153, 153, 153); font-size: 14px; font-family: inherit; stroke: transparent; letter-spacing: normal; padding: 8px; stroke-width: 0;">$450K</tspan></text></g><g role="presentation"><line x1="578" x2="15" y1="34" y2="34" role="presentation" shape-rendering="auto" vector-effect="non-scaling-stroke" style="stroke: rgb(226, 226, 226); fill: transparent; stroke-width: 1; stroke-linecap: round; stroke-linejoin: round; pointer-events: none;"></line><line x1="578" x2="582" y1="34" y2="34" role="presentation" shape-rendering="auto" vector-effect="non-scaling-stroke" style="stroke: transparent; fill: transparent; size: 4px; stroke-width: 1; stroke-linecap: round; stroke-linejoin: round;"></line><text dx="0" dy="4.97" x="590" y="34"><tspan x="590" dx="0" text-anchor="start" style="fill: rgb(153, 153, 153); font-size: 14px; font-family: inherit; stroke: transparent; letter-spacing: normal; padding: 8px; stroke-width: 0;">$500K</tspan></text></g></g><g style="height: 100%; width: 100%; user-select: none;"><defs><clipPath id="victory-clip-2"><rect x="15" y="34" width="563" height="240"></rect></clipPath></defs><g clip-path="url(#victory-clip-2)"><path shape-rendering="auto" role="presentation" d="M15.30815544608648,140.79999999999998C18.389709906951285,131.64999999999998,21.471264367816094,122.5,24.5528188286809,122.5C27.73709177157453,122.5,30.921364714468165,141.6,34.1056376573618,142C37.28991060025543,142.4,40.47418354314906,142.6,43.658456486042695,142.6C46.7400109469075,142.6,49.821565407772304,136.906,52.90311986863711,136.906C56.08739281153075,136.906,59.271665754424376,143.2,62.45593869731801,143.2C65.54177309493402,143.2,68.62760749255003,130.6,71.71344189016602,130.6C74.89771483305965,130.6,78.0819877759533,146,81.26626071884692,148C84.45053366174056,150,87.63480660463419,149,90.81907954752783,151C93.69519704433499,152.80645161290323,96.57131454114213,161.2,99.44743203794928,161.2C102.62742504409171,161.2,105.80741805023415,146.8401297186147,108.98741105637657,140.79999999999998C112.06896551724138,134.94684603310552,115.15051997810617,125.38119999999998,118.23207443897098,125.38119999999998C121.41634738186463,125.38119999999998,124.60062032475825,127.8187213114754,127.7848932676519,131.5C130.8664477285167,135.06252776308833,133.9480021893815,146.8,137.02955665024632,146.8C140.21382959313993,146.8,143.39810253603358,144.00000000000003,146.5823754789272,143.8C149.76664842182083,143.6,152.95092136471445,143.70000000000002,156.1351943076081,143.5C159.2167487684729,143.30645161290323,162.2983032293377,133,165.37985769020253,133C168.56413063309614,133,171.74840357598978,133,174.9326765188834,133C178.0185109164994,133,181.10434531411542,121.6,184.19017971173142,121.6C187.37445265462506,121.6,190.55872559751867,149.2,193.74299854041232,149.2C196.92727148330596,149.2,200.1115444261996,142,203.29581736909324,142C206.1719348659004,142,209.04805236270755,142,211.9241698595147,142C215.10416286565712,142,218.28415587179956,166,221.46414887794197,166C224.5457033388068,166,227.62725779967158,118.12,230.7088122605364,118.12C233.89308520343002,118.12,237.07735814632366,127.22039344262296,240.26163108921727,130.06C243.3431855500821,132.80800634584878,246.4247400109469,135.1,249.5062944718117,135.1C252.69056741470536,135.1,255.874840357599,130,259.05911330049264,130C262.2433862433863,130,265.42765918627987,160,268.6119321291735,160C271.69348659003833,160,274.7750410509031,119.19999999999999,277.8565955117679,119.19999999999999C281.04086845466156,119.19999999999999,284.22514139755515,134.01999999999998,287.4094143404488,134.01999999999998C290.4952487380648,134.01999999999998,293.58108313568084,127.6,296.66691753329684,127.6C299.8511904761905,127.6,303.03546341908407,132.4,306.2197363619777,132.4C309.40400930487135,132.4,312.588282247765,124,315.77255519065864,124C318.6486726874658,124,321.52479018427294,145,324.4009076810801,145C327.58090068722254,145,330.76089369336495,142.004,333.94088669950736,136.012C337.0224411603722,130.20548586810224,340.10399562123695,83.19999999999999,343.18555008210177,83.19999999999999C346.3698230249954,83.19999999999999,349.55409596788905,120.69999999999999,352.7383689107827,120.69999999999999C355.8199233716475,120.69999999999999,358.9014778325123,118,361.9830322933771,118C365.16730523627075,118,368.35157817916433,124.06,371.535851122058,124.06C374.7201240649516,124.06,377.90439700784526,120.4,381.0886699507389,120.4C384.1702244116037,120.4,387.2517788724685,136.85352903225802,390.3333333333333,136.9894C393.51760627622696,137.12980000000002,396.7018792191206,137.0596,399.88615216201424,137.20000000000002C402.97198655963024,137.3360596774194,406.0578209572463,138,409.1436553548623,139.6C412.32792829775593,141.25104022191397,415.5122012406495,158.2,418.69647418354316,158.2C421.8807471264368,158.2,425.0650200693304,150.50195402298849,428.24929301222403,145.6C431.22812899106003,141.0143010752688,434.206964969896,138.12180471521555,437.185800948732,130C440.3657939548744,121.32974008131445,443.54578696101686,94,446.72577996715927,94C449.8073344280241,94,452.8888888888889,94,455.97044334975374,94C459.1547162926473,94,462.33898923554096,90.197650273224,465.52326217843455,86.5C468.6048166392994,82.9216287678477,471.6863711001642,72.4,474.767925561029,72.4C477.95219850392266,72.4,481.1364714468163,134.8,484.32074438970994,134.8C487.50501733260353,134.8,490.68929027549717,109.6,493.87356321839076,109.6C496.9551176792556,109.6,500.0366721401204,135.28,503.1182266009852,135.28C506.3024995438788,135.28,509.48677248677245,125.33554431889719,512.671045429666,120.4C515.7568798272821,115.61703299203636,518.8427142248981,106.12,521.9285486225142,106.12C525.1128215654078,106.12,528.2970945083015,121.6,531.4813674511951,121.6C534.6656403940887,121.6,537.8499133369824,110.19999999999999,541.0341862798759,110.19999999999999C543.9103037766831,110.19999999999999,546.7864212734902,112.06,549.6625387702974,112.06C552.8425317764398,112.06,556.0225247825822,104.20922318675476,559.2025177887247,101.5C562.2840722495895,98.87464240314476,565.3656267104543,97.6339143310418,568.4471811713191,95.90800000000002C571.6314541142127,94.12455519125686,574.8157270571064,92.56227759562843,578,91" style="fill: transparent; stroke: rgb(51, 51, 51); stroke-width: 2; opacity: 1;"></path></g></g></svg>