<svg xmlns="http://www.w3.org/2000/svg" width="640" height="324" role="img" aria-labelledby="victory-container-4-title victory-container-4-desc" viewBox="0 0 640 324" style="pointer-events: all; width: 100%; height: 100%;"><g role="presentation"><line x1="15" x2="578" y1="274" y2="274" role="presentation" shape-rendering="auto" vector-effect="non-scaling-stroke" style="stroke: rgb(226, 226, 226); fill: transparent; stroke-width: 1; stroke-linejoin: round;"></line><g role="presentation"><line x1="81.26626071884692" x2="81.26626071884692" y1="274" y2="34" role="presentation" shape-rendering="auto" vector-effect="non-scaling-stroke" style="stroke: transparent; fill: transparent; stroke-width: 1; stroke-linecap: round; stroke-linejoin: round; pointer-events: none;"></line><line x1="81.26626071884692" x2="81.26626071884692" y1="274" y2="278" role="presentation" shape-rendering="auto" vector-effect="non-scaling-stroke" style="stroke: transparent; fill: transparent; size: 4px; stroke-width: 1; stroke-linecap: round; stroke-linejoin: round;"></line><text dx="0" dy="11.969999999999999" x="81.26626071884692" y="286"><tspan x="81.26626071884692" dx="0" text-anchor="middle" style="fill: rgb(153, 153, 153); font-size: 14px; font-family: inherit; stroke: transparent; letter-spacing: normal; padding: 8px; stroke-width: 0;">2017</tspan></text></g><g role="presentation"><line x1="193.74299854041232" x2="193.74299854041232" y1="274" y2="34" role="presentation" shape-rendering="auto" vector-effect="non-scaling-stroke" style="stroke: transparent; fill: transparent; stroke-width: 1; stroke-linecap: round; stroke-linejoin: round; pointer-events: none;"></line><line x1="193.74299854041232" x2="193.74299854041232" y1="274" y2="278" role="presentation" shape-rendering="auto" vector-effect="non-scaling-stroke" style="stroke: transparent; fill: transparent; size: 4px; stroke-width: 1; stroke-linecap: round; stroke-linejoin: round;"></line><text dx="0" dy="11.969999999999999" x="193.74299854041232" y="286"><tspan x="193.74299854041232" dx="0" text-anchor="middle" style="fill: rgb(153, 153, 153); font-size: 14px; font-family: inherit; stroke: transparent; letter-spacing: normal; padding: 8px; stroke-width: 0;">2018</tspan></text></g><g role="presentation"><line x1="306.2197363619777" x2="306.2197363619777" y1="274" y2="34" role="presentation" shape-rendering="auto" vector-effect="non-scaling-stroke" style="stroke: transparent; fill: transparent; stroke-width: 1; stroke-linecap: round; stroke-linejoin: round; pointer-events: none;"></line><line x1="306.2197363619777" x2="306.2197363619777" y1="274" y2="278" role="presentation" shape-rendering="auto" vector-effect="non-scaling-stroke" style="stroke: transparent; fill: transparent; size: 4px; stroke-width: 1; stroke-linecap: round; stroke-linejoin: round;"></line><text dx="0" dy="11.969999999999999" x="306.2197363619777" y="286"><tspan x="306.2197363619777" dx="0" text-anchor="middle" style="fill: rgb(153, 153, 153); font-size: 14px; font-family: inherit; stroke: transparent; letter-spacing: normal; padding: 8px; stroke-width: 0;">2019</tspan></text></g><g role="presentation"><line x1="418.69647418354316" x2="418.69647418354316" y1="274" y2="34" role="presentation" shape-rendering="auto" vector-effect="non-scaling-stroke" style="stroke: transparent; fill: transparent; stroke-width: 1; stroke-linecap: round; stroke-linejoin: round; pointer-events: none;"></line><line x1="418.69647418354316" x2="418.69647418354316" y1="274" y2="278" role="presentation" shape-rendering="auto" vector-effect="non-scaling-stroke" style="stroke: transparent; fill: transparent; size: 4px; stroke-width: 1; stroke-linecap: round; stroke-linejoin: round;"></line><text dx="0" dy="11.969999999999999" x="418.69647418354316" y="286"><tspan x="418.69647418354316" dx="0" text-anchor="middle" style="fill: rgb(153, 153, 153); font-size: 14px; font-family: inherit; stroke: transparent; letter-spacing: normal; padding: 8px; stroke-width: 0;">2020</tspan></text></g><g role="presentation"><line x1="531.4813674511951" x2="531.4813674511951" y1="274" y2="34" role="presentation" shape-rendering="auto" vector-effect="non-scaling-stroke" style="stroke: transparent; fill: transparent; stroke-width: 1; stroke-linecap: round; stroke-linejoin: round; pointer-events: none;"></line><line x1="531.4813674511951" x2="531.4813674511951" y1="274" y2="278" role="presentation" shape-rendering="auto" vector-effect="non-scaling-stroke" style="stroke: transparent; fill: transparent; size: 4px; stroke-width: 1; stroke-linecap: round; stroke-linejoin: round;"></line><text dx="0" dy="11.969999999999999" x="531.4813674511951" y="286"><tspan x="531.4813674511951" dx="0" text-anchor="middle" style="fill: rgb(153, 153, 153); font-size: 14px; font-family: inherit; stroke: transparent; letter-spacing: normal; padding: 8px; stroke-width: 0;">2021</tspan></text></g></g><g role="presentation"><line x1="578" x2="578" y1="34" y2="274" role="presentation" shape-rendering="auto" vector-effect="non-scaling-stroke" style="stroke: transparent; fill: transparent; stroke-width: 1; stroke-linejoin: round;"></line><g role="presentation"><line x1="578" x2="15" y1="274" y2="274" role="presentation" shape-rendering="auto" vector-effect="non-scaling-stroke" style="stroke: rgb(226, 226, 226); fill: transparent; stroke-width: 1; stroke-linecap: round; stroke-linejoin: round; pointer-events: none;"></line><line x1="578" x2="582" y1="274" y2="274" role="presentation" shape-rendering="auto" vector-effect="non-scaling-stroke" style="stroke: transparent; fill: transparent; size: 4px; stroke-width: 1; stroke-linecap: round; stroke-linejoin: round;"></line><text dx="0" dy="4.97" x="590" y="274"><tspan x="590" dx="0" text-anchor="start" style="fill: rgb(153, 153, 153); font-size: 14px; font-family: inherit; stroke: transparent; letter-spacing: normal; padding: 8px; stroke-width: 0;">$100K</tspan></text></g><g role="presentation"><line x1="578" x2="15" y1="214" y2="214" role="presentation" shape-rendering="auto" vector-effect="non-scaling-stroke" style="stroke: rgb(226, 226, 226); fill: transparent; stroke-width: 1; stroke-linecap: round; stroke-linejoin: round; pointer-events: none;"></line><line x1="578" x2="582" y1="214" y2="214" role="presentation" shape-rendering="auto" vector-effect="non-scaling-stroke" style="stroke: transparent; fill: transparent; size: 4px; stroke-width: 1; stroke-linecap: round; stroke-linejoin: round;"></line><text dx="0" dy="4.97" x="590" y="214"><tspan x="590" dx="0" text-anchor="start" style="fill: rgb(153, 153, 153); font-size: 14px; font-family: inherit; stroke: transparent; letter-spacing: normal; padding: 8px; stroke-width: 0;">$150K</tspan></text></g><g role="presentation"><line x1="578" x2="15" y1="154" y2="154" role="presentation" shape-rendering="auto" vector-effect="non-scaling-stroke" style="stroke: rgb(226, 226, 226); fill: transparent; stroke-width: 1; stroke-linecap: round; stroke-linejoin: round; pointer-events: none;"></line><line x1="578" x2="582" y1="154" y2="154" role="presentation" shape-rendering="auto" vector-effect="non-scaling-stroke" style="stroke: transparent; fill: transparent; size: 4px; stroke-width: 1; stroke-linecap: round; stroke-linejoin: round;"></line><text dx="0" dy="4.97" x="590" y="154"><tspan x="590" dx="0" text-anchor="start" style="fill: rgb(153, 153, 153); font-size: 14px; font-family: inherit; stroke: transparent; letter-spacing: normal; padding: 8px; stroke-width: 0;">$200K</tspan></text></g><g role="presentation"><line x1="578" x2="15" y1="94" y2="94" role="presentation" shape-rendering="auto" vector-effect="non-scaling-stroke" style="stroke: rgb(226, 226, 226); fill: transparent; stroke-width: 1; stroke-linecap: round; stroke-linejoin: round; pointer-events: none;"></line><line x1="578" x2="582" y1="94" y2="94" role="presentation" shape-rendering="auto" vector-effect="non-scaling-stroke" style="stroke: transparent; fill: transparent; size: 4px; stroke-width: 1; stroke-linecap: round; stroke-linejoin: round;"></line><text dx="0" dy="4.97" x="590" y="94"><tspan x="590" dx="0" text-anchor="start" style="fill: rgb(153, 153, 153); font-size: 14px; font-family: inherit; stroke: transparent; letter-spacing: normal; padding: 8px; stroke-width: 0;">$250K</tspan></text></g><g role="presentation"><line x1="578" x2="15" y1="34" y2="34" role="presentation" shape-rendering="auto" vector-effect="non-scaling-stroke" style="stroke: rgb(226, 226, 226); fill: transparent; stroke-width: 1; stroke-linecap: round; stroke-linejoin: round; pointer-events: none;"></line><line x1="578" x2="582" y1="34" y2="34" role="presentation" shape-rendering="auto" vector-effect="non-scaling-stroke" style="stroke: transparent; fill: transparent; size: 4px; stroke-width: 1; stroke-linecap: round; stroke-linejoin: round;"></line><text dx="0" dy="4.97" x="590" y="34"><tspan x="590" dx="0" text-anchor="start" style="fill: rgb(153, 153, 153); font-size: 14px; font-family: inherit; stroke: transparent; letter-spacing: normal; padding: 8px; stroke-width: 0;">$300K</tspan></text></g></g><g style="height: 100%; width: 100%; user-select: none;"><defs><clipPath id="victory-clip-5"><rect x="15" y="34" width="563" height="240"></rect></clipPath></defs><g clip-path="url(#victory-clip-5)"><path shape-rendering="auto" role="presentation" d="M15.30815544608648,226.2928C18.389709906951285,222.2464,21.471264367816094,218.2,24.5528188286809,218.2C27.73709177157453,218.2,30.921364714468165,225.4,34.1056376573618,225.4C37.28991060025543,225.4,40.47418354314906,223.16273464480875,43.658456486042695,222.46C46.7400109469075,221.77993421470123,49.821565407772304,221.1988,52.90311986863711,221.1988C56.08739281153075,221.1988,59.271665754424376,227.86,62.45593869731801,227.86C65.54177309493402,227.86,68.62760749255003,225.613578773533,71.71344189016602,222.4C74.89771483305965,219.08390761788,78.0819877759533,208,81.26626071884692,208C84.45053366174056,208,87.63480660463419,208.4,90.81907954752783,209.2C93.69519704433499,209.92258064516128,96.57131454114213,220,99.44743203794928,220C102.62742504409171,220,105.80741805023415,197.2,108.98741105637657,197.2C112.06896551724138,197.2,115.15051997810617,203.6258064516129,118.23207443897098,204.4C121.41634738186463,205.20000000000002,124.60062032475825,205.60000000000002,127.7848932676519,205.60000000000002C130.8664477285167,205.60000000000002,133.9480021893815,195.8284,137.02955665024632,195.8284C140.21382959313993,195.8284,143.39810253603358,209.98000000000002,146.5823754789272,209.98000000000002C149.76664842182083,209.98000000000002,152.95092136471445,192.39999999999998,156.1351943076081,192.39999999999998C159.2167487684729,192.39999999999998,162.2983032293377,210.4,165.37985769020253,210.4C168.56413063309614,210.4,171.74840357598978,200.59965304918748,174.9326765188834,197.8C178.0185109164994,195.08689536496752,181.10434531411542,193.606,184.19017971173142,193.606C187.37445265462506,193.606,190.55872559751867,209.86,193.74299854041232,209.86C196.92727148330596,209.86,200.1115444261996,190.4177239709443,203.29581736909324,184C206.1719348659004,178.20334609076,209.04805236270755,172,211.9241698595147,172C215.10416286565712,172,218.28415587179956,203.8,221.46414887794197,203.8C224.5457033388068,203.8,227.62725779967158,175.61200000000002,230.7088122605364,175.61200000000002C233.89308520343002,175.61200000000002,237.07735814632366,202,240.26163108921727,202C243.3431855500821,202,246.4247400109469,169.906,249.5062944718117,169.906C252.69056741470536,169.906,255.874840357599,171.00300000000001,259.05911330049264,173.197C262.2433862433863,175.391,265.42765918627987,197.8,268.6119321291735,197.8C271.69348659003833,197.8,274.7750410509031,188.37419354838713,277.8565955117679,187.60000000000002C281.04086845466156,186.8,284.22514139755515,187.20000000000002,287.4094143404488,186.4C290.4952487380648,185.6247311827957,293.58108313568084,184.07553965173034,296.66691753329684,181.6C299.8511904761905,179.04549029003138,303.03546341908407,171.1396,306.2197363619777,171.1396C309.40400930487135,171.1396,312.588282247765,179.7947631961259,315.77255519065864,184.6C318.6486726874658,188.94021388737013,321.52479018427294,196.22934051144009,324.4009076810801,198.4C327.58090068722254,200.8,330.76089369336495,202,333.94088669950736,202C337.0224411603722,202,340.10399562123695,200.09414278159704,343.18555008210177,197.20600000000002C346.3698230249954,194.22158579234974,349.55409596788905,184.12,352.7383689107827,184.12C355.8199233716475,184.12,358.9014778325123,195.16,361.9830322933771,195.16C365.16730523627075,195.16,368.35157817916433,181.35999999999999,371.535851122058,175.9C374.7201240649516,170.43999999999997,377.90439700784526,162.39999999999998,381.0886699507389,162.39999999999998C384.1702244116037,162.39999999999998,387.2517788724685,186.90322580645162,390.3333333333333,190C393.51760627622696,193.20000000000002,396.7018792191206,194.8,399.88615216201424,194.8C402.97198655963024,194.8,406.0578209572463,185.2,409.1436553548623,185.2C412.32792829775593,185.2,415.5122012406495,190.15,418.69647418354316,190.15C421.8807471264368,190.15,425.0650200693304,187.13910919540228,428.24929301222403,186.1C431.22812899106003,185.12793010752688,434.206964969896,185.4,437.185800948732,184C440.3657939548744,182.50545977011495,443.54578696101686,166.01916666666662,446.72577996715927,165.39999999999998C449.8073344280241,164.79999999999998,452.8888888888889,164.5,455.97044334975374,164.5C459.1547162926473,164.5,462.33898923554096,166,465.52326217843455,166C468.6048166392994,166,471.6863711001642,164.79999999999998,474.767925561029,162.39999999999998C477.95219850392266,159.91999999999996,481.1364714468163,136,484.32074438970994,136C487.50501733260353,136,490.68929027549717,187,493.87356321839076,187C496.9551176792556,187,500.0366721401204,134.2,503.1182266009852,134.2C506.3024995438788,134.2,509.48677248677245,158.67652594756052,512.671045429666,166C515.7568798272821,173.09707633307661,518.8427142248981,178.06,521.9285486225142,178.06C525.1128215654078,178.06,528.2970945083015,121.6,531.4813674511951,121.6C534.6656403940887,121.6,537.8499133369824,123.6,541.0341862798759,127.6C543.9103037766831,131.21290322580646,546.7864212734902,174.34,549.6625387702974,174.34C552.8425317764398,174.34,556.0225247825822,156.51365535049743,559.2025177887247,148C562.2840722495895,139.74988983531873,565.3656267104543,124,568.4471811713191,124C571.6314541142127,124,574.8157270571064,134.35000000000002,578,144.70000000000002" style="fill: transparent; stroke: rgb(51, 51, 51); stroke-width: 2; opacity: 1;"></path></g></g></svg>