<svg xmlns="http://www.w3.org/2000/svg" width="640" height="324" role="img" aria-labelledby="victory-container-4-title victory-container-4-desc" viewBox="0 0 640 324" style="pointer-events: all; width: 100%; height: 100%;"><g role="presentation"><line x1="15" x2="578" y1="274" y2="274" role="presentation" shape-rendering="auto" vector-effect="non-scaling-stroke" style="stroke: rgb(226, 226, 226); fill: transparent; stroke-width: 1; stroke-linejoin: round;"></line><g role="presentation"><line x1="81.26626071884692" x2="81.26626071884692" y1="274" y2="34" role="presentation" shape-rendering="auto" vector-effect="non-scaling-stroke" style="stroke: transparent; fill: transparent; stroke-width: 1; stroke-linecap: round; stroke-linejoin: round; pointer-events: none;"></line><line x1="81.26626071884692" x2="81.26626071884692" y1="274" y2="278" role="presentation" shape-rendering="auto" vector-effect="non-scaling-stroke" style="stroke: transparent; fill: transparent; size: 4px; stroke-width: 1; stroke-linecap: round; stroke-linejoin: round;"></line><text dx="0" dy="11.969999999999999" x="81.26626071884692" y="286"><tspan x="81.26626071884692" dx="0" text-anchor="middle" style="fill: rgb(153, 153, 153); font-size: 14px; font-family: inherit; stroke: transparent; letter-spacing: normal; padding: 8px; stroke-width: 0;">2017</tspan></text></g><g role="presentation"><line x1="193.74299854041232" x2="193.74299854041232" y1="274" y2="34" role="presentation" shape-rendering="auto" vector-effect="non-scaling-stroke" style="stroke: transparent; fill: transparent; stroke-width: 1; stroke-linecap: round; stroke-linejoin: round; pointer-events: none;"></line><line x1="193.74299854041232" x2="193.74299854041232" y1="274" y2="278" role="presentation" shape-rendering="auto" vector-effect="non-scaling-stroke" style="stroke: transparent; fill: transparent; size: 4px; stroke-width: 1; stroke-linecap: round; stroke-linejoin: round;"></line><text dx="0" dy="11.969999999999999" x="193.74299854041232" y="286"><tspan x="193.74299854041232" dx="0" text-anchor="middle" style="fill: rgb(153, 153, 153); font-size: 14px; font-family: inherit; stroke: transparent; letter-spacing: normal; padding: 8px; stroke-width: 0;">2018</tspan></text></g><g role="presentation"><line x1="306.2197363619777" x2="306.2197363619777" y1="274" y2="34" role="presentation" shape-rendering="auto" vector-effect="non-scaling-stroke" style="stroke: transparent; fill: transparent; stroke-width: 1; stroke-linecap: round; stroke-linejoin: round; pointer-events: none;"></line><line x1="306.2197363619777" x2="306.2197363619777" y1="274" y2="278" role="presentation" shape-rendering="auto" vector-effect="non-scaling-stroke" style="stroke: transparent; fill: transparent; size: 4px; stroke-width: 1; stroke-linecap: round; stroke-linejoin: round;"></line><text dx="0" dy="11.969999999999999" x="306.2197363619777" y="286"><tspan x="306.2197363619777" dx="0" text-anchor="middle" style="fill: rgb(153, 153, 153); font-size: 14px; font-family: inherit; stroke: transparent; letter-spacing: normal; padding: 8px; stroke-width: 0;">2019</tspan></text></g><g role="presentation"><line x1="418.69647418354316" x2="418.69647418354316" y1="274" y2="34" role="presentation" shape-rendering="auto" vector-effect="non-scaling-stroke" style="stroke: transparent; fill: transparent; stroke-width: 1; stroke-linecap: round; stroke-linejoin: round; pointer-events: none;"></line><line x1="418.69647418354316" x2="418.69647418354316" y1="274" y2="278" role="presentation" shape-rendering="auto" vector-effect="non-scaling-stroke" style="stroke: transparent; fill: transparent; size: 4px; stroke-width: 1; stroke-linecap: round; stroke-linejoin: round;"></line><text dx="0" dy="11.969999999999999" x="418.69647418354316" y="286"><tspan x="418.69647418354316" dx="0" text-anchor="middle" style="fill: rgb(153, 153, 153); font-size: 14px; font-family: inherit; stroke: transparent; letter-spacing: normal; padding: 8px; stroke-width: 0;">2020</tspan></text></g><g role="presentation"><line x1="531.4813674511951" x2="531.4813674511951" y1="274" y2="34" role="presentation" shape-rendering="auto" vector-effect="non-scaling-stroke" style="stroke: transparent; fill: transparent; stroke-width: 1; stroke-linecap: round; stroke-linejoin: round; pointer-events: none;"></line><line x1="531.4813674511951" x2="531.4813674511951" y1="274" y2="278" role="presentation" shape-rendering="auto" vector-effect="non-scaling-stroke" style="stroke: transparent; fill: transparent; size: 4px; stroke-width: 1; stroke-linecap: round; stroke-linejoin: round;"></line><text dx="0" dy="11.969999999999999" x="531.4813674511951" y="286"><tspan x="531.4813674511951" dx="0" text-anchor="middle" style="fill: rgb(153, 153, 153); font-size: 14px; font-family: inherit; stroke: transparent; letter-spacing: normal; padding: 8px; stroke-width: 0;">2021</tspan></text></g></g><g role="presentation"><line x1="578" x2="578" y1="34" y2="274" role="presentation" shape-rendering="auto" vector-effect="non-scaling-stroke" style="stroke: transparent; fill: transparent; stroke-width: 1; stroke-linejoin: round;"></line><g role="presentation"><line x1="578" x2="15" y1="214" y2="214" role="presentation" shape-rendering="auto" vector-effect="non-scaling-stroke" style="stroke: rgb(226, 226, 226); fill: transparent; stroke-width: 1; stroke-linecap: round; stroke-linejoin: round; pointer-events: none;"></line><line x1="578" x2="582" y1="214" y2="214" role="presentation" shape-rendering="auto" vector-effect="non-scaling-stroke" style="stroke: transparent; fill: transparent; size: 4px; stroke-width: 1; stroke-linecap: round; stroke-linejoin: round;"></line><text dx="0" dy="4.97" x="590" y="214"><tspan x="590" dx="0" text-anchor="start" style="fill: rgb(153, 153, 153); font-size: 14px; font-family: inherit; stroke: transparent; letter-spacing: normal; padding: 8px; stroke-width: 0;">$100K</tspan></text></g><g role="presentation"><line x1="578" x2="15" y1="139" y2="139" role="presentation" shape-rendering="auto" vector-effect="non-scaling-stroke" style="stroke: rgb(226, 226, 226); fill: transparent; stroke-width: 1; stroke-linecap: round; stroke-linejoin: round; pointer-events: none;"></line><line x1="578" x2="582" y1="139" y2="139" role="presentation" shape-rendering="auto" vector-effect="non-scaling-stroke" style="stroke: transparent; fill: transparent; size: 4px; stroke-width: 1; stroke-linecap: round; stroke-linejoin: round;"></line><text dx="0" dy="4.97" x="590" y="139"><tspan x="590" dx="0" text-anchor="start" style="fill: rgb(153, 153, 153); font-size: 14px; font-family: inherit; stroke: transparent; letter-spacing: normal; padding: 8px; stroke-width: 0;">$150K</tspan></text></g><g role="presentation"><line x1="578" x2="15" y1="64" y2="64" role="presentation" shape-rendering="auto" vector-effect="non-scaling-stroke" style="stroke: rgb(226, 226, 226); fill: transparent; stroke-width: 1; stroke-linecap: round; stroke-linejoin: round; pointer-events: none;"></line><line x1="578" x2="582" y1="64" y2="64" role="presentation" shape-rendering="auto" vector-effect="non-scaling-stroke" style="stroke: transparent; fill: transparent; size: 4px; stroke-width: 1; stroke-linecap: round; stroke-linejoin: round;"></line><text dx="0" dy="4.97" x="590" y="64"><tspan x="590" dx="0" text-anchor="start" style="fill: rgb(153, 153, 153); font-size: 14px; font-family: inherit; stroke: transparent; letter-spacing: normal; padding: 8px; stroke-width: 0;">$200K</tspan></text></g></g><g style="height: 100%; width: 100%; user-select: none;"><defs><clipPath id="victory-clip-5"><rect x="15" y="34" width="563" height="240"></rect></clipPath></defs><g clip-path="url(#victory-clip-5)"><path shape-rendering="auto" role="presentation" d="M15.30815544608648,235C18.389709906951285,209.5,21.471264367816094,184,24.5528188286809,184C27.73709177157453,184,30.921364714468165,216.25,34.1056376573618,216.25C37.28991060025543,216.25,40.47418354314906,181,43.658456486042695,181C46.7400109469075,181,49.821565407772304,191.9053410893707,52.90311986863711,199C56.08739281153075,206.3311475409836,59.271665754424376,224.5,62.45593869731801,224.5C65.54177309493402,224.5,68.62760749255003,200.0671971907226,71.71344189016602,191.5C74.89771483305965,182.6595080306552,78.0819877759533,177.75,81.26626071884692,172.75C84.45053366174056,167.75,87.63480660463419,161.5,90.81907954752783,161.5C93.69519704433499,161.5,96.57131454114213,170.8269479095825,99.44743203794928,185.575C102.62742504409171,201.8812540225896,105.80741805023415,259.15,108.98741105637657,259.15C112.06896551724138,259.15,115.15051997810617,182.2,118.23207443897098,182.2C121.41634738186463,182.2,124.60062032475825,199.375,127.7848932676519,199.375C130.8664477285167,199.375,133.9480021893815,191.3485,137.02955665024632,191.3485C140.21382959313993,191.3485,143.39810253603358,206.275,146.5823754789272,206.275C149.76664842182083,206.275,152.95092136471445,201.5054644808743,156.1351943076081,199C159.2167487684729,196.57535695399258,162.2983032293377,191.5,165.37985769020253,191.5C168.56413063309614,191.5,171.74840357598978,218.5,174.9326765188834,218.5C178.0185109164994,218.5,181.10434531411542,158.5,184.19017971173142,158.5C187.37445265462506,158.5,190.55872559751867,186.25,193.74299854041232,186.25C196.92727148330596,186.25,200.1115444261996,105.25,203.29581736909324,105.25C206.1719348659004,105.25,209.04805236270755,177.7,211.9241698595147,177.7C215.10416286565712,177.7,218.28415587179956,92.94999999999999,221.46414887794197,92.94999999999999C224.5457033388068,92.94999999999999,227.62725779967158,98.6625,230.7088122605364,110.0875C233.89308520343002,121.89333333333329,237.07735814632366,176.5,240.26163108921727,176.5C243.3431855500821,176.5,246.4247400109469,154.45,249.5062944718117,154.45C252.69056741470536,154.45,255.874840357599,154.54999999999998,259.05911330049264,154.75C262.2433862433863,154.95000000000002,265.42765918627987,175.06666666666666,268.6119321291735,176.875C271.69348659003833,178.625,274.7750410509031,179.5,277.8565955117679,179.5C281.04086845466156,179.5,284.22514139755515,147.25,287.4094143404488,147.25C290.4952487380648,147.25,293.58108313568084,149.275,296.66691753329684,153.325C299.8511904761905,157.5041955617198,303.03546341908407,203.50000000000006,306.2197363619777,211C309.40400930487135,218.5,312.588282247765,222.25,315.77255519065864,222.25C318.6486726874658,222.25,321.52479018427294,115,324.4009076810801,115C327.58090068722254,115,330.76089369336495,163.375,333.94088669950736,163.375C337.0224411603722,163.375,340.10399562123695,139,343.18555008210177,139C346.3698230249954,139,349.55409596788905,139.15,352.7383689107827,139.15C355.8199233716475,139.15,358.9014778325123,116.2788471708091,361.9830322933771,109C365.16730523627075,101.47852459016394,368.35157817916433,95.3125,371.535851122058,95.3125C374.7201240649516,95.3125,377.90439700784526,117.5423770491803,381.0886699507389,129.25C384.1702244116037,140.5799576943416,387.2517788724685,164.35000000000002,390.3333333333333,164.35000000000002C393.51760627622696,164.35000000000002,396.7018792191206,160.9,399.88615216201424,154C402.97198655963024,147.3133064516129,406.0578209572463,41.5,409.1436553548623,41.5C412.32792829775593,41.5,415.5122012406495,191.5,418.69647418354316,191.5C421.8807471264368,191.5,425.0650200693304,64.75,428.24929301222403,64.75C431.22812899106003,64.75,434.206964969896,154,437.185800948732,154C440.3657939548744,154,443.54578696101686,100.49780832289056,446.72577996715927,85.375C449.8073344280241,70.72032706260933,452.8888888888889,63.25,455.97044334975374,63.25C459.1547162926473,63.25,462.33898923554096,106.15333333333339,465.52326217843455,109.15C468.6048166392994,112.05,471.6863711001642,113.5,474.767925561029,113.5C477.95219850392266,113.5,481.1364714468163,94.15,484.32074438970994,94.15C487.50501733260353,94.15,490.68929027549717,96.60000000000001,493.87356321839076,101.5C496.9551176792556,106.24193548387103,500.0366721401204,128.5,503.1182266009852,128.5C506.3024995438788,128.5,509.48677248677245,59.5,512.671045429666,59.5C515.7568798272821,59.5,518.8427142248981,114.25,521.9285486225142,114.25C525.1128215654078,114.25,528.2970945083015,109.07500000000002,531.4813674511951,109.07500000000002C534.6656403940887,109.07500000000002,537.8499133369824,124,541.0341862798759,124C543.9103037766831,124,546.7864212734902,116.0025562969339,549.6625387702974,111.32499999999999C552.8425317764398,106.15323760621739,556.0225247825822,94.76916666666668,559.2025177887247,94.15C562.2840722495895,93.55,565.3656267104543,93.85000000000001,568.4471811713191,93.25C571.6314541142127,92.63,574.8157270571064,86.63999999999999,578,80.64999999999998" style="fill: transparent; stroke: rgb(51, 51, 51); stroke-width: 2; opacity: 1;"></path></g></g></svg>