<svg xmlns="http://www.w3.org/2000/svg" width="640" height="324" role="img" aria-labelledby="victory-container-4-title victory-container-4-desc" viewBox="0 0 640 324" style="pointer-events: all; width: 100%; height: 100%;"><g role="presentation"><line x1="15" x2="578" y1="274" y2="274" role="presentation" shape-rendering="auto" vector-effect="non-scaling-stroke" style="stroke: rgb(226, 226, 226); fill: transparent; stroke-width: 1; stroke-linejoin: round;"></line><g role="presentation"><line x1="81.26626071884692" x2="81.26626071884692" y1="274" y2="34" role="presentation" shape-rendering="auto" vector-effect="non-scaling-stroke" style="stroke: transparent; fill: transparent; stroke-width: 1; stroke-linecap: round; stroke-linejoin: round; pointer-events: none;"></line><line x1="81.26626071884692" x2="81.26626071884692" y1="274" y2="278" role="presentation" shape-rendering="auto" vector-effect="non-scaling-stroke" style="stroke: transparent; fill: transparent; size: 4px; stroke-width: 1; stroke-linecap: round; stroke-linejoin: round;"></line><text dx="0" dy="11.969999999999999" x="81.26626071884692" y="286"><tspan x="81.26626071884692" dx="0" text-anchor="middle" style="fill: rgb(153, 153, 153); font-size: 14px; font-family: inherit; stroke: transparent; letter-spacing: normal; padding: 8px; stroke-width: 0;">2017</tspan></text></g><g role="presentation"><line x1="193.74299854041232" x2="193.74299854041232" y1="274" y2="34" role="presentation" shape-rendering="auto" vector-effect="non-scaling-stroke" style="stroke: transparent; fill: transparent; stroke-width: 1; stroke-linecap: round; stroke-linejoin: round; pointer-events: none;"></line><line x1="193.74299854041232" x2="193.74299854041232" y1="274" y2="278" role="presentation" shape-rendering="auto" vector-effect="non-scaling-stroke" style="stroke: transparent; fill: transparent; size: 4px; stroke-width: 1; stroke-linecap: round; stroke-linejoin: round;"></line><text dx="0" dy="11.969999999999999" x="193.74299854041232" y="286"><tspan x="193.74299854041232" dx="0" text-anchor="middle" style="fill: rgb(153, 153, 153); font-size: 14px; font-family: inherit; stroke: transparent; letter-spacing: normal; padding: 8px; stroke-width: 0;">2018</tspan></text></g><g role="presentation"><line x1="306.2197363619777" x2="306.2197363619777" y1="274" y2="34" role="presentation" shape-rendering="auto" vector-effect="non-scaling-stroke" style="stroke: transparent; fill: transparent; stroke-width: 1; stroke-linecap: round; stroke-linejoin: round; pointer-events: none;"></line><line x1="306.2197363619777" x2="306.2197363619777" y1="274" y2="278" role="presentation" shape-rendering="auto" vector-effect="non-scaling-stroke" style="stroke: transparent; fill: transparent; size: 4px; stroke-width: 1; stroke-linecap: round; stroke-linejoin: round;"></line><text dx="0" dy="11.969999999999999" x="306.2197363619777" y="286"><tspan x="306.2197363619777" dx="0" text-anchor="middle" style="fill: rgb(153, 153, 153); font-size: 14px; font-family: inherit; stroke: transparent; letter-spacing: normal; padding: 8px; stroke-width: 0;">2019</tspan></text></g><g role="presentation"><line x1="418.69647418354316" x2="418.69647418354316" y1="274" y2="34" role="presentation" shape-rendering="auto" vector-effect="non-scaling-stroke" style="stroke: transparent; fill: transparent; stroke-width: 1; stroke-linecap: round; stroke-linejoin: round; pointer-events: none;"></line><line x1="418.69647418354316" x2="418.69647418354316" y1="274" y2="278" role="presentation" shape-rendering="auto" vector-effect="non-scaling-stroke" style="stroke: transparent; fill: transparent; size: 4px; stroke-width: 1; stroke-linecap: round; stroke-linejoin: round;"></line><text dx="0" dy="11.969999999999999" x="418.69647418354316" y="286"><tspan x="418.69647418354316" dx="0" text-anchor="middle" style="fill: rgb(153, 153, 153); font-size: 14px; font-family: inherit; stroke: transparent; letter-spacing: normal; padding: 8px; stroke-width: 0;">2020</tspan></text></g><g role="presentation"><line x1="531.4813674511951" x2="531.4813674511951" y1="274" y2="34" role="presentation" shape-rendering="auto" vector-effect="non-scaling-stroke" style="stroke: transparent; fill: transparent; stroke-width: 1; stroke-linecap: round; stroke-linejoin: round; pointer-events: none;"></line><line x1="531.4813674511951" x2="531.4813674511951" y1="274" y2="278" role="presentation" shape-rendering="auto" vector-effect="non-scaling-stroke" style="stroke: transparent; fill: transparent; size: 4px; stroke-width: 1; stroke-linecap: round; stroke-linejoin: round;"></line><text dx="0" dy="11.969999999999999" x="531.4813674511951" y="286"><tspan x="531.4813674511951" dx="0" text-anchor="middle" style="fill: rgb(153, 153, 153); font-size: 14px; font-family: inherit; stroke: transparent; letter-spacing: normal; padding: 8px; stroke-width: 0;">2021</tspan></text></g></g><g role="presentation"><line x1="578" x2="578" y1="34" y2="274" role="presentation" shape-rendering="auto" vector-effect="non-scaling-stroke" style="stroke: transparent; fill: transparent; stroke-width: 1; stroke-linejoin: round;"></line><g role="presentation"><line x1="578" x2="15" y1="274" y2="274" role="presentation" shape-rendering="auto" vector-effect="non-scaling-stroke" style="stroke: rgb(226, 226, 226); fill: transparent; stroke-width: 1; stroke-linecap: round; stroke-linejoin: round; pointer-events: none;"></line><line x1="578" x2="582" y1="274" y2="274" role="presentation" shape-rendering="auto" vector-effect="non-scaling-stroke" style="stroke: transparent; fill: transparent; size: 4px; stroke-width: 1; stroke-linecap: round; stroke-linejoin: round;"></line><text dx="0" dy="4.97" x="590" y="274"><tspan x="590" dx="0" text-anchor="start" style="fill: rgb(153, 153, 153); font-size: 14px; font-family: inherit; stroke: transparent; letter-spacing: normal; padding: 8px; stroke-width: 0;">$300K</tspan></text></g><g role="presentation"><line x1="578" x2="15" y1="214" y2="214" role="presentation" shape-rendering="auto" vector-effect="non-scaling-stroke" style="stroke: rgb(226, 226, 226); fill: transparent; stroke-width: 1; stroke-linecap: round; stroke-linejoin: round; pointer-events: none;"></line><line x1="578" x2="582" y1="214" y2="214" role="presentation" shape-rendering="auto" vector-effect="non-scaling-stroke" style="stroke: transparent; fill: transparent; size: 4px; stroke-width: 1; stroke-linecap: round; stroke-linejoin: round;"></line><text dx="0" dy="4.97" x="590" y="214"><tspan x="590" dx="0" text-anchor="start" style="fill: rgb(153, 153, 153); font-size: 14px; font-family: inherit; stroke: transparent; letter-spacing: normal; padding: 8px; stroke-width: 0;">$350K</tspan></text></g><g role="presentation"><line x1="578" x2="15" y1="154" y2="154" role="presentation" shape-rendering="auto" vector-effect="non-scaling-stroke" style="stroke: rgb(226, 226, 226); fill: transparent; stroke-width: 1; stroke-linecap: round; stroke-linejoin: round; pointer-events: none;"></line><line x1="578" x2="582" y1="154" y2="154" role="presentation" shape-rendering="auto" vector-effect="non-scaling-stroke" style="stroke: transparent; fill: transparent; size: 4px; stroke-width: 1; stroke-linecap: round; stroke-linejoin: round;"></line><text dx="0" dy="4.97" x="590" y="154"><tspan x="590" dx="0" text-anchor="start" style="fill: rgb(153, 153, 153); font-size: 14px; font-family: inherit; stroke: transparent; letter-spacing: normal; padding: 8px; stroke-width: 0;">$400K</tspan></text></g><g role="presentation"><line x1="578" x2="15" y1="94" y2="94" role="presentation" shape-rendering="auto" vector-effect="non-scaling-stroke" style="stroke: rgb(226, 226, 226); fill: transparent; stroke-width: 1; stroke-linecap: round; stroke-linejoin: round; pointer-events: none;"></line><line x1="578" x2="582" y1="94" y2="94" role="presentation" shape-rendering="auto" vector-effect="non-scaling-stroke" style="stroke: transparent; fill: transparent; size: 4px; stroke-width: 1; stroke-linecap: round; stroke-linejoin: round;"></line><text dx="0" dy="4.97" x="590" y="94"><tspan x="590" dx="0" text-anchor="start" style="fill: rgb(153, 153, 153); font-size: 14px; font-family: inherit; stroke: transparent; letter-spacing: normal; padding: 8px; stroke-width: 0;">$450K</tspan></text></g><g role="presentation"><line x1="578" x2="15" y1="34" y2="34" role="presentation" shape-rendering="auto" vector-effect="non-scaling-stroke" style="stroke: rgb(226, 226, 226); fill: transparent; stroke-width: 1; stroke-linecap: round; stroke-linejoin: round; pointer-events: none;"></line><line x1="578" x2="582" y1="34" y2="34" role="presentation" shape-rendering="auto" vector-effect="non-scaling-stroke" style="stroke: transparent; fill: transparent; size: 4px; stroke-width: 1; stroke-linecap: round; stroke-linejoin: round;"></line><text dx="0" dy="4.97" x="590" y="34"><tspan x="590" dx="0" text-anchor="start" style="fill: rgb(153, 153, 153); font-size: 14px; font-family: inherit; stroke: transparent; letter-spacing: normal; padding: 8px; stroke-width: 0;">$500K</tspan></text></g></g><g style="height: 100%; width: 100%; user-select: none;"><defs><clipPath id="victory-clip-5"><rect x="15" y="34" width="563" height="240"></rect></clipPath></defs><g clip-path="url(#victory-clip-5)"><path shape-rendering="auto" role="presentation" d="M15.30815544608648,193.6C18.389709906951285,161.79999999999998,21.471264367816094,130,24.5528188286809,130C27.73709177157453,130,30.921364714468165,130.1,34.1056376573618,130.3C37.28991060025543,130.50000000000003,40.47418354314906,152.95868852459014,43.658456486042695,167.2C46.7400109469075,180.98191433104176,49.821565407772304,214,52.90311986863711,214C56.08739281153075,214,59.271665754424376,195.44819137773192,62.45593869731801,188.2C65.54177309493402,181.17587905464418,68.62760749255003,180.12818516184078,71.71344189016602,170.93619999999999C74.89771483305965,161.45098923660254,78.0819877759533,131.5,81.26626071884692,131.5C84.45053366174056,131.5,87.63480660463419,160,90.81907954752783,160C93.69519704433499,160,96.57131454114213,130.06,99.44743203794928,130.06C102.62742504409171,130.06,105.80741805023415,160.4555440685046,108.98741105637657,172C112.06896551724138,183.18709053926875,115.15051997810617,198.7,118.23207443897098,198.7C121.41634738186463,198.7,124.60062032475825,162.61311475409835,127.7848932676519,148C130.8664477285167,133.85827604442096,133.9480021893815,112,137.02955665024632,112C140.21382959313993,112,143.39810253603358,178.32999999999998,146.5823754789272,178.32999999999998C149.76664842182083,178.32999999999998,152.95092136471445,165.5885901639344,156.1351943076081,160C159.2167487684729,154.59168693812796,162.2983032293377,153.96560549973563,165.37985769020253,145.24C168.56413063309614,136.22354098360657,171.74840357598978,106,174.9326765188834,106C178.0185109164994,106,181.10434531411542,150.08800000000002,184.19017971173142,150.08800000000002C187.37445265462506,150.08800000000002,190.55872559751867,131.848,193.74299854041232,121.30000000000001C196.92727148330596,110.752,200.1115444261996,86.79999999999998,203.29581736909324,86.79999999999998C206.1719348659004,86.79999999999998,209.04805236270755,142,211.9241698595147,142C215.10416286565712,142,218.28415587179956,123.46119999999999,221.46414887794197,123.46119999999999C224.5457033388068,123.46119999999999,227.62725779967158,149.8,230.7088122605364,149.8C233.89308520343002,149.8,237.07735814632366,149.20000000000002,240.26163108921727,148C243.3431855500821,146.83870967741933,246.4247400109469,124,249.5062944718117,124C252.69056741470536,124,255.874840357599,143.05999999999997,259.05911330049264,154.06C262.2433862433863,165.05999999999997,265.42765918627987,190,268.6119321291735,190C271.69348659003833,190,274.7750410509031,166.66000000000003,277.8565955117679,166.66000000000003C281.04086845466156,166.66000000000003,284.22514139755515,198.07386879239587,287.4094143404488,208C290.4952487380648,217.61927500091753,293.58108313568084,226,296.66691753329684,226C299.8511904761905,226,303.03546341908407,177.95999999999998,306.2197363619777,160.96C309.40400930487135,143.95999999999992,312.588282247765,124,315.77255519065864,124C318.6486726874658,124,321.52479018427294,178,324.4009076810801,178C327.58090068722254,178,330.76089369336495,142.6,333.94088669950736,142.6C337.0224411603722,142.6,340.10399562123695,144.39999999999998,343.18555008210177,144.39999999999998C346.3698230249954,144.39999999999998,349.55409596788905,124.11999999999998,352.7383689107827,124.11999999999998C355.8199233716475,124.11999999999998,358.9014778325123,151,361.9830322933771,151C365.16730523627075,151,368.35157817916433,130.66000000000003,371.535851122058,130.66000000000003C374.7201240649516,130.66000000000003,377.90439700784526,154.12,381.0886699507389,154.12C384.1702244116037,154.12,387.2517788724685,91,390.3333333333333,91C393.51760627622696,91,396.7018792191206,152.45473287101248,399.88615216201424,154.3072C402.97198655963024,156.1024,406.0578209572463,157,409.1436553548623,157C412.32792829775593,157,415.5122012406495,136,418.69647418354316,136C421.8807471264368,136,425.0650200693304,179.8,428.24929301222403,179.8C431.22812899106003,179.8,434.206964969896,136.59757738896369,437.185800948732,133.60000000000002C440.3657939548744,130.4,443.54578696101686,128.8,446.72577996715927,128.8C449.8073344280241,128.8,452.8888888888889,186.796,455.97044334975374,186.796C459.1547162926473,186.796,462.33898923554096,139.006,465.52326217843455,139.006C468.6048166392994,139.006,471.6863711001642,160,474.767925561029,160C477.95219850392266,160,481.1364714468163,130,484.32074438970994,130C487.50501733260353,130,490.68929027549717,150.97,493.87356321839076,150.97C496.9551176792556,150.97,500.0366721401204,62.5,503.1182266009852,62.5C506.3024995438788,62.5,509.48677248677245,115.74479889043016,512.671045429666,124C515.7568798272821,132,518.8427142248981,131.10698557745232,521.9285486225142,136C525.1128215654078,141.04910226126964,528.2970945083015,151.6,531.4813674511951,154C534.6656403940887,156.4,537.8499133369824,157.60000000000002,541.0341862798759,157.60000000000002C543.9103037766831,157.60000000000002,546.7864212734902,124,549.6625387702974,124C552.8425317764398,124,556.0225247825822,171.064,559.2025177887247,171.064C562.2840722495895,171.064,565.3656267104543,131.762119513485,568.4471811713191,112C571.6314541142127,91.579143169399,574.8157270571064,71.0395715846995,578,50.5" style="fill: transparent; stroke: rgb(51, 51, 51); stroke-width: 2; opacity: 1;"></path></g></g></svg>