<svg xmlns="http://www.w3.org/2000/svg" width="640" height="324" role="img" aria-labelledby="victory-container-4-title victory-container-4-desc" viewBox="0 0 640 324" style="pointer-events: all; width: 100%; height: 100%;"><g role="presentation"><line x1="15" x2="578" y1="274" y2="274" role="presentation" shape-rendering="auto" vector-effect="non-scaling-stroke" style="stroke: rgb(226, 226, 226); fill: transparent; stroke-width: 1; stroke-linejoin: round;"></line><g role="presentation"><line x1="81.26626071884692" x2="81.26626071884692" y1="274" y2="34" role="presentation" shape-rendering="auto" vector-effect="non-scaling-stroke" style="stroke: transparent; fill: transparent; stroke-width: 1; stroke-linecap: round; stroke-linejoin: round; pointer-events: none;"></line><line x1="81.26626071884692" x2="81.26626071884692" y1="274" y2="278" role="presentation" shape-rendering="auto" vector-effect="non-scaling-stroke" style="stroke: transparent; fill: transparent; size: 4px; stroke-width: 1; stroke-linecap: round; stroke-linejoin: round;"></line><text dx="0" dy="11.969999999999999" x="81.26626071884692" y="286"><tspan x="81.26626071884692" dx="0" text-anchor="middle" style="fill: rgb(153, 153, 153); font-size: 14px; font-family: inherit; stroke: transparent; letter-spacing: normal; padding: 8px; stroke-width: 0;">2017</tspan></text></g><g role="presentation"><line x1="193.74299854041232" x2="193.74299854041232" y1="274" y2="34" role="presentation" shape-rendering="auto" vector-effect="non-scaling-stroke" style="stroke: transparent; fill: transparent; stroke-width: 1; stroke-linecap: round; stroke-linejoin: round; pointer-events: none;"></line><line x1="193.74299854041232" x2="193.74299854041232" y1="274" y2="278" role="presentation" shape-rendering="auto" vector-effect="non-scaling-stroke" style="stroke: transparent; fill: transparent; size: 4px; stroke-width: 1; stroke-linecap: round; stroke-linejoin: round;"></line><text dx="0" dy="11.969999999999999" x="193.74299854041232" y="286"><tspan x="193.74299854041232" dx="0" text-anchor="middle" style="fill: rgb(153, 153, 153); font-size: 14px; font-family: inherit; stroke: transparent; letter-spacing: normal; padding: 8px; stroke-width: 0;">2018</tspan></text></g><g role="presentation"><line x1="306.2197363619777" x2="306.2197363619777" y1="274" y2="34" role="presentation" shape-rendering="auto" vector-effect="non-scaling-stroke" style="stroke: transparent; fill: transparent; stroke-width: 1; stroke-linecap: round; stroke-linejoin: round; pointer-events: none;"></line><line x1="306.2197363619777" x2="306.2197363619777" y1="274" y2="278" role="presentation" shape-rendering="auto" vector-effect="non-scaling-stroke" style="stroke: transparent; fill: transparent; size: 4px; stroke-width: 1; stroke-linecap: round; stroke-linejoin: round;"></line><text dx="0" dy="11.969999999999999" x="306.2197363619777" y="286"><tspan x="306.2197363619777" dx="0" text-anchor="middle" style="fill: rgb(153, 153, 153); font-size: 14px; font-family: inherit; stroke: transparent; letter-spacing: normal; padding: 8px; stroke-width: 0;">2019</tspan></text></g><g role="presentation"><line x1="418.69647418354316" x2="418.69647418354316" y1="274" y2="34" role="presentation" shape-rendering="auto" vector-effect="non-scaling-stroke" style="stroke: transparent; fill: transparent; stroke-width: 1; stroke-linecap: round; stroke-linejoin: round; pointer-events: none;"></line><line x1="418.69647418354316" x2="418.69647418354316" y1="274" y2="278" role="presentation" shape-rendering="auto" vector-effect="non-scaling-stroke" style="stroke: transparent; fill: transparent; size: 4px; stroke-width: 1; stroke-linecap: round; stroke-linejoin: round;"></line><text dx="0" dy="11.969999999999999" x="418.69647418354316" y="286"><tspan x="418.69647418354316" dx="0" text-anchor="middle" style="fill: rgb(153, 153, 153); font-size: 14px; font-family: inherit; stroke: transparent; letter-spacing: normal; padding: 8px; stroke-width: 0;">2020</tspan></text></g><g role="presentation"><line x1="531.4813674511951" x2="531.4813674511951" y1="274" y2="34" role="presentation" shape-rendering="auto" vector-effect="non-scaling-stroke" style="stroke: transparent; fill: transparent; stroke-width: 1; stroke-linecap: round; stroke-linejoin: round; pointer-events: none;"></line><line x1="531.4813674511951" x2="531.4813674511951" y1="274" y2="278" role="presentation" shape-rendering="auto" vector-effect="non-scaling-stroke" style="stroke: transparent; fill: transparent; size: 4px; stroke-width: 1; stroke-linecap: round; stroke-linejoin: round;"></line><text dx="0" dy="11.969999999999999" x="531.4813674511951" y="286"><tspan x="531.4813674511951" dx="0" text-anchor="middle" style="fill: rgb(153, 153, 153); font-size: 14px; font-family: inherit; stroke: transparent; letter-spacing: normal; padding: 8px; stroke-width: 0;">2021</tspan></text></g></g><g role="presentation"><line x1="578" x2="578" y1="34" y2="274" role="presentation" shape-rendering="auto" vector-effect="non-scaling-stroke" style="stroke: transparent; fill: transparent; stroke-width: 1; stroke-linejoin: round;"></line><g role="presentation"><line x1="578" x2="15" y1="274" y2="274" role="presentation" shape-rendering="auto" vector-effect="non-scaling-stroke" style="stroke: rgb(226, 226, 226); fill: transparent; stroke-width: 1; stroke-linecap: round; stroke-linejoin: round; pointer-events: none;"></line><line x1="578" x2="582" y1="274" y2="274" role="presentation" shape-rendering="auto" vector-effect="non-scaling-stroke" style="stroke: transparent; fill: transparent; size: 4px; stroke-width: 1; stroke-linecap: round; stroke-linejoin: round;"></line><text dx="0" dy="4.97" x="590" y="274"><tspan x="590" dx="0" text-anchor="start" style="fill: rgb(153, 153, 153); font-size: 14px; font-family: inherit; stroke: transparent; letter-spacing: normal; padding: 8px; stroke-width: 0;">$50K</tspan></text></g><g role="presentation"><line x1="578" x2="15" y1="203.41176470588235" y2="203.41176470588235" role="presentation" shape-rendering="auto" vector-effect="non-scaling-stroke" style="stroke: rgb(226, 226, 226); fill: transparent; stroke-width: 1; stroke-linecap: round; stroke-linejoin: round; pointer-events: none;"></line><line x1="578" x2="582" y1="203.41176470588235" y2="203.41176470588235" role="presentation" shape-rendering="auto" vector-effect="non-scaling-stroke" style="stroke: transparent; fill: transparent; size: 4px; stroke-width: 1; stroke-linecap: round; stroke-linejoin: round;"></line><text dx="0" dy="4.97" x="590" y="203.41176470588235"><tspan x="590" dx="0" text-anchor="start" style="fill: rgb(153, 153, 153); font-size: 14px; font-family: inherit; stroke: transparent; letter-spacing: normal; padding: 8px; stroke-width: 0;">$100K</tspan></text></g><g role="presentation"><line x1="578" x2="15" y1="132.8235294117647" y2="132.8235294117647" role="presentation" shape-rendering="auto" vector-effect="non-scaling-stroke" style="stroke: rgb(226, 226, 226); fill: transparent; stroke-width: 1; stroke-linecap: round; stroke-linejoin: round; pointer-events: none;"></line><line x1="578" x2="582" y1="132.8235294117647" y2="132.8235294117647" role="presentation" shape-rendering="auto" vector-effect="non-scaling-stroke" style="stroke: transparent; fill: transparent; size: 4px; stroke-width: 1; stroke-linecap: round; stroke-linejoin: round;"></line><text dx="0" dy="4.97" x="590" y="132.8235294117647"><tspan x="590" dx="0" text-anchor="start" style="fill: rgb(153, 153, 153); font-size: 14px; font-family: inherit; stroke: transparent; letter-spacing: normal; padding: 8px; stroke-width: 0;">$150K</tspan></text></g><g role="presentation"><line x1="578" x2="15" y1="62.23529411764707" y2="62.23529411764707" role="presentation" shape-rendering="auto" vector-effect="non-scaling-stroke" style="stroke: rgb(226, 226, 226); fill: transparent; stroke-width: 1; stroke-linecap: round; stroke-linejoin: round; pointer-events: none;"></line><line x1="578" x2="582" y1="62.23529411764707" y2="62.23529411764707" role="presentation" shape-rendering="auto" vector-effect="non-scaling-stroke" style="stroke: transparent; fill: transparent; size: 4px; stroke-width: 1; stroke-linecap: round; stroke-linejoin: round;"></line><text dx="0" dy="4.97" x="590" y="62.23529411764707"><tspan x="590" dx="0" text-anchor="start" style="fill: rgb(153, 153, 153); font-size: 14px; font-family: inherit; stroke: transparent; letter-spacing: normal; padding: 8px; stroke-width: 0;">$200K</tspan></text></g></g><g style="height: 100%; width: 100%; user-select: none;"><defs><clipPath id="victory-clip-5"><rect x="15" y="34" width="563" height="240"></rect></clipPath></defs><g clip-path="url(#victory-clip-5)"><path shape-rendering="auto" role="presentation" d="M24.5528188286809,245.76470588235293C27.73709177157453,244.58823529411762,30.921364714468165,243.41176470588232,34.1056376573618,238.70588235294116C37.28991060025543,234,40.47418354314906,217.52941176470588,43.658456486042695,217.52941176470588C46.7400109469075,217.52941176470588,49.821565407772304,259.88235294117646,52.90311986863711,259.88235294117646C56.08739281153075,259.88235294117646,59.271665754424376,255.17647058823528,62.45593869731801,245.76470588235293C65.54177309493402,236.64389626818468,68.62760749255003,182.23529411764707,71.71344189016602,182.23529411764707C74.89771483305965,182.23529411764707,78.0819877759533,189.62,81.26626071884692,199.88235294117646C84.45053366174056,210.14470588235292,87.63480660463419,243.80941176470589,90.81907954752783,243.80941176470589C93.69519704433499,243.80941176470589,96.57131454114213,241.52941176470588,99.44743203794928,241.52941176470588C102.62742504409171,241.52941176470588,105.80741805023415,262.70588235294116,108.98741105637657,262.70588235294116C112.06896551724138,262.70588235294116,115.15051997810617,203.41176470588235,118.23207443897098,203.41176470588235C121.41634738186463,203.41176470588235,124.60062032475825,207.77847637415624,127.7848932676519,210.54117647058825C130.8664477285167,213.21475720907085,133.9480021893815,219.64705882352942,137.02955665024632,219.64705882352942C140.21382959313993,219.64705882352942,143.39810253603358,218.23529411764707,146.5823754789272,215.41176470588235C149.76664842182083,212.58823529411762,152.95092136471445,182.94117647058823,156.1351943076081,182.94117647058823C159.2167487684729,182.94117647058823,162.2983032293377,225.59764705882353,165.37985769020253,225.59764705882353C168.56413063309614,225.59764705882353,171.74840357598978,176.97647058823532,174.9326765188834,176.97647058823532C178.0185109164994,176.97647058823532,181.10434531411542,204.8235294117647,184.19017971173142,204.8235294117647C187.37445265462506,204.8235294117647,190.55872559751867,182.23529411764707,193.74299854041232,182.23529411764707C196.92727148330596,182.23529411764707,200.1115444261996,197.05882352941177,203.29581736909324,197.05882352941177C206.1719348659004,197.05882352941177,209.04805236270755,182.23529411764707,211.9241698595147,182.23529411764707C215.10416286565712,182.23529411764707,218.28415587179956,201.29411764705884,221.46414887794197,201.29411764705884C224.5457033388068,201.29411764705884,227.62725779967158,176.58823529411765,230.7088122605364,176.58823529411765C233.89308520343002,176.58823529411765,237.07735814632366,177.41176470588235,240.26163108921727,179.05882352941177C243.3431855500821,180.6527514231499,246.4247400109469,210.61176470588236,249.5062944718117,210.61176470588236C252.69056741470536,210.61176470588236,255.874840357599,163.88235294117646,259.05911330049264,163.88235294117646C262.2433862433863,163.88235294117646,265.42765918627987,180.8235294117647,268.6119321291735,180.8235294117647C271.69348659003833,180.8235294117647,274.7750410509031,158.94117647058823,277.8565955117679,158.94117647058823C281.04086845466156,158.94117647058823,284.22514139755515,191.41176470588235,287.4094143404488,191.41176470588235C290.4952487380648,191.41176470588235,293.58108313568084,178.28078126990087,296.66691753329684,173.83529411764704C299.8511904761905,169.24799530866392,303.03546341908407,164.58823529411765,306.2197363619777,164.58823529411765C309.40400930487135,164.58823529411765,312.588282247765,180.2539847600057,315.77255519065864,189.2941176470588C318.6486726874658,197.45939896439714,321.52479018427294,215.75976470588236,324.4009076810801,215.75976470588236C327.58090068722254,215.75976470588236,330.76089369336495,161.76470588235293,333.94088669950736,161.76470588235293C337.0224411603722,161.76470588235293,340.10399562123695,168.11764705882354,343.18555008210177,168.11764705882354C346.3698230249954,168.11764705882354,349.55409596788905,156.02661523625844,352.7383689107827,151.88235294117646C355.8199233716475,147.87177652658102,358.9014778325123,149.05882352941177,361.9830322933771,143.41176470588238C365.16730523627075,137.57647058823534,368.35157817916433,98.94117647058823,371.535851122058,98.94117647058823C374.7201240649516,98.94117647058823,377.90439700784526,170.94117647058823,381.0886699507389,170.94117647058823C384.1702244116037,170.94117647058823,387.2517788724685,106,390.3333333333333,106C393.51760627622696,106,396.7018792191206,146.94258823529412,399.88615216201424,146.94258823529412C402.97198655963024,146.94258823529412,406.0578209572463,141.76564705882353,409.1436553548623,131.41176470588235C412.32792829775593,120.7275920698377,415.5122012406495,77.76470588235296,418.69647418354316,77.76470588235296C421.8807471264368,77.76470588235296,425.0650200693304,158.23529411764707,428.24929301222403,158.23529411764707C431.22812899106003,158.23529411764707,434.206964969896,108.66823529411764,437.185800948732,108.66823529411764C440.3657939548744,108.66823529411764,443.54578696101686,112.48494117647057,446.72577996715927,120.11835294117645C449.8073344280241,127.51546797561558,452.8888888888889,161.2,455.97044334975374,161.2C459.1547162926473,161.2,462.33898923554096,132.8235294117647,465.52326217843455,132.8235294117647C468.6048166392994,132.8235294117647,471.6863711001642,148.35294117647058,474.767925561029,148.35294117647058C477.95219850392266,148.35294117647058,481.1364714468163,132.8235294117647,484.32074438970994,132.8235294117647C487.50501733260353,132.8235294117647,490.68929027549717,139.88235294117646,493.87356321839076,139.88235294117646C496.9551176792556,139.88235294117646,500.0366721401204,120.11764705882351,503.1182266009852,120.11764705882351C506.3024995438788,120.11764705882351,509.48677248677245,125.76470588235293,512.671045429666,125.76470588235293C515.7568798272821,125.76470588235293,518.8427142248981,104.58823529411762,521.9285486225142,104.58823529411762C525.1128215654078,104.58823529411762,528.2970945083015,133.56470588235294,531.4813674511951,133.56470588235294C534.6656403940887,133.56470588235294,537.8499133369824,63.03858823529413,541.0341862798759,63.03858823529413C543.9103037766831,63.03858823529413,546.7864212734902,125.76470588235293,549.6625387702974,125.76470588235293C552.8425317764398,125.76470588235293,556.0225247825822,98.65987119983556,559.2025177887247,83.41176470588238C562.2840722495895,68.63567227567194,565.3656267104543,35.89882352941177,568.4471811713191,35.89882352941177C571.6314541142127,35.89882352941177,574.8157270571064,73.77294117647058,578,111.64705882352939" style="fill: transparent; stroke: rgb(51, 51, 51); stroke-width: 2; opacity: 1;"></path></g></g></svg>