<svg xmlns="http://www.w3.org/2000/svg" width="640" height="324" role="img" aria-labelledby="victory-container-4-title victory-container-4-desc" viewBox="0 0 640 324" style="pointer-events: all; width: 100%; height: 100%;"><g role="presentation"><line x1="15" x2="578" y1="274" y2="274" role="presentation" shape-rendering="auto" vector-effect="non-scaling-stroke" style="stroke: rgb(226, 226, 226); fill: transparent; stroke-width: 1; stroke-linejoin: round;"></line><g role="presentation"><line x1="81.26626071884692" x2="81.26626071884692" y1="274" y2="34" role="presentation" shape-rendering="auto" vector-effect="non-scaling-stroke" style="stroke: transparent; fill: transparent; stroke-width: 1; stroke-linecap: round; stroke-linejoin: round; pointer-events: none;"></line><line x1="81.26626071884692" x2="81.26626071884692" y1="274" y2="278" role="presentation" shape-rendering="auto" vector-effect="non-scaling-stroke" style="stroke: transparent; fill: transparent; size: 4px; stroke-width: 1; stroke-linecap: round; stroke-linejoin: round;"></line><text dx="0" dy="11.969999999999999" x="81.26626071884692" y="286"><tspan x="81.26626071884692" dx="0" text-anchor="middle" style="fill: rgb(153, 153, 153); font-size: 14px; font-family: inherit; stroke: transparent; letter-spacing: normal; padding: 8px; stroke-width: 0;">2017</tspan></text></g><g role="presentation"><line x1="193.74299854041232" x2="193.74299854041232" y1="274" y2="34" role="presentation" shape-rendering="auto" vector-effect="non-scaling-stroke" style="stroke: transparent; fill: transparent; stroke-width: 1; stroke-linecap: round; stroke-linejoin: round; pointer-events: none;"></line><line x1="193.74299854041232" x2="193.74299854041232" y1="274" y2="278" role="presentation" shape-rendering="auto" vector-effect="non-scaling-stroke" style="stroke: transparent; fill: transparent; size: 4px; stroke-width: 1; stroke-linecap: round; stroke-linejoin: round;"></line><text dx="0" dy="11.969999999999999" x="193.74299854041232" y="286"><tspan x="193.74299854041232" dx="0" text-anchor="middle" style="fill: rgb(153, 153, 153); font-size: 14px; font-family: inherit; stroke: transparent; letter-spacing: normal; padding: 8px; stroke-width: 0;">2018</tspan></text></g><g role="presentation"><line x1="306.2197363619777" x2="306.2197363619777" y1="274" y2="34" role="presentation" shape-rendering="auto" vector-effect="non-scaling-stroke" style="stroke: transparent; fill: transparent; stroke-width: 1; stroke-linecap: round; stroke-linejoin: round; pointer-events: none;"></line><line x1="306.2197363619777" x2="306.2197363619777" y1="274" y2="278" role="presentation" shape-rendering="auto" vector-effect="non-scaling-stroke" style="stroke: transparent; fill: transparent; size: 4px; stroke-width: 1; stroke-linecap: round; stroke-linejoin: round;"></line><text dx="0" dy="11.969999999999999" x="306.2197363619777" y="286"><tspan x="306.2197363619777" dx="0" text-anchor="middle" style="fill: rgb(153, 153, 153); font-size: 14px; font-family: inherit; stroke: transparent; letter-spacing: normal; padding: 8px; stroke-width: 0;">2019</tspan></text></g><g role="presentation"><line x1="418.69647418354316" x2="418.69647418354316" y1="274" y2="34" role="presentation" shape-rendering="auto" vector-effect="non-scaling-stroke" style="stroke: transparent; fill: transparent; stroke-width: 1; stroke-linecap: round; stroke-linejoin: round; pointer-events: none;"></line><line x1="418.69647418354316" x2="418.69647418354316" y1="274" y2="278" role="presentation" shape-rendering="auto" vector-effect="non-scaling-stroke" style="stroke: transparent; fill: transparent; size: 4px; stroke-width: 1; stroke-linecap: round; stroke-linejoin: round;"></line><text dx="0" dy="11.969999999999999" x="418.69647418354316" y="286"><tspan x="418.69647418354316" dx="0" text-anchor="middle" style="fill: rgb(153, 153, 153); font-size: 14px; font-family: inherit; stroke: transparent; letter-spacing: normal; padding: 8px; stroke-width: 0;">2020</tspan></text></g><g role="presentation"><line x1="531.4813674511951" x2="531.4813674511951" y1="274" y2="34" role="presentation" shape-rendering="auto" vector-effect="non-scaling-stroke" style="stroke: transparent; fill: transparent; stroke-width: 1; stroke-linecap: round; stroke-linejoin: round; pointer-events: none;"></line><line x1="531.4813674511951" x2="531.4813674511951" y1="274" y2="278" role="presentation" shape-rendering="auto" vector-effect="non-scaling-stroke" style="stroke: transparent; fill: transparent; size: 4px; stroke-width: 1; stroke-linecap: round; stroke-linejoin: round;"></line><text dx="0" dy="11.969999999999999" x="531.4813674511951" y="286"><tspan x="531.4813674511951" dx="0" text-anchor="middle" style="fill: rgb(153, 153, 153); font-size: 14px; font-family: inherit; stroke: transparent; letter-spacing: normal; padding: 8px; stroke-width: 0;">2021</tspan></text></g></g><g role="presentation"><line x1="578" x2="578" y1="34" y2="274" role="presentation" shape-rendering="auto" vector-effect="non-scaling-stroke" style="stroke: transparent; fill: transparent; stroke-width: 1; stroke-linejoin: round;"></line><g role="presentation"><line x1="578" x2="15" y1="250" y2="250" role="presentation" shape-rendering="auto" vector-effect="non-scaling-stroke" style="stroke: rgb(226, 226, 226); fill: transparent; stroke-width: 1; stroke-linecap: round; stroke-linejoin: round; pointer-events: none;"></line><line x1="578" x2="582" y1="250" y2="250" role="presentation" shape-rendering="auto" vector-effect="non-scaling-stroke" style="stroke: transparent; fill: transparent; size: 4px; stroke-width: 1; stroke-linecap: round; stroke-linejoin: round;"></line><text dx="0" dy="4.97" x="590" y="250"><tspan x="590" dx="0" text-anchor="start" style="fill: rgb(153, 153, 153); font-size: 14px; font-family: inherit; stroke: transparent; letter-spacing: normal; padding: 8px; stroke-width: 0;">$100K</tspan></text></g><g role="presentation"><line x1="578" x2="15" y1="202" y2="202" role="presentation" shape-rendering="auto" vector-effect="non-scaling-stroke" style="stroke: rgb(226, 226, 226); fill: transparent; stroke-width: 1; stroke-linecap: round; stroke-linejoin: round; pointer-events: none;"></line><line x1="578" x2="582" y1="202" y2="202" role="presentation" shape-rendering="auto" vector-effect="non-scaling-stroke" style="stroke: transparent; fill: transparent; size: 4px; stroke-width: 1; stroke-linecap: round; stroke-linejoin: round;"></line><text dx="0" dy="4.97" x="590" y="202"><tspan x="590" dx="0" text-anchor="start" style="fill: rgb(153, 153, 153); font-size: 14px; font-family: inherit; stroke: transparent; letter-spacing: normal; padding: 8px; stroke-width: 0;">$120K</tspan></text></g><g role="presentation"><line x1="578" x2="15" y1="154" y2="154" role="presentation" shape-rendering="auto" vector-effect="non-scaling-stroke" style="stroke: rgb(226, 226, 226); fill: transparent; stroke-width: 1; stroke-linecap: round; stroke-linejoin: round; pointer-events: none;"></line><line x1="578" x2="582" y1="154" y2="154" role="presentation" shape-rendering="auto" vector-effect="non-scaling-stroke" style="stroke: transparent; fill: transparent; size: 4px; stroke-width: 1; stroke-linecap: round; stroke-linejoin: round;"></line><text dx="0" dy="4.97" x="590" y="154"><tspan x="590" dx="0" text-anchor="start" style="fill: rgb(153, 153, 153); font-size: 14px; font-family: inherit; stroke: transparent; letter-spacing: normal; padding: 8px; stroke-width: 0;">$140K</tspan></text></g><g role="presentation"><line x1="578" x2="15" y1="106" y2="106" role="presentation" shape-rendering="auto" vector-effect="non-scaling-stroke" style="stroke: rgb(226, 226, 226); fill: transparent; stroke-width: 1; stroke-linecap: round; stroke-linejoin: round; pointer-events: none;"></line><line x1="578" x2="582" y1="106" y2="106" role="presentation" shape-rendering="auto" vector-effect="non-scaling-stroke" style="stroke: transparent; fill: transparent; size: 4px; stroke-width: 1; stroke-linecap: round; stroke-linejoin: round;"></line><text dx="0" dy="4.97" x="590" y="106"><tspan x="590" dx="0" text-anchor="start" style="fill: rgb(153, 153, 153); font-size: 14px; font-family: inherit; stroke: transparent; letter-spacing: normal; padding: 8px; stroke-width: 0;">$160K</tspan></text></g><g role="presentation"><line x1="578" x2="15" y1="58" y2="58" role="presentation" shape-rendering="auto" vector-effect="non-scaling-stroke" style="stroke: rgb(226, 226, 226); fill: transparent; stroke-width: 1; stroke-linecap: round; stroke-linejoin: round; pointer-events: none;"></line><line x1="578" x2="582" y1="58" y2="58" role="presentation" shape-rendering="auto" vector-effect="non-scaling-stroke" style="stroke: transparent; fill: transparent; size: 4px; stroke-width: 1; stroke-linecap: round; stroke-linejoin: round;"></line><text dx="0" dy="4.97" x="590" y="58"><tspan x="590" dx="0" text-anchor="start" style="fill: rgb(153, 153, 153); font-size: 14px; font-family: inherit; stroke: transparent; letter-spacing: normal; padding: 8px; stroke-width: 0;">$180K</tspan></text></g></g><g style="height: 100%; width: 100%; user-select: none;"><defs><clipPath id="victory-clip-5"><rect x="15" y="34" width="563" height="240"></rect></clipPath></defs><g clip-path="url(#victory-clip-5)"><path shape-rendering="auto" role="presentation" d="M24.5528188286809,192.39999999999998C27.73709177157453,191.6,30.921364714468165,190.79999999999998,34.1056376573618,187.60000000000002C37.28991060025543,184.40000000000006,40.47418354314906,164.2,43.658456486042695,164.2C46.7400109469075,164.2,49.821565407772304,179.91824431517716,52.90311986863711,190C56.08739281153075,200.41781420765028,59.271665754424376,226,62.45593869731801,226C65.54177309493402,226,68.62760749255003,158.8,71.71344189016602,158.8C74.89771483305965,158.8,78.0819877759533,262,81.26626071884692,262C84.45053366174056,262,87.63480660463419,168.4,90.81907954752783,168.4C93.69519704433499,168.4,96.57131454114213,252.1,99.44743203794928,252.1C102.62742504409171,252.1,105.80741805023415,185.24277777777775,108.98741105637657,177.39999999999998C112.06896551724138,169.79999999999998,115.15051997810617,168.69264939185615,118.23207443897098,166C121.41634738186463,163.2175956284153,124.60062032475825,161.2,127.7848932676519,161.2C130.8664477285167,161.2,133.9480021893815,185.2,137.02955665024632,185.2C140.21382959313993,185.2,143.39810253603358,185.2,146.5823754789272,185.2C149.76664842182083,185.2,152.95092136471445,202,156.1351943076081,202C159.2167487684729,202,162.2983032293377,158.34563722897937,165.37985769020253,144.39999999999998C168.56413063309614,129.98950819672135,171.74840357598978,118,174.9326765188834,118C178.0185109164994,118,181.10434531411542,190,184.19017971173142,190C187.37445265462506,190,190.55872559751867,186.4,193.74299854041232,179.2C196.92727148330596,171.99999999999997,200.1115444261996,130,203.29581736909324,130C206.1719348659004,130,209.04805236270755,133.2,211.9241698595147,139.6C215.10416286565712,146.67619047619044,218.28415587179956,182.8,221.46414887794197,182.8C224.5457033388068,182.8,227.62725779967158,161.2,230.7088122605364,161.2C233.89308520343002,161.2,237.07735814632366,163.6,240.26163108921727,163.6C243.3431855500821,163.6,246.4247400109469,130,249.5062944718117,130C252.69056741470536,130,255.874840357599,157.60000000000002,259.05911330049264,157.60000000000002C262.2433862433863,157.60000000000002,265.42765918627987,130.62,268.6119321291735,130C271.69348659003833,129.4,274.7750410509031,129.1,277.8565955117679,129.1C281.04086845466156,129.1,284.22514139755515,142,287.4094143404488,142C290.4952487380648,142,293.58108313568084,142,296.66691753329684,142C299.8511904761905,142,303.03546341908407,210.4,306.2197363619777,210.4C309.40400930487135,210.4,312.588282247765,121.09085714285713,315.77255519065864,115.19200000000001C318.6486726874658,109.86400000000002,321.52479018427294,107.20000000000002,324.4009076810801,107.20000000000002C327.58090068722254,107.20000000000002,330.76089369336495,130,333.94088669950736,130C337.0224411603722,130,340.10399562123695,106,343.18555008210177,106C346.3698230249954,106,349.55409596788905,160.60000000000002,352.7383689107827,160.60000000000002C355.8199233716475,160.60000000000002,358.9014778325123,128.64315177154944,361.9830322933771,118C365.16730523627075,107.00207650273227,368.35157817916433,96.4,371.535851122058,96.4C374.7201240649516,96.4,377.90439700784526,98.86974863387978,381.0886699507389,103.60000000000002C384.1702244116037,108.17766261237443,387.2517788724685,123.88000000000002,390.3333333333333,123.88000000000002C393.51760627622696,123.88000000000002,396.7018792191206,121.52000000000001,399.88615216201424,116.79999999999998C402.97198655963024,112.22591397849457,406.0578209572463,83.19999999999999,409.1436553548623,83.19999999999999C412.32792829775593,83.19999999999999,415.5122012406495,95.19999999999999,418.69647418354316,95.19999999999999C421.8807471264368,95.19999999999999,425.0650200693304,94,428.24929301222403,94C431.22812899106003,94,434.206964969896,97.2,437.185800948732,103.60000000000002C440.3657939548744,110.432183908046,443.54578696101686,142.6,446.72577996715927,142.6C449.8073344280241,142.6,452.8888888888889,60.639999999999986,455.97044334975374,60.639999999999986C459.1547162926473,60.639999999999986,462.33898923554096,110.79999999999998,465.52326217843455,110.79999999999998C468.6048166392994,110.79999999999998,471.6863711001642,76,474.767925561029,76C477.95219850392266,76,481.1364714468163,142,484.32074438970994,142C487.50501733260353,142,490.68929027549717,76,493.87356321839076,76C496.9551176792556,76,500.0366721401204,80.54701216287671,503.1182266009852,85.6C506.3024995438788,90.82142076502731,509.48677248677245,107.20000000000002,512.671045429666,107.20000000000002C515.7568798272821,107.20000000000002,518.8427142248981,86.28094395390664,521.9285486225142,77.20000000000002C525.1128215654078,67.82937267447102,528.2970945083015,52.024,531.4813674511951,52.024C534.6656403940887,52.024,537.8499133369824,72.4,541.0341862798759,72.4C543.9103037766831,72.4,546.7864212734902,71.60000000000001,549.6625387702974,70C552.8425317764398,68.23095238095237,556.0225247825822,35.19999999999999,559.2025177887247,35.19999999999999C562.2840722495895,35.19999999999999,565.3656267104543,60.400000000000006,568.4471811713191,60.400000000000006C571.6314541142127,60.400000000000006,574.8157270571064,50.2,578,40" style="fill: transparent; stroke: rgb(51, 51, 51); stroke-width: 2; opacity: 1;"></path></g></g></svg>