<svg xmlns="http://www.w3.org/2000/svg" width="640" height="324" role="img" aria-labelledby="victory-container-1-title victory-container-1-desc" viewBox="0 0 640 324" style="pointer-events: all; width: 100%; height: 100%;"><g role="presentation"><line x1="15" x2="578" y1="274" y2="274" role="presentation" shape-rendering="auto" vector-effect="non-scaling-stroke" style="stroke: rgb(226, 226, 226); fill: transparent; stroke-width: 1; stroke-linejoin: round;"></line><g role="presentation"><line x1="81.26626071884692" x2="81.26626071884692" y1="274" y2="34" role="presentation" shape-rendering="auto" vector-effect="non-scaling-stroke" style="stroke: transparent; fill: transparent; stroke-width: 1; stroke-linecap: round; stroke-linejoin: round; pointer-events: none;"></line><line x1="81.26626071884692" x2="81.26626071884692" y1="274" y2="278" role="presentation" shape-rendering="auto" vector-effect="non-scaling-stroke" style="stroke: transparent; fill: transparent; size: 4px; stroke-width: 1; stroke-linecap: round; stroke-linejoin: round;"></line><text dx="0" dy="11.969999999999999" x="81.26626071884692" y="286"><tspan x="81.26626071884692" dx="0" text-anchor="middle" style="fill: rgb(153, 153, 153); font-size: 14px; font-family: inherit; stroke: transparent; letter-spacing: normal; padding: 8px; stroke-width: 0;">2017</tspan></text></g><g role="presentation"><line x1="193.74299854041232" x2="193.74299854041232" y1="274" y2="34" role="presentation" shape-rendering="auto" vector-effect="non-scaling-stroke" style="stroke: transparent; fill: transparent; stroke-width: 1; stroke-linecap: round; stroke-linejoin: round; pointer-events: none;"></line><line x1="193.74299854041232" x2="193.74299854041232" y1="274" y2="278" role="presentation" shape-rendering="auto" vector-effect="non-scaling-stroke" style="stroke: transparent; fill: transparent; size: 4px; stroke-width: 1; stroke-linecap: round; stroke-linejoin: round;"></line><text dx="0" dy="11.969999999999999" x="193.74299854041232" y="286"><tspan x="193.74299854041232" dx="0" text-anchor="middle" style="fill: rgb(153, 153, 153); font-size: 14px; font-family: inherit; stroke: transparent; letter-spacing: normal; padding: 8px; stroke-width: 0;">2018</tspan></text></g><g role="presentation"><line x1="306.2197363619777" x2="306.2197363619777" y1="274" y2="34" role="presentation" shape-rendering="auto" vector-effect="non-scaling-stroke" style="stroke: transparent; fill: transparent; stroke-width: 1; stroke-linecap: round; stroke-linejoin: round; pointer-events: none;"></line><line x1="306.2197363619777" x2="306.2197363619777" y1="274" y2="278" role="presentation" shape-rendering="auto" vector-effect="non-scaling-stroke" style="stroke: transparent; fill: transparent; size: 4px; stroke-width: 1; stroke-linecap: round; stroke-linejoin: round;"></line><text dx="0" dy="11.969999999999999" x="306.2197363619777" y="286"><tspan x="306.2197363619777" dx="0" text-anchor="middle" style="fill: rgb(153, 153, 153); font-size: 14px; font-family: inherit; stroke: transparent; letter-spacing: normal; padding: 8px; stroke-width: 0;">2019</tspan></text></g><g role="presentation"><line x1="418.69647418354316" x2="418.69647418354316" y1="274" y2="34" role="presentation" shape-rendering="auto" vector-effect="non-scaling-stroke" style="stroke: transparent; fill: transparent; stroke-width: 1; stroke-linecap: round; stroke-linejoin: round; pointer-events: none;"></line><line x1="418.69647418354316" x2="418.69647418354316" y1="274" y2="278" role="presentation" shape-rendering="auto" vector-effect="non-scaling-stroke" style="stroke: transparent; fill: transparent; size: 4px; stroke-width: 1; stroke-linecap: round; stroke-linejoin: round;"></line><text dx="0" dy="11.969999999999999" x="418.69647418354316" y="286"><tspan x="418.69647418354316" dx="0" text-anchor="middle" style="fill: rgb(153, 153, 153); font-size: 14px; font-family: inherit; stroke: transparent; letter-spacing: normal; padding: 8px; stroke-width: 0;">2020</tspan></text></g><g role="presentation"><line x1="531.4813674511951" x2="531.4813674511951" y1="274" y2="34" role="presentation" shape-rendering="auto" vector-effect="non-scaling-stroke" style="stroke: transparent; fill: transparent; stroke-width: 1; stroke-linecap: round; stroke-linejoin: round; pointer-events: none;"></line><line x1="531.4813674511951" x2="531.4813674511951" y1="274" y2="278" role="presentation" shape-rendering="auto" vector-effect="non-scaling-stroke" style="stroke: transparent; fill: transparent; size: 4px; stroke-width: 1; stroke-linecap: round; stroke-linejoin: round;"></line><text dx="0" dy="11.969999999999999" x="531.4813674511951" y="286"><tspan x="531.4813674511951" dx="0" text-anchor="middle" style="fill: rgb(153, 153, 153); font-size: 14px; font-family: inherit; stroke: transparent; letter-spacing: normal; padding: 8px; stroke-width: 0;">2021</tspan></text></g></g><g role="presentation"><line x1="578" x2="578" y1="34" y2="274" role="presentation" shape-rendering="auto" vector-effect="non-scaling-stroke" style="stroke: transparent; fill: transparent; stroke-width: 1; stroke-linejoin: round;"></line><g role="presentation"><line x1="578" x2="15" y1="274" y2="274" role="presentation" shape-rendering="auto" vector-effect="non-scaling-stroke" style="stroke: rgb(226, 226, 226); fill: transparent; stroke-width: 1; stroke-linecap: round; stroke-linejoin: round; pointer-events: none;"></line><line x1="578" x2="582" y1="274" y2="274" role="presentation" shape-rendering="auto" vector-effect="non-scaling-stroke" style="stroke: transparent; fill: transparent; size: 4px; stroke-width: 1; stroke-linecap: round; stroke-linejoin: round;"></line><text dx="0" dy="4.97" x="590" y="274"><tspan x="590" dx="0" text-anchor="start" style="fill: rgb(153, 153, 153); font-size: 14px; font-family: inherit; stroke: transparent; letter-spacing: normal; padding: 8px; stroke-width: 0;">$300K</tspan></text></g><g role="presentation"><line x1="578" x2="15" y1="226" y2="226" role="presentation" shape-rendering="auto" vector-effect="non-scaling-stroke" style="stroke: rgb(226, 226, 226); fill: transparent; stroke-width: 1; stroke-linecap: round; stroke-linejoin: round; pointer-events: none;"></line><line x1="578" x2="582" y1="226" y2="226" role="presentation" shape-rendering="auto" vector-effect="non-scaling-stroke" style="stroke: transparent; fill: transparent; size: 4px; stroke-width: 1; stroke-linecap: round; stroke-linejoin: round;"></line><text dx="0" dy="4.97" x="590" y="226"><tspan x="590" dx="0" text-anchor="start" style="fill: rgb(153, 153, 153); font-size: 14px; font-family: inherit; stroke: transparent; letter-spacing: normal; padding: 8px; stroke-width: 0;">$400K</tspan></text></g><g role="presentation"><line x1="578" x2="15" y1="178" y2="178" role="presentation" shape-rendering="auto" vector-effect="non-scaling-stroke" style="stroke: rgb(226, 226, 226); fill: transparent; stroke-width: 1; stroke-linecap: round; stroke-linejoin: round; pointer-events: none;"></line><line x1="578" x2="582" y1="178" y2="178" role="presentation" shape-rendering="auto" vector-effect="non-scaling-stroke" style="stroke: transparent; fill: transparent; size: 4px; stroke-width: 1; stroke-linecap: round; stroke-linejoin: round;"></line><text dx="0" dy="4.97" x="590" y="178"><tspan x="590" dx="0" text-anchor="start" style="fill: rgb(153, 153, 153); font-size: 14px; font-family: inherit; stroke: transparent; letter-spacing: normal; padding: 8px; stroke-width: 0;">$500K</tspan></text></g><g role="presentation"><line x1="578" x2="15" y1="130" y2="130" role="presentation" shape-rendering="auto" vector-effect="non-scaling-stroke" style="stroke: rgb(226, 226, 226); fill: transparent; stroke-width: 1; stroke-linecap: round; stroke-linejoin: round; pointer-events: none;"></line><line x1="578" x2="582" y1="130" y2="130" role="presentation" shape-rendering="auto" vector-effect="non-scaling-stroke" style="stroke: transparent; fill: transparent; size: 4px; stroke-width: 1; stroke-linecap: round; stroke-linejoin: round;"></line><text dx="0" dy="4.97" x="590" y="130"><tspan x="590" dx="0" text-anchor="start" style="fill: rgb(153, 153, 153); font-size: 14px; font-family: inherit; stroke: transparent; letter-spacing: normal; padding: 8px; stroke-width: 0;">$600K</tspan></text></g><g role="presentation"><line x1="578" x2="15" y1="82" y2="82" role="presentation" shape-rendering="auto" vector-effect="non-scaling-stroke" style="stroke: rgb(226, 226, 226); fill: transparent; stroke-width: 1; stroke-linecap: round; stroke-linejoin: round; pointer-events: none;"></line><line x1="578" x2="582" y1="82" y2="82" role="presentation" shape-rendering="auto" vector-effect="non-scaling-stroke" style="stroke: transparent; fill: transparent; size: 4px; stroke-width: 1; stroke-linecap: round; stroke-linejoin: round;"></line><text dx="0" dy="4.97" x="590" y="82"><tspan x="590" dx="0" text-anchor="start" style="fill: rgb(153, 153, 153); font-size: 14px; font-family: inherit; stroke: transparent; letter-spacing: normal; padding: 8px; stroke-width: 0;">$700K</tspan></text></g><g role="presentation"><line x1="578" x2="15" y1="34" y2="34" role="presentation" shape-rendering="auto" vector-effect="non-scaling-stroke" style="stroke: rgb(226, 226, 226); fill: transparent; stroke-width: 1; stroke-linecap: round; stroke-linejoin: round; pointer-events: none;"></line><line x1="578" x2="582" y1="34" y2="34" role="presentation" shape-rendering="auto" vector-effect="non-scaling-stroke" style="stroke: transparent; fill: transparent; size: 4px; stroke-width: 1; stroke-linecap: round; stroke-linejoin: round;"></line><text dx="0" dy="4.97" x="590" y="34"><tspan x="590" dx="0" text-anchor="start" style="fill: rgb(153, 153, 153); font-size: 14px; font-family: inherit; stroke: transparent; letter-spacing: normal; padding: 8px; stroke-width: 0;">$800K</tspan></text></g></g><g style="height: 100%; width: 100%; user-select: none;"><defs><clipPath id="victory-clip-2"><rect x="15" y="34" width="563" height="240"></rect></clipPath></defs><g clip-path="url(#victory-clip-2)"><path shape-rendering="auto" role="presentation" d="M24.5528188286809,159.952C27.73709177157453,126.376,30.921364714468165,92.80000000000001,34.1056376573618,92.80000000000001C37.28991060025543,92.80000000000001,40.47418354314906,163.6,43.658456486042695,163.6C46.7400109469075,163.6,49.821565407772304,142,52.90311986863711,142C56.08739281153075,142,59.271665754424376,161.2,62.45593869731801,161.2C65.54177309493402,161.2,68.62760749255003,130.048,71.71344189016602,130.048C74.89771483305965,130.048,78.0819877759533,168.72000000000003,81.26626071884692,173.92000000000002C84.45053366174056,179.12,87.63480660463419,181.72,90.81907954752783,181.72C93.69519704433499,181.72,96.57131454114213,140.79999999999998,99.44743203794928,140.79999999999998C102.62742504409171,140.79999999999998,105.80741805023415,161.32811027379051,108.98741105637657,169.32999999999998C112.06896551724138,177.0841865449136,115.15051997810617,188.344,118.23207443897098,188.344C121.41634738186463,188.344,124.60062032475825,167.92000000000002,127.7848932676519,167.92000000000002C130.8664477285167,167.92000000000002,133.9480021893815,192.39999999999998,137.02955665024632,192.39999999999998C140.21382959313993,192.39999999999998,143.39810253603358,150.32,146.5823754789272,149.2C149.76664842182083,148.07999999999998,152.95092136471445,147.51999999999998,156.1351943076081,147.51999999999998C159.2167487684729,147.51999999999998,162.2983032293377,235.72,165.37985769020253,235.72C168.56413063309614,235.72,171.74840357598978,168.22690256706412,174.9326765188834,147.76C178.0185109164994,127.92581081874557,181.10434531411542,113.19999999999999,184.19017971173142,113.19999999999999C187.37445265462506,113.19999999999999,190.55872559751867,121.19999999999999,193.74299854041232,137.20000000000002C196.92727148330596,153.20000000000007,200.1115444261996,213.76,203.29581736909324,213.76C206.1719348659004,213.76,209.04805236270755,142.048,211.9241698595147,142.048C215.10416286565712,142.048,218.28415587179956,158.8,221.46414887794197,158.8C224.5457033388068,158.8,227.62725779967158,154.024,230.7088122605364,154.024C233.89308520343002,154.024,237.07735814632366,168.4,240.26163108921727,168.4C243.3431855500821,168.4,246.4247400109469,154,249.5062944718117,154C252.69056741470536,154,255.874840357599,219.76,259.05911330049264,219.76C262.2433862433863,219.76,265.42765918627987,172.613018579235,268.6119321291735,157.60000000000002C271.69348659003833,143.07127234267583,274.7750410509031,137.65467583289265,277.8565955117679,130.048C281.04086845466156,122.18776830601094,284.22514139755515,111.51999999999998,287.4094143404488,111.51999999999998C290.4952487380648,111.51999999999998,293.58108313568084,112,296.66691753329684,112C299.8511904761905,112,303.03546341908407,54.879999999999995,306.2197363619777,54.879999999999995C309.40400930487135,54.879999999999995,312.588282247765,131.0357142857143,315.77255519065864,134.8C318.6486726874658,138.20000000000002,321.52479018427294,136.5,324.4009076810801,139.9C327.58090068722254,143.65922619047615,330.76089369336495,238,333.94088669950736,238C337.0224411603722,238,340.10399562123695,72.4,343.18555008210177,72.4C346.3698230249954,72.4,349.55409596788905,146.8,352.7383689107827,146.8C355.8199233716475,146.8,358.9014778325123,89.91999999999999,361.9830322933771,89.91999999999999C365.16730523627075,89.91999999999999,368.35157817916433,148.95999999999998,371.535851122058,148.95999999999998C374.7201240649516,148.95999999999998,377.90439700784526,127.6,381.0886699507389,127.6C384.1702244116037,127.6,387.2517788724685,140.86908514013754,390.3333333333333,152.56C393.51760627622696,164.64061202185795,396.7018792191206,199.6,399.88615216201424,199.6C402.97198655963024,199.6,406.0578209572463,198.4,409.1436553548623,196C412.32792829775593,193.523439667129,415.5122012406495,168.4,418.69647418354316,168.4C421.8807471264368,168.4,425.0650200693304,188.32,428.24929301222403,188.32C431.22812899106003,188.32,434.206964969896,167.71181847720257,437.185800948732,154.864C440.3657939548744,141.14858458540016,443.54578696101686,107.92000000000002,446.72577996715927,107.92000000000002C449.8073344280241,107.92000000000002,452.8888888888889,156.3406874669487,455.97044334975374,170.8C459.1547162926473,185.74128961748613,462.33898923554096,194.8,465.52326217843455,194.8C468.6048166392994,194.8,471.6863711001642,139,474.767925561029,139C477.95219850392266,139,481.1364714468163,150.39999999999998,484.32074438970994,150.39999999999998C487.50501733260353,150.39999999999998,490.68929027549717,132.8824,493.87356321839076,132.8824C496.9551176792556,132.8824,500.0366721401204,166.98399999999998,503.1182266009852,166.98399999999998C506.3024995438788,166.98399999999998,509.48677248677245,118.024,512.671045429666,118.024C515.7568798272821,118.024,518.8427142248981,118.17392,521.9285486225142,118.47376C525.1128215654078,118.78316493758668,528.2970945083015,128.8,531.4813674511951,128.8C534.6656403940887,128.8,537.8499133369824,119.897660968523,541.0341862798759,113.46472C543.9103037766831,107.6543217058502,546.7864212734902,92.80000000000001,549.6625387702974,92.80000000000001C552.8425317764398,92.80000000000001,556.0225247825822,180.39999999999998,559.2025177887247,180.39999999999998C562.2840722495895,180.39999999999998,565.3656267104543,151.21058064516131,568.4471811713191,146.488C571.6314541142127,141.608,574.8157270571064,140.388,578,139.168" style="fill: transparent; stroke: rgb(51, 51, 51); stroke-width: 2; opacity: 1;"></path></g></g></svg>