<svg xmlns="http://www.w3.org/2000/svg" width="640" height="324" role="img" aria-labelledby="victory-container-4-title victory-container-4-desc" viewBox="0 0 640 324" style="pointer-events: all; width: 100%; height: 100%;"><g role="presentation"><line x1="15" x2="578" y1="274" y2="274" role="presentation" shape-rendering="auto" vector-effect="non-scaling-stroke" style="stroke: rgb(226, 226, 226); fill: transparent; stroke-width: 1; stroke-linejoin: round;"></line><g role="presentation"><line x1="81.26626071884692" x2="81.26626071884692" y1="274" y2="34" role="presentation" shape-rendering="auto" vector-effect="non-scaling-stroke" style="stroke: transparent; fill: transparent; stroke-width: 1; stroke-linecap: round; stroke-linejoin: round; pointer-events: none;"></line><line x1="81.26626071884692" x2="81.26626071884692" y1="274" y2="278" role="presentation" shape-rendering="auto" vector-effect="non-scaling-stroke" style="stroke: transparent; fill: transparent; size: 4px; stroke-width: 1; stroke-linecap: round; stroke-linejoin: round;"></line><text dx="0" dy="11.969999999999999" x="81.26626071884692" y="286"><tspan x="81.26626071884692" dx="0" text-anchor="middle" style="fill: rgb(153, 153, 153); font-size: 14px; font-family: inherit; stroke: transparent; letter-spacing: normal; padding: 8px; stroke-width: 0;">2017</tspan></text></g><g role="presentation"><line x1="193.74299854041232" x2="193.74299854041232" y1="274" y2="34" role="presentation" shape-rendering="auto" vector-effect="non-scaling-stroke" style="stroke: transparent; fill: transparent; stroke-width: 1; stroke-linecap: round; stroke-linejoin: round; pointer-events: none;"></line><line x1="193.74299854041232" x2="193.74299854041232" y1="274" y2="278" role="presentation" shape-rendering="auto" vector-effect="non-scaling-stroke" style="stroke: transparent; fill: transparent; size: 4px; stroke-width: 1; stroke-linecap: round; stroke-linejoin: round;"></line><text dx="0" dy="11.969999999999999" x="193.74299854041232" y="286"><tspan x="193.74299854041232" dx="0" text-anchor="middle" style="fill: rgb(153, 153, 153); font-size: 14px; font-family: inherit; stroke: transparent; letter-spacing: normal; padding: 8px; stroke-width: 0;">2018</tspan></text></g><g role="presentation"><line x1="306.2197363619777" x2="306.2197363619777" y1="274" y2="34" role="presentation" shape-rendering="auto" vector-effect="non-scaling-stroke" style="stroke: transparent; fill: transparent; stroke-width: 1; stroke-linecap: round; stroke-linejoin: round; pointer-events: none;"></line><line x1="306.2197363619777" x2="306.2197363619777" y1="274" y2="278" role="presentation" shape-rendering="auto" vector-effect="non-scaling-stroke" style="stroke: transparent; fill: transparent; size: 4px; stroke-width: 1; stroke-linecap: round; stroke-linejoin: round;"></line><text dx="0" dy="11.969999999999999" x="306.2197363619777" y="286"><tspan x="306.2197363619777" dx="0" text-anchor="middle" style="fill: rgb(153, 153, 153); font-size: 14px; font-family: inherit; stroke: transparent; letter-spacing: normal; padding: 8px; stroke-width: 0;">2019</tspan></text></g><g role="presentation"><line x1="418.69647418354316" x2="418.69647418354316" y1="274" y2="34" role="presentation" shape-rendering="auto" vector-effect="non-scaling-stroke" style="stroke: transparent; fill: transparent; stroke-width: 1; stroke-linecap: round; stroke-linejoin: round; pointer-events: none;"></line><line x1="418.69647418354316" x2="418.69647418354316" y1="274" y2="278" role="presentation" shape-rendering="auto" vector-effect="non-scaling-stroke" style="stroke: transparent; fill: transparent; size: 4px; stroke-width: 1; stroke-linecap: round; stroke-linejoin: round;"></line><text dx="0" dy="11.969999999999999" x="418.69647418354316" y="286"><tspan x="418.69647418354316" dx="0" text-anchor="middle" style="fill: rgb(153, 153, 153); font-size: 14px; font-family: inherit; stroke: transparent; letter-spacing: normal; padding: 8px; stroke-width: 0;">2020</tspan></text></g><g role="presentation"><line x1="531.4813674511951" x2="531.4813674511951" y1="274" y2="34" role="presentation" shape-rendering="auto" vector-effect="non-scaling-stroke" style="stroke: transparent; fill: transparent; stroke-width: 1; stroke-linecap: round; stroke-linejoin: round; pointer-events: none;"></line><line x1="531.4813674511951" x2="531.4813674511951" y1="274" y2="278" role="presentation" shape-rendering="auto" vector-effect="non-scaling-stroke" style="stroke: transparent; fill: transparent; size: 4px; stroke-width: 1; stroke-linecap: round; stroke-linejoin: round;"></line><text dx="0" dy="11.969999999999999" x="531.4813674511951" y="286"><tspan x="531.4813674511951" dx="0" text-anchor="middle" style="fill: rgb(153, 153, 153); font-size: 14px; font-family: inherit; stroke: transparent; letter-spacing: normal; padding: 8px; stroke-width: 0;">2021</tspan></text></g></g><g role="presentation"><line x1="578" x2="578" y1="34" y2="274" role="presentation" shape-rendering="auto" vector-effect="non-scaling-stroke" style="stroke: transparent; fill: transparent; stroke-width: 1; stroke-linejoin: round;"></line><g role="presentation"><line x1="578" x2="15" y1="274" y2="274" role="presentation" shape-rendering="auto" vector-effect="non-scaling-stroke" style="stroke: rgb(226, 226, 226); fill: transparent; stroke-width: 1; stroke-linecap: round; stroke-linejoin: round; pointer-events: none;"></line><line x1="578" x2="582" y1="274" y2="274" role="presentation" shape-rendering="auto" vector-effect="non-scaling-stroke" style="stroke: transparent; fill: transparent; size: 4px; stroke-width: 1; stroke-linecap: round; stroke-linejoin: round;"></line><text dx="0" dy="4.97" x="590" y="274"><tspan x="590" dx="0" text-anchor="start" style="fill: rgb(153, 153, 153); font-size: 14px; font-family: inherit; stroke: transparent; letter-spacing: normal; padding: 8px; stroke-width: 0;">$100K</tspan></text></g><g role="presentation"><line x1="578" x2="15" y1="234" y2="234" role="presentation" shape-rendering="auto" vector-effect="non-scaling-stroke" style="stroke: rgb(226, 226, 226); fill: transparent; stroke-width: 1; stroke-linecap: round; stroke-linejoin: round; pointer-events: none;"></line><line x1="578" x2="582" y1="234" y2="234" role="presentation" shape-rendering="auto" vector-effect="non-scaling-stroke" style="stroke: transparent; fill: transparent; size: 4px; stroke-width: 1; stroke-linecap: round; stroke-linejoin: round;"></line><text dx="0" dy="4.97" x="590" y="234"><tspan x="590" dx="0" text-anchor="start" style="fill: rgb(153, 153, 153); font-size: 14px; font-family: inherit; stroke: transparent; letter-spacing: normal; padding: 8px; stroke-width: 0;">$150K</tspan></text></g><g role="presentation"><line x1="578" x2="15" y1="194" y2="194" role="presentation" shape-rendering="auto" vector-effect="non-scaling-stroke" style="stroke: rgb(226, 226, 226); fill: transparent; stroke-width: 1; stroke-linecap: round; stroke-linejoin: round; pointer-events: none;"></line><line x1="578" x2="582" y1="194" y2="194" role="presentation" shape-rendering="auto" vector-effect="non-scaling-stroke" style="stroke: transparent; fill: transparent; size: 4px; stroke-width: 1; stroke-linecap: round; stroke-linejoin: round;"></line><text dx="0" dy="4.97" x="590" y="194"><tspan x="590" dx="0" text-anchor="start" style="fill: rgb(153, 153, 153); font-size: 14px; font-family: inherit; stroke: transparent; letter-spacing: normal; padding: 8px; stroke-width: 0;">$200K</tspan></text></g><g role="presentation"><line x1="578" x2="15" y1="154" y2="154" role="presentation" shape-rendering="auto" vector-effect="non-scaling-stroke" style="stroke: rgb(226, 226, 226); fill: transparent; stroke-width: 1; stroke-linecap: round; stroke-linejoin: round; pointer-events: none;"></line><line x1="578" x2="582" y1="154" y2="154" role="presentation" shape-rendering="auto" vector-effect="non-scaling-stroke" style="stroke: transparent; fill: transparent; size: 4px; stroke-width: 1; stroke-linecap: round; stroke-linejoin: round;"></line><text dx="0" dy="4.97" x="590" y="154"><tspan x="590" dx="0" text-anchor="start" style="fill: rgb(153, 153, 153); font-size: 14px; font-family: inherit; stroke: transparent; letter-spacing: normal; padding: 8px; stroke-width: 0;">$250K</tspan></text></g><g role="presentation"><line x1="578" x2="15" y1="114" y2="114" role="presentation" shape-rendering="auto" vector-effect="non-scaling-stroke" style="stroke: rgb(226, 226, 226); fill: transparent; stroke-width: 1; stroke-linecap: round; stroke-linejoin: round; pointer-events: none;"></line><line x1="578" x2="582" y1="114" y2="114" role="presentation" shape-rendering="auto" vector-effect="non-scaling-stroke" style="stroke: transparent; fill: transparent; size: 4px; stroke-width: 1; stroke-linecap: round; stroke-linejoin: round;"></line><text dx="0" dy="4.97" x="590" y="114"><tspan x="590" dx="0" text-anchor="start" style="fill: rgb(153, 153, 153); font-size: 14px; font-family: inherit; stroke: transparent; letter-spacing: normal; padding: 8px; stroke-width: 0;">$300K</tspan></text></g><g role="presentation"><line x1="578" x2="15" y1="74" y2="74" role="presentation" shape-rendering="auto" vector-effect="non-scaling-stroke" style="stroke: rgb(226, 226, 226); fill: transparent; stroke-width: 1; stroke-linecap: round; stroke-linejoin: round; pointer-events: none;"></line><line x1="578" x2="582" y1="74" y2="74" role="presentation" shape-rendering="auto" vector-effect="non-scaling-stroke" style="stroke: transparent; fill: transparent; size: 4px; stroke-width: 1; stroke-linecap: round; stroke-linejoin: round;"></line><text dx="0" dy="4.97" x="590" y="74"><tspan x="590" dx="0" text-anchor="start" style="fill: rgb(153, 153, 153); font-size: 14px; font-family: inherit; stroke: transparent; letter-spacing: normal; padding: 8px; stroke-width: 0;">$350K</tspan></text></g><g role="presentation"><line x1="578" x2="15" y1="34" y2="34" role="presentation" shape-rendering="auto" vector-effect="non-scaling-stroke" style="stroke: rgb(226, 226, 226); fill: transparent; stroke-width: 1; stroke-linecap: round; stroke-linejoin: round; pointer-events: none;"></line><line x1="578" x2="582" y1="34" y2="34" role="presentation" shape-rendering="auto" vector-effect="non-scaling-stroke" style="stroke: transparent; fill: transparent; size: 4px; stroke-width: 1; stroke-linecap: round; stroke-linejoin: round;"></line><text dx="0" dy="4.97" x="590" y="34"><tspan x="590" dx="0" text-anchor="start" style="fill: rgb(153, 153, 153); font-size: 14px; font-family: inherit; stroke: transparent; letter-spacing: normal; padding: 8px; stroke-width: 0;">$400K</tspan></text></g></g><g style="height: 100%; width: 100%; user-select: none;"><defs><clipPath id="victory-clip-5"><rect x="15" y="34" width="563" height="240"></rect></clipPath></defs><g clip-path="url(#victory-clip-5)"><path shape-rendering="auto" role="presentation" d="M24.5528188286809,220C27.73709177157453,188.04,30.921364714468165,156.07999999999998,34.1056376573618,156.07999999999998C37.28991060025543,156.07999999999998,40.47418354314906,182.416174863388,43.658456486042695,191.60000000000002C46.7400109469075,200.48757271285038,49.821565407772304,210.8,52.90311986863711,210.8C56.08739281153075,210.8,59.271665754424376,162.45980935970928,62.45593869731801,148C65.54177309493402,133.98720087587313,68.62760749255003,124.58763440860218,71.71344189016602,124.20000000000002C74.89771483305965,123.8,78.0819877759533,124.00000000000001,81.26626071884692,123.6C84.45053366174056,123.19999999999997,87.63480660463419,110,90.81907954752783,110C93.69519704433499,110,96.57131454114213,164.38223418573352,99.44743203794928,168C102.62742504409171,172,105.80741805023415,171.61816409711147,108.98741105637657,174C112.06896551724138,176.30810477803465,115.15051997810617,182,118.23207443897098,182C121.41634738186463,182,124.60062032475825,157.8755555555556,127.7848932676519,157.60000000000002C130.8664477285167,157.33333333333334,133.9480021893815,157.2,137.02955665024632,157.2C140.21382959313993,157.2,143.39810253603358,178,146.5823754789272,178C149.76664842182083,178,152.95092136471445,113.19999999999999,156.1351943076081,113.19999999999999C159.2167487684729,113.19999999999999,162.2983032293377,127.98901463070686,165.37985769020253,136.04000000000002C168.56413063309614,144.3593515482696,171.74840357598978,159.19533092926488,174.9326765188834,162.39999999999998C178.0185109164994,165.5056,181.10434531411542,164.5303303497376,184.19017971173142,167.0584C187.37445265462506,169.66711542273956,190.55872559751867,178,193.74299854041232,178C196.92727148330596,178,200.1115444261996,175.46666666666667,203.29581736909324,170.4C206.1719348659004,165.8236559139785,209.04805236270755,113.6,211.9241698595147,113.6C215.10416286565712,113.6,218.28415587179956,114.27999999999999,221.46414887794197,115.63999999999999C224.5457033388068,116.95790040376849,227.62725779967158,121.70668781949584,230.7088122605364,126C233.89308520343002,130.43642258652093,237.07735814632366,142,240.26163108921727,142C243.3431855500821,142,246.4247400109469,114.08000000000001,249.5062944718117,114.08000000000001C252.69056741470536,114.08000000000001,255.874840357599,180,259.05911330049264,180C262.2433862433863,180,265.42765918627987,136.6,268.6119321291735,136.6C271.69348659003833,136.6,274.7750410509031,138.4,277.8565955117679,142C281.04086845466156,145.72,284.22514139755515,194,287.4094143404488,194C290.4952487380648,194,293.58108313568084,134.00799999999998,296.66691753329684,134.00799999999998C299.8511904761905,134.00799999999998,303.03546341908407,157.808,306.2197363619777,157.808C309.40400930487135,157.808,312.588282247765,110,315.77255519065864,110C318.6486726874658,110,321.52479018427294,158.0848,324.4009076810801,158.0848C327.58090068722254,158.0848,330.76089369336495,142.93365086959815,333.94088669950736,130.07999999999998C337.0224411603722,117.62424141842429,340.10399562123695,82.80000000000001,343.18555008210177,82.80000000000001C346.3698230249954,82.80000000000001,349.55409596788905,117.13813333333331,352.7383689107827,126C355.8199233716475,134.576,358.9014778325123,138.86399999999998,361.9830322933771,138.86399999999998C365.16730523627075,138.86399999999998,368.35157817916433,132.96399999999994,371.535851122058,122.80000000000001C374.7201240649516,112.63600000000001,377.90439700784526,77.88,381.0886699507389,77.88C384.1702244116037,77.88,387.2517788724685,116.4,390.3333333333333,116.4C393.51760627622696,116.4,396.7018792191206,102,399.88615216201424,102C402.97198655963024,102,406.0578209572463,120.84,409.1436553548623,120.84C412.32792829775593,120.84,415.5122012406495,102,418.69647418354316,102C421.8807471264368,102,425.0650200693304,136.00400000000002,428.24929301222403,136.00400000000002C431.22812899106003,136.00400000000002,434.206964969896,116,437.185800948732,116C440.3657939548744,116,443.54578696101686,174,446.72577996715927,174C449.8073344280241,174,452.8888888888889,145.0947999294906,455.97044334975374,136C459.1547162926473,126.60204007285986,462.33898923554096,125.83262805100175,465.52326217843455,119.24799999999999C468.6048166392994,112.87577930548207,471.6863711001642,106.63796368764324,474.767925561029,97.32C477.95219850392266,87.69143752276867,481.1364714468163,62,484.32074438970994,62C487.50501733260353,62,490.68929027549717,150,493.87356321839076,150C496.9551176792556,150,500.0366721401204,132.56053305129564,503.1182266009852,125.892C506.3024995438788,119.00118251366126,509.48677248677245,109.6,512.671045429666,109.6C515.7568798272821,109.6,518.8427142248981,110.82000000000001,521.9285486225142,113.26000000000002C525.1128215654078,115.77783633841885,528.2970945083015,206,531.4813674511951,206C534.6656403940887,206,537.8499133369824,151.03935456012914,541.0341862798759,132.64440000000002C543.9103037766831,116.0296023327866,546.7864212734902,106.5504701530579,549.6625387702974,97.624C552.8425317764398,87.75440576827077,556.0225247825822,78.08960000000002,559.2025177887247,78.08960000000002C562.2840722495895,78.08960000000002,565.3656267104543,106,568.4471811713191,106C571.6314541142127,106,574.8157270571064,93.4324,578,80.8648" style="fill: transparent; stroke: rgb(51, 51, 51); stroke-width: 2; opacity: 1;"></path></g></g></svg>