<svg xmlns="http://www.w3.org/2000/svg" width="640" height="324" role="img" aria-labelledby="victory-container-4-title victory-container-4-desc" viewBox="0 0 640 324" style="pointer-events: all; width: 100%; height: 100%;"><g role="presentation"><line x1="15" x2="578" y1="274" y2="274" role="presentation" shape-rendering="auto" vector-effect="non-scaling-stroke" style="stroke: rgb(226, 226, 226); fill: transparent; stroke-width: 1; stroke-linejoin: round;"></line><g role="presentation"><line x1="81.26626071884692" x2="81.26626071884692" y1="274" y2="34" role="presentation" shape-rendering="auto" vector-effect="non-scaling-stroke" style="stroke: transparent; fill: transparent; stroke-width: 1; stroke-linecap: round; stroke-linejoin: round; pointer-events: none;"></line><line x1="81.26626071884692" x2="81.26626071884692" y1="274" y2="278" role="presentation" shape-rendering="auto" vector-effect="non-scaling-stroke" style="stroke: transparent; fill: transparent; size: 4px; stroke-width: 1; stroke-linecap: round; stroke-linejoin: round;"></line><text dx="0" dy="11.969999999999999" x="81.26626071884692" y="286"><tspan x="81.26626071884692" dx="0" text-anchor="middle" style="fill: rgb(153, 153, 153); font-size: 14px; font-family: inherit; stroke: transparent; letter-spacing: normal; padding: 8px; stroke-width: 0;">2017</tspan></text></g><g role="presentation"><line x1="193.74299854041232" x2="193.74299854041232" y1="274" y2="34" role="presentation" shape-rendering="auto" vector-effect="non-scaling-stroke" style="stroke: transparent; fill: transparent; stroke-width: 1; stroke-linecap: round; stroke-linejoin: round; pointer-events: none;"></line><line x1="193.74299854041232" x2="193.74299854041232" y1="274" y2="278" role="presentation" shape-rendering="auto" vector-effect="non-scaling-stroke" style="stroke: transparent; fill: transparent; size: 4px; stroke-width: 1; stroke-linecap: round; stroke-linejoin: round;"></line><text dx="0" dy="11.969999999999999" x="193.74299854041232" y="286"><tspan x="193.74299854041232" dx="0" text-anchor="middle" style="fill: rgb(153, 153, 153); font-size: 14px; font-family: inherit; stroke: transparent; letter-spacing: normal; padding: 8px; stroke-width: 0;">2018</tspan></text></g><g role="presentation"><line x1="306.2197363619777" x2="306.2197363619777" y1="274" y2="34" role="presentation" shape-rendering="auto" vector-effect="non-scaling-stroke" style="stroke: transparent; fill: transparent; stroke-width: 1; stroke-linecap: round; stroke-linejoin: round; pointer-events: none;"></line><line x1="306.2197363619777" x2="306.2197363619777" y1="274" y2="278" role="presentation" shape-rendering="auto" vector-effect="non-scaling-stroke" style="stroke: transparent; fill: transparent; size: 4px; stroke-width: 1; stroke-linecap: round; stroke-linejoin: round;"></line><text dx="0" dy="11.969999999999999" x="306.2197363619777" y="286"><tspan x="306.2197363619777" dx="0" text-anchor="middle" style="fill: rgb(153, 153, 153); font-size: 14px; font-family: inherit; stroke: transparent; letter-spacing: normal; padding: 8px; stroke-width: 0;">2019</tspan></text></g><g role="presentation"><line x1="418.69647418354316" x2="418.69647418354316" y1="274" y2="34" role="presentation" shape-rendering="auto" vector-effect="non-scaling-stroke" style="stroke: transparent; fill: transparent; stroke-width: 1; stroke-linecap: round; stroke-linejoin: round; pointer-events: none;"></line><line x1="418.69647418354316" x2="418.69647418354316" y1="274" y2="278" role="presentation" shape-rendering="auto" vector-effect="non-scaling-stroke" style="stroke: transparent; fill: transparent; size: 4px; stroke-width: 1; stroke-linecap: round; stroke-linejoin: round;"></line><text dx="0" dy="11.969999999999999" x="418.69647418354316" y="286"><tspan x="418.69647418354316" dx="0" text-anchor="middle" style="fill: rgb(153, 153, 153); font-size: 14px; font-family: inherit; stroke: transparent; letter-spacing: normal; padding: 8px; stroke-width: 0;">2020</tspan></text></g><g role="presentation"><line x1="531.4813674511951" x2="531.4813674511951" y1="274" y2="34" role="presentation" shape-rendering="auto" vector-effect="non-scaling-stroke" style="stroke: transparent; fill: transparent; stroke-width: 1; stroke-linecap: round; stroke-linejoin: round; pointer-events: none;"></line><line x1="531.4813674511951" x2="531.4813674511951" y1="274" y2="278" role="presentation" shape-rendering="auto" vector-effect="non-scaling-stroke" style="stroke: transparent; fill: transparent; size: 4px; stroke-width: 1; stroke-linecap: round; stroke-linejoin: round;"></line><text dx="0" dy="11.969999999999999" x="531.4813674511951" y="286"><tspan x="531.4813674511951" dx="0" text-anchor="middle" style="fill: rgb(153, 153, 153); font-size: 14px; font-family: inherit; stroke: transparent; letter-spacing: normal; padding: 8px; stroke-width: 0;">2021</tspan></text></g></g><g role="presentation"><line x1="578" x2="578" y1="34" y2="274" role="presentation" shape-rendering="auto" vector-effect="non-scaling-stroke" style="stroke: transparent; fill: transparent; stroke-width: 1; stroke-linejoin: round;"></line><g role="presentation"><line x1="578" x2="15" y1="247.33333333333334" y2="247.33333333333334" role="presentation" shape-rendering="auto" vector-effect="non-scaling-stroke" style="stroke: rgb(226, 226, 226); fill: transparent; stroke-width: 1; stroke-linecap: round; stroke-linejoin: round; pointer-events: none;"></line><line x1="578" x2="582" y1="247.33333333333334" y2="247.33333333333334" role="presentation" shape-rendering="auto" vector-effect="non-scaling-stroke" style="stroke: transparent; fill: transparent; size: 4px; stroke-width: 1; stroke-linecap: round; stroke-linejoin: round;"></line><text dx="0" dy="4.97" x="590" y="247.33333333333334"><tspan x="590" dx="0" text-anchor="start" style="fill: rgb(153, 153, 153); font-size: 14px; font-family: inherit; stroke: transparent; letter-spacing: normal; padding: 8px; stroke-width: 0;">$100K</tspan></text></g><g role="presentation"><line x1="578" x2="15" y1="180.66666666666669" y2="180.66666666666669" role="presentation" shape-rendering="auto" vector-effect="non-scaling-stroke" style="stroke: rgb(226, 226, 226); fill: transparent; stroke-width: 1; stroke-linecap: round; stroke-linejoin: round; pointer-events: none;"></line><line x1="578" x2="582" y1="180.66666666666669" y2="180.66666666666669" role="presentation" shape-rendering="auto" vector-effect="non-scaling-stroke" style="stroke: transparent; fill: transparent; size: 4px; stroke-width: 1; stroke-linecap: round; stroke-linejoin: round;"></line><text dx="0" dy="4.97" x="590" y="180.66666666666669"><tspan x="590" dx="0" text-anchor="start" style="fill: rgb(153, 153, 153); font-size: 14px; font-family: inherit; stroke: transparent; letter-spacing: normal; padding: 8px; stroke-width: 0;">$150K</tspan></text></g><g role="presentation"><line x1="578" x2="15" y1="114" y2="114" role="presentation" shape-rendering="auto" vector-effect="non-scaling-stroke" style="stroke: rgb(226, 226, 226); fill: transparent; stroke-width: 1; stroke-linecap: round; stroke-linejoin: round; pointer-events: none;"></line><line x1="578" x2="582" y1="114" y2="114" role="presentation" shape-rendering="auto" vector-effect="non-scaling-stroke" style="stroke: transparent; fill: transparent; size: 4px; stroke-width: 1; stroke-linecap: round; stroke-linejoin: round;"></line><text dx="0" dy="4.97" x="590" y="114"><tspan x="590" dx="0" text-anchor="start" style="fill: rgb(153, 153, 153); font-size: 14px; font-family: inherit; stroke: transparent; letter-spacing: normal; padding: 8px; stroke-width: 0;">$200K</tspan></text></g><g role="presentation"><line x1="578" x2="15" y1="47.33333333333334" y2="47.33333333333334" role="presentation" shape-rendering="auto" vector-effect="non-scaling-stroke" style="stroke: rgb(226, 226, 226); fill: transparent; stroke-width: 1; stroke-linecap: round; stroke-linejoin: round; pointer-events: none;"></line><line x1="578" x2="582" y1="47.33333333333334" y2="47.33333333333334" role="presentation" shape-rendering="auto" vector-effect="non-scaling-stroke" style="stroke: transparent; fill: transparent; size: 4px; stroke-width: 1; stroke-linecap: round; stroke-linejoin: round;"></line><text dx="0" dy="4.97" x="590" y="47.33333333333334"><tspan x="590" dx="0" text-anchor="start" style="fill: rgb(153, 153, 153); font-size: 14px; font-family: inherit; stroke: transparent; letter-spacing: normal; padding: 8px; stroke-width: 0;">$250K</tspan></text></g></g><g style="height: 100%; width: 100%; user-select: none;"><defs><clipPath id="victory-clip-5"><rect x="15" y="34" width="563" height="240"></rect></clipPath></defs><g clip-path="url(#victory-clip-5)"><path shape-rendering="auto" role="presentation" d="M24.5528188286809,269C27.73709177157453,252.30555555555554,30.921364714468165,235.6111111111111,34.1056376573618,220.33333333333331C37.28991060025543,205.05555555555554,40.47418354314906,177.33333333333331,43.658456486042695,177.33333333333331C46.7400109469075,177.33333333333331,49.821565407772304,208.66666666666669,52.90311986863711,208.66666666666669C56.08739281153075,208.66666666666669,59.271665754424376,118,62.45593869731801,118C65.54177309493402,118,68.62760749255003,175.33210780416,71.71344189016602,200.66666666666666C74.89771483305965,226.80940147069575,78.0819877759533,272,81.26626071884692,272C84.45053366174056,272,87.63480660463419,152.17142857142855,90.81907954752783,150.39999999999998C93.69519704433499,148.79999999999998,96.57131454114213,149.6,99.44743203794928,148C102.62742504409171,146.2309523809524,105.80741805023415,134,108.98741105637657,134C112.06896551724138,134,115.15051997810617,141.7837710793819,118.23207443897098,152.66666666666669C121.41634738186463,163.9123254401943,124.60062032475825,201.33333333333334,127.7848932676519,201.33333333333334C130.8664477285167,201.33333333333334,133.9480021893815,130.6387096774194,137.02955665024632,113.13333333333333C140.21382959313993,95.04444444444445,143.39810253603358,86,146.5823754789272,86C149.76664842182083,86,152.95092136471445,167.33333333333334,156.1351943076081,167.33333333333334C159.2167487684729,167.33333333333334,162.2983032293377,140.66666666666666,165.37985769020253,140.66666666666666C168.56413063309614,140.66666666666666,171.74840357598978,181.84830868937036,174.9326765188834,199.33333333333331C178.0185109164994,216.27782630147487,181.10434531411542,244.33333333333334,184.19017971173142,244.33333333333334C187.37445265462506,244.33333333333334,190.55872559751867,173.33333333333331,193.74299854041232,173.33333333333331C196.92727148330596,173.33333333333331,200.1115444261996,202,203.29581736909324,202C206.1719348659004,202,209.04805236270755,112.66666666666666,211.9241698595147,112.66666666666666C215.10416286565712,112.66666666666666,218.28415587179956,143.33333333333334,221.46414887794197,143.33333333333334C224.5457033388068,143.33333333333334,227.62725779967158,120.66666666666669,230.7088122605364,120.66666666666669C233.89308520343002,120.66666666666669,237.07735814632366,137.8009714632666,240.26163108921727,148C243.3431855500821,157.87002761619368,246.4247400109469,180.66666666666669,249.5062944718117,180.66666666666669C252.69056741470536,180.66666666666669,255.874840357599,178.8888888888889,259.05911330049264,175.33333333333334C262.2433862433863,171.7777777777778,265.42765918627987,127.33333333333331,268.6119321291735,127.33333333333331C271.69348659003833,127.33333333333331,274.7750410509031,194.34408602150538,277.8565955117679,204.66666666666669C281.04086845466156,215.33333333333334,284.22514139755515,220.66666666666669,287.4094143404488,220.66666666666669C290.4952487380648,220.66666666666669,293.58108313568084,178.14217443249711,296.66691753329684,168.66666666666669C299.8511904761905,158.88888888888889,303.03546341908407,163.7777777777778,306.2197363619777,154C309.40400930487135,144.22222222222214,312.588282247765,121.11620392789882,315.77255519065864,102.28C318.6486726874658,85.26665451673652,321.52479018427294,47.33333333333334,324.4009076810801,47.33333333333334C327.58090068722254,47.33333333333334,330.76089369336495,244,333.94088669950736,244C337.0224411603722,244,340.10399562123695,143.33333333333334,343.18555008210177,143.33333333333334C346.3698230249954,143.33333333333334,349.55409596788905,144.66666666666666,352.7383689107827,147.33333333333331C355.8199233716475,149.91397849462362,358.9014778325123,184,361.9830322933771,184C365.16730523627075,184,368.35157817916433,183.77777777777777,371.535851122058,183.33333333333334C374.7201240649516,182.8888888888889,377.90439700784526,176.31746205221617,381.0886699507389,172.66666666666669C384.1702244116037,169.13363887419945,387.2517788724685,162.91526881720432,390.3333333333333,161.8C393.51760627622696,160.64755555555556,396.7018792191206,161.2237777777778,399.88615216201424,160.07133333333334C402.97198655963024,158.9545155316607,406.0578209572463,102.61409796893673,409.1436553548623,94C412.32792829775593,85.1111111111111,415.5122012406495,80.66666666666666,418.69647418354316,80.66666666666666C421.8807471264368,80.66666666666666,425.0650200693304,179,428.24929301222403,179C431.22812899106003,179,434.206964969896,87.33333333333334,437.185800948732,87.33333333333334C440.3657939548744,87.33333333333334,443.54578696101686,87.33333333333334,446.72577996715927,87.33333333333334C449.8073344280241,87.33333333333334,452.8888888888889,88.91368470532933,455.97044334975374,90C459.1547162926473,91.12252580449301,462.33898923554096,94,465.52326217843455,94C468.6048166392994,94,471.6863711001642,86.33333333333334,474.767925561029,86.33333333333334C477.95219850392266,86.33333333333334,481.1364714468163,112.16666666666667,484.32074438970994,120.66666666666669C487.50501733260353,129.1666666666666,490.68929027549717,137.33333333333334,493.87356321839076,137.33333333333334C496.9551176792556,137.33333333333334,500.0366721401204,136.22222222222223,503.1182266009852,134C506.3024995438788,131.70370370370372,509.48677248677245,37.333333333333314,512.671045429666,37.333333333333314C515.7568798272821,37.333333333333314,518.8427142248981,64.55930720801169,521.9285486225142,73.73333333333335C525.1128215654078,83.20001216445566,528.2970945083015,92.68,531.4813674511951,92.68C534.6656403940887,92.68,537.8499133369824,75.33333333333334,541.0341862798759,75.33333333333334C543.9103037766831,75.33333333333334,546.7864212734902,127.33333333333331,549.6625387702974,127.33333333333331C552.8425317764398,127.33333333333331,556.0225247825822,97.0396958304853,559.2025177887247,87.33333333333334C562.2840722495895,77.92743697000972,565.3656267104543,75.44967389388334,568.4471811713191,69.33333333333334C571.6314541142127,63.013114754098396,574.8157270571064,56.5065573770492,578,50" style="fill: transparent; stroke: rgb(51, 51, 51); stroke-width: 2; opacity: 1;"></path></g></g></svg>