<svg xmlns="http://www.w3.org/2000/svg" width="640" height="324" role="img" aria-labelledby="victory-container-4-title victory-container-4-desc" viewBox="0 0 640 324" style="pointer-events: all; width: 100%; height: 100%;"><g role="presentation"><line x1="15" x2="578" y1="274" y2="274" role="presentation" shape-rendering="auto" vector-effect="non-scaling-stroke" style="stroke: rgb(226, 226, 226); fill: transparent; stroke-width: 1; stroke-linejoin: round;"></line><g role="presentation"><line x1="81.26626071884692" x2="81.26626071884692" y1="274" y2="34" role="presentation" shape-rendering="auto" vector-effect="non-scaling-stroke" style="stroke: transparent; fill: transparent; stroke-width: 1; stroke-linecap: round; stroke-linejoin: round; pointer-events: none;"></line><line x1="81.26626071884692" x2="81.26626071884692" y1="274" y2="278" role="presentation" shape-rendering="auto" vector-effect="non-scaling-stroke" style="stroke: transparent; fill: transparent; size: 4px; stroke-width: 1; stroke-linecap: round; stroke-linejoin: round;"></line><text dx="0" dy="11.969999999999999" x="81.26626071884692" y="286"><tspan x="81.26626071884692" dx="0" text-anchor="middle" style="fill: rgb(153, 153, 153); font-size: 14px; font-family: inherit; stroke: transparent; letter-spacing: normal; padding: 8px; stroke-width: 0;">2017</tspan></text></g><g role="presentation"><line x1="193.74299854041232" x2="193.74299854041232" y1="274" y2="34" role="presentation" shape-rendering="auto" vector-effect="non-scaling-stroke" style="stroke: transparent; fill: transparent; stroke-width: 1; stroke-linecap: round; stroke-linejoin: round; pointer-events: none;"></line><line x1="193.74299854041232" x2="193.74299854041232" y1="274" y2="278" role="presentation" shape-rendering="auto" vector-effect="non-scaling-stroke" style="stroke: transparent; fill: transparent; size: 4px; stroke-width: 1; stroke-linecap: round; stroke-linejoin: round;"></line><text dx="0" dy="11.969999999999999" x="193.74299854041232" y="286"><tspan x="193.74299854041232" dx="0" text-anchor="middle" style="fill: rgb(153, 153, 153); font-size: 14px; font-family: inherit; stroke: transparent; letter-spacing: normal; padding: 8px; stroke-width: 0;">2018</tspan></text></g><g role="presentation"><line x1="306.2197363619777" x2="306.2197363619777" y1="274" y2="34" role="presentation" shape-rendering="auto" vector-effect="non-scaling-stroke" style="stroke: transparent; fill: transparent; stroke-width: 1; stroke-linecap: round; stroke-linejoin: round; pointer-events: none;"></line><line x1="306.2197363619777" x2="306.2197363619777" y1="274" y2="278" role="presentation" shape-rendering="auto" vector-effect="non-scaling-stroke" style="stroke: transparent; fill: transparent; size: 4px; stroke-width: 1; stroke-linecap: round; stroke-linejoin: round;"></line><text dx="0" dy="11.969999999999999" x="306.2197363619777" y="286"><tspan x="306.2197363619777" dx="0" text-anchor="middle" style="fill: rgb(153, 153, 153); font-size: 14px; font-family: inherit; stroke: transparent; letter-spacing: normal; padding: 8px; stroke-width: 0;">2019</tspan></text></g><g role="presentation"><line x1="418.69647418354316" x2="418.69647418354316" y1="274" y2="34" role="presentation" shape-rendering="auto" vector-effect="non-scaling-stroke" style="stroke: transparent; fill: transparent; stroke-width: 1; stroke-linecap: round; stroke-linejoin: round; pointer-events: none;"></line><line x1="418.69647418354316" x2="418.69647418354316" y1="274" y2="278" role="presentation" shape-rendering="auto" vector-effect="non-scaling-stroke" style="stroke: transparent; fill: transparent; size: 4px; stroke-width: 1; stroke-linecap: round; stroke-linejoin: round;"></line><text dx="0" dy="11.969999999999999" x="418.69647418354316" y="286"><tspan x="418.69647418354316" dx="0" text-anchor="middle" style="fill: rgb(153, 153, 153); font-size: 14px; font-family: inherit; stroke: transparent; letter-spacing: normal; padding: 8px; stroke-width: 0;">2020</tspan></text></g><g role="presentation"><line x1="531.4813674511951" x2="531.4813674511951" y1="274" y2="34" role="presentation" shape-rendering="auto" vector-effect="non-scaling-stroke" style="stroke: transparent; fill: transparent; stroke-width: 1; stroke-linecap: round; stroke-linejoin: round; pointer-events: none;"></line><line x1="531.4813674511951" x2="531.4813674511951" y1="274" y2="278" role="presentation" shape-rendering="auto" vector-effect="non-scaling-stroke" style="stroke: transparent; fill: transparent; size: 4px; stroke-width: 1; stroke-linecap: round; stroke-linejoin: round;"></line><text dx="0" dy="11.969999999999999" x="531.4813674511951" y="286"><tspan x="531.4813674511951" dx="0" text-anchor="middle" style="fill: rgb(153, 153, 153); font-size: 14px; font-family: inherit; stroke: transparent; letter-spacing: normal; padding: 8px; stroke-width: 0;">2021</tspan></text></g></g><g role="presentation"><line x1="578" x2="578" y1="34" y2="274" role="presentation" shape-rendering="auto" vector-effect="non-scaling-stroke" style="stroke: transparent; fill: transparent; stroke-width: 1; stroke-linejoin: round;"></line><g role="presentation"><line x1="578" x2="15" y1="258" y2="258" role="presentation" shape-rendering="auto" vector-effect="non-scaling-stroke" style="stroke: rgb(226, 226, 226); fill: transparent; stroke-width: 1; stroke-linecap: round; stroke-linejoin: round; pointer-events: none;"></line><line x1="578" x2="582" y1="258" y2="258" role="presentation" shape-rendering="auto" vector-effect="non-scaling-stroke" style="stroke: transparent; fill: transparent; size: 4px; stroke-width: 1; stroke-linecap: round; stroke-linejoin: round;"></line><text dx="0" dy="4.97" x="590" y="258"><tspan x="590" dx="0" text-anchor="start" style="fill: rgb(153, 153, 153); font-size: 14px; font-family: inherit; stroke: transparent; letter-spacing: normal; padding: 8px; stroke-width: 0;">$40K</tspan></text></g><g role="presentation"><line x1="578" x2="15" y1="226" y2="226" role="presentation" shape-rendering="auto" vector-effect="non-scaling-stroke" style="stroke: rgb(226, 226, 226); fill: transparent; stroke-width: 1; stroke-linecap: round; stroke-linejoin: round; pointer-events: none;"></line><line x1="578" x2="582" y1="226" y2="226" role="presentation" shape-rendering="auto" vector-effect="non-scaling-stroke" style="stroke: transparent; fill: transparent; size: 4px; stroke-width: 1; stroke-linecap: round; stroke-linejoin: round;"></line><text dx="0" dy="4.97" x="590" y="226"><tspan x="590" dx="0" text-anchor="start" style="fill: rgb(153, 153, 153); font-size: 14px; font-family: inherit; stroke: transparent; letter-spacing: normal; padding: 8px; stroke-width: 0;">$60K</tspan></text></g><g role="presentation"><line x1="578" x2="15" y1="194" y2="194" role="presentation" shape-rendering="auto" vector-effect="non-scaling-stroke" style="stroke: rgb(226, 226, 226); fill: transparent; stroke-width: 1; stroke-linecap: round; stroke-linejoin: round; pointer-events: none;"></line><line x1="578" x2="582" y1="194" y2="194" role="presentation" shape-rendering="auto" vector-effect="non-scaling-stroke" style="stroke: transparent; fill: transparent; size: 4px; stroke-width: 1; stroke-linecap: round; stroke-linejoin: round;"></line><text dx="0" dy="4.97" x="590" y="194"><tspan x="590" dx="0" text-anchor="start" style="fill: rgb(153, 153, 153); font-size: 14px; font-family: inherit; stroke: transparent; letter-spacing: normal; padding: 8px; stroke-width: 0;">$80K</tspan></text></g><g role="presentation"><line x1="578" x2="15" y1="162" y2="162" role="presentation" shape-rendering="auto" vector-effect="non-scaling-stroke" style="stroke: rgb(226, 226, 226); fill: transparent; stroke-width: 1; stroke-linecap: round; stroke-linejoin: round; pointer-events: none;"></line><line x1="578" x2="582" y1="162" y2="162" role="presentation" shape-rendering="auto" vector-effect="non-scaling-stroke" style="stroke: transparent; fill: transparent; size: 4px; stroke-width: 1; stroke-linecap: round; stroke-linejoin: round;"></line><text dx="0" dy="4.97" x="590" y="162"><tspan x="590" dx="0" text-anchor="start" style="fill: rgb(153, 153, 153); font-size: 14px; font-family: inherit; stroke: transparent; letter-spacing: normal; padding: 8px; stroke-width: 0;">$100K</tspan></text></g><g role="presentation"><line x1="578" x2="15" y1="130" y2="130" role="presentation" shape-rendering="auto" vector-effect="non-scaling-stroke" style="stroke: rgb(226, 226, 226); fill: transparent; stroke-width: 1; stroke-linecap: round; stroke-linejoin: round; pointer-events: none;"></line><line x1="578" x2="582" y1="130" y2="130" role="presentation" shape-rendering="auto" vector-effect="non-scaling-stroke" style="stroke: transparent; fill: transparent; size: 4px; stroke-width: 1; stroke-linecap: round; stroke-linejoin: round;"></line><text dx="0" dy="4.97" x="590" y="130"><tspan x="590" dx="0" text-anchor="start" style="fill: rgb(153, 153, 153); font-size: 14px; font-family: inherit; stroke: transparent; letter-spacing: normal; padding: 8px; stroke-width: 0;">$120K</tspan></text></g><g role="presentation"><line x1="578" x2="15" y1="98" y2="98" role="presentation" shape-rendering="auto" vector-effect="non-scaling-stroke" style="stroke: rgb(226, 226, 226); fill: transparent; stroke-width: 1; stroke-linecap: round; stroke-linejoin: round; pointer-events: none;"></line><line x1="578" x2="582" y1="98" y2="98" role="presentation" shape-rendering="auto" vector-effect="non-scaling-stroke" style="stroke: transparent; fill: transparent; size: 4px; stroke-width: 1; stroke-linecap: round; stroke-linejoin: round;"></line><text dx="0" dy="4.97" x="590" y="98"><tspan x="590" dx="0" text-anchor="start" style="fill: rgb(153, 153, 153); font-size: 14px; font-family: inherit; stroke: transparent; letter-spacing: normal; padding: 8px; stroke-width: 0;">$140K</tspan></text></g><g role="presentation"><line x1="578" x2="15" y1="66" y2="66" role="presentation" shape-rendering="auto" vector-effect="non-scaling-stroke" style="stroke: rgb(226, 226, 226); fill: transparent; stroke-width: 1; stroke-linecap: round; stroke-linejoin: round; pointer-events: none;"></line><line x1="578" x2="582" y1="66" y2="66" role="presentation" shape-rendering="auto" vector-effect="non-scaling-stroke" style="stroke: transparent; fill: transparent; size: 4px; stroke-width: 1; stroke-linecap: round; stroke-linejoin: round;"></line><text dx="0" dy="4.97" x="590" y="66"><tspan x="590" dx="0" text-anchor="start" style="fill: rgb(153, 153, 153); font-size: 14px; font-family: inherit; stroke: transparent; letter-spacing: normal; padding: 8px; stroke-width: 0;">$160K</tspan></text></g><g role="presentation"><line x1="578" x2="15" y1="34" y2="34" role="presentation" shape-rendering="auto" vector-effect="non-scaling-stroke" style="stroke: rgb(226, 226, 226); fill: transparent; stroke-width: 1; stroke-linecap: round; stroke-linejoin: round; pointer-events: none;"></line><line x1="578" x2="582" y1="34" y2="34" role="presentation" shape-rendering="auto" vector-effect="non-scaling-stroke" style="stroke: transparent; fill: transparent; size: 4px; stroke-width: 1; stroke-linecap: round; stroke-linejoin: round;"></line><text dx="0" dy="4.97" x="590" y="34"><tspan x="590" dx="0" text-anchor="start" style="fill: rgb(153, 153, 153); font-size: 14px; font-family: inherit; stroke: transparent; letter-spacing: normal; padding: 8px; stroke-width: 0;">$180K</tspan></text></g></g><g style="height: 100%; width: 100%; user-select: none;"><defs><clipPath id="victory-clip-5"><rect x="15" y="34" width="563" height="240"></rect></clipPath></defs><g clip-path="url(#victory-clip-5)"><path shape-rendering="auto" role="presentation" d="M15.30815544608648,178.16C18.389709906951285,206.88,21.471264367816094,235.6,24.5528188286809,235.6C27.73709177157453,235.6,30.921364714468165,226,34.1056376573618,226C37.28991060025543,226,40.47418354314906,270.8,43.658456486042695,270.8C46.7400109469075,270.8,49.821565407772304,176.48000000000002,52.90311986863711,176.48000000000002C56.08739281153075,176.48000000000002,59.271665754424376,209.84687933425798,62.45593869731801,214.8C65.54177309493402,219.6,68.62760749255003,222,71.71344189016602,222C74.89771483305965,222,78.0819877759533,183.12,81.26626071884692,183.12C84.45053366174056,183.12,87.63480660463419,187.6341242937853,90.81907954752783,196.48000000000002C93.69519704433499,204.4698232185165,96.57131454114213,231.2,99.44743203794928,231.2C102.62742504409171,231.2,105.80741805023415,203.68,108.98741105637657,203.68C112.06896551724138,203.68,115.15051997810617,207.6,118.23207443897098,207.6C121.41634738186463,207.6,124.60062032475825,130,127.7848932676519,130C130.8664477285167,130,133.9480021893815,226,137.02955665024632,226C140.21382959313993,226,143.39810253603358,215.91999999999996,146.5823754789272,202C149.76664842182083,188.07999999999998,152.95092136471445,142.48,156.1351943076081,142.48C159.2167487684729,142.48,162.2983032293377,214.54193548387096,165.37985769020253,222.8C168.56413063309614,231.33333333333334,171.74840357598978,235.6,174.9326765188834,235.6C178.0185109164994,235.6,181.10434531411542,158.8,184.19017971173142,158.8C187.37445265462506,158.8,190.55872559751867,186.8,193.74299854041232,186.8C196.92727148330596,186.8,200.1115444261996,117.19999999999999,203.29581736909324,117.19999999999999C206.1719348659004,117.19999999999999,209.04805236270755,133.95031913089102,211.9241698595147,150C215.10416286565712,167.74540607998205,218.28415587179956,222,221.46414887794197,222C224.5457033388068,222,227.62725779967158,127.6,230.7088122605364,127.6C233.89308520343002,127.6,237.07735814632366,154.6602841530055,240.26163108921727,166.8C243.3431855500821,178.54811210999475,246.4247400109469,199.44,249.5062944718117,199.44C252.69056741470536,199.44,255.874840357599,194.96,259.05911330049264,186C262.2433862433863,177.04000000000005,265.42765918627987,117.36000000000001,268.6119321291735,117.36000000000001C271.69348659003833,117.36000000000001,274.7750410509031,166,277.8565955117679,166C281.04086845466156,166,284.22514139755515,125.302080443828,287.4094143404488,122C290.4952487380648,118.8,293.58108313568084,117.19999999999999,296.66691753329684,117.19999999999999C299.8511904761905,117.19999999999999,303.03546341908407,163.06666666666675,306.2197363619777,175.44C309.40400930487135,187.81333333333333,312.588282247765,194,315.77255519065864,194C318.6486726874658,194,321.52479018427294,148.51071151715186,324.4009076810801,134C327.58090068722254,117.95616271243495,330.76089369336495,106,333.94088669950736,106C337.0224411603722,106,340.10399562123695,113.46666666666667,343.18555008210177,128.4C346.3698230249954,143.83111111111117,349.55409596788905,205.2,352.7383689107827,205.2C355.8199233716475,205.2,358.9014778325123,122,361.9830322933771,122C365.16730523627075,122,368.35157817916433,141.2,371.535851122058,141.2C374.7201240649516,141.2,377.90439700784526,98,381.0886699507389,98C384.1702244116037,98,387.2517788724685,236.4,390.3333333333333,236.4C393.51760627622696,236.4,396.7018792191206,148.2124826629681,399.88615216201424,128.4C402.97198655963024,109.19999999999999,406.0578209572463,99.6,409.1436553548623,99.6C412.32792829775593,99.6,415.5122012406495,144.1608,418.69647418354316,144.1608C421.8807471264368,144.1608,425.0650200693304,107.02620689655171,428.24929301222403,106C431.22812899106003,105.04,434.206964969896,104.56,437.185800948732,104.56C440.3657939548744,104.56,443.54578696101686,122.0016,446.72577996715927,122.0016C449.8073344280241,122.0016,452.8888888888889,97.20079999999999,455.97044334975374,97.20079999999999C459.1547162926473,97.20079999999999,462.33898923554096,154,465.52326217843455,154C468.6048166392994,154,471.6863711001642,114,474.767925561029,114C477.95219850392266,114,481.1364714468163,142.8,484.32074438970994,142.8C487.50501733260353,142.8,490.68929027549717,72.4,493.87356321839076,72.4C496.9551176792556,72.4,500.0366721401204,81.69906575004407,503.1182266009852,85.20000000000002C506.3024995438788,88.81763205828777,509.48677248677245,91.45337240181205,512.671045429666,93.6C515.7568798272821,95.68026679878164,518.8427142248981,96.23769043512299,521.9285486225142,98C525.1128215654078,99.8185274844223,528.2970945083015,100.13333333333334,531.4813674511951,104.4C534.6656403940887,108.66666666666667,537.8499133369824,130,541.0341862798759,130C543.9103037766831,130,546.7864212734902,52,549.6625387702974,52C552.8425317764398,52,556.0225247825822,66,559.2025177887247,66C562.2840722495895,66,565.3656267104543,64.23416181914332,568.4471811713191,61.19999999999999C571.6314541142127,58.0646994535519,574.8157270571064,52.63234972677596,578,47.20000000000002" style="fill: transparent; stroke: rgb(51, 51, 51); stroke-width: 2; opacity: 1;"></path></g></g></svg>