<svg xmlns="http://www.w3.org/2000/svg" width="640" height="324" role="img" aria-labelledby="victory-container-4-title victory-container-4-desc" viewBox="0 0 640 324" style="pointer-events: all; width: 100%; height: 100%;"><g role="presentation"><line x1="15" x2="578" y1="274" y2="274" role="presentation" shape-rendering="auto" vector-effect="non-scaling-stroke" style="stroke: rgb(226, 226, 226); fill: transparent; stroke-width: 1; stroke-linejoin: round;"></line><g role="presentation"><line x1="81.26626071884692" x2="81.26626071884692" y1="274" y2="34" role="presentation" shape-rendering="auto" vector-effect="non-scaling-stroke" style="stroke: transparent; fill: transparent; stroke-width: 1; stroke-linecap: round; stroke-linejoin: round; pointer-events: none;"></line><line x1="81.26626071884692" x2="81.26626071884692" y1="274" y2="278" role="presentation" shape-rendering="auto" vector-effect="non-scaling-stroke" style="stroke: transparent; fill: transparent; size: 4px; stroke-width: 1; stroke-linecap: round; stroke-linejoin: round;"></line><text dx="0" dy="11.969999999999999" x="81.26626071884692" y="286"><tspan x="81.26626071884692" dx="0" text-anchor="middle" style="fill: rgb(153, 153, 153); font-size: 14px; font-family: inherit; stroke: transparent; letter-spacing: normal; padding: 8px; stroke-width: 0;">2017</tspan></text></g><g role="presentation"><line x1="193.74299854041232" x2="193.74299854041232" y1="274" y2="34" role="presentation" shape-rendering="auto" vector-effect="non-scaling-stroke" style="stroke: transparent; fill: transparent; stroke-width: 1; stroke-linecap: round; stroke-linejoin: round; pointer-events: none;"></line><line x1="193.74299854041232" x2="193.74299854041232" y1="274" y2="278" role="presentation" shape-rendering="auto" vector-effect="non-scaling-stroke" style="stroke: transparent; fill: transparent; size: 4px; stroke-width: 1; stroke-linecap: round; stroke-linejoin: round;"></line><text dx="0" dy="11.969999999999999" x="193.74299854041232" y="286"><tspan x="193.74299854041232" dx="0" text-anchor="middle" style="fill: rgb(153, 153, 153); font-size: 14px; font-family: inherit; stroke: transparent; letter-spacing: normal; padding: 8px; stroke-width: 0;">2018</tspan></text></g><g role="presentation"><line x1="306.2197363619777" x2="306.2197363619777" y1="274" y2="34" role="presentation" shape-rendering="auto" vector-effect="non-scaling-stroke" style="stroke: transparent; fill: transparent; stroke-width: 1; stroke-linecap: round; stroke-linejoin: round; pointer-events: none;"></line><line x1="306.2197363619777" x2="306.2197363619777" y1="274" y2="278" role="presentation" shape-rendering="auto" vector-effect="non-scaling-stroke" style="stroke: transparent; fill: transparent; size: 4px; stroke-width: 1; stroke-linecap: round; stroke-linejoin: round;"></line><text dx="0" dy="11.969999999999999" x="306.2197363619777" y="286"><tspan x="306.2197363619777" dx="0" text-anchor="middle" style="fill: rgb(153, 153, 153); font-size: 14px; font-family: inherit; stroke: transparent; letter-spacing: normal; padding: 8px; stroke-width: 0;">2019</tspan></text></g><g role="presentation"><line x1="418.69647418354316" x2="418.69647418354316" y1="274" y2="34" role="presentation" shape-rendering="auto" vector-effect="non-scaling-stroke" style="stroke: transparent; fill: transparent; stroke-width: 1; stroke-linecap: round; stroke-linejoin: round; pointer-events: none;"></line><line x1="418.69647418354316" x2="418.69647418354316" y1="274" y2="278" role="presentation" shape-rendering="auto" vector-effect="non-scaling-stroke" style="stroke: transparent; fill: transparent; size: 4px; stroke-width: 1; stroke-linecap: round; stroke-linejoin: round;"></line><text dx="0" dy="11.969999999999999" x="418.69647418354316" y="286"><tspan x="418.69647418354316" dx="0" text-anchor="middle" style="fill: rgb(153, 153, 153); font-size: 14px; font-family: inherit; stroke: transparent; letter-spacing: normal; padding: 8px; stroke-width: 0;">2020</tspan></text></g><g role="presentation"><line x1="531.4813674511951" x2="531.4813674511951" y1="274" y2="34" role="presentation" shape-rendering="auto" vector-effect="non-scaling-stroke" style="stroke: transparent; fill: transparent; stroke-width: 1; stroke-linecap: round; stroke-linejoin: round; pointer-events: none;"></line><line x1="531.4813674511951" x2="531.4813674511951" y1="274" y2="278" role="presentation" shape-rendering="auto" vector-effect="non-scaling-stroke" style="stroke: transparent; fill: transparent; size: 4px; stroke-width: 1; stroke-linecap: round; stroke-linejoin: round;"></line><text dx="0" dy="11.969999999999999" x="531.4813674511951" y="286"><tspan x="531.4813674511951" dx="0" text-anchor="middle" style="fill: rgb(153, 153, 153); font-size: 14px; font-family: inherit; stroke: transparent; letter-spacing: normal; padding: 8px; stroke-width: 0;">2021</tspan></text></g></g><g role="presentation"><line x1="578" x2="578" y1="34" y2="274" role="presentation" shape-rendering="auto" vector-effect="non-scaling-stroke" style="stroke: transparent; fill: transparent; stroke-width: 1; stroke-linejoin: round;"></line><g role="presentation"><line x1="578" x2="15" y1="252.1818181818182" y2="252.1818181818182" role="presentation" shape-rendering="auto" vector-effect="non-scaling-stroke" style="stroke: rgb(226, 226, 226); fill: transparent; stroke-width: 1; stroke-linecap: round; stroke-linejoin: round; pointer-events: none;"></line><line x1="578" x2="582" y1="252.1818181818182" y2="252.1818181818182" role="presentation" shape-rendering="auto" vector-effect="non-scaling-stroke" style="stroke: transparent; fill: transparent; size: 4px; stroke-width: 1; stroke-linecap: round; stroke-linejoin: round;"></line><text dx="0" dy="4.97" x="590" y="252.1818181818182"><tspan x="590" dx="0" text-anchor="start" style="fill: rgb(153, 153, 153); font-size: 14px; font-family: inherit; stroke: transparent; letter-spacing: normal; padding: 8px; stroke-width: 0;">$100K</tspan></text></g><g role="presentation"><line x1="578" x2="15" y1="197.63636363636363" y2="197.63636363636363" role="presentation" shape-rendering="auto" vector-effect="non-scaling-stroke" style="stroke: rgb(226, 226, 226); fill: transparent; stroke-width: 1; stroke-linecap: round; stroke-linejoin: round; pointer-events: none;"></line><line x1="578" x2="582" y1="197.63636363636363" y2="197.63636363636363" role="presentation" shape-rendering="auto" vector-effect="non-scaling-stroke" style="stroke: transparent; fill: transparent; size: 4px; stroke-width: 1; stroke-linecap: round; stroke-linejoin: round;"></line><text dx="0" dy="4.97" x="590" y="197.63636363636363"><tspan x="590" dx="0" text-anchor="start" style="fill: rgb(153, 153, 153); font-size: 14px; font-family: inherit; stroke: transparent; letter-spacing: normal; padding: 8px; stroke-width: 0;">$150K</tspan></text></g><g role="presentation"><line x1="578" x2="15" y1="143.0909090909091" y2="143.0909090909091" role="presentation" shape-rendering="auto" vector-effect="non-scaling-stroke" style="stroke: rgb(226, 226, 226); fill: transparent; stroke-width: 1; stroke-linecap: round; stroke-linejoin: round; pointer-events: none;"></line><line x1="578" x2="582" y1="143.0909090909091" y2="143.0909090909091" role="presentation" shape-rendering="auto" vector-effect="non-scaling-stroke" style="stroke: transparent; fill: transparent; size: 4px; stroke-width: 1; stroke-linecap: round; stroke-linejoin: round;"></line><text dx="0" dy="4.97" x="590" y="143.0909090909091"><tspan x="590" dx="0" text-anchor="start" style="fill: rgb(153, 153, 153); font-size: 14px; font-family: inherit; stroke: transparent; letter-spacing: normal; padding: 8px; stroke-width: 0;">$200K</tspan></text></g><g role="presentation"><line x1="578" x2="15" y1="88.54545454545456" y2="88.54545454545456" role="presentation" shape-rendering="auto" vector-effect="non-scaling-stroke" style="stroke: rgb(226, 226, 226); fill: transparent; stroke-width: 1; stroke-linecap: round; stroke-linejoin: round; pointer-events: none;"></line><line x1="578" x2="582" y1="88.54545454545456" y2="88.54545454545456" role="presentation" shape-rendering="auto" vector-effect="non-scaling-stroke" style="stroke: transparent; fill: transparent; size: 4px; stroke-width: 1; stroke-linecap: round; stroke-linejoin: round;"></line><text dx="0" dy="4.97" x="590" y="88.54545454545456"><tspan x="590" dx="0" text-anchor="start" style="fill: rgb(153, 153, 153); font-size: 14px; font-family: inherit; stroke: transparent; letter-spacing: normal; padding: 8px; stroke-width: 0;">$250K</tspan></text></g><g role="presentation"><line x1="578" x2="15" y1="34" y2="34" role="presentation" shape-rendering="auto" vector-effect="non-scaling-stroke" style="stroke: rgb(226, 226, 226); fill: transparent; stroke-width: 1; stroke-linecap: round; stroke-linejoin: round; pointer-events: none;"></line><line x1="578" x2="582" y1="34" y2="34" role="presentation" shape-rendering="auto" vector-effect="non-scaling-stroke" style="stroke: transparent; fill: transparent; size: 4px; stroke-width: 1; stroke-linecap: round; stroke-linejoin: round;"></line><text dx="0" dy="4.97" x="590" y="34"><tspan x="590" dx="0" text-anchor="start" style="fill: rgb(153, 153, 153); font-size: 14px; font-family: inherit; stroke: transparent; letter-spacing: normal; padding: 8px; stroke-width: 0;">$300K</tspan></text></g></g><g style="height: 100%; width: 100%; user-select: none;"><defs><clipPath id="victory-clip-5"><rect x="15" y="34" width="563" height="240"></rect></clipPath></defs><g clip-path="url(#victory-clip-5)"><path shape-rendering="auto" role="presentation" d="M15.30815544608648,210.07272727272726C18.389709906951285,225.6727272727273,21.471264367816094,241.27272727272728,24.5528188286809,241.27272727272728C27.73709177157453,241.27272727272728,30.921364714468165,224.9090909090909,34.1056376573618,224.9090909090909C37.28991060025543,224.9090909090909,40.47418354314906,268.54545454545456,43.658456486042695,268.54545454545456C46.7400109469075,268.54545454545456,49.821565407772304,227.63636363636363,52.90311986863711,227.63636363636363C56.08739281153075,227.63636363636363,59.271665754424376,235.8181818181818,62.45593869731801,235.8181818181818C65.54177309493402,235.8181818181818,68.62760749255003,234.27054545454544,71.71344189016602,231.17527272727273C74.89771483305965,227.98126037069727,78.0819877759533,214,81.26626071884692,214C84.45053366174056,214,87.63480660463419,239.88311688311686,90.81907954752783,246.72727272727272C93.69519704433499,252.9090909090909,96.57131454114213,256,99.44743203794928,256C102.62742504409171,256,105.80741805023415,253.45454545454547,108.98741105637657,248.36363636363637C112.06896551724138,243.43031934418207,115.15051997810617,204.23636363636365,118.23207443897098,204.23636363636365C121.41634738186463,204.23636363636365,124.60062032475825,217.8181818181818,127.7848932676519,217.8181818181818C130.8664477285167,217.8181818181818,133.9480021893815,213.8181818181818,137.02955665024632,205.8181818181818C140.21382959313993,197.5515151515152,143.39810253603358,173.5454545454545,146.5823754789272,148.54545454545456C149.76664842182083,123.54545454545453,152.95092136471445,55.81818181818181,156.1351943076081,55.81818181818181C159.2167487684729,55.81818181818181,162.2983032293377,64.18181818181817,165.37985769020253,80.9090909090909C168.56413063309614,98.1939393939393,171.74840357598978,221.63636363636363,174.9326765188834,221.63636363636363C178.0185109164994,221.63636363636363,181.10434531411542,185.4602067131738,184.19017971173142,170.36363636363637C187.37445265462506,154.78548332611092,190.55872559751867,130,193.74299854041232,130C196.92727148330596,130,200.1115444261996,175.8181818181818,203.29581736909324,175.8181818181818C206.1719348659004,175.8181818181818,209.04805236270755,158.0909090909091,211.9241698595147,158.0909090909091C215.10416286565712,158.0909090909091,218.28415587179956,183.77800441185613,221.46414887794197,196C224.5457033388068,207.84365655917046,227.62725779967158,230.36363636363637,230.7088122605364,230.36363636363637C233.89308520343002,230.36363636363637,237.07735814632366,142.89696969696965,240.26163108921727,137.63636363636363C243.3431855500821,132.54545454545453,246.4247400109469,130,249.5062944718117,130C252.69056741470536,130,255.874840357599,149.09090909090904,259.05911330049264,162.1818181818182C262.2433862433863,175.27272727272725,265.42765918627987,201.0303030303031,268.6119321291735,208.54545454545456C271.69348659003833,215.8181818181818,274.7750410509031,219.45454545454544,277.8565955117679,219.45454545454544C281.04086845466156,219.45454545454544,284.22514139755515,167.70974656411542,287.4094143404488,159.45454545454544C290.4952487380648,151.45454545454547,293.58108313568084,147.45454545454547,296.66691753329684,147.45454545454547C299.8511904761905,147.45454545454547,303.03546341908407,156.10909090909092,306.2197363619777,158.25454545454545C309.40400930487135,160.4,312.588282247765,161.47272727272727,315.77255519065864,161.47272727272727C318.6486726874658,161.47272727272727,321.52479018427294,130,324.4009076810801,130C327.58090068722254,130,330.76089369336495,130,333.94088669950736,130C337.0224411603722,130,340.10399562123695,207.45454545454544,343.18555008210177,207.45454545454544C346.3698230249954,207.45454545454544,349.55409596788905,168.66545454545457,352.7383689107827,163.8181818181818C355.8199233716475,159.12727272727273,358.9014778325123,156.78181818181818,361.9830322933771,156.78181818181818C365.16730523627075,156.78181818181818,368.35157817916433,170.36363636363637,371.535851122058,170.36363636363637C374.7201240649516,170.36363636363637,377.90439700784526,155.26681073025335,381.0886699507389,147.97272727272727C384.1702244116037,140.9139368299601,387.2517788724685,127.27272727272728,390.3333333333333,127.27272727272728C393.51760627622696,127.27272727272728,396.7018792191206,208.70909090909092,399.88615216201424,208.70909090909092C402.97198655963024,208.70909090909092,406.0578209572463,181.52653822158615,409.1436553548623,167.63636363636363C412.32792829775593,153.3030905553574,415.5122012406495,124,418.69647418354316,124C421.8807471264368,124,425.0650200693304,154,428.24929301222403,154C431.22812899106003,154,434.206964969896,137.63636363636363,437.185800948732,137.63636363636363C440.3657939548744,137.63636363636363,443.54578696101686,171.964,446.72577996715927,171.964C449.8073344280241,171.964,452.8888888888889,137.63766876592484,455.97044334975374,121C459.1547162926473,103.80774227521125,462.33898923554096,70.54545454545453,465.52326217843455,70.54545454545453C468.6048166392994,70.54545454545453,471.6863711001642,134.36363636363637,474.767925561029,134.36363636363637C477.95219850392266,134.36363636363637,481.1364714468163,124.4727272727273,484.32074438970994,121.3818181818182C487.50501733260353,118.29090909090914,490.68929027549717,119.52727272727275,493.87356321839076,115.81818181818181C496.9551176792556,112.22873900293247,500.0366721401204,72.72727272727272,503.1182266009852,72.72727272727272C506.3024995438788,72.72727272727272,509.48677248677245,75.45454545454547,512.671045429666,75.45454545454547C515.7568798272821,75.45454545454547,518.8427142248981,74.9090909090909,521.9285486225142,74.9090909090909C525.1128215654078,74.9090909090909,528.2970945083015,82.05454545454546,531.4813674511951,82.05454545454546C534.6656403940887,82.05454545454546,537.8499133369824,77.35856262381687,541.0341862798759,70.70909090909092C543.9103037766831,64.70311645708037,546.7864212734902,51.56989686371439,549.6625387702974,45.67272727272726C552.8425317764398,39.15249363269237,556.0225247825822,35.09090909090909,559.2025177887247,35.09090909090909C562.2840722495895,35.09090909090909,565.3656267104543,84.18181818181819,568.4471811713191,84.18181818181819C571.6314541142127,84.18181818181819,574.8157270571064,76,578,67.81818181818181" style="fill: transparent; stroke: rgb(51, 51, 51); stroke-width: 2; opacity: 1;"></path></g></g></svg>