<svg xmlns="http://www.w3.org/2000/svg" width="640" height="324" role="img" aria-labelledby="victory-container-4-title victory-container-4-desc" viewBox="0 0 640 324" style="pointer-events: all; width: 100%; height: 100%;"><g role="presentation"><line x1="15" x2="578" y1="274" y2="274" role="presentation" shape-rendering="auto" vector-effect="non-scaling-stroke" style="stroke: rgb(226, 226, 226); fill: transparent; stroke-width: 1; stroke-linejoin: round;"></line><g role="presentation"><line x1="81.26626071884692" x2="81.26626071884692" y1="274" y2="34" role="presentation" shape-rendering="auto" vector-effect="non-scaling-stroke" style="stroke: transparent; fill: transparent; stroke-width: 1; stroke-linecap: round; stroke-linejoin: round; pointer-events: none;"></line><line x1="81.26626071884692" x2="81.26626071884692" y1="274" y2="278" role="presentation" shape-rendering="auto" vector-effect="non-scaling-stroke" style="stroke: transparent; fill: transparent; size: 4px; stroke-width: 1; stroke-linecap: round; stroke-linejoin: round;"></line><text dx="0" dy="11.969999999999999" x="81.26626071884692" y="286"><tspan x="81.26626071884692" dx="0" text-anchor="middle" style="fill: rgb(153, 153, 153); font-size: 14px; font-family: inherit; stroke: transparent; letter-spacing: normal; padding: 8px; stroke-width: 0;">2017</tspan></text></g><g role="presentation"><line x1="193.74299854041232" x2="193.74299854041232" y1="274" y2="34" role="presentation" shape-rendering="auto" vector-effect="non-scaling-stroke" style="stroke: transparent; fill: transparent; stroke-width: 1; stroke-linecap: round; stroke-linejoin: round; pointer-events: none;"></line><line x1="193.74299854041232" x2="193.74299854041232" y1="274" y2="278" role="presentation" shape-rendering="auto" vector-effect="non-scaling-stroke" style="stroke: transparent; fill: transparent; size: 4px; stroke-width: 1; stroke-linecap: round; stroke-linejoin: round;"></line><text dx="0" dy="11.969999999999999" x="193.74299854041232" y="286"><tspan x="193.74299854041232" dx="0" text-anchor="middle" style="fill: rgb(153, 153, 153); font-size: 14px; font-family: inherit; stroke: transparent; letter-spacing: normal; padding: 8px; stroke-width: 0;">2018</tspan></text></g><g role="presentation"><line x1="306.2197363619777" x2="306.2197363619777" y1="274" y2="34" role="presentation" shape-rendering="auto" vector-effect="non-scaling-stroke" style="stroke: transparent; fill: transparent; stroke-width: 1; stroke-linecap: round; stroke-linejoin: round; pointer-events: none;"></line><line x1="306.2197363619777" x2="306.2197363619777" y1="274" y2="278" role="presentation" shape-rendering="auto" vector-effect="non-scaling-stroke" style="stroke: transparent; fill: transparent; size: 4px; stroke-width: 1; stroke-linecap: round; stroke-linejoin: round;"></line><text dx="0" dy="11.969999999999999" x="306.2197363619777" y="286"><tspan x="306.2197363619777" dx="0" text-anchor="middle" style="fill: rgb(153, 153, 153); font-size: 14px; font-family: inherit; stroke: transparent; letter-spacing: normal; padding: 8px; stroke-width: 0;">2019</tspan></text></g><g role="presentation"><line x1="418.69647418354316" x2="418.69647418354316" y1="274" y2="34" role="presentation" shape-rendering="auto" vector-effect="non-scaling-stroke" style="stroke: transparent; fill: transparent; stroke-width: 1; stroke-linecap: round; stroke-linejoin: round; pointer-events: none;"></line><line x1="418.69647418354316" x2="418.69647418354316" y1="274" y2="278" role="presentation" shape-rendering="auto" vector-effect="non-scaling-stroke" style="stroke: transparent; fill: transparent; size: 4px; stroke-width: 1; stroke-linecap: round; stroke-linejoin: round;"></line><text dx="0" dy="11.969999999999999" x="418.69647418354316" y="286"><tspan x="418.69647418354316" dx="0" text-anchor="middle" style="fill: rgb(153, 153, 153); font-size: 14px; font-family: inherit; stroke: transparent; letter-spacing: normal; padding: 8px; stroke-width: 0;">2020</tspan></text></g><g role="presentation"><line x1="531.4813674511951" x2="531.4813674511951" y1="274" y2="34" role="presentation" shape-rendering="auto" vector-effect="non-scaling-stroke" style="stroke: transparent; fill: transparent; stroke-width: 1; stroke-linecap: round; stroke-linejoin: round; pointer-events: none;"></line><line x1="531.4813674511951" x2="531.4813674511951" y1="274" y2="278" role="presentation" shape-rendering="auto" vector-effect="non-scaling-stroke" style="stroke: transparent; fill: transparent; size: 4px; stroke-width: 1; stroke-linecap: round; stroke-linejoin: round;"></line><text dx="0" dy="11.969999999999999" x="531.4813674511951" y="286"><tspan x="531.4813674511951" dx="0" text-anchor="middle" style="fill: rgb(153, 153, 153); font-size: 14px; font-family: inherit; stroke: transparent; letter-spacing: normal; padding: 8px; stroke-width: 0;">2021</tspan></text></g></g><g role="presentation"><line x1="578" x2="578" y1="34" y2="274" role="presentation" shape-rendering="auto" vector-effect="non-scaling-stroke" style="stroke: transparent; fill: transparent; stroke-width: 1; stroke-linejoin: round;"></line><g role="presentation"><line x1="578" x2="15" y1="243.03225806451613" y2="243.03225806451613" role="presentation" shape-rendering="auto" vector-effect="non-scaling-stroke" style="stroke: rgb(226, 226, 226); fill: transparent; stroke-width: 1; stroke-linecap: round; stroke-linejoin: round; pointer-events: none;"></line><line x1="578" x2="582" y1="243.03225806451613" y2="243.03225806451613" role="presentation" shape-rendering="auto" vector-effect="non-scaling-stroke" style="stroke: transparent; fill: transparent; size: 4px; stroke-width: 1; stroke-linecap: round; stroke-linejoin: round;"></line><text dx="0" dy="4.97" x="590" y="243.03225806451613"><tspan x="590" dx="0" text-anchor="start" style="fill: rgb(153, 153, 153); font-size: 14px; font-family: inherit; stroke: transparent; letter-spacing: normal; padding: 8px; stroke-width: 0;">$100K</tspan></text></g><g role="presentation"><line x1="578" x2="15" y1="204.32258064516128" y2="204.32258064516128" role="presentation" shape-rendering="auto" vector-effect="non-scaling-stroke" style="stroke: rgb(226, 226, 226); fill: transparent; stroke-width: 1; stroke-linecap: round; stroke-linejoin: round; pointer-events: none;"></line><line x1="578" x2="582" y1="204.32258064516128" y2="204.32258064516128" role="presentation" shape-rendering="auto" vector-effect="non-scaling-stroke" style="stroke: transparent; fill: transparent; size: 4px; stroke-width: 1; stroke-linecap: round; stroke-linejoin: round;"></line><text dx="0" dy="4.97" x="590" y="204.32258064516128"><tspan x="590" dx="0" text-anchor="start" style="fill: rgb(153, 153, 153); font-size: 14px; font-family: inherit; stroke: transparent; letter-spacing: normal; padding: 8px; stroke-width: 0;">$150K</tspan></text></g><g role="presentation"><line x1="578" x2="15" y1="165.61290322580646" y2="165.61290322580646" role="presentation" shape-rendering="auto" vector-effect="non-scaling-stroke" style="stroke: rgb(226, 226, 226); fill: transparent; stroke-width: 1; stroke-linecap: round; stroke-linejoin: round; pointer-events: none;"></line><line x1="578" x2="582" y1="165.61290322580646" y2="165.61290322580646" role="presentation" shape-rendering="auto" vector-effect="non-scaling-stroke" style="stroke: transparent; fill: transparent; size: 4px; stroke-width: 1; stroke-linecap: round; stroke-linejoin: round;"></line><text dx="0" dy="4.97" x="590" y="165.61290322580646"><tspan x="590" dx="0" text-anchor="start" style="fill: rgb(153, 153, 153); font-size: 14px; font-family: inherit; stroke: transparent; letter-spacing: normal; padding: 8px; stroke-width: 0;">$200K</tspan></text></g><g role="presentation"><line x1="578" x2="15" y1="126.90322580645162" y2="126.90322580645162" role="presentation" shape-rendering="auto" vector-effect="non-scaling-stroke" style="stroke: rgb(226, 226, 226); fill: transparent; stroke-width: 1; stroke-linecap: round; stroke-linejoin: round; pointer-events: none;"></line><line x1="578" x2="582" y1="126.90322580645162" y2="126.90322580645162" role="presentation" shape-rendering="auto" vector-effect="non-scaling-stroke" style="stroke: transparent; fill: transparent; size: 4px; stroke-width: 1; stroke-linecap: round; stroke-linejoin: round;"></line><text dx="0" dy="4.97" x="590" y="126.90322580645162"><tspan x="590" dx="0" text-anchor="start" style="fill: rgb(153, 153, 153); font-size: 14px; font-family: inherit; stroke: transparent; letter-spacing: normal; padding: 8px; stroke-width: 0;">$250K</tspan></text></g><g role="presentation"><line x1="578" x2="15" y1="88.19354838709677" y2="88.19354838709677" role="presentation" shape-rendering="auto" vector-effect="non-scaling-stroke" style="stroke: rgb(226, 226, 226); fill: transparent; stroke-width: 1; stroke-linecap: round; stroke-linejoin: round; pointer-events: none;"></line><line x1="578" x2="582" y1="88.19354838709677" y2="88.19354838709677" role="presentation" shape-rendering="auto" vector-effect="non-scaling-stroke" style="stroke: transparent; fill: transparent; size: 4px; stroke-width: 1; stroke-linecap: round; stroke-linejoin: round;"></line><text dx="0" dy="4.97" x="590" y="88.19354838709677"><tspan x="590" dx="0" text-anchor="start" style="fill: rgb(153, 153, 153); font-size: 14px; font-family: inherit; stroke: transparent; letter-spacing: normal; padding: 8px; stroke-width: 0;">$300K</tspan></text></g><g role="presentation"><line x1="578" x2="15" y1="49.48387096774195" y2="49.48387096774195" role="presentation" shape-rendering="auto" vector-effect="non-scaling-stroke" style="stroke: rgb(226, 226, 226); fill: transparent; stroke-width: 1; stroke-linecap: round; stroke-linejoin: round; pointer-events: none;"></line><line x1="578" x2="582" y1="49.48387096774195" y2="49.48387096774195" role="presentation" shape-rendering="auto" vector-effect="non-scaling-stroke" style="stroke: transparent; fill: transparent; size: 4px; stroke-width: 1; stroke-linecap: round; stroke-linejoin: round;"></line><text dx="0" dy="4.97" x="590" y="49.48387096774195"><tspan x="590" dx="0" text-anchor="start" style="fill: rgb(153, 153, 153); font-size: 14px; font-family: inherit; stroke: transparent; letter-spacing: normal; padding: 8px; stroke-width: 0;">$350K</tspan></text></g></g><g style="height: 100%; width: 100%; user-select: none;"><defs><clipPath id="victory-clip-5"><rect x="15" y="34" width="563" height="240"></rect></clipPath></defs><g clip-path="url(#victory-clip-5)"><path shape-rendering="auto" role="presentation" d="M24.5528188286809,139.67741935483872C27.73709177157453,206.06451612903226,30.921364714468165,272.4516129032258,34.1056376573618,272.4516129032258C37.28991060025543,272.4516129032258,40.47418354314906,227.38938833068923,43.658456486042695,194.6451612903226C46.7400109469075,162.95719963835487,49.821565407772304,80.45161290322582,52.90311986863711,80.45161290322582C56.08739281153075,80.45161290322582,59.271665754424376,141.2258064516129,62.45593869731801,141.2258064516129C65.54177309493402,141.2258064516129,68.62760749255003,109.48387096774195,71.71344189016602,109.48387096774195C74.89771483305965,109.48387096774195,78.0819877759533,258.51612903225805,81.26626071884692,258.51612903225805C84.45053366174056,258.51612903225805,87.63480660463419,251.41935483870967,90.81907954752783,237.2258064516129C93.69519704433499,224.40582726326747,96.57131454114213,140.45161290322582,99.44743203794928,140.45161290322582C102.62742504409171,140.45161290322582,105.80741805023415,143.23870967741937,108.98741105637657,143.23870967741937C112.06896551724138,143.23870967741937,115.15051997810617,122.11628597260368,118.23207443897098,113.74193548387098C121.41634738186463,105.08843997884716,124.60062032475825,93.78494623655912,127.7848932676519,92.4516129032258C130.8664477285167,91.16129032258063,133.9480021893815,90.51612903225805,137.02955665024632,90.51612903225805C140.21382959313993,90.51612903225805,143.39810253603358,92.4516129032258,146.5823754789272,92.4516129032258C149.76664842182083,92.4516129032258,152.95092136471445,88.96774193548387,156.1351943076081,88.96774193548387C159.2167487684729,88.96774193548387,162.2983032293377,181.09677419354838,165.37985769020253,181.09677419354838C168.56413063309614,181.09677419354838,171.74840357598978,146.46774918867345,174.9326765188834,130.7741935483871C178.0185109164994,115.56578814966869,181.10434531411542,88.19354838709677,184.19017971173142,88.19354838709677C187.37445265462506,88.19354838709677,190.55872559751867,192.70967741935485,193.74299854041232,192.70967741935485C196.92727148330596,192.70967741935485,200.1115444261996,84.32258064516131,203.29581736909324,84.32258064516131C206.1719348659004,84.32258064516131,209.04805236270755,87.35483870967742,211.9241698595147,93.41935483870967C215.10416286565712,100.12461597542236,218.28415587179956,132.6776653143122,221.46414887794197,152.1032258064516C224.5457033388068,170.9274567005841,227.62725779967158,208.19354838709677,230.7088122605364,208.19354838709677C233.89308520343002,208.19354838709677,237.07735814632366,132.3569892473118,240.26163108921727,115.29032258064518C243.3431855500821,98.77419354838709,246.4247400109469,90.51612903225805,249.5062944718117,90.51612903225805C252.69056741470536,90.51612903225805,255.874840357599,127.67741935483872,259.05911330049264,127.67741935483872C262.2433862433863,127.67741935483872,265.42765918627987,126.67096774193548,268.6119321291735,124.65806451612903C271.69348659003833,122.71009365244535,274.7750410509031,70.38709677419354,277.8565955117679,70.38709677419354C281.04086845466156,70.38709677419354,284.22514139755515,212.06451612903226,287.4094143404488,212.06451612903226C290.4952487380648,212.06451612903226,293.58108313568084,60.1007741935484,296.66691753329684,60.1007741935484C299.8511904761905,60.1007741935484,303.03546341908407,150.60819354838713,306.2197363619777,179.16129032258067C309.40400930487135,207.71438709677437,312.588282247765,231.41935483870967,315.77255519065864,231.41935483870967C318.6486726874658,231.41935483870967,321.52479018427294,102.90322580645162,324.4009076810801,102.90322580645162C327.58090068722254,102.90322580645162,330.76089369336495,130.7741935483871,333.94088669950736,130.7741935483871C337.0224411603722,130.7741935483871,340.10399562123695,116.00490322580643,343.18555008210177,116.00490322580643C346.3698230249954,116.00490322580643,349.55409596788905,200.83870967741936,352.7383689107827,200.83870967741936C355.8199233716475,200.83870967741936,358.9014778325123,86.25806451612902,361.9830322933771,86.25806451612902C365.16730523627075,86.25806451612902,368.35157817916433,88.06451612903226,371.535851122058,91.67741935483872C374.7201240649516,95.29032258064521,377.90439700784526,123.07096774193548,381.0886699507389,123.07096774193548C384.1702244116037,123.07096774193548,387.2517788724685,114.00205387147949,390.3333333333333,108.32258064516128C393.51760627622696,102.45379164463245,396.7018792191206,88.32156413583282,399.88615216201424,88.27096774193546C402.97198655963024,88.22193548387095,406.0578209572463,88.24645161290321,409.1436553548623,88.1974193548387C412.32792829775593,88.14682296094135,415.5122012406495,49.48387096774195,418.69647418354316,49.48387096774195C421.8807471264368,49.48387096774195,425.0650200693304,119.93548387096774,428.24929301222403,119.93548387096774C431.22812899106003,119.93548387096774,434.206964969896,38.84645161290322,437.185800948732,38.84645161290322C440.3657939548744,38.84645161290322,443.54578696101686,104.45161290322582,446.72577996715927,104.45161290322582C449.8073344280241,104.45161290322582,452.8888888888889,97.67741935483872,455.97044334975374,97.67741935483872C459.1547162926473,97.67741935483872,462.33898923554096,105.2258064516129,465.52326217843455,105.2258064516129C468.6048166392994,105.2258064516129,471.6863711001642,102.06273519728428,474.767925561029,96.01290322580647C477.95219850392266,89.76141018861274,481.1364714468163,67.71612903225807,484.32074438970994,67.71612903225807C487.50501733260353,67.71612903225807,490.68929027549717,109.90967741935484,493.87356321839076,109.90967741935484C496.9551176792556,109.90967741935484,500.0366721401204,90.30884495317383,503.1182266009852,89.50967741935486C506.3024995438788,88.68387096774192,509.48677248677245,89.0967741935484,512.671045429666,88.27096774193546C515.7568798272821,87.4706902532084,518.8427142248981,78.24670967741935,521.9285486225142,78.24670967741935C525.1128215654078,78.24670967741935,528.2970945083015,85.56154838709676,531.4813674511951,88.19354838709677C534.6656403940887,90.82554838709677,537.8499133369824,94.03870967741935,541.0341862798759,94.03870967741935C543.9103037766831,94.03870967741935,546.7864212734902,81.2683870967742,549.6625387702974,81.2683870967742C552.8425317764398,81.2683870967742,556.0225247825822,88.68109971899447,559.2025177887247,92.14193548387098C562.2840722495895,95.49563905144984,565.3656267104543,101.74193548387098,568.4471811713191,101.74193548387098C571.6314541142127,101.74193548387098,574.8157270571064,89.16129032258064,578,76.5806451612903" style="fill: transparent; stroke: rgb(51, 51, 51); stroke-width: 2; opacity: 1;"></path></g></g></svg>