<svg xmlns="http://www.w3.org/2000/svg" width="640" height="324" role="img" aria-labelledby="victory-container-4-title victory-container-4-desc" viewBox="0 0 640 324" style="pointer-events: all; width: 100%; height: 100%;"><g role="presentation"><line x1="15" x2="578" y1="274" y2="274" role="presentation" shape-rendering="auto" vector-effect="non-scaling-stroke" style="stroke: rgb(226, 226, 226); fill: transparent; stroke-width: 1; stroke-linejoin: round;"></line><g role="presentation"><line x1="81.26626071884692" x2="81.26626071884692" y1="274" y2="34" role="presentation" shape-rendering="auto" vector-effect="non-scaling-stroke" style="stroke: transparent; fill: transparent; stroke-width: 1; stroke-linecap: round; stroke-linejoin: round; pointer-events: none;"></line><line x1="81.26626071884692" x2="81.26626071884692" y1="274" y2="278" role="presentation" shape-rendering="auto" vector-effect="non-scaling-stroke" style="stroke: transparent; fill: transparent; size: 4px; stroke-width: 1; stroke-linecap: round; stroke-linejoin: round;"></line><text dx="0" dy="11.969999999999999" x="81.26626071884692" y="286"><tspan x="81.26626071884692" dx="0" text-anchor="middle" style="fill: rgb(153, 153, 153); font-size: 14px; font-family: inherit; stroke: transparent; letter-spacing: normal; padding: 8px; stroke-width: 0;">2017</tspan></text></g><g role="presentation"><line x1="193.74299854041232" x2="193.74299854041232" y1="274" y2="34" role="presentation" shape-rendering="auto" vector-effect="non-scaling-stroke" style="stroke: transparent; fill: transparent; stroke-width: 1; stroke-linecap: round; stroke-linejoin: round; pointer-events: none;"></line><line x1="193.74299854041232" x2="193.74299854041232" y1="274" y2="278" role="presentation" shape-rendering="auto" vector-effect="non-scaling-stroke" style="stroke: transparent; fill: transparent; size: 4px; stroke-width: 1; stroke-linecap: round; stroke-linejoin: round;"></line><text dx="0" dy="11.969999999999999" x="193.74299854041232" y="286"><tspan x="193.74299854041232" dx="0" text-anchor="middle" style="fill: rgb(153, 153, 153); font-size: 14px; font-family: inherit; stroke: transparent; letter-spacing: normal; padding: 8px; stroke-width: 0;">2018</tspan></text></g><g role="presentation"><line x1="306.2197363619777" x2="306.2197363619777" y1="274" y2="34" role="presentation" shape-rendering="auto" vector-effect="non-scaling-stroke" style="stroke: transparent; fill: transparent; stroke-width: 1; stroke-linecap: round; stroke-linejoin: round; pointer-events: none;"></line><line x1="306.2197363619777" x2="306.2197363619777" y1="274" y2="278" role="presentation" shape-rendering="auto" vector-effect="non-scaling-stroke" style="stroke: transparent; fill: transparent; size: 4px; stroke-width: 1; stroke-linecap: round; stroke-linejoin: round;"></line><text dx="0" dy="11.969999999999999" x="306.2197363619777" y="286"><tspan x="306.2197363619777" dx="0" text-anchor="middle" style="fill: rgb(153, 153, 153); font-size: 14px; font-family: inherit; stroke: transparent; letter-spacing: normal; padding: 8px; stroke-width: 0;">2019</tspan></text></g><g role="presentation"><line x1="418.69647418354316" x2="418.69647418354316" y1="274" y2="34" role="presentation" shape-rendering="auto" vector-effect="non-scaling-stroke" style="stroke: transparent; fill: transparent; stroke-width: 1; stroke-linecap: round; stroke-linejoin: round; pointer-events: none;"></line><line x1="418.69647418354316" x2="418.69647418354316" y1="274" y2="278" role="presentation" shape-rendering="auto" vector-effect="non-scaling-stroke" style="stroke: transparent; fill: transparent; size: 4px; stroke-width: 1; stroke-linecap: round; stroke-linejoin: round;"></line><text dx="0" dy="11.969999999999999" x="418.69647418354316" y="286"><tspan x="418.69647418354316" dx="0" text-anchor="middle" style="fill: rgb(153, 153, 153); font-size: 14px; font-family: inherit; stroke: transparent; letter-spacing: normal; padding: 8px; stroke-width: 0;">2020</tspan></text></g><g role="presentation"><line x1="531.4813674511951" x2="531.4813674511951" y1="274" y2="34" role="presentation" shape-rendering="auto" vector-effect="non-scaling-stroke" style="stroke: transparent; fill: transparent; stroke-width: 1; stroke-linecap: round; stroke-linejoin: round; pointer-events: none;"></line><line x1="531.4813674511951" x2="531.4813674511951" y1="274" y2="278" role="presentation" shape-rendering="auto" vector-effect="non-scaling-stroke" style="stroke: transparent; fill: transparent; size: 4px; stroke-width: 1; stroke-linecap: round; stroke-linejoin: round;"></line><text dx="0" dy="11.969999999999999" x="531.4813674511951" y="286"><tspan x="531.4813674511951" dx="0" text-anchor="middle" style="fill: rgb(153, 153, 153); font-size: 14px; font-family: inherit; stroke: transparent; letter-spacing: normal; padding: 8px; stroke-width: 0;">2021</tspan></text></g></g><g role="presentation"><line x1="578" x2="578" y1="34" y2="274" role="presentation" shape-rendering="auto" vector-effect="non-scaling-stroke" style="stroke: transparent; fill: transparent; stroke-width: 1; stroke-linejoin: round;"></line><g role="presentation"><line x1="578" x2="15" y1="274" y2="274" role="presentation" shape-rendering="auto" vector-effect="non-scaling-stroke" style="stroke: rgb(226, 226, 226); fill: transparent; stroke-width: 1; stroke-linecap: round; stroke-linejoin: round; pointer-events: none;"></line><line x1="578" x2="582" y1="274" y2="274" role="presentation" shape-rendering="auto" vector-effect="non-scaling-stroke" style="stroke: transparent; fill: transparent; size: 4px; stroke-width: 1; stroke-linecap: round; stroke-linejoin: round;"></line><text dx="0" dy="4.97" x="590" y="274"><tspan x="590" dx="0" text-anchor="start" style="fill: rgb(153, 153, 153); font-size: 14px; font-family: inherit; stroke: transparent; letter-spacing: normal; padding: 8px; stroke-width: 0;">$500K</tspan></text></g><g role="presentation"><line x1="578" x2="15" y1="239.71428571428572" y2="239.71428571428572" role="presentation" shape-rendering="auto" vector-effect="non-scaling-stroke" style="stroke: rgb(226, 226, 226); fill: transparent; stroke-width: 1; stroke-linecap: round; stroke-linejoin: round; pointer-events: none;"></line><line x1="578" x2="582" y1="239.71428571428572" y2="239.71428571428572" role="presentation" shape-rendering="auto" vector-effect="non-scaling-stroke" style="stroke: transparent; fill: transparent; size: 4px; stroke-width: 1; stroke-linecap: round; stroke-linejoin: round;"></line><text dx="0" dy="4.97" x="590" y="239.71428571428572"><tspan x="590" dx="0" text-anchor="start" style="fill: rgb(153, 153, 153); font-size: 14px; font-family: inherit; stroke: transparent; letter-spacing: normal; padding: 8px; stroke-width: 0;">$600K</tspan></text></g><g role="presentation"><line x1="578" x2="15" y1="205.42857142857144" y2="205.42857142857144" role="presentation" shape-rendering="auto" vector-effect="non-scaling-stroke" style="stroke: rgb(226, 226, 226); fill: transparent; stroke-width: 1; stroke-linecap: round; stroke-linejoin: round; pointer-events: none;"></line><line x1="578" x2="582" y1="205.42857142857144" y2="205.42857142857144" role="presentation" shape-rendering="auto" vector-effect="non-scaling-stroke" style="stroke: transparent; fill: transparent; size: 4px; stroke-width: 1; stroke-linecap: round; stroke-linejoin: round;"></line><text dx="0" dy="4.97" x="590" y="205.42857142857144"><tspan x="590" dx="0" text-anchor="start" style="fill: rgb(153, 153, 153); font-size: 14px; font-family: inherit; stroke: transparent; letter-spacing: normal; padding: 8px; stroke-width: 0;">$700K</tspan></text></g><g role="presentation"><line x1="578" x2="15" y1="171.14285714285717" y2="171.14285714285717" role="presentation" shape-rendering="auto" vector-effect="non-scaling-stroke" style="stroke: rgb(226, 226, 226); fill: transparent; stroke-width: 1; stroke-linecap: round; stroke-linejoin: round; pointer-events: none;"></line><line x1="578" x2="582" y1="171.14285714285717" y2="171.14285714285717" role="presentation" shape-rendering="auto" vector-effect="non-scaling-stroke" style="stroke: transparent; fill: transparent; size: 4px; stroke-width: 1; stroke-linecap: round; stroke-linejoin: round;"></line><text dx="0" dy="4.97" x="590" y="171.14285714285717"><tspan x="590" dx="0" text-anchor="start" style="fill: rgb(153, 153, 153); font-size: 14px; font-family: inherit; stroke: transparent; letter-spacing: normal; padding: 8px; stroke-width: 0;">$800K</tspan></text></g><g role="presentation"><line x1="578" x2="15" y1="136.85714285714286" y2="136.85714285714286" role="presentation" shape-rendering="auto" vector-effect="non-scaling-stroke" style="stroke: rgb(226, 226, 226); fill: transparent; stroke-width: 1; stroke-linecap: round; stroke-linejoin: round; pointer-events: none;"></line><line x1="578" x2="582" y1="136.85714285714286" y2="136.85714285714286" role="presentation" shape-rendering="auto" vector-effect="non-scaling-stroke" style="stroke: transparent; fill: transparent; size: 4px; stroke-width: 1; stroke-linecap: round; stroke-linejoin: round;"></line><text dx="0" dy="4.97" x="590" y="136.85714285714286"><tspan x="590" dx="0" text-anchor="start" style="fill: rgb(153, 153, 153); font-size: 14px; font-family: inherit; stroke: transparent; letter-spacing: normal; padding: 8px; stroke-width: 0;">$900K</tspan></text></g><g role="presentation"><line x1="578" x2="15" y1="102.57142857142856" y2="102.57142857142856" role="presentation" shape-rendering="auto" vector-effect="non-scaling-stroke" style="stroke: rgb(226, 226, 226); fill: transparent; stroke-width: 1; stroke-linecap: round; stroke-linejoin: round; pointer-events: none;"></line><line x1="578" x2="582" y1="102.57142857142856" y2="102.57142857142856" role="presentation" shape-rendering="auto" vector-effect="non-scaling-stroke" style="stroke: transparent; fill: transparent; size: 4px; stroke-width: 1; stroke-linecap: round; stroke-linejoin: round;"></line><text dx="0" dy="4.97" x="590" y="102.57142857142856"><tspan x="590" dx="0" text-anchor="start" style="fill: rgb(153, 153, 153); font-size: 14px; font-family: inherit; stroke: transparent; letter-spacing: normal; padding: 8px; stroke-width: 0;">$1.0M</tspan></text></g><g role="presentation"><line x1="578" x2="15" y1="68.2857142857143" y2="68.2857142857143" role="presentation" shape-rendering="auto" vector-effect="non-scaling-stroke" style="stroke: rgb(226, 226, 226); fill: transparent; stroke-width: 1; stroke-linecap: round; stroke-linejoin: round; pointer-events: none;"></line><line x1="578" x2="582" y1="68.2857142857143" y2="68.2857142857143" role="presentation" shape-rendering="auto" vector-effect="non-scaling-stroke" style="stroke: transparent; fill: transparent; size: 4px; stroke-width: 1; stroke-linecap: round; stroke-linejoin: round;"></line><text dx="0" dy="4.97" x="590" y="68.2857142857143"><tspan x="590" dx="0" text-anchor="start" style="fill: rgb(153, 153, 153); font-size: 14px; font-family: inherit; stroke: transparent; letter-spacing: normal; padding: 8px; stroke-width: 0;">$1.1M</tspan></text></g><g role="presentation"><line x1="578" x2="15" y1="34" y2="34" role="presentation" shape-rendering="auto" vector-effect="non-scaling-stroke" style="stroke: rgb(226, 226, 226); fill: transparent; stroke-width: 1; stroke-linecap: round; stroke-linejoin: round; pointer-events: none;"></line><line x1="578" x2="582" y1="34" y2="34" role="presentation" shape-rendering="auto" vector-effect="non-scaling-stroke" style="stroke: transparent; fill: transparent; size: 4px; stroke-width: 1; stroke-linecap: round; stroke-linejoin: round;"></line><text dx="0" dy="4.97" x="590" y="34"><tspan x="590" dx="0" text-anchor="start" style="fill: rgb(153, 153, 153); font-size: 14px; font-family: inherit; stroke: transparent; letter-spacing: normal; padding: 8px; stroke-width: 0;">$1.2M</tspan></text></g></g><g style="height: 100%; width: 100%; user-select: none;"><defs><clipPath id="victory-clip-5"><rect x="15" y="34" width="563" height="240"></rect></clipPath></defs><g clip-path="url(#victory-clip-5)"><path shape-rendering="auto" role="presentation" d="M15.30815544608648,102.74285714285716C18.389709906951285,154.3,21.471264367816094,205.85714285714286,24.5528188286809,205.85714285714286C27.73709177157453,205.85714285714286,30.921364714468165,198.17142857142858,34.1056376573618,182.8C37.28991060025543,167.42857142857144,40.47418354314906,102.57142857142856,43.658456486042695,102.57142857142856C46.7400109469075,102.57142857142856,49.821565407772304,205.20737327188942,52.90311986863711,205.42857142857144C56.08739281153075,205.65714285714287,59.271665754424376,205.54285714285714,62.45593869731801,205.77142857142857C65.54177309493402,205.99293394777266,68.62760749255003,206.34285714285716,71.71344189016602,207.4857142857143C74.89771483305965,208.6650287299386,78.0819877759533,262.1714285714286,81.26626071884692,262.1714285714286C84.45053366174056,262.1714285714286,87.63480660463419,126.99142857142857,90.81907954752783,126.99142857142857C93.69519704433499,126.99142857142857,96.57131454114213,230.28571428571428,99.44743203794928,230.28571428571428C102.62742504409171,230.28571428571428,105.80741805023415,174.17215332704058,108.98741105637657,157.42857142857144C112.06896551724138,141.20329691053945,115.15051997810617,130,118.23207443897098,130C121.41634738186463,130,124.60062032475825,188.28571428571428,127.7848932676519,188.28571428571428C130.8664477285167,188.28571428571428,133.9480021893815,174.4239631336406,137.02955665024632,160.85714285714286C140.21382959313993,146.83809523809526,143.39810253603358,104.62857142857143,146.5823754789272,104.62857142857143C149.76664842182083,104.62857142857143,152.95092136471445,115.37142857142857,156.1351943076081,136.85714285714286C159.2167487684729,157.64976958525352,162.2983032293377,231.14285714285714,165.37985769020253,231.14285714285714C168.56413063309614,231.14285714285714,171.74840357598978,139,174.9326765188834,139C178.0185109164994,139,181.10434531411542,267.74285714285713,184.19017971173142,267.74285714285713C187.37445265462506,267.74285714285713,190.55872559751867,265.8285714285714,193.74299854041232,262C196.92727148330596,258.1714285714286,200.1115444261996,172.85714285714286,203.29581736909324,172.85714285714286C206.1719348659004,172.85714285714286,209.04805236270755,174.8,211.9241698595147,178.68571428571428C215.10416286565712,182.98197278911562,218.28415587179956,204.57142857142856,221.46414887794197,204.57142857142856C224.5457033388068,204.57142857142856,227.62725779967158,146.28571428571428,230.7088122605364,146.28571428571428C233.89308520343002,146.28571428571428,237.07735814632366,156.74285714285713,240.26163108921727,156.74285714285713C243.3431855500821,156.74285714285713,246.4247400109469,143.02857142857144,249.5062944718117,143.02857142857144C252.69056741470536,143.02857142857144,255.874840357599,154.42857142857142,259.05911330049264,159.14285714285714C262.2433862433863,163.85714285714283,265.42765918627987,171.3142857142857,268.6119321291735,171.3142857142857C271.69348659003833,171.3142857142857,274.7750410509031,100.85714285714286,277.8565955117679,100.85714285714286C281.04086845466156,100.85714285714286,284.22514139755515,176.67918684366956,287.4094143404488,184.85714285714286C290.4952487380648,192.7822857142857,293.58108313568084,196.74485714285714,296.66691753329684,196.74485714285714C299.8511904761905,196.74485714285714,303.03546341908407,170.07142857142856,306.2197363619777,170.07142857142856C309.40400930487135,170.07142857142856,312.588282247765,247.85714285714286,315.77255519065864,247.85714285714286C318.6486726874658,247.85714285714286,321.52479018427294,204.57142857142856,324.4009076810801,204.57142857142856C327.58090068722254,204.57142857142856,330.76089369336495,205.60000000000002,333.94088669950736,205.60000000000002C337.0224411603722,205.60000000000002,340.10399562123695,176.41900732794429,343.18555008210177,148.85714285714283C346.3698230249954,120.37654957064788,349.55409596788905,35.71428571428572,352.7383689107827,35.71428571428572C355.8199233716475,35.71428571428572,358.9014778325123,171.3226857142857,361.9830322933771,171.3226857142857C365.16730523627075,171.3226857142857,368.35157817916433,132.01154285714284,371.535851122058,132.01154285714284C374.7201240649516,132.01154285714284,377.90439700784526,138.23725714285715,381.0886699507389,150.68868571428573C384.1702244116037,162.73845529953914,387.2517788724685,222.57142857142858,390.3333333333333,222.57142857142858C393.51760627622696,222.57142857142858,396.7018792191206,130,399.88615216201424,130C402.97198655963024,130,406.0578209572463,171.58643114033015,409.1436553548623,188.81714285714287C412.32792829775593,206.597516667557,415.5122012406495,234.57142857142856,418.69647418354316,234.57142857142856C421.8807471264368,234.57142857142856,425.0650200693304,191.16232873563214,428.24929301222403,169.3888C431.22812899106003,149.02001505376342,434.206964969896,113.25866641030572,437.185800948732,108.16171428571428C440.3657939548744,102.72057142857143,443.54578696101686,100,446.72577996715927,100C449.8073344280241,100,452.8888888888889,215.71428571428572,455.97044334975374,215.71428571428572C459.1547162926473,215.71428571428572,462.33898923554096,209.42857142857142,465.52326217843455,196.85714285714283C468.6048166392994,184.69124423963112,471.6863711001642,91.52114285714285,474.767925561029,91.52114285714285C477.95219850392266,91.52114285714285,481.1364714468163,121.50114285714277,484.32074438970994,136.85714285714286C487.50501733260353,152.21314285714277,490.68929027549717,183.65714285714284,493.87356321839076,183.65714285714284C496.9551176792556,183.65714285714284,500.0366721401204,130,503.1182266009852,130C506.3024995438788,130,509.48677248677245,179.71428571428572,512.671045429666,179.71428571428572C515.7568798272821,179.71428571428572,518.8427142248981,148.53142857142856,521.9285486225142,148.53142857142856C525.1128215654078,148.53142857142856,528.2970945083015,150.3542857142857,531.4813674511951,154C534.6656403940887,157.6457142857143,537.8499133369824,181.42857142857144,541.0341862798759,181.42857142857144C543.9103037766831,181.42857142857144,546.7864212734902,180.74285714285713,549.6625387702974,180.74285714285713C552.8425317764398,180.74285714285713,556.0225247825822,200.52691428571427,559.2025177887247,200.52691428571427C562.2840722495895,200.52691428571427,565.3656267104543,166.04085901639348,568.4471811713191,148.85714285714283C571.6314541142127,131.10063615925066,574.8157270571064,113.40746093676819,578,95.71428571428572" style="fill: transparent; stroke: rgb(51, 51, 51); stroke-width: 2; opacity: 1;"></path></g></g></svg>