<svg xmlns="http://www.w3.org/2000/svg" width="640" height="324" role="img" aria-labelledby="victory-container-4-title victory-container-4-desc" viewBox="0 0 640 324" style="pointer-events: all; width: 100%; height: 100%;"><g role="presentation"><line x1="15" x2="578" y1="274" y2="274" role="presentation" shape-rendering="auto" vector-effect="non-scaling-stroke" style="stroke: rgb(226, 226, 226); fill: transparent; stroke-width: 1; stroke-linejoin: round;"></line><g role="presentation"><line x1="81.26626071884692" x2="81.26626071884692" y1="274" y2="34" role="presentation" shape-rendering="auto" vector-effect="non-scaling-stroke" style="stroke: transparent; fill: transparent; stroke-width: 1; stroke-linecap: round; stroke-linejoin: round; pointer-events: none;"></line><line x1="81.26626071884692" x2="81.26626071884692" y1="274" y2="278" role="presentation" shape-rendering="auto" vector-effect="non-scaling-stroke" style="stroke: transparent; fill: transparent; size: 4px; stroke-width: 1; stroke-linecap: round; stroke-linejoin: round;"></line><text dx="0" dy="11.969999999999999" x="81.26626071884692" y="286"><tspan x="81.26626071884692" dx="0" text-anchor="middle" style="fill: rgb(153, 153, 153); font-size: 14px; font-family: inherit; stroke: transparent; letter-spacing: normal; padding: 8px; stroke-width: 0;">2017</tspan></text></g><g role="presentation"><line x1="193.74299854041232" x2="193.74299854041232" y1="274" y2="34" role="presentation" shape-rendering="auto" vector-effect="non-scaling-stroke" style="stroke: transparent; fill: transparent; stroke-width: 1; stroke-linecap: round; stroke-linejoin: round; pointer-events: none;"></line><line x1="193.74299854041232" x2="193.74299854041232" y1="274" y2="278" role="presentation" shape-rendering="auto" vector-effect="non-scaling-stroke" style="stroke: transparent; fill: transparent; size: 4px; stroke-width: 1; stroke-linecap: round; stroke-linejoin: round;"></line><text dx="0" dy="11.969999999999999" x="193.74299854041232" y="286"><tspan x="193.74299854041232" dx="0" text-anchor="middle" style="fill: rgb(153, 153, 153); font-size: 14px; font-family: inherit; stroke: transparent; letter-spacing: normal; padding: 8px; stroke-width: 0;">2018</tspan></text></g><g role="presentation"><line x1="306.2197363619777" x2="306.2197363619777" y1="274" y2="34" role="presentation" shape-rendering="auto" vector-effect="non-scaling-stroke" style="stroke: transparent; fill: transparent; stroke-width: 1; stroke-linecap: round; stroke-linejoin: round; pointer-events: none;"></line><line x1="306.2197363619777" x2="306.2197363619777" y1="274" y2="278" role="presentation" shape-rendering="auto" vector-effect="non-scaling-stroke" style="stroke: transparent; fill: transparent; size: 4px; stroke-width: 1; stroke-linecap: round; stroke-linejoin: round;"></line><text dx="0" dy="11.969999999999999" x="306.2197363619777" y="286"><tspan x="306.2197363619777" dx="0" text-anchor="middle" style="fill: rgb(153, 153, 153); font-size: 14px; font-family: inherit; stroke: transparent; letter-spacing: normal; padding: 8px; stroke-width: 0;">2019</tspan></text></g><g role="presentation"><line x1="418.69647418354316" x2="418.69647418354316" y1="274" y2="34" role="presentation" shape-rendering="auto" vector-effect="non-scaling-stroke" style="stroke: transparent; fill: transparent; stroke-width: 1; stroke-linecap: round; stroke-linejoin: round; pointer-events: none;"></line><line x1="418.69647418354316" x2="418.69647418354316" y1="274" y2="278" role="presentation" shape-rendering="auto" vector-effect="non-scaling-stroke" style="stroke: transparent; fill: transparent; size: 4px; stroke-width: 1; stroke-linecap: round; stroke-linejoin: round;"></line><text dx="0" dy="11.969999999999999" x="418.69647418354316" y="286"><tspan x="418.69647418354316" dx="0" text-anchor="middle" style="fill: rgb(153, 153, 153); font-size: 14px; font-family: inherit; stroke: transparent; letter-spacing: normal; padding: 8px; stroke-width: 0;">2020</tspan></text></g><g role="presentation"><line x1="531.4813674511951" x2="531.4813674511951" y1="274" y2="34" role="presentation" shape-rendering="auto" vector-effect="non-scaling-stroke" style="stroke: transparent; fill: transparent; stroke-width: 1; stroke-linecap: round; stroke-linejoin: round; pointer-events: none;"></line><line x1="531.4813674511951" x2="531.4813674511951" y1="274" y2="278" role="presentation" shape-rendering="auto" vector-effect="non-scaling-stroke" style="stroke: transparent; fill: transparent; size: 4px; stroke-width: 1; stroke-linecap: round; stroke-linejoin: round;"></line><text dx="0" dy="11.969999999999999" x="531.4813674511951" y="286"><tspan x="531.4813674511951" dx="0" text-anchor="middle" style="fill: rgb(153, 153, 153); font-size: 14px; font-family: inherit; stroke: transparent; letter-spacing: normal; padding: 8px; stroke-width: 0;">2021</tspan></text></g></g><g role="presentation"><line x1="578" x2="578" y1="34" y2="274" role="presentation" shape-rendering="auto" vector-effect="non-scaling-stroke" style="stroke: transparent; fill: transparent; stroke-width: 1; stroke-linejoin: round;"></line><g role="presentation"><line x1="578" x2="15" y1="247.33333333333334" y2="247.33333333333334" role="presentation" shape-rendering="auto" vector-effect="non-scaling-stroke" style="stroke: rgb(226, 226, 226); fill: transparent; stroke-width: 1; stroke-linecap: round; stroke-linejoin: round; pointer-events: none;"></line><line x1="578" x2="582" y1="247.33333333333334" y2="247.33333333333334" role="presentation" shape-rendering="auto" vector-effect="non-scaling-stroke" style="stroke: transparent; fill: transparent; size: 4px; stroke-width: 1; stroke-linecap: round; stroke-linejoin: round;"></line><text dx="0" dy="4.97" x="590" y="247.33333333333334"><tspan x="590" dx="0" text-anchor="start" style="fill: rgb(153, 153, 153); font-size: 14px; font-family: inherit; stroke: transparent; letter-spacing: normal; padding: 8px; stroke-width: 0;">$50K</tspan></text></g><g role="presentation"><line x1="578" x2="15" y1="180.66666666666669" y2="180.66666666666669" role="presentation" shape-rendering="auto" vector-effect="non-scaling-stroke" style="stroke: rgb(226, 226, 226); fill: transparent; stroke-width: 1; stroke-linecap: round; stroke-linejoin: round; pointer-events: none;"></line><line x1="578" x2="582" y1="180.66666666666669" y2="180.66666666666669" role="presentation" shape-rendering="auto" vector-effect="non-scaling-stroke" style="stroke: transparent; fill: transparent; size: 4px; stroke-width: 1; stroke-linecap: round; stroke-linejoin: round;"></line><text dx="0" dy="4.97" x="590" y="180.66666666666669"><tspan x="590" dx="0" text-anchor="start" style="fill: rgb(153, 153, 153); font-size: 14px; font-family: inherit; stroke: transparent; letter-spacing: normal; padding: 8px; stroke-width: 0;">$100K</tspan></text></g><g role="presentation"><line x1="578" x2="15" y1="114" y2="114" role="presentation" shape-rendering="auto" vector-effect="non-scaling-stroke" style="stroke: rgb(226, 226, 226); fill: transparent; stroke-width: 1; stroke-linecap: round; stroke-linejoin: round; pointer-events: none;"></line><line x1="578" x2="582" y1="114" y2="114" role="presentation" shape-rendering="auto" vector-effect="non-scaling-stroke" style="stroke: transparent; fill: transparent; size: 4px; stroke-width: 1; stroke-linecap: round; stroke-linejoin: round;"></line><text dx="0" dy="4.97" x="590" y="114"><tspan x="590" dx="0" text-anchor="start" style="fill: rgb(153, 153, 153); font-size: 14px; font-family: inherit; stroke: transparent; letter-spacing: normal; padding: 8px; stroke-width: 0;">$150K</tspan></text></g><g role="presentation"><line x1="578" x2="15" y1="47.33333333333334" y2="47.33333333333334" role="presentation" shape-rendering="auto" vector-effect="non-scaling-stroke" style="stroke: rgb(226, 226, 226); fill: transparent; stroke-width: 1; stroke-linecap: round; stroke-linejoin: round; pointer-events: none;"></line><line x1="578" x2="582" y1="47.33333333333334" y2="47.33333333333334" role="presentation" shape-rendering="auto" vector-effect="non-scaling-stroke" style="stroke: transparent; fill: transparent; size: 4px; stroke-width: 1; stroke-linecap: round; stroke-linejoin: round;"></line><text dx="0" dy="4.97" x="590" y="47.33333333333334"><tspan x="590" dx="0" text-anchor="start" style="fill: rgb(153, 153, 153); font-size: 14px; font-family: inherit; stroke: transparent; letter-spacing: normal; padding: 8px; stroke-width: 0;">$200K</tspan></text></g></g><g style="height: 100%; width: 100%; user-select: none;"><defs><clipPath id="victory-clip-5"><rect x="15" y="34" width="563" height="240"></rect></clipPath></defs><g clip-path="url(#victory-clip-5)"><path shape-rendering="auto" role="presentation" d="M24.5528188286809,192.66666666666666C27.73709177157453,202.11111111111111,30.921364714468165,211.55555555555557,34.1056376573618,220.66666666666669C37.28991060025543,229.7777777777778,40.47418354314906,247.33333333333334,43.658456486042695,247.33333333333334C46.7400109469075,247.33333333333334,49.821565407772304,240.21028262530115,52.90311986863711,228.8C56.08739281153075,217.00937462052218,59.271665754424376,176.66666666666669,62.45593869731801,176.66666666666669C65.54177309493402,176.66666666666669,68.62760749255003,259.3333333333333,71.71344189016602,259.3333333333333C74.89771483305965,259.3333333333333,78.0819877759533,240.11111111111111,81.26626071884692,234C84.45053366174056,227.88888888888889,87.63480660463419,222.66666666666669,90.81907954752783,222.66666666666669C93.69519704433499,222.66666666666669,96.57131454114213,274,99.44743203794928,274C102.62742504409171,274,105.80741805023415,236.50729814814815,108.98741105637657,227.334C112.06896551724138,218.44466666666668,115.15051997810617,219.02026687819495,118.23207443897098,214C121.41634738186463,208.81239089253188,124.60062032475825,205.73568791742562,127.7848932676519,196.59333333333333C130.8664477285167,187.74589341324403,133.9480021893815,160.66666666666669,137.02955665024632,160.66666666666669C140.21382959313993,160.66666666666669,143.39810253603358,178.88888888888889,146.5823754789272,185.33333333333331C149.76664842182083,191.77777777777777,152.95092136471445,189.99999999999997,156.1351943076081,199.33333333333331C159.2167487684729,208.36559139784947,162.2983032293377,260.6666666666667,165.37985769020253,260.6666666666667C168.56413063309614,260.6666666666667,171.74840357598978,187.33333333333331,174.9326765188834,187.33333333333331C178.0185109164994,187.33333333333331,181.10434531411542,189.08888888888887,184.19017971173142,192.6C187.37445265462506,196.22311604253352,190.55872559751867,260.6666666666667,193.74299854041232,260.6666666666667C196.92727148330596,260.6666666666667,200.1115444261996,214,203.29581736909324,214C206.1719348659004,214,209.04805236270755,257.3333333333333,211.9241698595147,257.3333333333333C215.10416286565712,257.3333333333333,218.28415587179956,194,221.46414887794197,194C224.5457033388068,194,227.62725779967158,247.2,230.7088122605364,247.2C233.89308520343002,247.2,237.07735814632366,160.8,240.26163108921727,160.8C243.3431855500821,160.8,246.4247400109469,198.94623655913978,249.5062944718117,200.66666666666666C252.69056741470536,202.44444444444443,255.874840357599,203.33333333333331,259.05911330049264,203.33333333333331C262.2433862433863,203.33333333333331,265.42765918627987,140,268.6119321291735,140C271.69348659003833,140,274.7750410509031,237.33333333333331,277.8565955117679,237.33333333333331C281.04086845466156,237.33333333333331,284.22514139755515,208.33333333333331,287.4094143404488,208.33333333333331C290.4952487380648,208.33333333333331,293.58108313568084,214.6200582284365,296.66691753329684,216.66666666666666C299.8511904761905,218.77856219793327,303.03546341908407,220.66666666666669,306.2197363619777,220.66666666666669C309.40400930487135,220.66666666666669,312.588282247765,160.66666666666669,315.77255519065864,160.66666666666669C318.6486726874658,160.66666666666669,321.52479018427294,199.31359353970382,324.4009076810801,203.33333333333331C327.58090068722254,207.77777777777777,330.76089369336495,210,333.94088669950736,210C337.0224411603722,210,340.10399562123695,206.91111111111113,343.18555008210177,200.73333333333335C346.3698230249954,194.34962962962962,349.55409596788905,161,352.7383689107827,161C355.8199233716475,161,358.9014778325123,161.88888888888889,361.9830322933771,163.66666666666669C365.16730523627075,165.50370370370374,368.35157817916433,204.33333333333331,371.535851122058,204.33333333333331C374.7201240649516,204.33333333333331,377.90439700784526,185.15761991499699,381.0886699507389,174C384.1702244116037,163.20230330806748,387.2517788724685,138.66666666666666,390.3333333333333,138.66666666666666C393.51760627622696,138.66666666666666,396.7018792191206,150.66666666666669,399.88615216201424,150.66666666666669C402.97198655963024,150.66666666666669,406.0578209572463,144.06666666666666,409.1436553548623,144.06666666666666C412.32792829775593,144.06666666666666,415.5122012406495,211.33333333333331,418.69647418354316,211.33333333333331C421.8807471264368,211.33333333333331,425.0650200693304,130.37547892720306,428.24929301222403,128C431.22812899106003,125.77777777777777,434.206964969896,124.66666666666666,437.185800948732,124.66666666666666C440.3657939548744,124.66666666666666,443.54578696101686,125.33333333333333,446.72577996715927,126.66666666666666C449.8073344280241,127.95872588604756,452.8888888888889,144.80639285504427,455.97044334975374,155C459.1547162926473,165.53339404978743,462.33898923554096,189,465.52326217843455,189C468.6048166392994,189,471.6863711001642,140.93333333333334,474.767925561029,140.93333333333334C477.95219850392266,140.93333333333334,481.1364714468163,154,484.32074438970994,154C487.50501733260353,154,490.68929027549717,75.33333333333334,493.87356321839076,75.33333333333334C496.9551176792556,75.33333333333334,500.0366721401204,100.668,503.1182266009852,100.668C506.3024995438788,100.668,509.48677248677245,100.66666666666666,512.671045429666,100.66666666666666C515.7568798272821,100.66666666666666,518.8427142248981,122,521.9285486225142,122C525.1128215654078,122,528.2970945083015,119.33333333333333,531.4813674511951,114C534.6656403940887,108.66666666666667,537.8499133369824,86.06666666666669,541.0341862798759,86.06666666666669C543.9103037766831,86.06666666666669,546.7864212734902,114.06666666666666,549.6625387702974,114.06666666666666C552.8425317764398,114.06666666666666,556.0225247825822,34,559.2025177887247,34C562.2840722495895,34,565.3656267104543,64.47206063811035,568.4471811713191,74C571.6314541142127,83.84553734061923,574.8157270571064,87.59610200364295,578,91.34666666666666" style="fill: transparent; stroke: rgb(51, 51, 51); stroke-width: 2; opacity: 1;"></path></g></g></svg>