<svg xmlns="http://www.w3.org/2000/svg" width="640" height="324" role="img" aria-labelledby="victory-container-4-title victory-container-4-desc" viewBox="0 0 640 324" style="pointer-events: all; width: 100%; height: 100%;"><g role="presentation"><line x1="15" x2="578" y1="274" y2="274" role="presentation" shape-rendering="auto" vector-effect="non-scaling-stroke" style="stroke: rgb(226, 226, 226); fill: transparent; stroke-width: 1; stroke-linejoin: round;"></line><g role="presentation"><line x1="81.26626071884692" x2="81.26626071884692" y1="274" y2="34" role="presentation" shape-rendering="auto" vector-effect="non-scaling-stroke" style="stroke: transparent; fill: transparent; stroke-width: 1; stroke-linecap: round; stroke-linejoin: round; pointer-events: none;"></line><line x1="81.26626071884692" x2="81.26626071884692" y1="274" y2="278" role="presentation" shape-rendering="auto" vector-effect="non-scaling-stroke" style="stroke: transparent; fill: transparent; size: 4px; stroke-width: 1; stroke-linecap: round; stroke-linejoin: round;"></line><text dx="0" dy="11.969999999999999" x="81.26626071884692" y="286"><tspan x="81.26626071884692" dx="0" text-anchor="middle" style="fill: rgb(153, 153, 153); font-size: 14px; font-family: inherit; stroke: transparent; letter-spacing: normal; padding: 8px; stroke-width: 0;">2017</tspan></text></g><g role="presentation"><line x1="193.74299854041232" x2="193.74299854041232" y1="274" y2="34" role="presentation" shape-rendering="auto" vector-effect="non-scaling-stroke" style="stroke: transparent; fill: transparent; stroke-width: 1; stroke-linecap: round; stroke-linejoin: round; pointer-events: none;"></line><line x1="193.74299854041232" x2="193.74299854041232" y1="274" y2="278" role="presentation" shape-rendering="auto" vector-effect="non-scaling-stroke" style="stroke: transparent; fill: transparent; size: 4px; stroke-width: 1; stroke-linecap: round; stroke-linejoin: round;"></line><text dx="0" dy="11.969999999999999" x="193.74299854041232" y="286"><tspan x="193.74299854041232" dx="0" text-anchor="middle" style="fill: rgb(153, 153, 153); font-size: 14px; font-family: inherit; stroke: transparent; letter-spacing: normal; padding: 8px; stroke-width: 0;">2018</tspan></text></g><g role="presentation"><line x1="306.2197363619777" x2="306.2197363619777" y1="274" y2="34" role="presentation" shape-rendering="auto" vector-effect="non-scaling-stroke" style="stroke: transparent; fill: transparent; stroke-width: 1; stroke-linecap: round; stroke-linejoin: round; pointer-events: none;"></line><line x1="306.2197363619777" x2="306.2197363619777" y1="274" y2="278" role="presentation" shape-rendering="auto" vector-effect="non-scaling-stroke" style="stroke: transparent; fill: transparent; size: 4px; stroke-width: 1; stroke-linecap: round; stroke-linejoin: round;"></line><text dx="0" dy="11.969999999999999" x="306.2197363619777" y="286"><tspan x="306.2197363619777" dx="0" text-anchor="middle" style="fill: rgb(153, 153, 153); font-size: 14px; font-family: inherit; stroke: transparent; letter-spacing: normal; padding: 8px; stroke-width: 0;">2019</tspan></text></g><g role="presentation"><line x1="418.69647418354316" x2="418.69647418354316" y1="274" y2="34" role="presentation" shape-rendering="auto" vector-effect="non-scaling-stroke" style="stroke: transparent; fill: transparent; stroke-width: 1; stroke-linecap: round; stroke-linejoin: round; pointer-events: none;"></line><line x1="418.69647418354316" x2="418.69647418354316" y1="274" y2="278" role="presentation" shape-rendering="auto" vector-effect="non-scaling-stroke" style="stroke: transparent; fill: transparent; size: 4px; stroke-width: 1; stroke-linecap: round; stroke-linejoin: round;"></line><text dx="0" dy="11.969999999999999" x="418.69647418354316" y="286"><tspan x="418.69647418354316" dx="0" text-anchor="middle" style="fill: rgb(153, 153, 153); font-size: 14px; font-family: inherit; stroke: transparent; letter-spacing: normal; padding: 8px; stroke-width: 0;">2020</tspan></text></g><g role="presentation"><line x1="531.4813674511951" x2="531.4813674511951" y1="274" y2="34" role="presentation" shape-rendering="auto" vector-effect="non-scaling-stroke" style="stroke: transparent; fill: transparent; stroke-width: 1; stroke-linecap: round; stroke-linejoin: round; pointer-events: none;"></line><line x1="531.4813674511951" x2="531.4813674511951" y1="274" y2="278" role="presentation" shape-rendering="auto" vector-effect="non-scaling-stroke" style="stroke: transparent; fill: transparent; size: 4px; stroke-width: 1; stroke-linecap: round; stroke-linejoin: round;"></line><text dx="0" dy="11.969999999999999" x="531.4813674511951" y="286"><tspan x="531.4813674511951" dx="0" text-anchor="middle" style="fill: rgb(153, 153, 153); font-size: 14px; font-family: inherit; stroke: transparent; letter-spacing: normal; padding: 8px; stroke-width: 0;">2021</tspan></text></g></g><g role="presentation"><line x1="578" x2="578" y1="34" y2="274" role="presentation" shape-rendering="auto" vector-effect="non-scaling-stroke" style="stroke: transparent; fill: transparent; stroke-width: 1; stroke-linejoin: round;"></line><g role="presentation"><line x1="578" x2="15" y1="244" y2="244" role="presentation" shape-rendering="auto" vector-effect="non-scaling-stroke" style="stroke: rgb(226, 226, 226); fill: transparent; stroke-width: 1; stroke-linecap: round; stroke-linejoin: round; pointer-events: none;"></line><line x1="578" x2="582" y1="244" y2="244" role="presentation" shape-rendering="auto" vector-effect="non-scaling-stroke" style="stroke: transparent; fill: transparent; size: 4px; stroke-width: 1; stroke-linecap: round; stroke-linejoin: round;"></line><text dx="0" dy="4.97" x="590" y="244"><tspan x="590" dx="0" text-anchor="start" style="fill: rgb(153, 153, 153); font-size: 14px; font-family: inherit; stroke: transparent; letter-spacing: normal; padding: 8px; stroke-width: 0;">$50K</tspan></text></g><g role="presentation"><line x1="578" x2="15" y1="169" y2="169" role="presentation" shape-rendering="auto" vector-effect="non-scaling-stroke" style="stroke: rgb(226, 226, 226); fill: transparent; stroke-width: 1; stroke-linecap: round; stroke-linejoin: round; pointer-events: none;"></line><line x1="578" x2="582" y1="169" y2="169" role="presentation" shape-rendering="auto" vector-effect="non-scaling-stroke" style="stroke: transparent; fill: transparent; size: 4px; stroke-width: 1; stroke-linecap: round; stroke-linejoin: round;"></line><text dx="0" dy="4.97" x="590" y="169"><tspan x="590" dx="0" text-anchor="start" style="fill: rgb(153, 153, 153); font-size: 14px; font-family: inherit; stroke: transparent; letter-spacing: normal; padding: 8px; stroke-width: 0;">$100K</tspan></text></g><g role="presentation"><line x1="578" x2="15" y1="94" y2="94" role="presentation" shape-rendering="auto" vector-effect="non-scaling-stroke" style="stroke: rgb(226, 226, 226); fill: transparent; stroke-width: 1; stroke-linecap: round; stroke-linejoin: round; pointer-events: none;"></line><line x1="578" x2="582" y1="94" y2="94" role="presentation" shape-rendering="auto" vector-effect="non-scaling-stroke" style="stroke: transparent; fill: transparent; size: 4px; stroke-width: 1; stroke-linecap: round; stroke-linejoin: round;"></line><text dx="0" dy="4.97" x="590" y="94"><tspan x="590" dx="0" text-anchor="start" style="fill: rgb(153, 153, 153); font-size: 14px; font-family: inherit; stroke: transparent; letter-spacing: normal; padding: 8px; stroke-width: 0;">$150K</tspan></text></g></g><g style="height: 100%; width: 100%; user-select: none;"><defs><clipPath id="victory-clip-5"><rect x="15" y="34" width="563" height="240"></rect></clipPath></defs><g clip-path="url(#victory-clip-5)"><path shape-rendering="auto" role="presentation" d="M15.30815544608648,272.5C18.389709906951285,256.2540322580645,21.471264367816094,240.00806451612902,24.5528188286809,232.75C27.73709177157453,225.25,30.921364714468165,221.5,34.1056376573618,221.5C37.28991060025543,221.5,40.47418354314906,246.9985,43.658456486042695,246.9985C46.7400109469075,246.9985,49.821565407772304,221.5,52.90311986863711,221.5C56.08739281153075,221.5,59.271665754424376,227.7543607641075,62.45593869731801,232.22575C65.54177309493402,236.55891080521303,68.62760749255003,247.75,71.71344189016602,247.75C74.89771483305965,247.75,78.0819877759533,221.5,81.26626071884692,221.5C84.45053366174056,221.5,87.63480660463419,266.5,90.81907954752783,266.5C93.69519704433499,266.5,96.57131454114213,165.25,99.44743203794928,165.25C102.62742504409171,165.25,105.80741805023415,207.08700416666667,108.98741105637657,214C112.06896551724138,220.69899999999998,115.15051997810617,224.0485,118.23207443897098,224.0485C121.41634738186463,224.0485,124.60062032475825,213.44661202185793,127.7848932676519,206.5C130.8664477285167,199.77747223691168,133.9480021893815,183.25,137.02955665024632,183.25C140.21382959313993,183.25,143.39810253603358,256,146.5823754789272,256C149.76664842182083,256,152.95092136471445,218.7295081967213,156.1351943076081,202C159.2167487684729,185.8101533580116,162.2983032293377,157,165.37985769020253,157C168.56413063309614,157,171.74840357598978,216.625,174.9326765188834,216.625C178.0185109164994,216.625,181.10434531411542,175.75,184.19017971173142,175.75C187.37445265462506,175.75,190.55872559751867,224.5,193.74299854041232,224.5C196.92727148330596,224.5,200.1115444261996,224.25,203.29581736909324,223.75C206.1719348659004,223.2983870967742,209.04805236270755,200.90308533354894,211.9241698595147,191.5C215.10416286565712,181.10343392436482,218.28415587179956,165.25,221.46414887794197,165.25C224.5457033388068,165.25,227.62725779967158,179.5,230.7088122605364,179.5C233.89308520343002,179.5,237.07735814632366,172.75,240.26163108921727,172.75C243.3431855500821,172.75,246.4247400109469,193.53225806451613,249.5062944718117,194.5C252.69056741470536,195.5,255.874840357599,196,259.05911330049264,196C262.2433862433863,196,265.42765918627987,195,268.6119321291735,193C271.69348659003833,191.06451612903226,274.7750410509031,160.75,277.8565955117679,160.75C281.04086845466156,160.75,284.22514139755515,206.5,287.4094143404488,206.5C290.4952487380648,206.5,293.58108313568084,105.25,296.66691753329684,105.25C299.8511904761905,105.25,303.03546341908407,176.5000000000001,306.2197363619777,194.5C309.40400930487135,212.5,312.588282247765,221.5,315.77255519065864,221.5C318.6486726874658,221.5,321.52479018427294,208.13342290114107,324.4009076810801,191.5C327.58090068722254,173.10917676257785,330.76089369336495,112,333.94088669950736,112C337.0224411603722,112,340.10399562123695,140.5,343.18555008210177,140.5C346.3698230249954,140.5,349.55409596788905,53.5,352.7383689107827,53.5C355.8199233716475,53.5,358.9014778325123,199,361.9830322933771,199C365.16730523627075,199,368.35157817916433,93.99999999999991,371.535851122058,79C374.7201240649516,64,377.90439700784526,56.5,381.0886699507389,56.5C384.1702244116037,56.5,387.2517788724685,59,390.3333333333333,64C393.51760627622696,69.16666666666669,396.7018792191206,90.25075000000001,399.88615216201424,90.25075000000001C402.97198655963024,90.25075000000001,406.0578209572463,81.625,409.1436553548623,81.625C412.32792829775593,81.625,415.5122012406495,96.9375,418.69647418354316,104.875C421.8807471264368,112.8125,425.0650200693304,129.25,428.24929301222403,129.25C431.22812899106003,129.25,434.206964969896,86.43206594885598,437.185800948732,83.57499999999999C440.3657939548744,80.52499999999999,443.54578696101686,79,446.72577996715927,79C449.8073344280241,79,452.8888888888889,165.4375,455.97044334975374,165.4375C459.1547162926473,165.4375,462.33898923554096,161.4,465.52326217843455,153.325C468.6048166392994,145.51048387096762,471.6863711001642,38.125,474.767925561029,38.125C477.95219850392266,38.125,481.1364714468163,44.3,484.32074438970994,56.650000000000006C487.50501733260353,68.99999999999986,490.68929027549717,97.57775956284163,493.87356321839076,115.15C496.9551176792556,132.15539397144383,500.0366721401204,160.75,503.1182266009852,160.75C506.3024995438788,160.75,509.48677248677245,123.25,512.671045429666,123.25C515.7568798272821,123.25,518.8427142248981,140.5,521.9285486225142,140.5C525.1128215654078,140.5,528.2970945083015,71.65,531.4813674511951,71.65C534.6656403940887,71.65,537.8499133369824,135.25,541.0341862798759,135.25C543.9103037766831,135.25,546.7864212734902,45.25,549.6625387702974,45.25C552.8425317764398,45.25,556.0225247825822,82.8300910894661,559.2025177887247,94.75C562.2840722495895,106.30092115152686,565.3656267104543,116.5,568.4471811713191,116.5C571.6314541142127,116.5,574.8157270571064,107.8,578,99.1" style="fill: transparent; stroke: rgb(51, 51, 51); stroke-width: 2; opacity: 1;"></path></g></g></svg>