<svg xmlns="http://www.w3.org/2000/svg" width="640" height="324" role="img" aria-labelledby="victory-container-4-title victory-container-4-desc" viewBox="0 0 640 324" style="pointer-events: all; width: 100%; height: 100%;"><g role="presentation"><line x1="15" x2="578" y1="274" y2="274" role="presentation" shape-rendering="auto" vector-effect="non-scaling-stroke" style="stroke: rgb(226, 226, 226); fill: transparent; stroke-width: 1; stroke-linejoin: round;"></line><g role="presentation"><line x1="81.26626071884692" x2="81.26626071884692" y1="274" y2="34" role="presentation" shape-rendering="auto" vector-effect="non-scaling-stroke" style="stroke: transparent; fill: transparent; stroke-width: 1; stroke-linecap: round; stroke-linejoin: round; pointer-events: none;"></line><line x1="81.26626071884692" x2="81.26626071884692" y1="274" y2="278" role="presentation" shape-rendering="auto" vector-effect="non-scaling-stroke" style="stroke: transparent; fill: transparent; size: 4px; stroke-width: 1; stroke-linecap: round; stroke-linejoin: round;"></line><text dx="0" dy="11.969999999999999" x="81.26626071884692" y="286"><tspan x="81.26626071884692" dx="0" text-anchor="middle" style="fill: rgb(153, 153, 153); font-size: 14px; font-family: inherit; stroke: transparent; letter-spacing: normal; padding: 8px; stroke-width: 0;">2017</tspan></text></g><g role="presentation"><line x1="193.74299854041232" x2="193.74299854041232" y1="274" y2="34" role="presentation" shape-rendering="auto" vector-effect="non-scaling-stroke" style="stroke: transparent; fill: transparent; stroke-width: 1; stroke-linecap: round; stroke-linejoin: round; pointer-events: none;"></line><line x1="193.74299854041232" x2="193.74299854041232" y1="274" y2="278" role="presentation" shape-rendering="auto" vector-effect="non-scaling-stroke" style="stroke: transparent; fill: transparent; size: 4px; stroke-width: 1; stroke-linecap: round; stroke-linejoin: round;"></line><text dx="0" dy="11.969999999999999" x="193.74299854041232" y="286"><tspan x="193.74299854041232" dx="0" text-anchor="middle" style="fill: rgb(153, 153, 153); font-size: 14px; font-family: inherit; stroke: transparent; letter-spacing: normal; padding: 8px; stroke-width: 0;">2018</tspan></text></g><g role="presentation"><line x1="306.2197363619777" x2="306.2197363619777" y1="274" y2="34" role="presentation" shape-rendering="auto" vector-effect="non-scaling-stroke" style="stroke: transparent; fill: transparent; stroke-width: 1; stroke-linecap: round; stroke-linejoin: round; pointer-events: none;"></line><line x1="306.2197363619777" x2="306.2197363619777" y1="274" y2="278" role="presentation" shape-rendering="auto" vector-effect="non-scaling-stroke" style="stroke: transparent; fill: transparent; size: 4px; stroke-width: 1; stroke-linecap: round; stroke-linejoin: round;"></line><text dx="0" dy="11.969999999999999" x="306.2197363619777" y="286"><tspan x="306.2197363619777" dx="0" text-anchor="middle" style="fill: rgb(153, 153, 153); font-size: 14px; font-family: inherit; stroke: transparent; letter-spacing: normal; padding: 8px; stroke-width: 0;">2019</tspan></text></g><g role="presentation"><line x1="418.69647418354316" x2="418.69647418354316" y1="274" y2="34" role="presentation" shape-rendering="auto" vector-effect="non-scaling-stroke" style="stroke: transparent; fill: transparent; stroke-width: 1; stroke-linecap: round; stroke-linejoin: round; pointer-events: none;"></line><line x1="418.69647418354316" x2="418.69647418354316" y1="274" y2="278" role="presentation" shape-rendering="auto" vector-effect="non-scaling-stroke" style="stroke: transparent; fill: transparent; size: 4px; stroke-width: 1; stroke-linecap: round; stroke-linejoin: round;"></line><text dx="0" dy="11.969999999999999" x="418.69647418354316" y="286"><tspan x="418.69647418354316" dx="0" text-anchor="middle" style="fill: rgb(153, 153, 153); font-size: 14px; font-family: inherit; stroke: transparent; letter-spacing: normal; padding: 8px; stroke-width: 0;">2020</tspan></text></g><g role="presentation"><line x1="531.4813674511951" x2="531.4813674511951" y1="274" y2="34" role="presentation" shape-rendering="auto" vector-effect="non-scaling-stroke" style="stroke: transparent; fill: transparent; stroke-width: 1; stroke-linecap: round; stroke-linejoin: round; pointer-events: none;"></line><line x1="531.4813674511951" x2="531.4813674511951" y1="274" y2="278" role="presentation" shape-rendering="auto" vector-effect="non-scaling-stroke" style="stroke: transparent; fill: transparent; size: 4px; stroke-width: 1; stroke-linecap: round; stroke-linejoin: round;"></line><text dx="0" dy="11.969999999999999" x="531.4813674511951" y="286"><tspan x="531.4813674511951" dx="0" text-anchor="middle" style="fill: rgb(153, 153, 153); font-size: 14px; font-family: inherit; stroke: transparent; letter-spacing: normal; padding: 8px; stroke-width: 0;">2021</tspan></text></g></g><g role="presentation"><line x1="578" x2="578" y1="34" y2="274" role="presentation" shape-rendering="auto" vector-effect="non-scaling-stroke" style="stroke: transparent; fill: transparent; stroke-width: 1; stroke-linejoin: round;"></line><g role="presentation"><line x1="578" x2="15" y1="255.53846153846155" y2="255.53846153846155" role="presentation" shape-rendering="auto" vector-effect="non-scaling-stroke" style="stroke: rgb(226, 226, 226); fill: transparent; stroke-width: 1; stroke-linecap: round; stroke-linejoin: round; pointer-events: none;"></line><line x1="578" x2="582" y1="255.53846153846155" y2="255.53846153846155" role="presentation" shape-rendering="auto" vector-effect="non-scaling-stroke" style="stroke: transparent; fill: transparent; size: 4px; stroke-width: 1; stroke-linecap: round; stroke-linejoin: round;"></line><text dx="0" dy="4.97" x="590" y="255.53846153846155"><tspan x="590" dx="0" text-anchor="start" style="fill: rgb(153, 153, 153); font-size: 14px; font-family: inherit; stroke: transparent; letter-spacing: normal; padding: 8px; stroke-width: 0;">$200K</tspan></text></g><g role="presentation"><line x1="578" x2="15" y1="218.6153846153846" y2="218.6153846153846" role="presentation" shape-rendering="auto" vector-effect="non-scaling-stroke" style="stroke: rgb(226, 226, 226); fill: transparent; stroke-width: 1; stroke-linecap: round; stroke-linejoin: round; pointer-events: none;"></line><line x1="578" x2="582" y1="218.6153846153846" y2="218.6153846153846" role="presentation" shape-rendering="auto" vector-effect="non-scaling-stroke" style="stroke: transparent; fill: transparent; size: 4px; stroke-width: 1; stroke-linecap: round; stroke-linejoin: round;"></line><text dx="0" dy="4.97" x="590" y="218.6153846153846"><tspan x="590" dx="0" text-anchor="start" style="fill: rgb(153, 153, 153); font-size: 14px; font-family: inherit; stroke: transparent; letter-spacing: normal; padding: 8px; stroke-width: 0;">$400K</tspan></text></g><g role="presentation"><line x1="578" x2="15" y1="181.69230769230768" y2="181.69230769230768" role="presentation" shape-rendering="auto" vector-effect="non-scaling-stroke" style="stroke: rgb(226, 226, 226); fill: transparent; stroke-width: 1; stroke-linecap: round; stroke-linejoin: round; pointer-events: none;"></line><line x1="578" x2="582" y1="181.69230769230768" y2="181.69230769230768" role="presentation" shape-rendering="auto" vector-effect="non-scaling-stroke" style="stroke: transparent; fill: transparent; size: 4px; stroke-width: 1; stroke-linecap: round; stroke-linejoin: round;"></line><text dx="0" dy="4.97" x="590" y="181.69230769230768"><tspan x="590" dx="0" text-anchor="start" style="fill: rgb(153, 153, 153); font-size: 14px; font-family: inherit; stroke: transparent; letter-spacing: normal; padding: 8px; stroke-width: 0;">$600K</tspan></text></g><g role="presentation"><line x1="578" x2="15" y1="144.76923076923077" y2="144.76923076923077" role="presentation" shape-rendering="auto" vector-effect="non-scaling-stroke" style="stroke: rgb(226, 226, 226); fill: transparent; stroke-width: 1; stroke-linecap: round; stroke-linejoin: round; pointer-events: none;"></line><line x1="578" x2="582" y1="144.76923076923077" y2="144.76923076923077" role="presentation" shape-rendering="auto" vector-effect="non-scaling-stroke" style="stroke: transparent; fill: transparent; size: 4px; stroke-width: 1; stroke-linecap: round; stroke-linejoin: round;"></line><text dx="0" dy="4.97" x="590" y="144.76923076923077"><tspan x="590" dx="0" text-anchor="start" style="fill: rgb(153, 153, 153); font-size: 14px; font-family: inherit; stroke: transparent; letter-spacing: normal; padding: 8px; stroke-width: 0;">$800K</tspan></text></g><g role="presentation"><line x1="578" x2="15" y1="107.84615384615384" y2="107.84615384615384" role="presentation" shape-rendering="auto" vector-effect="non-scaling-stroke" style="stroke: rgb(226, 226, 226); fill: transparent; stroke-width: 1; stroke-linecap: round; stroke-linejoin: round; pointer-events: none;"></line><line x1="578" x2="582" y1="107.84615384615384" y2="107.84615384615384" role="presentation" shape-rendering="auto" vector-effect="non-scaling-stroke" style="stroke: transparent; fill: transparent; size: 4px; stroke-width: 1; stroke-linecap: round; stroke-linejoin: round;"></line><text dx="0" dy="4.97" x="590" y="107.84615384615384"><tspan x="590" dx="0" text-anchor="start" style="fill: rgb(153, 153, 153); font-size: 14px; font-family: inherit; stroke: transparent; letter-spacing: normal; padding: 8px; stroke-width: 0;">$1.0M</tspan></text></g><g role="presentation"><line x1="578" x2="15" y1="70.92307692307693" y2="70.92307692307693" role="presentation" shape-rendering="auto" vector-effect="non-scaling-stroke" style="stroke: rgb(226, 226, 226); fill: transparent; stroke-width: 1; stroke-linecap: round; stroke-linejoin: round; pointer-events: none;"></line><line x1="578" x2="582" y1="70.92307692307693" y2="70.92307692307693" role="presentation" shape-rendering="auto" vector-effect="non-scaling-stroke" style="stroke: transparent; fill: transparent; size: 4px; stroke-width: 1; stroke-linecap: round; stroke-linejoin: round;"></line><text dx="0" dy="4.97" x="590" y="70.92307692307693"><tspan x="590" dx="0" text-anchor="start" style="fill: rgb(153, 153, 153); font-size: 14px; font-family: inherit; stroke: transparent; letter-spacing: normal; padding: 8px; stroke-width: 0;">$1.2M</tspan></text></g><g role="presentation"><line x1="578" x2="15" y1="34" y2="34" role="presentation" shape-rendering="auto" vector-effect="non-scaling-stroke" style="stroke: rgb(226, 226, 226); fill: transparent; stroke-width: 1; stroke-linecap: round; stroke-linejoin: round; pointer-events: none;"></line><line x1="578" x2="582" y1="34" y2="34" role="presentation" shape-rendering="auto" vector-effect="non-scaling-stroke" style="stroke: transparent; fill: transparent; size: 4px; stroke-width: 1; stroke-linecap: round; stroke-linejoin: round;"></line><text dx="0" dy="4.97" x="590" y="34"><tspan x="590" dx="0" text-anchor="start" style="fill: rgb(153, 153, 153); font-size: 14px; font-family: inherit; stroke: transparent; letter-spacing: normal; padding: 8px; stroke-width: 0;">$1.4M</tspan></text></g></g><g style="height: 100%; width: 100%; user-select: none;"><defs><clipPath id="victory-clip-5"><rect x="15" y="34" width="563" height="240"></rect></clipPath></defs><g clip-path="url(#victory-clip-5)"><path shape-rendering="auto" role="presentation" d="M15.30815544608648,144.2153846153846C18.389709906951285,162.5667493796526,21.471264367816094,180.91811414392058,24.5528188286809,189.07692307692307C27.73709177157453,197.5076923076923,30.921364714468165,198.86153846153846,34.1056376573618,201.72307692307692C37.28991060025543,204.58461538461538,40.47418354314906,206.24615384615385,43.658456486042695,206.24615384615385C46.7400109469075,206.24615384615385,49.821565407772304,190.36555343123297,52.90311986863711,181C56.08739281153075,171.3222614543926,59.271665754424376,148.9230769230769,62.45593869731801,148.9230769230769C65.54177309493402,148.9230769230769,68.62760749255003,182.59534739454097,71.71344189016602,186.30769230769232C74.89771483305965,190.13846153846154,78.0819877759533,188.22307692307695,81.26626071884692,192.05384615384617C84.45053366174056,195.88461538461542,87.63480660463419,225.53846153846155,90.81907954752783,225.53846153846155C93.69519704433499,225.53846153846155,96.57131454114213,201.53846153846155,99.44743203794928,201.53846153846155C102.62742504409171,201.53846153846155,105.80741805023415,208.04615384615386,108.98741105637657,208.04615384615386C112.06896551724138,208.04615384615386,115.15051997810617,189.05618516861244,118.23207443897098,181.69230769230768C121.41634738186463,174.08296763345942,124.60062032475825,172.7455569567045,127.7848932676519,163.4153846153846C130.8664477285167,154.3861855753976,133.9480021893815,127.23076923076923,137.02955665024632,127.23076923076923C140.21382959313993,127.23076923076923,143.39810253603358,250.46153846153845,146.5823754789272,250.46153846153845C149.76664842182083,250.46153846153845,152.95092136471445,192.02082051282048,156.1351943076081,180.2153846153846C159.2167487684729,168.79076923076923,162.2983032293377,168.48341048692185,165.37985769020253,163.07846153846154C168.56413063309614,157.49334762505256,171.74840357598978,147.30769230769232,174.9326765188834,147.30769230769232C178.0185109164994,147.30769230769232,181.10434531411542,154.18461538461537,184.19017971173142,154.18461538461537C187.37445265462506,154.18461538461537,190.55872559751867,143.84615384615387,193.74299854041232,143.84615384615387C196.92727148330596,143.84615384615387,200.1115444261996,208.0923076923077,203.29581736909324,208.0923076923077C206.1719348659004,208.0923076923077,209.04805236270755,206.06153846153848,211.9241698595147,202C215.10416286565712,197.50934065934067,218.28415587179956,144.86153846153846,221.46414887794197,144.86153846153846C224.5457033388068,144.86153846153846,227.62725779967158,162.4923076923077,230.7088122605364,162.4923076923077C233.89308520343002,162.4923076923077,237.07735814632366,105.83846153846156,240.26163108921727,105.83846153846156C243.3431855500821,105.83846153846156,246.4247400109469,119.14748549810847,249.5062944718117,128.9403076923077C252.69056741470536,139.05955729298026,255.874840357599,154.13116923076922,259.05911330049264,166.0000923076923C262.2433862433863,177.86901538461535,265.42765918627987,200.15384615384613,268.6119321291735,200.15384615384613C271.69348659003833,200.15384615384613,274.7750410509031,194.9230769230769,277.8565955117679,184.46153846153845C281.04086845466156,173.65128205128207,284.22514139755515,113.38461538461539,287.4094143404488,113.38461538461539C290.4952487380648,113.38461538461539,293.58108313568084,134.4909842845327,296.66691753329684,138.30769230769232C299.8511904761905,142.24615384615385,303.03546341908407,140.27692307692308,306.2197363619777,144.2153846153846C309.40400930487135,148.15384615384616,312.588282247765,175.08476438815424,315.77255519065864,186.30769230769232C318.6486726874658,196.44453042856546,321.52479018427294,209.84615384615387,324.4009076810801,209.84615384615387C327.58090068722254,209.84615384615387,330.76089369336495,171.8215384615384,333.94088669950736,162.67692307692306C337.0224411603722,153.8153846153846,340.10399562123695,149.38461538461536,343.18555008210177,149.38461538461536C346.3698230249954,149.38461538461536,349.55409596788905,170.8962841530054,352.7383689107827,180.39999999999998C355.8199233716475,189.5971443680592,358.9014778325123,205.64615384615385,361.9830322933771,205.64615384615385C365.16730523627075,205.64615384615385,368.35157817916433,194.45230769230767,371.535851122058,191.75384615384615C374.7201240649516,189.0553846153846,377.90439700784526,190.4046153846154,381.0886699507389,187.70615384615385C384.1702244116037,185.0947394540943,387.2517788724685,110.21366153846154,390.3333333333333,110.21366153846154C393.51760627622696,110.21366153846154,396.7018792191206,224.15384615384616,399.88615216201424,224.15384615384616C402.97198655963024,224.15384615384616,406.0578209572463,111.72307692307695,409.1436553548623,111.72307692307695C412.32792829775593,111.72307692307695,415.5122012406495,270.3076923076923,418.69647418354316,270.3076923076923C421.8807471264368,270.3076923076923,425.0650200693304,132.76923076923077,428.24929301222403,132.76923076923077C431.22812899106003,132.76923076923077,434.206964969896,167.84615384615387,437.185800948732,167.84615384615387C440.3657939548744,167.84615384615387,443.54578696101686,149.38461538461536,446.72577996715927,149.38461538461536C449.8073344280241,149.38461538461536,452.8888888888889,209.3846153846154,455.97044334975374,209.3846153846154C459.1547162926473,209.3846153846154,462.33898923554096,182.86666666666667,465.52326217843455,179.84615384615387C468.6048166392994,176.92307692307693,471.6863711001642,175.9379652605459,474.767925561029,175.46153846153845C477.95219850392266,174.96923076923076,481.1364714468163,174.72307692307692,484.32074438970994,174.72307692307692C487.50501733260353,174.72307692307692,490.68929027549717,182.83692307692309,493.87356321839076,182.83692307692309C496.9551176792556,182.83692307692309,500.0366721401204,175.57667331082462,503.1182266009852,171.16923076923078C506.3024995438788,166.61487347625055,509.48677248677245,155.84615384615384,512.671045429666,155.84615384615384C515.7568798272821,155.84615384615384,518.8427142248981,162.30769230769232,521.9285486225142,162.30769230769232C525.1128215654078,162.30769230769232,528.2970945083015,47.84615384615384,531.4813674511951,47.84615384615384C534.6656403940887,47.84615384615384,537.8499133369824,192.30769230769232,541.0341862798759,192.30769230769232C543.9103037766831,192.30769230769232,546.7864212734902,132.28646153846154,549.6625387702974,132.28646153846154C552.8425317764398,132.28646153846154,556.0225247825822,147.0769230769231,559.2025177887247,147.0769230769231C562.2840722495895,147.0769230769231,565.3656267104543,139.4153846153846,568.4471811713191,139.4153846153846C571.6314541142127,139.4153846153846,574.8157270571064,145.13846153846154,578,150.86153846153846" style="fill: transparent; stroke: rgb(51, 51, 51); stroke-width: 2; opacity: 1;"></path></g></g></svg>