<svg xmlns="http://www.w3.org/2000/svg" width="640" height="324" role="img" aria-labelledby="victory-container-4-title victory-container-4-desc" viewBox="0 0 640 324" style="pointer-events: all; width: 100%; height: 100%;"><g role="presentation"><line x1="15" x2="578" y1="274" y2="274" role="presentation" shape-rendering="auto" vector-effect="non-scaling-stroke" style="stroke: rgb(226, 226, 226); fill: transparent; stroke-width: 1; stroke-linejoin: round;"></line><g role="presentation"><line x1="81.26626071884692" x2="81.26626071884692" y1="274" y2="34" role="presentation" shape-rendering="auto" vector-effect="non-scaling-stroke" style="stroke: transparent; fill: transparent; stroke-width: 1; stroke-linecap: round; stroke-linejoin: round; pointer-events: none;"></line><line x1="81.26626071884692" x2="81.26626071884692" y1="274" y2="278" role="presentation" shape-rendering="auto" vector-effect="non-scaling-stroke" style="stroke: transparent; fill: transparent; size: 4px; stroke-width: 1; stroke-linecap: round; stroke-linejoin: round;"></line><text dx="0" dy="11.969999999999999" x="81.26626071884692" y="286"><tspan x="81.26626071884692" dx="0" text-anchor="middle" style="fill: rgb(153, 153, 153); font-size: 14px; font-family: inherit; stroke: transparent; letter-spacing: normal; padding: 8px; stroke-width: 0;">2017</tspan></text></g><g role="presentation"><line x1="193.74299854041232" x2="193.74299854041232" y1="274" y2="34" role="presentation" shape-rendering="auto" vector-effect="non-scaling-stroke" style="stroke: transparent; fill: transparent; stroke-width: 1; stroke-linecap: round; stroke-linejoin: round; pointer-events: none;"></line><line x1="193.74299854041232" x2="193.74299854041232" y1="274" y2="278" role="presentation" shape-rendering="auto" vector-effect="non-scaling-stroke" style="stroke: transparent; fill: transparent; size: 4px; stroke-width: 1; stroke-linecap: round; stroke-linejoin: round;"></line><text dx="0" dy="11.969999999999999" x="193.74299854041232" y="286"><tspan x="193.74299854041232" dx="0" text-anchor="middle" style="fill: rgb(153, 153, 153); font-size: 14px; font-family: inherit; stroke: transparent; letter-spacing: normal; padding: 8px; stroke-width: 0;">2018</tspan></text></g><g role="presentation"><line x1="306.2197363619777" x2="306.2197363619777" y1="274" y2="34" role="presentation" shape-rendering="auto" vector-effect="non-scaling-stroke" style="stroke: transparent; fill: transparent; stroke-width: 1; stroke-linecap: round; stroke-linejoin: round; pointer-events: none;"></line><line x1="306.2197363619777" x2="306.2197363619777" y1="274" y2="278" role="presentation" shape-rendering="auto" vector-effect="non-scaling-stroke" style="stroke: transparent; fill: transparent; size: 4px; stroke-width: 1; stroke-linecap: round; stroke-linejoin: round;"></line><text dx="0" dy="11.969999999999999" x="306.2197363619777" y="286"><tspan x="306.2197363619777" dx="0" text-anchor="middle" style="fill: rgb(153, 153, 153); font-size: 14px; font-family: inherit; stroke: transparent; letter-spacing: normal; padding: 8px; stroke-width: 0;">2019</tspan></text></g><g role="presentation"><line x1="418.69647418354316" x2="418.69647418354316" y1="274" y2="34" role="presentation" shape-rendering="auto" vector-effect="non-scaling-stroke" style="stroke: transparent; fill: transparent; stroke-width: 1; stroke-linecap: round; stroke-linejoin: round; pointer-events: none;"></line><line x1="418.69647418354316" x2="418.69647418354316" y1="274" y2="278" role="presentation" shape-rendering="auto" vector-effect="non-scaling-stroke" style="stroke: transparent; fill: transparent; size: 4px; stroke-width: 1; stroke-linecap: round; stroke-linejoin: round;"></line><text dx="0" dy="11.969999999999999" x="418.69647418354316" y="286"><tspan x="418.69647418354316" dx="0" text-anchor="middle" style="fill: rgb(153, 153, 153); font-size: 14px; font-family: inherit; stroke: transparent; letter-spacing: normal; padding: 8px; stroke-width: 0;">2020</tspan></text></g><g role="presentation"><line x1="531.4813674511951" x2="531.4813674511951" y1="274" y2="34" role="presentation" shape-rendering="auto" vector-effect="non-scaling-stroke" style="stroke: transparent; fill: transparent; stroke-width: 1; stroke-linecap: round; stroke-linejoin: round; pointer-events: none;"></line><line x1="531.4813674511951" x2="531.4813674511951" y1="274" y2="278" role="presentation" shape-rendering="auto" vector-effect="non-scaling-stroke" style="stroke: transparent; fill: transparent; size: 4px; stroke-width: 1; stroke-linecap: round; stroke-linejoin: round;"></line><text dx="0" dy="11.969999999999999" x="531.4813674511951" y="286"><tspan x="531.4813674511951" dx="0" text-anchor="middle" style="fill: rgb(153, 153, 153); font-size: 14px; font-family: inherit; stroke: transparent; letter-spacing: normal; padding: 8px; stroke-width: 0;">2021</tspan></text></g></g><g role="presentation"><line x1="578" x2="578" y1="34" y2="274" role="presentation" shape-rendering="auto" vector-effect="non-scaling-stroke" style="stroke: transparent; fill: transparent; stroke-width: 1; stroke-linejoin: round;"></line><g role="presentation"><line x1="578" x2="15" y1="274" y2="274" role="presentation" shape-rendering="auto" vector-effect="non-scaling-stroke" style="stroke: rgb(226, 226, 226); fill: transparent; stroke-width: 1; stroke-linecap: round; stroke-linejoin: round; pointer-events: none;"></line><line x1="578" x2="582" y1="274" y2="274" role="presentation" shape-rendering="auto" vector-effect="non-scaling-stroke" style="stroke: transparent; fill: transparent; size: 4px; stroke-width: 1; stroke-linecap: round; stroke-linejoin: round;"></line><text dx="0" dy="4.97" x="590" y="274"><tspan x="590" dx="0" text-anchor="start" style="fill: rgb(153, 153, 153); font-size: 14px; font-family: inherit; stroke: transparent; letter-spacing: normal; padding: 8px; stroke-width: 0;">$100K</tspan></text></g><g role="presentation"><line x1="578" x2="15" y1="214" y2="214" role="presentation" shape-rendering="auto" vector-effect="non-scaling-stroke" style="stroke: rgb(226, 226, 226); fill: transparent; stroke-width: 1; stroke-linecap: round; stroke-linejoin: round; pointer-events: none;"></line><line x1="578" x2="582" y1="214" y2="214" role="presentation" shape-rendering="auto" vector-effect="non-scaling-stroke" style="stroke: transparent; fill: transparent; size: 4px; stroke-width: 1; stroke-linecap: round; stroke-linejoin: round;"></line><text dx="0" dy="4.97" x="590" y="214"><tspan x="590" dx="0" text-anchor="start" style="fill: rgb(153, 153, 153); font-size: 14px; font-family: inherit; stroke: transparent; letter-spacing: normal; padding: 8px; stroke-width: 0;">$150K</tspan></text></g><g role="presentation"><line x1="578" x2="15" y1="154" y2="154" role="presentation" shape-rendering="auto" vector-effect="non-scaling-stroke" style="stroke: rgb(226, 226, 226); fill: transparent; stroke-width: 1; stroke-linecap: round; stroke-linejoin: round; pointer-events: none;"></line><line x1="578" x2="582" y1="154" y2="154" role="presentation" shape-rendering="auto" vector-effect="non-scaling-stroke" style="stroke: transparent; fill: transparent; size: 4px; stroke-width: 1; stroke-linecap: round; stroke-linejoin: round;"></line><text dx="0" dy="4.97" x="590" y="154"><tspan x="590" dx="0" text-anchor="start" style="fill: rgb(153, 153, 153); font-size: 14px; font-family: inherit; stroke: transparent; letter-spacing: normal; padding: 8px; stroke-width: 0;">$200K</tspan></text></g><g role="presentation"><line x1="578" x2="15" y1="94" y2="94" role="presentation" shape-rendering="auto" vector-effect="non-scaling-stroke" style="stroke: rgb(226, 226, 226); fill: transparent; stroke-width: 1; stroke-linecap: round; stroke-linejoin: round; pointer-events: none;"></line><line x1="578" x2="582" y1="94" y2="94" role="presentation" shape-rendering="auto" vector-effect="non-scaling-stroke" style="stroke: transparent; fill: transparent; size: 4px; stroke-width: 1; stroke-linecap: round; stroke-linejoin: round;"></line><text dx="0" dy="4.97" x="590" y="94"><tspan x="590" dx="0" text-anchor="start" style="fill: rgb(153, 153, 153); font-size: 14px; font-family: inherit; stroke: transparent; letter-spacing: normal; padding: 8px; stroke-width: 0;">$250K</tspan></text></g><g role="presentation"><line x1="578" x2="15" y1="34" y2="34" role="presentation" shape-rendering="auto" vector-effect="non-scaling-stroke" style="stroke: rgb(226, 226, 226); fill: transparent; stroke-width: 1; stroke-linecap: round; stroke-linejoin: round; pointer-events: none;"></line><line x1="578" x2="582" y1="34" y2="34" role="presentation" shape-rendering="auto" vector-effect="non-scaling-stroke" style="stroke: transparent; fill: transparent; size: 4px; stroke-width: 1; stroke-linecap: round; stroke-linejoin: round;"></line><text dx="0" dy="4.97" x="590" y="34"><tspan x="590" dx="0" text-anchor="start" style="fill: rgb(153, 153, 153); font-size: 14px; font-family: inherit; stroke: transparent; letter-spacing: normal; padding: 8px; stroke-width: 0;">$300K</tspan></text></g></g><g style="height: 100%; width: 100%; user-select: none;"><defs><clipPath id="victory-clip-5"><rect x="15" y="34" width="563" height="240"></rect></clipPath></defs><g clip-path="url(#victory-clip-5)"><path shape-rendering="auto" role="presentation" d="M24.5528188286809,230.5C27.73709177157453,234.25,30.921364714468165,238,34.1056376573618,238C37.28991060025543,238,40.47418354314906,236.86,43.658456486042695,236.86C46.7400109469075,236.86,49.821565407772304,250,52.90311986863711,250C56.08739281153075,250,59.271665754424376,246.45164120746213,62.45593869731801,244C65.54177309493402,241.62414877610186,68.62760749255003,235.6,71.71344189016602,235.6C74.89771483305965,235.6,78.0819877759533,236.79999999999998,81.26626071884692,239.2C84.45053366174056,241.6,87.63480660463419,259,90.81907954752783,259C93.69519704433499,259,96.57131454114213,242.92355316285327,99.44743203794928,242.2C102.62742504409171,241.4,105.80741805023415,241,108.98741105637657,241C112.06896551724138,241,115.15051997810617,242.8,118.23207443897098,242.8C121.41634738186463,242.8,124.60062032475825,228.17116000000001,127.7848932676519,226.3C130.8664477285167,224.4892,133.9480021893815,224.7076653622422,137.02955665024632,223.5838C140.21382959313993,222.4224724590164,143.39810253603358,221.3973,146.5823754789272,219.4C149.76664842182083,217.4027,152.95092136471445,211.6,156.1351943076081,211.6C159.2167487684729,211.6,162.2983032293377,236.92000000000002,165.37985769020253,236.92000000000002C168.56413063309614,236.92000000000002,171.74840357598978,227.90382833853246,174.9326765188834,223C178.0185109164994,218.24776850526624,181.10434531411542,208,184.19017971173142,208C187.37445265462506,208,190.55872559751867,219.7,193.74299854041232,225.7C196.92727148330596,231.7,200.1115444261996,244,203.29581736909324,244C206.1719348659004,244,209.04805236270755,208.6,211.9241698595147,208.6C215.10416286565712,208.6,218.28415587179956,220.830353261563,221.46414887794197,226.00119999999998C224.5457033388068,231.01198015030235,227.62725779967158,235.88123976731887,230.7088122605364,239.26C233.89308520343002,242.75138557377048,237.07735814632366,246.4,240.26163108921727,246.4C243.3431855500821,246.4,246.4247400109469,214.14535483870966,249.5062944718117,212.206C252.69056741470536,210.202,255.874840357599,209.2,259.05911330049264,209.2C262.2433862433863,209.2,265.42765918627987,221.94666666666666,268.6119321291735,223.6C271.69348659003833,225.2,274.7750410509031,226,277.8565955117679,226C281.04086845466156,226,284.22514139755515,184.12,287.4094143404488,184.12C290.4952487380648,184.12,293.58108313568084,184.12,296.66691753329684,184.12C299.8511904761905,184.12,303.03546341908407,186.33600000000004,306.2197363619777,189.526C309.40400930487135,192.716,312.588282247765,203.26,315.77255519065864,203.26C318.6486726874658,203.26,321.52479018427294,202.04,324.4009076810801,199.6C327.58090068722254,196.90220238095242,330.76089369336495,187.80644472924735,333.94088669950736,184C337.0224411603722,180.3113859958841,340.10399562123695,176.86,343.18555008210177,176.86C346.3698230249954,176.86,349.55409596788905,192.65153005464478,352.7383689107827,198.7C355.8199233716475,204.55335801163403,358.9014778325123,212.8,361.9830322933771,212.8C365.16730523627075,212.8,368.35157817916433,162.39999999999998,371.535851122058,162.39999999999998C374.7201240649516,162.39999999999998,377.90439700784526,190,381.0886699507389,190C384.1702244116037,190,387.2517788724685,180.39999999999998,390.3333333333333,180.39999999999998C393.51760627622696,180.39999999999998,396.7018792191206,184.04709553000433,399.88615216201424,188.8C402.97198655963024,193.40597328342326,406.0578209572463,208.12,409.1436553548623,208.12C412.32792829775593,208.12,415.5122012406495,178,418.69647418354316,178C421.8807471264368,178,425.0650200693304,206.86,428.24929301222403,206.86C431.22812899106003,206.86,434.206964969896,181.1536,437.185800948732,181.1536C440.3657939548744,181.1536,443.54578696101686,188.8,446.72577996715927,188.8C449.8073344280241,188.8,452.8888888888889,161.2,455.97044334975374,161.2C459.1547162926473,161.2,462.33898923554096,196,465.52326217843455,196C468.6048166392994,196,471.6863711001642,151.606,474.767925561029,151.606C477.95219850392266,151.606,481.1364714468163,152.408,484.32074438970994,154.012C487.50501733260353,155.61599999999999,490.68929027549717,165.91471038251368,493.87356321839076,170.56C496.9551176792556,175.0554415653094,500.0366721401204,180.0516129032258,503.1182266009852,181.6C506.3024995438788,183.2,509.48677248677245,184,512.671045429666,184C515.7568798272821,184,518.8427142248981,136,521.9285486225142,136C525.1128215654078,136,528.2970945083015,160,531.4813674511951,160C534.6656403940887,160,537.8499133369824,142,541.0341862798759,142C543.9103037766831,142,546.7864212734902,163.6006,549.6625387702974,163.6006C552.8425317764398,163.6006,556.0225247825822,139.61468413457888,559.2025177887247,132.4C562.2840722495895,125.40865063674723,565.3656267104543,125.21836065573774,568.4471811713191,120.4C571.6314541142127,115.42102732240438,574.8157270571064,109.1313136612022,578,102.8416" style="fill: transparent; stroke: rgb(51, 51, 51); stroke-width: 2; opacity: 1;"></path></g></g></svg>