<svg xmlns="http://www.w3.org/2000/svg" width="640" height="324" role="img" aria-labelledby="victory-container-4-title victory-container-4-desc" viewBox="0 0 640 324" style="pointer-events: all; width: 100%; height: 100%;"><g role="presentation"><line x1="15" x2="578" y1="274" y2="274" role="presentation" shape-rendering="auto" vector-effect="non-scaling-stroke" style="stroke: rgb(226, 226, 226); fill: transparent; stroke-width: 1; stroke-linejoin: round;"></line><g role="presentation"><line x1="81.26626071884692" x2="81.26626071884692" y1="274" y2="34" role="presentation" shape-rendering="auto" vector-effect="non-scaling-stroke" style="stroke: transparent; fill: transparent; stroke-width: 1; stroke-linecap: round; stroke-linejoin: round; pointer-events: none;"></line><line x1="81.26626071884692" x2="81.26626071884692" y1="274" y2="278" role="presentation" shape-rendering="auto" vector-effect="non-scaling-stroke" style="stroke: transparent; fill: transparent; size: 4px; stroke-width: 1; stroke-linecap: round; stroke-linejoin: round;"></line><text dx="0" dy="11.969999999999999" x="81.26626071884692" y="286"><tspan x="81.26626071884692" dx="0" text-anchor="middle" style="fill: rgb(153, 153, 153); font-size: 14px; font-family: inherit; stroke: transparent; letter-spacing: normal; padding: 8px; stroke-width: 0;">2017</tspan></text></g><g role="presentation"><line x1="193.74299854041232" x2="193.74299854041232" y1="274" y2="34" role="presentation" shape-rendering="auto" vector-effect="non-scaling-stroke" style="stroke: transparent; fill: transparent; stroke-width: 1; stroke-linecap: round; stroke-linejoin: round; pointer-events: none;"></line><line x1="193.74299854041232" x2="193.74299854041232" y1="274" y2="278" role="presentation" shape-rendering="auto" vector-effect="non-scaling-stroke" style="stroke: transparent; fill: transparent; size: 4px; stroke-width: 1; stroke-linecap: round; stroke-linejoin: round;"></line><text dx="0" dy="11.969999999999999" x="193.74299854041232" y="286"><tspan x="193.74299854041232" dx="0" text-anchor="middle" style="fill: rgb(153, 153, 153); font-size: 14px; font-family: inherit; stroke: transparent; letter-spacing: normal; padding: 8px; stroke-width: 0;">2018</tspan></text></g><g role="presentation"><line x1="306.2197363619777" x2="306.2197363619777" y1="274" y2="34" role="presentation" shape-rendering="auto" vector-effect="non-scaling-stroke" style="stroke: transparent; fill: transparent; stroke-width: 1; stroke-linecap: round; stroke-linejoin: round; pointer-events: none;"></line><line x1="306.2197363619777" x2="306.2197363619777" y1="274" y2="278" role="presentation" shape-rendering="auto" vector-effect="non-scaling-stroke" style="stroke: transparent; fill: transparent; size: 4px; stroke-width: 1; stroke-linecap: round; stroke-linejoin: round;"></line><text dx="0" dy="11.969999999999999" x="306.2197363619777" y="286"><tspan x="306.2197363619777" dx="0" text-anchor="middle" style="fill: rgb(153, 153, 153); font-size: 14px; font-family: inherit; stroke: transparent; letter-spacing: normal; padding: 8px; stroke-width: 0;">2019</tspan></text></g><g role="presentation"><line x1="418.69647418354316" x2="418.69647418354316" y1="274" y2="34" role="presentation" shape-rendering="auto" vector-effect="non-scaling-stroke" style="stroke: transparent; fill: transparent; stroke-width: 1; stroke-linecap: round; stroke-linejoin: round; pointer-events: none;"></line><line x1="418.69647418354316" x2="418.69647418354316" y1="274" y2="278" role="presentation" shape-rendering="auto" vector-effect="non-scaling-stroke" style="stroke: transparent; fill: transparent; size: 4px; stroke-width: 1; stroke-linecap: round; stroke-linejoin: round;"></line><text dx="0" dy="11.969999999999999" x="418.69647418354316" y="286"><tspan x="418.69647418354316" dx="0" text-anchor="middle" style="fill: rgb(153, 153, 153); font-size: 14px; font-family: inherit; stroke: transparent; letter-spacing: normal; padding: 8px; stroke-width: 0;">2020</tspan></text></g><g role="presentation"><line x1="531.4813674511951" x2="531.4813674511951" y1="274" y2="34" role="presentation" shape-rendering="auto" vector-effect="non-scaling-stroke" style="stroke: transparent; fill: transparent; stroke-width: 1; stroke-linecap: round; stroke-linejoin: round; pointer-events: none;"></line><line x1="531.4813674511951" x2="531.4813674511951" y1="274" y2="278" role="presentation" shape-rendering="auto" vector-effect="non-scaling-stroke" style="stroke: transparent; fill: transparent; size: 4px; stroke-width: 1; stroke-linecap: round; stroke-linejoin: round;"></line><text dx="0" dy="11.969999999999999" x="531.4813674511951" y="286"><tspan x="531.4813674511951" dx="0" text-anchor="middle" style="fill: rgb(153, 153, 153); font-size: 14px; font-family: inherit; stroke: transparent; letter-spacing: normal; padding: 8px; stroke-width: 0;">2021</tspan></text></g></g><g role="presentation"><line x1="578" x2="578" y1="34" y2="274" role="presentation" shape-rendering="auto" vector-effect="non-scaling-stroke" style="stroke: transparent; fill: transparent; stroke-width: 1; stroke-linejoin: round;"></line><g role="presentation"><line x1="578" x2="15" y1="220.66666666666669" y2="220.66666666666669" role="presentation" shape-rendering="auto" vector-effect="non-scaling-stroke" style="stroke: rgb(226, 226, 226); fill: transparent; stroke-width: 1; stroke-linecap: round; stroke-linejoin: round; pointer-events: none;"></line><line x1="578" x2="582" y1="220.66666666666669" y2="220.66666666666669" role="presentation" shape-rendering="auto" vector-effect="non-scaling-stroke" style="stroke: transparent; fill: transparent; size: 4px; stroke-width: 1; stroke-linecap: round; stroke-linejoin: round;"></line><text dx="0" dy="4.97" x="590" y="220.66666666666669"><tspan x="590" dx="0" text-anchor="start" style="fill: rgb(153, 153, 153); font-size: 14px; font-family: inherit; stroke: transparent; letter-spacing: normal; padding: 8px; stroke-width: 0;">$100K</tspan></text></g><g role="presentation"><line x1="578" x2="15" y1="154" y2="154" role="presentation" shape-rendering="auto" vector-effect="non-scaling-stroke" style="stroke: rgb(226, 226, 226); fill: transparent; stroke-width: 1; stroke-linecap: round; stroke-linejoin: round; pointer-events: none;"></line><line x1="578" x2="582" y1="154" y2="154" role="presentation" shape-rendering="auto" vector-effect="non-scaling-stroke" style="stroke: transparent; fill: transparent; size: 4px; stroke-width: 1; stroke-linecap: round; stroke-linejoin: round;"></line><text dx="0" dy="4.97" x="590" y="154"><tspan x="590" dx="0" text-anchor="start" style="fill: rgb(153, 153, 153); font-size: 14px; font-family: inherit; stroke: transparent; letter-spacing: normal; padding: 8px; stroke-width: 0;">$150K</tspan></text></g><g role="presentation"><line x1="578" x2="15" y1="87.33333333333334" y2="87.33333333333334" role="presentation" shape-rendering="auto" vector-effect="non-scaling-stroke" style="stroke: rgb(226, 226, 226); fill: transparent; stroke-width: 1; stroke-linecap: round; stroke-linejoin: round; pointer-events: none;"></line><line x1="578" x2="582" y1="87.33333333333334" y2="87.33333333333334" role="presentation" shape-rendering="auto" vector-effect="non-scaling-stroke" style="stroke: transparent; fill: transparent; size: 4px; stroke-width: 1; stroke-linecap: round; stroke-linejoin: round;"></line><text dx="0" dy="4.97" x="590" y="87.33333333333334"><tspan x="590" dx="0" text-anchor="start" style="fill: rgb(153, 153, 153); font-size: 14px; font-family: inherit; stroke: transparent; letter-spacing: normal; padding: 8px; stroke-width: 0;">$200K</tspan></text></g></g><g style="height: 100%; width: 100%; user-select: none;"><defs><clipPath id="victory-clip-5"><rect x="15" y="34" width="563" height="240"></rect></clipPath></defs><g clip-path="url(#victory-clip-5)"><path shape-rendering="auto" role="presentation" d="M24.5528188286809,120.094C27.73709177157453,117.047,30.921364714468165,114,34.1056376573618,114C37.28991060025543,114,40.47418354314906,210.20740740740737,43.658456486042695,231.33333333333331C46.7400109469075,251.77777777777777,49.821565407772304,262,52.90311986863711,262C56.08739281153075,262,59.271665754424376,190.66666666666669,62.45593869731801,190.66666666666669C65.54177309493402,190.66666666666669,68.62760749255003,194,71.71344189016602,194C74.89771483305965,194,78.0819877759533,129.66666666666669,81.26626071884692,129.66666666666669C84.45053366174056,129.66666666666669,87.63480660463419,134.8888888888889,90.81907954752783,145.33333333333334C93.69519704433499,154.7670250896057,96.57131454114213,175.3618116687566,99.44743203794928,189.16666666666666C102.62742504409171,204.4300703325107,105.80741805023415,232,108.98741105637657,232C112.06896551724138,232,115.15051997810617,84,118.23207443897098,84C121.41634738186463,84,124.60062032475825,92.88888888888889,127.7848932676519,110.66666666666666C130.8664477285167,127.87096774193546,133.9480021893815,207.33333333333331,137.02955665024632,207.33333333333331C140.21382959313993,207.33333333333331,143.39810253603358,162.66666666666666,146.5823754789272,162.66666666666666C149.76664842182083,162.66666666666666,152.95092136471445,186,156.1351943076081,186C159.2167487684729,186,162.2983032293377,185.55203008402373,165.37985769020253,185.33333333333331C168.56413063309614,185.10734669095322,171.74840357598978,184.66666666666666,174.9326765188834,184.66666666666666C178.0185109164994,184.66666666666666,181.10434531411542,263.3333333333333,184.19017971173142,263.3333333333333C187.37445265462506,263.3333333333333,190.55872559751867,246.22222222222217,193.74299854041232,223.33333333333334C196.92727148330596,200.44444444444446,200.1115444261996,126,203.29581736909324,126C206.1719348659004,126,209.04805236270755,171.9901301031853,211.9241698595147,174C215.10416286565712,176.2222222222222,218.28415587179956,175.11111111111111,221.46414887794197,177.33333333333331C224.5457033388068,179.4867653656348,227.62725779967158,188.98924731182794,230.7088122605364,192C233.89308520343002,195.11111111111111,237.07735814632366,196.66666666666666,240.26163108921727,196.66666666666666C243.3431855500821,196.66666666666666,246.4247400109469,193.55555555555554,249.5062944718117,187.33333333333331C252.69056741470536,180.90370370370368,255.874840357599,100,259.05911330049264,100C262.2433862433863,100,265.42765918627987,122.49333333333331,268.6119321291735,122.49333333333331C271.69348659003833,122.49333333333331,274.7750410509031,96.66666666666666,277.8565955117679,96.66666666666666C281.04086845466156,96.66666666666666,284.22514139755515,183.66666666666669,287.4094143404488,183.66666666666669C290.4952487380648,183.66666666666669,293.58108313568084,88.816,296.66691753329684,88.816C299.8511904761905,88.816,303.03546341908407,187.33333333333331,306.2197363619777,187.33333333333331C309.40400930487135,187.33333333333331,312.588282247765,106.66666666666669,315.77255519065864,106.66666666666669C318.6486726874658,106.66666666666669,321.52479018427294,135.0792907075117,324.4009076810801,144C327.58090068722254,153.86322470880765,330.76089369336495,160.66666666666669,333.94088669950736,160.66666666666669C337.0224411603722,160.66666666666669,340.10399562123695,133.33333333333331,343.18555008210177,133.33333333333331C346.3698230249954,133.33333333333331,349.55409596788905,224.66666666666669,352.7383689107827,224.66666666666669C355.8199233716475,224.66666666666669,358.9014778325123,136.79569892473117,361.9830322933771,127.33333333333331C365.16730523627075,117.55555555555554,368.35157817916433,120.33333333333329,371.535851122058,112.66666666666666C374.7201240649516,104.99999999999999,377.90439700784526,81.33333333333331,381.0886699507389,81.33333333333331C384.1702244116037,81.33333333333331,387.2517788724685,95.93936188965277,390.3333333333333,111.33333333333331C393.51760627622696,127.24043715846993,396.7018792191206,176.33333333333331,399.88615216201424,176.33333333333331C402.97198655963024,176.33333333333331,406.0578209572463,96.33333333333331,409.1436553548623,96.33333333333331C412.32792829775593,96.33333333333331,415.5122012406495,174.33333333333331,418.69647418354316,174.33333333333331C421.8807471264368,174.33333333333331,425.0650200693304,147.33333333333331,428.24929301222403,147.33333333333331C431.22812899106003,147.33333333333331,434.206964969896,163.33333333333331,437.185800948732,163.33333333333331C440.3657939548744,163.33333333333331,443.54578696101686,48.66666666666666,446.72577996715927,48.66666666666666C449.8073344280241,48.66666666666666,452.8888888888889,152,455.97044334975374,152C459.1547162926473,152,462.33898923554096,150.66666666666669,465.52326217843455,150.66666666666669C468.6048166392994,150.66666666666669,471.6863711001642,200.33333333333331,474.767925561029,200.33333333333331C477.95219850392266,200.33333333333331,481.1364714468163,92.66666666666669,484.32074438970994,92.66666666666669C487.50501733260353,92.66666666666669,490.68929027549717,205.33333333333334,493.87356321839076,205.33333333333334C496.9551176792556,205.33333333333334,500.0366721401204,197.33333333333334,503.1182266009852,181.33333333333331C506.3024995438788,164.80000000000018,509.48677248677245,84.08969024502981,512.671045429666,74C515.7568798272821,64.22222222222221,518.8427142248981,59.333333333333314,521.9285486225142,59.333333333333314C525.1128215654078,59.333333333333314,528.2970945083015,207.33333333333331,531.4813674511951,207.33333333333331C534.6656403940887,207.33333333333331,537.8499133369824,124.33333333333334,541.0341862798759,124.33333333333334C543.9103037766831,124.33333333333334,546.7864212734902,146.66666666666669,549.6625387702974,146.66666666666669C552.8425317764398,146.66666666666669,556.0225247825822,37.333333333333314,559.2025177887247,37.333333333333314C562.2840722495895,37.333333333333314,565.3656267104543,164.33333333333334,568.4471811713191,164.33333333333334C571.6314541142127,164.33333333333334,574.8157270571064,156.83333333333331,578,149.33333333333331" style="fill: transparent; stroke: rgb(51, 51, 51); stroke-width: 2; opacity: 1;"></path></g></g></svg>