<svg xmlns="http://www.w3.org/2000/svg" width="640" height="324" role="img" aria-labelledby="victory-container-4-title victory-container-4-desc" viewBox="0 0 640 324" style="pointer-events: all; width: 100%; height: 100%;"><g role="presentation"><line x1="15" x2="578" y1="274" y2="274" role="presentation" shape-rendering="auto" vector-effect="non-scaling-stroke" style="stroke: rgb(226, 226, 226); fill: transparent; stroke-width: 1; stroke-linejoin: round;"></line><g role="presentation"><line x1="81.26626071884692" x2="81.26626071884692" y1="274" y2="34" role="presentation" shape-rendering="auto" vector-effect="non-scaling-stroke" style="stroke: transparent; fill: transparent; stroke-width: 1; stroke-linecap: round; stroke-linejoin: round; pointer-events: none;"></line><line x1="81.26626071884692" x2="81.26626071884692" y1="274" y2="278" role="presentation" shape-rendering="auto" vector-effect="non-scaling-stroke" style="stroke: transparent; fill: transparent; size: 4px; stroke-width: 1; stroke-linecap: round; stroke-linejoin: round;"></line><text dx="0" dy="11.969999999999999" x="81.26626071884692" y="286"><tspan x="81.26626071884692" dx="0" text-anchor="middle" style="fill: rgb(153, 153, 153); font-size: 14px; font-family: inherit; stroke: transparent; letter-spacing: normal; padding: 8px; stroke-width: 0;">2017</tspan></text></g><g role="presentation"><line x1="193.74299854041232" x2="193.74299854041232" y1="274" y2="34" role="presentation" shape-rendering="auto" vector-effect="non-scaling-stroke" style="stroke: transparent; fill: transparent; stroke-width: 1; stroke-linecap: round; stroke-linejoin: round; pointer-events: none;"></line><line x1="193.74299854041232" x2="193.74299854041232" y1="274" y2="278" role="presentation" shape-rendering="auto" vector-effect="non-scaling-stroke" style="stroke: transparent; fill: transparent; size: 4px; stroke-width: 1; stroke-linecap: round; stroke-linejoin: round;"></line><text dx="0" dy="11.969999999999999" x="193.74299854041232" y="286"><tspan x="193.74299854041232" dx="0" text-anchor="middle" style="fill: rgb(153, 153, 153); font-size: 14px; font-family: inherit; stroke: transparent; letter-spacing: normal; padding: 8px; stroke-width: 0;">2018</tspan></text></g><g role="presentation"><line x1="306.2197363619777" x2="306.2197363619777" y1="274" y2="34" role="presentation" shape-rendering="auto" vector-effect="non-scaling-stroke" style="stroke: transparent; fill: transparent; stroke-width: 1; stroke-linecap: round; stroke-linejoin: round; pointer-events: none;"></line><line x1="306.2197363619777" x2="306.2197363619777" y1="274" y2="278" role="presentation" shape-rendering="auto" vector-effect="non-scaling-stroke" style="stroke: transparent; fill: transparent; size: 4px; stroke-width: 1; stroke-linecap: round; stroke-linejoin: round;"></line><text dx="0" dy="11.969999999999999" x="306.2197363619777" y="286"><tspan x="306.2197363619777" dx="0" text-anchor="middle" style="fill: rgb(153, 153, 153); font-size: 14px; font-family: inherit; stroke: transparent; letter-spacing: normal; padding: 8px; stroke-width: 0;">2019</tspan></text></g><g role="presentation"><line x1="418.69647418354316" x2="418.69647418354316" y1="274" y2="34" role="presentation" shape-rendering="auto" vector-effect="non-scaling-stroke" style="stroke: transparent; fill: transparent; stroke-width: 1; stroke-linecap: round; stroke-linejoin: round; pointer-events: none;"></line><line x1="418.69647418354316" x2="418.69647418354316" y1="274" y2="278" role="presentation" shape-rendering="auto" vector-effect="non-scaling-stroke" style="stroke: transparent; fill: transparent; size: 4px; stroke-width: 1; stroke-linecap: round; stroke-linejoin: round;"></line><text dx="0" dy="11.969999999999999" x="418.69647418354316" y="286"><tspan x="418.69647418354316" dx="0" text-anchor="middle" style="fill: rgb(153, 153, 153); font-size: 14px; font-family: inherit; stroke: transparent; letter-spacing: normal; padding: 8px; stroke-width: 0;">2020</tspan></text></g><g role="presentation"><line x1="531.4813674511951" x2="531.4813674511951" y1="274" y2="34" role="presentation" shape-rendering="auto" vector-effect="non-scaling-stroke" style="stroke: transparent; fill: transparent; stroke-width: 1; stroke-linecap: round; stroke-linejoin: round; pointer-events: none;"></line><line x1="531.4813674511951" x2="531.4813674511951" y1="274" y2="278" role="presentation" shape-rendering="auto" vector-effect="non-scaling-stroke" style="stroke: transparent; fill: transparent; size: 4px; stroke-width: 1; stroke-linecap: round; stroke-linejoin: round;"></line><text dx="0" dy="11.969999999999999" x="531.4813674511951" y="286"><tspan x="531.4813674511951" dx="0" text-anchor="middle" style="fill: rgb(153, 153, 153); font-size: 14px; font-family: inherit; stroke: transparent; letter-spacing: normal; padding: 8px; stroke-width: 0;">2021</tspan></text></g></g><g role="presentation"><line x1="578" x2="578" y1="34" y2="274" role="presentation" shape-rendering="auto" vector-effect="non-scaling-stroke" style="stroke: transparent; fill: transparent; stroke-width: 1; stroke-linejoin: round;"></line><g role="presentation"><line x1="578" x2="15" y1="244" y2="244" role="presentation" shape-rendering="auto" vector-effect="non-scaling-stroke" style="stroke: rgb(226, 226, 226); fill: transparent; stroke-width: 1; stroke-linecap: round; stroke-linejoin: round; pointer-events: none;"></line><line x1="578" x2="582" y1="244" y2="244" role="presentation" shape-rendering="auto" vector-effect="non-scaling-stroke" style="stroke: transparent; fill: transparent; size: 4px; stroke-width: 1; stroke-linecap: round; stroke-linejoin: round;"></line><text dx="0" dy="4.97" x="590" y="244"><tspan x="590" dx="0" text-anchor="start" style="fill: rgb(153, 153, 153); font-size: 14px; font-family: inherit; stroke: transparent; letter-spacing: normal; padding: 8px; stroke-width: 0;">$200K</tspan></text></g><g role="presentation"><line x1="578" x2="15" y1="184" y2="184" role="presentation" shape-rendering="auto" vector-effect="non-scaling-stroke" style="stroke: rgb(226, 226, 226); fill: transparent; stroke-width: 1; stroke-linecap: round; stroke-linejoin: round; pointer-events: none;"></line><line x1="578" x2="582" y1="184" y2="184" role="presentation" shape-rendering="auto" vector-effect="non-scaling-stroke" style="stroke: transparent; fill: transparent; size: 4px; stroke-width: 1; stroke-linecap: round; stroke-linejoin: round;"></line><text dx="0" dy="4.97" x="590" y="184"><tspan x="590" dx="0" text-anchor="start" style="fill: rgb(153, 153, 153); font-size: 14px; font-family: inherit; stroke: transparent; letter-spacing: normal; padding: 8px; stroke-width: 0;">$400K</tspan></text></g><g role="presentation"><line x1="578" x2="15" y1="124" y2="124" role="presentation" shape-rendering="auto" vector-effect="non-scaling-stroke" style="stroke: rgb(226, 226, 226); fill: transparent; stroke-width: 1; stroke-linecap: round; stroke-linejoin: round; pointer-events: none;"></line><line x1="578" x2="582" y1="124" y2="124" role="presentation" shape-rendering="auto" vector-effect="non-scaling-stroke" style="stroke: transparent; fill: transparent; size: 4px; stroke-width: 1; stroke-linecap: round; stroke-linejoin: round;"></line><text dx="0" dy="4.97" x="590" y="124"><tspan x="590" dx="0" text-anchor="start" style="fill: rgb(153, 153, 153); font-size: 14px; font-family: inherit; stroke: transparent; letter-spacing: normal; padding: 8px; stroke-width: 0;">$600K</tspan></text></g><g role="presentation"><line x1="578" x2="15" y1="64" y2="64" role="presentation" shape-rendering="auto" vector-effect="non-scaling-stroke" style="stroke: rgb(226, 226, 226); fill: transparent; stroke-width: 1; stroke-linecap: round; stroke-linejoin: round; pointer-events: none;"></line><line x1="578" x2="582" y1="64" y2="64" role="presentation" shape-rendering="auto" vector-effect="non-scaling-stroke" style="stroke: transparent; fill: transparent; size: 4px; stroke-width: 1; stroke-linecap: round; stroke-linejoin: round;"></line><text dx="0" dy="4.97" x="590" y="64"><tspan x="590" dx="0" text-anchor="start" style="fill: rgb(153, 153, 153); font-size: 14px; font-family: inherit; stroke: transparent; letter-spacing: normal; padding: 8px; stroke-width: 0;">$800K</tspan></text></g></g><g style="height: 100%; width: 100%; user-select: none;"><defs><clipPath id="victory-clip-5"><rect x="15" y="34" width="563" height="240"></rect></clipPath></defs><g clip-path="url(#victory-clip-5)"><path shape-rendering="auto" role="presentation" d="M15.30815544608648,229C18.389709906951285,231.31364357482815,21.471264367816094,233.62728714965627,24.5528188286809,236.8C27.73709177157453,240.0784699453552,30.921364714468165,248.47,34.1056376573618,248.47C37.28991060025543,248.47,40.47418354314906,133.7515,43.658456486042695,133.7515C46.7400109469075,133.7515,49.821565407772304,163.19354838709677,52.90311986863711,169C56.08739281153075,175,59.271665754424376,178,62.45593869731801,178C65.54177309493402,178,68.62760749255003,87.25,71.71344189016602,87.25C74.89771483305965,87.25,78.0819877759533,115.74750000000003,81.26626071884692,136C84.45053366174056,156.2525,87.63480660463419,187.8913831719128,90.81907954752783,208.765C93.69519704433499,227.61858939311094,96.57131454114213,257.05,99.44743203794928,257.05C102.62742504409171,257.05,105.80741805023415,146.5,108.98741105637657,146.5C112.06896551724138,146.5,115.15051997810617,153.775,118.23207443897098,168.325C121.41634738186463,183.36,124.60062032475825,260.5,127.7848932676519,260.5C130.8664477285167,260.5,133.9480021893815,126.85,137.02955665024632,126.85C140.21382959313993,126.85,143.39810253603358,256,146.5823754789272,256C149.76664842182083,256,152.95092136471445,130.55999999999995,156.1351943076081,113.19999999999999C159.2167487684729,96.39999999999999,162.2983032293377,88,165.37985769020253,88C168.56413063309614,88,171.74840357598978,158.5,174.9326765188834,158.5C178.0185109164994,158.5,181.10434531411542,113.1996502165217,184.19017971173142,95.5C187.37445265462506,77.23572848669605,190.55872559751867,51.25,193.74299854041232,51.25C196.92727148330596,51.25,200.1115444261996,98.67378934624696,203.29581736909324,116.5C206.1719348659004,132.60109349371237,209.04805236270755,153.2102288021534,211.9241698595147,155.2C215.10416286565712,157.4,218.28415587179956,156.29999999999998,221.46414887794197,158.5C224.5457033388068,160.6318977119785,227.62725779967158,239.86,230.7088122605364,239.86C233.89308520343002,239.86,237.07735814632366,199.811475409836,240.26163108921727,175C243.3431855500821,150.98889476467474,246.4247400109469,94,249.5062944718117,94C252.69056741470536,94,255.874840357599,100.5,259.05911330049264,113.5C262.2433862433863,126.49999999999993,265.42765918627987,178.765,268.6119321291735,178.765C271.69348659003833,178.765,274.7750410509031,164.2250211528292,277.8565955117679,154C281.04086845466156,143.43414480874318,284.22514139755515,124.82707057679656,287.4094143404488,115.99180000000001C290.4952487380648,107.4296627878087,293.58108313568084,101.10759999999999,296.66691753329684,101.10759999999999C299.8511904761905,101.10759999999999,303.03546341908407,213.4,306.2197363619777,213.4C309.40400930487135,213.4,312.588282247765,159.69642857142856,315.77255519065864,152.5C318.6486726874658,146,321.52479018427294,148.10754034118207,324.4009076810801,142.75C327.58090068722254,136.82641000967524,330.76089369336495,124.04453800438596,333.94088669950736,117.25C337.0224411603722,110.66579089749943,340.10399562123695,102.30189999999999,343.18555008210177,102.30189999999999C346.3698230249954,102.30189999999999,349.55409596788905,156.25,352.7383689107827,156.25C355.8199233716475,156.25,358.9014778325123,124.96000000000001,361.9830322933771,124.96000000000001C365.16730523627075,124.96000000000001,368.35157817916433,170.41000000000003,371.535851122058,187.75C374.7201240649516,205.09000000000006,377.90439700784526,229,381.0886699507389,229C384.1702244116037,229,387.2517788724685,98.5,390.3333333333333,98.5C393.51760627622696,98.5,396.7018792191206,105.95975697386545,399.88615216201424,112C402.97198655963024,117.85351508312232,406.0578209572463,133.9,409.1436553548623,133.9C412.32792829775593,133.9,415.5122012406495,125.64999999999998,418.69647418354316,125.64999999999998C421.8807471264368,125.64999999999998,425.0650200693304,260.125,428.24929301222403,260.125C431.22812899106003,260.125,434.206964969896,116.5,437.185800948732,116.5C440.3657939548744,116.5,443.54578696101686,247,446.72577996715927,247C449.8073344280241,247,452.8888888888889,220.6873611845585,455.97044334975374,207.7C459.1547162926473,194.27972677595636,462.33898923554096,180.89206284152996,465.52326217843455,167.8C468.6048166392994,155.13026176626116,471.6863711001642,137.77822580645162,474.767925561029,130.375C477.95219850392266,122.72500000000001,481.1364714468163,125.01250000000007,484.32074438970994,118.9C487.50501733260353,112.78750000000002,490.68929027549717,93.70000000000002,493.87356321839076,93.70000000000002C496.9551176792556,93.70000000000002,500.0366721401204,170.5,503.1182266009852,170.5C506.3024995438788,170.5,509.48677248677245,75.54999999999998,512.671045429666,75.54999999999998C515.7568798272821,75.54999999999998,518.8427142248981,168.15653037726153,521.9285486225142,196.3C525.1128215654078,225.34125020709718,528.2970945083015,244.75,531.4813674511951,244.75C534.6656403940887,244.75,537.8499133369824,81.26499999999999,541.0341862798759,81.26499999999999C543.9103037766831,81.26499999999999,546.7864212734902,253,549.6625387702974,253C552.8425317764398,253,556.0225247825822,94,559.2025177887247,94C562.2840722495895,94,565.3656267104543,231.17741935483866,568.4471811713191,237.1C571.6314541142127,243.22,574.8157270571064,244.75,578,246.28" style="fill: transparent; stroke: rgb(51, 51, 51); stroke-width: 2; opacity: 1;"></path></g></g></svg>