<svg xmlns="http://www.w3.org/2000/svg" width="640" height="324" role="img" aria-labelledby="victory-container-4-title victory-container-4-desc" viewBox="0 0 640 324" style="pointer-events: all; width: 100%; height: 100%;"><g role="presentation"><line x1="15" x2="578" y1="274" y2="274" role="presentation" shape-rendering="auto" vector-effect="non-scaling-stroke" style="stroke: rgb(226, 226, 226); fill: transparent; stroke-width: 1; stroke-linejoin: round;"></line><g role="presentation"><line x1="81.26626071884692" x2="81.26626071884692" y1="274" y2="34" role="presentation" shape-rendering="auto" vector-effect="non-scaling-stroke" style="stroke: transparent; fill: transparent; stroke-width: 1; stroke-linecap: round; stroke-linejoin: round; pointer-events: none;"></line><line x1="81.26626071884692" x2="81.26626071884692" y1="274" y2="278" role="presentation" shape-rendering="auto" vector-effect="non-scaling-stroke" style="stroke: transparent; fill: transparent; size: 4px; stroke-width: 1; stroke-linecap: round; stroke-linejoin: round;"></line><text dx="0" dy="11.969999999999999" x="81.26626071884692" y="286"><tspan x="81.26626071884692" dx="0" text-anchor="middle" style="fill: rgb(153, 153, 153); font-size: 14px; font-family: inherit; stroke: transparent; letter-spacing: normal; padding: 8px; stroke-width: 0;">2017</tspan></text></g><g role="presentation"><line x1="193.74299854041232" x2="193.74299854041232" y1="274" y2="34" role="presentation" shape-rendering="auto" vector-effect="non-scaling-stroke" style="stroke: transparent; fill: transparent; stroke-width: 1; stroke-linecap: round; stroke-linejoin: round; pointer-events: none;"></line><line x1="193.74299854041232" x2="193.74299854041232" y1="274" y2="278" role="presentation" shape-rendering="auto" vector-effect="non-scaling-stroke" style="stroke: transparent; fill: transparent; size: 4px; stroke-width: 1; stroke-linecap: round; stroke-linejoin: round;"></line><text dx="0" dy="11.969999999999999" x="193.74299854041232" y="286"><tspan x="193.74299854041232" dx="0" text-anchor="middle" style="fill: rgb(153, 153, 153); font-size: 14px; font-family: inherit; stroke: transparent; letter-spacing: normal; padding: 8px; stroke-width: 0;">2018</tspan></text></g><g role="presentation"><line x1="306.2197363619777" x2="306.2197363619777" y1="274" y2="34" role="presentation" shape-rendering="auto" vector-effect="non-scaling-stroke" style="stroke: transparent; fill: transparent; stroke-width: 1; stroke-linecap: round; stroke-linejoin: round; pointer-events: none;"></line><line x1="306.2197363619777" x2="306.2197363619777" y1="274" y2="278" role="presentation" shape-rendering="auto" vector-effect="non-scaling-stroke" style="stroke: transparent; fill: transparent; size: 4px; stroke-width: 1; stroke-linecap: round; stroke-linejoin: round;"></line><text dx="0" dy="11.969999999999999" x="306.2197363619777" y="286"><tspan x="306.2197363619777" dx="0" text-anchor="middle" style="fill: rgb(153, 153, 153); font-size: 14px; font-family: inherit; stroke: transparent; letter-spacing: normal; padding: 8px; stroke-width: 0;">2019</tspan></text></g><g role="presentation"><line x1="418.69647418354316" x2="418.69647418354316" y1="274" y2="34" role="presentation" shape-rendering="auto" vector-effect="non-scaling-stroke" style="stroke: transparent; fill: transparent; stroke-width: 1; stroke-linecap: round; stroke-linejoin: round; pointer-events: none;"></line><line x1="418.69647418354316" x2="418.69647418354316" y1="274" y2="278" role="presentation" shape-rendering="auto" vector-effect="non-scaling-stroke" style="stroke: transparent; fill: transparent; size: 4px; stroke-width: 1; stroke-linecap: round; stroke-linejoin: round;"></line><text dx="0" dy="11.969999999999999" x="418.69647418354316" y="286"><tspan x="418.69647418354316" dx="0" text-anchor="middle" style="fill: rgb(153, 153, 153); font-size: 14px; font-family: inherit; stroke: transparent; letter-spacing: normal; padding: 8px; stroke-width: 0;">2020</tspan></text></g><g role="presentation"><line x1="531.4813674511951" x2="531.4813674511951" y1="274" y2="34" role="presentation" shape-rendering="auto" vector-effect="non-scaling-stroke" style="stroke: transparent; fill: transparent; stroke-width: 1; stroke-linecap: round; stroke-linejoin: round; pointer-events: none;"></line><line x1="531.4813674511951" x2="531.4813674511951" y1="274" y2="278" role="presentation" shape-rendering="auto" vector-effect="non-scaling-stroke" style="stroke: transparent; fill: transparent; size: 4px; stroke-width: 1; stroke-linecap: round; stroke-linejoin: round;"></line><text dx="0" dy="11.969999999999999" x="531.4813674511951" y="286"><tspan x="531.4813674511951" dx="0" text-anchor="middle" style="fill: rgb(153, 153, 153); font-size: 14px; font-family: inherit; stroke: transparent; letter-spacing: normal; padding: 8px; stroke-width: 0;">2021</tspan></text></g></g><g role="presentation"><line x1="578" x2="578" y1="34" y2="274" role="presentation" shape-rendering="auto" vector-effect="non-scaling-stroke" style="stroke: transparent; fill: transparent; stroke-width: 1; stroke-linejoin: round;"></line><g role="presentation"><line x1="578" x2="15" y1="254" y2="254" role="presentation" shape-rendering="auto" vector-effect="non-scaling-stroke" style="stroke: rgb(226, 226, 226); fill: transparent; stroke-width: 1; stroke-linecap: round; stroke-linejoin: round; pointer-events: none;"></line><line x1="578" x2="582" y1="254" y2="254" role="presentation" shape-rendering="auto" vector-effect="non-scaling-stroke" style="stroke: transparent; fill: transparent; size: 4px; stroke-width: 1; stroke-linecap: round; stroke-linejoin: round;"></line><text dx="0" dy="4.97" x="590" y="254"><tspan x="590" dx="0" text-anchor="start" style="fill: rgb(153, 153, 153); font-size: 14px; font-family: inherit; stroke: transparent; letter-spacing: normal; padding: 8px; stroke-width: 0;">$60K</tspan></text></g><g role="presentation"><line x1="578" x2="15" y1="214" y2="214" role="presentation" shape-rendering="auto" vector-effect="non-scaling-stroke" style="stroke: rgb(226, 226, 226); fill: transparent; stroke-width: 1; stroke-linecap: round; stroke-linejoin: round; pointer-events: none;"></line><line x1="578" x2="582" y1="214" y2="214" role="presentation" shape-rendering="auto" vector-effect="non-scaling-stroke" style="stroke: transparent; fill: transparent; size: 4px; stroke-width: 1; stroke-linecap: round; stroke-linejoin: round;"></line><text dx="0" dy="4.97" x="590" y="214"><tspan x="590" dx="0" text-anchor="start" style="fill: rgb(153, 153, 153); font-size: 14px; font-family: inherit; stroke: transparent; letter-spacing: normal; padding: 8px; stroke-width: 0;">$80K</tspan></text></g><g role="presentation"><line x1="578" x2="15" y1="174" y2="174" role="presentation" shape-rendering="auto" vector-effect="non-scaling-stroke" style="stroke: rgb(226, 226, 226); fill: transparent; stroke-width: 1; stroke-linecap: round; stroke-linejoin: round; pointer-events: none;"></line><line x1="578" x2="582" y1="174" y2="174" role="presentation" shape-rendering="auto" vector-effect="non-scaling-stroke" style="stroke: transparent; fill: transparent; size: 4px; stroke-width: 1; stroke-linecap: round; stroke-linejoin: round;"></line><text dx="0" dy="4.97" x="590" y="174"><tspan x="590" dx="0" text-anchor="start" style="fill: rgb(153, 153, 153); font-size: 14px; font-family: inherit; stroke: transparent; letter-spacing: normal; padding: 8px; stroke-width: 0;">$100K</tspan></text></g><g role="presentation"><line x1="578" x2="15" y1="134" y2="134" role="presentation" shape-rendering="auto" vector-effect="non-scaling-stroke" style="stroke: rgb(226, 226, 226); fill: transparent; stroke-width: 1; stroke-linecap: round; stroke-linejoin: round; pointer-events: none;"></line><line x1="578" x2="582" y1="134" y2="134" role="presentation" shape-rendering="auto" vector-effect="non-scaling-stroke" style="stroke: transparent; fill: transparent; size: 4px; stroke-width: 1; stroke-linecap: round; stroke-linejoin: round;"></line><text dx="0" dy="4.97" x="590" y="134"><tspan x="590" dx="0" text-anchor="start" style="fill: rgb(153, 153, 153); font-size: 14px; font-family: inherit; stroke: transparent; letter-spacing: normal; padding: 8px; stroke-width: 0;">$120K</tspan></text></g><g role="presentation"><line x1="578" x2="15" y1="94" y2="94" role="presentation" shape-rendering="auto" vector-effect="non-scaling-stroke" style="stroke: rgb(226, 226, 226); fill: transparent; stroke-width: 1; stroke-linecap: round; stroke-linejoin: round; pointer-events: none;"></line><line x1="578" x2="582" y1="94" y2="94" role="presentation" shape-rendering="auto" vector-effect="non-scaling-stroke" style="stroke: transparent; fill: transparent; size: 4px; stroke-width: 1; stroke-linecap: round; stroke-linejoin: round;"></line><text dx="0" dy="4.97" x="590" y="94"><tspan x="590" dx="0" text-anchor="start" style="fill: rgb(153, 153, 153); font-size: 14px; font-family: inherit; stroke: transparent; letter-spacing: normal; padding: 8px; stroke-width: 0;">$140K</tspan></text></g><g role="presentation"><line x1="578" x2="15" y1="54" y2="54" role="presentation" shape-rendering="auto" vector-effect="non-scaling-stroke" style="stroke: rgb(226, 226, 226); fill: transparent; stroke-width: 1; stroke-linecap: round; stroke-linejoin: round; pointer-events: none;"></line><line x1="578" x2="582" y1="54" y2="54" role="presentation" shape-rendering="auto" vector-effect="non-scaling-stroke" style="stroke: transparent; fill: transparent; size: 4px; stroke-width: 1; stroke-linecap: round; stroke-linejoin: round;"></line><text dx="0" dy="4.97" x="590" y="54"><tspan x="590" dx="0" text-anchor="start" style="fill: rgb(153, 153, 153); font-size: 14px; font-family: inherit; stroke: transparent; letter-spacing: normal; padding: 8px; stroke-width: 0;">$160K</tspan></text></g></g><g style="height: 100%; width: 100%; user-select: none;"><defs><clipPath id="victory-clip-5"><rect x="15" y="34" width="563" height="240"></rect></clipPath></defs><g clip-path="url(#victory-clip-5)"><path shape-rendering="auto" role="presentation" d="M24.5528188286809,185.5C27.73709177157453,179.75,30.921364714468165,174,34.1056376573618,174C37.28991060025543,174,40.47418354314906,181.48542805100183,43.658456486042695,184C46.7400109469075,186.43345672483696,49.821565407772304,185.66666666666666,52.90311986863711,189C56.08739281153075,192.44444444444446,59.271665754424376,236,62.45593869731801,236C65.54177309493402,236,68.62760749255003,216,71.71344189016602,216C74.89771483305965,216,78.0819877759533,242,81.26626071884692,242C84.45053366174056,242,87.63480660463419,242,90.81907954752783,242C93.69519704433499,242,96.57131454114213,152.83999999999997,99.44743203794928,152.83999999999997C102.62742504409171,152.83999999999997,105.80741805023415,180.95884028252448,108.98741105637657,194C112.06896551724138,206.63746298328718,115.15051997810617,230,118.23207443897098,230C121.41634738186463,230,124.60062032475825,216,127.7848932676519,216C130.8664477285167,216,133.9480021893815,270,137.02955665024632,270C140.21382959313993,270,143.39810253603358,214,146.5823754789272,214C149.76664842182083,214,152.95092136471445,237.6712204007286,156.1351943076081,246.5C159.2167487684729,255.04398025735944,162.2983032293377,266.5,165.37985769020253,266.5C168.56413063309614,266.5,171.74840357598978,194,174.9326765188834,194C178.0185109164994,194,181.10434531411542,230.86971326164874,184.19017971173142,234.1C187.37445265462506,237.43333333333334,190.55872559751867,239.1,193.74299854041232,239.1C196.92727148330596,239.1,200.1115444261996,124,203.29581736909324,124C206.1719348659004,124,209.04805236270755,147.86278845986172,211.9241698595147,159C215.10416286565712,171.3139109736945,218.28415587179956,192.6240740740741,221.46414887794197,194C224.5457033388068,195.33333333333334,227.62725779967158,194.66666666666666,230.7088122605364,196C233.89308520343002,197.37777777777777,237.07735814632366,224.2,240.26163108921727,224.2C243.3431855500821,224.2,246.4247400109469,124.5,249.5062944718117,124.5C252.69056741470536,124.5,255.874840357599,173.3333333333333,259.05911330049264,180C262.2433862433863,186.66666666666666,265.42765918627987,190,268.6119321291735,190C271.69348659003833,190,274.7750410509031,156,277.8565955117679,156C281.04086845466156,156,284.22514139755515,209,287.4094143404488,209C290.4952487380648,209,293.58108313568084,178.4,296.66691753329684,178.4C299.8511904761905,178.4,303.03546341908407,244,306.2197363619777,244C309.40400930487135,244,312.588282247765,103.22399999999999,315.77255519065864,103.22399999999999C318.6486726874658,103.22399999999999,321.52479018427294,154.2,324.4009076810801,154.2C327.58090068722254,154.2,330.76089369336495,114,333.94088669950736,114C337.0224411603722,114,340.10399562123695,147,343.18555008210177,147C346.3698230249954,147,349.55409596788905,115.1,352.7383689107827,115.1C355.8199233716475,115.1,358.9014778325123,125.97079146835891,361.9830322933771,132.60000000000002C365.16730523627075,139.4501821493625,368.35157817916433,145.4666666666667,371.535851122058,155.7C374.7201240649516,165.93333333333334,377.90439700784526,194,381.0886699507389,194C384.1702244116037,194,387.2517788724685,153.74828133262824,390.3333333333333,140C393.51760627622696,125.79344262295078,396.7018792191206,123.96757316266908,399.88615216201424,111C402.97198655963024,98.43330611520912,406.0578209572463,70.33136200716851,409.1436553548623,64C412.32792829775593,57.46666666666666,415.5122012406495,54.19999999999999,418.69647418354316,54.19999999999999C421.8807471264368,54.19999999999999,425.0650200693304,123,428.24929301222403,123C431.22812899106003,123,434.206964969896,94.94294608407527,437.185800948732,84.00200000000001C440.3657939548744,72.32222566024727,443.54578696101686,56,446.72577996715927,56C449.8073344280241,56,452.8888888888889,114,455.97044334975374,114C459.1547162926473,114,462.33898923554096,110.20892531876136,465.52326217843455,108C468.6048166392994,105.86233033668252,471.6863711001642,105.66666666666667,474.767925561029,101C477.95219850392266,96.17777777777779,481.1364714468163,76,484.32074438970994,76C487.50501733260353,76,490.68929027549717,80.53362477231332,493.87356321839076,83.6C496.9551176792556,86.56745989776134,500.0366721401204,93.29032258064514,503.1182266009852,94C506.3024995438788,94.73333333333335,509.48677248677245,95.10000000000002,512.671045429666,95.10000000000002C515.7568798272821,95.10000000000002,518.8427142248981,86.68962151516273,521.9285486225142,80C525.1128215654078,73.09697863067825,528.2970945083015,60,531.4813674511951,54C534.6656403940887,48,537.8499133369824,44,541.0341862798759,44C543.9103037766831,44,546.7864212734902,47.80441054078347,549.6625387702974,50C552.8425317764398,52.42756394077065,556.0225247825822,58,559.2025177887247,58C562.2840722495895,58,565.3656267104543,44,568.4471811713191,44C571.6314541142127,44,574.8157270571064,46.75,578,49.5" style="fill: transparent; stroke: rgb(51, 51, 51); stroke-width: 2; opacity: 1;"></path></g></g></svg>