<svg xmlns="http://www.w3.org/2000/svg" width="640" height="324" role="img" aria-labelledby="victory-container-4-title victory-container-4-desc" viewBox="0 0 640 324" style="pointer-events: all; width: 100%; height: 100%;"><g role="presentation"><line x1="15" x2="578" y1="274" y2="274" role="presentation" shape-rendering="auto" vector-effect="non-scaling-stroke" style="stroke: rgb(226, 226, 226); fill: transparent; stroke-width: 1; stroke-linejoin: round;"></line><g role="presentation"><line x1="81.26626071884692" x2="81.26626071884692" y1="274" y2="34" role="presentation" shape-rendering="auto" vector-effect="non-scaling-stroke" style="stroke: transparent; fill: transparent; stroke-width: 1; stroke-linecap: round; stroke-linejoin: round; pointer-events: none;"></line><line x1="81.26626071884692" x2="81.26626071884692" y1="274" y2="278" role="presentation" shape-rendering="auto" vector-effect="non-scaling-stroke" style="stroke: transparent; fill: transparent; size: 4px; stroke-width: 1; stroke-linecap: round; stroke-linejoin: round;"></line><text dx="0" dy="11.969999999999999" x="81.26626071884692" y="286"><tspan x="81.26626071884692" dx="0" text-anchor="middle" style="fill: rgb(153, 153, 153); font-size: 14px; font-family: inherit; stroke: transparent; letter-spacing: normal; padding: 8px; stroke-width: 0;">2017</tspan></text></g><g role="presentation"><line x1="193.74299854041232" x2="193.74299854041232" y1="274" y2="34" role="presentation" shape-rendering="auto" vector-effect="non-scaling-stroke" style="stroke: transparent; fill: transparent; stroke-width: 1; stroke-linecap: round; stroke-linejoin: round; pointer-events: none;"></line><line x1="193.74299854041232" x2="193.74299854041232" y1="274" y2="278" role="presentation" shape-rendering="auto" vector-effect="non-scaling-stroke" style="stroke: transparent; fill: transparent; size: 4px; stroke-width: 1; stroke-linecap: round; stroke-linejoin: round;"></line><text dx="0" dy="11.969999999999999" x="193.74299854041232" y="286"><tspan x="193.74299854041232" dx="0" text-anchor="middle" style="fill: rgb(153, 153, 153); font-size: 14px; font-family: inherit; stroke: transparent; letter-spacing: normal; padding: 8px; stroke-width: 0;">2018</tspan></text></g><g role="presentation"><line x1="306.2197363619777" x2="306.2197363619777" y1="274" y2="34" role="presentation" shape-rendering="auto" vector-effect="non-scaling-stroke" style="stroke: transparent; fill: transparent; stroke-width: 1; stroke-linecap: round; stroke-linejoin: round; pointer-events: none;"></line><line x1="306.2197363619777" x2="306.2197363619777" y1="274" y2="278" role="presentation" shape-rendering="auto" vector-effect="non-scaling-stroke" style="stroke: transparent; fill: transparent; size: 4px; stroke-width: 1; stroke-linecap: round; stroke-linejoin: round;"></line><text dx="0" dy="11.969999999999999" x="306.2197363619777" y="286"><tspan x="306.2197363619777" dx="0" text-anchor="middle" style="fill: rgb(153, 153, 153); font-size: 14px; font-family: inherit; stroke: transparent; letter-spacing: normal; padding: 8px; stroke-width: 0;">2019</tspan></text></g><g role="presentation"><line x1="418.69647418354316" x2="418.69647418354316" y1="274" y2="34" role="presentation" shape-rendering="auto" vector-effect="non-scaling-stroke" style="stroke: transparent; fill: transparent; stroke-width: 1; stroke-linecap: round; stroke-linejoin: round; pointer-events: none;"></line><line x1="418.69647418354316" x2="418.69647418354316" y1="274" y2="278" role="presentation" shape-rendering="auto" vector-effect="non-scaling-stroke" style="stroke: transparent; fill: transparent; size: 4px; stroke-width: 1; stroke-linecap: round; stroke-linejoin: round;"></line><text dx="0" dy="11.969999999999999" x="418.69647418354316" y="286"><tspan x="418.69647418354316" dx="0" text-anchor="middle" style="fill: rgb(153, 153, 153); font-size: 14px; font-family: inherit; stroke: transparent; letter-spacing: normal; padding: 8px; stroke-width: 0;">2020</tspan></text></g><g role="presentation"><line x1="531.4813674511951" x2="531.4813674511951" y1="274" y2="34" role="presentation" shape-rendering="auto" vector-effect="non-scaling-stroke" style="stroke: transparent; fill: transparent; stroke-width: 1; stroke-linecap: round; stroke-linejoin: round; pointer-events: none;"></line><line x1="531.4813674511951" x2="531.4813674511951" y1="274" y2="278" role="presentation" shape-rendering="auto" vector-effect="non-scaling-stroke" style="stroke: transparent; fill: transparent; size: 4px; stroke-width: 1; stroke-linecap: round; stroke-linejoin: round;"></line><text dx="0" dy="11.969999999999999" x="531.4813674511951" y="286"><tspan x="531.4813674511951" dx="0" text-anchor="middle" style="fill: rgb(153, 153, 153); font-size: 14px; font-family: inherit; stroke: transparent; letter-spacing: normal; padding: 8px; stroke-width: 0;">2021</tspan></text></g></g><g role="presentation"><line x1="578" x2="578" y1="34" y2="274" role="presentation" shape-rendering="auto" vector-effect="non-scaling-stroke" style="stroke: transparent; fill: transparent; stroke-width: 1; stroke-linejoin: round;"></line><g role="presentation"><line x1="578" x2="15" y1="274" y2="274" role="presentation" shape-rendering="auto" vector-effect="non-scaling-stroke" style="stroke: rgb(226, 226, 226); fill: transparent; stroke-width: 1; stroke-linecap: round; stroke-linejoin: round; pointer-events: none;"></line><line x1="578" x2="582" y1="274" y2="274" role="presentation" shape-rendering="auto" vector-effect="non-scaling-stroke" style="stroke: transparent; fill: transparent; size: 4px; stroke-width: 1; stroke-linecap: round; stroke-linejoin: round;"></line><text dx="0" dy="4.97" x="590" y="274"><tspan x="590" dx="0" text-anchor="start" style="fill: rgb(153, 153, 153); font-size: 14px; font-family: inherit; stroke: transparent; letter-spacing: normal; padding: 8px; stroke-width: 0;">$100K</tspan></text></g><g role="presentation"><line x1="578" x2="15" y1="214" y2="214" role="presentation" shape-rendering="auto" vector-effect="non-scaling-stroke" style="stroke: rgb(226, 226, 226); fill: transparent; stroke-width: 1; stroke-linecap: round; stroke-linejoin: round; pointer-events: none;"></line><line x1="578" x2="582" y1="214" y2="214" role="presentation" shape-rendering="auto" vector-effect="non-scaling-stroke" style="stroke: transparent; fill: transparent; size: 4px; stroke-width: 1; stroke-linecap: round; stroke-linejoin: round;"></line><text dx="0" dy="4.97" x="590" y="214"><tspan x="590" dx="0" text-anchor="start" style="fill: rgb(153, 153, 153); font-size: 14px; font-family: inherit; stroke: transparent; letter-spacing: normal; padding: 8px; stroke-width: 0;">$150K</tspan></text></g><g role="presentation"><line x1="578" x2="15" y1="154" y2="154" role="presentation" shape-rendering="auto" vector-effect="non-scaling-stroke" style="stroke: rgb(226, 226, 226); fill: transparent; stroke-width: 1; stroke-linecap: round; stroke-linejoin: round; pointer-events: none;"></line><line x1="578" x2="582" y1="154" y2="154" role="presentation" shape-rendering="auto" vector-effect="non-scaling-stroke" style="stroke: transparent; fill: transparent; size: 4px; stroke-width: 1; stroke-linecap: round; stroke-linejoin: round;"></line><text dx="0" dy="4.97" x="590" y="154"><tspan x="590" dx="0" text-anchor="start" style="fill: rgb(153, 153, 153); font-size: 14px; font-family: inherit; stroke: transparent; letter-spacing: normal; padding: 8px; stroke-width: 0;">$200K</tspan></text></g><g role="presentation"><line x1="578" x2="15" y1="94" y2="94" role="presentation" shape-rendering="auto" vector-effect="non-scaling-stroke" style="stroke: rgb(226, 226, 226); fill: transparent; stroke-width: 1; stroke-linecap: round; stroke-linejoin: round; pointer-events: none;"></line><line x1="578" x2="582" y1="94" y2="94" role="presentation" shape-rendering="auto" vector-effect="non-scaling-stroke" style="stroke: transparent; fill: transparent; size: 4px; stroke-width: 1; stroke-linecap: round; stroke-linejoin: round;"></line><text dx="0" dy="4.97" x="590" y="94"><tspan x="590" dx="0" text-anchor="start" style="fill: rgb(153, 153, 153); font-size: 14px; font-family: inherit; stroke: transparent; letter-spacing: normal; padding: 8px; stroke-width: 0;">$250K</tspan></text></g><g role="presentation"><line x1="578" x2="15" y1="34" y2="34" role="presentation" shape-rendering="auto" vector-effect="non-scaling-stroke" style="stroke: rgb(226, 226, 226); fill: transparent; stroke-width: 1; stroke-linecap: round; stroke-linejoin: round; pointer-events: none;"></line><line x1="578" x2="582" y1="34" y2="34" role="presentation" shape-rendering="auto" vector-effect="non-scaling-stroke" style="stroke: transparent; fill: transparent; size: 4px; stroke-width: 1; stroke-linecap: round; stroke-linejoin: round;"></line><text dx="0" dy="4.97" x="590" y="34"><tspan x="590" dx="0" text-anchor="start" style="fill: rgb(153, 153, 153); font-size: 14px; font-family: inherit; stroke: transparent; letter-spacing: normal; padding: 8px; stroke-width: 0;">$300K</tspan></text></g></g><g style="height: 100%; width: 100%; user-select: none;"><defs><clipPath id="victory-clip-5"><rect x="15" y="34" width="563" height="240"></rect></clipPath></defs><g clip-path="url(#victory-clip-5)"><path shape-rendering="auto" role="presentation" d="M24.5528188286809,207.39999999999998C27.73709177157453,213.7,30.921364714468165,220,34.1056376573618,222.16C37.28991060025543,224.32,40.47418354314906,225.4,43.658456486042695,225.4C46.7400109469075,225.4,49.821565407772304,216.89354838709676,52.90311986863711,216.7C56.08739281153075,216.5,59.271665754424376,216.4,62.45593869731801,216.4C65.54177309493402,216.4,68.62760749255003,216.82,71.71344189016602,216.82C74.89771483305965,216.82,78.0819877759533,209.2,81.26626071884692,209.2C84.45053366174056,209.2,87.63480660463419,237.4,90.81907954752783,237.4C93.69519704433499,237.4,96.57131454114213,215.26,99.44743203794928,215.26C102.62742504409171,215.26,105.80741805023415,229.66,108.98741105637657,229.66C112.06896551724138,229.66,115.15051997810617,210.3516129032258,118.23207443897098,207.1C121.41634738186463,203.74,124.60062032475825,202.06,127.7848932676519,202.06C130.8664477285167,202.06,133.9480021893815,220,137.02955665024632,220C140.21382959313993,220,143.39810253603358,212.86,146.5823754789272,212.86C149.76664842182083,212.86,152.95092136471445,256.36,156.1351943076081,256.36C159.2167487684729,256.36,162.2983032293377,221.39354838709679,165.37985769020253,215.2C168.56413063309614,208.8,171.74840357598978,206.42552011095702,174.9326765188834,205.60000000000002C178.0185109164994,204.8,181.10434531411542,204.4,184.19017971173142,204.4C187.37445265462506,204.4,190.55872559751867,219.7,193.74299854041232,219.7C196.92727148330596,219.7,200.1115444261996,202.066,203.29581736909324,202.066C206.1719348659004,202.066,209.04805236270755,209.65309796308537,211.9241698595147,212.2C215.10416286565712,215.01599436521957,218.28415587179956,217.6,221.46414887794197,217.6C224.5457033388068,217.6,227.62725779967158,216.32321523003702,230.7088122605364,214C233.89308520343002,211.5993442622951,237.07735814632366,203.2,240.26163108921727,203.2C243.3431855500821,203.2,246.4247400109469,223,249.5062944718117,223C252.69056741470536,223,255.874840357599,216.26000000000002,259.05911330049264,210.76C262.2433862433863,205.26,265.42765918627987,192.06666666666666,268.6119321291735,190C271.69348659003833,188,274.7750410509031,187,277.8565955117679,187C281.04086845466156,187,284.22514139755515,214,287.4094143404488,214C290.4952487380648,214,293.58108313568084,210.7395233586554,296.66691753329684,206.86C299.8511904761905,202.8567193081282,303.03546341908407,190.06,306.2197363619777,190.06C309.40400930487135,190.06,312.588282247765,208,315.77255519065864,208C318.6486726874658,208,321.52479018427294,203.2,324.4009076810801,203.2C327.58090068722254,203.2,330.76089369336495,216.4,333.94088669950736,216.4C337.0224411603722,216.4,340.10399562123695,190.40645161290317,343.18555008210177,184.6C346.3698230249954,178.60000000000002,349.55409596788905,175.60000000000002,352.7383689107827,175.60000000000002C355.8199233716475,175.60000000000002,358.9014778325123,193.6,361.9830322933771,193.6C365.16730523627075,193.6,368.35157817916433,188.39000000000001,371.535851122058,185.8C374.7201240649516,183.21,377.90439700784526,178.06,381.0886699507389,178.06C384.1702244116037,178.06,387.2517788724685,192.44858064516131,390.3333333333333,193.606C393.51760627622696,194.802,396.7018792191206,195.39999999999998,399.88615216201424,195.39999999999998C402.97198655963024,195.39999999999998,406.0578209572463,184,409.1436553548623,184C412.32792829775593,184,415.5122012406495,199,418.69647418354316,199C421.8807471264368,199,425.0650200693304,194.8,428.24929301222403,186.4C431.22812899106003,178.54193548387093,434.206964969896,150.10000000000002,437.185800948732,150.10000000000002C440.3657939548744,150.10000000000002,443.54578696101686,199.6006,446.72577996715927,199.6006C449.8073344280241,199.6006,452.8888888888889,160.06,455.97044334975374,160.06C459.1547162926473,160.06,462.33898923554096,190,465.52326217843455,190C468.6048166392994,190,471.6863711001642,179.5528291909043,474.767925561029,175.60000000000002C477.95219850392266,171.5154098360656,481.1364714468163,166.06,484.32074438970994,166.06C487.50501733260353,166.06,490.68929027549717,175.16625333333332,493.87356321839076,176.2C496.9551176792556,177.2004,500.0366721401204,177.7006,503.1182266009852,177.7006C506.3024995438788,177.7006,509.48677248677245,152.83528432732308,512.671045429666,150.39999999999998C515.7568798272821,148.04,518.8427142248981,146.85999999999999,521.9285486225142,146.85999999999999C525.1128215654078,146.85999999999999,528.2970945083015,160,531.4813674511951,160C534.6656403940887,160,537.8499133369824,130,541.0341862798759,130C543.9103037766831,130,546.7864212734902,172.12,549.6625387702974,172.12C552.8425317764398,172.12,556.0225247825822,155.70344444444447,559.2025177887247,154.3C562.2840722495895,152.94,565.3656267104543,153.62,568.4471811713191,152.26C571.6314541142127,150.85466666666665,574.8157270571064,132.32733333333334,578,113.80000000000001" style="fill: transparent; stroke: rgb(51, 51, 51); stroke-width: 2; opacity: 1;"></path></g></g></svg>