<svg xmlns="http://www.w3.org/2000/svg" width="640" height="324" role="img" aria-labelledby="victory-container-4-title victory-container-4-desc" viewBox="0 0 640 324" style="pointer-events: all; width: 100%; height: 100%;"><g role="presentation"><line x1="15" x2="578" y1="274" y2="274" role="presentation" shape-rendering="auto" vector-effect="non-scaling-stroke" style="stroke: rgb(226, 226, 226); fill: transparent; stroke-width: 1; stroke-linejoin: round;"></line><g role="presentation"><line x1="81.26626071884692" x2="81.26626071884692" y1="274" y2="34" role="presentation" shape-rendering="auto" vector-effect="non-scaling-stroke" style="stroke: transparent; fill: transparent; stroke-width: 1; stroke-linecap: round; stroke-linejoin: round; pointer-events: none;"></line><line x1="81.26626071884692" x2="81.26626071884692" y1="274" y2="278" role="presentation" shape-rendering="auto" vector-effect="non-scaling-stroke" style="stroke: transparent; fill: transparent; size: 4px; stroke-width: 1; stroke-linecap: round; stroke-linejoin: round;"></line><text dx="0" dy="11.969999999999999" x="81.26626071884692" y="286"><tspan x="81.26626071884692" dx="0" text-anchor="middle" style="fill: rgb(153, 153, 153); font-size: 14px; font-family: inherit; stroke: transparent; letter-spacing: normal; padding: 8px; stroke-width: 0;">2017</tspan></text></g><g role="presentation"><line x1="193.74299854041232" x2="193.74299854041232" y1="274" y2="34" role="presentation" shape-rendering="auto" vector-effect="non-scaling-stroke" style="stroke: transparent; fill: transparent; stroke-width: 1; stroke-linecap: round; stroke-linejoin: round; pointer-events: none;"></line><line x1="193.74299854041232" x2="193.74299854041232" y1="274" y2="278" role="presentation" shape-rendering="auto" vector-effect="non-scaling-stroke" style="stroke: transparent; fill: transparent; size: 4px; stroke-width: 1; stroke-linecap: round; stroke-linejoin: round;"></line><text dx="0" dy="11.969999999999999" x="193.74299854041232" y="286"><tspan x="193.74299854041232" dx="0" text-anchor="middle" style="fill: rgb(153, 153, 153); font-size: 14px; font-family: inherit; stroke: transparent; letter-spacing: normal; padding: 8px; stroke-width: 0;">2018</tspan></text></g><g role="presentation"><line x1="306.2197363619777" x2="306.2197363619777" y1="274" y2="34" role="presentation" shape-rendering="auto" vector-effect="non-scaling-stroke" style="stroke: transparent; fill: transparent; stroke-width: 1; stroke-linecap: round; stroke-linejoin: round; pointer-events: none;"></line><line x1="306.2197363619777" x2="306.2197363619777" y1="274" y2="278" role="presentation" shape-rendering="auto" vector-effect="non-scaling-stroke" style="stroke: transparent; fill: transparent; size: 4px; stroke-width: 1; stroke-linecap: round; stroke-linejoin: round;"></line><text dx="0" dy="11.969999999999999" x="306.2197363619777" y="286"><tspan x="306.2197363619777" dx="0" text-anchor="middle" style="fill: rgb(153, 153, 153); font-size: 14px; font-family: inherit; stroke: transparent; letter-spacing: normal; padding: 8px; stroke-width: 0;">2019</tspan></text></g><g role="presentation"><line x1="418.69647418354316" x2="418.69647418354316" y1="274" y2="34" role="presentation" shape-rendering="auto" vector-effect="non-scaling-stroke" style="stroke: transparent; fill: transparent; stroke-width: 1; stroke-linecap: round; stroke-linejoin: round; pointer-events: none;"></line><line x1="418.69647418354316" x2="418.69647418354316" y1="274" y2="278" role="presentation" shape-rendering="auto" vector-effect="non-scaling-stroke" style="stroke: transparent; fill: transparent; size: 4px; stroke-width: 1; stroke-linecap: round; stroke-linejoin: round;"></line><text dx="0" dy="11.969999999999999" x="418.69647418354316" y="286"><tspan x="418.69647418354316" dx="0" text-anchor="middle" style="fill: rgb(153, 153, 153); font-size: 14px; font-family: inherit; stroke: transparent; letter-spacing: normal; padding: 8px; stroke-width: 0;">2020</tspan></text></g><g role="presentation"><line x1="531.4813674511951" x2="531.4813674511951" y1="274" y2="34" role="presentation" shape-rendering="auto" vector-effect="non-scaling-stroke" style="stroke: transparent; fill: transparent; stroke-width: 1; stroke-linecap: round; stroke-linejoin: round; pointer-events: none;"></line><line x1="531.4813674511951" x2="531.4813674511951" y1="274" y2="278" role="presentation" shape-rendering="auto" vector-effect="non-scaling-stroke" style="stroke: transparent; fill: transparent; size: 4px; stroke-width: 1; stroke-linecap: round; stroke-linejoin: round;"></line><text dx="0" dy="11.969999999999999" x="531.4813674511951" y="286"><tspan x="531.4813674511951" dx="0" text-anchor="middle" style="fill: rgb(153, 153, 153); font-size: 14px; font-family: inherit; stroke: transparent; letter-spacing: normal; padding: 8px; stroke-width: 0;">2021</tspan></text></g></g><g role="presentation"><line x1="578" x2="578" y1="34" y2="274" role="presentation" shape-rendering="auto" vector-effect="non-scaling-stroke" style="stroke: transparent; fill: transparent; stroke-width: 1; stroke-linejoin: round;"></line><g role="presentation"><line x1="578" x2="15" y1="247.33333333333334" y2="247.33333333333334" role="presentation" shape-rendering="auto" vector-effect="non-scaling-stroke" style="stroke: rgb(226, 226, 226); fill: transparent; stroke-width: 1; stroke-linecap: round; stroke-linejoin: round; pointer-events: none;"></line><line x1="578" x2="582" y1="247.33333333333334" y2="247.33333333333334" role="presentation" shape-rendering="auto" vector-effect="non-scaling-stroke" style="stroke: transparent; fill: transparent; size: 4px; stroke-width: 1; stroke-linecap: round; stroke-linejoin: round;"></line><text dx="0" dy="4.97" x="590" y="247.33333333333334"><tspan x="590" dx="0" text-anchor="start" style="fill: rgb(153, 153, 153); font-size: 14px; font-family: inherit; stroke: transparent; letter-spacing: normal; padding: 8px; stroke-width: 0;">$50K</tspan></text></g><g role="presentation"><line x1="578" x2="15" y1="180.66666666666669" y2="180.66666666666669" role="presentation" shape-rendering="auto" vector-effect="non-scaling-stroke" style="stroke: rgb(226, 226, 226); fill: transparent; stroke-width: 1; stroke-linecap: round; stroke-linejoin: round; pointer-events: none;"></line><line x1="578" x2="582" y1="180.66666666666669" y2="180.66666666666669" role="presentation" shape-rendering="auto" vector-effect="non-scaling-stroke" style="stroke: transparent; fill: transparent; size: 4px; stroke-width: 1; stroke-linecap: round; stroke-linejoin: round;"></line><text dx="0" dy="4.97" x="590" y="180.66666666666669"><tspan x="590" dx="0" text-anchor="start" style="fill: rgb(153, 153, 153); font-size: 14px; font-family: inherit; stroke: transparent; letter-spacing: normal; padding: 8px; stroke-width: 0;">$100K</tspan></text></g><g role="presentation"><line x1="578" x2="15" y1="114" y2="114" role="presentation" shape-rendering="auto" vector-effect="non-scaling-stroke" style="stroke: rgb(226, 226, 226); fill: transparent; stroke-width: 1; stroke-linecap: round; stroke-linejoin: round; pointer-events: none;"></line><line x1="578" x2="582" y1="114" y2="114" role="presentation" shape-rendering="auto" vector-effect="non-scaling-stroke" style="stroke: transparent; fill: transparent; size: 4px; stroke-width: 1; stroke-linecap: round; stroke-linejoin: round;"></line><text dx="0" dy="4.97" x="590" y="114"><tspan x="590" dx="0" text-anchor="start" style="fill: rgb(153, 153, 153); font-size: 14px; font-family: inherit; stroke: transparent; letter-spacing: normal; padding: 8px; stroke-width: 0;">$150K</tspan></text></g><g role="presentation"><line x1="578" x2="15" y1="47.33333333333334" y2="47.33333333333334" role="presentation" shape-rendering="auto" vector-effect="non-scaling-stroke" style="stroke: rgb(226, 226, 226); fill: transparent; stroke-width: 1; stroke-linecap: round; stroke-linejoin: round; pointer-events: none;"></line><line x1="578" x2="582" y1="47.33333333333334" y2="47.33333333333334" role="presentation" shape-rendering="auto" vector-effect="non-scaling-stroke" style="stroke: transparent; fill: transparent; size: 4px; stroke-width: 1; stroke-linecap: round; stroke-linejoin: round;"></line><text dx="0" dy="4.97" x="590" y="47.33333333333334"><tspan x="590" dx="0" text-anchor="start" style="fill: rgb(153, 153, 153); font-size: 14px; font-family: inherit; stroke: transparent; letter-spacing: normal; padding: 8px; stroke-width: 0;">$200K</tspan></text></g></g><g style="height: 100%; width: 100%; user-select: none;"><defs><clipPath id="victory-clip-5"><rect x="15" y="34" width="563" height="240"></rect></clipPath></defs><g clip-path="url(#victory-clip-5)"><path shape-rendering="auto" role="presentation" d="M15.30815544608648,187.33333333333331C18.389709906951285,198.3,21.471264367816094,209.26666666666668,24.5528188286809,209.26666666666668C27.73709177157453,209.26666666666668,30.921364714468165,195.0906666666667,34.1056376573618,187.324C37.28991060025543,179.55733333333333,40.47418354314906,162.66666666666666,43.658456486042695,162.66666666666666C46.7400109469075,162.66666666666666,49.821565407772304,172.0242082378518,52.90311986863711,175.33333333333334C56.08739281153075,178.75276259866425,59.271665754424376,182.66666666666669,62.45593869731801,182.66666666666669C65.54177309493402,182.66666666666669,68.62760749255003,171.33333333333334,71.71344189016602,171.33333333333334C74.89771483305965,171.33333333333334,78.0819877759533,254.33333333333337,81.26626071884692,261.6666666666667C84.45053366174056,269,87.63480660463419,272.6666666666667,90.81907954752783,272.6666666666667C93.69519704433499,272.6666666666667,96.57131454114213,259.70348310444666,99.44743203794928,241.33333333333334C102.62742504409171,221.02228976199825,105.80741805023415,161.19413580246916,108.98741105637657,151.33333333333334C112.06896551724138,141.77777777777777,115.15051997810617,137,118.23207443897098,137C121.41634738186463,137,124.60062032475825,179.33333333333334,127.7848932676519,179.33333333333334C130.8664477285167,179.33333333333334,133.9480021893815,116.66666666666666,137.02955665024632,116.66666666666666C140.21382959313993,116.66666666666666,143.39810253603358,122.44444444444444,146.5823754789272,134C149.76664842182083,145.5555555555556,152.95092136471445,225.33333333333334,156.1351943076081,225.33333333333334C159.2167487684729,225.33333333333334,162.2983032293377,200.66666666666666,165.37985769020253,200.66666666666666C168.56413063309614,200.66666666666666,171.74840357598978,202.66666666666669,174.9326765188834,202.66666666666669C178.0185109164994,202.66666666666669,181.10434531411542,157.12724014336922,184.19017971173142,150.66666666666669C187.37445265462506,144,190.55872559751867,140.66666666666666,193.74299854041232,140.66666666666666C196.92727148330596,140.66666666666666,200.1115444261996,192.03174603174602,203.29581736909324,194C206.1719348659004,195.77777777777777,209.04805236270755,196.66666666666666,211.9241698595147,196.66666666666666C215.10416286565712,196.66666666666666,218.28415587179956,179.96483004227738,221.46414887794197,171.61333333333334C224.5457033388068,163.52036209451808,227.62725779967158,154.59811034725894,230.7088122605364,147.33333333333331C233.89308520343002,139.8263970856102,237.07735814632366,127.46666666666667,240.26163108921727,127.46666666666667C243.3431855500821,127.46666666666667,246.4247400109469,160.0450320230331,249.5062944718117,170C252.69056741470536,180.2868002428658,255.874840357599,187.33333333333331,259.05911330049264,187.33333333333331C262.2433862433863,187.33333333333331,265.42765918627987,101.33333333333334,268.6119321291735,101.33333333333334C271.69348659003833,101.33333333333334,274.7750410509031,139.33333333333334,277.8565955117679,139.33333333333334C281.04086845466156,139.33333333333334,284.22514139755515,130.66666666666666,287.4094143404488,130.66666666666666C290.4952487380648,130.66666666666666,293.58108313568084,134,296.66691753329684,134C299.8511904761905,134,303.03546341908407,124,306.2197363619777,124C309.40400930487135,124,312.588282247765,181.015873015873,315.77255519065864,182C318.6486726874658,182.88888888888889,321.52479018427294,183.33333333333334,324.4009076810801,183.33333333333334C327.58090068722254,183.33333333333334,330.76089369336495,120.13333333333335,333.94088669950736,120.13333333333335C337.0224411603722,120.13333333333335,340.10399562123695,164,343.18555008210177,164C346.3698230249954,164,349.55409596788905,108.66666666666666,352.7383689107827,108.66666666666666C355.8199233716475,108.66666666666666,358.9014778325123,127.33333333333331,361.9830322933771,127.33333333333331C365.16730523627075,127.33333333333331,368.35157817916433,96.17777777777778,371.535851122058,94C374.7201240649516,91.82222222222221,377.90439700784526,90.73333333333332,381.0886699507389,90.73333333333332C384.1702244116037,90.73333333333332,387.2517788724685,123.74408602150542,390.3333333333333,132.73333333333335C393.51760627622696,142.02222222222224,396.7018792191206,146.66666666666669,399.88615216201424,146.66666666666669C402.97198655963024,146.66666666666669,406.0578209572463,107.33333333333334,409.1436553548623,107.33333333333334C412.32792829775593,107.33333333333334,415.5122012406495,147.33333333333331,418.69647418354316,147.33333333333331C421.8807471264368,147.33333333333331,425.0650200693304,129,428.24929301222403,129C431.22812899106003,129,434.206964969896,132.93333333333334,437.185800948732,140.79999999999998C440.3657939548744,149.19789272030647,443.54578696101686,200.66666666666666,446.72577996715927,200.66666666666666C449.8073344280241,200.66666666666666,452.8888888888889,124.0236559139786,455.97044334975374,114.73333333333332C459.1547162926473,105.13333333333334,462.33898923554096,100.33333333333334,465.52326217843455,100.33333333333334C468.6048166392994,100.33333333333334,471.6863711001642,107.39999999999998,474.767925561029,107.39999999999998C477.95219850392266,107.39999999999998,481.1364714468163,90,484.32074438970994,90C487.50501733260353,90,490.68929027549717,183.33333333333334,493.87356321839076,183.33333333333334C496.9551176792556,183.33333333333334,500.0366721401204,44.66666666666666,503.1182266009852,44.66666666666666C506.3024995438788,44.66666666666666,509.48677248677245,117.66666666666666,512.671045429666,117.66666666666666C515.7568798272821,117.66666666666666,518.8427142248981,110.73333333333335,521.9285486225142,110.73333333333335C525.1128215654078,110.73333333333335,528.2970945083015,132.66666666666666,531.4813674511951,132.66666666666666C534.6656403940887,132.66666666666666,537.8499133369824,98.66666666666669,541.0341862798759,98.66666666666669C543.9103037766831,98.66666666666669,546.7864212734902,106.00000000000001,549.6625387702974,120.66666666666669C552.8425317764398,136.88293650793656,556.0225247825822,208,559.2025177887247,208C562.2840722495895,208,565.3656267104543,95.66666666666666,568.4471811713191,95.66666666666666C571.6314541142127,95.66666666666666,574.8157270571064,124.83333333333333,578,154" style="fill: transparent; stroke: rgb(51, 51, 51); stroke-width: 2; opacity: 1;"></path></g></g></svg>