<svg xmlns="http://www.w3.org/2000/svg" width="640" height="324" role="img" aria-labelledby="victory-container-4-title victory-container-4-desc" viewBox="0 0 640 324" style="pointer-events: all; width: 100%; height: 100%;"><g role="presentation"><line x1="15" x2="578" y1="274" y2="274" role="presentation" shape-rendering="auto" vector-effect="non-scaling-stroke" style="stroke: rgb(226, 226, 226); fill: transparent; stroke-width: 1; stroke-linejoin: round;"></line><g role="presentation"><line x1="81.26626071884692" x2="81.26626071884692" y1="274" y2="34" role="presentation" shape-rendering="auto" vector-effect="non-scaling-stroke" style="stroke: transparent; fill: transparent; stroke-width: 1; stroke-linecap: round; stroke-linejoin: round; pointer-events: none;"></line><line x1="81.26626071884692" x2="81.26626071884692" y1="274" y2="278" role="presentation" shape-rendering="auto" vector-effect="non-scaling-stroke" style="stroke: transparent; fill: transparent; size: 4px; stroke-width: 1; stroke-linecap: round; stroke-linejoin: round;"></line><text dx="0" dy="11.969999999999999" x="81.26626071884692" y="286"><tspan x="81.26626071884692" dx="0" text-anchor="middle" style="fill: rgb(153, 153, 153); font-size: 14px; font-family: inherit; stroke: transparent; letter-spacing: normal; padding: 8px; stroke-width: 0;">2017</tspan></text></g><g role="presentation"><line x1="193.74299854041232" x2="193.74299854041232" y1="274" y2="34" role="presentation" shape-rendering="auto" vector-effect="non-scaling-stroke" style="stroke: transparent; fill: transparent; stroke-width: 1; stroke-linecap: round; stroke-linejoin: round; pointer-events: none;"></line><line x1="193.74299854041232" x2="193.74299854041232" y1="274" y2="278" role="presentation" shape-rendering="auto" vector-effect="non-scaling-stroke" style="stroke: transparent; fill: transparent; size: 4px; stroke-width: 1; stroke-linecap: round; stroke-linejoin: round;"></line><text dx="0" dy="11.969999999999999" x="193.74299854041232" y="286"><tspan x="193.74299854041232" dx="0" text-anchor="middle" style="fill: rgb(153, 153, 153); font-size: 14px; font-family: inherit; stroke: transparent; letter-spacing: normal; padding: 8px; stroke-width: 0;">2018</tspan></text></g><g role="presentation"><line x1="306.2197363619777" x2="306.2197363619777" y1="274" y2="34" role="presentation" shape-rendering="auto" vector-effect="non-scaling-stroke" style="stroke: transparent; fill: transparent; stroke-width: 1; stroke-linecap: round; stroke-linejoin: round; pointer-events: none;"></line><line x1="306.2197363619777" x2="306.2197363619777" y1="274" y2="278" role="presentation" shape-rendering="auto" vector-effect="non-scaling-stroke" style="stroke: transparent; fill: transparent; size: 4px; stroke-width: 1; stroke-linecap: round; stroke-linejoin: round;"></line><text dx="0" dy="11.969999999999999" x="306.2197363619777" y="286"><tspan x="306.2197363619777" dx="0" text-anchor="middle" style="fill: rgb(153, 153, 153); font-size: 14px; font-family: inherit; stroke: transparent; letter-spacing: normal; padding: 8px; stroke-width: 0;">2019</tspan></text></g><g role="presentation"><line x1="418.69647418354316" x2="418.69647418354316" y1="274" y2="34" role="presentation" shape-rendering="auto" vector-effect="non-scaling-stroke" style="stroke: transparent; fill: transparent; stroke-width: 1; stroke-linecap: round; stroke-linejoin: round; pointer-events: none;"></line><line x1="418.69647418354316" x2="418.69647418354316" y1="274" y2="278" role="presentation" shape-rendering="auto" vector-effect="non-scaling-stroke" style="stroke: transparent; fill: transparent; size: 4px; stroke-width: 1; stroke-linecap: round; stroke-linejoin: round;"></line><text dx="0" dy="11.969999999999999" x="418.69647418354316" y="286"><tspan x="418.69647418354316" dx="0" text-anchor="middle" style="fill: rgb(153, 153, 153); font-size: 14px; font-family: inherit; stroke: transparent; letter-spacing: normal; padding: 8px; stroke-width: 0;">2020</tspan></text></g><g role="presentation"><line x1="531.4813674511951" x2="531.4813674511951" y1="274" y2="34" role="presentation" shape-rendering="auto" vector-effect="non-scaling-stroke" style="stroke: transparent; fill: transparent; stroke-width: 1; stroke-linecap: round; stroke-linejoin: round; pointer-events: none;"></line><line x1="531.4813674511951" x2="531.4813674511951" y1="274" y2="278" role="presentation" shape-rendering="auto" vector-effect="non-scaling-stroke" style="stroke: transparent; fill: transparent; size: 4px; stroke-width: 1; stroke-linecap: round; stroke-linejoin: round;"></line><text dx="0" dy="11.969999999999999" x="531.4813674511951" y="286"><tspan x="531.4813674511951" dx="0" text-anchor="middle" style="fill: rgb(153, 153, 153); font-size: 14px; font-family: inherit; stroke: transparent; letter-spacing: normal; padding: 8px; stroke-width: 0;">2021</tspan></text></g></g><g role="presentation"><line x1="578" x2="578" y1="34" y2="274" role="presentation" shape-rendering="auto" vector-effect="non-scaling-stroke" style="stroke: transparent; fill: transparent; stroke-width: 1; stroke-linejoin: round;"></line><g role="presentation"><line x1="578" x2="15" y1="274" y2="274" role="presentation" shape-rendering="auto" vector-effect="non-scaling-stroke" style="stroke: rgb(226, 226, 226); fill: transparent; stroke-width: 1; stroke-linecap: round; stroke-linejoin: round; pointer-events: none;"></line><line x1="578" x2="582" y1="274" y2="274" role="presentation" shape-rendering="auto" vector-effect="non-scaling-stroke" style="stroke: transparent; fill: transparent; size: 4px; stroke-width: 1; stroke-linecap: round; stroke-linejoin: round;"></line><text dx="0" dy="4.97" x="590" y="274"><tspan x="590" dx="0" text-anchor="start" style="fill: rgb(153, 153, 153); font-size: 14px; font-family: inherit; stroke: transparent; letter-spacing: normal; padding: 8px; stroke-width: 0;">$100K</tspan></text></g><g role="presentation"><line x1="578" x2="15" y1="234" y2="234" role="presentation" shape-rendering="auto" vector-effect="non-scaling-stroke" style="stroke: rgb(226, 226, 226); fill: transparent; stroke-width: 1; stroke-linecap: round; stroke-linejoin: round; pointer-events: none;"></line><line x1="578" x2="582" y1="234" y2="234" role="presentation" shape-rendering="auto" vector-effect="non-scaling-stroke" style="stroke: transparent; fill: transparent; size: 4px; stroke-width: 1; stroke-linecap: round; stroke-linejoin: round;"></line><text dx="0" dy="4.97" x="590" y="234"><tspan x="590" dx="0" text-anchor="start" style="fill: rgb(153, 153, 153); font-size: 14px; font-family: inherit; stroke: transparent; letter-spacing: normal; padding: 8px; stroke-width: 0;">$150K</tspan></text></g><g role="presentation"><line x1="578" x2="15" y1="194" y2="194" role="presentation" shape-rendering="auto" vector-effect="non-scaling-stroke" style="stroke: rgb(226, 226, 226); fill: transparent; stroke-width: 1; stroke-linecap: round; stroke-linejoin: round; pointer-events: none;"></line><line x1="578" x2="582" y1="194" y2="194" role="presentation" shape-rendering="auto" vector-effect="non-scaling-stroke" style="stroke: transparent; fill: transparent; size: 4px; stroke-width: 1; stroke-linecap: round; stroke-linejoin: round;"></line><text dx="0" dy="4.97" x="590" y="194"><tspan x="590" dx="0" text-anchor="start" style="fill: rgb(153, 153, 153); font-size: 14px; font-family: inherit; stroke: transparent; letter-spacing: normal; padding: 8px; stroke-width: 0;">$200K</tspan></text></g><g role="presentation"><line x1="578" x2="15" y1="154" y2="154" role="presentation" shape-rendering="auto" vector-effect="non-scaling-stroke" style="stroke: rgb(226, 226, 226); fill: transparent; stroke-width: 1; stroke-linecap: round; stroke-linejoin: round; pointer-events: none;"></line><line x1="578" x2="582" y1="154" y2="154" role="presentation" shape-rendering="auto" vector-effect="non-scaling-stroke" style="stroke: transparent; fill: transparent; size: 4px; stroke-width: 1; stroke-linecap: round; stroke-linejoin: round;"></line><text dx="0" dy="4.97" x="590" y="154"><tspan x="590" dx="0" text-anchor="start" style="fill: rgb(153, 153, 153); font-size: 14px; font-family: inherit; stroke: transparent; letter-spacing: normal; padding: 8px; stroke-width: 0;">$250K</tspan></text></g><g role="presentation"><line x1="578" x2="15" y1="114" y2="114" role="presentation" shape-rendering="auto" vector-effect="non-scaling-stroke" style="stroke: rgb(226, 226, 226); fill: transparent; stroke-width: 1; stroke-linecap: round; stroke-linejoin: round; pointer-events: none;"></line><line x1="578" x2="582" y1="114" y2="114" role="presentation" shape-rendering="auto" vector-effect="non-scaling-stroke" style="stroke: transparent; fill: transparent; size: 4px; stroke-width: 1; stroke-linecap: round; stroke-linejoin: round;"></line><text dx="0" dy="4.97" x="590" y="114"><tspan x="590" dx="0" text-anchor="start" style="fill: rgb(153, 153, 153); font-size: 14px; font-family: inherit; stroke: transparent; letter-spacing: normal; padding: 8px; stroke-width: 0;">$300K</tspan></text></g><g role="presentation"><line x1="578" x2="15" y1="74" y2="74" role="presentation" shape-rendering="auto" vector-effect="non-scaling-stroke" style="stroke: rgb(226, 226, 226); fill: transparent; stroke-width: 1; stroke-linecap: round; stroke-linejoin: round; pointer-events: none;"></line><line x1="578" x2="582" y1="74" y2="74" role="presentation" shape-rendering="auto" vector-effect="non-scaling-stroke" style="stroke: transparent; fill: transparent; size: 4px; stroke-width: 1; stroke-linecap: round; stroke-linejoin: round;"></line><text dx="0" dy="4.97" x="590" y="74"><tspan x="590" dx="0" text-anchor="start" style="fill: rgb(153, 153, 153); font-size: 14px; font-family: inherit; stroke: transparent; letter-spacing: normal; padding: 8px; stroke-width: 0;">$350K</tspan></text></g><g role="presentation"><line x1="578" x2="15" y1="34" y2="34" role="presentation" shape-rendering="auto" vector-effect="non-scaling-stroke" style="stroke: rgb(226, 226, 226); fill: transparent; stroke-width: 1; stroke-linecap: round; stroke-linejoin: round; pointer-events: none;"></line><line x1="578" x2="582" y1="34" y2="34" role="presentation" shape-rendering="auto" vector-effect="non-scaling-stroke" style="stroke: transparent; fill: transparent; size: 4px; stroke-width: 1; stroke-linecap: round; stroke-linejoin: round;"></line><text dx="0" dy="4.97" x="590" y="34"><tspan x="590" dx="0" text-anchor="start" style="fill: rgb(153, 153, 153); font-size: 14px; font-family: inherit; stroke: transparent; letter-spacing: normal; padding: 8px; stroke-width: 0;">$400K</tspan></text></g></g><g style="height: 100%; width: 100%; user-select: none;"><defs><clipPath id="victory-clip-5"><rect x="15" y="34" width="563" height="240"></rect></clipPath></defs><g clip-path="url(#victory-clip-5)"><path shape-rendering="auto" role="presentation" d="M15.30815544608648,134C18.389709906951285,132.04,21.471264367816094,130.07999999999998,24.5528188286809,130.07999999999998C27.73709177157453,130.07999999999998,30.921364714468165,158,34.1056376573618,158C37.28991060025543,158,40.47418354314906,158,43.658456486042695,158C46.7400109469075,158,49.821565407772304,158.44,52.90311986863711,158.44C56.08739281153075,158.44,59.271665754424376,114.39999999999998,62.45593869731801,114.39999999999998C65.54177309493402,114.39999999999998,68.62760749255003,156.6039739684637,71.71344189016602,172.4C74.89771483305965,188.699921452792,78.0819877759533,210,81.26626071884692,210C84.45053366174056,210,87.63480660463419,186.94398708635995,90.81907954752783,180.39999999999998C93.69519704433499,174.48930198651357,96.57131454114213,174.31294313474646,99.44743203794928,170.8C102.62742504409171,166.91589769476695,105.80741805023415,158,108.98741105637657,158C112.06896551724138,158,115.15051997810617,158.33333333333334,118.23207443897098,159C121.41634738186463,159.6888888888889,124.60062032475825,255.2,127.7848932676519,255.2C130.8664477285167,255.2,133.9480021893815,186,137.02955665024632,186C140.21382959313993,186,143.39810253603358,228.66666666666669,146.5823754789272,232.4C149.76664842182083,236.13333333333333,152.95092136471445,238,156.1351943076081,238C159.2167487684729,238,162.2983032293377,216.6,165.37985769020253,216.6C168.56413063309614,216.6,171.74840357598978,226,174.9326765188834,226C178.0185109164994,226,181.10434531411542,216.6,184.19017971173142,216.6C187.37445265462506,216.6,190.55872559751867,226,193.74299854041232,226C196.92727148330596,226,200.1115444261996,221.69273607748184,203.29581736909324,216C206.1719348659004,210.85817386550028,209.04805236270755,200.05693151788108,211.9241698595147,194.8C215.10416286565712,188.98764863424762,218.28415587179956,187.55358718766612,221.46414887794197,184C224.5457033388068,180.5564161842266,227.62725779967158,173.8,230.7088122605364,173.8C233.89308520343002,173.8,237.07735814632366,174.8,240.26163108921727,174.8C243.3431855500821,174.8,246.4247400109469,166,249.5062944718117,166C252.69056741470536,166,255.874840357599,199.84,259.05911330049264,199.84C262.2433862433863,199.84,265.42765918627987,195.78287795992713,268.6119321291735,190.8C271.69348659003833,185.9778600387802,274.7750410509031,170.8,277.8565955117679,170.8C281.04086845466156,170.8,284.22514139755515,257.6,287.4094143404488,257.6C290.4952487380648,257.6,293.58108313568084,233.89300940707307,296.66691753329684,226C299.8511904761905,217.85520249811051,303.03546341908407,214.13333333333333,306.2197363619777,210C309.40400930487135,205.86666666666665,312.588282247765,206.93559322033897,315.77255519065864,201.2C318.6486726874658,196.01946418808092,321.52479018427294,183.9806136583773,324.4009076810801,178.8C327.58090068722254,173.07202983902638,330.76089369336495,172.21226538568644,333.94088669950736,170C337.0224411603722,167.85621658452996,340.10399562123695,165.6,343.18555008210177,165.6C346.3698230249954,165.6,349.55409596788905,167.8,352.7383689107827,167.8C355.8199233716475,167.8,358.9014778325123,158.39999999999998,361.9830322933771,158.39999999999998C365.16730523627075,158.39999999999998,368.35157817916433,160.26666666666665,371.535851122058,164C374.7201240649516,167.73333333333338,377.90439700784526,203.2,381.0886699507389,203.2C384.1702244116037,203.2,387.2517788724685,196,390.3333333333333,196C393.51760627622696,196,396.7018792191206,226,399.88615216201424,226C402.97198655963024,226,406.0578209572463,178.65120000000002,409.1436553548623,178.65120000000002C412.32792829775593,178.65120000000002,415.5122012406495,242.07999999999998,418.69647418354316,242.07999999999998C421.8807471264368,242.07999999999998,425.0650200693304,174,428.24929301222403,174C431.22812899106003,174,434.206964969896,178.4,437.185800948732,178.4C440.3657939548744,178.4,443.54578696101686,162.74410521252628,446.72577996715927,158C449.8073344280241,153.40275134183184,452.8888888888889,150,455.97044334975374,150C459.1547162926473,150,462.33898923554096,154,465.52326217843455,154C468.6048166392994,154,471.6863711001642,145.20000000000002,474.767925561029,145.20000000000002C477.95219850392266,145.20000000000002,481.1364714468163,159.6,484.32074438970994,159.6C487.50501733260353,159.6,490.68929027549717,112,493.87356321839076,112C496.9551176792556,112,500.0366721401204,162.07999999999998,503.1182266009852,162.07999999999998C506.3024995438788,162.07999999999998,509.48677248677245,142,512.671045429666,142C515.7568798272821,142,518.8427142248981,168.4,521.9285486225142,168.4C525.1128215654078,168.4,528.2970945083015,165.04,531.4813674511951,165.04C534.6656403940887,165.04,537.8499133369824,181.76,541.0341862798759,181.76C543.9103037766831,181.76,546.7864212734902,181.18666666666667,549.6625387702974,180.04C552.8425317764398,178.77218253968252,556.0225247825822,117.19999999999999,559.2025177887247,117.19999999999999C562.2840722495895,117.19999999999999,565.3656267104543,133.2073329807862,568.4471811713191,138C571.6314541142127,142.9524225865209,574.8157270571064,144.47621129326046,578,146" style="fill: transparent; stroke: rgb(51, 51, 51); stroke-width: 2; opacity: 1;"></path></g></g></svg>