<svg xmlns="http://www.w3.org/2000/svg" width="640" height="324" role="img" aria-labelledby="victory-container-4-title victory-container-4-desc" viewBox="0 0 640 324" style="pointer-events: all; width: 100%; height: 100%;"><g role="presentation"><line x1="15" x2="578" y1="274" y2="274" role="presentation" shape-rendering="auto" vector-effect="non-scaling-stroke" style="stroke: rgb(226, 226, 226); fill: transparent; stroke-width: 1; stroke-linejoin: round;"></line><g role="presentation"><line x1="81.26626071884692" x2="81.26626071884692" y1="274" y2="34" role="presentation" shape-rendering="auto" vector-effect="non-scaling-stroke" style="stroke: transparent; fill: transparent; stroke-width: 1; stroke-linecap: round; stroke-linejoin: round; pointer-events: none;"></line><line x1="81.26626071884692" x2="81.26626071884692" y1="274" y2="278" role="presentation" shape-rendering="auto" vector-effect="non-scaling-stroke" style="stroke: transparent; fill: transparent; size: 4px; stroke-width: 1; stroke-linecap: round; stroke-linejoin: round;"></line><text dx="0" dy="11.969999999999999" x="81.26626071884692" y="286"><tspan x="81.26626071884692" dx="0" text-anchor="middle" style="fill: rgb(153, 153, 153); font-size: 14px; font-family: inherit; stroke: transparent; letter-spacing: normal; padding: 8px; stroke-width: 0;">2017</tspan></text></g><g role="presentation"><line x1="193.74299854041232" x2="193.74299854041232" y1="274" y2="34" role="presentation" shape-rendering="auto" vector-effect="non-scaling-stroke" style="stroke: transparent; fill: transparent; stroke-width: 1; stroke-linecap: round; stroke-linejoin: round; pointer-events: none;"></line><line x1="193.74299854041232" x2="193.74299854041232" y1="274" y2="278" role="presentation" shape-rendering="auto" vector-effect="non-scaling-stroke" style="stroke: transparent; fill: transparent; size: 4px; stroke-width: 1; stroke-linecap: round; stroke-linejoin: round;"></line><text dx="0" dy="11.969999999999999" x="193.74299854041232" y="286"><tspan x="193.74299854041232" dx="0" text-anchor="middle" style="fill: rgb(153, 153, 153); font-size: 14px; font-family: inherit; stroke: transparent; letter-spacing: normal; padding: 8px; stroke-width: 0;">2018</tspan></text></g><g role="presentation"><line x1="306.2197363619777" x2="306.2197363619777" y1="274" y2="34" role="presentation" shape-rendering="auto" vector-effect="non-scaling-stroke" style="stroke: transparent; fill: transparent; stroke-width: 1; stroke-linecap: round; stroke-linejoin: round; pointer-events: none;"></line><line x1="306.2197363619777" x2="306.2197363619777" y1="274" y2="278" role="presentation" shape-rendering="auto" vector-effect="non-scaling-stroke" style="stroke: transparent; fill: transparent; size: 4px; stroke-width: 1; stroke-linecap: round; stroke-linejoin: round;"></line><text dx="0" dy="11.969999999999999" x="306.2197363619777" y="286"><tspan x="306.2197363619777" dx="0" text-anchor="middle" style="fill: rgb(153, 153, 153); font-size: 14px; font-family: inherit; stroke: transparent; letter-spacing: normal; padding: 8px; stroke-width: 0;">2019</tspan></text></g><g role="presentation"><line x1="418.69647418354316" x2="418.69647418354316" y1="274" y2="34" role="presentation" shape-rendering="auto" vector-effect="non-scaling-stroke" style="stroke: transparent; fill: transparent; stroke-width: 1; stroke-linecap: round; stroke-linejoin: round; pointer-events: none;"></line><line x1="418.69647418354316" x2="418.69647418354316" y1="274" y2="278" role="presentation" shape-rendering="auto" vector-effect="non-scaling-stroke" style="stroke: transparent; fill: transparent; size: 4px; stroke-width: 1; stroke-linecap: round; stroke-linejoin: round;"></line><text dx="0" dy="11.969999999999999" x="418.69647418354316" y="286"><tspan x="418.69647418354316" dx="0" text-anchor="middle" style="fill: rgb(153, 153, 153); font-size: 14px; font-family: inherit; stroke: transparent; letter-spacing: normal; padding: 8px; stroke-width: 0;">2020</tspan></text></g><g role="presentation"><line x1="531.4813674511951" x2="531.4813674511951" y1="274" y2="34" role="presentation" shape-rendering="auto" vector-effect="non-scaling-stroke" style="stroke: transparent; fill: transparent; stroke-width: 1; stroke-linecap: round; stroke-linejoin: round; pointer-events: none;"></line><line x1="531.4813674511951" x2="531.4813674511951" y1="274" y2="278" role="presentation" shape-rendering="auto" vector-effect="non-scaling-stroke" style="stroke: transparent; fill: transparent; size: 4px; stroke-width: 1; stroke-linecap: round; stroke-linejoin: round;"></line><text dx="0" dy="11.969999999999999" x="531.4813674511951" y="286"><tspan x="531.4813674511951" dx="0" text-anchor="middle" style="fill: rgb(153, 153, 153); font-size: 14px; font-family: inherit; stroke: transparent; letter-spacing: normal; padding: 8px; stroke-width: 0;">2021</tspan></text></g></g><g role="presentation"><line x1="578" x2="578" y1="34" y2="274" role="presentation" shape-rendering="auto" vector-effect="non-scaling-stroke" style="stroke: transparent; fill: transparent; stroke-width: 1; stroke-linejoin: round;"></line><g role="presentation"><line x1="578" x2="15" y1="274" y2="274" role="presentation" shape-rendering="auto" vector-effect="non-scaling-stroke" style="stroke: rgb(226, 226, 226); fill: transparent; stroke-width: 1; stroke-linecap: round; stroke-linejoin: round; pointer-events: none;"></line><line x1="578" x2="582" y1="274" y2="274" role="presentation" shape-rendering="auto" vector-effect="non-scaling-stroke" style="stroke: transparent; fill: transparent; size: 4px; stroke-width: 1; stroke-linecap: round; stroke-linejoin: round;"></line><text dx="0" dy="4.97" x="590" y="274"><tspan x="590" dx="0" text-anchor="start" style="fill: rgb(153, 153, 153); font-size: 14px; font-family: inherit; stroke: transparent; letter-spacing: normal; padding: 8px; stroke-width: 0;">$100K</tspan></text></g><g role="presentation"><line x1="578" x2="15" y1="214" y2="214" role="presentation" shape-rendering="auto" vector-effect="non-scaling-stroke" style="stroke: rgb(226, 226, 226); fill: transparent; stroke-width: 1; stroke-linecap: round; stroke-linejoin: round; pointer-events: none;"></line><line x1="578" x2="582" y1="214" y2="214" role="presentation" shape-rendering="auto" vector-effect="non-scaling-stroke" style="stroke: transparent; fill: transparent; size: 4px; stroke-width: 1; stroke-linecap: round; stroke-linejoin: round;"></line><text dx="0" dy="4.97" x="590" y="214"><tspan x="590" dx="0" text-anchor="start" style="fill: rgb(153, 153, 153); font-size: 14px; font-family: inherit; stroke: transparent; letter-spacing: normal; padding: 8px; stroke-width: 0;">$150K</tspan></text></g><g role="presentation"><line x1="578" x2="15" y1="154" y2="154" role="presentation" shape-rendering="auto" vector-effect="non-scaling-stroke" style="stroke: rgb(226, 226, 226); fill: transparent; stroke-width: 1; stroke-linecap: round; stroke-linejoin: round; pointer-events: none;"></line><line x1="578" x2="582" y1="154" y2="154" role="presentation" shape-rendering="auto" vector-effect="non-scaling-stroke" style="stroke: transparent; fill: transparent; size: 4px; stroke-width: 1; stroke-linecap: round; stroke-linejoin: round;"></line><text dx="0" dy="4.97" x="590" y="154"><tspan x="590" dx="0" text-anchor="start" style="fill: rgb(153, 153, 153); font-size: 14px; font-family: inherit; stroke: transparent; letter-spacing: normal; padding: 8px; stroke-width: 0;">$200K</tspan></text></g><g role="presentation"><line x1="578" x2="15" y1="94" y2="94" role="presentation" shape-rendering="auto" vector-effect="non-scaling-stroke" style="stroke: rgb(226, 226, 226); fill: transparent; stroke-width: 1; stroke-linecap: round; stroke-linejoin: round; pointer-events: none;"></line><line x1="578" x2="582" y1="94" y2="94" role="presentation" shape-rendering="auto" vector-effect="non-scaling-stroke" style="stroke: transparent; fill: transparent; size: 4px; stroke-width: 1; stroke-linecap: round; stroke-linejoin: round;"></line><text dx="0" dy="4.97" x="590" y="94"><tspan x="590" dx="0" text-anchor="start" style="fill: rgb(153, 153, 153); font-size: 14px; font-family: inherit; stroke: transparent; letter-spacing: normal; padding: 8px; stroke-width: 0;">$250K</tspan></text></g><g role="presentation"><line x1="578" x2="15" y1="34" y2="34" role="presentation" shape-rendering="auto" vector-effect="non-scaling-stroke" style="stroke: rgb(226, 226, 226); fill: transparent; stroke-width: 1; stroke-linecap: round; stroke-linejoin: round; pointer-events: none;"></line><line x1="578" x2="582" y1="34" y2="34" role="presentation" shape-rendering="auto" vector-effect="non-scaling-stroke" style="stroke: transparent; fill: transparent; size: 4px; stroke-width: 1; stroke-linecap: round; stroke-linejoin: round;"></line><text dx="0" dy="4.97" x="590" y="34"><tspan x="590" dx="0" text-anchor="start" style="fill: rgb(153, 153, 153); font-size: 14px; font-family: inherit; stroke: transparent; letter-spacing: normal; padding: 8px; stroke-width: 0;">$300K</tspan></text></g></g><g style="height: 100%; width: 100%; user-select: none;"><defs><clipPath id="victory-clip-5"><rect x="15" y="34" width="563" height="240"></rect></clipPath></defs><g clip-path="url(#victory-clip-5)"><path shape-rendering="auto" role="presentation" d="M15.30815544608648,239.2C18.389709906951285,229.14999999999998,21.471264367816094,219.1,24.5528188286809,219.1C27.73709177157453,219.1,30.921364714468165,239.60000000000002,34.1056376573618,247.3C37.28991060025543,255,40.47418354314906,263.44,43.658456486042695,265.3C46.7400109469075,267.1,49.821565407772304,268,52.90311986863711,268C56.08739281153075,268,59.271665754424376,251.2,62.45593869731801,251.2C65.54177309493402,251.2,68.62760749255003,252.4,71.71344189016602,252.4C74.89771483305965,252.4,78.0819877759533,229,81.26626071884692,229C84.45053366174056,229,87.63480660463419,239.2,90.81907954752783,239.2C93.69519704433499,239.2,96.57131454114213,210.64,99.44743203794928,210.64C102.62742504409171,210.64,105.80741805023415,218.6439046479836,108.98741105637657,223.6C112.06896551724138,228.40267651877767,115.15051997810617,236.3161290322581,118.23207443897098,239.8C121.41634738186463,243.4,124.60062032475825,242.10918032786884,127.7848932676519,245.2C130.8664477285167,248.19111581173982,133.9480021893815,257.8,137.02955665024632,257.8C140.21382959313993,257.8,143.39810253603358,220.6,146.5823754789272,220.6C149.76664842182083,220.6,152.95092136471445,237.376,156.1351943076081,238.12C159.2167487684729,238.84,162.2983032293377,238.48,165.37985769020253,239.2C168.56413063309614,239.94399999999996,171.74840357598978,257.8,174.9326765188834,257.8C178.0185109164994,257.8,181.10434531411542,237.77408602150535,184.19017971173142,233.2C187.37445265462506,228.48,190.55872559751867,229.32,193.74299854041232,226.12C196.92727148330596,222.92000000000002,200.1115444261996,214,203.29581736909324,214C206.1719348659004,214,209.04805236270755,217.6,211.9241698595147,217.6C215.10416286565712,217.6,218.28415587179956,217,221.46414887794197,217C224.5457033388068,217,227.62725779967158,240.4,230.7088122605364,240.4C233.89308520343002,240.4,237.07735814632366,235,240.26163108921727,235C243.3431855500821,235,246.4247400109469,235.6,249.5062944718117,235.6C252.69056741470536,235.6,255.874840357599,197.80000000000007,259.05911330049264,190.60000000000002C262.2433862433863,183.4,265.42765918627987,179.8,268.6119321291735,179.8C271.69348659003833,179.8,274.7750410509031,238,277.8565955117679,238C281.04086845466156,238,284.22514139755515,233.82,287.4094143404488,225.45999999999998C290.4952487380648,217.35844086021498,293.58108313568084,145.2214,296.66691753329684,145.2214C299.8511904761905,145.2214,303.03546341908407,184.5369,306.2197363619777,196C309.40400930487135,207.46310000000008,312.588282247765,208.36029055690074,315.77255519065864,214C318.6486726874658,219.09393110989612,321.52479018427294,225.14401076716013,324.4009076810801,228.4C327.58090068722254,232,330.76089369336495,233.8,333.94088669950736,233.8C337.0224411603722,233.8,340.10399562123695,214,343.18555008210177,214C346.3698230249954,214,349.55409596788905,217.06,352.7383689107827,217.06C355.8199233716475,217.06,358.9014778325123,193.06,361.9830322933771,193.06C365.16730523627075,193.06,368.35157817916433,196,371.535851122058,196C374.7201240649516,196,377.90439700784526,195,381.0886699507389,193C384.1702244116037,191.06451612903226,387.2517788724685,145.72,390.3333333333333,145.72C393.51760627622696,145.72,396.7018792191206,179.8,399.88615216201424,179.8C402.97198655963024,179.8,406.0578209572463,154,409.1436553548623,154C412.32792829775593,154,415.5122012406495,160.59,418.69647418354316,166C421.8807471264368,171.41,425.0650200693304,186.45999999999998,428.24929301222403,186.45999999999998C431.22812899106003,186.45999999999998,434.206964969896,169,437.185800948732,169C440.3657939548744,169,443.54578696101686,202.06,446.72577996715927,202.06C449.8073344280241,202.06,452.8888888888889,149.8,455.97044334975374,149.8C459.1547162926473,149.8,462.33898923554096,202,465.52326217843455,202C468.6048166392994,202,471.6863711001642,185.6351136964569,474.767925561029,178C477.95219850392266,170.11038251366122,481.1364714468163,155.5,484.32074438970994,155.5C487.50501733260353,155.5,490.68929027549717,184.83344262295083,493.87356321839076,193.6C496.9551176792556,202.0837652035961,500.0366721401204,208,503.1182266009852,208C506.3024995438788,208,509.48677248677245,177.7,512.671045429666,177.7C515.7568798272821,177.7,518.8427142248981,180.5665661125178,521.9285486225142,185.56C525.1128215654078,190.71272512106336,528.2970945083015,208.6,531.4813674511951,208.6C534.6656403940887,208.6,537.8499133369824,200,541.0341862798759,182.8C543.9103037766831,167.26451612903227,546.7864212734902,94.38999999999999,549.6625387702974,94.38999999999999C552.8425317764398,94.38999999999999,556.0225247825822,130.35654989747093,559.2025177887247,140.79999999999998C562.2840722495895,150.92016699033775,565.3656267104543,157,568.4471811713191,157C571.6314541142127,157,574.8157270571064,143.17,578,129.34" style="fill: transparent; stroke: rgb(51, 51, 51); stroke-width: 2; opacity: 1;"></path></g></g></svg>