<svg xmlns="http://www.w3.org/2000/svg" width="640" height="324" role="img" aria-labelledby="victory-container-4-title victory-container-4-desc" viewBox="0 0 640 324" style="pointer-events: all; width: 100%; height: 100%;"><g role="presentation"><line x1="15" x2="578" y1="274" y2="274" role="presentation" shape-rendering="auto" vector-effect="non-scaling-stroke" style="stroke: rgb(226, 226, 226); fill: transparent; stroke-width: 1; stroke-linejoin: round;"></line><g role="presentation"><line x1="81.26626071884692" x2="81.26626071884692" y1="274" y2="34" role="presentation" shape-rendering="auto" vector-effect="non-scaling-stroke" style="stroke: transparent; fill: transparent; stroke-width: 1; stroke-linecap: round; stroke-linejoin: round; pointer-events: none;"></line><line x1="81.26626071884692" x2="81.26626071884692" y1="274" y2="278" role="presentation" shape-rendering="auto" vector-effect="non-scaling-stroke" style="stroke: transparent; fill: transparent; size: 4px; stroke-width: 1; stroke-linecap: round; stroke-linejoin: round;"></line><text dx="0" dy="11.969999999999999" x="81.26626071884692" y="286"><tspan x="81.26626071884692" dx="0" text-anchor="middle" style="fill: rgb(153, 153, 153); font-size: 14px; font-family: inherit; stroke: transparent; letter-spacing: normal; padding: 8px; stroke-width: 0;">2017</tspan></text></g><g role="presentation"><line x1="193.74299854041232" x2="193.74299854041232" y1="274" y2="34" role="presentation" shape-rendering="auto" vector-effect="non-scaling-stroke" style="stroke: transparent; fill: transparent; stroke-width: 1; stroke-linecap: round; stroke-linejoin: round; pointer-events: none;"></line><line x1="193.74299854041232" x2="193.74299854041232" y1="274" y2="278" role="presentation" shape-rendering="auto" vector-effect="non-scaling-stroke" style="stroke: transparent; fill: transparent; size: 4px; stroke-width: 1; stroke-linecap: round; stroke-linejoin: round;"></line><text dx="0" dy="11.969999999999999" x="193.74299854041232" y="286"><tspan x="193.74299854041232" dx="0" text-anchor="middle" style="fill: rgb(153, 153, 153); font-size: 14px; font-family: inherit; stroke: transparent; letter-spacing: normal; padding: 8px; stroke-width: 0;">2018</tspan></text></g><g role="presentation"><line x1="306.2197363619777" x2="306.2197363619777" y1="274" y2="34" role="presentation" shape-rendering="auto" vector-effect="non-scaling-stroke" style="stroke: transparent; fill: transparent; stroke-width: 1; stroke-linecap: round; stroke-linejoin: round; pointer-events: none;"></line><line x1="306.2197363619777" x2="306.2197363619777" y1="274" y2="278" role="presentation" shape-rendering="auto" vector-effect="non-scaling-stroke" style="stroke: transparent; fill: transparent; size: 4px; stroke-width: 1; stroke-linecap: round; stroke-linejoin: round;"></line><text dx="0" dy="11.969999999999999" x="306.2197363619777" y="286"><tspan x="306.2197363619777" dx="0" text-anchor="middle" style="fill: rgb(153, 153, 153); font-size: 14px; font-family: inherit; stroke: transparent; letter-spacing: normal; padding: 8px; stroke-width: 0;">2019</tspan></text></g><g role="presentation"><line x1="418.69647418354316" x2="418.69647418354316" y1="274" y2="34" role="presentation" shape-rendering="auto" vector-effect="non-scaling-stroke" style="stroke: transparent; fill: transparent; stroke-width: 1; stroke-linecap: round; stroke-linejoin: round; pointer-events: none;"></line><line x1="418.69647418354316" x2="418.69647418354316" y1="274" y2="278" role="presentation" shape-rendering="auto" vector-effect="non-scaling-stroke" style="stroke: transparent; fill: transparent; size: 4px; stroke-width: 1; stroke-linecap: round; stroke-linejoin: round;"></line><text dx="0" dy="11.969999999999999" x="418.69647418354316" y="286"><tspan x="418.69647418354316" dx="0" text-anchor="middle" style="fill: rgb(153, 153, 153); font-size: 14px; font-family: inherit; stroke: transparent; letter-spacing: normal; padding: 8px; stroke-width: 0;">2020</tspan></text></g><g role="presentation"><line x1="531.4813674511951" x2="531.4813674511951" y1="274" y2="34" role="presentation" shape-rendering="auto" vector-effect="non-scaling-stroke" style="stroke: transparent; fill: transparent; stroke-width: 1; stroke-linecap: round; stroke-linejoin: round; pointer-events: none;"></line><line x1="531.4813674511951" x2="531.4813674511951" y1="274" y2="278" role="presentation" shape-rendering="auto" vector-effect="non-scaling-stroke" style="stroke: transparent; fill: transparent; size: 4px; stroke-width: 1; stroke-linecap: round; stroke-linejoin: round;"></line><text dx="0" dy="11.969999999999999" x="531.4813674511951" y="286"><tspan x="531.4813674511951" dx="0" text-anchor="middle" style="fill: rgb(153, 153, 153); font-size: 14px; font-family: inherit; stroke: transparent; letter-spacing: normal; padding: 8px; stroke-width: 0;">2021</tspan></text></g></g><g role="presentation"><line x1="578" x2="578" y1="34" y2="274" role="presentation" shape-rendering="auto" vector-effect="non-scaling-stroke" style="stroke: transparent; fill: transparent; stroke-width: 1; stroke-linejoin: round;"></line><g role="presentation"><line x1="578" x2="15" y1="274" y2="274" role="presentation" shape-rendering="auto" vector-effect="non-scaling-stroke" style="stroke: rgb(226, 226, 226); fill: transparent; stroke-width: 1; stroke-linecap: round; stroke-linejoin: round; pointer-events: none;"></line><line x1="578" x2="582" y1="274" y2="274" role="presentation" shape-rendering="auto" vector-effect="non-scaling-stroke" style="stroke: transparent; fill: transparent; size: 4px; stroke-width: 1; stroke-linecap: round; stroke-linejoin: round;"></line><text dx="0" dy="4.97" x="590" y="274"><tspan x="590" dx="0" text-anchor="start" style="fill: rgb(153, 153, 153); font-size: 14px; font-family: inherit; stroke: transparent; letter-spacing: normal; padding: 8px; stroke-width: 0;">$100K</tspan></text></g><g role="presentation"><line x1="578" x2="15" y1="214" y2="214" role="presentation" shape-rendering="auto" vector-effect="non-scaling-stroke" style="stroke: rgb(226, 226, 226); fill: transparent; stroke-width: 1; stroke-linecap: round; stroke-linejoin: round; pointer-events: none;"></line><line x1="578" x2="582" y1="214" y2="214" role="presentation" shape-rendering="auto" vector-effect="non-scaling-stroke" style="stroke: transparent; fill: transparent; size: 4px; stroke-width: 1; stroke-linecap: round; stroke-linejoin: round;"></line><text dx="0" dy="4.97" x="590" y="214"><tspan x="590" dx="0" text-anchor="start" style="fill: rgb(153, 153, 153); font-size: 14px; font-family: inherit; stroke: transparent; letter-spacing: normal; padding: 8px; stroke-width: 0;">$150K</tspan></text></g><g role="presentation"><line x1="578" x2="15" y1="154" y2="154" role="presentation" shape-rendering="auto" vector-effect="non-scaling-stroke" style="stroke: rgb(226, 226, 226); fill: transparent; stroke-width: 1; stroke-linecap: round; stroke-linejoin: round; pointer-events: none;"></line><line x1="578" x2="582" y1="154" y2="154" role="presentation" shape-rendering="auto" vector-effect="non-scaling-stroke" style="stroke: transparent; fill: transparent; size: 4px; stroke-width: 1; stroke-linecap: round; stroke-linejoin: round;"></line><text dx="0" dy="4.97" x="590" y="154"><tspan x="590" dx="0" text-anchor="start" style="fill: rgb(153, 153, 153); font-size: 14px; font-family: inherit; stroke: transparent; letter-spacing: normal; padding: 8px; stroke-width: 0;">$200K</tspan></text></g><g role="presentation"><line x1="578" x2="15" y1="94" y2="94" role="presentation" shape-rendering="auto" vector-effect="non-scaling-stroke" style="stroke: rgb(226, 226, 226); fill: transparent; stroke-width: 1; stroke-linecap: round; stroke-linejoin: round; pointer-events: none;"></line><line x1="578" x2="582" y1="94" y2="94" role="presentation" shape-rendering="auto" vector-effect="non-scaling-stroke" style="stroke: transparent; fill: transparent; size: 4px; stroke-width: 1; stroke-linecap: round; stroke-linejoin: round;"></line><text dx="0" dy="4.97" x="590" y="94"><tspan x="590" dx="0" text-anchor="start" style="fill: rgb(153, 153, 153); font-size: 14px; font-family: inherit; stroke: transparent; letter-spacing: normal; padding: 8px; stroke-width: 0;">$250K</tspan></text></g><g role="presentation"><line x1="578" x2="15" y1="34" y2="34" role="presentation" shape-rendering="auto" vector-effect="non-scaling-stroke" style="stroke: rgb(226, 226, 226); fill: transparent; stroke-width: 1; stroke-linecap: round; stroke-linejoin: round; pointer-events: none;"></line><line x1="578" x2="582" y1="34" y2="34" role="presentation" shape-rendering="auto" vector-effect="non-scaling-stroke" style="stroke: transparent; fill: transparent; size: 4px; stroke-width: 1; stroke-linecap: round; stroke-linejoin: round;"></line><text dx="0" dy="4.97" x="590" y="34"><tspan x="590" dx="0" text-anchor="start" style="fill: rgb(153, 153, 153); font-size: 14px; font-family: inherit; stroke: transparent; letter-spacing: normal; padding: 8px; stroke-width: 0;">$300K</tspan></text></g></g><g style="height: 100%; width: 100%; user-select: none;"><defs><clipPath id="victory-clip-5"><rect x="15" y="34" width="563" height="240"></rect></clipPath></defs><g clip-path="url(#victory-clip-5)"><path shape-rendering="auto" role="presentation" d="M24.5528188286809,196C27.73709177157453,199.33,30.921364714468165,202.66,34.1056376573618,202.66C37.28991060025543,202.66,40.47418354314906,202.36971475409837,43.658456486042695,202C46.7400109469075,201.6422115282919,49.821565407772304,200.506,52.90311986863711,200.506C56.08739281153075,200.506,59.271665754424376,209.4730428273208,62.45593869731801,212.8C65.54177309493402,216.02410769019048,68.62760749255003,220.3,71.71344189016602,220.3C74.89771483305965,220.3,78.0819877759533,190.12,81.26626071884692,190.12C84.45053366174056,190.12,87.63480660463419,232.6,90.81907954752783,232.6C93.69519704433499,232.6,96.57131454114213,183.406,99.44743203794928,183.406C102.62742504409171,183.406,105.80741805023415,184.004,108.98741105637657,185.2C112.06896551724138,186.35897711978464,115.15051997810617,197.2,118.23207443897098,197.2C121.41634738186463,197.2,124.60062032475825,168.42399999999998,127.7848932676519,168.42399999999998C130.8664477285167,168.42399999999998,133.9480021893815,175.26784135378105,137.02955665024632,179.5C140.21382959313993,183.8732306010929,143.39810253603358,194.35000000000002,146.5823754789272,194.35000000000002C149.76664842182083,194.35000000000002,152.95092136471445,190,156.1351943076081,190C159.2167487684729,190,162.2983032293377,206.8,165.37985769020253,206.8C168.56413063309614,206.8,171.74840357598978,173.8,174.9326765188834,173.8C178.0185109164994,173.8,181.10434531411542,175.20000000000002,184.19017971173142,178C187.37445265462506,180.88932038834952,190.55872559751867,233.8,193.74299854041232,233.8C196.92727148330596,233.8,200.1115444261996,207.87905569007265,203.29581736909324,199C206.1719348659004,190.98020776380537,209.04805236270755,181.6,211.9241698595147,181.6C215.10416286565712,181.6,218.28415587179956,187.59794966013519,221.46414887794197,190C224.5457033388068,192.3276934652795,227.62725779967158,195.862,230.7088122605364,195.862C233.89308520343002,195.862,237.07735814632366,162.46,240.26163108921727,162.46C243.3431855500821,162.46,246.4247400109469,167.0523638286621,249.5062944718117,172C252.69056741470536,177.11255737704917,255.874840357599,193,259.05911330049264,193C262.2433862433863,193,265.42765918627987,173.2,268.6119321291735,173.2C271.69348659003833,173.2,274.7750410509031,182.8941723955579,277.8565955117679,190.12C281.04086845466156,197.58668852459016,284.22514139755515,217.6,287.4094143404488,217.6C290.4952487380648,217.6,293.58108313568084,175.60000000000002,296.66691753329684,175.60000000000002C299.8511904761905,175.60000000000002,303.03546341908407,202.3,306.2197363619777,202.3C309.40400930487135,202.3,312.588282247765,177.81428571428575,315.77255519065864,175.60000000000002C318.6486726874658,173.60000000000002,321.52479018427294,174.60000000000002,324.4009076810801,172.60000000000002C327.58090068722254,170.38869047619053,330.76089369336495,160,333.94088669950736,160C337.0224411603722,160,340.10399562123695,172,343.18555008210177,172C346.3698230249954,172,349.55409596788905,167.2,352.7383689107827,167.2C355.8199233716475,167.2,358.9014778325123,176.8,361.9830322933771,176.8C365.16730523627075,176.8,368.35157817916433,157.43560000000002,371.535851122058,157.43560000000002C374.7201240649516,157.43560000000002,377.90439700784526,161.5,381.0886699507389,161.5C384.1702244116037,161.5,387.2517788724685,160.60000000000002,390.3333333333333,160.60000000000002C393.51760627622696,160.60000000000002,396.7018792191206,177.1,399.88615216201424,177.1C402.97198655963024,177.1,406.0578209572463,154.12,409.1436553548623,154.12C412.32792829775593,154.12,415.5122012406495,184,418.69647418354316,184C421.8807471264368,184,425.0650200693304,155.2,428.24929301222403,155.2C431.22812899106003,155.2,434.206964969896,178.12,437.185800948732,178.12C440.3657939548744,178.12,443.54578696101686,172.6747444368497,446.72577996715927,169.6C449.8073344280241,166.62043607734617,452.8888888888889,160,455.97044334975374,160C459.1547162926473,160,462.33898923554096,175.60000000000002,465.52326217843455,175.60000000000002C468.6048166392994,175.60000000000002,471.6863711001642,158.2,474.767925561029,158.2C477.95219850392266,158.2,481.1364714468163,164.8,484.32074438970994,164.8C487.50501733260353,164.8,490.68929027549717,157.36,493.87356321839076,157.36C496.9551176792556,157.36,500.0366721401204,166,503.1182266009852,166C506.3024995438788,166,509.48677248677245,135.46715672676825,512.671045429666,130.06C515.7568798272821,124.82000000000001,518.8427142248981,122.20000000000002,521.9285486225142,122.20000000000002C525.1128215654078,122.20000000000002,528.2970945083015,132.90000000000003,531.4813674511951,137.20000000000002C534.6656403940887,141.5,537.8499133369824,148,541.0341862798759,148C543.9103037766831,148,546.7864212734902,127.612,549.6625387702974,127.612C552.8425317764398,127.612,556.0225247825822,133.48,559.2025177887247,133.48C562.2840722495895,133.48,565.3656267104543,132.32,568.4471811713191,130C571.6314541142127,127.60266666666669,574.8157270571064,122.20133333333334,578,116.79999999999998" style="fill: transparent; stroke: rgb(51, 51, 51); stroke-width: 2; opacity: 1;"></path></g></g></svg>