<svg xmlns="http://www.w3.org/2000/svg" width="640" height="324" role="img" aria-labelledby="victory-container-4-title victory-container-4-desc" viewBox="0 0 640 324" style="pointer-events: all; width: 100%; height: 100%;"><g role="presentation"><line x1="15" x2="578" y1="274" y2="274" role="presentation" shape-rendering="auto" vector-effect="non-scaling-stroke" style="stroke: rgb(226, 226, 226); fill: transparent; stroke-width: 1; stroke-linejoin: round;"></line><g role="presentation"><line x1="81.26626071884692" x2="81.26626071884692" y1="274" y2="34" role="presentation" shape-rendering="auto" vector-effect="non-scaling-stroke" style="stroke: transparent; fill: transparent; stroke-width: 1; stroke-linecap: round; stroke-linejoin: round; pointer-events: none;"></line><line x1="81.26626071884692" x2="81.26626071884692" y1="274" y2="278" role="presentation" shape-rendering="auto" vector-effect="non-scaling-stroke" style="stroke: transparent; fill: transparent; size: 4px; stroke-width: 1; stroke-linecap: round; stroke-linejoin: round;"></line><text dx="0" dy="11.969999999999999" x="81.26626071884692" y="286"><tspan x="81.26626071884692" dx="0" text-anchor="middle" style="fill: rgb(153, 153, 153); font-size: 14px; font-family: inherit; stroke: transparent; letter-spacing: normal; padding: 8px; stroke-width: 0;">2017</tspan></text></g><g role="presentation"><line x1="193.74299854041232" x2="193.74299854041232" y1="274" y2="34" role="presentation" shape-rendering="auto" vector-effect="non-scaling-stroke" style="stroke: transparent; fill: transparent; stroke-width: 1; stroke-linecap: round; stroke-linejoin: round; pointer-events: none;"></line><line x1="193.74299854041232" x2="193.74299854041232" y1="274" y2="278" role="presentation" shape-rendering="auto" vector-effect="non-scaling-stroke" style="stroke: transparent; fill: transparent; size: 4px; stroke-width: 1; stroke-linecap: round; stroke-linejoin: round;"></line><text dx="0" dy="11.969999999999999" x="193.74299854041232" y="286"><tspan x="193.74299854041232" dx="0" text-anchor="middle" style="fill: rgb(153, 153, 153); font-size: 14px; font-family: inherit; stroke: transparent; letter-spacing: normal; padding: 8px; stroke-width: 0;">2018</tspan></text></g><g role="presentation"><line x1="306.2197363619777" x2="306.2197363619777" y1="274" y2="34" role="presentation" shape-rendering="auto" vector-effect="non-scaling-stroke" style="stroke: transparent; fill: transparent; stroke-width: 1; stroke-linecap: round; stroke-linejoin: round; pointer-events: none;"></line><line x1="306.2197363619777" x2="306.2197363619777" y1="274" y2="278" role="presentation" shape-rendering="auto" vector-effect="non-scaling-stroke" style="stroke: transparent; fill: transparent; size: 4px; stroke-width: 1; stroke-linecap: round; stroke-linejoin: round;"></line><text dx="0" dy="11.969999999999999" x="306.2197363619777" y="286"><tspan x="306.2197363619777" dx="0" text-anchor="middle" style="fill: rgb(153, 153, 153); font-size: 14px; font-family: inherit; stroke: transparent; letter-spacing: normal; padding: 8px; stroke-width: 0;">2019</tspan></text></g><g role="presentation"><line x1="418.69647418354316" x2="418.69647418354316" y1="274" y2="34" role="presentation" shape-rendering="auto" vector-effect="non-scaling-stroke" style="stroke: transparent; fill: transparent; stroke-width: 1; stroke-linecap: round; stroke-linejoin: round; pointer-events: none;"></line><line x1="418.69647418354316" x2="418.69647418354316" y1="274" y2="278" role="presentation" shape-rendering="auto" vector-effect="non-scaling-stroke" style="stroke: transparent; fill: transparent; size: 4px; stroke-width: 1; stroke-linecap: round; stroke-linejoin: round;"></line><text dx="0" dy="11.969999999999999" x="418.69647418354316" y="286"><tspan x="418.69647418354316" dx="0" text-anchor="middle" style="fill: rgb(153, 153, 153); font-size: 14px; font-family: inherit; stroke: transparent; letter-spacing: normal; padding: 8px; stroke-width: 0;">2020</tspan></text></g><g role="presentation"><line x1="531.4813674511951" x2="531.4813674511951" y1="274" y2="34" role="presentation" shape-rendering="auto" vector-effect="non-scaling-stroke" style="stroke: transparent; fill: transparent; stroke-width: 1; stroke-linecap: round; stroke-linejoin: round; pointer-events: none;"></line><line x1="531.4813674511951" x2="531.4813674511951" y1="274" y2="278" role="presentation" shape-rendering="auto" vector-effect="non-scaling-stroke" style="stroke: transparent; fill: transparent; size: 4px; stroke-width: 1; stroke-linecap: round; stroke-linejoin: round;"></line><text dx="0" dy="11.969999999999999" x="531.4813674511951" y="286"><tspan x="531.4813674511951" dx="0" text-anchor="middle" style="fill: rgb(153, 153, 153); font-size: 14px; font-family: inherit; stroke: transparent; letter-spacing: normal; padding: 8px; stroke-width: 0;">2021</tspan></text></g></g><g role="presentation"><line x1="578" x2="578" y1="34" y2="274" role="presentation" shape-rendering="auto" vector-effect="non-scaling-stroke" style="stroke: transparent; fill: transparent; stroke-width: 1; stroke-linejoin: round;"></line><g role="presentation"><line x1="578" x2="15" y1="274" y2="274" role="presentation" shape-rendering="auto" vector-effect="non-scaling-stroke" style="stroke: rgb(226, 226, 226); fill: transparent; stroke-width: 1; stroke-linecap: round; stroke-linejoin: round; pointer-events: none;"></line><line x1="578" x2="582" y1="274" y2="274" role="presentation" shape-rendering="auto" vector-effect="non-scaling-stroke" style="stroke: transparent; fill: transparent; size: 4px; stroke-width: 1; stroke-linecap: round; stroke-linejoin: round;"></line><text dx="0" dy="4.97" x="590" y="274"><tspan x="590" dx="0" text-anchor="start" style="fill: rgb(153, 153, 153); font-size: 14px; font-family: inherit; stroke: transparent; letter-spacing: normal; padding: 8px; stroke-width: 0;">$100K</tspan></text></g><g role="presentation"><line x1="578" x2="15" y1="214" y2="214" role="presentation" shape-rendering="auto" vector-effect="non-scaling-stroke" style="stroke: rgb(226, 226, 226); fill: transparent; stroke-width: 1; stroke-linecap: round; stroke-linejoin: round; pointer-events: none;"></line><line x1="578" x2="582" y1="214" y2="214" role="presentation" shape-rendering="auto" vector-effect="non-scaling-stroke" style="stroke: transparent; fill: transparent; size: 4px; stroke-width: 1; stroke-linecap: round; stroke-linejoin: round;"></line><text dx="0" dy="4.97" x="590" y="214"><tspan x="590" dx="0" text-anchor="start" style="fill: rgb(153, 153, 153); font-size: 14px; font-family: inherit; stroke: transparent; letter-spacing: normal; padding: 8px; stroke-width: 0;">$150K</tspan></text></g><g role="presentation"><line x1="578" x2="15" y1="154" y2="154" role="presentation" shape-rendering="auto" vector-effect="non-scaling-stroke" style="stroke: rgb(226, 226, 226); fill: transparent; stroke-width: 1; stroke-linecap: round; stroke-linejoin: round; pointer-events: none;"></line><line x1="578" x2="582" y1="154" y2="154" role="presentation" shape-rendering="auto" vector-effect="non-scaling-stroke" style="stroke: transparent; fill: transparent; size: 4px; stroke-width: 1; stroke-linecap: round; stroke-linejoin: round;"></line><text dx="0" dy="4.97" x="590" y="154"><tspan x="590" dx="0" text-anchor="start" style="fill: rgb(153, 153, 153); font-size: 14px; font-family: inherit; stroke: transparent; letter-spacing: normal; padding: 8px; stroke-width: 0;">$200K</tspan></text></g><g role="presentation"><line x1="578" x2="15" y1="94" y2="94" role="presentation" shape-rendering="auto" vector-effect="non-scaling-stroke" style="stroke: rgb(226, 226, 226); fill: transparent; stroke-width: 1; stroke-linecap: round; stroke-linejoin: round; pointer-events: none;"></line><line x1="578" x2="582" y1="94" y2="94" role="presentation" shape-rendering="auto" vector-effect="non-scaling-stroke" style="stroke: transparent; fill: transparent; size: 4px; stroke-width: 1; stroke-linecap: round; stroke-linejoin: round;"></line><text dx="0" dy="4.97" x="590" y="94"><tspan x="590" dx="0" text-anchor="start" style="fill: rgb(153, 153, 153); font-size: 14px; font-family: inherit; stroke: transparent; letter-spacing: normal; padding: 8px; stroke-width: 0;">$250K</tspan></text></g><g role="presentation"><line x1="578" x2="15" y1="34" y2="34" role="presentation" shape-rendering="auto" vector-effect="non-scaling-stroke" style="stroke: rgb(226, 226, 226); fill: transparent; stroke-width: 1; stroke-linecap: round; stroke-linejoin: round; pointer-events: none;"></line><line x1="578" x2="582" y1="34" y2="34" role="presentation" shape-rendering="auto" vector-effect="non-scaling-stroke" style="stroke: transparent; fill: transparent; size: 4px; stroke-width: 1; stroke-linecap: round; stroke-linejoin: round;"></line><text dx="0" dy="4.97" x="590" y="34"><tspan x="590" dx="0" text-anchor="start" style="fill: rgb(153, 153, 153); font-size: 14px; font-family: inherit; stroke: transparent; letter-spacing: normal; padding: 8px; stroke-width: 0;">$300K</tspan></text></g></g><g style="height: 100%; width: 100%; user-select: none;"><defs><clipPath id="victory-clip-5"><rect x="15" y="34" width="563" height="240"></rect></clipPath></defs><g clip-path="url(#victory-clip-5)"><path shape-rendering="auto" role="presentation" d="M24.5528188286809,190C27.73709177157453,193.79999999999998,30.921364714468165,197.6,34.1056376573618,200.2C37.28991060025543,202.79999999999998,40.47418354314906,202,43.658456486042695,205.60000000000002C46.7400109469075,209.08387096774197,49.821565407772304,221.2,52.90311986863711,221.2C56.08739281153075,221.2,59.271665754424376,190,62.45593869731801,190C65.54177309493402,190,68.62760749255003,202,71.71344189016602,202C74.89771483305965,202,78.0819877759533,155.1652,81.26626071884692,155.1652C84.45053366174056,155.1652,87.63480660463419,194.75714285714284,90.81907954752783,201.4C93.69519704433499,207.4,96.57131454114213,210.4,99.44743203794928,210.4C102.62742504409171,210.4,105.80741805023415,199.41043707754235,108.98741105637657,196C112.06896551724138,192.69513499888225,115.15051997810617,190,118.23207443897098,190C121.41634738186463,190,124.60062032475825,193.75606557377048,127.7848932676519,196C130.8664477285167,198.17154944473822,133.9480021893815,203.2,137.02955665024632,203.2C140.21382959313993,203.2,143.39810253603358,192.00000000000003,146.5823754789272,191.8C149.76664842182083,191.6,152.95092136471445,191.5,156.1351943076081,191.5C159.2167487684729,191.5,162.2983032293377,194.8,165.37985769020253,194.8C168.56413063309614,194.8,171.74840357598978,168.865,174.9326765188834,168.865C178.0185109164994,168.865,181.10434531411542,182.62851344086022,184.19017971173142,184.933C187.37445265462506,187.311,190.55872559751867,188.5,193.74299854041232,188.5C196.92727148330596,188.5,200.1115444261996,180.007,203.29581736909324,180.007C206.1719348659004,180.007,209.04805236270755,180.538,211.9241698595147,181.6C215.10416286565712,182.77420535714285,218.28415587179956,192.39999999999998,221.46414887794197,192.39999999999998C224.5457033388068,192.39999999999998,227.62725779967158,186.97195854045478,230.7088122605364,185.3734C233.89308520343002,183.7215561748634,237.07735814632366,182.8,240.26163108921727,182.8C243.3431855500821,182.8,246.4247400109469,185.32,249.5062944718117,185.32C252.69056741470536,185.32,255.874840357599,172,259.05911330049264,172C262.2433862433863,172,265.42765918627987,172.12,268.6119321291735,172.12C271.69348659003833,172.12,274.7750410509031,172,277.8565955117679,172C281.04086845466156,172,284.22514139755515,196.06,287.4094143404488,196.06C290.4952487380648,196.06,293.58108313568084,174.4,296.66691753329684,174.4C299.8511904761905,174.4,303.03546341908407,181,306.2197363619777,181C309.40400930487135,181,312.588282247765,181,315.77255519065864,181C318.6486726874658,181,321.52479018427294,184.89999999999998,324.4009076810801,184.89999999999998C327.58090068722254,184.89999999999998,330.76089369336495,170.8,333.94088669950736,170.8C337.0224411603722,170.8,340.10399562123695,174.4,343.18555008210177,174.4C346.3698230249954,174.4,349.55409596788905,172.65601092896176,352.7383689107827,172C355.8199233716475,171.36515071390798,358.9014778325123,170.5,361.9830322933771,170.5C365.16730523627075,170.5,368.35157817916433,171.42,371.535851122058,173.26C374.7201240649516,175.1,377.90439700784526,182.62,381.0886699507389,182.62C384.1702244116037,182.62,387.2517788724685,170.83787414066632,390.3333333333333,166.12C393.51760627622696,161.24486338797814,396.7018792191206,154,399.88615216201424,154C402.97198655963024,154,406.0578209572463,176.52365591397842,409.1436553548623,180.39999999999998C412.32792829775593,184.4,415.5122012406495,186.4,418.69647418354316,186.4C421.8807471264368,186.4,425.0650200693304,172,428.24929301222403,172C431.22812899106003,172,434.206964969896,176.64999999999998,437.185800948732,176.64999999999998C440.3657939548744,176.64999999999998,443.54578696101686,164.8,446.72577996715927,164.8C449.8073344280241,164.8,452.8888888888889,165.16,455.97044334975374,165.16C459.1547162926473,165.16,462.33898923554096,159.7,465.52326217843455,159.7C468.6048166392994,159.7,471.6863711001642,163.01896351136963,474.767925561029,166.24C477.95219850392266,169.5684043715847,481.1364714468163,179.56,484.32074438970994,179.56C487.50501733260353,179.56,490.68929027549717,155.2,493.87356321839076,155.2C496.9551176792556,155.2,500.0366721401204,165.76,503.1182266009852,165.76C506.3024995438788,165.76,509.48677248677245,142,512.671045429666,142C515.7568798272821,142,518.8427142248981,142,521.9285486225142,142C525.1128215654078,142,528.2970945083015,145.6,531.4813674511951,145.6C534.6656403940887,145.6,537.8499133369824,121.6,541.0341862798759,121.6C543.9103037766831,121.6,546.7864212734902,135.4,549.6625387702974,135.4C552.8425317764398,135.4,556.0225247825822,96.10000000000002,559.2025177887247,96.10000000000002C562.2840722495895,96.10000000000002,565.3656267104543,127.6,568.4471811713191,127.6C571.6314541142127,127.6,574.8157270571064,127.3,578,127" style="fill: transparent; stroke: rgb(51, 51, 51); stroke-width: 2; opacity: 1;"></path></g></g></svg>