<svg xmlns="http://www.w3.org/2000/svg" width="640" height="324" role="img" aria-labelledby="victory-container-4-title victory-container-4-desc" viewBox="0 0 640 324" style="pointer-events: all; width: 100%; height: 100%;"><g role="presentation"><line x1="15" x2="578" y1="274" y2="274" role="presentation" shape-rendering="auto" vector-effect="non-scaling-stroke" style="stroke: rgb(226, 226, 226); fill: transparent; stroke-width: 1; stroke-linejoin: round;"></line><g role="presentation"><line x1="81.26626071884692" x2="81.26626071884692" y1="274" y2="34" role="presentation" shape-rendering="auto" vector-effect="non-scaling-stroke" style="stroke: transparent; fill: transparent; stroke-width: 1; stroke-linecap: round; stroke-linejoin: round; pointer-events: none;"></line><line x1="81.26626071884692" x2="81.26626071884692" y1="274" y2="278" role="presentation" shape-rendering="auto" vector-effect="non-scaling-stroke" style="stroke: transparent; fill: transparent; size: 4px; stroke-width: 1; stroke-linecap: round; stroke-linejoin: round;"></line><text dx="0" dy="11.969999999999999" x="81.26626071884692" y="286"><tspan x="81.26626071884692" dx="0" text-anchor="middle" style="fill: rgb(153, 153, 153); font-size: 14px; font-family: inherit; stroke: transparent; letter-spacing: normal; padding: 8px; stroke-width: 0;">2017</tspan></text></g><g role="presentation"><line x1="193.74299854041232" x2="193.74299854041232" y1="274" y2="34" role="presentation" shape-rendering="auto" vector-effect="non-scaling-stroke" style="stroke: transparent; fill: transparent; stroke-width: 1; stroke-linecap: round; stroke-linejoin: round; pointer-events: none;"></line><line x1="193.74299854041232" x2="193.74299854041232" y1="274" y2="278" role="presentation" shape-rendering="auto" vector-effect="non-scaling-stroke" style="stroke: transparent; fill: transparent; size: 4px; stroke-width: 1; stroke-linecap: round; stroke-linejoin: round;"></line><text dx="0" dy="11.969999999999999" x="193.74299854041232" y="286"><tspan x="193.74299854041232" dx="0" text-anchor="middle" style="fill: rgb(153, 153, 153); font-size: 14px; font-family: inherit; stroke: transparent; letter-spacing: normal; padding: 8px; stroke-width: 0;">2018</tspan></text></g><g role="presentation"><line x1="306.2197363619777" x2="306.2197363619777" y1="274" y2="34" role="presentation" shape-rendering="auto" vector-effect="non-scaling-stroke" style="stroke: transparent; fill: transparent; stroke-width: 1; stroke-linecap: round; stroke-linejoin: round; pointer-events: none;"></line><line x1="306.2197363619777" x2="306.2197363619777" y1="274" y2="278" role="presentation" shape-rendering="auto" vector-effect="non-scaling-stroke" style="stroke: transparent; fill: transparent; size: 4px; stroke-width: 1; stroke-linecap: round; stroke-linejoin: round;"></line><text dx="0" dy="11.969999999999999" x="306.2197363619777" y="286"><tspan x="306.2197363619777" dx="0" text-anchor="middle" style="fill: rgb(153, 153, 153); font-size: 14px; font-family: inherit; stroke: transparent; letter-spacing: normal; padding: 8px; stroke-width: 0;">2019</tspan></text></g><g role="presentation"><line x1="418.69647418354316" x2="418.69647418354316" y1="274" y2="34" role="presentation" shape-rendering="auto" vector-effect="non-scaling-stroke" style="stroke: transparent; fill: transparent; stroke-width: 1; stroke-linecap: round; stroke-linejoin: round; pointer-events: none;"></line><line x1="418.69647418354316" x2="418.69647418354316" y1="274" y2="278" role="presentation" shape-rendering="auto" vector-effect="non-scaling-stroke" style="stroke: transparent; fill: transparent; size: 4px; stroke-width: 1; stroke-linecap: round; stroke-linejoin: round;"></line><text dx="0" dy="11.969999999999999" x="418.69647418354316" y="286"><tspan x="418.69647418354316" dx="0" text-anchor="middle" style="fill: rgb(153, 153, 153); font-size: 14px; font-family: inherit; stroke: transparent; letter-spacing: normal; padding: 8px; stroke-width: 0;">2020</tspan></text></g><g role="presentation"><line x1="531.4813674511951" x2="531.4813674511951" y1="274" y2="34" role="presentation" shape-rendering="auto" vector-effect="non-scaling-stroke" style="stroke: transparent; fill: transparent; stroke-width: 1; stroke-linecap: round; stroke-linejoin: round; pointer-events: none;"></line><line x1="531.4813674511951" x2="531.4813674511951" y1="274" y2="278" role="presentation" shape-rendering="auto" vector-effect="non-scaling-stroke" style="stroke: transparent; fill: transparent; size: 4px; stroke-width: 1; stroke-linecap: round; stroke-linejoin: round;"></line><text dx="0" dy="11.969999999999999" x="531.4813674511951" y="286"><tspan x="531.4813674511951" dx="0" text-anchor="middle" style="fill: rgb(153, 153, 153); font-size: 14px; font-family: inherit; stroke: transparent; letter-spacing: normal; padding: 8px; stroke-width: 0;">2021</tspan></text></g></g><g role="presentation"><line x1="578" x2="578" y1="34" y2="274" role="presentation" shape-rendering="auto" vector-effect="non-scaling-stroke" style="stroke: transparent; fill: transparent; stroke-width: 1; stroke-linejoin: round;"></line><g role="presentation"><line x1="578" x2="15" y1="274" y2="274" role="presentation" shape-rendering="auto" vector-effect="non-scaling-stroke" style="stroke: rgb(226, 226, 226); fill: transparent; stroke-width: 1; stroke-linecap: round; stroke-linejoin: round; pointer-events: none;"></line><line x1="578" x2="582" y1="274" y2="274" role="presentation" shape-rendering="auto" vector-effect="non-scaling-stroke" style="stroke: transparent; fill: transparent; size: 4px; stroke-width: 1; stroke-linecap: round; stroke-linejoin: round;"></line><text dx="0" dy="4.97" x="590" y="274"><tspan x="590" dx="0" text-anchor="start" style="fill: rgb(153, 153, 153); font-size: 14px; font-family: inherit; stroke: transparent; letter-spacing: normal; padding: 8px; stroke-width: 0;">$100K</tspan></text></g><g role="presentation"><line x1="578" x2="15" y1="214" y2="214" role="presentation" shape-rendering="auto" vector-effect="non-scaling-stroke" style="stroke: rgb(226, 226, 226); fill: transparent; stroke-width: 1; stroke-linecap: round; stroke-linejoin: round; pointer-events: none;"></line><line x1="578" x2="582" y1="214" y2="214" role="presentation" shape-rendering="auto" vector-effect="non-scaling-stroke" style="stroke: transparent; fill: transparent; size: 4px; stroke-width: 1; stroke-linecap: round; stroke-linejoin: round;"></line><text dx="0" dy="4.97" x="590" y="214"><tspan x="590" dx="0" text-anchor="start" style="fill: rgb(153, 153, 153); font-size: 14px; font-family: inherit; stroke: transparent; letter-spacing: normal; padding: 8px; stroke-width: 0;">$200K</tspan></text></g><g role="presentation"><line x1="578" x2="15" y1="154" y2="154" role="presentation" shape-rendering="auto" vector-effect="non-scaling-stroke" style="stroke: rgb(226, 226, 226); fill: transparent; stroke-width: 1; stroke-linecap: round; stroke-linejoin: round; pointer-events: none;"></line><line x1="578" x2="582" y1="154" y2="154" role="presentation" shape-rendering="auto" vector-effect="non-scaling-stroke" style="stroke: transparent; fill: transparent; size: 4px; stroke-width: 1; stroke-linecap: round; stroke-linejoin: round;"></line><text dx="0" dy="4.97" x="590" y="154"><tspan x="590" dx="0" text-anchor="start" style="fill: rgb(153, 153, 153); font-size: 14px; font-family: inherit; stroke: transparent; letter-spacing: normal; padding: 8px; stroke-width: 0;">$300K</tspan></text></g><g role="presentation"><line x1="578" x2="15" y1="94" y2="94" role="presentation" shape-rendering="auto" vector-effect="non-scaling-stroke" style="stroke: rgb(226, 226, 226); fill: transparent; stroke-width: 1; stroke-linecap: round; stroke-linejoin: round; pointer-events: none;"></line><line x1="578" x2="582" y1="94" y2="94" role="presentation" shape-rendering="auto" vector-effect="non-scaling-stroke" style="stroke: transparent; fill: transparent; size: 4px; stroke-width: 1; stroke-linecap: round; stroke-linejoin: round;"></line><text dx="0" dy="4.97" x="590" y="94"><tspan x="590" dx="0" text-anchor="start" style="fill: rgb(153, 153, 153); font-size: 14px; font-family: inherit; stroke: transparent; letter-spacing: normal; padding: 8px; stroke-width: 0;">$400K</tspan></text></g><g role="presentation"><line x1="578" x2="15" y1="34" y2="34" role="presentation" shape-rendering="auto" vector-effect="non-scaling-stroke" style="stroke: rgb(226, 226, 226); fill: transparent; stroke-width: 1; stroke-linecap: round; stroke-linejoin: round; pointer-events: none;"></line><line x1="578" x2="582" y1="34" y2="34" role="presentation" shape-rendering="auto" vector-effect="non-scaling-stroke" style="stroke: transparent; fill: transparent; size: 4px; stroke-width: 1; stroke-linecap: round; stroke-linejoin: round;"></line><text dx="0" dy="4.97" x="590" y="34"><tspan x="590" dx="0" text-anchor="start" style="fill: rgb(153, 153, 153); font-size: 14px; font-family: inherit; stroke: transparent; letter-spacing: normal; padding: 8px; stroke-width: 0;">$500K</tspan></text></g></g><g style="height: 100%; width: 100%; user-select: none;"><defs><clipPath id="victory-clip-5"><rect x="15" y="34" width="563" height="240"></rect></clipPath></defs><g clip-path="url(#victory-clip-5)"><path shape-rendering="auto" role="presentation" d="M24.5528188286809,184.3C27.73709177157453,181.465,30.921364714468165,178.63,34.1056376573618,178.63C37.28991060025543,178.63,40.47418354314906,205.675,43.658456486042695,205.675C46.7400109469075,205.675,49.821565407772304,175.06,52.90311986863711,175.06C56.08739281153075,175.06,59.271665754424376,224.8,62.45593869731801,224.8C65.54177309493402,224.8,68.62760749255003,142.6,71.71344189016602,142.6C74.89771483305965,142.6,78.0819877759533,205.405,81.26626071884692,205.405C84.45053366174056,205.405,87.63480660463419,186.85000000000002,90.81907954752783,186.85000000000002C93.69519704433499,186.85000000000002,96.57131454114213,226,99.44743203794928,226C102.62742504409171,226,105.80741805023415,221.1531171679198,108.98741105637657,215.5C112.06896551724138,210.02187838371162,115.15051997810617,193,118.23207443897098,193C121.41634738186463,193,124.60062032475825,193.9915300546448,127.7848932676519,194.5C130.8664477285167,194.9920676890534,133.9480021893815,195.26996298254892,137.02955665024632,196C140.21382959313993,196.75437158469944,143.39810253603358,199,146.5823754789272,199C149.76664842182083,199,152.95092136471445,198.7,156.1351943076081,198.7C159.2167487684729,198.7,162.2983032293377,202.97852987837123,165.37985769020253,205C168.56413063309614,207.08885245901638,171.74840357598978,208.87794847883816,174.9326765188834,211.015C178.0185109164994,213.08598675639473,181.10434531411542,217.6,184.19017971173142,217.6C187.37445265462506,217.6,190.55872559751867,208.17499999999998,193.74299854041232,196.9C196.92727148330596,185.625,200.1115444261996,149.95,203.29581736909324,149.95C206.1719348659004,149.95,209.04805236270755,152.95,211.9241698595147,158.95C215.10416286565712,165.58392857142854,218.28415587179956,187.41773116503379,221.46414887794197,195.7C224.5457033388068,203.72588635420686,227.62725779967158,208.6,230.7088122605364,208.6C233.89308520343002,208.6,237.07735814632366,145.46499999999997,240.26163108921727,145.46499999999997C243.3431855500821,145.46499999999997,246.4247400109469,169.4733765203596,249.5062944718117,177.55C252.69056741470536,185.8958442622951,255.874840357599,189.62499999999997,259.05911330049264,194.2C262.2433862433863,198.77499999999998,265.42765918627987,205,268.6119321291735,205C271.69348659003833,205,274.7750410509031,204.20000000000002,277.8565955117679,202.60000000000002C281.04086845466156,200.94666666666672,284.22514139755515,196.0309812405031,287.4094143404488,193.3C290.4952487380648,190.65344425483505,293.58108313568084,186.4,296.66691753329684,186.4C299.8511904761905,186.4,303.03546341908407,195.39999999999998,306.2197363619777,195.39999999999998C309.40400930487135,195.39999999999998,312.588282247765,128.04999999999998,315.77255519065864,128.04999999999998C318.6486726874658,128.04999999999998,321.52479018427294,196.06,324.4009076810801,196.06C327.58090068722254,196.06,330.76089369336495,191.2,333.94088669950736,191.2C337.0224411603722,191.2,340.10399562123695,200.92000000000002,343.18555008210177,200.92000000000002C346.3698230249954,200.92000000000002,349.55409596788905,199.49,352.7383689107827,196.63C355.8199233716475,193.8622580645161,358.9014778325123,161.2,361.9830322933771,161.2C365.16730523627075,161.2,368.35157817916433,167.50000000000003,371.535851122058,168.10000000000002C374.7201240649516,168.70000000000002,377.90439700784526,168.4,381.0886699507389,169C384.1702244116037,169.5806451612903,387.2517788724685,179.62940243257538,390.3333333333333,182.8C393.51760627622696,186.0762841530055,396.7018792191206,188.05,399.88615216201424,188.05C402.97198655963024,188.05,406.0578209572463,181.97058130573606,409.1436553548623,173.98000000000002C412.32792829775593,165.73451804234736,415.5122012406495,138.70000000000002,418.69647418354316,138.70000000000002C421.8807471264368,138.70000000000002,425.0650200693304,181.34137931034485,428.24929301222403,190C431.22812899106003,198.1,434.206964969896,202.15,437.185800948732,202.15C440.3657939548744,202.15,443.54578696101686,196.58259113693325,446.72577996715927,190.60000000000002C449.8073344280241,184.80260347430428,452.8888888888889,167.2,455.97044334975374,167.2C459.1547162926473,167.2,462.33898923554096,182.86,465.52326217843455,182.86C468.6048166392994,182.86,471.6863711001642,161.53,474.767925561029,161.53C477.95219850392266,161.53,481.1364714468163,205,484.32074438970994,205C487.50501733260353,205,490.68929027549717,103,493.87356321839076,103C496.9551176792556,103,500.0366721401204,154.06,503.1182266009852,154.06C506.3024995438788,154.06,509.48677248677245,140.5,512.671045429666,140.5C515.7568798272821,140.5,518.8427142248981,169.6,521.9285486225142,169.6C525.1128215654078,169.6,528.2970945083015,85,531.4813674511951,85C534.6656403940887,85,537.8499133369824,154.3,541.0341862798759,154.3C543.9103037766831,154.3,546.7864212734902,138.22125077876433,549.6625387702974,127C552.8425317764398,114.59317064193168,556.0225247825822,82,559.2025177887247,82C562.2840722495895,82,565.3656267104543,110.5,568.4471811713191,110.5C571.6314541142127,110.5,574.8157270571064,86.65,578,62.80000000000001" style="fill: transparent; stroke: rgb(51, 51, 51); stroke-width: 2; opacity: 1;"></path></g></g></svg>