<svg xmlns="http://www.w3.org/2000/svg" width="640" height="324" role="img" aria-labelledby="victory-container-4-title victory-container-4-desc" viewBox="0 0 640 324" style="pointer-events: all; width: 100%; height: 100%;"><g role="presentation"><line x1="15" x2="578" y1="274" y2="274" role="presentation" shape-rendering="auto" vector-effect="non-scaling-stroke" style="stroke: rgb(226, 226, 226); fill: transparent; stroke-width: 1; stroke-linejoin: round;"></line><g role="presentation"><line x1="81.26626071884692" x2="81.26626071884692" y1="274" y2="34" role="presentation" shape-rendering="auto" vector-effect="non-scaling-stroke" style="stroke: transparent; fill: transparent; stroke-width: 1; stroke-linecap: round; stroke-linejoin: round; pointer-events: none;"></line><line x1="81.26626071884692" x2="81.26626071884692" y1="274" y2="278" role="presentation" shape-rendering="auto" vector-effect="non-scaling-stroke" style="stroke: transparent; fill: transparent; size: 4px; stroke-width: 1; stroke-linecap: round; stroke-linejoin: round;"></line><text dx="0" dy="11.969999999999999" x="81.26626071884692" y="286"><tspan x="81.26626071884692" dx="0" text-anchor="middle" style="fill: rgb(153, 153, 153); font-size: 14px; font-family: inherit; stroke: transparent; letter-spacing: normal; padding: 8px; stroke-width: 0;">2017</tspan></text></g><g role="presentation"><line x1="193.74299854041232" x2="193.74299854041232" y1="274" y2="34" role="presentation" shape-rendering="auto" vector-effect="non-scaling-stroke" style="stroke: transparent; fill: transparent; stroke-width: 1; stroke-linecap: round; stroke-linejoin: round; pointer-events: none;"></line><line x1="193.74299854041232" x2="193.74299854041232" y1="274" y2="278" role="presentation" shape-rendering="auto" vector-effect="non-scaling-stroke" style="stroke: transparent; fill: transparent; size: 4px; stroke-width: 1; stroke-linecap: round; stroke-linejoin: round;"></line><text dx="0" dy="11.969999999999999" x="193.74299854041232" y="286"><tspan x="193.74299854041232" dx="0" text-anchor="middle" style="fill: rgb(153, 153, 153); font-size: 14px; font-family: inherit; stroke: transparent; letter-spacing: normal; padding: 8px; stroke-width: 0;">2018</tspan></text></g><g role="presentation"><line x1="306.2197363619777" x2="306.2197363619777" y1="274" y2="34" role="presentation" shape-rendering="auto" vector-effect="non-scaling-stroke" style="stroke: transparent; fill: transparent; stroke-width: 1; stroke-linecap: round; stroke-linejoin: round; pointer-events: none;"></line><line x1="306.2197363619777" x2="306.2197363619777" y1="274" y2="278" role="presentation" shape-rendering="auto" vector-effect="non-scaling-stroke" style="stroke: transparent; fill: transparent; size: 4px; stroke-width: 1; stroke-linecap: round; stroke-linejoin: round;"></line><text dx="0" dy="11.969999999999999" x="306.2197363619777" y="286"><tspan x="306.2197363619777" dx="0" text-anchor="middle" style="fill: rgb(153, 153, 153); font-size: 14px; font-family: inherit; stroke: transparent; letter-spacing: normal; padding: 8px; stroke-width: 0;">2019</tspan></text></g><g role="presentation"><line x1="418.69647418354316" x2="418.69647418354316" y1="274" y2="34" role="presentation" shape-rendering="auto" vector-effect="non-scaling-stroke" style="stroke: transparent; fill: transparent; stroke-width: 1; stroke-linecap: round; stroke-linejoin: round; pointer-events: none;"></line><line x1="418.69647418354316" x2="418.69647418354316" y1="274" y2="278" role="presentation" shape-rendering="auto" vector-effect="non-scaling-stroke" style="stroke: transparent; fill: transparent; size: 4px; stroke-width: 1; stroke-linecap: round; stroke-linejoin: round;"></line><text dx="0" dy="11.969999999999999" x="418.69647418354316" y="286"><tspan x="418.69647418354316" dx="0" text-anchor="middle" style="fill: rgb(153, 153, 153); font-size: 14px; font-family: inherit; stroke: transparent; letter-spacing: normal; padding: 8px; stroke-width: 0;">2020</tspan></text></g><g role="presentation"><line x1="531.4813674511951" x2="531.4813674511951" y1="274" y2="34" role="presentation" shape-rendering="auto" vector-effect="non-scaling-stroke" style="stroke: transparent; fill: transparent; stroke-width: 1; stroke-linecap: round; stroke-linejoin: round; pointer-events: none;"></line><line x1="531.4813674511951" x2="531.4813674511951" y1="274" y2="278" role="presentation" shape-rendering="auto" vector-effect="non-scaling-stroke" style="stroke: transparent; fill: transparent; size: 4px; stroke-width: 1; stroke-linecap: round; stroke-linejoin: round;"></line><text dx="0" dy="11.969999999999999" x="531.4813674511951" y="286"><tspan x="531.4813674511951" dx="0" text-anchor="middle" style="fill: rgb(153, 153, 153); font-size: 14px; font-family: inherit; stroke: transparent; letter-spacing: normal; padding: 8px; stroke-width: 0;">2021</tspan></text></g></g><g role="presentation"><line x1="578" x2="578" y1="34" y2="274" role="presentation" shape-rendering="auto" vector-effect="non-scaling-stroke" style="stroke: transparent; fill: transparent; stroke-width: 1; stroke-linejoin: round;"></line><g role="presentation"><line x1="578" x2="15" y1="253.33058203234003" y2="253.33058203234003" role="presentation" shape-rendering="auto" vector-effect="non-scaling-stroke" style="stroke: rgb(226, 226, 226); fill: transparent; stroke-width: 1; stroke-linecap: round; stroke-linejoin: round; pointer-events: none;"></line><line x1="578" x2="582" y1="253.33058203234003" y2="253.33058203234003" role="presentation" shape-rendering="auto" vector-effect="non-scaling-stroke" style="stroke: transparent; fill: transparent; size: 4px; stroke-width: 1; stroke-linecap: round; stroke-linejoin: round;"></line><text dx="0" dy="4.97" x="590" y="253.33058203234003"><tspan x="590" dx="0" text-anchor="start" style="fill: rgb(153, 153, 153); font-size: 14px; font-family: inherit; stroke: transparent; letter-spacing: normal; padding: 8px; stroke-width: 0;">$200K</tspan></text></g><g role="presentation"><line x1="578" x2="15" y1="218.08259777643966" y2="218.08259777643966" role="presentation" shape-rendering="auto" vector-effect="non-scaling-stroke" style="stroke: rgb(226, 226, 226); fill: transparent; stroke-width: 1; stroke-linecap: round; stroke-linejoin: round; pointer-events: none;"></line><line x1="578" x2="582" y1="218.08259777643966" y2="218.08259777643966" role="presentation" shape-rendering="auto" vector-effect="non-scaling-stroke" style="stroke: transparent; fill: transparent; size: 4px; stroke-width: 1; stroke-linecap: round; stroke-linejoin: round;"></line><text dx="0" dy="4.97" x="590" y="218.08259777643966"><tspan x="590" dx="0" text-anchor="start" style="fill: rgb(153, 153, 153); font-size: 14px; font-family: inherit; stroke: transparent; letter-spacing: normal; padding: 8px; stroke-width: 0;">$220K</tspan></text></g><g role="presentation"><line x1="578" x2="15" y1="182.8346135205393" y2="182.8346135205393" role="presentation" shape-rendering="auto" vector-effect="non-scaling-stroke" style="stroke: rgb(226, 226, 226); fill: transparent; stroke-width: 1; stroke-linecap: round; stroke-linejoin: round; pointer-events: none;"></line><line x1="578" x2="582" y1="182.8346135205393" y2="182.8346135205393" role="presentation" shape-rendering="auto" vector-effect="non-scaling-stroke" style="stroke: transparent; fill: transparent; size: 4px; stroke-width: 1; stroke-linecap: round; stroke-linejoin: round;"></line><text dx="0" dy="4.97" x="590" y="182.8346135205393"><tspan x="590" dx="0" text-anchor="start" style="fill: rgb(153, 153, 153); font-size: 14px; font-family: inherit; stroke: transparent; letter-spacing: normal; padding: 8px; stroke-width: 0;">$240K</tspan></text></g><g role="presentation"><line x1="578" x2="15" y1="147.58662926463893" y2="147.58662926463893" role="presentation" shape-rendering="auto" vector-effect="non-scaling-stroke" style="stroke: rgb(226, 226, 226); fill: transparent; stroke-width: 1; stroke-linecap: round; stroke-linejoin: round; pointer-events: none;"></line><line x1="578" x2="582" y1="147.58662926463893" y2="147.58662926463893" role="presentation" shape-rendering="auto" vector-effect="non-scaling-stroke" style="stroke: transparent; fill: transparent; size: 4px; stroke-width: 1; stroke-linecap: round; stroke-linejoin: round;"></line><text dx="0" dy="4.97" x="590" y="147.58662926463893"><tspan x="590" dx="0" text-anchor="start" style="fill: rgb(153, 153, 153); font-size: 14px; font-family: inherit; stroke: transparent; letter-spacing: normal; padding: 8px; stroke-width: 0;">$260K</tspan></text></g><g role="presentation"><line x1="578" x2="15" y1="112.33864500873858" y2="112.33864500873858" role="presentation" shape-rendering="auto" vector-effect="non-scaling-stroke" style="stroke: rgb(226, 226, 226); fill: transparent; stroke-width: 1; stroke-linecap: round; stroke-linejoin: round; pointer-events: none;"></line><line x1="578" x2="582" y1="112.33864500873858" y2="112.33864500873858" role="presentation" shape-rendering="auto" vector-effect="non-scaling-stroke" style="stroke: transparent; fill: transparent; size: 4px; stroke-width: 1; stroke-linecap: round; stroke-linejoin: round;"></line><text dx="0" dy="4.97" x="590" y="112.33864500873858"><tspan x="590" dx="0" text-anchor="start" style="fill: rgb(153, 153, 153); font-size: 14px; font-family: inherit; stroke: transparent; letter-spacing: normal; padding: 8px; stroke-width: 0;">$280K</tspan></text></g><g role="presentation"><line x1="578" x2="15" y1="77.09066075283818" y2="77.09066075283818" role="presentation" shape-rendering="auto" vector-effect="non-scaling-stroke" style="stroke: rgb(226, 226, 226); fill: transparent; stroke-width: 1; stroke-linecap: round; stroke-linejoin: round; pointer-events: none;"></line><line x1="578" x2="582" y1="77.09066075283818" y2="77.09066075283818" role="presentation" shape-rendering="auto" vector-effect="non-scaling-stroke" style="stroke: transparent; fill: transparent; size: 4px; stroke-width: 1; stroke-linecap: round; stroke-linejoin: round;"></line><text dx="0" dy="4.97" x="590" y="77.09066075283818"><tspan x="590" dx="0" text-anchor="start" style="fill: rgb(153, 153, 153); font-size: 14px; font-family: inherit; stroke: transparent; letter-spacing: normal; padding: 8px; stroke-width: 0;">$300K</tspan></text></g><g role="presentation"><line x1="578" x2="15" y1="41.84267649693783" y2="41.84267649693783" role="presentation" shape-rendering="auto" vector-effect="non-scaling-stroke" style="stroke: rgb(226, 226, 226); fill: transparent; stroke-width: 1; stroke-linecap: round; stroke-linejoin: round; pointer-events: none;"></line><line x1="578" x2="582" y1="41.84267649693783" y2="41.84267649693783" role="presentation" shape-rendering="auto" vector-effect="non-scaling-stroke" style="stroke: transparent; fill: transparent; size: 4px; stroke-width: 1; stroke-linecap: round; stroke-linejoin: round;"></line><text dx="0" dy="4.97" x="590" y="41.84267649693783"><tspan x="590" dx="0" text-anchor="start" style="fill: rgb(153, 153, 153); font-size: 14px; font-family: inherit; stroke: transparent; letter-spacing: normal; padding: 8px; stroke-width: 0;">$320K</tspan></text></g></g><g style="height: 100%; width: 100%; user-select: none;"><defs><clipPath id="victory-clip-5"><rect x="15" y="34" width="563" height="240"></rect></clipPath></defs><g clip-path="url(#victory-clip-5)"><path shape-rendering="auto" role="presentation" d="M15.30815544608648,90.57918312796488C18.389709906951285,125.74036922263508,21.471264367816094,160.90155531730528,24.5528188286809,160.90155531730528C27.73709177157453,160.90155531730528,30.921364714468165,142.52149392706605,34.1056376573618,142.52149392706605C37.28991060025543,142.52149392706605,40.47418354314906,196.05260761650192,43.658456486042695,196.05260761650192C46.7400109469075,196.05260761650192,49.821565407772304,165.2106213925891,52.90311986863711,165.2106213925891C56.08739281153075,165.2106213925891,59.271665754424376,196.93380722289942,62.45593869731801,196.93380722289942C65.54177309493402,196.93380722289942,68.62760749255003,184.8085006388697,71.71344189016602,184.8085006388697C74.89771483305965,184.8085006388697,78.0819877759533,273.6069849755467,81.26626071884692,273.6069849755467C84.45053366174056,273.6069849755467,87.63480660463419,176.76314823246045,90.81907954752783,176.76314823246045C93.69519704433499,176.76314823246045,96.57131454114213,202.1166887992423,99.44743203794928,210.1509201192557C102.62742504409171,219.0340062364729,105.80741805023415,225.44942648592283,108.98741105637657,225.44942648592283C112.06896551724138,225.44942648592283,115.15051997810617,222.4885958084272,118.23207443897098,222.4885958084272C121.41634738186463,222.4885958084272,124.60062032475825,227.77579344681226,127.7848932676519,227.77579344681226C130.8664477285167,227.77579344681226,133.9480021893815,218.08259777643966,137.02955665024632,218.08259777643966C140.21382959313993,218.08259777643966,143.39810253603358,247.4265446694767,146.5823754789272,247.4265446694767C149.76664842182083,247.4265446694767,152.95092136471445,213.7931139146313,156.1351943076081,209.27060171246455C159.2167487684729,204.89397700069026,162.2983032293377,205.43243609386442,165.37985769020253,202.7056646448031C168.56413063309614,199.88800081410645,171.74840357598978,192.5278091909119,174.9326765188834,192.5278091909119C178.0185109164994,192.5278091909119,181.10434531411542,206.61130654751602,184.19017971173142,219.8449969892347C187.37445265462506,233.5008439915075,190.55872559751867,273.9991188003936,193.74299854041232,273.9991188003936C196.92727148330596,273.9991188003936,200.1115444261996,226.89459384041476,203.29581736909324,226.89459384041476C206.1719348659004,226.89459384041476,209.04805236270755,267.4297757347002,211.9241698595147,267.4297757347002C215.10416286565712,267.4297757347002,218.28415587179956,221.09630043031913,221.46414887794197,221.09630043031913C224.5457033388068,221.09630043031913,227.62725779967158,250.23217051307134,230.7088122605364,254.21178163873753C233.89308520343002,258.3240464685926,237.07735814632366,260.3801788835201,240.26163108921727,260.3801788835201C243.3431855500821,260.3801788835201,246.4247400109469,237.2393087036464,249.5062944718117,231.3005918724023C252.69056741470536,225.16391781345004,255.874840357599,222.0955807839739,259.05911330049264,222.0955807839739C262.2433862433863,222.0955807839739,265.42765918627987,243.8664982596308,268.6119321291735,243.8664982596308C271.69348659003833,243.8664982596308,274.7750410509031,222.92919561162597,277.8565955117679,222.92919561162597C281.04086845466156,222.92919561162597,284.22514139755515,223.02319023630838,287.4094143404488,223.21117948567317C290.4952487380648,223.39335723942588,293.58108313568084,255.21634919003068,296.66691753329684,255.21634919003068C299.8511904761905,255.21634919003068,303.03546341908407,224.69159482442097,306.2197363619777,224.69159482442097C309.40400930487135,224.69159482442097,312.588282247765,241.4916653203895,315.77255519065864,241.4916653203895C318.6486726874658,241.4916653203895,321.52479018427294,224.69159482442097,324.4009076810801,224.69159482442097C327.58090068722254,224.69159482442097,330.76089369336495,244.51858596836493,333.94088669950736,244.51858596836493C337.0224411603722,244.51858596836493,340.10399562123695,183.20414883935118,343.18555008210177,178.42861548855177C346.3698230249954,173.4938976927257,349.55409596788905,171.02653879481267,352.7383689107827,171.02653879481267C355.8199233716475,171.02653879481267,358.9014778325123,197.35158872499125,361.9830322933771,206.62700289327205C365.16730523627075,216.21159753382886,368.35157817916433,227.07964575775821,371.535851122058,227.07964575775821C374.7201240649516,227.07964575775821,377.90439700784526,173.1414178501667,381.0886699507389,173.1414178501667C384.1702244116037,173.1414178501667,387.2517788724685,222.4885958084272,390.3333333333333,222.4885958084272C393.51760627622696,222.4885958084272,396.7018792191206,219.25753058496966,399.88615216201424,212.79540013805462C402.97198655963024,206.53303985280496,406.0578209572463,177.54741588215424,409.1436553548623,177.54741588215424C412.32792829775593,177.54741588215424,415.5122012406495,253.41870199297978,418.69647418354316,253.41870199297978C421.8807471264368,253.41870199297978,425.0650200693304,156.46030930106184,428.24929301222403,156.46030930106184C431.22812899106003,156.46030930106184,434.206964969896,178.97055324648622,437.185800948732,178.97055324648622C440.3657939548744,178.97055324648622,443.54578696101686,152.08074725726624,446.72577996715927,152.08074725726624C449.8073344280241,152.08074725726624,452.8888888888889,202.22100486128448,455.97044334975374,202.22100486128448C459.1547162926473,202.22100486128448,462.33898923554096,144.0618308390489,465.52326217843455,144.0618308390489C468.6048166392994,144.0618308390489,471.6863711001642,171.57288255077913,474.767925561029,171.57288255077913C477.95219850392266,171.57288255077913,481.1364714468163,137.59970039213385,484.32074438970994,135.2498347750738C487.50501733260353,132.89996915801376,490.68929027549717,131.72503634948376,493.87356321839076,131.72503634948376C496.9551176792556,131.72503634948376,500.0366721401204,161.68582296699907,503.1182266009852,161.68582296699907C506.3024995438788,161.68582296699907,509.48677248677245,156.42506131680597,512.671045429666,156.42506131680597C515.7568798272821,156.42506131680597,518.8427142248981,165.2106213925891,521.9285486225142,165.2106213925891C525.1128215654078,165.2106213925891,528.2970945083015,163.00762237659532,531.4813674511951,158.60162434460779C534.6656403940887,154.19562631262025,537.8499133369824,131.01567066633376,541.0341862798759,131.01567066633376C543.9103037766831,131.01567066633376,546.7864212734902,149.34902847743393,549.6625387702974,149.34902847743393C552.8425317764398,149.34902847743393,556.0225247825822,142.88689803051886,559.2025177887247,129.96263713668873C562.2840722495895,117.43845430552082,565.3656267104543,34,568.4471811713191,34C571.6314541142127,34,574.8157270571064,67.88432786500022,578,101.76865573000043" style="fill: transparent; stroke: rgb(51, 51, 51); stroke-width: 2; opacity: 1;"></path></g></g></svg>