<svg xmlns="http://www.w3.org/2000/svg" width="640" height="324" role="img" aria-labelledby="victory-container-4-title victory-container-4-desc" viewBox="0 0 640 324" style="pointer-events: all; width: 100%; height: 100%;"><g role="presentation"><line x1="15" x2="578" y1="274" y2="274" role="presentation" shape-rendering="auto" vector-effect="non-scaling-stroke" style="stroke: rgb(226, 226, 226); fill: transparent; stroke-width: 1; stroke-linejoin: round;"></line><g role="presentation"><line x1="81.26626071884692" x2="81.26626071884692" y1="274" y2="34" role="presentation" shape-rendering="auto" vector-effect="non-scaling-stroke" style="stroke: transparent; fill: transparent; stroke-width: 1; stroke-linecap: round; stroke-linejoin: round; pointer-events: none;"></line><line x1="81.26626071884692" x2="81.26626071884692" y1="274" y2="278" role="presentation" shape-rendering="auto" vector-effect="non-scaling-stroke" style="stroke: transparent; fill: transparent; size: 4px; stroke-width: 1; stroke-linecap: round; stroke-linejoin: round;"></line><text dx="0" dy="11.969999999999999" x="81.26626071884692" y="286"><tspan x="81.26626071884692" dx="0" text-anchor="middle" style="fill: rgb(153, 153, 153); font-size: 14px; font-family: inherit; stroke: transparent; letter-spacing: normal; padding: 8px; stroke-width: 0;">2017</tspan></text></g><g role="presentation"><line x1="193.74299854041232" x2="193.74299854041232" y1="274" y2="34" role="presentation" shape-rendering="auto" vector-effect="non-scaling-stroke" style="stroke: transparent; fill: transparent; stroke-width: 1; stroke-linecap: round; stroke-linejoin: round; pointer-events: none;"></line><line x1="193.74299854041232" x2="193.74299854041232" y1="274" y2="278" role="presentation" shape-rendering="auto" vector-effect="non-scaling-stroke" style="stroke: transparent; fill: transparent; size: 4px; stroke-width: 1; stroke-linecap: round; stroke-linejoin: round;"></line><text dx="0" dy="11.969999999999999" x="193.74299854041232" y="286"><tspan x="193.74299854041232" dx="0" text-anchor="middle" style="fill: rgb(153, 153, 153); font-size: 14px; font-family: inherit; stroke: transparent; letter-spacing: normal; padding: 8px; stroke-width: 0;">2018</tspan></text></g><g role="presentation"><line x1="306.2197363619777" x2="306.2197363619777" y1="274" y2="34" role="presentation" shape-rendering="auto" vector-effect="non-scaling-stroke" style="stroke: transparent; fill: transparent; stroke-width: 1; stroke-linecap: round; stroke-linejoin: round; pointer-events: none;"></line><line x1="306.2197363619777" x2="306.2197363619777" y1="274" y2="278" role="presentation" shape-rendering="auto" vector-effect="non-scaling-stroke" style="stroke: transparent; fill: transparent; size: 4px; stroke-width: 1; stroke-linecap: round; stroke-linejoin: round;"></line><text dx="0" dy="11.969999999999999" x="306.2197363619777" y="286"><tspan x="306.2197363619777" dx="0" text-anchor="middle" style="fill: rgb(153, 153, 153); font-size: 14px; font-family: inherit; stroke: transparent; letter-spacing: normal; padding: 8px; stroke-width: 0;">2019</tspan></text></g><g role="presentation"><line x1="418.69647418354316" x2="418.69647418354316" y1="274" y2="34" role="presentation" shape-rendering="auto" vector-effect="non-scaling-stroke" style="stroke: transparent; fill: transparent; stroke-width: 1; stroke-linecap: round; stroke-linejoin: round; pointer-events: none;"></line><line x1="418.69647418354316" x2="418.69647418354316" y1="274" y2="278" role="presentation" shape-rendering="auto" vector-effect="non-scaling-stroke" style="stroke: transparent; fill: transparent; size: 4px; stroke-width: 1; stroke-linecap: round; stroke-linejoin: round;"></line><text dx="0" dy="11.969999999999999" x="418.69647418354316" y="286"><tspan x="418.69647418354316" dx="0" text-anchor="middle" style="fill: rgb(153, 153, 153); font-size: 14px; font-family: inherit; stroke: transparent; letter-spacing: normal; padding: 8px; stroke-width: 0;">2020</tspan></text></g><g role="presentation"><line x1="531.4813674511951" x2="531.4813674511951" y1="274" y2="34" role="presentation" shape-rendering="auto" vector-effect="non-scaling-stroke" style="stroke: transparent; fill: transparent; stroke-width: 1; stroke-linecap: round; stroke-linejoin: round; pointer-events: none;"></line><line x1="531.4813674511951" x2="531.4813674511951" y1="274" y2="278" role="presentation" shape-rendering="auto" vector-effect="non-scaling-stroke" style="stroke: transparent; fill: transparent; size: 4px; stroke-width: 1; stroke-linecap: round; stroke-linejoin: round;"></line><text dx="0" dy="11.969999999999999" x="531.4813674511951" y="286"><tspan x="531.4813674511951" dx="0" text-anchor="middle" style="fill: rgb(153, 153, 153); font-size: 14px; font-family: inherit; stroke: transparent; letter-spacing: normal; padding: 8px; stroke-width: 0;">2021</tspan></text></g></g><g role="presentation"><line x1="578" x2="578" y1="34" y2="274" role="presentation" shape-rendering="auto" vector-effect="non-scaling-stroke" style="stroke: transparent; fill: transparent; stroke-width: 1; stroke-linejoin: round;"></line><g role="presentation"><line x1="578" x2="15" y1="274" y2="274" role="presentation" shape-rendering="auto" vector-effect="non-scaling-stroke" style="stroke: rgb(226, 226, 226); fill: transparent; stroke-width: 1; stroke-linecap: round; stroke-linejoin: round; pointer-events: none;"></line><line x1="578" x2="582" y1="274" y2="274" role="presentation" shape-rendering="auto" vector-effect="non-scaling-stroke" style="stroke: transparent; fill: transparent; size: 4px; stroke-width: 1; stroke-linecap: round; stroke-linejoin: round;"></line><text dx="0" dy="4.97" x="590" y="274"><tspan x="590" dx="0" text-anchor="start" style="fill: rgb(153, 153, 153); font-size: 14px; font-family: inherit; stroke: transparent; letter-spacing: normal; padding: 8px; stroke-width: 0;">$100K</tspan></text></g><g role="presentation"><line x1="578" x2="15" y1="214" y2="214" role="presentation" shape-rendering="auto" vector-effect="non-scaling-stroke" style="stroke: rgb(226, 226, 226); fill: transparent; stroke-width: 1; stroke-linecap: round; stroke-linejoin: round; pointer-events: none;"></line><line x1="578" x2="582" y1="214" y2="214" role="presentation" shape-rendering="auto" vector-effect="non-scaling-stroke" style="stroke: transparent; fill: transparent; size: 4px; stroke-width: 1; stroke-linecap: round; stroke-linejoin: round;"></line><text dx="0" dy="4.97" x="590" y="214"><tspan x="590" dx="0" text-anchor="start" style="fill: rgb(153, 153, 153); font-size: 14px; font-family: inherit; stroke: transparent; letter-spacing: normal; padding: 8px; stroke-width: 0;">$200K</tspan></text></g><g role="presentation"><line x1="578" x2="15" y1="154" y2="154" role="presentation" shape-rendering="auto" vector-effect="non-scaling-stroke" style="stroke: rgb(226, 226, 226); fill: transparent; stroke-width: 1; stroke-linecap: round; stroke-linejoin: round; pointer-events: none;"></line><line x1="578" x2="582" y1="154" y2="154" role="presentation" shape-rendering="auto" vector-effect="non-scaling-stroke" style="stroke: transparent; fill: transparent; size: 4px; stroke-width: 1; stroke-linecap: round; stroke-linejoin: round;"></line><text dx="0" dy="4.97" x="590" y="154"><tspan x="590" dx="0" text-anchor="start" style="fill: rgb(153, 153, 153); font-size: 14px; font-family: inherit; stroke: transparent; letter-spacing: normal; padding: 8px; stroke-width: 0;">$300K</tspan></text></g><g role="presentation"><line x1="578" x2="15" y1="94" y2="94" role="presentation" shape-rendering="auto" vector-effect="non-scaling-stroke" style="stroke: rgb(226, 226, 226); fill: transparent; stroke-width: 1; stroke-linecap: round; stroke-linejoin: round; pointer-events: none;"></line><line x1="578" x2="582" y1="94" y2="94" role="presentation" shape-rendering="auto" vector-effect="non-scaling-stroke" style="stroke: transparent; fill: transparent; size: 4px; stroke-width: 1; stroke-linecap: round; stroke-linejoin: round;"></line><text dx="0" dy="4.97" x="590" y="94"><tspan x="590" dx="0" text-anchor="start" style="fill: rgb(153, 153, 153); font-size: 14px; font-family: inherit; stroke: transparent; letter-spacing: normal; padding: 8px; stroke-width: 0;">$400K</tspan></text></g><g role="presentation"><line x1="578" x2="15" y1="34" y2="34" role="presentation" shape-rendering="auto" vector-effect="non-scaling-stroke" style="stroke: rgb(226, 226, 226); fill: transparent; stroke-width: 1; stroke-linecap: round; stroke-linejoin: round; pointer-events: none;"></line><line x1="578" x2="582" y1="34" y2="34" role="presentation" shape-rendering="auto" vector-effect="non-scaling-stroke" style="stroke: transparent; fill: transparent; size: 4px; stroke-width: 1; stroke-linecap: round; stroke-linejoin: round;"></line><text dx="0" dy="4.97" x="590" y="34"><tspan x="590" dx="0" text-anchor="start" style="fill: rgb(153, 153, 153); font-size: 14px; font-family: inherit; stroke: transparent; letter-spacing: normal; padding: 8px; stroke-width: 0;">$500K</tspan></text></g></g><g style="height: 100%; width: 100%; user-select: none;"><defs><clipPath id="victory-clip-5"><rect x="15" y="34" width="563" height="240"></rect></clipPath></defs><g clip-path="url(#victory-clip-5)"><path shape-rendering="auto" role="presentation" d="M24.5528188286809,229.6C27.73709177157453,206.15,30.921364714468165,182.70000000000002,34.1056376573618,160.60000000000002C37.28991060025543,138.50000000000003,40.47418354314906,97,43.658456486042695,97C46.7400109469075,97,49.821565407772304,249.8704,52.90311986863711,249.8704C56.08739281153075,249.8704,59.271665754424376,153.7,62.45593869731801,153.7C65.54177309493402,153.7,68.62760749255003,223.9,71.71344189016602,223.9C74.89771483305965,223.9,78.0819877759533,131.20000000000002,81.26626071884692,131.20000000000002C84.45053366174056,131.20000000000002,87.63480660463419,235.15,90.81907954752783,235.15C93.69519704433499,235.15,96.57131454114213,165.30515477792733,99.44743203794928,151.63C102.62742504409171,136.51,105.80741805023415,128.95,108.98741105637657,128.95C112.06896551724138,128.95,115.15051997810617,221.125,118.23207443897098,221.125C121.41634738186463,221.125,124.60062032475825,130.55266666666668,127.7848932676519,116.83000000000001C130.8664477285167,103.55000000000003,133.9480021893815,96.91000000000003,137.02955665024632,96.91000000000003C140.21382959313993,96.91000000000003,143.39810253603358,143.78500000000003,146.5823754789272,160.60000000000002C149.76664842182083,177.41500000000005,152.95092136471445,197.8,156.1351943076081,197.8C159.2167487684729,197.8,162.2983032293377,163.50322580645167,165.37985769020253,154.6C168.56413063309614,145.39999999999998,171.74840357598978,140.79999999999998,174.9326765188834,140.79999999999998C178.0185109164994,140.79999999999998,181.10434531411542,179.2,184.19017971173142,179.2C187.37445265462506,179.2,190.55872559751867,166,193.74299854041232,166C196.92727148330596,166,200.1115444261996,239.8,203.29581736909324,239.8C206.1719348659004,239.8,209.04805236270755,195.68929647261368,211.9241698595147,178C215.10416286565712,158.44174512030966,218.28415587179956,130,221.46414887794197,130C224.5457033388068,130,227.62725779967158,169,230.7088122605364,169C233.89308520343002,169,237.07735814632366,168.10000000000002,240.26163108921727,168.10000000000002C243.3431855500821,168.10000000000002,246.4247400109469,169.10000000000002,249.5062944718117,171.1C252.69056741470536,173.16666666666663,255.874840357599,179.95000000000002,259.05911330049264,183.10000000000002C262.2433862433863,186.25,265.42765918627987,185.8493169398907,268.6119321291735,190C271.69348659003833,194.01679005817027,274.7750410509031,207.25,277.8565955117679,207.25C281.04086845466156,207.25,284.22514139755515,196,287.4094143404488,196C290.4952487380648,196,293.58108313568084,206.675869229146,296.66691753329684,210.83499999999998C299.8511904761905,215.12680761930005,303.03546341908407,216.1725,306.2197363619777,221.2C309.40400930487135,226.2275,312.588282247765,241,315.77255519065864,241C318.6486726874658,241,321.52479018427294,176.8,324.4009076810801,176.8C327.58090068722254,176.8,330.76089369336495,193.68109971899446,333.94088669950736,199C337.0224411603722,204.15425060878064,340.10399562123695,204.68926493918562,343.18555008210177,208.6C346.3698230249954,212.64109289617485,349.55409596788905,223,352.7383689107827,223C355.8199233716475,223,358.9014778325123,212.5,361.9830322933771,212.5C365.16730523627075,212.5,368.35157817916433,235.66,371.535851122058,235.66C374.7201240649516,235.66,377.90439700784526,228.19721311475413,381.0886699507389,222.4C384.1702244116037,216.7897937599154,387.2517788724685,211.4636277102062,390.3333333333333,201.7C393.51760627622696,191.61091803278686,396.7018792191206,162.25959999999998,399.88615216201424,162.25959999999998C402.97198655963024,162.25959999999998,406.0578209572463,245.2,409.1436553548623,245.2C412.32792829775593,245.2,415.5122012406495,184,418.69647418354316,184C421.8807471264368,184,425.0650200693304,196,428.24929301222403,196C431.22812899106003,196,434.206964969896,76,437.185800948732,76C440.3657939548744,76,443.54578696101686,205.60000000000002,446.72577996715927,205.60000000000002C449.8073344280241,205.60000000000002,452.8888888888889,150.97652564780543,455.97044334975374,133.03C459.1547162926473,114.48525683060132,462.33898923554096,97.3957,465.52326217843455,97.3957C468.6048166392994,97.3957,471.6863711001642,108.57651290322576,474.767925561029,124.60749999999999C477.95219850392266,141.1728533333333,481.1364714468163,187.59999999999988,484.32074438970994,196.6C487.50501733260353,205.6,490.68929027549717,210.1,493.87356321839076,210.1C496.9551176792556,210.1,500.0366721401204,182.03738762559504,503.1182266009852,166C506.3024995438788,149.42803278688535,509.48677248677245,112,512.671045429666,112C515.7568798272821,112,518.8427142248981,161.8,521.9285486225142,161.8C525.1128215654078,161.8,528.2970945083015,151.93,531.4813674511951,151.93C534.6656403940887,151.93,537.8499133369824,159.55,541.0341862798759,159.55C543.9103037766831,159.55,546.7864212734902,151.7785699746515,549.6625387702974,145.6C552.8425317764398,138.76863468576477,556.0225247825822,122.69902777777774,559.2025177887247,119.5C562.2840722495895,116.40000000000002,565.3656267104543,117.95,568.4471811713191,114.85000000000002C571.6314541142127,111.64666666666673,574.8157270571064,97.27333333333337,578,82.9" style="fill: transparent; stroke: rgb(51, 51, 51); stroke-width: 2; opacity: 1;"></path></g></g></svg>