<svg xmlns="http://www.w3.org/2000/svg" width="640" height="324" role="img" aria-labelledby="victory-container-4-title victory-container-4-desc" viewBox="0 0 640 324" style="pointer-events: all; width: 100%; height: 100%;"><g role="presentation"><line x1="15" x2="578" y1="274" y2="274" role="presentation" shape-rendering="auto" vector-effect="non-scaling-stroke" style="stroke: rgb(226, 226, 226); fill: transparent; stroke-width: 1; stroke-linejoin: round;"></line><g role="presentation"><line x1="81.26626071884692" x2="81.26626071884692" y1="274" y2="34" role="presentation" shape-rendering="auto" vector-effect="non-scaling-stroke" style="stroke: transparent; fill: transparent; stroke-width: 1; stroke-linecap: round; stroke-linejoin: round; pointer-events: none;"></line><line x1="81.26626071884692" x2="81.26626071884692" y1="274" y2="278" role="presentation" shape-rendering="auto" vector-effect="non-scaling-stroke" style="stroke: transparent; fill: transparent; size: 4px; stroke-width: 1; stroke-linecap: round; stroke-linejoin: round;"></line><text dx="0" dy="11.969999999999999" x="81.26626071884692" y="286"><tspan x="81.26626071884692" dx="0" text-anchor="middle" style="fill: rgb(153, 153, 153); font-size: 14px; font-family: inherit; stroke: transparent; letter-spacing: normal; padding: 8px; stroke-width: 0;">2017</tspan></text></g><g role="presentation"><line x1="193.74299854041232" x2="193.74299854041232" y1="274" y2="34" role="presentation" shape-rendering="auto" vector-effect="non-scaling-stroke" style="stroke: transparent; fill: transparent; stroke-width: 1; stroke-linecap: round; stroke-linejoin: round; pointer-events: none;"></line><line x1="193.74299854041232" x2="193.74299854041232" y1="274" y2="278" role="presentation" shape-rendering="auto" vector-effect="non-scaling-stroke" style="stroke: transparent; fill: transparent; size: 4px; stroke-width: 1; stroke-linecap: round; stroke-linejoin: round;"></line><text dx="0" dy="11.969999999999999" x="193.74299854041232" y="286"><tspan x="193.74299854041232" dx="0" text-anchor="middle" style="fill: rgb(153, 153, 153); font-size: 14px; font-family: inherit; stroke: transparent; letter-spacing: normal; padding: 8px; stroke-width: 0;">2018</tspan></text></g><g role="presentation"><line x1="306.2197363619777" x2="306.2197363619777" y1="274" y2="34" role="presentation" shape-rendering="auto" vector-effect="non-scaling-stroke" style="stroke: transparent; fill: transparent; stroke-width: 1; stroke-linecap: round; stroke-linejoin: round; pointer-events: none;"></line><line x1="306.2197363619777" x2="306.2197363619777" y1="274" y2="278" role="presentation" shape-rendering="auto" vector-effect="non-scaling-stroke" style="stroke: transparent; fill: transparent; size: 4px; stroke-width: 1; stroke-linecap: round; stroke-linejoin: round;"></line><text dx="0" dy="11.969999999999999" x="306.2197363619777" y="286"><tspan x="306.2197363619777" dx="0" text-anchor="middle" style="fill: rgb(153, 153, 153); font-size: 14px; font-family: inherit; stroke: transparent; letter-spacing: normal; padding: 8px; stroke-width: 0;">2019</tspan></text></g><g role="presentation"><line x1="418.69647418354316" x2="418.69647418354316" y1="274" y2="34" role="presentation" shape-rendering="auto" vector-effect="non-scaling-stroke" style="stroke: transparent; fill: transparent; stroke-width: 1; stroke-linecap: round; stroke-linejoin: round; pointer-events: none;"></line><line x1="418.69647418354316" x2="418.69647418354316" y1="274" y2="278" role="presentation" shape-rendering="auto" vector-effect="non-scaling-stroke" style="stroke: transparent; fill: transparent; size: 4px; stroke-width: 1; stroke-linecap: round; stroke-linejoin: round;"></line><text dx="0" dy="11.969999999999999" x="418.69647418354316" y="286"><tspan x="418.69647418354316" dx="0" text-anchor="middle" style="fill: rgb(153, 153, 153); font-size: 14px; font-family: inherit; stroke: transparent; letter-spacing: normal; padding: 8px; stroke-width: 0;">2020</tspan></text></g><g role="presentation"><line x1="531.4813674511951" x2="531.4813674511951" y1="274" y2="34" role="presentation" shape-rendering="auto" vector-effect="non-scaling-stroke" style="stroke: transparent; fill: transparent; stroke-width: 1; stroke-linecap: round; stroke-linejoin: round; pointer-events: none;"></line><line x1="531.4813674511951" x2="531.4813674511951" y1="274" y2="278" role="presentation" shape-rendering="auto" vector-effect="non-scaling-stroke" style="stroke: transparent; fill: transparent; size: 4px; stroke-width: 1; stroke-linecap: round; stroke-linejoin: round;"></line><text dx="0" dy="11.969999999999999" x="531.4813674511951" y="286"><tspan x="531.4813674511951" dx="0" text-anchor="middle" style="fill: rgb(153, 153, 153); font-size: 14px; font-family: inherit; stroke: transparent; letter-spacing: normal; padding: 8px; stroke-width: 0;">2021</tspan></text></g></g><g role="presentation"><line x1="578" x2="578" y1="34" y2="274" role="presentation" shape-rendering="auto" vector-effect="non-scaling-stroke" style="stroke: transparent; fill: transparent; stroke-width: 1; stroke-linejoin: round;"></line><g role="presentation"><line x1="578" x2="15" y1="258" y2="258" role="presentation" shape-rendering="auto" vector-effect="non-scaling-stroke" style="stroke: rgb(226, 226, 226); fill: transparent; stroke-width: 1; stroke-linecap: round; stroke-linejoin: round; pointer-events: none;"></line><line x1="578" x2="582" y1="258" y2="258" role="presentation" shape-rendering="auto" vector-effect="non-scaling-stroke" style="stroke: transparent; fill: transparent; size: 4px; stroke-width: 1; stroke-linecap: round; stroke-linejoin: round;"></line><text dx="0" dy="4.97" x="590" y="258"><tspan x="590" dx="0" text-anchor="start" style="fill: rgb(153, 153, 153); font-size: 14px; font-family: inherit; stroke: transparent; letter-spacing: normal; padding: 8px; stroke-width: 0;">$100K</tspan></text></g><g role="presentation"><line x1="578" x2="15" y1="226" y2="226" role="presentation" shape-rendering="auto" vector-effect="non-scaling-stroke" style="stroke: rgb(226, 226, 226); fill: transparent; stroke-width: 1; stroke-linecap: round; stroke-linejoin: round; pointer-events: none;"></line><line x1="578" x2="582" y1="226" y2="226" role="presentation" shape-rendering="auto" vector-effect="non-scaling-stroke" style="stroke: transparent; fill: transparent; size: 4px; stroke-width: 1; stroke-linecap: round; stroke-linejoin: round;"></line><text dx="0" dy="4.97" x="590" y="226"><tspan x="590" dx="0" text-anchor="start" style="fill: rgb(153, 153, 153); font-size: 14px; font-family: inherit; stroke: transparent; letter-spacing: normal; padding: 8px; stroke-width: 0;">$120K</tspan></text></g><g role="presentation"><line x1="578" x2="15" y1="194" y2="194" role="presentation" shape-rendering="auto" vector-effect="non-scaling-stroke" style="stroke: rgb(226, 226, 226); fill: transparent; stroke-width: 1; stroke-linecap: round; stroke-linejoin: round; pointer-events: none;"></line><line x1="578" x2="582" y1="194" y2="194" role="presentation" shape-rendering="auto" vector-effect="non-scaling-stroke" style="stroke: transparent; fill: transparent; size: 4px; stroke-width: 1; stroke-linecap: round; stroke-linejoin: round;"></line><text dx="0" dy="4.97" x="590" y="194"><tspan x="590" dx="0" text-anchor="start" style="fill: rgb(153, 153, 153); font-size: 14px; font-family: inherit; stroke: transparent; letter-spacing: normal; padding: 8px; stroke-width: 0;">$140K</tspan></text></g><g role="presentation"><line x1="578" x2="15" y1="162" y2="162" role="presentation" shape-rendering="auto" vector-effect="non-scaling-stroke" style="stroke: rgb(226, 226, 226); fill: transparent; stroke-width: 1; stroke-linecap: round; stroke-linejoin: round; pointer-events: none;"></line><line x1="578" x2="582" y1="162" y2="162" role="presentation" shape-rendering="auto" vector-effect="non-scaling-stroke" style="stroke: transparent; fill: transparent; size: 4px; stroke-width: 1; stroke-linecap: round; stroke-linejoin: round;"></line><text dx="0" dy="4.97" x="590" y="162"><tspan x="590" dx="0" text-anchor="start" style="fill: rgb(153, 153, 153); font-size: 14px; font-family: inherit; stroke: transparent; letter-spacing: normal; padding: 8px; stroke-width: 0;">$160K</tspan></text></g><g role="presentation"><line x1="578" x2="15" y1="130" y2="130" role="presentation" shape-rendering="auto" vector-effect="non-scaling-stroke" style="stroke: rgb(226, 226, 226); fill: transparent; stroke-width: 1; stroke-linecap: round; stroke-linejoin: round; pointer-events: none;"></line><line x1="578" x2="582" y1="130" y2="130" role="presentation" shape-rendering="auto" vector-effect="non-scaling-stroke" style="stroke: transparent; fill: transparent; size: 4px; stroke-width: 1; stroke-linecap: round; stroke-linejoin: round;"></line><text dx="0" dy="4.97" x="590" y="130"><tspan x="590" dx="0" text-anchor="start" style="fill: rgb(153, 153, 153); font-size: 14px; font-family: inherit; stroke: transparent; letter-spacing: normal; padding: 8px; stroke-width: 0;">$180K</tspan></text></g><g role="presentation"><line x1="578" x2="15" y1="98" y2="98" role="presentation" shape-rendering="auto" vector-effect="non-scaling-stroke" style="stroke: rgb(226, 226, 226); fill: transparent; stroke-width: 1; stroke-linecap: round; stroke-linejoin: round; pointer-events: none;"></line><line x1="578" x2="582" y1="98" y2="98" role="presentation" shape-rendering="auto" vector-effect="non-scaling-stroke" style="stroke: transparent; fill: transparent; size: 4px; stroke-width: 1; stroke-linecap: round; stroke-linejoin: round;"></line><text dx="0" dy="4.97" x="590" y="98"><tspan x="590" dx="0" text-anchor="start" style="fill: rgb(153, 153, 153); font-size: 14px; font-family: inherit; stroke: transparent; letter-spacing: normal; padding: 8px; stroke-width: 0;">$200K</tspan></text></g><g role="presentation"><line x1="578" x2="15" y1="66" y2="66" role="presentation" shape-rendering="auto" vector-effect="non-scaling-stroke" style="stroke: rgb(226, 226, 226); fill: transparent; stroke-width: 1; stroke-linecap: round; stroke-linejoin: round; pointer-events: none;"></line><line x1="578" x2="582" y1="66" y2="66" role="presentation" shape-rendering="auto" vector-effect="non-scaling-stroke" style="stroke: transparent; fill: transparent; size: 4px; stroke-width: 1; stroke-linecap: round; stroke-linejoin: round;"></line><text dx="0" dy="4.97" x="590" y="66"><tspan x="590" dx="0" text-anchor="start" style="fill: rgb(153, 153, 153); font-size: 14px; font-family: inherit; stroke: transparent; letter-spacing: normal; padding: 8px; stroke-width: 0;">$220K</tspan></text></g><g role="presentation"><line x1="578" x2="15" y1="34" y2="34" role="presentation" shape-rendering="auto" vector-effect="non-scaling-stroke" style="stroke: rgb(226, 226, 226); fill: transparent; stroke-width: 1; stroke-linecap: round; stroke-linejoin: round; pointer-events: none;"></line><line x1="578" x2="582" y1="34" y2="34" role="presentation" shape-rendering="auto" vector-effect="non-scaling-stroke" style="stroke: transparent; fill: transparent; size: 4px; stroke-width: 1; stroke-linecap: round; stroke-linejoin: round;"></line><text dx="0" dy="4.97" x="590" y="34"><tspan x="590" dx="0" text-anchor="start" style="fill: rgb(153, 153, 153); font-size: 14px; font-family: inherit; stroke: transparent; letter-spacing: normal; padding: 8px; stroke-width: 0;">$240K</tspan></text></g></g><g style="height: 100%; width: 100%; user-select: none;"><defs><clipPath id="victory-clip-5"><rect x="15" y="34" width="563" height="240"></rect></clipPath></defs><g clip-path="url(#victory-clip-5)"><path shape-rendering="auto" role="presentation" d="M24.5528188286809,195.6C27.73709177157453,197.86666666666667,30.921364714468165,200.13333333333333,34.1056376573618,202C37.28991060025543,203.86666666666667,40.47418354314906,203.6,43.658456486042695,206.8C46.7400109469075,209.8967741935484,49.821565407772304,262,52.90311986863711,262C56.08739281153075,262,59.271665754424376,211.17443987383217,62.45593869731801,195.6C65.54177309493402,180.5070280254933,68.62760749255003,168.8,71.71344189016602,168.8C74.89771483305965,168.8,78.0819877759533,206.8,81.26626071884692,211.28C84.45053366174056,215.76,87.63480660463419,218,90.81907954752783,218C93.69519704433499,218,96.57131454114213,210,99.44743203794928,210C102.62742504409171,210,105.80741805023415,217.2,108.98741105637657,217.2C112.06896551724138,217.2,115.15051997810617,210.53333333333333,118.23207443897098,197.2C121.41634738186463,183.4222222222222,124.60062032475825,125.19999999999999,127.7848932676519,125.19999999999999C130.8664477285167,125.19999999999999,133.9480021893815,181.2,137.02955665024632,181.2C140.21382959313993,181.2,143.39810253603358,178,146.5823754789272,171.6C149.76664842182083,165.2,152.95092136471445,138,156.1351943076081,138C159.2167487684729,138,162.2983032293377,164.73032258064518,165.37985769020253,166.8C168.56413063309614,168.93866666666665,171.74840357598978,167.86933333333334,174.9326765188834,170.00799999999998C178.0185109164994,172.08055197132614,181.10434531411542,185.3026536411122,184.19017971173142,192.39999999999998C187.37445265462506,199.72375269211165,190.55872559751867,213.2,193.74299854041232,213.2C196.92727148330596,213.2,200.1115444261996,191.94140435835357,203.29581736909324,175.60000000000002C206.1719348659004,160.84002186987428,209.04805236270755,122,211.9241698595147,122C215.10416286565712,122,218.28415587179956,149.18947267157793,221.46414887794197,157.2C224.5457033388068,164.96255676509276,227.62725779967158,167.07019213819848,230.7088122605364,170C233.89308520343002,173.02746812386155,237.07735814632366,174.8,240.26163108921727,174.8C243.3431855500821,174.8,246.4247400109469,163.2,249.5062944718117,163.2C252.69056741470536,163.2,255.874840357599,220.4,259.05911330049264,220.4C262.2433862433863,220.4,265.42765918627987,102.79999999999998,268.6119321291735,102.79999999999998C271.69348659003833,102.79999999999998,274.7750410509031,156.94193548387094,277.8565955117679,165.2C281.04086845466156,173.73333333333332,284.22514139755515,170.31028930555627,287.4094143404488,178C290.4952487380648,185.45199114340588,293.58108313568084,196.1888641785019,296.66691753329684,210C299.8511904761905,224.25171296975662,303.03546341908407,262.8,306.2197363619777,262.8C309.40400930487135,262.8,312.588282247765,162.16,315.77255519065864,162.16C318.6486726874658,162.16,321.52479018427294,164.4,324.4009076810801,164.4C327.58090068722254,164.4,330.76089369336495,139.6,333.94088669950736,139.6C337.0224411603722,139.6,340.10399562123695,153.20324343380926,343.18555008210177,157.2C346.3698230249954,161.32998178506375,349.55409596788905,163.6,352.7383689107827,163.6C355.8199233716475,163.6,358.9014778325123,130.8,361.9830322933771,130.8C365.16730523627075,130.8,368.35157817916433,173.95999999999998,371.535851122058,173.95999999999998C374.7201240649516,173.95999999999998,377.90439700784526,161.9080510018215,381.0886699507389,157.2C384.1702244116037,152.64382161114048,387.2517788724685,150.41022386744226,390.3333333333333,146C393.51760627622696,141.44276867030965,396.7018792191206,135.4961917170407,399.88615216201424,130.16C402.97198655963024,124.98877119894307,406.0578209572463,119.35271802757289,409.1436553548623,114.488C412.32792829775593,109.4680967926294,415.5122012406495,103.85733333333333,418.69647418354316,100.576C421.8807471264368,97.29466666666666,425.0650200693304,94.79999999999998,428.24929301222403,94.79999999999998C431.22812899106003,94.79999999999998,434.206964969896,114,437.185800948732,114C440.3657939548744,114,443.54578696101686,99.6,446.72577996715927,99.6C449.8073344280241,99.6,452.8888888888889,107.68,455.97044334975374,107.68C459.1547162926473,107.68,462.33898923554096,107.17333333333333,465.52326217843455,106.16C468.6048166392994,105.17935483870966,471.6863711001642,98,474.767925561029,98C477.95219850392266,98,481.1364714468163,130.16,484.32074438970994,130.16C487.50501733260353,130.16,490.68929027549717,106.16,493.87356321839076,106.16C496.9551176792556,106.16,500.0366721401204,118.16,503.1182266009852,118.16C506.3024995438788,118.16,509.48677248677245,87.07006934812762,512.671045429666,86.96000000000001C515.7568798272821,86.85333333333332,518.8427142248981,86.90666666666667,521.9285486225142,86.79999999999998C525.1128215654078,86.68993065187237,528.2970945083015,85.76266666666665,531.4813674511951,83.68799999999999C534.6656403940887,81.61333333333333,537.8499133369824,48.56,541.0341862798759,48.56C543.9103037766831,48.56,546.7864212734902,63.641444399951176,549.6625387702974,68.256C552.8425317764398,73.35810537326827,556.0225247825822,75.8521259259259,559.2025177887247,76.40799999999999C562.2840722495895,76.94666666666667,565.3656267104543,77.21600000000001,568.4471811713191,77.21600000000001C571.6314541142127,77.21600000000001,574.8157270571064,65.84800000000001,578,54.48000000000002" style="fill: transparent; stroke: rgb(51, 51, 51); stroke-width: 2; opacity: 1;"></path></g></g></svg>