<svg xmlns="http://www.w3.org/2000/svg" width="640" height="324" role="img" aria-labelledby="victory-container-4-title victory-container-4-desc" viewBox="0 0 640 324" style="pointer-events: all; width: 100%; height: 100%;"><g role="presentation"><line x1="15" x2="578" y1="274" y2="274" role="presentation" shape-rendering="auto" vector-effect="non-scaling-stroke" style="stroke: rgb(226, 226, 226); fill: transparent; stroke-width: 1; stroke-linejoin: round;"></line><g role="presentation"><line x1="81.26626071884692" x2="81.26626071884692" y1="274" y2="34" role="presentation" shape-rendering="auto" vector-effect="non-scaling-stroke" style="stroke: transparent; fill: transparent; stroke-width: 1; stroke-linecap: round; stroke-linejoin: round; pointer-events: none;"></line><line x1="81.26626071884692" x2="81.26626071884692" y1="274" y2="278" role="presentation" shape-rendering="auto" vector-effect="non-scaling-stroke" style="stroke: transparent; fill: transparent; size: 4px; stroke-width: 1; stroke-linecap: round; stroke-linejoin: round;"></line><text dx="0" dy="11.969999999999999" x="81.26626071884692" y="286"><tspan x="81.26626071884692" dx="0" text-anchor="middle" style="fill: rgb(153, 153, 153); font-size: 14px; font-family: inherit; stroke: transparent; letter-spacing: normal; padding: 8px; stroke-width: 0;">2017</tspan></text></g><g role="presentation"><line x1="193.74299854041232" x2="193.74299854041232" y1="274" y2="34" role="presentation" shape-rendering="auto" vector-effect="non-scaling-stroke" style="stroke: transparent; fill: transparent; stroke-width: 1; stroke-linecap: round; stroke-linejoin: round; pointer-events: none;"></line><line x1="193.74299854041232" x2="193.74299854041232" y1="274" y2="278" role="presentation" shape-rendering="auto" vector-effect="non-scaling-stroke" style="stroke: transparent; fill: transparent; size: 4px; stroke-width: 1; stroke-linecap: round; stroke-linejoin: round;"></line><text dx="0" dy="11.969999999999999" x="193.74299854041232" y="286"><tspan x="193.74299854041232" dx="0" text-anchor="middle" style="fill: rgb(153, 153, 153); font-size: 14px; font-family: inherit; stroke: transparent; letter-spacing: normal; padding: 8px; stroke-width: 0;">2018</tspan></text></g><g role="presentation"><line x1="306.2197363619777" x2="306.2197363619777" y1="274" y2="34" role="presentation" shape-rendering="auto" vector-effect="non-scaling-stroke" style="stroke: transparent; fill: transparent; stroke-width: 1; stroke-linecap: round; stroke-linejoin: round; pointer-events: none;"></line><line x1="306.2197363619777" x2="306.2197363619777" y1="274" y2="278" role="presentation" shape-rendering="auto" vector-effect="non-scaling-stroke" style="stroke: transparent; fill: transparent; size: 4px; stroke-width: 1; stroke-linecap: round; stroke-linejoin: round;"></line><text dx="0" dy="11.969999999999999" x="306.2197363619777" y="286"><tspan x="306.2197363619777" dx="0" text-anchor="middle" style="fill: rgb(153, 153, 153); font-size: 14px; font-family: inherit; stroke: transparent; letter-spacing: normal; padding: 8px; stroke-width: 0;">2019</tspan></text></g><g role="presentation"><line x1="418.69647418354316" x2="418.69647418354316" y1="274" y2="34" role="presentation" shape-rendering="auto" vector-effect="non-scaling-stroke" style="stroke: transparent; fill: transparent; stroke-width: 1; stroke-linecap: round; stroke-linejoin: round; pointer-events: none;"></line><line x1="418.69647418354316" x2="418.69647418354316" y1="274" y2="278" role="presentation" shape-rendering="auto" vector-effect="non-scaling-stroke" style="stroke: transparent; fill: transparent; size: 4px; stroke-width: 1; stroke-linecap: round; stroke-linejoin: round;"></line><text dx="0" dy="11.969999999999999" x="418.69647418354316" y="286"><tspan x="418.69647418354316" dx="0" text-anchor="middle" style="fill: rgb(153, 153, 153); font-size: 14px; font-family: inherit; stroke: transparent; letter-spacing: normal; padding: 8px; stroke-width: 0;">2020</tspan></text></g><g role="presentation"><line x1="531.4813674511951" x2="531.4813674511951" y1="274" y2="34" role="presentation" shape-rendering="auto" vector-effect="non-scaling-stroke" style="stroke: transparent; fill: transparent; stroke-width: 1; stroke-linecap: round; stroke-linejoin: round; pointer-events: none;"></line><line x1="531.4813674511951" x2="531.4813674511951" y1="274" y2="278" role="presentation" shape-rendering="auto" vector-effect="non-scaling-stroke" style="stroke: transparent; fill: transparent; size: 4px; stroke-width: 1; stroke-linecap: round; stroke-linejoin: round;"></line><text dx="0" dy="11.969999999999999" x="531.4813674511951" y="286"><tspan x="531.4813674511951" dx="0" text-anchor="middle" style="fill: rgb(153, 153, 153); font-size: 14px; font-family: inherit; stroke: transparent; letter-spacing: normal; padding: 8px; stroke-width: 0;">2021</tspan></text></g></g><g role="presentation"><line x1="578" x2="578" y1="34" y2="274" role="presentation" shape-rendering="auto" vector-effect="non-scaling-stroke" style="stroke: transparent; fill: transparent; stroke-width: 1; stroke-linejoin: round;"></line><g role="presentation"><line x1="578" x2="15" y1="274" y2="274" role="presentation" shape-rendering="auto" vector-effect="non-scaling-stroke" style="stroke: rgb(226, 226, 226); fill: transparent; stroke-width: 1; stroke-linecap: round; stroke-linejoin: round; pointer-events: none;"></line><line x1="578" x2="582" y1="274" y2="274" role="presentation" shape-rendering="auto" vector-effect="non-scaling-stroke" style="stroke: transparent; fill: transparent; size: 4px; stroke-width: 1; stroke-linecap: round; stroke-linejoin: round;"></line><text dx="0" dy="4.97" x="590" y="274"><tspan x="590" dx="0" text-anchor="start" style="fill: rgb(153, 153, 153); font-size: 14px; font-family: inherit; stroke: transparent; letter-spacing: normal; padding: 8px; stroke-width: 0;">$100K</tspan></text></g><g role="presentation"><line x1="578" x2="15" y1="214" y2="214" role="presentation" shape-rendering="auto" vector-effect="non-scaling-stroke" style="stroke: rgb(226, 226, 226); fill: transparent; stroke-width: 1; stroke-linecap: round; stroke-linejoin: round; pointer-events: none;"></line><line x1="578" x2="582" y1="214" y2="214" role="presentation" shape-rendering="auto" vector-effect="non-scaling-stroke" style="stroke: transparent; fill: transparent; size: 4px; stroke-width: 1; stroke-linecap: round; stroke-linejoin: round;"></line><text dx="0" dy="4.97" x="590" y="214"><tspan x="590" dx="0" text-anchor="start" style="fill: rgb(153, 153, 153); font-size: 14px; font-family: inherit; stroke: transparent; letter-spacing: normal; padding: 8px; stroke-width: 0;">$150K</tspan></text></g><g role="presentation"><line x1="578" x2="15" y1="154" y2="154" role="presentation" shape-rendering="auto" vector-effect="non-scaling-stroke" style="stroke: rgb(226, 226, 226); fill: transparent; stroke-width: 1; stroke-linecap: round; stroke-linejoin: round; pointer-events: none;"></line><line x1="578" x2="582" y1="154" y2="154" role="presentation" shape-rendering="auto" vector-effect="non-scaling-stroke" style="stroke: transparent; fill: transparent; size: 4px; stroke-width: 1; stroke-linecap: round; stroke-linejoin: round;"></line><text dx="0" dy="4.97" x="590" y="154"><tspan x="590" dx="0" text-anchor="start" style="fill: rgb(153, 153, 153); font-size: 14px; font-family: inherit; stroke: transparent; letter-spacing: normal; padding: 8px; stroke-width: 0;">$200K</tspan></text></g><g role="presentation"><line x1="578" x2="15" y1="94" y2="94" role="presentation" shape-rendering="auto" vector-effect="non-scaling-stroke" style="stroke: rgb(226, 226, 226); fill: transparent; stroke-width: 1; stroke-linecap: round; stroke-linejoin: round; pointer-events: none;"></line><line x1="578" x2="582" y1="94" y2="94" role="presentation" shape-rendering="auto" vector-effect="non-scaling-stroke" style="stroke: transparent; fill: transparent; size: 4px; stroke-width: 1; stroke-linecap: round; stroke-linejoin: round;"></line><text dx="0" dy="4.97" x="590" y="94"><tspan x="590" dx="0" text-anchor="start" style="fill: rgb(153, 153, 153); font-size: 14px; font-family: inherit; stroke: transparent; letter-spacing: normal; padding: 8px; stroke-width: 0;">$250K</tspan></text></g><g role="presentation"><line x1="578" x2="15" y1="34" y2="34" role="presentation" shape-rendering="auto" vector-effect="non-scaling-stroke" style="stroke: rgb(226, 226, 226); fill: transparent; stroke-width: 1; stroke-linecap: round; stroke-linejoin: round; pointer-events: none;"></line><line x1="578" x2="582" y1="34" y2="34" role="presentation" shape-rendering="auto" vector-effect="non-scaling-stroke" style="stroke: transparent; fill: transparent; size: 4px; stroke-width: 1; stroke-linecap: round; stroke-linejoin: round;"></line><text dx="0" dy="4.97" x="590" y="34"><tspan x="590" dx="0" text-anchor="start" style="fill: rgb(153, 153, 153); font-size: 14px; font-family: inherit; stroke: transparent; letter-spacing: normal; padding: 8px; stroke-width: 0;">$300K</tspan></text></g></g><g style="height: 100%; width: 100%; user-select: none;"><defs><clipPath id="victory-clip-5"><rect x="15" y="34" width="563" height="240"></rect></clipPath></defs><g clip-path="url(#victory-clip-5)"><path shape-rendering="auto" role="presentation" d="M24.5528188286809,190C27.73709177157453,207.9853,30.921364714468165,225.9706,34.1056376573618,225.9706C37.28991060025543,225.9706,40.47418354314906,224.9804,43.658456486042695,223C46.7400109469075,221.08348387096774,49.821565407772304,172.36,52.90311986863711,172.36C56.08739281153075,172.36,59.271665754424376,202,62.45593869731801,202C65.54177309493402,202,68.62760749255003,179.5,71.71344189016602,179.5C74.89771483305965,179.5,78.0819877759533,226,81.26626071884692,226C84.45053366174056,226,87.63480660463419,166,90.81907954752783,166C93.69519704433499,166,96.57131454114213,235,99.44743203794928,235C102.62742504409171,235,105.80741805023415,180.39999999999998,108.98741105637657,180.39999999999998C112.06896551724138,180.39999999999998,115.15051997810617,202.0816499206769,118.23207443897098,210.4C121.41634738186463,218.9956284153006,124.60062032475825,230.8,127.7848932676519,230.8C130.8664477285167,230.8,133.9480021893815,218.27921734531995,137.02955665024632,211.6C140.21382959313993,204.69814207650273,143.39810253603358,198.6,146.5823754789272,190C149.76664842182083,181.4,152.95092136471445,160,156.1351943076081,160C159.2167487684729,160,162.2983032293377,239.14,165.37985769020253,239.14C168.56413063309614,239.14,171.74840357598978,217.75753052501028,174.9326765188834,209.8C178.0185109164994,202.0884684025102,181.10434531411542,197.80410125142208,184.19017971173142,191.8C187.37445265462506,185.6043670859112,190.55872559751867,173.2,193.74299854041232,173.2C196.92727148330596,173.2,200.1115444261996,204.1,203.29581736909324,204.1C206.1719348659004,204.1,209.04805236270755,168.7,211.9241698595147,168.7C215.10416286565712,168.7,218.28415587179956,189.73611111111114,221.46414887794197,191.8C224.5457033388068,193.8,227.62725779967158,193.72067689053412,230.7088122605364,194.8C233.89308520343002,195.9153005464481,237.07735814632366,198.4,240.26163108921727,198.4C243.3431855500821,198.4,246.4247400109469,167.2,249.5062944718117,167.2C252.69056741470536,167.2,255.874840357599,214.3,259.05911330049264,214.3C262.2433862433863,214.3,265.42765918627987,178,268.6119321291735,178C271.69348659003833,178,274.7750410509031,184.37990481226862,277.8565955117679,193.6C281.04086845466156,203.12743169398905,284.22514139755515,235.06,287.4094143404488,235.06C290.4952487380648,235.06,293.58108313568084,166,296.66691753329684,166C299.8511904761905,166,303.03546341908407,202.66,306.2197363619777,202.66C309.40400930487135,202.66,312.588282247765,163,315.77255519065864,163C318.6486726874658,163,321.52479018427294,191.57398589425918,324.4009076810801,206.8C327.58090068722254,223.63471500084125,330.76089369336495,259.6,333.94088669950736,259.6C337.0224411603722,259.6,340.10399562123695,152.5,343.18555008210177,152.5C346.3698230249954,152.5,349.55409596788905,153.8,352.7383689107827,156.4C355.8199233716475,158.91612903225806,358.9014778325123,202,361.9830322933771,202C365.16730523627075,202,368.35157817916433,148,371.535851122058,148C374.7201240649516,148,377.90439700784526,178.228,381.0886699507389,178.228C384.1702244116037,178.228,387.2517788724685,108.4,390.3333333333333,108.4C393.51760627622696,108.4,396.7018792191206,163.6,399.88615216201424,163.6C402.97198655963024,163.6,406.0578209572463,86.79999999999998,409.1436553548623,86.79999999999998C412.32792829775593,86.79999999999998,415.5122012406495,250.6,418.69647418354316,250.6C421.8807471264368,250.6,425.0650200693304,184.38488505747122,428.24929301222403,161.2C431.22812899106003,139.51091397849456,434.206964969896,113.5,437.185800948732,113.5C440.3657939548744,113.5,443.54578696101686,252.2464,446.72577996715927,252.2464C449.8073344280241,252.2464,452.8888888888889,194.6364869381281,455.97044334975374,172C459.1547162926473,148.60896349726798,462.33898923554096,115,465.52326217843455,115C468.6048166392994,115,471.6863711001642,169.6,474.767925561029,169.6C477.95219850392266,169.6,481.1364714468163,113.19999999999999,484.32074438970994,113.19999999999999C487.50501733260353,113.19999999999999,490.68929027549717,166.3,493.87356321839076,166.3C496.9551176792556,166.3,500.0366721401204,157.87096774193552,503.1182266009852,156.4C506.3024995438788,154.88,509.48677248677245,154.12,512.671045429666,154.12C515.7568798272821,154.12,518.8427142248981,173.48325281661704,521.9285486225142,183.4C525.1128215654078,193.6330927939484,528.2970945083015,214.6,531.4813674511951,214.6C534.6656403940887,214.6,537.8499133369824,171.96876513317193,541.0341862798759,157.60000000000002C543.9103037766831,144.621760524877,546.7864212734902,130,549.6625387702974,130C552.8425317764398,130,556.0225247825822,208,559.2025177887247,208C562.2840722495895,208,565.3656267104543,136,568.4471811713191,136C571.6314541142127,136,574.8157270571064,165.1,578,194.2" style="fill: transparent; stroke: rgb(51, 51, 51); stroke-width: 2; opacity: 1;"></path></g></g></svg>