<svg xmlns="http://www.w3.org/2000/svg" width="640" height="324" role="img" aria-labelledby="victory-container-4-title victory-container-4-desc" viewBox="0 0 640 324" style="pointer-events: all; width: 100%; height: 100%;"><g role="presentation"><line x1="15" x2="578" y1="274" y2="274" role="presentation" shape-rendering="auto" vector-effect="non-scaling-stroke" style="stroke: rgb(226, 226, 226); fill: transparent; stroke-width: 1; stroke-linejoin: round;"></line><g role="presentation"><line x1="81.26626071884692" x2="81.26626071884692" y1="274" y2="34" role="presentation" shape-rendering="auto" vector-effect="non-scaling-stroke" style="stroke: transparent; fill: transparent; stroke-width: 1; stroke-linecap: round; stroke-linejoin: round; pointer-events: none;"></line><line x1="81.26626071884692" x2="81.26626071884692" y1="274" y2="278" role="presentation" shape-rendering="auto" vector-effect="non-scaling-stroke" style="stroke: transparent; fill: transparent; size: 4px; stroke-width: 1; stroke-linecap: round; stroke-linejoin: round;"></line><text dx="0" dy="11.969999999999999" x="81.26626071884692" y="286"><tspan x="81.26626071884692" dx="0" text-anchor="middle" style="fill: rgb(153, 153, 153); font-size: 14px; font-family: inherit; stroke: transparent; letter-spacing: normal; padding: 8px; stroke-width: 0;">2017</tspan></text></g><g role="presentation"><line x1="193.74299854041232" x2="193.74299854041232" y1="274" y2="34" role="presentation" shape-rendering="auto" vector-effect="non-scaling-stroke" style="stroke: transparent; fill: transparent; stroke-width: 1; stroke-linecap: round; stroke-linejoin: round; pointer-events: none;"></line><line x1="193.74299854041232" x2="193.74299854041232" y1="274" y2="278" role="presentation" shape-rendering="auto" vector-effect="non-scaling-stroke" style="stroke: transparent; fill: transparent; size: 4px; stroke-width: 1; stroke-linecap: round; stroke-linejoin: round;"></line><text dx="0" dy="11.969999999999999" x="193.74299854041232" y="286"><tspan x="193.74299854041232" dx="0" text-anchor="middle" style="fill: rgb(153, 153, 153); font-size: 14px; font-family: inherit; stroke: transparent; letter-spacing: normal; padding: 8px; stroke-width: 0;">2018</tspan></text></g><g role="presentation"><line x1="306.2197363619777" x2="306.2197363619777" y1="274" y2="34" role="presentation" shape-rendering="auto" vector-effect="non-scaling-stroke" style="stroke: transparent; fill: transparent; stroke-width: 1; stroke-linecap: round; stroke-linejoin: round; pointer-events: none;"></line><line x1="306.2197363619777" x2="306.2197363619777" y1="274" y2="278" role="presentation" shape-rendering="auto" vector-effect="non-scaling-stroke" style="stroke: transparent; fill: transparent; size: 4px; stroke-width: 1; stroke-linecap: round; stroke-linejoin: round;"></line><text dx="0" dy="11.969999999999999" x="306.2197363619777" y="286"><tspan x="306.2197363619777" dx="0" text-anchor="middle" style="fill: rgb(153, 153, 153); font-size: 14px; font-family: inherit; stroke: transparent; letter-spacing: normal; padding: 8px; stroke-width: 0;">2019</tspan></text></g><g role="presentation"><line x1="418.69647418354316" x2="418.69647418354316" y1="274" y2="34" role="presentation" shape-rendering="auto" vector-effect="non-scaling-stroke" style="stroke: transparent; fill: transparent; stroke-width: 1; stroke-linecap: round; stroke-linejoin: round; pointer-events: none;"></line><line x1="418.69647418354316" x2="418.69647418354316" y1="274" y2="278" role="presentation" shape-rendering="auto" vector-effect="non-scaling-stroke" style="stroke: transparent; fill: transparent; size: 4px; stroke-width: 1; stroke-linecap: round; stroke-linejoin: round;"></line><text dx="0" dy="11.969999999999999" x="418.69647418354316" y="286"><tspan x="418.69647418354316" dx="0" text-anchor="middle" style="fill: rgb(153, 153, 153); font-size: 14px; font-family: inherit; stroke: transparent; letter-spacing: normal; padding: 8px; stroke-width: 0;">2020</tspan></text></g><g role="presentation"><line x1="531.4813674511951" x2="531.4813674511951" y1="274" y2="34" role="presentation" shape-rendering="auto" vector-effect="non-scaling-stroke" style="stroke: transparent; fill: transparent; stroke-width: 1; stroke-linecap: round; stroke-linejoin: round; pointer-events: none;"></line><line x1="531.4813674511951" x2="531.4813674511951" y1="274" y2="278" role="presentation" shape-rendering="auto" vector-effect="non-scaling-stroke" style="stroke: transparent; fill: transparent; size: 4px; stroke-width: 1; stroke-linecap: round; stroke-linejoin: round;"></line><text dx="0" dy="11.969999999999999" x="531.4813674511951" y="286"><tspan x="531.4813674511951" dx="0" text-anchor="middle" style="fill: rgb(153, 153, 153); font-size: 14px; font-family: inherit; stroke: transparent; letter-spacing: normal; padding: 8px; stroke-width: 0;">2021</tspan></text></g></g><g role="presentation"><line x1="578" x2="578" y1="34" y2="274" role="presentation" shape-rendering="auto" vector-effect="non-scaling-stroke" style="stroke: transparent; fill: transparent; stroke-width: 1; stroke-linejoin: round;"></line><g role="presentation"><line x1="578" x2="15" y1="274" y2="274" role="presentation" shape-rendering="auto" vector-effect="non-scaling-stroke" style="stroke: rgb(226, 226, 226); fill: transparent; stroke-width: 1; stroke-linecap: round; stroke-linejoin: round; pointer-events: none;"></line><line x1="578" x2="582" y1="274" y2="274" role="presentation" shape-rendering="auto" vector-effect="non-scaling-stroke" style="stroke: transparent; fill: transparent; size: 4px; stroke-width: 1; stroke-linecap: round; stroke-linejoin: round;"></line><text dx="0" dy="4.97" x="590" y="274"><tspan x="590" dx="0" text-anchor="start" style="fill: rgb(153, 153, 153); font-size: 14px; font-family: inherit; stroke: transparent; letter-spacing: normal; padding: 8px; stroke-width: 0;">$80K</tspan></text></g><g role="presentation"><line x1="578" x2="15" y1="239.71428571428572" y2="239.71428571428572" role="presentation" shape-rendering="auto" vector-effect="non-scaling-stroke" style="stroke: rgb(226, 226, 226); fill: transparent; stroke-width: 1; stroke-linecap: round; stroke-linejoin: round; pointer-events: none;"></line><line x1="578" x2="582" y1="239.71428571428572" y2="239.71428571428572" role="presentation" shape-rendering="auto" vector-effect="non-scaling-stroke" style="stroke: transparent; fill: transparent; size: 4px; stroke-width: 1; stroke-linecap: round; stroke-linejoin: round;"></line><text dx="0" dy="4.97" x="590" y="239.71428571428572"><tspan x="590" dx="0" text-anchor="start" style="fill: rgb(153, 153, 153); font-size: 14px; font-family: inherit; stroke: transparent; letter-spacing: normal; padding: 8px; stroke-width: 0;">$100K</tspan></text></g><g role="presentation"><line x1="578" x2="15" y1="205.42857142857144" y2="205.42857142857144" role="presentation" shape-rendering="auto" vector-effect="non-scaling-stroke" style="stroke: rgb(226, 226, 226); fill: transparent; stroke-width: 1; stroke-linecap: round; stroke-linejoin: round; pointer-events: none;"></line><line x1="578" x2="582" y1="205.42857142857144" y2="205.42857142857144" role="presentation" shape-rendering="auto" vector-effect="non-scaling-stroke" style="stroke: transparent; fill: transparent; size: 4px; stroke-width: 1; stroke-linecap: round; stroke-linejoin: round;"></line><text dx="0" dy="4.97" x="590" y="205.42857142857144"><tspan x="590" dx="0" text-anchor="start" style="fill: rgb(153, 153, 153); font-size: 14px; font-family: inherit; stroke: transparent; letter-spacing: normal; padding: 8px; stroke-width: 0;">$120K</tspan></text></g><g role="presentation"><line x1="578" x2="15" y1="171.14285714285717" y2="171.14285714285717" role="presentation" shape-rendering="auto" vector-effect="non-scaling-stroke" style="stroke: rgb(226, 226, 226); fill: transparent; stroke-width: 1; stroke-linecap: round; stroke-linejoin: round; pointer-events: none;"></line><line x1="578" x2="582" y1="171.14285714285717" y2="171.14285714285717" role="presentation" shape-rendering="auto" vector-effect="non-scaling-stroke" style="stroke: transparent; fill: transparent; size: 4px; stroke-width: 1; stroke-linecap: round; stroke-linejoin: round;"></line><text dx="0" dy="4.97" x="590" y="171.14285714285717"><tspan x="590" dx="0" text-anchor="start" style="fill: rgb(153, 153, 153); font-size: 14px; font-family: inherit; stroke: transparent; letter-spacing: normal; padding: 8px; stroke-width: 0;">$140K</tspan></text></g><g role="presentation"><line x1="578" x2="15" y1="136.85714285714286" y2="136.85714285714286" role="presentation" shape-rendering="auto" vector-effect="non-scaling-stroke" style="stroke: rgb(226, 226, 226); fill: transparent; stroke-width: 1; stroke-linecap: round; stroke-linejoin: round; pointer-events: none;"></line><line x1="578" x2="582" y1="136.85714285714286" y2="136.85714285714286" role="presentation" shape-rendering="auto" vector-effect="non-scaling-stroke" style="stroke: transparent; fill: transparent; size: 4px; stroke-width: 1; stroke-linecap: round; stroke-linejoin: round;"></line><text dx="0" dy="4.97" x="590" y="136.85714285714286"><tspan x="590" dx="0" text-anchor="start" style="fill: rgb(153, 153, 153); font-size: 14px; font-family: inherit; stroke: transparent; letter-spacing: normal; padding: 8px; stroke-width: 0;">$160K</tspan></text></g><g role="presentation"><line x1="578" x2="15" y1="102.57142857142856" y2="102.57142857142856" role="presentation" shape-rendering="auto" vector-effect="non-scaling-stroke" style="stroke: rgb(226, 226, 226); fill: transparent; stroke-width: 1; stroke-linecap: round; stroke-linejoin: round; pointer-events: none;"></line><line x1="578" x2="582" y1="102.57142857142856" y2="102.57142857142856" role="presentation" shape-rendering="auto" vector-effect="non-scaling-stroke" style="stroke: transparent; fill: transparent; size: 4px; stroke-width: 1; stroke-linecap: round; stroke-linejoin: round;"></line><text dx="0" dy="4.97" x="590" y="102.57142857142856"><tspan x="590" dx="0" text-anchor="start" style="fill: rgb(153, 153, 153); font-size: 14px; font-family: inherit; stroke: transparent; letter-spacing: normal; padding: 8px; stroke-width: 0;">$180K</tspan></text></g><g role="presentation"><line x1="578" x2="15" y1="68.2857142857143" y2="68.2857142857143" role="presentation" shape-rendering="auto" vector-effect="non-scaling-stroke" style="stroke: rgb(226, 226, 226); fill: transparent; stroke-width: 1; stroke-linecap: round; stroke-linejoin: round; pointer-events: none;"></line><line x1="578" x2="582" y1="68.2857142857143" y2="68.2857142857143" role="presentation" shape-rendering="auto" vector-effect="non-scaling-stroke" style="stroke: transparent; fill: transparent; size: 4px; stroke-width: 1; stroke-linecap: round; stroke-linejoin: round;"></line><text dx="0" dy="4.97" x="590" y="68.2857142857143"><tspan x="590" dx="0" text-anchor="start" style="fill: rgb(153, 153, 153); font-size: 14px; font-family: inherit; stroke: transparent; letter-spacing: normal; padding: 8px; stroke-width: 0;">$200K</tspan></text></g><g role="presentation"><line x1="578" x2="15" y1="34" y2="34" role="presentation" shape-rendering="auto" vector-effect="non-scaling-stroke" style="stroke: rgb(226, 226, 226); fill: transparent; stroke-width: 1; stroke-linecap: round; stroke-linejoin: round; pointer-events: none;"></line><line x1="578" x2="582" y1="34" y2="34" role="presentation" shape-rendering="auto" vector-effect="non-scaling-stroke" style="stroke: transparent; fill: transparent; size: 4px; stroke-width: 1; stroke-linecap: round; stroke-linejoin: round;"></line><text dx="0" dy="4.97" x="590" y="34"><tspan x="590" dx="0" text-anchor="start" style="fill: rgb(153, 153, 153); font-size: 14px; font-family: inherit; stroke: transparent; letter-spacing: normal; padding: 8px; stroke-width: 0;">$220K</tspan></text></g></g><g style="height: 100%; width: 100%; user-select: none;"><defs><clipPath id="victory-clip-5"><rect x="15" y="34" width="563" height="240"></rect></clipPath></defs><g clip-path="url(#victory-clip-5)"><path shape-rendering="auto" role="presentation" d="M24.5528188286809,191.8857142857143C27.73709177157453,169.5142857142857,30.921364714468165,147.14285714285714,34.1056376573618,147.14285714285714C37.28991060025543,147.14285714285714,40.47418354314906,188.82271662763463,43.658456486042695,201.57142857142856C46.7400109469075,213.90889174284203,49.821565407772304,223.42857142857144,52.90311986863711,223.42857142857144C56.08739281153075,223.42857142857144,59.271665754424376,202,62.45593869731801,202C65.54177309493402,202,68.62760749255003,211.42857142857142,71.71344189016602,211.42857142857142C74.89771483305965,211.42857142857142,78.0819877759533,179.8285714285714,81.26626071884692,165.39999999999998C84.45053366174056,150.97142857142853,87.63480660463419,124.85714285714286,90.81907954752783,124.85714285714286C93.69519704433499,124.85714285714286,96.57131454114213,188.28571428571428,99.44743203794928,188.28571428571428C102.62742504409171,188.28571428571428,105.80741805023415,152.28571428571428,108.98741105637657,152.28571428571428C112.06896551724138,152.28571428571428,115.15051997810617,178.85714285714286,118.23207443897098,178.85714285714286C121.41634738186463,178.85714285714286,124.60062032475825,80.28571428571428,127.7848932676519,80.28571428571428C130.8664477285167,80.28571428571428,133.9480021893815,136.23373876255945,137.02955665024632,158.28571428571428C140.21382959313993,181.07275565964085,143.39810253603358,214,146.5823754789272,214C149.76664842182083,214,152.95092136471445,160.85714285714286,156.1351943076081,160.85714285714286C159.2167487684729,160.85714285714286,162.2983032293377,231.14285714285714,165.37985769020253,231.14285714285714C168.56413063309614,231.14285714285714,171.74840357598978,212.47057644489917,174.9326765188834,202C178.0185109164994,191.85311073014475,181.10434531411542,169.42857142857144,184.19017971173142,169.42857142857144C187.37445265462506,169.42857142857144,190.55872559751867,190.2857142857143,193.74299854041232,197.71428571428572C196.92727148330596,205.14285714285717,200.1115444261996,214,203.29581736909324,214C206.1719348659004,214,209.04805236270755,159.14285714285714,211.9241698595147,159.14285714285714C215.10416286565712,159.14285714285714,218.28415587179956,188.28571428571428,221.46414887794197,188.28571428571428C224.5457033388068,188.28571428571428,227.62725779967158,154,230.7088122605364,154C233.89308520343002,154,237.07735814632366,156,240.26163108921727,160C243.3431855500821,163.87096774193552,246.4247400109469,183.7942857142857,249.5062944718117,183.7942857142857C252.69056741470536,183.7942857142857,255.874840357599,179.00571428571428,259.05911330049264,169.42857142857144C262.2433862433863,159.85142857142867,265.42765918627987,124.85714285714286,268.6119321291735,124.85714285714286C271.69348659003833,124.85714285714286,274.7750410509031,127.42857142857143,277.8565955117679,132.57142857142856C281.04086845466156,137.88571428571424,284.22514139755515,257.476,287.4094143404488,257.476C290.4952487380648,257.476,293.58108313568084,209.99116743471583,296.66691753329684,209.71428571428572C299.8511904761905,209.42857142857142,303.03546341908407,209.28571428571428,306.2197363619777,209.28571428571428C309.40400930487135,209.28571428571428,312.588282247765,226.85714285714286,315.77255519065864,226.85714285714286C318.6486726874658,226.85714285714286,321.52479018427294,207.0520034540789,324.4009076810801,199.42857142857144C327.58090068722254,190.9996875075119,330.76089369336495,179.71428571428572,333.94088669950736,179.71428571428572C337.0224411603722,179.71428571428572,340.10399562123695,181.85714285714283,343.18555008210177,181.85714285714283C346.3698230249954,181.85714285714283,349.55409596788905,160.85714285714286,352.7383689107827,160.85714285714286C355.8199233716475,160.85714285714286,358.9014778325123,193.42857142857144,361.9830322933771,193.42857142857144C365.16730523627075,193.42857142857144,368.35157817916433,171.14285714285717,371.535851122058,171.14285714285717C374.7201240649516,171.14285714285717,377.90439700784526,226,381.0886699507389,226C384.1702244116037,226,387.2517788724685,184.81846339805088,390.3333333333333,157.42857142857144C393.51760627622696,129.12568306010928,396.7018792191206,58,399.88615216201424,58C402.97198655963024,58,406.0578209572463,89.92674488709935,409.1436553548623,108.57142857142858C412.32792829775593,127.81088025123562,415.5122012406495,172,418.69647418354316,172C421.8807471264368,172,425.0650200693304,163.14285714285714,428.24929301222403,145.42857142857144C431.22812899106003,128.8571428571428,434.206964969896,34,437.185800948732,34C440.3657939548744,34,443.54578696101686,148.66547619047623,446.72577996715927,154.85714285714286C449.8073344280241,160.85714285714286,452.8888888888889,163.85714285714286,455.97044334975374,163.85714285714286C459.1547162926473,163.85714285714286,462.33898923554096,104.51428571428559,465.52326217843455,97.42857142857142C468.6048166392994,90.57142857142857,471.6863711001642,87.14285714285714,474.767925561029,87.14285714285714C477.95219850392266,87.14285714285714,481.1364714468163,171.14285714285717,484.32074438970994,171.14285714285717C487.50501733260353,171.14285714285717,490.68929027549717,162.57142857142856,493.87356321839076,162.57142857142856C496.9551176792556,162.57142857142856,500.0366721401204,166.3041776837651,503.1182266009852,172.94285714285712C506.3024995438788,179.80282591725214,509.48677248677245,203.71428571428572,512.671045429666,203.71428571428572C515.7568798272821,203.71428571428572,518.8427142248981,190.77764976958528,521.9285486225142,188.28571428571428C525.1128215654078,185.71428571428572,528.2970945083015,187,531.4813674511951,184.42857142857144C534.6656403940887,181.8571428571429,537.8499133369824,166,541.0341862798759,166C543.9103037766831,166,546.7864212734902,188.28571428571428,549.6625387702974,188.28571428571428C552.8425317764398,188.28571428571428,556.0225247825822,169.42857142857144,559.2025177887247,169.42857142857144C562.2840722495895,169.42857142857144,565.3656267104543,186.14285714285717,568.4471811713191,186.14285714285717C571.6314541142127,186.14285714285717,574.8157270571064,141.01428571428573,578,95.8857142857143" style="fill: transparent; stroke: rgb(51, 51, 51); stroke-width: 2; opacity: 1;"></path></g></g></svg>