<svg xmlns="http://www.w3.org/2000/svg" width="640" height="324" role="img" aria-labelledby="victory-container-4-title victory-container-4-desc" viewBox="0 0 640 324" style="pointer-events: all; width: 100%; height: 100%;"><g role="presentation"><line x1="15" x2="578" y1="274" y2="274" role="presentation" shape-rendering="auto" vector-effect="non-scaling-stroke" style="stroke: rgb(226, 226, 226); fill: transparent; stroke-width: 1; stroke-linejoin: round;"></line><g role="presentation"><line x1="81.26626071884692" x2="81.26626071884692" y1="274" y2="34" role="presentation" shape-rendering="auto" vector-effect="non-scaling-stroke" style="stroke: transparent; fill: transparent; stroke-width: 1; stroke-linecap: round; stroke-linejoin: round; pointer-events: none;"></line><line x1="81.26626071884692" x2="81.26626071884692" y1="274" y2="278" role="presentation" shape-rendering="auto" vector-effect="non-scaling-stroke" style="stroke: transparent; fill: transparent; size: 4px; stroke-width: 1; stroke-linecap: round; stroke-linejoin: round;"></line><text dx="0" dy="11.969999999999999" x="81.26626071884692" y="286"><tspan x="81.26626071884692" dx="0" text-anchor="middle" style="fill: rgb(153, 153, 153); font-size: 14px; font-family: inherit; stroke: transparent; letter-spacing: normal; padding: 8px; stroke-width: 0;">2017</tspan></text></g><g role="presentation"><line x1="193.74299854041232" x2="193.74299854041232" y1="274" y2="34" role="presentation" shape-rendering="auto" vector-effect="non-scaling-stroke" style="stroke: transparent; fill: transparent; stroke-width: 1; stroke-linecap: round; stroke-linejoin: round; pointer-events: none;"></line><line x1="193.74299854041232" x2="193.74299854041232" y1="274" y2="278" role="presentation" shape-rendering="auto" vector-effect="non-scaling-stroke" style="stroke: transparent; fill: transparent; size: 4px; stroke-width: 1; stroke-linecap: round; stroke-linejoin: round;"></line><text dx="0" dy="11.969999999999999" x="193.74299854041232" y="286"><tspan x="193.74299854041232" dx="0" text-anchor="middle" style="fill: rgb(153, 153, 153); font-size: 14px; font-family: inherit; stroke: transparent; letter-spacing: normal; padding: 8px; stroke-width: 0;">2018</tspan></text></g><g role="presentation"><line x1="306.2197363619777" x2="306.2197363619777" y1="274" y2="34" role="presentation" shape-rendering="auto" vector-effect="non-scaling-stroke" style="stroke: transparent; fill: transparent; stroke-width: 1; stroke-linecap: round; stroke-linejoin: round; pointer-events: none;"></line><line x1="306.2197363619777" x2="306.2197363619777" y1="274" y2="278" role="presentation" shape-rendering="auto" vector-effect="non-scaling-stroke" style="stroke: transparent; fill: transparent; size: 4px; stroke-width: 1; stroke-linecap: round; stroke-linejoin: round;"></line><text dx="0" dy="11.969999999999999" x="306.2197363619777" y="286"><tspan x="306.2197363619777" dx="0" text-anchor="middle" style="fill: rgb(153, 153, 153); font-size: 14px; font-family: inherit; stroke: transparent; letter-spacing: normal; padding: 8px; stroke-width: 0;">2019</tspan></text></g><g role="presentation"><line x1="418.69647418354316" x2="418.69647418354316" y1="274" y2="34" role="presentation" shape-rendering="auto" vector-effect="non-scaling-stroke" style="stroke: transparent; fill: transparent; stroke-width: 1; stroke-linecap: round; stroke-linejoin: round; pointer-events: none;"></line><line x1="418.69647418354316" x2="418.69647418354316" y1="274" y2="278" role="presentation" shape-rendering="auto" vector-effect="non-scaling-stroke" style="stroke: transparent; fill: transparent; size: 4px; stroke-width: 1; stroke-linecap: round; stroke-linejoin: round;"></line><text dx="0" dy="11.969999999999999" x="418.69647418354316" y="286"><tspan x="418.69647418354316" dx="0" text-anchor="middle" style="fill: rgb(153, 153, 153); font-size: 14px; font-family: inherit; stroke: transparent; letter-spacing: normal; padding: 8px; stroke-width: 0;">2020</tspan></text></g><g role="presentation"><line x1="531.4813674511951" x2="531.4813674511951" y1="274" y2="34" role="presentation" shape-rendering="auto" vector-effect="non-scaling-stroke" style="stroke: transparent; fill: transparent; stroke-width: 1; stroke-linecap: round; stroke-linejoin: round; pointer-events: none;"></line><line x1="531.4813674511951" x2="531.4813674511951" y1="274" y2="278" role="presentation" shape-rendering="auto" vector-effect="non-scaling-stroke" style="stroke: transparent; fill: transparent; size: 4px; stroke-width: 1; stroke-linecap: round; stroke-linejoin: round;"></line><text dx="0" dy="11.969999999999999" x="531.4813674511951" y="286"><tspan x="531.4813674511951" dx="0" text-anchor="middle" style="fill: rgb(153, 153, 153); font-size: 14px; font-family: inherit; stroke: transparent; letter-spacing: normal; padding: 8px; stroke-width: 0;">2021</tspan></text></g></g><g role="presentation"><line x1="578" x2="578" y1="34" y2="274" role="presentation" shape-rendering="auto" vector-effect="non-scaling-stroke" style="stroke: transparent; fill: transparent; stroke-width: 1; stroke-linejoin: round;"></line><g role="presentation"><line x1="578" x2="15" y1="274" y2="274" role="presentation" shape-rendering="auto" vector-effect="non-scaling-stroke" style="stroke: rgb(226, 226, 226); fill: transparent; stroke-width: 1; stroke-linecap: round; stroke-linejoin: round; pointer-events: none;"></line><line x1="578" x2="582" y1="274" y2="274" role="presentation" shape-rendering="auto" vector-effect="non-scaling-stroke" style="stroke: transparent; fill: transparent; size: 4px; stroke-width: 1; stroke-linecap: round; stroke-linejoin: round;"></line><text dx="0" dy="4.97" x="590" y="274"><tspan x="590" dx="0" text-anchor="start" style="fill: rgb(153, 153, 153); font-size: 14px; font-family: inherit; stroke: transparent; letter-spacing: normal; padding: 8px; stroke-width: 0;">$300K</tspan></text></g><g role="presentation"><line x1="578" x2="15" y1="214" y2="214" role="presentation" shape-rendering="auto" vector-effect="non-scaling-stroke" style="stroke: rgb(226, 226, 226); fill: transparent; stroke-width: 1; stroke-linecap: round; stroke-linejoin: round; pointer-events: none;"></line><line x1="578" x2="582" y1="214" y2="214" role="presentation" shape-rendering="auto" vector-effect="non-scaling-stroke" style="stroke: transparent; fill: transparent; size: 4px; stroke-width: 1; stroke-linecap: round; stroke-linejoin: round;"></line><text dx="0" dy="4.97" x="590" y="214"><tspan x="590" dx="0" text-anchor="start" style="fill: rgb(153, 153, 153); font-size: 14px; font-family: inherit; stroke: transparent; letter-spacing: normal; padding: 8px; stroke-width: 0;">$400K</tspan></text></g><g role="presentation"><line x1="578" x2="15" y1="154" y2="154" role="presentation" shape-rendering="auto" vector-effect="non-scaling-stroke" style="stroke: rgb(226, 226, 226); fill: transparent; stroke-width: 1; stroke-linecap: round; stroke-linejoin: round; pointer-events: none;"></line><line x1="578" x2="582" y1="154" y2="154" role="presentation" shape-rendering="auto" vector-effect="non-scaling-stroke" style="stroke: transparent; fill: transparent; size: 4px; stroke-width: 1; stroke-linecap: round; stroke-linejoin: round;"></line><text dx="0" dy="4.97" x="590" y="154"><tspan x="590" dx="0" text-anchor="start" style="fill: rgb(153, 153, 153); font-size: 14px; font-family: inherit; stroke: transparent; letter-spacing: normal; padding: 8px; stroke-width: 0;">$500K</tspan></text></g><g role="presentation"><line x1="578" x2="15" y1="94" y2="94" role="presentation" shape-rendering="auto" vector-effect="non-scaling-stroke" style="stroke: rgb(226, 226, 226); fill: transparent; stroke-width: 1; stroke-linecap: round; stroke-linejoin: round; pointer-events: none;"></line><line x1="578" x2="582" y1="94" y2="94" role="presentation" shape-rendering="auto" vector-effect="non-scaling-stroke" style="stroke: transparent; fill: transparent; size: 4px; stroke-width: 1; stroke-linecap: round; stroke-linejoin: round;"></line><text dx="0" dy="4.97" x="590" y="94"><tspan x="590" dx="0" text-anchor="start" style="fill: rgb(153, 153, 153); font-size: 14px; font-family: inherit; stroke: transparent; letter-spacing: normal; padding: 8px; stroke-width: 0;">$600K</tspan></text></g><g role="presentation"><line x1="578" x2="15" y1="34" y2="34" role="presentation" shape-rendering="auto" vector-effect="non-scaling-stroke" style="stroke: rgb(226, 226, 226); fill: transparent; stroke-width: 1; stroke-linecap: round; stroke-linejoin: round; pointer-events: none;"></line><line x1="578" x2="582" y1="34" y2="34" role="presentation" shape-rendering="auto" vector-effect="non-scaling-stroke" style="stroke: transparent; fill: transparent; size: 4px; stroke-width: 1; stroke-linecap: round; stroke-linejoin: round;"></line><text dx="0" dy="4.97" x="590" y="34"><tspan x="590" dx="0" text-anchor="start" style="fill: rgb(153, 153, 153); font-size: 14px; font-family: inherit; stroke: transparent; letter-spacing: normal; padding: 8px; stroke-width: 0;">$700K</tspan></text></g></g><g style="height: 100%; width: 100%; user-select: none;"><defs><clipPath id="victory-clip-5"><rect x="15" y="34" width="563" height="240"></rect></clipPath></defs><g clip-path="url(#victory-clip-5)"><path shape-rendering="auto" role="presentation" d="M15.30815544608648,65.5C18.389709906951285,93.4457258064516,21.471264367816094,121.39145161290321,24.5528188286809,130.885C27.73709177157453,140.695,30.921364714468165,135.79,34.1056376573618,145.6C37.28991060025543,155.41,40.47418354314906,253,43.658456486042695,253C46.7400109469075,253,49.821565407772304,76,52.90311986863711,76C56.08739281153075,76,59.271665754424376,202,62.45593869731801,202C65.54177309493402,202,68.62760749255003,89.80000000000001,71.71344189016602,89.80000000000001C74.89771483305965,89.80000000000001,78.0819877759533,113.11000000000001,81.26626071884692,124.06C84.45053366174056,135.01000000000002,87.63480660463419,144.91866828087166,90.81907954752783,155.5C93.69519704433499,165.0573318753417,96.57131454114213,184.42,99.44743203794928,184.42C102.62742504409171,184.42,105.80741805023415,104.38561111111107,108.98741105637657,101.61999999999998C112.06896551724138,98.93999999999998,115.15051997810617,99.70879957694339,118.23207443897098,97.6C121.41634738186463,95.42090710382514,124.60062032475825,94.60000000000001,127.7848932676519,88.60000000000002C130.8664477285167,82.79354838709682,133.9480021893815,61.599999999999994,137.02955665024632,61.599999999999994C140.21382959313993,61.599999999999994,143.39810253603358,138,146.5823754789272,161.2C149.76664842182083,184.40000000000006,152.95092136471445,200.8,156.1351943076081,200.8C159.2167487684729,200.8,162.2983032293377,100,165.37985769020253,100C168.56413063309614,100,171.74840357598978,202.7605,174.9326765188834,202.7605C178.0185109164994,202.7605,181.10434531411542,146.74055550295424,184.19017971173142,127C187.37445265462506,106.6297180385604,190.55872559751867,83.5,193.74299854041232,83.5C196.92727148330596,83.5,200.1115444261996,178.03,203.29581736909324,178.03C206.1719348659004,178.03,209.04805236270755,96.55000000000001,211.9241698595147,96.55000000000001C215.10416286565712,96.55000000000001,218.28415587179956,134.38,221.46414887794197,134.38C224.5457033388068,134.38,227.62725779967158,133.51999999999998,230.7088122605364,131.79999999999998C233.89308520343002,130.02266666666665,237.07735814632366,105.95043715846988,240.26163108921727,91.89999999999998C243.3431855500821,78.30280274986774,246.4247400109469,49,249.5062944718117,49C252.69056741470536,49,255.874840357599,184.6,259.05911330049264,184.6C262.2433862433863,184.6,265.42765918627987,109,268.6119321291735,109C271.69348659003833,109,274.7750410509031,114.4942,277.8565955117679,114.4942C281.04086845466156,114.4942,284.22514139755515,54.39999999999998,287.4094143404488,54.39999999999998C290.4952487380648,54.39999999999998,293.58108313568084,205,296.66691753329684,205C299.8511904761905,205,303.03546341908407,132.8,306.2197363619777,112C309.40400930487135,91.19999999999987,312.588282247765,80.19999999999999,315.77255519065864,80.19999999999999C318.6486726874658,80.19999999999999,321.52479018427294,191.5,324.4009076810801,191.5C327.58090068722254,191.5,330.76089369336495,79,333.94088669950736,79C337.0224411603722,79,340.10399562123695,165.39999999999998,343.18555008210177,165.39999999999998C346.3698230249954,165.39999999999998,349.55409596788905,102.41333333333331,352.7383689107827,95.79999999999998C355.8199233716475,89.4,358.9014778325123,86.20000000000002,361.9830322933771,86.20000000000002C365.16730523627075,86.20000000000002,368.35157817916433,99.697,371.535851122058,99.697C374.7201240649516,99.697,377.90439700784526,76,381.0886699507389,76C384.1702244116037,76,387.2517788724685,103.38454447382342,390.3333333333333,122.3734C393.51760627622696,141.99521737704922,396.7018792191206,192.55,399.88615216201424,192.55C402.97198655963024,192.55,406.0578209572463,36.10000000000002,409.1436553548623,36.10000000000002C412.32792829775593,36.10000000000002,415.5122012406495,171.7,418.69647418354316,171.7C421.8807471264368,171.7,425.0650200693304,74.5,428.24929301222403,74.5C431.22812899106003,74.5,434.206964969896,117.37242390960525,437.185800948732,132.57160000000002C440.3657939548744,148.79715723443002,443.54578696101686,152.12742700463286,446.72577996715927,167.0326C449.8073344280241,181.47637463884845,452.8888888888889,219.9934,455.97044334975374,219.9934C459.1547162926473,219.9934,462.33898923554096,139,465.52326217843455,139C468.6048166392994,139,471.6863711001642,152.5,474.767925561029,152.5C477.95219850392266,152.5,481.1364714468163,152.2,484.32074438970994,151.6C487.50501733260353,151,490.68929027549717,136,493.87356321839076,136C496.9551176792556,136,500.0366721401204,200.26,503.1182266009852,200.26C506.3024995438788,200.26,509.48677248677245,189.53148804513972,512.671045429666,170.5C515.7568798272821,152.05685096700796,518.8427142248981,89.5,521.9285486225142,89.5C525.1128215654078,89.5,528.2970945083015,146,531.4813674511951,160C534.6656403940887,174,537.8499133369824,181,541.0341862798759,181C543.9103037766831,181,546.7864212734902,160.3825499717029,549.6625387702974,149.5C552.8425317764398,137.46765680212013,556.0225247825822,112,559.2025177887247,112C562.2840722495895,112,565.3656267104543,131.5,568.4471811713191,131.5C571.6314541142127,131.5,574.8157270571064,116.50014999999999,578,101.50029999999998" style="fill: transparent; stroke: rgb(51, 51, 51); stroke-width: 2; opacity: 1;"></path></g></g></svg>