<svg xmlns="http://www.w3.org/2000/svg" width="640" height="324" role="img" aria-labelledby="victory-container-4-title victory-container-4-desc" viewBox="0 0 640 324" style="pointer-events: all; width: 100%; height: 100%;"><g role="presentation"><line x1="15" x2="578" y1="274" y2="274" role="presentation" shape-rendering="auto" vector-effect="non-scaling-stroke" style="stroke: rgb(226, 226, 226); fill: transparent; stroke-width: 1; stroke-linejoin: round;"></line><g role="presentation"><line x1="81.26626071884692" x2="81.26626071884692" y1="274" y2="34" role="presentation" shape-rendering="auto" vector-effect="non-scaling-stroke" style="stroke: transparent; fill: transparent; stroke-width: 1; stroke-linecap: round; stroke-linejoin: round; pointer-events: none;"></line><line x1="81.26626071884692" x2="81.26626071884692" y1="274" y2="278" role="presentation" shape-rendering="auto" vector-effect="non-scaling-stroke" style="stroke: transparent; fill: transparent; size: 4px; stroke-width: 1; stroke-linecap: round; stroke-linejoin: round;"></line><text dx="0" dy="11.969999999999999" x="81.26626071884692" y="286"><tspan x="81.26626071884692" dx="0" text-anchor="middle" style="fill: rgb(153, 153, 153); font-size: 14px; font-family: inherit; stroke: transparent; letter-spacing: normal; padding: 8px; stroke-width: 0;">2017</tspan></text></g><g role="presentation"><line x1="193.74299854041232" x2="193.74299854041232" y1="274" y2="34" role="presentation" shape-rendering="auto" vector-effect="non-scaling-stroke" style="stroke: transparent; fill: transparent; stroke-width: 1; stroke-linecap: round; stroke-linejoin: round; pointer-events: none;"></line><line x1="193.74299854041232" x2="193.74299854041232" y1="274" y2="278" role="presentation" shape-rendering="auto" vector-effect="non-scaling-stroke" style="stroke: transparent; fill: transparent; size: 4px; stroke-width: 1; stroke-linecap: round; stroke-linejoin: round;"></line><text dx="0" dy="11.969999999999999" x="193.74299854041232" y="286"><tspan x="193.74299854041232" dx="0" text-anchor="middle" style="fill: rgb(153, 153, 153); font-size: 14px; font-family: inherit; stroke: transparent; letter-spacing: normal; padding: 8px; stroke-width: 0;">2018</tspan></text></g><g role="presentation"><line x1="306.2197363619777" x2="306.2197363619777" y1="274" y2="34" role="presentation" shape-rendering="auto" vector-effect="non-scaling-stroke" style="stroke: transparent; fill: transparent; stroke-width: 1; stroke-linecap: round; stroke-linejoin: round; pointer-events: none;"></line><line x1="306.2197363619777" x2="306.2197363619777" y1="274" y2="278" role="presentation" shape-rendering="auto" vector-effect="non-scaling-stroke" style="stroke: transparent; fill: transparent; size: 4px; stroke-width: 1; stroke-linecap: round; stroke-linejoin: round;"></line><text dx="0" dy="11.969999999999999" x="306.2197363619777" y="286"><tspan x="306.2197363619777" dx="0" text-anchor="middle" style="fill: rgb(153, 153, 153); font-size: 14px; font-family: inherit; stroke: transparent; letter-spacing: normal; padding: 8px; stroke-width: 0;">2019</tspan></text></g><g role="presentation"><line x1="418.69647418354316" x2="418.69647418354316" y1="274" y2="34" role="presentation" shape-rendering="auto" vector-effect="non-scaling-stroke" style="stroke: transparent; fill: transparent; stroke-width: 1; stroke-linecap: round; stroke-linejoin: round; pointer-events: none;"></line><line x1="418.69647418354316" x2="418.69647418354316" y1="274" y2="278" role="presentation" shape-rendering="auto" vector-effect="non-scaling-stroke" style="stroke: transparent; fill: transparent; size: 4px; stroke-width: 1; stroke-linecap: round; stroke-linejoin: round;"></line><text dx="0" dy="11.969999999999999" x="418.69647418354316" y="286"><tspan x="418.69647418354316" dx="0" text-anchor="middle" style="fill: rgb(153, 153, 153); font-size: 14px; font-family: inherit; stroke: transparent; letter-spacing: normal; padding: 8px; stroke-width: 0;">2020</tspan></text></g><g role="presentation"><line x1="531.4813674511951" x2="531.4813674511951" y1="274" y2="34" role="presentation" shape-rendering="auto" vector-effect="non-scaling-stroke" style="stroke: transparent; fill: transparent; stroke-width: 1; stroke-linecap: round; stroke-linejoin: round; pointer-events: none;"></line><line x1="531.4813674511951" x2="531.4813674511951" y1="274" y2="278" role="presentation" shape-rendering="auto" vector-effect="non-scaling-stroke" style="stroke: transparent; fill: transparent; size: 4px; stroke-width: 1; stroke-linecap: round; stroke-linejoin: round;"></line><text dx="0" dy="11.969999999999999" x="531.4813674511951" y="286"><tspan x="531.4813674511951" dx="0" text-anchor="middle" style="fill: rgb(153, 153, 153); font-size: 14px; font-family: inherit; stroke: transparent; letter-spacing: normal; padding: 8px; stroke-width: 0;">2021</tspan></text></g></g><g role="presentation"><line x1="578" x2="578" y1="34" y2="274" role="presentation" shape-rendering="auto" vector-effect="non-scaling-stroke" style="stroke: transparent; fill: transparent; stroke-width: 1; stroke-linejoin: round;"></line><g role="presentation"><line x1="578" x2="15" y1="250" y2="250" role="presentation" shape-rendering="auto" vector-effect="non-scaling-stroke" style="stroke: rgb(226, 226, 226); fill: transparent; stroke-width: 1; stroke-linecap: round; stroke-linejoin: round; pointer-events: none;"></line><line x1="578" x2="582" y1="250" y2="250" role="presentation" shape-rendering="auto" vector-effect="non-scaling-stroke" style="stroke: transparent; fill: transparent; size: 4px; stroke-width: 1; stroke-linecap: round; stroke-linejoin: round;"></line><text dx="0" dy="4.97" x="590" y="250"><tspan x="590" dx="0" text-anchor="start" style="fill: rgb(153, 153, 153); font-size: 14px; font-family: inherit; stroke: transparent; letter-spacing: normal; padding: 8px; stroke-width: 0;">$100K</tspan></text></g><g role="presentation"><line x1="578" x2="15" y1="202" y2="202" role="presentation" shape-rendering="auto" vector-effect="non-scaling-stroke" style="stroke: rgb(226, 226, 226); fill: transparent; stroke-width: 1; stroke-linecap: round; stroke-linejoin: round; pointer-events: none;"></line><line x1="578" x2="582" y1="202" y2="202" role="presentation" shape-rendering="auto" vector-effect="non-scaling-stroke" style="stroke: transparent; fill: transparent; size: 4px; stroke-width: 1; stroke-linecap: round; stroke-linejoin: round;"></line><text dx="0" dy="4.97" x="590" y="202"><tspan x="590" dx="0" text-anchor="start" style="fill: rgb(153, 153, 153); font-size: 14px; font-family: inherit; stroke: transparent; letter-spacing: normal; padding: 8px; stroke-width: 0;">$120K</tspan></text></g><g role="presentation"><line x1="578" x2="15" y1="154" y2="154" role="presentation" shape-rendering="auto" vector-effect="non-scaling-stroke" style="stroke: rgb(226, 226, 226); fill: transparent; stroke-width: 1; stroke-linecap: round; stroke-linejoin: round; pointer-events: none;"></line><line x1="578" x2="582" y1="154" y2="154" role="presentation" shape-rendering="auto" vector-effect="non-scaling-stroke" style="stroke: transparent; fill: transparent; size: 4px; stroke-width: 1; stroke-linecap: round; stroke-linejoin: round;"></line><text dx="0" dy="4.97" x="590" y="154"><tspan x="590" dx="0" text-anchor="start" style="fill: rgb(153, 153, 153); font-size: 14px; font-family: inherit; stroke: transparent; letter-spacing: normal; padding: 8px; stroke-width: 0;">$140K</tspan></text></g><g role="presentation"><line x1="578" x2="15" y1="106" y2="106" role="presentation" shape-rendering="auto" vector-effect="non-scaling-stroke" style="stroke: rgb(226, 226, 226); fill: transparent; stroke-width: 1; stroke-linecap: round; stroke-linejoin: round; pointer-events: none;"></line><line x1="578" x2="582" y1="106" y2="106" role="presentation" shape-rendering="auto" vector-effect="non-scaling-stroke" style="stroke: transparent; fill: transparent; size: 4px; stroke-width: 1; stroke-linecap: round; stroke-linejoin: round;"></line><text dx="0" dy="4.97" x="590" y="106"><tspan x="590" dx="0" text-anchor="start" style="fill: rgb(153, 153, 153); font-size: 14px; font-family: inherit; stroke: transparent; letter-spacing: normal; padding: 8px; stroke-width: 0;">$160K</tspan></text></g><g role="presentation"><line x1="578" x2="15" y1="58" y2="58" role="presentation" shape-rendering="auto" vector-effect="non-scaling-stroke" style="stroke: rgb(226, 226, 226); fill: transparent; stroke-width: 1; stroke-linecap: round; stroke-linejoin: round; pointer-events: none;"></line><line x1="578" x2="582" y1="58" y2="58" role="presentation" shape-rendering="auto" vector-effect="non-scaling-stroke" style="stroke: transparent; fill: transparent; size: 4px; stroke-width: 1; stroke-linecap: round; stroke-linejoin: round;"></line><text dx="0" dy="4.97" x="590" y="58"><tspan x="590" dx="0" text-anchor="start" style="fill: rgb(153, 153, 153); font-size: 14px; font-family: inherit; stroke: transparent; letter-spacing: normal; padding: 8px; stroke-width: 0;">$180K</tspan></text></g></g><g style="height: 100%; width: 100%; user-select: none;"><defs><clipPath id="victory-clip-5"><rect x="15" y="34" width="563" height="240"></rect></clipPath></defs><g clip-path="url(#victory-clip-5)"><path shape-rendering="auto" role="presentation" d="M24.5528188286809,185.2C27.73709177157453,181.6,30.921364714468165,178,34.1056376573618,178C37.28991060025543,178,40.47418354314906,202,43.658456486042695,202C46.7400109469075,202,49.821565407772304,193.555790586991,52.90311986863711,190C56.08739281153075,186.3256830601093,59.271665754424376,180.39999999999998,62.45593869731801,180.39999999999998C65.54177309493402,180.39999999999998,68.62760749255003,270.4,71.71344189016602,270.4C74.89771483305965,270.4,78.0819877759533,202,81.26626071884692,202C84.45053366174056,202,87.63480660463419,219.87651331719127,90.81907954752783,226C93.69519704433499,231.5308911973756,96.57131454114213,238,99.44743203794928,238C102.62742504409171,238,105.80741805023415,178,108.98741105637657,178C112.06896551724138,178,115.15051997810617,200.2147012162877,118.23207443897098,208C121.41634738186463,216.04480874316943,124.60062032475825,225.04000000000002,127.7848932676519,225.04000000000002C130.8664477285167,225.04000000000002,133.9480021893815,220.9,137.02955665024632,212.62C140.21382959313993,204.06400000000002,143.39810253603358,148.9,146.5823754789272,148.9C149.76664842182083,148.9,152.95092136471445,172.64740983606558,156.1351943076081,181.6C159.2167487684729,190.26379693283977,162.2983032293377,202.12,165.37985769020253,202.12C168.56413063309614,202.12,171.74840357598978,196.1357284772287,174.9326765188834,191.2C178.0185109164994,186.4168545267716,181.10434531411542,173.2,184.19017971173142,173.2C187.37445265462506,173.2,190.55872559751867,178,193.74299854041232,178C196.92727148330596,178,200.1115444261996,94,203.29581736909324,94C206.1719348659004,94,209.04805236270755,190,211.9241698595147,190C215.10416286565712,190,218.28415587179956,168.4,221.46414887794197,168.4C224.5457033388068,168.4,227.62725779967158,174.80592279217348,230.7088122605364,176.8C233.89308520343002,178.86054644808743,237.07735814632366,180.39999999999998,240.26163108921727,180.39999999999998C243.3431855500821,180.39999999999998,246.4247400109469,169.39122157588577,249.5062944718117,166C252.69056741470536,162.49573770491804,255.874840357599,164,259.05911330049264,160C262.2433862433863,156.00000000000003,265.42765918627987,142,268.6119321291735,142C271.69348659003833,142,274.7750410509031,185.2,277.8565955117679,185.2C281.04086845466156,185.2,284.22514139755515,136,287.4094143404488,136C290.4952487380648,136,293.58108313568084,205,296.66691753329684,205C299.8511904761905,205,303.03546341908407,163.6,306.2197363619777,163.6C309.40400930487135,163.6,312.588282247765,169.6,315.77255519065864,169.6C318.6486726874658,169.6,321.52479018427294,154,324.4009076810801,154C327.58090068722254,154,330.76089369336495,173.2,333.94088669950736,173.2C337.0224411603722,173.2,340.10399562123695,118,343.18555008210177,118C346.3698230249954,118,349.55409596788905,141.4,352.7383689107827,141.4C355.8199233716475,141.4,358.9014778325123,137.20000000000002,361.9830322933771,137.20000000000002C365.16730523627075,137.20000000000002,368.35157817916433,143.32,371.535851122058,143.32C374.7201240649516,143.32,377.90439700784526,130,381.0886699507389,130C384.1702244116037,130,387.2517788724685,146.1032258064516,390.3333333333333,149.2C393.51760627622696,152.4,396.7018792191206,154,399.88615216201424,154C402.97198655963024,154,406.0578209572463,138.34581085544426,409.1436553548623,132.4C412.32792829775593,126.26451695360542,415.5122012406495,118,418.69647418354316,118C421.8807471264368,118,425.0650200693304,122.80000000000001,428.24929301222403,122.80000000000001C431.22812899106003,122.80000000000001,434.206964969896,109.18932250880819,437.185800948732,95.19999999999999C440.3657939548744,80.26599622982116,443.54578696101686,34.024,446.72577996715927,34.024C449.8073344280241,34.024,452.8888888888889,106,455.97044334975374,106C459.1547162926473,106,462.33898923554096,82,465.52326217843455,82C468.6048166392994,82,471.6863711001642,115.72,474.767925561029,115.72C477.95219850392266,115.72,481.1364714468163,82,484.32074438970994,82C487.50501733260353,82,490.68929027549717,94,493.87356321839076,94C496.9551176792556,94,500.0366721401204,94,503.1182266009852,94C506.3024995438788,94,509.48677248677245,97,512.671045429666,97C515.7568798272821,97,518.8427142248981,61.599999999999994,521.9285486225142,61.599999999999994C525.1128215654078,61.599999999999994,528.2970945083015,86.39999999999999,531.4813674511951,88.47999999999999C534.6656403940887,90.55999999999999,537.8499133369824,91.6,541.0341862798759,91.6C543.9103037766831,91.6,546.7864212734902,84.39999999999998,549.6625387702974,84.39999999999998C552.8425317764398,84.39999999999998,556.0225247825822,94,559.2025177887247,94C562.2840722495895,94,565.3656267104543,48.880000000000024,568.4471811713191,48.880000000000024C571.6314541142127,48.880000000000024,574.8157270571064,59.44000000000001,578,70" style="fill: transparent; stroke: rgb(51, 51, 51); stroke-width: 2; opacity: 1;"></path></g></g></svg>