<svg xmlns="http://www.w3.org/2000/svg" width="640" height="324" role="img" aria-labelledby="victory-container-1-title victory-container-1-desc" viewBox="0 0 640 324" style="pointer-events: all; width: 100%; height: 100%;"><g role="presentation"><line x1="15" x2="578" y1="274" y2="274" role="presentation" shape-rendering="auto" vector-effect="non-scaling-stroke" style="stroke: rgb(226, 226, 226); fill: transparent; stroke-width: 1; stroke-linejoin: round;"></line><g role="presentation"><line x1="81.26626071884692" x2="81.26626071884692" y1="274" y2="34" role="presentation" shape-rendering="auto" vector-effect="non-scaling-stroke" style="stroke: transparent; fill: transparent; stroke-width: 1; stroke-linecap: round; stroke-linejoin: round; pointer-events: none;"></line><line x1="81.26626071884692" x2="81.26626071884692" y1="274" y2="278" role="presentation" shape-rendering="auto" vector-effect="non-scaling-stroke" style="stroke: transparent; fill: transparent; size: 4px; stroke-width: 1; stroke-linecap: round; stroke-linejoin: round;"></line><text dx="0" dy="11.969999999999999" x="81.26626071884692" y="286"><tspan x="81.26626071884692" dx="0" text-anchor="middle" style="fill: rgb(153, 153, 153); font-size: 14px; font-family: inherit; stroke: transparent; letter-spacing: normal; padding: 8px; stroke-width: 0;">2017</tspan></text></g><g role="presentation"><line x1="193.74299854041232" x2="193.74299854041232" y1="274" y2="34" role="presentation" shape-rendering="auto" vector-effect="non-scaling-stroke" style="stroke: transparent; fill: transparent; stroke-width: 1; stroke-linecap: round; stroke-linejoin: round; pointer-events: none;"></line><line x1="193.74299854041232" x2="193.74299854041232" y1="274" y2="278" role="presentation" shape-rendering="auto" vector-effect="non-scaling-stroke" style="stroke: transparent; fill: transparent; size: 4px; stroke-width: 1; stroke-linecap: round; stroke-linejoin: round;"></line><text dx="0" dy="11.969999999999999" x="193.74299854041232" y="286"><tspan x="193.74299854041232" dx="0" text-anchor="middle" style="fill: rgb(153, 153, 153); font-size: 14px; font-family: inherit; stroke: transparent; letter-spacing: normal; padding: 8px; stroke-width: 0;">2018</tspan></text></g><g role="presentation"><line x1="306.2197363619777" x2="306.2197363619777" y1="274" y2="34" role="presentation" shape-rendering="auto" vector-effect="non-scaling-stroke" style="stroke: transparent; fill: transparent; stroke-width: 1; stroke-linecap: round; stroke-linejoin: round; pointer-events: none;"></line><line x1="306.2197363619777" x2="306.2197363619777" y1="274" y2="278" role="presentation" shape-rendering="auto" vector-effect="non-scaling-stroke" style="stroke: transparent; fill: transparent; size: 4px; stroke-width: 1; stroke-linecap: round; stroke-linejoin: round;"></line><text dx="0" dy="11.969999999999999" x="306.2197363619777" y="286"><tspan x="306.2197363619777" dx="0" text-anchor="middle" style="fill: rgb(153, 153, 153); font-size: 14px; font-family: inherit; stroke: transparent; letter-spacing: normal; padding: 8px; stroke-width: 0;">2019</tspan></text></g><g role="presentation"><line x1="418.69647418354316" x2="418.69647418354316" y1="274" y2="34" role="presentation" shape-rendering="auto" vector-effect="non-scaling-stroke" style="stroke: transparent; fill: transparent; stroke-width: 1; stroke-linecap: round; stroke-linejoin: round; pointer-events: none;"></line><line x1="418.69647418354316" x2="418.69647418354316" y1="274" y2="278" role="presentation" shape-rendering="auto" vector-effect="non-scaling-stroke" style="stroke: transparent; fill: transparent; size: 4px; stroke-width: 1; stroke-linecap: round; stroke-linejoin: round;"></line><text dx="0" dy="11.969999999999999" x="418.69647418354316" y="286"><tspan x="418.69647418354316" dx="0" text-anchor="middle" style="fill: rgb(153, 153, 153); font-size: 14px; font-family: inherit; stroke: transparent; letter-spacing: normal; padding: 8px; stroke-width: 0;">2020</tspan></text></g><g role="presentation"><line x1="531.4813674511951" x2="531.4813674511951" y1="274" y2="34" role="presentation" shape-rendering="auto" vector-effect="non-scaling-stroke" style="stroke: transparent; fill: transparent; stroke-width: 1; stroke-linecap: round; stroke-linejoin: round; pointer-events: none;"></line><line x1="531.4813674511951" x2="531.4813674511951" y1="274" y2="278" role="presentation" shape-rendering="auto" vector-effect="non-scaling-stroke" style="stroke: transparent; fill: transparent; size: 4px; stroke-width: 1; stroke-linecap: round; stroke-linejoin: round;"></line><text dx="0" dy="11.969999999999999" x="531.4813674511951" y="286"><tspan x="531.4813674511951" dx="0" text-anchor="middle" style="fill: rgb(153, 153, 153); font-size: 14px; font-family: inherit; stroke: transparent; letter-spacing: normal; padding: 8px; stroke-width: 0;">2021</tspan></text></g></g><g role="presentation"><line x1="578" x2="578" y1="34" y2="274" role="presentation" shape-rendering="auto" vector-effect="non-scaling-stroke" style="stroke: transparent; fill: transparent; stroke-width: 1; stroke-linejoin: round;"></line><g role="presentation"><line x1="578" x2="15" y1="274" y2="274" role="presentation" shape-rendering="auto" vector-effect="non-scaling-stroke" style="stroke: rgb(226, 226, 226); fill: transparent; stroke-width: 1; stroke-linecap: round; stroke-linejoin: round; pointer-events: none;"></line><line x1="578" x2="582" y1="274" y2="274" role="presentation" shape-rendering="auto" vector-effect="non-scaling-stroke" style="stroke: transparent; fill: transparent; size: 4px; stroke-width: 1; stroke-linecap: round; stroke-linejoin: round;"></line><text dx="0" dy="4.97" x="590" y="274"><tspan x="590" dx="0" text-anchor="start" style="fill: rgb(153, 153, 153); font-size: 14px; font-family: inherit; stroke: transparent; letter-spacing: normal; padding: 8px; stroke-width: 0;">$100K</tspan></text></g><g role="presentation"><line x1="578" x2="15" y1="234" y2="234" role="presentation" shape-rendering="auto" vector-effect="non-scaling-stroke" style="stroke: rgb(226, 226, 226); fill: transparent; stroke-width: 1; stroke-linecap: round; stroke-linejoin: round; pointer-events: none;"></line><line x1="578" x2="582" y1="234" y2="234" role="presentation" shape-rendering="auto" vector-effect="non-scaling-stroke" style="stroke: transparent; fill: transparent; size: 4px; stroke-width: 1; stroke-linecap: round; stroke-linejoin: round;"></line><text dx="0" dy="4.97" x="590" y="234"><tspan x="590" dx="0" text-anchor="start" style="fill: rgb(153, 153, 153); font-size: 14px; font-family: inherit; stroke: transparent; letter-spacing: normal; padding: 8px; stroke-width: 0;">$150K</tspan></text></g><g role="presentation"><line x1="578" x2="15" y1="194" y2="194" role="presentation" shape-rendering="auto" vector-effect="non-scaling-stroke" style="stroke: rgb(226, 226, 226); fill: transparent; stroke-width: 1; stroke-linecap: round; stroke-linejoin: round; pointer-events: none;"></line><line x1="578" x2="582" y1="194" y2="194" role="presentation" shape-rendering="auto" vector-effect="non-scaling-stroke" style="stroke: transparent; fill: transparent; size: 4px; stroke-width: 1; stroke-linecap: round; stroke-linejoin: round;"></line><text dx="0" dy="4.97" x="590" y="194"><tspan x="590" dx="0" text-anchor="start" style="fill: rgb(153, 153, 153); font-size: 14px; font-family: inherit; stroke: transparent; letter-spacing: normal; padding: 8px; stroke-width: 0;">$200K</tspan></text></g><g role="presentation"><line x1="578" x2="15" y1="154" y2="154" role="presentation" shape-rendering="auto" vector-effect="non-scaling-stroke" style="stroke: rgb(226, 226, 226); fill: transparent; stroke-width: 1; stroke-linecap: round; stroke-linejoin: round; pointer-events: none;"></line><line x1="578" x2="582" y1="154" y2="154" role="presentation" shape-rendering="auto" vector-effect="non-scaling-stroke" style="stroke: transparent; fill: transparent; size: 4px; stroke-width: 1; stroke-linecap: round; stroke-linejoin: round;"></line><text dx="0" dy="4.97" x="590" y="154"><tspan x="590" dx="0" text-anchor="start" style="fill: rgb(153, 153, 153); font-size: 14px; font-family: inherit; stroke: transparent; letter-spacing: normal; padding: 8px; stroke-width: 0;">$250K</tspan></text></g><g role="presentation"><line x1="578" x2="15" y1="114" y2="114" role="presentation" shape-rendering="auto" vector-effect="non-scaling-stroke" style="stroke: rgb(226, 226, 226); fill: transparent; stroke-width: 1; stroke-linecap: round; stroke-linejoin: round; pointer-events: none;"></line><line x1="578" x2="582" y1="114" y2="114" role="presentation" shape-rendering="auto" vector-effect="non-scaling-stroke" style="stroke: transparent; fill: transparent; size: 4px; stroke-width: 1; stroke-linecap: round; stroke-linejoin: round;"></line><text dx="0" dy="4.97" x="590" y="114"><tspan x="590" dx="0" text-anchor="start" style="fill: rgb(153, 153, 153); font-size: 14px; font-family: inherit; stroke: transparent; letter-spacing: normal; padding: 8px; stroke-width: 0;">$300K</tspan></text></g><g role="presentation"><line x1="578" x2="15" y1="74" y2="74" role="presentation" shape-rendering="auto" vector-effect="non-scaling-stroke" style="stroke: rgb(226, 226, 226); fill: transparent; stroke-width: 1; stroke-linecap: round; stroke-linejoin: round; pointer-events: none;"></line><line x1="578" x2="582" y1="74" y2="74" role="presentation" shape-rendering="auto" vector-effect="non-scaling-stroke" style="stroke: transparent; fill: transparent; size: 4px; stroke-width: 1; stroke-linecap: round; stroke-linejoin: round;"></line><text dx="0" dy="4.97" x="590" y="74"><tspan x="590" dx="0" text-anchor="start" style="fill: rgb(153, 153, 153); font-size: 14px; font-family: inherit; stroke: transparent; letter-spacing: normal; padding: 8px; stroke-width: 0;">$350K</tspan></text></g><g role="presentation"><line x1="578" x2="15" y1="34" y2="34" role="presentation" shape-rendering="auto" vector-effect="non-scaling-stroke" style="stroke: rgb(226, 226, 226); fill: transparent; stroke-width: 1; stroke-linecap: round; stroke-linejoin: round; pointer-events: none;"></line><line x1="578" x2="582" y1="34" y2="34" role="presentation" shape-rendering="auto" vector-effect="non-scaling-stroke" style="stroke: transparent; fill: transparent; size: 4px; stroke-width: 1; stroke-linecap: round; stroke-linejoin: round;"></line><text dx="0" dy="4.97" x="590" y="34"><tspan x="590" dx="0" text-anchor="start" style="fill: rgb(153, 153, 153); font-size: 14px; font-family: inherit; stroke: transparent; letter-spacing: normal; padding: 8px; stroke-width: 0;">$400K</tspan></text></g></g><g style="height: 100%; width: 100%; user-select: none;"><defs><clipPath id="victory-clip-2"><rect x="15" y="34" width="563" height="240"></rect></clipPath></defs><g clip-path="url(#victory-clip-2)"><path shape-rendering="auto" role="presentation" d="M24.5528188286809,146C27.73709177157453,138,30.921364714468165,130,34.1056376573618,130C37.28991060025543,130,40.47418354314906,190.8,43.658456486042695,190.8C46.7400109469075,190.8,49.821565407772304,142.95892825665436,52.90311986863711,125.60000000000002C56.08739281153075,107.66244080145722,59.271665754424376,85.80000000000001,62.45593869731801,85.80000000000001C65.54177309493402,85.80000000000001,68.62760749255003,108.87688624659009,71.71344189016602,122C74.89771483305965,135.5417429022704,78.0819877759533,166,81.26626071884692,166C84.45053366174056,166,87.63480660463419,157.47619047619048,90.81907954752783,156C93.69519704433499,154.66666666666666,96.57131454114213,155.20911847839355,99.44743203794928,154C102.62742504409171,152.66313239665712,105.80741805023415,152,108.98741105637657,148C112.06896551724138,144.12382234185733,115.15051997810617,125.19999999999999,118.23207443897098,125.19999999999999C121.41634738186463,125.19999999999999,124.60062032475825,135.17748633879782,127.7848932676519,140.4C130.8664477285167,145.45404547858277,133.9480021893815,154.70967741935485,137.02955665024632,156C140.21382959313993,157.33333333333334,143.39810253603358,158,146.5823754789272,158C149.76664842182083,158,152.95092136471445,132.4,156.1351943076081,132.4C159.2167487684729,132.4,162.2983032293377,164.60000000000002,165.37985769020253,164.60000000000002C168.56413063309614,164.60000000000002,171.74840357598978,152.39999999999998,174.9326765188834,152.39999999999998C178.0185109164994,152.39999999999998,181.10434531411542,153.99999999999997,184.19017971173142,157.2C187.37445265462506,160.50208044382802,190.55872559751867,178.07999999999998,193.74299854041232,178.07999999999998C196.92727148330596,178.07999999999998,200.1115444261996,129.2,203.29581736909324,129.2C206.1719348659004,129.2,209.04805236270755,149.23656040595617,211.9241698595147,158C215.10416286565712,167.68933871781925,218.28415587179956,184,221.46414887794197,184C224.5457033388068,184,227.62725779967158,130.13034838709686,230.7088122605364,122.00080000000003C233.89308520343002,113.60026666666668,237.07735814632366,109.4,240.26163108921727,109.4C243.3431855500821,109.4,246.4247400109469,182.07999999999998,249.5062944718117,182.07999999999998C252.69056741470536,182.07999999999998,255.874840357599,176,259.05911330049264,176C262.2433862433863,176,265.42765918627987,204,268.6119321291735,204C271.69348659003833,204,274.7750410509031,196.73333333333332,277.8565955117679,182.2C281.04086845466156,167.18222222222224,284.22514139755515,106.6,287.4094143404488,106.6C290.4952487380648,106.6,293.58108313568084,194.8,296.66691753329684,194.8C299.8511904761905,194.8,303.03546341908407,186.8,306.2197363619777,184C309.40400930487135,181.2,312.588282247765,182,315.77255519065864,178C318.6486726874658,174.38709677419354,321.52479018427294,141.4,324.4009076810801,141.4C327.58090068722254,141.4,330.76089369336495,204.8,333.94088669950736,204.8C337.0224411603722,204.8,340.10399562123695,184.12607086197775,343.18555008210177,171.2C346.3698230249954,157.84306010928958,349.55409596788905,125.60000000000002,352.7383689107827,125.60000000000002C355.8199233716475,125.60000000000002,358.9014778325123,167.6,361.9830322933771,167.6C365.16730523627075,167.6,368.35157817916433,165.39999999999998,371.535851122058,165.39999999999998C374.7201240649516,165.39999999999998,377.90439700784526,171.04888888888888,381.0886699507389,171.6C384.1702244116037,172.13333333333333,387.2517788724685,172.4,390.3333333333333,172.4C393.51760627622696,172.4,396.7018792191206,170.46666666666667,399.88615216201424,166.6C402.97198655963024,162.85286738351252,406.0578209572463,102,409.1436553548623,102C412.32792829775593,102,415.5122012406495,188.39999999999998,418.69647418354316,188.39999999999998C421.8807471264368,188.39999999999998,425.0650200693304,157.14988505747124,428.24929301222403,154C431.22812899106003,151.05333333333334,434.206964969896,152.52666666666667,437.185800948732,149.58C440.3657939548744,146.43434865900386,443.54578696101686,101.32,446.72577996715927,101.32C449.8073344280241,101.32,452.8888888888889,184.832,455.97044334975374,184.832C459.1547162926473,184.832,462.33898923554096,146.81777777777765,465.52326217843455,138C468.6048166392994,129.46666666666667,471.6863711001642,125.19999999999999,474.767925561029,125.19999999999999C477.95219850392266,125.19999999999999,481.1364714468163,167,484.32074438970994,167C487.50501733260353,167,490.68929027549717,162.39999999999998,493.87356321839076,162.39999999999998C496.9551176792556,162.39999999999998,500.0366721401204,176,503.1182266009852,176C506.3024995438788,176,509.48677248677245,170.550346740638,512.671045429666,170C515.7568798272821,169.46666666666667,518.8427142248981,169.73333333333332,521.9285486225142,169.2C525.1128215654078,168.649653259362,528.2970945083015,149.4,531.4813674511951,149.4C534.6656403940887,149.4,537.8499133369824,168,541.0341862798759,168C543.9103037766831,168,546.7864212734902,104,549.6625387702974,104C552.8425317764398,104,556.0225247825822,158.39999999999998,559.2025177887247,158.39999999999998C562.2840722495895,158.39999999999998,565.3656267104543,141.30625771196898,568.4471811713191,134C571.6314541142127,126.45020036429877,574.8157270571064,120.22510018214939,578,114" style="fill: transparent; stroke: rgb(51, 51, 51); stroke-width: 2; opacity: 1;"></path></g></g></svg>