<svg xmlns="http://www.w3.org/2000/svg" width="640" height="324" role="img" aria-labelledby="victory-container-4-title victory-container-4-desc" viewBox="0 0 640 324" style="pointer-events: all; width: 100%; height: 100%;"><g role="presentation"><line x1="15" x2="578" y1="274" y2="274" role="presentation" shape-rendering="auto" vector-effect="non-scaling-stroke" style="stroke: rgb(226, 226, 226); fill: transparent; stroke-width: 1; stroke-linejoin: round;"></line><g role="presentation"><line x1="81.26626071884692" x2="81.26626071884692" y1="274" y2="34" role="presentation" shape-rendering="auto" vector-effect="non-scaling-stroke" style="stroke: transparent; fill: transparent; stroke-width: 1; stroke-linecap: round; stroke-linejoin: round; pointer-events: none;"></line><line x1="81.26626071884692" x2="81.26626071884692" y1="274" y2="278" role="presentation" shape-rendering="auto" vector-effect="non-scaling-stroke" style="stroke: transparent; fill: transparent; size: 4px; stroke-width: 1; stroke-linecap: round; stroke-linejoin: round;"></line><text dx="0" dy="11.969999999999999" x="81.26626071884692" y="286"><tspan x="81.26626071884692" dx="0" text-anchor="middle" style="fill: rgb(153, 153, 153); font-size: 14px; font-family: inherit; stroke: transparent; letter-spacing: normal; padding: 8px; stroke-width: 0;">2017</tspan></text></g><g role="presentation"><line x1="193.74299854041232" x2="193.74299854041232" y1="274" y2="34" role="presentation" shape-rendering="auto" vector-effect="non-scaling-stroke" style="stroke: transparent; fill: transparent; stroke-width: 1; stroke-linecap: round; stroke-linejoin: round; pointer-events: none;"></line><line x1="193.74299854041232" x2="193.74299854041232" y1="274" y2="278" role="presentation" shape-rendering="auto" vector-effect="non-scaling-stroke" style="stroke: transparent; fill: transparent; size: 4px; stroke-width: 1; stroke-linecap: round; stroke-linejoin: round;"></line><text dx="0" dy="11.969999999999999" x="193.74299854041232" y="286"><tspan x="193.74299854041232" dx="0" text-anchor="middle" style="fill: rgb(153, 153, 153); font-size: 14px; font-family: inherit; stroke: transparent; letter-spacing: normal; padding: 8px; stroke-width: 0;">2018</tspan></text></g><g role="presentation"><line x1="306.2197363619777" x2="306.2197363619777" y1="274" y2="34" role="presentation" shape-rendering="auto" vector-effect="non-scaling-stroke" style="stroke: transparent; fill: transparent; stroke-width: 1; stroke-linecap: round; stroke-linejoin: round; pointer-events: none;"></line><line x1="306.2197363619777" x2="306.2197363619777" y1="274" y2="278" role="presentation" shape-rendering="auto" vector-effect="non-scaling-stroke" style="stroke: transparent; fill: transparent; size: 4px; stroke-width: 1; stroke-linecap: round; stroke-linejoin: round;"></line><text dx="0" dy="11.969999999999999" x="306.2197363619777" y="286"><tspan x="306.2197363619777" dx="0" text-anchor="middle" style="fill: rgb(153, 153, 153); font-size: 14px; font-family: inherit; stroke: transparent; letter-spacing: normal; padding: 8px; stroke-width: 0;">2019</tspan></text></g><g role="presentation"><line x1="418.69647418354316" x2="418.69647418354316" y1="274" y2="34" role="presentation" shape-rendering="auto" vector-effect="non-scaling-stroke" style="stroke: transparent; fill: transparent; stroke-width: 1; stroke-linecap: round; stroke-linejoin: round; pointer-events: none;"></line><line x1="418.69647418354316" x2="418.69647418354316" y1="274" y2="278" role="presentation" shape-rendering="auto" vector-effect="non-scaling-stroke" style="stroke: transparent; fill: transparent; size: 4px; stroke-width: 1; stroke-linecap: round; stroke-linejoin: round;"></line><text dx="0" dy="11.969999999999999" x="418.69647418354316" y="286"><tspan x="418.69647418354316" dx="0" text-anchor="middle" style="fill: rgb(153, 153, 153); font-size: 14px; font-family: inherit; stroke: transparent; letter-spacing: normal; padding: 8px; stroke-width: 0;">2020</tspan></text></g><g role="presentation"><line x1="531.4813674511951" x2="531.4813674511951" y1="274" y2="34" role="presentation" shape-rendering="auto" vector-effect="non-scaling-stroke" style="stroke: transparent; fill: transparent; stroke-width: 1; stroke-linecap: round; stroke-linejoin: round; pointer-events: none;"></line><line x1="531.4813674511951" x2="531.4813674511951" y1="274" y2="278" role="presentation" shape-rendering="auto" vector-effect="non-scaling-stroke" style="stroke: transparent; fill: transparent; size: 4px; stroke-width: 1; stroke-linecap: round; stroke-linejoin: round;"></line><text dx="0" dy="11.969999999999999" x="531.4813674511951" y="286"><tspan x="531.4813674511951" dx="0" text-anchor="middle" style="fill: rgb(153, 153, 153); font-size: 14px; font-family: inherit; stroke: transparent; letter-spacing: normal; padding: 8px; stroke-width: 0;">2021</tspan></text></g></g><g role="presentation"><line x1="578" x2="578" y1="34" y2="274" role="presentation" shape-rendering="auto" vector-effect="non-scaling-stroke" style="stroke: transparent; fill: transparent; stroke-width: 1; stroke-linejoin: round;"></line><g role="presentation"><line x1="578" x2="15" y1="274" y2="274" role="presentation" shape-rendering="auto" vector-effect="non-scaling-stroke" style="stroke: rgb(226, 226, 226); fill: transparent; stroke-width: 1; stroke-linecap: round; stroke-linejoin: round; pointer-events: none;"></line><line x1="578" x2="582" y1="274" y2="274" role="presentation" shape-rendering="auto" vector-effect="non-scaling-stroke" style="stroke: transparent; fill: transparent; size: 4px; stroke-width: 1; stroke-linecap: round; stroke-linejoin: round;"></line><text dx="0" dy="4.97" x="590" y="274"><tspan x="590" dx="0" text-anchor="start" style="fill: rgb(153, 153, 153); font-size: 14px; font-family: inherit; stroke: transparent; letter-spacing: normal; padding: 8px; stroke-width: 0;">$300K</tspan></text></g><g role="presentation"><line x1="578" x2="15" y1="226" y2="226" role="presentation" shape-rendering="auto" vector-effect="non-scaling-stroke" style="stroke: rgb(226, 226, 226); fill: transparent; stroke-width: 1; stroke-linecap: round; stroke-linejoin: round; pointer-events: none;"></line><line x1="578" x2="582" y1="226" y2="226" role="presentation" shape-rendering="auto" vector-effect="non-scaling-stroke" style="stroke: transparent; fill: transparent; size: 4px; stroke-width: 1; stroke-linecap: round; stroke-linejoin: round;"></line><text dx="0" dy="4.97" x="590" y="226"><tspan x="590" dx="0" text-anchor="start" style="fill: rgb(153, 153, 153); font-size: 14px; font-family: inherit; stroke: transparent; letter-spacing: normal; padding: 8px; stroke-width: 0;">$400K</tspan></text></g><g role="presentation"><line x1="578" x2="15" y1="178" y2="178" role="presentation" shape-rendering="auto" vector-effect="non-scaling-stroke" style="stroke: rgb(226, 226, 226); fill: transparent; stroke-width: 1; stroke-linecap: round; stroke-linejoin: round; pointer-events: none;"></line><line x1="578" x2="582" y1="178" y2="178" role="presentation" shape-rendering="auto" vector-effect="non-scaling-stroke" style="stroke: transparent; fill: transparent; size: 4px; stroke-width: 1; stroke-linecap: round; stroke-linejoin: round;"></line><text dx="0" dy="4.97" x="590" y="178"><tspan x="590" dx="0" text-anchor="start" style="fill: rgb(153, 153, 153); font-size: 14px; font-family: inherit; stroke: transparent; letter-spacing: normal; padding: 8px; stroke-width: 0;">$500K</tspan></text></g><g role="presentation"><line x1="578" x2="15" y1="130" y2="130" role="presentation" shape-rendering="auto" vector-effect="non-scaling-stroke" style="stroke: rgb(226, 226, 226); fill: transparent; stroke-width: 1; stroke-linecap: round; stroke-linejoin: round; pointer-events: none;"></line><line x1="578" x2="582" y1="130" y2="130" role="presentation" shape-rendering="auto" vector-effect="non-scaling-stroke" style="stroke: transparent; fill: transparent; size: 4px; stroke-width: 1; stroke-linecap: round; stroke-linejoin: round;"></line><text dx="0" dy="4.97" x="590" y="130"><tspan x="590" dx="0" text-anchor="start" style="fill: rgb(153, 153, 153); font-size: 14px; font-family: inherit; stroke: transparent; letter-spacing: normal; padding: 8px; stroke-width: 0;">$600K</tspan></text></g><g role="presentation"><line x1="578" x2="15" y1="82" y2="82" role="presentation" shape-rendering="auto" vector-effect="non-scaling-stroke" style="stroke: rgb(226, 226, 226); fill: transparent; stroke-width: 1; stroke-linecap: round; stroke-linejoin: round; pointer-events: none;"></line><line x1="578" x2="582" y1="82" y2="82" role="presentation" shape-rendering="auto" vector-effect="non-scaling-stroke" style="stroke: transparent; fill: transparent; size: 4px; stroke-width: 1; stroke-linecap: round; stroke-linejoin: round;"></line><text dx="0" dy="4.97" x="590" y="82"><tspan x="590" dx="0" text-anchor="start" style="fill: rgb(153, 153, 153); font-size: 14px; font-family: inherit; stroke: transparent; letter-spacing: normal; padding: 8px; stroke-width: 0;">$700K</tspan></text></g><g role="presentation"><line x1="578" x2="15" y1="34" y2="34" role="presentation" shape-rendering="auto" vector-effect="non-scaling-stroke" style="stroke: rgb(226, 226, 226); fill: transparent; stroke-width: 1; stroke-linecap: round; stroke-linejoin: round; pointer-events: none;"></line><line x1="578" x2="582" y1="34" y2="34" role="presentation" shape-rendering="auto" vector-effect="non-scaling-stroke" style="stroke: transparent; fill: transparent; size: 4px; stroke-width: 1; stroke-linecap: round; stroke-linejoin: round;"></line><text dx="0" dy="4.97" x="590" y="34"><tspan x="590" dx="0" text-anchor="start" style="fill: rgb(153, 153, 153); font-size: 14px; font-family: inherit; stroke: transparent; letter-spacing: normal; padding: 8px; stroke-width: 0;">$800K</tspan></text></g></g><g style="height: 100%; width: 100%; user-select: none;"><defs><clipPath id="victory-clip-5"><rect x="15" y="34" width="563" height="240"></rect></clipPath></defs><g clip-path="url(#victory-clip-5)"><path shape-rendering="auto" role="presentation" d="M15.30815544608648,159.856C18.389709906951285,167.14000000000001,21.471264367816094,174.424,24.5528188286809,174.424C27.73709177157453,174.424,30.921364714468165,156.88,34.1056376573618,156.88C37.28991060025543,156.88,40.47418354314906,158.278,43.658456486042695,161.074C46.7400109469075,163.77980645161293,49.821565407772304,196.6,52.90311986863711,196.6C56.08739281153075,196.6,59.271665754424376,146.8,62.45593869731801,146.8C65.54177309493402,146.8,68.62760749255003,169.7519490623509,71.71344189016602,180.39999999999998C74.89771483305965,191.38772523940486,78.0819877759533,200.63036,81.26626071884692,211.6C84.45053366174056,222.56964,87.63480660463419,246.21784,90.81907954752783,246.21784C93.69519704433499,246.21784,96.57131454114213,180.96527590847913,99.44743203794928,163.6C102.62742504409171,144.4,105.80741805023415,148.32914786967422,108.98741105637657,134.8C112.06896551724138,121.68965482346513,115.15051997810617,84.39999999999998,118.23207443897098,84.39999999999998C121.41634738186463,84.39999999999998,124.60062032475825,181.5991256830601,127.7848932676519,209.2C130.8664477285167,235.91052353252246,133.9480021893815,250,137.02955665024632,250C140.21382959313993,250,143.39810253603358,162.39999999999998,146.5823754789272,154.24C149.76664842182083,146.08,152.95092136471445,142,156.1351943076081,142C159.2167487684729,142,162.2983032293377,143.28,165.37985769020253,145.84C168.56413063309614,148.48533333333333,171.74840357598978,222.4,174.9326765188834,222.4C178.0185109164994,222.4,181.10434531411542,35.19999999999999,184.19017971173142,35.19999999999999C187.37445265462506,35.19999999999999,190.55872559751867,218.39999999999998,193.74299854041232,219.04C196.92727148330596,219.68,200.1115444261996,219.35999999999999,203.29581736909324,220C206.1719348659004,220.57806451612905,209.04805236270755,233.00799999999998,211.9241698595147,233.00799999999998C215.10416286565712,233.00799999999998,218.28415587179956,136.6,221.46414887794197,136.6C224.5457033388068,136.6,227.62725779967158,173.68,230.7088122605364,173.68C233.89308520343002,173.68,237.07735814632366,94,240.26163108921727,94C243.3431855500821,94,246.4247400109469,133.7351665785299,249.5062944718117,158.8C252.69056741470536,184.70032786885247,255.874840357599,247.6,259.05911330049264,247.6C262.2433862433863,247.6,265.42765918627987,222.57455737704913,268.6119321291735,197.92000000000002C271.69348659003833,174.06075092543628,274.7750410509031,103.60000000000002,277.8565955117679,103.60000000000002C281.04086845466156,103.60000000000002,284.22514139755515,229.12,287.4094143404488,229.12C290.4952487380648,229.12,293.58108313568084,152.8,296.66691753329684,152.8C299.8511904761905,152.8,303.03546341908407,233.16000000000003,306.2197363619777,239.416C309.40400930487135,245.672,312.588282247765,248.8,315.77255519065864,248.8C318.6486726874658,248.8,321.52479018427294,183.33248116270124,324.4009076810801,153.4C327.58090068722254,120.30500966683513,330.76089369336495,60.964,333.94088669950736,60.964C337.0224411603722,60.964,340.10399562123695,95.44720676890535,343.18555008210177,110.79999999999998C346.3698230249954,126.6645530054645,349.55409596788905,154.36,352.7383689107827,154.36C355.8199233716475,154.36,358.9014778325123,55.599999999999994,361.9830322933771,55.599999999999994C365.16730523627075,55.599999999999994,368.35157817916433,172.7200000000002,371.535851122058,205.12C374.7201240649516,237.52,377.90439700784526,253.72,381.0886699507389,253.72C384.1702244116037,253.72,387.2517788724685,195.34766790058168,390.3333333333333,170.8C393.51760627622696,145.43407650273218,396.7018792191206,104.608,399.88615216201424,104.608C402.97198655963024,104.608,406.0578209572463,152.84406302616603,409.1436553548623,176.2C412.32792829775593,200.3009946026801,415.5122012406495,246.88,418.69647418354316,246.88C421.8807471264368,246.88,425.0650200693304,101.20000000000002,428.24929301222403,101.20000000000002C431.22812899106003,101.20000000000002,434.206964969896,194.8,437.185800948732,194.8C440.3657939548744,194.8,443.54578696101686,173.16007161980704,446.72577996715927,156.79408C449.8073344280241,140.9347072324884,452.8888888888889,98.80000000000001,455.97044334975374,98.80000000000001C459.1547162926473,98.80000000000001,462.33898923554096,104.68,465.52326217843455,116.44C468.6048166392994,127.82064516129047,471.6863711001642,172.24,474.767925561029,172.24C477.95219850392266,172.24,481.1364714468163,74.80000000000001,484.32074438970994,74.80000000000001C487.50501733260353,74.80000000000001,490.68929027549717,108.17009836065596,493.87356321839076,130.24C496.9551176792556,151.5979693283978,500.0366721401204,204.4,503.1182266009852,204.4C506.3024995438788,204.4,509.48677248677245,148.24,512.671045429666,148.24C515.7568798272821,148.24,518.8427142248981,166,521.9285486225142,166C525.1128215654078,166,528.2970945083015,141.7184,531.4813674511951,134.7184C534.6656403940887,127.7184,537.8499133369824,124,541.0341862798759,124C543.9103037766831,124,546.7864212734902,173.2,549.6625387702974,173.2C552.8425317764398,173.2,556.0225247825822,135.76000000000002,559.2025177887247,135.76000000000002C562.2840722495895,135.76000000000002,565.3656267104543,156.4,568.4471811713191,156.4C571.6314541142127,156.4,574.8157270571064,156.16000000000003,578,155.92000000000002" style="fill: transparent; stroke: rgb(51, 51, 51); stroke-width: 2; opacity: 1;"></path></g></g></svg>