<svg xmlns="http://www.w3.org/2000/svg" width="640" height="324" role="img" aria-labelledby="victory-container-4-title victory-container-4-desc" viewBox="0 0 640 324" style="pointer-events: all; width: 100%; height: 100%;"><g role="presentation"><line x1="15" x2="578" y1="274" y2="274" role="presentation" shape-rendering="auto" vector-effect="non-scaling-stroke" style="stroke: rgb(226, 226, 226); fill: transparent; stroke-width: 1; stroke-linejoin: round;"></line><g role="presentation"><line x1="81.26626071884692" x2="81.26626071884692" y1="274" y2="34" role="presentation" shape-rendering="auto" vector-effect="non-scaling-stroke" style="stroke: transparent; fill: transparent; stroke-width: 1; stroke-linecap: round; stroke-linejoin: round; pointer-events: none;"></line><line x1="81.26626071884692" x2="81.26626071884692" y1="274" y2="278" role="presentation" shape-rendering="auto" vector-effect="non-scaling-stroke" style="stroke: transparent; fill: transparent; size: 4px; stroke-width: 1; stroke-linecap: round; stroke-linejoin: round;"></line><text dx="0" dy="11.969999999999999" x="81.26626071884692" y="286"><tspan x="81.26626071884692" dx="0" text-anchor="middle" style="fill: rgb(153, 153, 153); font-size: 14px; font-family: inherit; stroke: transparent; letter-spacing: normal; padding: 8px; stroke-width: 0;">2017</tspan></text></g><g role="presentation"><line x1="193.74299854041232" x2="193.74299854041232" y1="274" y2="34" role="presentation" shape-rendering="auto" vector-effect="non-scaling-stroke" style="stroke: transparent; fill: transparent; stroke-width: 1; stroke-linecap: round; stroke-linejoin: round; pointer-events: none;"></line><line x1="193.74299854041232" x2="193.74299854041232" y1="274" y2="278" role="presentation" shape-rendering="auto" vector-effect="non-scaling-stroke" style="stroke: transparent; fill: transparent; size: 4px; stroke-width: 1; stroke-linecap: round; stroke-linejoin: round;"></line><text dx="0" dy="11.969999999999999" x="193.74299854041232" y="286"><tspan x="193.74299854041232" dx="0" text-anchor="middle" style="fill: rgb(153, 153, 153); font-size: 14px; font-family: inherit; stroke: transparent; letter-spacing: normal; padding: 8px; stroke-width: 0;">2018</tspan></text></g><g role="presentation"><line x1="306.2197363619777" x2="306.2197363619777" y1="274" y2="34" role="presentation" shape-rendering="auto" vector-effect="non-scaling-stroke" style="stroke: transparent; fill: transparent; stroke-width: 1; stroke-linecap: round; stroke-linejoin: round; pointer-events: none;"></line><line x1="306.2197363619777" x2="306.2197363619777" y1="274" y2="278" role="presentation" shape-rendering="auto" vector-effect="non-scaling-stroke" style="stroke: transparent; fill: transparent; size: 4px; stroke-width: 1; stroke-linecap: round; stroke-linejoin: round;"></line><text dx="0" dy="11.969999999999999" x="306.2197363619777" y="286"><tspan x="306.2197363619777" dx="0" text-anchor="middle" style="fill: rgb(153, 153, 153); font-size: 14px; font-family: inherit; stroke: transparent; letter-spacing: normal; padding: 8px; stroke-width: 0;">2019</tspan></text></g><g role="presentation"><line x1="418.69647418354316" x2="418.69647418354316" y1="274" y2="34" role="presentation" shape-rendering="auto" vector-effect="non-scaling-stroke" style="stroke: transparent; fill: transparent; stroke-width: 1; stroke-linecap: round; stroke-linejoin: round; pointer-events: none;"></line><line x1="418.69647418354316" x2="418.69647418354316" y1="274" y2="278" role="presentation" shape-rendering="auto" vector-effect="non-scaling-stroke" style="stroke: transparent; fill: transparent; size: 4px; stroke-width: 1; stroke-linecap: round; stroke-linejoin: round;"></line><text dx="0" dy="11.969999999999999" x="418.69647418354316" y="286"><tspan x="418.69647418354316" dx="0" text-anchor="middle" style="fill: rgb(153, 153, 153); font-size: 14px; font-family: inherit; stroke: transparent; letter-spacing: normal; padding: 8px; stroke-width: 0;">2020</tspan></text></g><g role="presentation"><line x1="531.4813674511951" x2="531.4813674511951" y1="274" y2="34" role="presentation" shape-rendering="auto" vector-effect="non-scaling-stroke" style="stroke: transparent; fill: transparent; stroke-width: 1; stroke-linecap: round; stroke-linejoin: round; pointer-events: none;"></line><line x1="531.4813674511951" x2="531.4813674511951" y1="274" y2="278" role="presentation" shape-rendering="auto" vector-effect="non-scaling-stroke" style="stroke: transparent; fill: transparent; size: 4px; stroke-width: 1; stroke-linecap: round; stroke-linejoin: round;"></line><text dx="0" dy="11.969999999999999" x="531.4813674511951" y="286"><tspan x="531.4813674511951" dx="0" text-anchor="middle" style="fill: rgb(153, 153, 153); font-size: 14px; font-family: inherit; stroke: transparent; letter-spacing: normal; padding: 8px; stroke-width: 0;">2021</tspan></text></g></g><g role="presentation"><line x1="578" x2="578" y1="34" y2="274" role="presentation" shape-rendering="auto" vector-effect="non-scaling-stroke" style="stroke: transparent; fill: transparent; stroke-width: 1; stroke-linejoin: round;"></line><g role="presentation"><line x1="578" x2="15" y1="274" y2="274" role="presentation" shape-rendering="auto" vector-effect="non-scaling-stroke" style="stroke: rgb(226, 226, 226); fill: transparent; stroke-width: 1; stroke-linecap: round; stroke-linejoin: round; pointer-events: none;"></line><line x1="578" x2="582" y1="274" y2="274" role="presentation" shape-rendering="auto" vector-effect="non-scaling-stroke" style="stroke: transparent; fill: transparent; size: 4px; stroke-width: 1; stroke-linecap: round; stroke-linejoin: round;"></line><text dx="0" dy="4.97" x="590" y="274"><tspan x="590" dx="0" text-anchor="start" style="fill: rgb(153, 153, 153); font-size: 14px; font-family: inherit; stroke: transparent; letter-spacing: normal; padding: 8px; stroke-width: 0;">$200K</tspan></text></g><g role="presentation"><line x1="578" x2="15" y1="234" y2="234" role="presentation" shape-rendering="auto" vector-effect="non-scaling-stroke" style="stroke: rgb(226, 226, 226); fill: transparent; stroke-width: 1; stroke-linecap: round; stroke-linejoin: round; pointer-events: none;"></line><line x1="578" x2="582" y1="234" y2="234" role="presentation" shape-rendering="auto" vector-effect="non-scaling-stroke" style="stroke: transparent; fill: transparent; size: 4px; stroke-width: 1; stroke-linecap: round; stroke-linejoin: round;"></line><text dx="0" dy="4.97" x="590" y="234"><tspan x="590" dx="0" text-anchor="start" style="fill: rgb(153, 153, 153); font-size: 14px; font-family: inherit; stroke: transparent; letter-spacing: normal; padding: 8px; stroke-width: 0;">$250K</tspan></text></g><g role="presentation"><line x1="578" x2="15" y1="194" y2="194" role="presentation" shape-rendering="auto" vector-effect="non-scaling-stroke" style="stroke: rgb(226, 226, 226); fill: transparent; stroke-width: 1; stroke-linecap: round; stroke-linejoin: round; pointer-events: none;"></line><line x1="578" x2="582" y1="194" y2="194" role="presentation" shape-rendering="auto" vector-effect="non-scaling-stroke" style="stroke: transparent; fill: transparent; size: 4px; stroke-width: 1; stroke-linecap: round; stroke-linejoin: round;"></line><text dx="0" dy="4.97" x="590" y="194"><tspan x="590" dx="0" text-anchor="start" style="fill: rgb(153, 153, 153); font-size: 14px; font-family: inherit; stroke: transparent; letter-spacing: normal; padding: 8px; stroke-width: 0;">$300K</tspan></text></g><g role="presentation"><line x1="578" x2="15" y1="154" y2="154" role="presentation" shape-rendering="auto" vector-effect="non-scaling-stroke" style="stroke: rgb(226, 226, 226); fill: transparent; stroke-width: 1; stroke-linecap: round; stroke-linejoin: round; pointer-events: none;"></line><line x1="578" x2="582" y1="154" y2="154" role="presentation" shape-rendering="auto" vector-effect="non-scaling-stroke" style="stroke: transparent; fill: transparent; size: 4px; stroke-width: 1; stroke-linecap: round; stroke-linejoin: round;"></line><text dx="0" dy="4.97" x="590" y="154"><tspan x="590" dx="0" text-anchor="start" style="fill: rgb(153, 153, 153); font-size: 14px; font-family: inherit; stroke: transparent; letter-spacing: normal; padding: 8px; stroke-width: 0;">$350K</tspan></text></g><g role="presentation"><line x1="578" x2="15" y1="114" y2="114" role="presentation" shape-rendering="auto" vector-effect="non-scaling-stroke" style="stroke: rgb(226, 226, 226); fill: transparent; stroke-width: 1; stroke-linecap: round; stroke-linejoin: round; pointer-events: none;"></line><line x1="578" x2="582" y1="114" y2="114" role="presentation" shape-rendering="auto" vector-effect="non-scaling-stroke" style="stroke: transparent; fill: transparent; size: 4px; stroke-width: 1; stroke-linecap: round; stroke-linejoin: round;"></line><text dx="0" dy="4.97" x="590" y="114"><tspan x="590" dx="0" text-anchor="start" style="fill: rgb(153, 153, 153); font-size: 14px; font-family: inherit; stroke: transparent; letter-spacing: normal; padding: 8px; stroke-width: 0;">$400K</tspan></text></g><g role="presentation"><line x1="578" x2="15" y1="74" y2="74" role="presentation" shape-rendering="auto" vector-effect="non-scaling-stroke" style="stroke: rgb(226, 226, 226); fill: transparent; stroke-width: 1; stroke-linecap: round; stroke-linejoin: round; pointer-events: none;"></line><line x1="578" x2="582" y1="74" y2="74" role="presentation" shape-rendering="auto" vector-effect="non-scaling-stroke" style="stroke: transparent; fill: transparent; size: 4px; stroke-width: 1; stroke-linecap: round; stroke-linejoin: round;"></line><text dx="0" dy="4.97" x="590" y="74"><tspan x="590" dx="0" text-anchor="start" style="fill: rgb(153, 153, 153); font-size: 14px; font-family: inherit; stroke: transparent; letter-spacing: normal; padding: 8px; stroke-width: 0;">$450K</tspan></text></g><g role="presentation"><line x1="578" x2="15" y1="34" y2="34" role="presentation" shape-rendering="auto" vector-effect="non-scaling-stroke" style="stroke: rgb(226, 226, 226); fill: transparent; stroke-width: 1; stroke-linecap: round; stroke-linejoin: round; pointer-events: none;"></line><line x1="578" x2="582" y1="34" y2="34" role="presentation" shape-rendering="auto" vector-effect="non-scaling-stroke" style="stroke: transparent; fill: transparent; size: 4px; stroke-width: 1; stroke-linecap: round; stroke-linejoin: round;"></line><text dx="0" dy="4.97" x="590" y="34"><tspan x="590" dx="0" text-anchor="start" style="fill: rgb(153, 153, 153); font-size: 14px; font-family: inherit; stroke: transparent; letter-spacing: normal; padding: 8px; stroke-width: 0;">$500K</tspan></text></g></g><g style="height: 100%; width: 100%; user-select: none;"><defs><clipPath id="victory-clip-5"><rect x="15" y="34" width="563" height="240"></rect></clipPath></defs><g clip-path="url(#victory-clip-5)"><path shape-rendering="auto" role="presentation" d="M15.30815544608648,182.8C18.389709906951285,178.5928432927904,21.471264367816094,174.38568658558083,24.5528188286809,171.6C27.73709177157453,168.7214571948998,30.921364714468165,166,34.1056376573618,166C37.28991060025543,166,40.47418354314906,171.46666666666667,43.658456486042695,182.4C46.7400109469075,192.98064516129034,49.821565407772304,234,52.90311986863711,234C56.08739281153075,234,59.271665754424376,214.88078654504315,62.45593869731801,201.6C65.54177309493402,188.729775404602,68.62760749255003,156,71.71344189016602,156C74.89771483305965,156,78.0819877759533,198.8,81.26626071884692,198.8C84.45053366174056,198.8,87.63480660463419,187.57825665859565,90.81907954752783,178.07999999999998C93.69519704433499,169.50092946965555,96.57131454114213,146,99.44743203794928,146C102.62742504409171,146,105.80741805023415,174.9704209399762,108.98741105637657,184C112.06896551724138,192.75006315372426,115.15051997810617,200.004,118.23207443897098,200.004C121.41634738186463,200.004,124.60062032475825,155.2,127.7848932676519,155.2C130.8664477285167,155.2,133.9480021893815,173.74193548387095,137.02955665024632,178C140.21382959313993,182.4,143.39810253603358,184.6,146.5823754789272,184.6C149.76664842182083,184.6,152.95092136471445,181.86666666666665,156.1351943076081,176.39999999999998C159.2167487684729,171.1096774193548,162.2983032293377,151.6,165.37985769020253,151.6C168.56413063309614,151.6,171.74840357598978,179.9376983869263,174.9326765188834,192.8C178.0185109164994,205.26467669761584,181.10434531411542,227.74,184.19017971173142,227.74C187.37445265462506,227.74,190.55872559751867,170,193.74299854041232,170C196.92727148330596,170,200.1115444261996,172.8,203.29581736909324,178.4C206.1719348659004,183.45806451612904,209.04805236270755,221.92000000000002,211.9241698595147,221.92000000000002C215.10416286565712,221.92000000000002,218.28415587179956,154,221.46414887794197,154C224.5457033388068,154,227.62725779967158,154.00026666666668,230.7088122605364,154.0008C233.89308520343002,154.00135111111112,237.07735814632366,156.4,240.26163108921727,156.4C243.3431855500821,156.4,246.4247400109469,154,249.5062944718117,154C252.69056741470536,154,255.874840357599,162,259.05911330049264,162C262.2433862433863,162,265.42765918627987,136,268.6119321291735,136C271.69348659003833,136,274.7750410509031,155.84,277.8565955117679,155.84C281.04086845466156,155.84,284.22514139755515,153.34291142872922,287.4094143404488,151.68C290.4952487380648,150.068495779417,293.58108313568084,146.06719999999999,296.66691753329684,146.06719999999999C299.8511904761905,146.06719999999999,303.03546341908407,161.4112,306.2197363619777,166.4C309.40400930487135,171.38880000000003,312.588282247765,176,315.77255519065864,176C318.6486726874658,176,321.52479018427294,157.73268640646035,324.4009076810801,153.846C327.58090068722254,149.54866666666666,330.76089369336495,147.4,333.94088669950736,147.4C337.0224411603722,147.4,340.10399562123695,150.3284611316764,343.18555008210177,152.83C346.3698230249954,155.41492349726778,349.55409596788905,157.79069581056467,352.7383689107827,162.8C355.8199233716475,167.64771373171163,358.9014778325123,182.07999999999998,361.9830322933771,182.07999999999998C365.16730523627075,182.07999999999998,368.35157817916433,168.82219999999995,371.535851122058,159.2C374.7201240649516,149.57779999999997,377.90439700784526,124.3468,381.0886699507389,124.3468C384.1702244116037,124.3468,387.2517788724685,145.6608,390.3333333333333,145.6608C393.51760627622696,145.6608,396.7018792191206,125.24000000000001,399.88615216201424,125.24000000000001C402.97198655963024,125.24000000000001,406.0578209572463,146.22375820519403,409.1436553548623,155.2C412.32792829775593,164.4625851530313,415.5122012406495,179.76,418.69647418354316,179.76C421.8807471264368,179.76,425.0650200693304,166.10903448275863,428.24929301222403,161.60000000000002C431.22812899106003,157.38187096774195,434.206964969896,153,437.185800948732,153C440.3657939548744,153,443.54578696101686,155.42746666666667,446.72577996715927,160.2824C449.8073344280241,164.9870460296097,452.8888888888889,188,455.97044334975374,188C459.1547162926473,188,462.33898923554096,182.33333333333334,465.52326217843455,171C468.6048166392994,160.032258064516,471.6863711001642,114.80000000000001,474.767925561029,114.80000000000001C477.95219850392266,114.80000000000001,481.1364714468163,129.13333333333333,484.32074438970994,134C487.50501733260353,138.86666666666662,490.68929027549717,141.67594761384336,493.87356321839076,144C496.9551176792556,146.24908295434517,500.0366721401204,147.91160000000002,503.1182266009852,147.91160000000002C506.3024995438788,147.91160000000002,509.48677248677245,132,512.671045429666,132C515.7568798272821,132,518.8427142248981,134,521.9285486225142,134C525.1128215654078,134,528.2970945083015,115.22559999999999,531.4813674511951,115.22559999999999C534.6656403940887,115.22559999999999,537.8499133369824,150,541.0341862798759,150C543.9103037766831,150,546.7864212734902,141.71620276883422,549.6625387702974,136.8C552.8425317764398,131.36437699814908,556.0225247825822,118.60000000000002,559.2025177887247,118.60000000000002C562.2840722495895,118.60000000000002,565.3656267104543,130,568.4471811713191,130C571.6314541142127,130,574.8157270571064,118,578,106" style="fill: transparent; stroke: rgb(51, 51, 51); stroke-width: 2; opacity: 1;"></path></g></g></svg>