<svg xmlns="http://www.w3.org/2000/svg" width="640" height="324" role="img" aria-labelledby="victory-container-4-title victory-container-4-desc" viewBox="0 0 640 324" style="pointer-events: all; width: 100%; height: 100%;"><g role="presentation"><line x1="15" x2="578" y1="274" y2="274" role="presentation" shape-rendering="auto" vector-effect="non-scaling-stroke" style="stroke: rgb(226, 226, 226); fill: transparent; stroke-width: 1; stroke-linejoin: round;"></line><g role="presentation"><line x1="81.26626071884692" x2="81.26626071884692" y1="274" y2="34" role="presentation" shape-rendering="auto" vector-effect="non-scaling-stroke" style="stroke: transparent; fill: transparent; stroke-width: 1; stroke-linecap: round; stroke-linejoin: round; pointer-events: none;"></line><line x1="81.26626071884692" x2="81.26626071884692" y1="274" y2="278" role="presentation" shape-rendering="auto" vector-effect="non-scaling-stroke" style="stroke: transparent; fill: transparent; size: 4px; stroke-width: 1; stroke-linecap: round; stroke-linejoin: round;"></line><text dx="0" dy="11.969999999999999" x="81.26626071884692" y="286"><tspan x="81.26626071884692" dx="0" text-anchor="middle" style="fill: rgb(153, 153, 153); font-size: 14px; font-family: inherit; stroke: transparent; letter-spacing: normal; padding: 8px; stroke-width: 0;">2017</tspan></text></g><g role="presentation"><line x1="193.74299854041232" x2="193.74299854041232" y1="274" y2="34" role="presentation" shape-rendering="auto" vector-effect="non-scaling-stroke" style="stroke: transparent; fill: transparent; stroke-width: 1; stroke-linecap: round; stroke-linejoin: round; pointer-events: none;"></line><line x1="193.74299854041232" x2="193.74299854041232" y1="274" y2="278" role="presentation" shape-rendering="auto" vector-effect="non-scaling-stroke" style="stroke: transparent; fill: transparent; size: 4px; stroke-width: 1; stroke-linecap: round; stroke-linejoin: round;"></line><text dx="0" dy="11.969999999999999" x="193.74299854041232" y="286"><tspan x="193.74299854041232" dx="0" text-anchor="middle" style="fill: rgb(153, 153, 153); font-size: 14px; font-family: inherit; stroke: transparent; letter-spacing: normal; padding: 8px; stroke-width: 0;">2018</tspan></text></g><g role="presentation"><line x1="306.2197363619777" x2="306.2197363619777" y1="274" y2="34" role="presentation" shape-rendering="auto" vector-effect="non-scaling-stroke" style="stroke: transparent; fill: transparent; stroke-width: 1; stroke-linecap: round; stroke-linejoin: round; pointer-events: none;"></line><line x1="306.2197363619777" x2="306.2197363619777" y1="274" y2="278" role="presentation" shape-rendering="auto" vector-effect="non-scaling-stroke" style="stroke: transparent; fill: transparent; size: 4px; stroke-width: 1; stroke-linecap: round; stroke-linejoin: round;"></line><text dx="0" dy="11.969999999999999" x="306.2197363619777" y="286"><tspan x="306.2197363619777" dx="0" text-anchor="middle" style="fill: rgb(153, 153, 153); font-size: 14px; font-family: inherit; stroke: transparent; letter-spacing: normal; padding: 8px; stroke-width: 0;">2019</tspan></text></g><g role="presentation"><line x1="418.69647418354316" x2="418.69647418354316" y1="274" y2="34" role="presentation" shape-rendering="auto" vector-effect="non-scaling-stroke" style="stroke: transparent; fill: transparent; stroke-width: 1; stroke-linecap: round; stroke-linejoin: round; pointer-events: none;"></line><line x1="418.69647418354316" x2="418.69647418354316" y1="274" y2="278" role="presentation" shape-rendering="auto" vector-effect="non-scaling-stroke" style="stroke: transparent; fill: transparent; size: 4px; stroke-width: 1; stroke-linecap: round; stroke-linejoin: round;"></line><text dx="0" dy="11.969999999999999" x="418.69647418354316" y="286"><tspan x="418.69647418354316" dx="0" text-anchor="middle" style="fill: rgb(153, 153, 153); font-size: 14px; font-family: inherit; stroke: transparent; letter-spacing: normal; padding: 8px; stroke-width: 0;">2020</tspan></text></g><g role="presentation"><line x1="531.4813674511951" x2="531.4813674511951" y1="274" y2="34" role="presentation" shape-rendering="auto" vector-effect="non-scaling-stroke" style="stroke: transparent; fill: transparent; stroke-width: 1; stroke-linecap: round; stroke-linejoin: round; pointer-events: none;"></line><line x1="531.4813674511951" x2="531.4813674511951" y1="274" y2="278" role="presentation" shape-rendering="auto" vector-effect="non-scaling-stroke" style="stroke: transparent; fill: transparent; size: 4px; stroke-width: 1; stroke-linecap: round; stroke-linejoin: round;"></line><text dx="0" dy="11.969999999999999" x="531.4813674511951" y="286"><tspan x="531.4813674511951" dx="0" text-anchor="middle" style="fill: rgb(153, 153, 153); font-size: 14px; font-family: inherit; stroke: transparent; letter-spacing: normal; padding: 8px; stroke-width: 0;">2021</tspan></text></g></g><g role="presentation"><line x1="578" x2="578" y1="34" y2="274" role="presentation" shape-rendering="auto" vector-effect="non-scaling-stroke" style="stroke: transparent; fill: transparent; stroke-width: 1; stroke-linejoin: round;"></line><g role="presentation"><line x1="578" x2="15" y1="259" y2="259" role="presentation" shape-rendering="auto" vector-effect="non-scaling-stroke" style="stroke: rgb(226, 226, 226); fill: transparent; stroke-width: 1; stroke-linecap: round; stroke-linejoin: round; pointer-events: none;"></line><line x1="578" x2="582" y1="259" y2="259" role="presentation" shape-rendering="auto" vector-effect="non-scaling-stroke" style="stroke: transparent; fill: transparent; size: 4px; stroke-width: 1; stroke-linecap: round; stroke-linejoin: round;"></line><text dx="0" dy="4.97" x="590" y="259"><tspan x="590" dx="0" text-anchor="start" style="fill: rgb(153, 153, 153); font-size: 14px; font-family: inherit; stroke: transparent; letter-spacing: normal; padding: 8px; stroke-width: 0;">$100K</tspan></text></g><g role="presentation"><line x1="578" x2="15" y1="184" y2="184" role="presentation" shape-rendering="auto" vector-effect="non-scaling-stroke" style="stroke: rgb(226, 226, 226); fill: transparent; stroke-width: 1; stroke-linecap: round; stroke-linejoin: round; pointer-events: none;"></line><line x1="578" x2="582" y1="184" y2="184" role="presentation" shape-rendering="auto" vector-effect="non-scaling-stroke" style="stroke: transparent; fill: transparent; size: 4px; stroke-width: 1; stroke-linecap: round; stroke-linejoin: round;"></line><text dx="0" dy="4.97" x="590" y="184"><tspan x="590" dx="0" text-anchor="start" style="fill: rgb(153, 153, 153); font-size: 14px; font-family: inherit; stroke: transparent; letter-spacing: normal; padding: 8px; stroke-width: 0;">$150K</tspan></text></g><g role="presentation"><line x1="578" x2="15" y1="109" y2="109" role="presentation" shape-rendering="auto" vector-effect="non-scaling-stroke" style="stroke: rgb(226, 226, 226); fill: transparent; stroke-width: 1; stroke-linecap: round; stroke-linejoin: round; pointer-events: none;"></line><line x1="578" x2="582" y1="109" y2="109" role="presentation" shape-rendering="auto" vector-effect="non-scaling-stroke" style="stroke: transparent; fill: transparent; size: 4px; stroke-width: 1; stroke-linecap: round; stroke-linejoin: round;"></line><text dx="0" dy="4.97" x="590" y="109"><tspan x="590" dx="0" text-anchor="start" style="fill: rgb(153, 153, 153); font-size: 14px; font-family: inherit; stroke: transparent; letter-spacing: normal; padding: 8px; stroke-width: 0;">$200K</tspan></text></g><g role="presentation"><line x1="578" x2="15" y1="34" y2="34" role="presentation" shape-rendering="auto" vector-effect="non-scaling-stroke" style="stroke: rgb(226, 226, 226); fill: transparent; stroke-width: 1; stroke-linecap: round; stroke-linejoin: round; pointer-events: none;"></line><line x1="578" x2="582" y1="34" y2="34" role="presentation" shape-rendering="auto" vector-effect="non-scaling-stroke" style="stroke: transparent; fill: transparent; size: 4px; stroke-width: 1; stroke-linecap: round; stroke-linejoin: round;"></line><text dx="0" dy="4.97" x="590" y="34"><tspan x="590" dx="0" text-anchor="start" style="fill: rgb(153, 153, 153); font-size: 14px; font-family: inherit; stroke: transparent; letter-spacing: normal; padding: 8px; stroke-width: 0;">$250K</tspan></text></g></g><g style="height: 100%; width: 100%; user-select: none;"><defs><clipPath id="victory-clip-5"><rect x="15" y="34" width="563" height="240"></rect></clipPath></defs><g clip-path="url(#victory-clip-5)"><path shape-rendering="auto" role="presentation" d="M15.30815544608648,231.25C18.389709906951285,230.375,21.471264367816094,229.5,24.5528188286809,226C27.73709177157453,222.38333333333333,30.921364714468165,174.25,34.1056376573618,174.25C37.28991060025543,174.25,40.47418354314906,262.075,43.658456486042695,262.075C46.7400109469075,262.075,49.821565407772304,176.5,52.90311986863711,176.5C56.08739281153075,176.5,59.271665754424376,180.1305780272943,62.45593869731801,186.25C65.54177309493402,192.18024629344197,68.62760749255003,204.81700526739513,71.71344189016602,212.125C74.89771483305965,219.66612077816646,78.0819877759533,223.16625,81.26626071884692,230.54125C84.45053366174056,237.91625,87.63480660463419,256.375,90.81907954752783,256.375C93.69519704433499,256.375,96.57131454114213,242.98541879687448,99.44743203794928,236.5C102.62742504409171,229.32936582428908,105.80741805023415,221.8142043202229,108.98741105637657,215.5C112.06896551724138,209.38125557125102,115.15051997810617,204.96361872025383,118.23207443897098,199.07575C121.41634738186463,192.99161898907104,124.60062032475825,179.5,127.7848932676519,179.5C130.8664477285167,179.5,133.9480021893815,199,137.02955665024632,199C140.21382959313993,199,143.39810253603358,150.68874999999997,146.5823754789272,139.11625C149.76664842182083,127.54375,152.95092136471445,121.7575,156.1351943076081,121.7575C159.2167487684729,121.7575,162.2983032293377,176.64999999999998,165.37985769020253,176.64999999999998C168.56413063309614,176.64999999999998,171.74840357598978,174.53875,174.9326765188834,170.31625C178.0185109164994,166.22428427419354,181.10434531411542,137.575,184.19017971173142,137.575C187.37445265462506,137.575,190.55872559751867,196.825,193.74299854041232,196.825C196.92727148330596,196.825,200.1115444261996,141.38035714285712,203.29581736909324,141.325C206.1719348659004,141.275,209.04805236270755,141.25,211.9241698595147,141.25C215.10416286565712,141.25,218.28415587179956,167.5,221.46414887794197,167.5C224.5457033388068,167.5,227.62725779967158,154.14999999999998,230.7088122605364,154.14999999999998C233.89308520343002,154.14999999999998,237.07735814632366,157.05169398907103,240.26163108921727,158.5C243.3431855500821,159.90158646218933,246.4247400109469,159.9,249.5062944718117,162.7C252.69056741470536,165.5933333333333,255.874840357599,214,259.05911330049264,214C262.2433862433863,214,265.42765918627987,161.64999999999998,268.6119321291735,161.64999999999998C271.69348659003833,161.64999999999998,274.7750410509031,162.6,277.8565955117679,164.5C281.04086845466156,166.46333333333334,284.22514139755515,192.25,287.4094143404488,192.25C290.4952487380648,192.25,293.58108313568084,175.32051543175896,296.66691753329684,169C299.8511904761905,162.47785924933612,303.03546341908407,154,306.2197363619777,154C309.40400930487135,154,312.588282247765,199,315.77255519065864,199C318.6486726874658,199,321.52479018427294,185.05560781665395,324.4009076810801,176.5C327.58090068722254,167.04045147652704,330.76089369336495,144.25,333.94088669950736,144.25C337.0224411603722,144.25,340.10399562123695,158.5,343.18555008210177,158.5C346.3698230249954,158.5,349.55409596788905,157,352.7383689107827,157C355.8199233716475,157,358.9014778325123,202.78750000000002,361.9830322933771,202.78750000000002C365.16730523627075,202.78750000000002,368.35157817916433,201.925,371.535851122058,200.2C374.7201240649516,198.47499999999997,377.90439700784526,174.23468579234975,381.0886699507389,162.25C384.1702244116037,150.65191697514544,387.2517788724685,129.32500000000002,390.3333333333333,129.32500000000002C393.51760627622696,129.32500000000002,396.7018792191206,175.03089459084603,399.88615216201424,178.075C402.97198655963024,181.025,406.0578209572463,182.5,409.1436553548623,182.5C412.32792829775593,182.5,415.5122012406495,98.5,418.69647418354316,98.5C421.8807471264368,98.5,425.0650200693304,102.25,428.24929301222403,109.75C431.22812899106003,116.76612903225809,434.206964969896,143.16850000000002,437.185800948732,143.16850000000002C440.3657939548744,143.16850000000002,443.54578696101686,97.75,446.72577996715927,97.75C449.8073344280241,97.75,452.8888888888889,157.75,455.97044334975374,157.75C459.1547162926473,157.75,462.33898923554096,114.26666666666655,465.52326217843455,106C468.6048166392994,98,471.6863711001642,94,474.767925561029,94C477.95219850392266,94,481.1364714468163,183.25,484.32074438970994,183.25C487.50501733260353,183.25,490.68929027549717,110.5,493.87356321839076,110.5C496.9551176792556,110.5,500.0366721401204,111.275,503.1182266009852,112.82500000000002C506.3024995438788,114.42666666666668,509.48677248677245,144.61531365235078,512.671045429666,163C515.7568798272821,180.81634254926803,518.8427142248981,221.125,521.9285486225142,221.125C525.1128215654078,221.125,528.2970945083015,47.5,531.4813674511951,47.5C534.6656403940887,47.5,537.8499133369824,182.5,541.0341862798759,182.5C543.9103037766831,182.5,546.7864212734902,104.75805854643336,549.6625387702974,88.86250000000001C552.8425317764398,71.28750000000001,556.0225247825822,62.5,559.2025177887247,62.5C562.2840722495895,62.5,565.3656267104543,92.5,568.4471811713191,92.5C571.6314541142127,92.5,574.8157270571064,75.8125,578,59.125" style="fill: transparent; stroke: rgb(51, 51, 51); stroke-width: 2; opacity: 1;"></path></g></g></svg>