<svg xmlns="http://www.w3.org/2000/svg" width="640" height="324" role="img" aria-labelledby="victory-container-1-title victory-container-1-desc" viewBox="0 0 640 324" style="pointer-events: all; width: 100%; height: 100%;"><g role="presentation"><line x1="15" x2="578" y1="274" y2="274" role="presentation" shape-rendering="auto" vector-effect="non-scaling-stroke" style="stroke: rgb(226, 226, 226); fill: transparent; stroke-width: 1; stroke-linejoin: round;"></line><g role="presentation"><line x1="81.26626071884692" x2="81.26626071884692" y1="274" y2="34" role="presentation" shape-rendering="auto" vector-effect="non-scaling-stroke" style="stroke: transparent; fill: transparent; stroke-width: 1; stroke-linecap: round; stroke-linejoin: round; pointer-events: none;"></line><line x1="81.26626071884692" x2="81.26626071884692" y1="274" y2="278" role="presentation" shape-rendering="auto" vector-effect="non-scaling-stroke" style="stroke: transparent; fill: transparent; size: 4px; stroke-width: 1; stroke-linecap: round; stroke-linejoin: round;"></line><text dx="0" dy="11.969999999999999" x="81.26626071884692" y="286"><tspan x="81.26626071884692" dx="0" text-anchor="middle" style="fill: rgb(153, 153, 153); font-size: 14px; font-family: inherit; stroke: transparent; letter-spacing: normal; padding: 8px; stroke-width: 0;">2017</tspan></text></g><g role="presentation"><line x1="193.74299854041232" x2="193.74299854041232" y1="274" y2="34" role="presentation" shape-rendering="auto" vector-effect="non-scaling-stroke" style="stroke: transparent; fill: transparent; stroke-width: 1; stroke-linecap: round; stroke-linejoin: round; pointer-events: none;"></line><line x1="193.74299854041232" x2="193.74299854041232" y1="274" y2="278" role="presentation" shape-rendering="auto" vector-effect="non-scaling-stroke" style="stroke: transparent; fill: transparent; size: 4px; stroke-width: 1; stroke-linecap: round; stroke-linejoin: round;"></line><text dx="0" dy="11.969999999999999" x="193.74299854041232" y="286"><tspan x="193.74299854041232" dx="0" text-anchor="middle" style="fill: rgb(153, 153, 153); font-size: 14px; font-family: inherit; stroke: transparent; letter-spacing: normal; padding: 8px; stroke-width: 0;">2018</tspan></text></g><g role="presentation"><line x1="306.2197363619777" x2="306.2197363619777" y1="274" y2="34" role="presentation" shape-rendering="auto" vector-effect="non-scaling-stroke" style="stroke: transparent; fill: transparent; stroke-width: 1; stroke-linecap: round; stroke-linejoin: round; pointer-events: none;"></line><line x1="306.2197363619777" x2="306.2197363619777" y1="274" y2="278" role="presentation" shape-rendering="auto" vector-effect="non-scaling-stroke" style="stroke: transparent; fill: transparent; size: 4px; stroke-width: 1; stroke-linecap: round; stroke-linejoin: round;"></line><text dx="0" dy="11.969999999999999" x="306.2197363619777" y="286"><tspan x="306.2197363619777" dx="0" text-anchor="middle" style="fill: rgb(153, 153, 153); font-size: 14px; font-family: inherit; stroke: transparent; letter-spacing: normal; padding: 8px; stroke-width: 0;">2019</tspan></text></g><g role="presentation"><line x1="418.69647418354316" x2="418.69647418354316" y1="274" y2="34" role="presentation" shape-rendering="auto" vector-effect="non-scaling-stroke" style="stroke: transparent; fill: transparent; stroke-width: 1; stroke-linecap: round; stroke-linejoin: round; pointer-events: none;"></line><line x1="418.69647418354316" x2="418.69647418354316" y1="274" y2="278" role="presentation" shape-rendering="auto" vector-effect="non-scaling-stroke" style="stroke: transparent; fill: transparent; size: 4px; stroke-width: 1; stroke-linecap: round; stroke-linejoin: round;"></line><text dx="0" dy="11.969999999999999" x="418.69647418354316" y="286"><tspan x="418.69647418354316" dx="0" text-anchor="middle" style="fill: rgb(153, 153, 153); font-size: 14px; font-family: inherit; stroke: transparent; letter-spacing: normal; padding: 8px; stroke-width: 0;">2020</tspan></text></g><g role="presentation"><line x1="531.4813674511951" x2="531.4813674511951" y1="274" y2="34" role="presentation" shape-rendering="auto" vector-effect="non-scaling-stroke" style="stroke: transparent; fill: transparent; stroke-width: 1; stroke-linecap: round; stroke-linejoin: round; pointer-events: none;"></line><line x1="531.4813674511951" x2="531.4813674511951" y1="274" y2="278" role="presentation" shape-rendering="auto" vector-effect="non-scaling-stroke" style="stroke: transparent; fill: transparent; size: 4px; stroke-width: 1; stroke-linecap: round; stroke-linejoin: round;"></line><text dx="0" dy="11.969999999999999" x="531.4813674511951" y="286"><tspan x="531.4813674511951" dx="0" text-anchor="middle" style="fill: rgb(153, 153, 153); font-size: 14px; font-family: inherit; stroke: transparent; letter-spacing: normal; padding: 8px; stroke-width: 0;">2021</tspan></text></g></g><g role="presentation"><line x1="578" x2="578" y1="34" y2="274" role="presentation" shape-rendering="auto" vector-effect="non-scaling-stroke" style="stroke: transparent; fill: transparent; stroke-width: 1; stroke-linejoin: round;"></line><g role="presentation"><line x1="578" x2="15" y1="274" y2="274" role="presentation" shape-rendering="auto" vector-effect="non-scaling-stroke" style="stroke: rgb(226, 226, 226); fill: transparent; stroke-width: 1; stroke-linecap: round; stroke-linejoin: round; pointer-events: none;"></line><line x1="578" x2="582" y1="274" y2="274" role="presentation" shape-rendering="auto" vector-effect="non-scaling-stroke" style="stroke: transparent; fill: transparent; size: 4px; stroke-width: 1; stroke-linecap: round; stroke-linejoin: round;"></line><text dx="0" dy="4.97" x="590" y="274"><tspan x="590" dx="0" text-anchor="start" style="fill: rgb(153, 153, 153); font-size: 14px; font-family: inherit; stroke: transparent; letter-spacing: normal; padding: 8px; stroke-width: 0;">$100K</tspan></text></g><g role="presentation"><line x1="578" x2="15" y1="214" y2="214" role="presentation" shape-rendering="auto" vector-effect="non-scaling-stroke" style="stroke: rgb(226, 226, 226); fill: transparent; stroke-width: 1; stroke-linecap: round; stroke-linejoin: round; pointer-events: none;"></line><line x1="578" x2="582" y1="214" y2="214" role="presentation" shape-rendering="auto" vector-effect="non-scaling-stroke" style="stroke: transparent; fill: transparent; size: 4px; stroke-width: 1; stroke-linecap: round; stroke-linejoin: round;"></line><text dx="0" dy="4.97" x="590" y="214"><tspan x="590" dx="0" text-anchor="start" style="fill: rgb(153, 153, 153); font-size: 14px; font-family: inherit; stroke: transparent; letter-spacing: normal; padding: 8px; stroke-width: 0;">$150K</tspan></text></g><g role="presentation"><line x1="578" x2="15" y1="154" y2="154" role="presentation" shape-rendering="auto" vector-effect="non-scaling-stroke" style="stroke: rgb(226, 226, 226); fill: transparent; stroke-width: 1; stroke-linecap: round; stroke-linejoin: round; pointer-events: none;"></line><line x1="578" x2="582" y1="154" y2="154" role="presentation" shape-rendering="auto" vector-effect="non-scaling-stroke" style="stroke: transparent; fill: transparent; size: 4px; stroke-width: 1; stroke-linecap: round; stroke-linejoin: round;"></line><text dx="0" dy="4.97" x="590" y="154"><tspan x="590" dx="0" text-anchor="start" style="fill: rgb(153, 153, 153); font-size: 14px; font-family: inherit; stroke: transparent; letter-spacing: normal; padding: 8px; stroke-width: 0;">$200K</tspan></text></g><g role="presentation"><line x1="578" x2="15" y1="94" y2="94" role="presentation" shape-rendering="auto" vector-effect="non-scaling-stroke" style="stroke: rgb(226, 226, 226); fill: transparent; stroke-width: 1; stroke-linecap: round; stroke-linejoin: round; pointer-events: none;"></line><line x1="578" x2="582" y1="94" y2="94" role="presentation" shape-rendering="auto" vector-effect="non-scaling-stroke" style="stroke: transparent; fill: transparent; size: 4px; stroke-width: 1; stroke-linecap: round; stroke-linejoin: round;"></line><text dx="0" dy="4.97" x="590" y="94"><tspan x="590" dx="0" text-anchor="start" style="fill: rgb(153, 153, 153); font-size: 14px; font-family: inherit; stroke: transparent; letter-spacing: normal; padding: 8px; stroke-width: 0;">$250K</tspan></text></g><g role="presentation"><line x1="578" x2="15" y1="34" y2="34" role="presentation" shape-rendering="auto" vector-effect="non-scaling-stroke" style="stroke: rgb(226, 226, 226); fill: transparent; stroke-width: 1; stroke-linecap: round; stroke-linejoin: round; pointer-events: none;"></line><line x1="578" x2="582" y1="34" y2="34" role="presentation" shape-rendering="auto" vector-effect="non-scaling-stroke" style="stroke: transparent; fill: transparent; size: 4px; stroke-width: 1; stroke-linecap: round; stroke-linejoin: round;"></line><text dx="0" dy="4.97" x="590" y="34"><tspan x="590" dx="0" text-anchor="start" style="fill: rgb(153, 153, 153); font-size: 14px; font-family: inherit; stroke: transparent; letter-spacing: normal; padding: 8px; stroke-width: 0;">$300K</tspan></text></g></g><g style="height: 100%; width: 100%; user-select: none;"><defs><clipPath id="victory-clip-2"><rect x="15" y="34" width="563" height="240"></rect></clipPath></defs><g clip-path="url(#victory-clip-2)"><path shape-rendering="auto" role="presentation" d="M15.30815544608648,178C18.389709906951285,187,21.471264367816094,196,24.5528188286809,196C27.73709177157453,196,30.921364714468165,190.60000000000002,34.1056376573618,190.60000000000002C37.28991060025543,190.60000000000002,40.47418354314906,196,43.658456486042695,196C46.7400109469075,196,49.821565407772304,190.9870967741936,52.90311986863711,190.60000000000002C56.08739281153075,190.20000000000002,59.271665754424376,190.4,62.45593869731801,190C65.54177309493402,189.61236559139783,68.62760749255003,182.8,71.71344189016602,182.8C74.89771483305965,182.8,78.0819877759533,188.05,81.26626071884692,190.9C84.45053366174056,193.75,87.63480660463419,196.55194430992734,90.81907954752783,199.89999999999998C93.69519704433499,202.92405030071075,96.57131454114213,209.824,99.44743203794928,209.824C102.62742504409171,209.824,105.80741805023415,189.4,108.98741105637657,189.4C112.06896551724138,189.4,115.15051997810617,192.39999999999998,118.23207443897098,192.39999999999998C121.41634738186463,192.39999999999998,124.60062032475825,189.56817486338798,127.7848932676519,186.4C130.8664477285167,183.33402432575357,133.9480021893815,173.92000000000002,137.02955665024632,173.92000000000002C140.21382959313993,173.92000000000002,143.39810253603358,176.56,146.5823754789272,176.56C149.76664842182083,176.56,152.95092136471445,168.8200994535519,156.1351943076081,166.24599999999998C159.2167487684729,163.75493601269167,162.2983032293377,161.2,165.37985769020253,161.2C168.56413063309614,161.2,171.74840357598978,170.76719838298155,174.9326765188834,174.4C178.0185109164994,177.92049726595474,181.10434531411542,178.47825050460568,184.19017971173142,182.8C187.37445265462506,187.2596139037079,190.55872559751867,201.04000000000002,193.74299854041232,201.04000000000002C196.92727148330596,201.04000000000002,200.1115444261996,187.84142857142857,203.29581736909324,187C206.1719348659004,186.24,209.04805236270755,186.62,211.9241698595147,185.86C215.10416286565712,185.0197023809524,218.28415587179956,170.86,221.46414887794197,170.86C224.5457033388068,170.86,227.62725779967158,177.95064516129034,230.7088122605364,179.17000000000002C233.89308520343002,180.43,237.07735814632366,181.06,240.26163108921727,181.06C243.3431855500821,181.06,246.4247400109469,168.4,249.5062944718117,168.4C252.69056741470536,168.4,255.874840357599,172,259.05911330049264,172C262.2433862433863,172,265.42765918627987,165.59672240437158,268.6119321291735,160.006C271.69348659003833,154.5956234796404,274.7750410509031,139.29999999999998,277.8565955117679,139.29999999999998C281.04086845466156,139.29999999999998,284.22514139755515,140.2,287.4094143404488,142C290.4952487380648,143.7443548387097,293.58108313568084,173.06182795698925,296.66691753329684,175C299.8511904761905,177,303.03546341908407,178,306.2197363619777,178C309.40400930487135,178,312.588282247765,136,315.77255519065864,136C318.6486726874658,136,321.52479018427294,169.6,324.4009076810801,169.6C327.58090068722254,169.6,330.76089369336495,166.9612970874155,333.94088669950736,164.5C337.0224411603722,162.1148938049271,340.10399562123695,155.2,343.18555008210177,155.2C346.3698230249954,155.2,349.55409596788905,169.3,352.7383689107827,169.3C355.8199233716475,169.3,358.9014778325123,152.58799576943414,361.9830322933771,146.2C365.16730523627075,139.59907103825137,368.35157817916433,130.6,371.535851122058,130.6C374.7201240649516,130.6,377.90439700784526,159.7,381.0886699507389,159.7C384.1702244116037,159.7,387.2517788724685,145,390.3333333333333,145C393.51760627622696,145,396.7018792191206,178,399.88615216201424,178C402.97198655963024,178,406.0578209572463,164.4058956291974,409.1436553548623,160.12C412.32792829775593,155.69738370579356,415.5122012406495,152.20000000000002,418.69647418354316,152.20000000000002C421.8807471264368,152.20000000000002,425.0650200693304,154,428.24929301222403,154C431.22812899106003,154,434.206964969896,148,437.185800948732,148C440.3657939548744,148,443.54578696101686,148.6,446.72577996715927,149.8C449.8073344280241,150.96285329744282,452.8888888888889,158.2,455.97044334975374,158.2C459.1547162926473,158.2,462.33898923554096,151.23650273224038,465.52326217843455,145.6C468.6048166392994,140.14531993654148,471.6863711001642,125.19999999999999,474.767925561029,125.19999999999999C477.95219850392266,125.19999999999999,481.1364714468163,127.6,484.32074438970994,132.4C487.50501733260353,137.19999999999996,490.68929027549717,157,493.87356321839076,157C496.9551176792556,157,500.0366721401204,148.84135378106825,503.1182266009852,145C506.3024995438788,141.0306010928962,509.48677248677245,136.30865114341572,512.671045429666,133.60000000000002C515.7568798272821,130.97508403978125,518.8427142248981,132.00000000000003,521.9285486225142,128.8C525.1128215654078,125.49791955617205,528.2970945083015,85.30000000000001,531.4813674511951,85.30000000000001C534.6656403940887,85.30000000000001,537.8499133369824,139.48,541.0341862798759,139.48C543.9103037766831,139.48,546.7864212734902,135.76640402531996,549.6625387702974,133C552.8425317764398,129.9413122160525,556.0225247825822,127.76761771853873,559.2025177887247,121.6C562.2840722495895,115.62330449885879,565.3656267104543,99.4193548387097,568.4471811713191,97C571.6314541142127,94.5,574.8157270571064,93.875,578,93.25" style="fill: transparent; stroke: rgb(51, 51, 51); stroke-width: 2; opacity: 1;"></path></g></g></svg>