<svg xmlns="http://www.w3.org/2000/svg" width="640" height="324" role="img" aria-labelledby="victory-container-4-title victory-container-4-desc" viewBox="0 0 640 324" style="pointer-events: all; width: 100%; height: 100%;"><g role="presentation"><line x1="15" x2="578" y1="274" y2="274" role="presentation" shape-rendering="auto" vector-effect="non-scaling-stroke" style="stroke: rgb(226, 226, 226); fill: transparent; stroke-width: 1; stroke-linejoin: round;"></line><g role="presentation"><line x1="81.26626071884692" x2="81.26626071884692" y1="274" y2="34" role="presentation" shape-rendering="auto" vector-effect="non-scaling-stroke" style="stroke: transparent; fill: transparent; stroke-width: 1; stroke-linecap: round; stroke-linejoin: round; pointer-events: none;"></line><line x1="81.26626071884692" x2="81.26626071884692" y1="274" y2="278" role="presentation" shape-rendering="auto" vector-effect="non-scaling-stroke" style="stroke: transparent; fill: transparent; size: 4px; stroke-width: 1; stroke-linecap: round; stroke-linejoin: round;"></line><text dx="0" dy="11.969999999999999" x="81.26626071884692" y="286"><tspan x="81.26626071884692" dx="0" text-anchor="middle" style="fill: rgb(153, 153, 153); font-size: 14px; font-family: inherit; stroke: transparent; letter-spacing: normal; padding: 8px; stroke-width: 0;">2017</tspan></text></g><g role="presentation"><line x1="193.74299854041232" x2="193.74299854041232" y1="274" y2="34" role="presentation" shape-rendering="auto" vector-effect="non-scaling-stroke" style="stroke: transparent; fill: transparent; stroke-width: 1; stroke-linecap: round; stroke-linejoin: round; pointer-events: none;"></line><line x1="193.74299854041232" x2="193.74299854041232" y1="274" y2="278" role="presentation" shape-rendering="auto" vector-effect="non-scaling-stroke" style="stroke: transparent; fill: transparent; size: 4px; stroke-width: 1; stroke-linecap: round; stroke-linejoin: round;"></line><text dx="0" dy="11.969999999999999" x="193.74299854041232" y="286"><tspan x="193.74299854041232" dx="0" text-anchor="middle" style="fill: rgb(153, 153, 153); font-size: 14px; font-family: inherit; stroke: transparent; letter-spacing: normal; padding: 8px; stroke-width: 0;">2018</tspan></text></g><g role="presentation"><line x1="306.2197363619777" x2="306.2197363619777" y1="274" y2="34" role="presentation" shape-rendering="auto" vector-effect="non-scaling-stroke" style="stroke: transparent; fill: transparent; stroke-width: 1; stroke-linecap: round; stroke-linejoin: round; pointer-events: none;"></line><line x1="306.2197363619777" x2="306.2197363619777" y1="274" y2="278" role="presentation" shape-rendering="auto" vector-effect="non-scaling-stroke" style="stroke: transparent; fill: transparent; size: 4px; stroke-width: 1; stroke-linecap: round; stroke-linejoin: round;"></line><text dx="0" dy="11.969999999999999" x="306.2197363619777" y="286"><tspan x="306.2197363619777" dx="0" text-anchor="middle" style="fill: rgb(153, 153, 153); font-size: 14px; font-family: inherit; stroke: transparent; letter-spacing: normal; padding: 8px; stroke-width: 0;">2019</tspan></text></g><g role="presentation"><line x1="418.69647418354316" x2="418.69647418354316" y1="274" y2="34" role="presentation" shape-rendering="auto" vector-effect="non-scaling-stroke" style="stroke: transparent; fill: transparent; stroke-width: 1; stroke-linecap: round; stroke-linejoin: round; pointer-events: none;"></line><line x1="418.69647418354316" x2="418.69647418354316" y1="274" y2="278" role="presentation" shape-rendering="auto" vector-effect="non-scaling-stroke" style="stroke: transparent; fill: transparent; size: 4px; stroke-width: 1; stroke-linecap: round; stroke-linejoin: round;"></line><text dx="0" dy="11.969999999999999" x="418.69647418354316" y="286"><tspan x="418.69647418354316" dx="0" text-anchor="middle" style="fill: rgb(153, 153, 153); font-size: 14px; font-family: inherit; stroke: transparent; letter-spacing: normal; padding: 8px; stroke-width: 0;">2020</tspan></text></g><g role="presentation"><line x1="531.4813674511951" x2="531.4813674511951" y1="274" y2="34" role="presentation" shape-rendering="auto" vector-effect="non-scaling-stroke" style="stroke: transparent; fill: transparent; stroke-width: 1; stroke-linecap: round; stroke-linejoin: round; pointer-events: none;"></line><line x1="531.4813674511951" x2="531.4813674511951" y1="274" y2="278" role="presentation" shape-rendering="auto" vector-effect="non-scaling-stroke" style="stroke: transparent; fill: transparent; size: 4px; stroke-width: 1; stroke-linecap: round; stroke-linejoin: round;"></line><text dx="0" dy="11.969999999999999" x="531.4813674511951" y="286"><tspan x="531.4813674511951" dx="0" text-anchor="middle" style="fill: rgb(153, 153, 153); font-size: 14px; font-family: inherit; stroke: transparent; letter-spacing: normal; padding: 8px; stroke-width: 0;">2021</tspan></text></g></g><g role="presentation"><line x1="578" x2="578" y1="34" y2="274" role="presentation" shape-rendering="auto" vector-effect="non-scaling-stroke" style="stroke: transparent; fill: transparent; stroke-width: 1; stroke-linejoin: round;"></line><g role="presentation"><line x1="578" x2="15" y1="274" y2="274" role="presentation" shape-rendering="auto" vector-effect="non-scaling-stroke" style="stroke: rgb(226, 226, 226); fill: transparent; stroke-width: 1; stroke-linecap: round; stroke-linejoin: round; pointer-events: none;"></line><line x1="578" x2="582" y1="274" y2="274" role="presentation" shape-rendering="auto" vector-effect="non-scaling-stroke" style="stroke: transparent; fill: transparent; size: 4px; stroke-width: 1; stroke-linecap: round; stroke-linejoin: round;"></line><text dx="0" dy="4.97" x="590" y="274"><tspan x="590" dx="0" text-anchor="start" style="fill: rgb(153, 153, 153); font-size: 14px; font-family: inherit; stroke: transparent; letter-spacing: normal; padding: 8px; stroke-width: 0;">$100K</tspan></text></g><g role="presentation"><line x1="578" x2="15" y1="234" y2="234" role="presentation" shape-rendering="auto" vector-effect="non-scaling-stroke" style="stroke: rgb(226, 226, 226); fill: transparent; stroke-width: 1; stroke-linecap: round; stroke-linejoin: round; pointer-events: none;"></line><line x1="578" x2="582" y1="234" y2="234" role="presentation" shape-rendering="auto" vector-effect="non-scaling-stroke" style="stroke: transparent; fill: transparent; size: 4px; stroke-width: 1; stroke-linecap: round; stroke-linejoin: round;"></line><text dx="0" dy="4.97" x="590" y="234"><tspan x="590" dx="0" text-anchor="start" style="fill: rgb(153, 153, 153); font-size: 14px; font-family: inherit; stroke: transparent; letter-spacing: normal; padding: 8px; stroke-width: 0;">$150K</tspan></text></g><g role="presentation"><line x1="578" x2="15" y1="194" y2="194" role="presentation" shape-rendering="auto" vector-effect="non-scaling-stroke" style="stroke: rgb(226, 226, 226); fill: transparent; stroke-width: 1; stroke-linecap: round; stroke-linejoin: round; pointer-events: none;"></line><line x1="578" x2="582" y1="194" y2="194" role="presentation" shape-rendering="auto" vector-effect="non-scaling-stroke" style="stroke: transparent; fill: transparent; size: 4px; stroke-width: 1; stroke-linecap: round; stroke-linejoin: round;"></line><text dx="0" dy="4.97" x="590" y="194"><tspan x="590" dx="0" text-anchor="start" style="fill: rgb(153, 153, 153); font-size: 14px; font-family: inherit; stroke: transparent; letter-spacing: normal; padding: 8px; stroke-width: 0;">$200K</tspan></text></g><g role="presentation"><line x1="578" x2="15" y1="154" y2="154" role="presentation" shape-rendering="auto" vector-effect="non-scaling-stroke" style="stroke: rgb(226, 226, 226); fill: transparent; stroke-width: 1; stroke-linecap: round; stroke-linejoin: round; pointer-events: none;"></line><line x1="578" x2="582" y1="154" y2="154" role="presentation" shape-rendering="auto" vector-effect="non-scaling-stroke" style="stroke: transparent; fill: transparent; size: 4px; stroke-width: 1; stroke-linecap: round; stroke-linejoin: round;"></line><text dx="0" dy="4.97" x="590" y="154"><tspan x="590" dx="0" text-anchor="start" style="fill: rgb(153, 153, 153); font-size: 14px; font-family: inherit; stroke: transparent; letter-spacing: normal; padding: 8px; stroke-width: 0;">$250K</tspan></text></g><g role="presentation"><line x1="578" x2="15" y1="114" y2="114" role="presentation" shape-rendering="auto" vector-effect="non-scaling-stroke" style="stroke: rgb(226, 226, 226); fill: transparent; stroke-width: 1; stroke-linecap: round; stroke-linejoin: round; pointer-events: none;"></line><line x1="578" x2="582" y1="114" y2="114" role="presentation" shape-rendering="auto" vector-effect="non-scaling-stroke" style="stroke: transparent; fill: transparent; size: 4px; stroke-width: 1; stroke-linecap: round; stroke-linejoin: round;"></line><text dx="0" dy="4.97" x="590" y="114"><tspan x="590" dx="0" text-anchor="start" style="fill: rgb(153, 153, 153); font-size: 14px; font-family: inherit; stroke: transparent; letter-spacing: normal; padding: 8px; stroke-width: 0;">$300K</tspan></text></g><g role="presentation"><line x1="578" x2="15" y1="74" y2="74" role="presentation" shape-rendering="auto" vector-effect="non-scaling-stroke" style="stroke: rgb(226, 226, 226); fill: transparent; stroke-width: 1; stroke-linecap: round; stroke-linejoin: round; pointer-events: none;"></line><line x1="578" x2="582" y1="74" y2="74" role="presentation" shape-rendering="auto" vector-effect="non-scaling-stroke" style="stroke: transparent; fill: transparent; size: 4px; stroke-width: 1; stroke-linecap: round; stroke-linejoin: round;"></line><text dx="0" dy="4.97" x="590" y="74"><tspan x="590" dx="0" text-anchor="start" style="fill: rgb(153, 153, 153); font-size: 14px; font-family: inherit; stroke: transparent; letter-spacing: normal; padding: 8px; stroke-width: 0;">$350K</tspan></text></g><g role="presentation"><line x1="578" x2="15" y1="34" y2="34" role="presentation" shape-rendering="auto" vector-effect="non-scaling-stroke" style="stroke: rgb(226, 226, 226); fill: transparent; stroke-width: 1; stroke-linecap: round; stroke-linejoin: round; pointer-events: none;"></line><line x1="578" x2="582" y1="34" y2="34" role="presentation" shape-rendering="auto" vector-effect="non-scaling-stroke" style="stroke: transparent; fill: transparent; size: 4px; stroke-width: 1; stroke-linecap: round; stroke-linejoin: round;"></line><text dx="0" dy="4.97" x="590" y="34"><tspan x="590" dx="0" text-anchor="start" style="fill: rgb(153, 153, 153); font-size: 14px; font-family: inherit; stroke: transparent; letter-spacing: normal; padding: 8px; stroke-width: 0;">$400K</tspan></text></g></g><g style="height: 100%; width: 100%; user-select: none;"><defs><clipPath id="victory-clip-5"><rect x="15" y="34" width="563" height="240"></rect></clipPath></defs><g clip-path="url(#victory-clip-5)"><path shape-rendering="auto" role="presentation" d="M15.30815544608648,171.6C18.389709906951285,149.48,21.471264367816094,127.36000000000001,24.5528188286809,127.36000000000001C27.73709177157453,127.36000000000001,30.921364714468165,141.76000000000002,34.1056376573618,149.60000000000002C37.28991060025543,157.44000000000003,40.47418354314906,174.4,43.658456486042695,174.4C46.7400109469075,174.4,49.821565407772304,140,52.90311986863711,140C56.08739281153075,140,59.271665754424376,186.07999999999998,62.45593869731801,186.07999999999998C65.54177309493402,186.07999999999998,68.62760749255003,155.9176,71.71344189016602,155.9176C74.89771483305965,155.9176,78.0819877759533,201.6,81.26626071884692,201.6C84.45053366174056,201.6,87.63480660463419,187.963398708636,90.81907954752783,182C93.69519704433499,176.61370439219976,96.57131454114213,167.236,99.44743203794928,167.236C102.62742504409171,167.236,105.80741805023415,205.2,108.98741105637657,205.2C112.06896551724138,205.2,115.15051997810617,191.0323689053411,118.23207443897098,181.9524C121.41634738186463,172.56976546448087,124.60062032475825,149.5416,127.7848932676519,149.5416C130.8664477285167,149.5416,133.9480021893815,178.8,137.02955665024632,178.8C140.21382959313993,178.8,143.39810253603358,138,146.5823754789272,138C149.76664842182083,138,152.95092136471445,165.26981420765028,156.1351943076081,173.28C159.2167487684729,181.03179270227395,162.2983032293377,186,165.37985769020253,186C168.56413063309614,186,171.74840357598978,179.03039038726075,174.9326765188834,176.04C178.0185109164994,173.14205447686152,181.10434531411542,168.2748,184.19017971173142,168.2748C187.37445265462506,168.2748,190.55872559751867,169.51653333333334,193.74299854041232,172C196.92727148330596,174.4834666666667,200.1115444261996,190.52857142857144,203.29581736909324,191.68C206.1719348659004,192.72,209.04805236270755,192.20000000000002,211.9241698595147,193.24C215.10416286565712,194.38988095238096,218.28415587179956,201.44,221.46414887794197,201.44C224.5457033388068,201.44,227.62725779967158,155,230.7088122605364,155C233.89308520343002,155,237.07735814632366,172.18875045537342,240.26163108921727,178.44C243.3431855500821,184.48959633350964,246.4247400109469,192.2,249.5062944718117,192.2C252.69056741470536,192.2,255.874840357599,170,259.05911330049264,170C262.2433862433863,170,265.42765918627987,184.39999999999998,268.6119321291735,184.39999999999998C271.69348659003833,184.39999999999998,274.7750410509031,178,277.8565955117679,178C281.04086845466156,178,284.22514139755515,183.60000000000002,287.4094143404488,183.60000000000002C290.4952487380648,183.60000000000002,293.58108313568084,155.2,296.66691753329684,155.2C299.8511904761905,155.2,303.03546341908407,191.33306666666664,306.2197363619777,193.2C309.40400930487135,195.06693333333334,312.588282247765,196.0004,315.77255519065864,196.0004C318.6486726874658,196.0004,321.52479018427294,189.48885639239893,324.4009076810801,187.2C327.58090068722254,184.66931503042795,330.76089369336495,185.4573333333333,333.94088669950736,181.97199999999998C337.0224411603722,178.5945572005383,340.10399562123695,145.0668,343.18555008210177,145.0668C346.3698230249954,145.0668,349.55409596788905,169.90666666666667,352.7383689107827,172.8C355.8199233716475,175.6,358.9014778325123,177,361.9830322933771,177C365.16730523627075,177,368.35157817916433,170.1,371.535851122058,167.6C374.7201240649516,165.1,377.90439700784526,162,381.0886699507389,162C384.1702244116037,162,387.2517788724685,193.904,390.3333333333333,193.904C393.51760627622696,193.904,396.7018792191206,192.60266666666666,399.88615216201424,190C402.97198655963024,187.47779211469535,406.0578209572463,122,409.1436553548623,122C412.32792829775593,122,415.5122012406495,152.48000000000002,418.69647418354316,162.48000000000002C421.8807471264368,172.48000000000002,425.0650200693304,182,428.24929301222403,182C431.22812899106003,182,434.206964969896,164,437.185800948732,164C440.3657939548744,164,443.54578696101686,164.86338852180955,446.72577996715927,165.2C449.8073344280241,165.52619147280902,452.8888888888889,165.46666666666667,455.97044334975374,166C459.1547162926473,166.5511111111111,462.33898923554096,178,465.52326217843455,178C468.6048166392994,178,471.6863711001642,132,474.767925561029,132C477.95219850392266,132,481.1364714468163,159.9759999999999,484.32074438970994,166C487.50501733260353,172.024,490.68929027549717,175.036,493.87356321839076,175.036C496.9551176792556,175.036,500.0366721401204,113.9992,503.1182266009852,113.9992C506.3024995438788,113.9992,509.48677248677245,150,512.671045429666,150C515.7568798272821,150,518.8427142248981,134.4,521.9285486225142,134.4C525.1128215654078,134.4,528.2970945083015,174,531.4813674511951,174C534.6656403940887,174,537.8499133369824,161.60581113801453,541.0341862798759,150.8C543.9103037766831,141.039912520503,546.7864212734902,114,549.6625387702974,114C552.8425317764398,114,556.0225247825822,130.8,559.2025177887247,130.8C562.2840722495895,130.8,565.3656267104543,127.86666666666667,568.4471811713191,122C571.6314541142127,115.93777777777782,574.8157270571064,94.16888888888892,578,72.4" style="fill: transparent; stroke: rgb(51, 51, 51); stroke-width: 2; opacity: 1;"></path></g></g></svg>