<svg xmlns="http://www.w3.org/2000/svg" width="640" height="324" role="img" aria-labelledby="victory-container-4-title victory-container-4-desc" viewBox="0 0 640 324" style="pointer-events: all; width: 100%; height: 100%;"><g role="presentation"><line x1="15" x2="578" y1="274" y2="274" role="presentation" shape-rendering="auto" vector-effect="non-scaling-stroke" style="stroke: rgb(226, 226, 226); fill: transparent; stroke-width: 1; stroke-linejoin: round;"></line><g role="presentation"><line x1="81.26626071884692" x2="81.26626071884692" y1="274" y2="34" role="presentation" shape-rendering="auto" vector-effect="non-scaling-stroke" style="stroke: transparent; fill: transparent; stroke-width: 1; stroke-linecap: round; stroke-linejoin: round; pointer-events: none;"></line><line x1="81.26626071884692" x2="81.26626071884692" y1="274" y2="278" role="presentation" shape-rendering="auto" vector-effect="non-scaling-stroke" style="stroke: transparent; fill: transparent; size: 4px; stroke-width: 1; stroke-linecap: round; stroke-linejoin: round;"></line><text dx="0" dy="11.969999999999999" x="81.26626071884692" y="286"><tspan x="81.26626071884692" dx="0" text-anchor="middle" style="fill: rgb(153, 153, 153); font-size: 14px; font-family: inherit; stroke: transparent; letter-spacing: normal; padding: 8px; stroke-width: 0;">2017</tspan></text></g><g role="presentation"><line x1="193.74299854041232" x2="193.74299854041232" y1="274" y2="34" role="presentation" shape-rendering="auto" vector-effect="non-scaling-stroke" style="stroke: transparent; fill: transparent; stroke-width: 1; stroke-linecap: round; stroke-linejoin: round; pointer-events: none;"></line><line x1="193.74299854041232" x2="193.74299854041232" y1="274" y2="278" role="presentation" shape-rendering="auto" vector-effect="non-scaling-stroke" style="stroke: transparent; fill: transparent; size: 4px; stroke-width: 1; stroke-linecap: round; stroke-linejoin: round;"></line><text dx="0" dy="11.969999999999999" x="193.74299854041232" y="286"><tspan x="193.74299854041232" dx="0" text-anchor="middle" style="fill: rgb(153, 153, 153); font-size: 14px; font-family: inherit; stroke: transparent; letter-spacing: normal; padding: 8px; stroke-width: 0;">2018</tspan></text></g><g role="presentation"><line x1="306.2197363619777" x2="306.2197363619777" y1="274" y2="34" role="presentation" shape-rendering="auto" vector-effect="non-scaling-stroke" style="stroke: transparent; fill: transparent; stroke-width: 1; stroke-linecap: round; stroke-linejoin: round; pointer-events: none;"></line><line x1="306.2197363619777" x2="306.2197363619777" y1="274" y2="278" role="presentation" shape-rendering="auto" vector-effect="non-scaling-stroke" style="stroke: transparent; fill: transparent; size: 4px; stroke-width: 1; stroke-linecap: round; stroke-linejoin: round;"></line><text dx="0" dy="11.969999999999999" x="306.2197363619777" y="286"><tspan x="306.2197363619777" dx="0" text-anchor="middle" style="fill: rgb(153, 153, 153); font-size: 14px; font-family: inherit; stroke: transparent; letter-spacing: normal; padding: 8px; stroke-width: 0;">2019</tspan></text></g><g role="presentation"><line x1="418.69647418354316" x2="418.69647418354316" y1="274" y2="34" role="presentation" shape-rendering="auto" vector-effect="non-scaling-stroke" style="stroke: transparent; fill: transparent; stroke-width: 1; stroke-linecap: round; stroke-linejoin: round; pointer-events: none;"></line><line x1="418.69647418354316" x2="418.69647418354316" y1="274" y2="278" role="presentation" shape-rendering="auto" vector-effect="non-scaling-stroke" style="stroke: transparent; fill: transparent; size: 4px; stroke-width: 1; stroke-linecap: round; stroke-linejoin: round;"></line><text dx="0" dy="11.969999999999999" x="418.69647418354316" y="286"><tspan x="418.69647418354316" dx="0" text-anchor="middle" style="fill: rgb(153, 153, 153); font-size: 14px; font-family: inherit; stroke: transparent; letter-spacing: normal; padding: 8px; stroke-width: 0;">2020</tspan></text></g><g role="presentation"><line x1="531.4813674511951" x2="531.4813674511951" y1="274" y2="34" role="presentation" shape-rendering="auto" vector-effect="non-scaling-stroke" style="stroke: transparent; fill: transparent; stroke-width: 1; stroke-linecap: round; stroke-linejoin: round; pointer-events: none;"></line><line x1="531.4813674511951" x2="531.4813674511951" y1="274" y2="278" role="presentation" shape-rendering="auto" vector-effect="non-scaling-stroke" style="stroke: transparent; fill: transparent; size: 4px; stroke-width: 1; stroke-linecap: round; stroke-linejoin: round;"></line><text dx="0" dy="11.969999999999999" x="531.4813674511951" y="286"><tspan x="531.4813674511951" dx="0" text-anchor="middle" style="fill: rgb(153, 153, 153); font-size: 14px; font-family: inherit; stroke: transparent; letter-spacing: normal; padding: 8px; stroke-width: 0;">2021</tspan></text></g></g><g role="presentation"><line x1="578" x2="578" y1="34" y2="274" role="presentation" shape-rendering="auto" vector-effect="non-scaling-stroke" style="stroke: transparent; fill: transparent; stroke-width: 1; stroke-linejoin: round;"></line><g role="presentation"><line x1="578" x2="15" y1="274" y2="274" role="presentation" shape-rendering="auto" vector-effect="non-scaling-stroke" style="stroke: rgb(226, 226, 226); fill: transparent; stroke-width: 1; stroke-linecap: round; stroke-linejoin: round; pointer-events: none;"></line><line x1="578" x2="582" y1="274" y2="274" role="presentation" shape-rendering="auto" vector-effect="non-scaling-stroke" style="stroke: transparent; fill: transparent; size: 4px; stroke-width: 1; stroke-linecap: round; stroke-linejoin: round;"></line><text dx="0" dy="4.97" x="590" y="274"><tspan x="590" dx="0" text-anchor="start" style="fill: rgb(153, 153, 153); font-size: 14px; font-family: inherit; stroke: transparent; letter-spacing: normal; padding: 8px; stroke-width: 0;">$100K</tspan></text></g><g role="presentation"><line x1="578" x2="15" y1="226" y2="226" role="presentation" shape-rendering="auto" vector-effect="non-scaling-stroke" style="stroke: rgb(226, 226, 226); fill: transparent; stroke-width: 1; stroke-linecap: round; stroke-linejoin: round; pointer-events: none;"></line><line x1="578" x2="582" y1="226" y2="226" role="presentation" shape-rendering="auto" vector-effect="non-scaling-stroke" style="stroke: transparent; fill: transparent; size: 4px; stroke-width: 1; stroke-linecap: round; stroke-linejoin: round;"></line><text dx="0" dy="4.97" x="590" y="226"><tspan x="590" dx="0" text-anchor="start" style="fill: rgb(153, 153, 153); font-size: 14px; font-family: inherit; stroke: transparent; letter-spacing: normal; padding: 8px; stroke-width: 0;">$120K</tspan></text></g><g role="presentation"><line x1="578" x2="15" y1="178" y2="178" role="presentation" shape-rendering="auto" vector-effect="non-scaling-stroke" style="stroke: rgb(226, 226, 226); fill: transparent; stroke-width: 1; stroke-linecap: round; stroke-linejoin: round; pointer-events: none;"></line><line x1="578" x2="582" y1="178" y2="178" role="presentation" shape-rendering="auto" vector-effect="non-scaling-stroke" style="stroke: transparent; fill: transparent; size: 4px; stroke-width: 1; stroke-linecap: round; stroke-linejoin: round;"></line><text dx="0" dy="4.97" x="590" y="178"><tspan x="590" dx="0" text-anchor="start" style="fill: rgb(153, 153, 153); font-size: 14px; font-family: inherit; stroke: transparent; letter-spacing: normal; padding: 8px; stroke-width: 0;">$140K</tspan></text></g><g role="presentation"><line x1="578" x2="15" y1="130" y2="130" role="presentation" shape-rendering="auto" vector-effect="non-scaling-stroke" style="stroke: rgb(226, 226, 226); fill: transparent; stroke-width: 1; stroke-linecap: round; stroke-linejoin: round; pointer-events: none;"></line><line x1="578" x2="582" y1="130" y2="130" role="presentation" shape-rendering="auto" vector-effect="non-scaling-stroke" style="stroke: transparent; fill: transparent; size: 4px; stroke-width: 1; stroke-linecap: round; stroke-linejoin: round;"></line><text dx="0" dy="4.97" x="590" y="130"><tspan x="590" dx="0" text-anchor="start" style="fill: rgb(153, 153, 153); font-size: 14px; font-family: inherit; stroke: transparent; letter-spacing: normal; padding: 8px; stroke-width: 0;">$160K</tspan></text></g><g role="presentation"><line x1="578" x2="15" y1="82" y2="82" role="presentation" shape-rendering="auto" vector-effect="non-scaling-stroke" style="stroke: rgb(226, 226, 226); fill: transparent; stroke-width: 1; stroke-linecap: round; stroke-linejoin: round; pointer-events: none;"></line><line x1="578" x2="582" y1="82" y2="82" role="presentation" shape-rendering="auto" vector-effect="non-scaling-stroke" style="stroke: transparent; fill: transparent; size: 4px; stroke-width: 1; stroke-linecap: round; stroke-linejoin: round;"></line><text dx="0" dy="4.97" x="590" y="82"><tspan x="590" dx="0" text-anchor="start" style="fill: rgb(153, 153, 153); font-size: 14px; font-family: inherit; stroke: transparent; letter-spacing: normal; padding: 8px; stroke-width: 0;">$180K</tspan></text></g><g role="presentation"><line x1="578" x2="15" y1="34" y2="34" role="presentation" shape-rendering="auto" vector-effect="non-scaling-stroke" style="stroke: rgb(226, 226, 226); fill: transparent; stroke-width: 1; stroke-linecap: round; stroke-linejoin: round; pointer-events: none;"></line><line x1="578" x2="582" y1="34" y2="34" role="presentation" shape-rendering="auto" vector-effect="non-scaling-stroke" style="stroke: transparent; fill: transparent; size: 4px; stroke-width: 1; stroke-linecap: round; stroke-linejoin: round;"></line><text dx="0" dy="4.97" x="590" y="34"><tspan x="590" dx="0" text-anchor="start" style="fill: rgb(153, 153, 153); font-size: 14px; font-family: inherit; stroke: transparent; letter-spacing: normal; padding: 8px; stroke-width: 0;">$200K</tspan></text></g></g><g style="height: 100%; width: 100%; user-select: none;"><defs><clipPath id="victory-clip-5"><rect x="15" y="34" width="563" height="240"></rect></clipPath></defs><g clip-path="url(#victory-clip-5)"><path shape-rendering="auto" role="presentation" d="M24.5528188286809,214C27.73709177157453,215.32,30.921364714468165,216.64,34.1056376573618,216.64C37.28991060025543,216.64,40.47418354314906,156.4,43.658456486042695,156.4C46.7400109469075,156.4,49.821565407772304,213.4,52.90311986863711,213.4C56.08739281153075,213.4,59.271665754424376,208.37700330882876,62.45593869731801,202C65.54177309493402,195.82013523432053,68.62760749255003,176.2,71.71344189016602,176.2C74.89771483305965,176.2,78.0819877759533,194.3,81.26626071884692,202C84.45053366174056,209.70000000000002,87.63480660463419,222.4,90.81907954752783,222.4C93.69519704433499,222.4,96.57131454114213,192.68263795423957,99.44743203794928,184C102.62742504409171,174.4,105.80741805023415,169.6,108.98741105637657,169.6C112.06896551724138,169.6,115.15051997810617,215.78064516129032,118.23207443897098,218.8C121.41634738186463,221.92000000000002,124.60062032475825,223.48000000000002,127.7848932676519,223.48000000000002C130.8664477285167,223.48000000000002,133.9480021893815,173.2,137.02955665024632,173.2C140.21382959313993,173.2,143.39810253603358,190,146.5823754789272,190C149.76664842182083,190,152.95092136471445,183.88775956284152,156.1351943076081,179.8C159.2167487684729,175.84410364886304,162.2983032293377,166,165.37985769020253,166C168.56413063309614,166,171.74840357598978,214,174.9326765188834,214C178.0185109164994,214,181.10434531411542,178.13185841682264,184.19017971173142,166C187.37445265462506,153.4811336170374,190.55872559751867,140.79999999999998,193.74299854041232,140.79999999999998C196.92727148330596,140.79999999999998,200.1115444261996,144.04,203.29581736909324,150.52C206.1719348659004,156.37290322580645,209.04805236270755,202.60000000000002,211.9241698595147,202.60000000000002C215.10416286565712,202.60000000000002,218.28415587179956,149.2,221.46414887794197,149.2C224.5457033388068,149.2,227.62725779967158,152.54409307244845,230.7088122605364,154.12C233.89308520343002,155.74843715846995,237.07735814632366,155.68,240.26163108921727,158.8C243.3431855500821,161.8193548387097,246.4247400109469,170.59735589635113,249.5062944718117,178C252.69056741470536,185.64939890710383,255.874840357599,204.16000000000003,259.05911330049264,204.16000000000003C262.2433862433863,204.16000000000003,265.42765918627987,188.92732240437158,268.6119321291735,182.8C271.69348659003833,176.87033315705975,274.7750410509031,174.43405605499737,277.8565955117679,167.8C281.04086845466156,160.9448087431694,284.22514139755515,142,287.4094143404488,142C290.4952487380648,142,293.58108313568084,172,296.66691753329684,172C299.8511904761905,172,303.03546341908407,163.95999999999995,306.2197363619777,158.2C309.40400930487135,152.43999999999997,312.588282247765,144.49360774818402,315.77255519065864,137.44C318.6486726874658,131.06899945325313,321.52479018427294,118,324.4009076810801,118C327.58090068722254,118,330.76089369336495,125.51583959899752,333.94088669950736,130C337.0224411603722,134.3453505904735,340.10399562123695,137.90318350079323,343.18555008210177,144.39999999999998C346.3698230249954,151.11337704918031,349.55409596788905,169.9756,352.7383689107827,169.9756C355.8199233716475,169.9756,358.9014778325123,130.72,361.9830322933771,130.72C365.16730523627075,130.72,368.35157817916433,142,371.535851122058,142C374.7201240649516,142,377.90439700784526,139.19637158469948,381.0886699507389,135.28C384.1702244116037,131.48996298254892,387.2517788724685,119.19999999999999,390.3333333333333,119.19999999999999C393.51760627622696,119.19999999999999,396.7018792191206,136.37447988904302,399.88615216201424,137.20000000000002C402.97198655963024,138,406.0578209572463,138.4,409.1436553548623,138.4C412.32792829775593,138.4,415.5122012406495,122.80000000000001,418.69647418354316,122.80000000000001C421.8807471264368,122.80000000000001,425.0650200693304,158.944367816092,428.24929301222403,178C431.22812899106003,195.82623655913983,434.206964969896,233.2,437.185800948732,233.2C440.3657939548744,233.2,443.54578696101686,79.6,446.72577996715927,79.6C449.8073344280241,79.6,452.8888888888889,156.4,455.97044334975374,156.4C459.1547162926473,156.4,462.33898923554096,118.90133333333334,465.52326217843455,118.24000000000001C468.6048166392994,117.60000000000001,471.6863711001642,117.92,474.767925561029,117.28C477.95219850392266,116.61866666666667,481.1364714468163,102.4,484.32074438970994,102.4C487.50501733260353,102.4,490.68929027549717,108.4,493.87356321839076,108.4C496.9551176792556,108.4,500.0366721401204,101.52913802221053,503.1182266009852,95.19999999999999C506.3024995438788,88.65989071038251,509.48677248677245,69.39999999999998,512.671045429666,69.39999999999998C515.7568798272821,69.39999999999998,518.8427142248981,81.60816727219341,521.9285486225142,88C525.1128215654078,94.59573307834677,528.2970945083015,108.4,531.4813674511951,108.4C534.6656403940887,108.4,537.8499133369824,40,541.0341862798759,40C543.9103037766831,40,546.7864212734902,77.20000000000002,549.6625387702974,77.20000000000002C552.8425317764398,77.20000000000002,556.0225247825822,74.44000000000001,559.2025177887247,68.91999999999999C562.2840722495895,63.57087483176306,565.3656267104543,34,568.4471811713191,34C571.6314541142127,34,574.8157270571064,46.120000000000005,578,58.24000000000001" style="fill: transparent; stroke: rgb(51, 51, 51); stroke-width: 2; opacity: 1;"></path></g></g></svg>