<svg xmlns="http://www.w3.org/2000/svg" width="640" height="324" role="img" aria-labelledby="victory-container-4-title victory-container-4-desc" viewBox="0 0 640 324" style="pointer-events: all; width: 100%; height: 100%;"><g role="presentation"><line x1="15" x2="578" y1="274" y2="274" role="presentation" shape-rendering="auto" vector-effect="non-scaling-stroke" style="stroke: rgb(226, 226, 226); fill: transparent; stroke-width: 1; stroke-linejoin: round;"></line><g role="presentation"><line x1="81.26626071884692" x2="81.26626071884692" y1="274" y2="34" role="presentation" shape-rendering="auto" vector-effect="non-scaling-stroke" style="stroke: transparent; fill: transparent; stroke-width: 1; stroke-linecap: round; stroke-linejoin: round; pointer-events: none;"></line><line x1="81.26626071884692" x2="81.26626071884692" y1="274" y2="278" role="presentation" shape-rendering="auto" vector-effect="non-scaling-stroke" style="stroke: transparent; fill: transparent; size: 4px; stroke-width: 1; stroke-linecap: round; stroke-linejoin: round;"></line><text dx="0" dy="11.969999999999999" x="81.26626071884692" y="286"><tspan x="81.26626071884692" dx="0" text-anchor="middle" style="fill: rgb(153, 153, 153); font-size: 14px; font-family: inherit; stroke: transparent; letter-spacing: normal; padding: 8px; stroke-width: 0;">2017</tspan></text></g><g role="presentation"><line x1="193.74299854041232" x2="193.74299854041232" y1="274" y2="34" role="presentation" shape-rendering="auto" vector-effect="non-scaling-stroke" style="stroke: transparent; fill: transparent; stroke-width: 1; stroke-linecap: round; stroke-linejoin: round; pointer-events: none;"></line><line x1="193.74299854041232" x2="193.74299854041232" y1="274" y2="278" role="presentation" shape-rendering="auto" vector-effect="non-scaling-stroke" style="stroke: transparent; fill: transparent; size: 4px; stroke-width: 1; stroke-linecap: round; stroke-linejoin: round;"></line><text dx="0" dy="11.969999999999999" x="193.74299854041232" y="286"><tspan x="193.74299854041232" dx="0" text-anchor="middle" style="fill: rgb(153, 153, 153); font-size: 14px; font-family: inherit; stroke: transparent; letter-spacing: normal; padding: 8px; stroke-width: 0;">2018</tspan></text></g><g role="presentation"><line x1="306.2197363619777" x2="306.2197363619777" y1="274" y2="34" role="presentation" shape-rendering="auto" vector-effect="non-scaling-stroke" style="stroke: transparent; fill: transparent; stroke-width: 1; stroke-linecap: round; stroke-linejoin: round; pointer-events: none;"></line><line x1="306.2197363619777" x2="306.2197363619777" y1="274" y2="278" role="presentation" shape-rendering="auto" vector-effect="non-scaling-stroke" style="stroke: transparent; fill: transparent; size: 4px; stroke-width: 1; stroke-linecap: round; stroke-linejoin: round;"></line><text dx="0" dy="11.969999999999999" x="306.2197363619777" y="286"><tspan x="306.2197363619777" dx="0" text-anchor="middle" style="fill: rgb(153, 153, 153); font-size: 14px; font-family: inherit; stroke: transparent; letter-spacing: normal; padding: 8px; stroke-width: 0;">2019</tspan></text></g><g role="presentation"><line x1="418.69647418354316" x2="418.69647418354316" y1="274" y2="34" role="presentation" shape-rendering="auto" vector-effect="non-scaling-stroke" style="stroke: transparent; fill: transparent; stroke-width: 1; stroke-linecap: round; stroke-linejoin: round; pointer-events: none;"></line><line x1="418.69647418354316" x2="418.69647418354316" y1="274" y2="278" role="presentation" shape-rendering="auto" vector-effect="non-scaling-stroke" style="stroke: transparent; fill: transparent; size: 4px; stroke-width: 1; stroke-linecap: round; stroke-linejoin: round;"></line><text dx="0" dy="11.969999999999999" x="418.69647418354316" y="286"><tspan x="418.69647418354316" dx="0" text-anchor="middle" style="fill: rgb(153, 153, 153); font-size: 14px; font-family: inherit; stroke: transparent; letter-spacing: normal; padding: 8px; stroke-width: 0;">2020</tspan></text></g><g role="presentation"><line x1="531.4813674511951" x2="531.4813674511951" y1="274" y2="34" role="presentation" shape-rendering="auto" vector-effect="non-scaling-stroke" style="stroke: transparent; fill: transparent; stroke-width: 1; stroke-linecap: round; stroke-linejoin: round; pointer-events: none;"></line><line x1="531.4813674511951" x2="531.4813674511951" y1="274" y2="278" role="presentation" shape-rendering="auto" vector-effect="non-scaling-stroke" style="stroke: transparent; fill: transparent; size: 4px; stroke-width: 1; stroke-linecap: round; stroke-linejoin: round;"></line><text dx="0" dy="11.969999999999999" x="531.4813674511951" y="286"><tspan x="531.4813674511951" dx="0" text-anchor="middle" style="fill: rgb(153, 153, 153); font-size: 14px; font-family: inherit; stroke: transparent; letter-spacing: normal; padding: 8px; stroke-width: 0;">2021</tspan></text></g></g><g role="presentation"><line x1="578" x2="578" y1="34" y2="274" role="presentation" shape-rendering="auto" vector-effect="non-scaling-stroke" style="stroke: transparent; fill: transparent; stroke-width: 1; stroke-linejoin: round;"></line><g role="presentation"><line x1="578" x2="15" y1="274" y2="274" role="presentation" shape-rendering="auto" vector-effect="non-scaling-stroke" style="stroke: rgb(226, 226, 226); fill: transparent; stroke-width: 1; stroke-linecap: round; stroke-linejoin: round; pointer-events: none;"></line><line x1="578" x2="582" y1="274" y2="274" role="presentation" shape-rendering="auto" vector-effect="non-scaling-stroke" style="stroke: transparent; fill: transparent; size: 4px; stroke-width: 1; stroke-linecap: round; stroke-linejoin: round;"></line><text dx="0" dy="4.97" x="590" y="274"><tspan x="590" dx="0" text-anchor="start" style="fill: rgb(153, 153, 153); font-size: 14px; font-family: inherit; stroke: transparent; letter-spacing: normal; padding: 8px; stroke-width: 0;">$100K</tspan></text></g><g role="presentation"><line x1="578" x2="15" y1="214" y2="214" role="presentation" shape-rendering="auto" vector-effect="non-scaling-stroke" style="stroke: rgb(226, 226, 226); fill: transparent; stroke-width: 1; stroke-linecap: round; stroke-linejoin: round; pointer-events: none;"></line><line x1="578" x2="582" y1="214" y2="214" role="presentation" shape-rendering="auto" vector-effect="non-scaling-stroke" style="stroke: transparent; fill: transparent; size: 4px; stroke-width: 1; stroke-linecap: round; stroke-linejoin: round;"></line><text dx="0" dy="4.97" x="590" y="214"><tspan x="590" dx="0" text-anchor="start" style="fill: rgb(153, 153, 153); font-size: 14px; font-family: inherit; stroke: transparent; letter-spacing: normal; padding: 8px; stroke-width: 0;">$150K</tspan></text></g><g role="presentation"><line x1="578" x2="15" y1="154" y2="154" role="presentation" shape-rendering="auto" vector-effect="non-scaling-stroke" style="stroke: rgb(226, 226, 226); fill: transparent; stroke-width: 1; stroke-linecap: round; stroke-linejoin: round; pointer-events: none;"></line><line x1="578" x2="582" y1="154" y2="154" role="presentation" shape-rendering="auto" vector-effect="non-scaling-stroke" style="stroke: transparent; fill: transparent; size: 4px; stroke-width: 1; stroke-linecap: round; stroke-linejoin: round;"></line><text dx="0" dy="4.97" x="590" y="154"><tspan x="590" dx="0" text-anchor="start" style="fill: rgb(153, 153, 153); font-size: 14px; font-family: inherit; stroke: transparent; letter-spacing: normal; padding: 8px; stroke-width: 0;">$200K</tspan></text></g><g role="presentation"><line x1="578" x2="15" y1="94" y2="94" role="presentation" shape-rendering="auto" vector-effect="non-scaling-stroke" style="stroke: rgb(226, 226, 226); fill: transparent; stroke-width: 1; stroke-linecap: round; stroke-linejoin: round; pointer-events: none;"></line><line x1="578" x2="582" y1="94" y2="94" role="presentation" shape-rendering="auto" vector-effect="non-scaling-stroke" style="stroke: transparent; fill: transparent; size: 4px; stroke-width: 1; stroke-linecap: round; stroke-linejoin: round;"></line><text dx="0" dy="4.97" x="590" y="94"><tspan x="590" dx="0" text-anchor="start" style="fill: rgb(153, 153, 153); font-size: 14px; font-family: inherit; stroke: transparent; letter-spacing: normal; padding: 8px; stroke-width: 0;">$250K</tspan></text></g><g role="presentation"><line x1="578" x2="15" y1="34" y2="34" role="presentation" shape-rendering="auto" vector-effect="non-scaling-stroke" style="stroke: rgb(226, 226, 226); fill: transparent; stroke-width: 1; stroke-linecap: round; stroke-linejoin: round; pointer-events: none;"></line><line x1="578" x2="582" y1="34" y2="34" role="presentation" shape-rendering="auto" vector-effect="non-scaling-stroke" style="stroke: transparent; fill: transparent; size: 4px; stroke-width: 1; stroke-linecap: round; stroke-linejoin: round;"></line><text dx="0" dy="4.97" x="590" y="34"><tspan x="590" dx="0" text-anchor="start" style="fill: rgb(153, 153, 153); font-size: 14px; font-family: inherit; stroke: transparent; letter-spacing: normal; padding: 8px; stroke-width: 0;">$300K</tspan></text></g></g><g style="height: 100%; width: 100%; user-select: none;"><defs><clipPath id="victory-clip-5"><rect x="15" y="34" width="563" height="240"></rect></clipPath></defs><g clip-path="url(#victory-clip-5)"><path shape-rendering="auto" role="presentation" d="M15.30815544608648,127.50399999999999C18.389709906951285,132.454,21.471264367816094,137.404,24.5528188286809,137.404C27.73709177157453,137.404,30.921364714468165,121.6,34.1056376573618,121.6C37.28991060025543,121.6,40.47418354314906,139,43.658456486042695,139C46.7400109469075,139,49.821565407772304,137.7904812268641,52.90311986863711,137.20000000000002C56.08739281153075,136.5898360655738,59.271665754424376,135.4,62.45593869731801,135.4C65.54177309493402,135.4,68.62760749255003,135.6,71.71344189016602,136C74.89771483305965,136.4127600554785,78.0819877759533,148,81.26626071884692,148C84.45053366174056,148,87.63480660463419,142.8857142857143,90.81907954752783,142C93.69519704433499,141.2,96.57131454114213,141.6,99.44743203794928,140.79999999999998C102.62742504409171,139.91547619047617,105.80741805023415,136,108.98741105637657,136C112.06896551724138,136,115.15051997810617,141.7,118.23207443897098,141.7C121.41634738186463,141.7,124.60062032475825,130,127.7848932676519,130C130.8664477285167,130,133.9480021893815,130.2,137.02955665024632,130.6C140.21382959313993,131.01333333333332,143.39810253603358,138.4,146.5823754789272,138.4C149.76664842182083,138.4,152.95092136471445,126.4,156.1351943076081,126.4C159.2167487684729,126.4,162.2983032293377,136,165.37985769020253,136C168.56413063309614,136,171.74840357598978,135.20000000000002,174.9326765188834,133.60000000000002C178.0185109164994,132.04946236559144,181.10434531411542,122.83000000000001,184.19017971173142,122.83000000000001C187.37445265462506,122.83000000000001,190.55872559751867,133.06,193.74299854041232,133.06C196.92727148330596,133.06,200.1115444261996,126.51723970944312,203.29581736909324,122.80000000000001C206.1719348659004,119.44249316566432,209.04805236270755,114.5689750938084,211.9241698595147,112C215.10416286565712,109.159600454316,218.28415587179956,107.25999999999999,221.46414887794197,107.25999999999999C224.5457033388068,107.25999999999999,227.62725779967158,108.05999999999999,230.7088122605364,109.66C233.89308520343002,111.31333333333332,237.07735814632366,130,240.26163108921727,130C243.3431855500821,130,246.4247400109469,127.15536753040718,249.5062944718117,125.19999999999999C252.69056741470536,123.17945355191256,255.874840357599,118,259.05911330049264,118C262.2433862433863,118,265.42765918627987,137.87759562841532,268.6119321291735,146.8C271.69348659003833,155.43458487572715,274.7750410509031,170.8,277.8565955117679,170.8C281.04086845466156,170.8,284.22514139755515,119.80000000000001,287.4094143404488,119.80000000000001C290.4952487380648,119.80000000000001,293.58108313568084,146.8,296.66691753329684,146.8C299.8511904761905,146.8,303.03546341908407,103,306.2197363619777,103C309.40400930487135,103,312.588282247765,130,315.77255519065864,130C318.6486726874658,130,321.52479018427294,125.44,324.4009076810801,125.44C327.58090068722254,125.44,330.76089369336495,130.06,333.94088669950736,130.06C337.0224411603722,130.06,340.10399562123695,111.92258064516128,343.18555008210177,109.6C346.3698230249954,107.2,349.55409596788905,106,352.7383689107827,106C355.8199233716475,106,358.9014778325123,118.12,361.9830322933771,118.12C365.16730523627075,118.12,368.35157817916433,100.12,371.535851122058,100.12C374.7201240649516,100.12,377.90439700784526,114.1,381.0886699507389,114.1C384.1702244116037,114.1,387.2517788724685,108.4,390.3333333333333,108.4C393.51760627622696,108.4,396.7018792191206,112.99645941122728,399.88615216201424,114.39999999999998C402.97198655963024,115.76015156519503,406.0578209572463,116.79999999999998,409.1436553548623,116.79999999999998C412.32792829775593,116.79999999999998,415.5122012406495,97,418.69647418354316,97C421.8807471264368,97,425.0650200693304,119.19999999999999,428.24929301222403,119.19999999999999C431.22812899106003,119.19999999999999,434.206964969896,88.60000000000002,437.185800948732,88.60000000000002C440.3657939548744,88.60000000000002,443.54578696101686,94.98536682615632,446.72577996715927,100C449.8073344280241,104.8594022680585,452.8888888888889,118,455.97044334975374,118C459.1547162926473,118,462.33898923554096,114,465.52326217843455,106C468.6048166392994,98.25806451612893,471.6863711001642,62.859999999999985,474.767925561029,62.859999999999985C477.95219850392266,62.859999999999985,481.1364714468163,82.80499999999998,484.32074438970994,90.4C487.50501733260353,97.99499999999995,490.68929027549717,108.43,493.87356321839076,108.43C496.9551176792556,108.43,500.0366721401204,87.80645161290327,503.1182266009852,83.19999999999999C506.3024995438788,78.44,509.48677248677245,76.06,512.671045429666,76.06C515.7568798272821,76.06,518.8427142248981,90.4,521.9285486225142,90.4C525.1128215654078,90.4,528.2970945083015,73.85940000000001,531.4813674511951,68.80000000000001C534.6656403940887,63.74060000000001,537.8499133369824,60.0436,541.0341862798759,60.0436C543.9103037766831,60.0436,546.7864212734902,61.3624,549.6625387702974,64C552.8425317764398,66.91627500000001,556.0225247825822,88.12,559.2025177887247,88.12C562.2840722495895,88.12,565.3656267104543,71.41747223691172,568.4471811713191,64C571.6314541142127,56.335278688524625,574.8157270571064,49.66763934426231,578,43" style="fill: transparent; stroke: rgb(51, 51, 51); stroke-width: 2; opacity: 1;"></path></g></g></svg>