<svg xmlns="http://www.w3.org/2000/svg" width="640" height="324" role="img" aria-labelledby="victory-container-4-title victory-container-4-desc" viewBox="0 0 640 324" style="pointer-events: all; width: 100%; height: 100%;"><g role="presentation"><line x1="15" x2="578" y1="274" y2="274" role="presentation" shape-rendering="auto" vector-effect="non-scaling-stroke" style="stroke: rgb(226, 226, 226); fill: transparent; stroke-width: 1; stroke-linejoin: round;"></line><g role="presentation"><line x1="81.26626071884692" x2="81.26626071884692" y1="274" y2="34" role="presentation" shape-rendering="auto" vector-effect="non-scaling-stroke" style="stroke: transparent; fill: transparent; stroke-width: 1; stroke-linecap: round; stroke-linejoin: round; pointer-events: none;"></line><line x1="81.26626071884692" x2="81.26626071884692" y1="274" y2="278" role="presentation" shape-rendering="auto" vector-effect="non-scaling-stroke" style="stroke: transparent; fill: transparent; size: 4px; stroke-width: 1; stroke-linecap: round; stroke-linejoin: round;"></line><text dx="0" dy="11.969999999999999" x="81.26626071884692" y="286"><tspan x="81.26626071884692" dx="0" text-anchor="middle" style="fill: rgb(153, 153, 153); font-size: 14px; font-family: inherit; stroke: transparent; letter-spacing: normal; padding: 8px; stroke-width: 0;">2017</tspan></text></g><g role="presentation"><line x1="193.74299854041232" x2="193.74299854041232" y1="274" y2="34" role="presentation" shape-rendering="auto" vector-effect="non-scaling-stroke" style="stroke: transparent; fill: transparent; stroke-width: 1; stroke-linecap: round; stroke-linejoin: round; pointer-events: none;"></line><line x1="193.74299854041232" x2="193.74299854041232" y1="274" y2="278" role="presentation" shape-rendering="auto" vector-effect="non-scaling-stroke" style="stroke: transparent; fill: transparent; size: 4px; stroke-width: 1; stroke-linecap: round; stroke-linejoin: round;"></line><text dx="0" dy="11.969999999999999" x="193.74299854041232" y="286"><tspan x="193.74299854041232" dx="0" text-anchor="middle" style="fill: rgb(153, 153, 153); font-size: 14px; font-family: inherit; stroke: transparent; letter-spacing: normal; padding: 8px; stroke-width: 0;">2018</tspan></text></g><g role="presentation"><line x1="306.2197363619777" x2="306.2197363619777" y1="274" y2="34" role="presentation" shape-rendering="auto" vector-effect="non-scaling-stroke" style="stroke: transparent; fill: transparent; stroke-width: 1; stroke-linecap: round; stroke-linejoin: round; pointer-events: none;"></line><line x1="306.2197363619777" x2="306.2197363619777" y1="274" y2="278" role="presentation" shape-rendering="auto" vector-effect="non-scaling-stroke" style="stroke: transparent; fill: transparent; size: 4px; stroke-width: 1; stroke-linecap: round; stroke-linejoin: round;"></line><text dx="0" dy="11.969999999999999" x="306.2197363619777" y="286"><tspan x="306.2197363619777" dx="0" text-anchor="middle" style="fill: rgb(153, 153, 153); font-size: 14px; font-family: inherit; stroke: transparent; letter-spacing: normal; padding: 8px; stroke-width: 0;">2019</tspan></text></g><g role="presentation"><line x1="418.69647418354316" x2="418.69647418354316" y1="274" y2="34" role="presentation" shape-rendering="auto" vector-effect="non-scaling-stroke" style="stroke: transparent; fill: transparent; stroke-width: 1; stroke-linecap: round; stroke-linejoin: round; pointer-events: none;"></line><line x1="418.69647418354316" x2="418.69647418354316" y1="274" y2="278" role="presentation" shape-rendering="auto" vector-effect="non-scaling-stroke" style="stroke: transparent; fill: transparent; size: 4px; stroke-width: 1; stroke-linecap: round; stroke-linejoin: round;"></line><text dx="0" dy="11.969999999999999" x="418.69647418354316" y="286"><tspan x="418.69647418354316" dx="0" text-anchor="middle" style="fill: rgb(153, 153, 153); font-size: 14px; font-family: inherit; stroke: transparent; letter-spacing: normal; padding: 8px; stroke-width: 0;">2020</tspan></text></g><g role="presentation"><line x1="531.4813674511951" x2="531.4813674511951" y1="274" y2="34" role="presentation" shape-rendering="auto" vector-effect="non-scaling-stroke" style="stroke: transparent; fill: transparent; stroke-width: 1; stroke-linecap: round; stroke-linejoin: round; pointer-events: none;"></line><line x1="531.4813674511951" x2="531.4813674511951" y1="274" y2="278" role="presentation" shape-rendering="auto" vector-effect="non-scaling-stroke" style="stroke: transparent; fill: transparent; size: 4px; stroke-width: 1; stroke-linecap: round; stroke-linejoin: round;"></line><text dx="0" dy="11.969999999999999" x="531.4813674511951" y="286"><tspan x="531.4813674511951" dx="0" text-anchor="middle" style="fill: rgb(153, 153, 153); font-size: 14px; font-family: inherit; stroke: transparent; letter-spacing: normal; padding: 8px; stroke-width: 0;">2021</tspan></text></g></g><g role="presentation"><line x1="578" x2="578" y1="34" y2="274" role="presentation" shape-rendering="auto" vector-effect="non-scaling-stroke" style="stroke: transparent; fill: transparent; stroke-width: 1; stroke-linejoin: round;"></line><g role="presentation"><line x1="578" x2="15" y1="274" y2="274" role="presentation" shape-rendering="auto" vector-effect="non-scaling-stroke" style="stroke: rgb(226, 226, 226); fill: transparent; stroke-width: 1; stroke-linecap: round; stroke-linejoin: round; pointer-events: none;"></line><line x1="578" x2="582" y1="274" y2="274" role="presentation" shape-rendering="auto" vector-effect="non-scaling-stroke" style="stroke: transparent; fill: transparent; size: 4px; stroke-width: 1; stroke-linecap: round; stroke-linejoin: round;"></line><text dx="0" dy="4.97" x="590" y="274"><tspan x="590" dx="0" text-anchor="start" style="fill: rgb(153, 153, 153); font-size: 14px; font-family: inherit; stroke: transparent; letter-spacing: normal; padding: 8px; stroke-width: 0;">$100K</tspan></text></g><g role="presentation"><line x1="578" x2="15" y1="214" y2="214" role="presentation" shape-rendering="auto" vector-effect="non-scaling-stroke" style="stroke: rgb(226, 226, 226); fill: transparent; stroke-width: 1; stroke-linecap: round; stroke-linejoin: round; pointer-events: none;"></line><line x1="578" x2="582" y1="214" y2="214" role="presentation" shape-rendering="auto" vector-effect="non-scaling-stroke" style="stroke: transparent; fill: transparent; size: 4px; stroke-width: 1; stroke-linecap: round; stroke-linejoin: round;"></line><text dx="0" dy="4.97" x="590" y="214"><tspan x="590" dx="0" text-anchor="start" style="fill: rgb(153, 153, 153); font-size: 14px; font-family: inherit; stroke: transparent; letter-spacing: normal; padding: 8px; stroke-width: 0;">$150K</tspan></text></g><g role="presentation"><line x1="578" x2="15" y1="154" y2="154" role="presentation" shape-rendering="auto" vector-effect="non-scaling-stroke" style="stroke: rgb(226, 226, 226); fill: transparent; stroke-width: 1; stroke-linecap: round; stroke-linejoin: round; pointer-events: none;"></line><line x1="578" x2="582" y1="154" y2="154" role="presentation" shape-rendering="auto" vector-effect="non-scaling-stroke" style="stroke: transparent; fill: transparent; size: 4px; stroke-width: 1; stroke-linecap: round; stroke-linejoin: round;"></line><text dx="0" dy="4.97" x="590" y="154"><tspan x="590" dx="0" text-anchor="start" style="fill: rgb(153, 153, 153); font-size: 14px; font-family: inherit; stroke: transparent; letter-spacing: normal; padding: 8px; stroke-width: 0;">$200K</tspan></text></g><g role="presentation"><line x1="578" x2="15" y1="94" y2="94" role="presentation" shape-rendering="auto" vector-effect="non-scaling-stroke" style="stroke: rgb(226, 226, 226); fill: transparent; stroke-width: 1; stroke-linecap: round; stroke-linejoin: round; pointer-events: none;"></line><line x1="578" x2="582" y1="94" y2="94" role="presentation" shape-rendering="auto" vector-effect="non-scaling-stroke" style="stroke: transparent; fill: transparent; size: 4px; stroke-width: 1; stroke-linecap: round; stroke-linejoin: round;"></line><text dx="0" dy="4.97" x="590" y="94"><tspan x="590" dx="0" text-anchor="start" style="fill: rgb(153, 153, 153); font-size: 14px; font-family: inherit; stroke: transparent; letter-spacing: normal; padding: 8px; stroke-width: 0;">$250K</tspan></text></g><g role="presentation"><line x1="578" x2="15" y1="34" y2="34" role="presentation" shape-rendering="auto" vector-effect="non-scaling-stroke" style="stroke: rgb(226, 226, 226); fill: transparent; stroke-width: 1; stroke-linecap: round; stroke-linejoin: round; pointer-events: none;"></line><line x1="578" x2="582" y1="34" y2="34" role="presentation" shape-rendering="auto" vector-effect="non-scaling-stroke" style="stroke: transparent; fill: transparent; size: 4px; stroke-width: 1; stroke-linecap: round; stroke-linejoin: round;"></line><text dx="0" dy="4.97" x="590" y="34"><tspan x="590" dx="0" text-anchor="start" style="fill: rgb(153, 153, 153); font-size: 14px; font-family: inherit; stroke: transparent; letter-spacing: normal; padding: 8px; stroke-width: 0;">$300K</tspan></text></g></g><g style="height: 100%; width: 100%; user-select: none;"><defs><clipPath id="victory-clip-5"><rect x="15" y="34" width="563" height="240"></rect></clipPath></defs><g clip-path="url(#victory-clip-5)"><path shape-rendering="auto" role="presentation" d="M24.5528188286809,185.2C27.73709177157453,175.89999999999998,30.921364714468165,166.6,34.1056376573618,166.6C37.28991060025543,166.6,40.47418354314906,170.98666666666668,43.658456486042695,171.4C46.7400109469075,171.8,49.821565407772304,172,52.90311986863711,172C56.08739281153075,172,59.271665754424376,172,62.45593869731801,172C65.54177309493402,172,68.62760749255003,197.27679999999998,71.71344189016602,197.27679999999998C74.89771483305965,197.27679999999998,78.0819877759533,188.6,81.26626071884692,187.72C84.45053366174056,186.84,87.63480660463419,186.4,90.81907954752783,186.4C93.69519704433499,186.4,96.57131454114213,198.7,99.44743203794928,198.7C102.62742504409171,198.7,105.80741805023415,166.06,108.98741105637657,166.06C112.06896551724138,166.06,115.15051997810617,179.2,118.23207443897098,179.2C121.41634738186463,179.2,124.60062032475825,178.79999999999998,127.7848932676519,178C130.8664477285167,177.22580645161293,133.9480021893815,157,137.02955665024632,157C140.21382959313993,157,143.39810253603358,167,146.5823754789272,169C149.76664842182083,171,152.95092136471445,170,156.1351943076081,172C159.2167487684729,173.93548387096774,162.2983032293377,181.72,165.37985769020253,181.72C168.56413063309614,181.72,171.74840357598978,173.98402942443417,174.9326765188834,167.2C178.0185109164994,160.62569191529963,181.10434531411542,142,184.19017971173142,142C187.37445265462506,142,190.55872559751867,158.20000000000002,193.74299854041232,166.6C196.92727148330596,175,200.1115444261996,192.39999999999998,203.29581736909324,192.39999999999998C206.1719348659004,192.39999999999998,209.04805236270755,109.6,211.9241698595147,109.6C215.10416286565712,109.6,218.28415587179956,149.8,221.46414887794197,149.8C224.5457033388068,149.8,227.62725779967158,136,230.7088122605364,136C233.89308520343002,136,237.07735814632366,182.2,240.26163108921727,182.2C243.3431855500821,182.2,246.4247400109469,181.79999999999998,249.5062944718117,181C252.69056741470536,180.17333333333335,255.874840357599,160,259.05911330049264,160C262.2433862433863,160,265.42765918627987,177.38185792349728,268.6119321291735,182.8C271.69348659003833,188.04336329984136,274.7750410509031,192.39999999999998,277.8565955117679,192.39999999999998C281.04086845466156,192.39999999999998,284.22514139755515,169.50762431776116,287.4094143404488,160C290.4952487380648,150.78629417593302,293.58108313568084,136,296.66691753329684,136C299.8511904761905,136,303.03546341908407,167.44,306.2197363619777,167.44C309.40400930487135,167.44,312.588282247765,138.4,315.77255519065864,138.4C318.6486726874658,138.4,321.52479018427294,160,324.4009076810801,160C327.58090068722254,160,330.76089369336495,136.6,333.94088669950736,136.6C337.0224411603722,136.6,340.10399562123695,140.03987308302487,343.18555008210177,142.3C346.3698230249954,144.63546448087433,349.55409596788905,150.45999999999998,352.7383689107827,150.45999999999998C355.8199233716475,150.45999999999998,358.9014778325123,142.006,361.9830322933771,142.006C365.16730523627075,142.006,368.35157817916433,154.54,371.535851122058,154.54C374.7201240649516,154.54,377.90439700784526,145.08500546448087,381.0886699507389,142C384.1702244116037,139.01451084082498,387.2517788724685,136.12,390.3333333333333,136.12C393.51760627622696,136.12,396.7018792191206,163,399.88615216201424,163C402.97198655963024,163,406.0578209572463,158.72626993651144,409.1436553548623,155.8C412.32792829775593,152.7803816466512,415.5122012406495,150.76,418.69647418354316,145.06C421.8807471264368,139.36,425.0650200693304,121.6,428.24929301222403,121.6C431.22812899106003,121.6,434.206964969896,142.6,437.185800948732,142.6C440.3657939548744,142.6,443.54578696101686,135.4,446.72577996715927,135.4C449.8073344280241,135.4,452.8888888888889,164.8,455.97044334975374,164.8C459.1547162926473,164.8,462.33898923554096,130.5073333333332,465.52326217843455,121.6C468.6048166392994,112.97999999999999,471.6863711001642,108.66999999999999,474.767925561029,108.66999999999999C477.95219850392266,108.66999999999999,481.1364714468163,118,484.32074438970994,118C487.50501733260353,118,490.68929027549717,108.41081967213115,493.87356321839076,105.4C496.9551176792556,102.48630354309886,500.0366721401204,100,503.1182266009852,100C506.3024995438788,100,509.48677248677245,115.72981969486828,512.671045429666,118C515.7568798272821,120.2,518.8427142248981,121.30000000000001,521.9285486225142,121.30000000000001C525.1128215654078,121.30000000000001,528.2970945083015,94,531.4813674511951,94C534.6656403940887,94,537.8499133369824,116.79999999999998,541.0341862798759,116.79999999999998C543.9103037766831,116.79999999999998,546.7864212734902,82,549.6625387702974,82C552.8425317764398,82,556.0225247825822,100.73754784688998,559.2025177887247,107.80000000000001C562.2840722495895,114.64382981189672,565.3656267104543,124,568.4471811713191,124C571.6314541142127,124,574.8157270571064,115,578,106" style="fill: transparent; stroke: rgb(51, 51, 51); stroke-width: 2; opacity: 1;"></path></g></g></svg>