<svg xmlns="http://www.w3.org/2000/svg" width="640" height="324" role="img" aria-labelledby="victory-container-4-title victory-container-4-desc" viewBox="0 0 640 324" style="pointer-events: all; width: 100%; height: 100%;"><g role="presentation"><line x1="15" x2="578" y1="274" y2="274" role="presentation" shape-rendering="auto" vector-effect="non-scaling-stroke" style="stroke: rgb(226, 226, 226); fill: transparent; stroke-width: 1; stroke-linejoin: round;"></line><g role="presentation"><line x1="81.26626071884692" x2="81.26626071884692" y1="274" y2="34" role="presentation" shape-rendering="auto" vector-effect="non-scaling-stroke" style="stroke: transparent; fill: transparent; stroke-width: 1; stroke-linecap: round; stroke-linejoin: round; pointer-events: none;"></line><line x1="81.26626071884692" x2="81.26626071884692" y1="274" y2="278" role="presentation" shape-rendering="auto" vector-effect="non-scaling-stroke" style="stroke: transparent; fill: transparent; size: 4px; stroke-width: 1; stroke-linecap: round; stroke-linejoin: round;"></line><text dx="0" dy="11.969999999999999" x="81.26626071884692" y="286"><tspan x="81.26626071884692" dx="0" text-anchor="middle" style="fill: rgb(153, 153, 153); font-size: 14px; font-family: inherit; stroke: transparent; letter-spacing: normal; padding: 8px; stroke-width: 0;">2017</tspan></text></g><g role="presentation"><line x1="193.74299854041232" x2="193.74299854041232" y1="274" y2="34" role="presentation" shape-rendering="auto" vector-effect="non-scaling-stroke" style="stroke: transparent; fill: transparent; stroke-width: 1; stroke-linecap: round; stroke-linejoin: round; pointer-events: none;"></line><line x1="193.74299854041232" x2="193.74299854041232" y1="274" y2="278" role="presentation" shape-rendering="auto" vector-effect="non-scaling-stroke" style="stroke: transparent; fill: transparent; size: 4px; stroke-width: 1; stroke-linecap: round; stroke-linejoin: round;"></line><text dx="0" dy="11.969999999999999" x="193.74299854041232" y="286"><tspan x="193.74299854041232" dx="0" text-anchor="middle" style="fill: rgb(153, 153, 153); font-size: 14px; font-family: inherit; stroke: transparent; letter-spacing: normal; padding: 8px; stroke-width: 0;">2018</tspan></text></g><g role="presentation"><line x1="306.2197363619777" x2="306.2197363619777" y1="274" y2="34" role="presentation" shape-rendering="auto" vector-effect="non-scaling-stroke" style="stroke: transparent; fill: transparent; stroke-width: 1; stroke-linecap: round; stroke-linejoin: round; pointer-events: none;"></line><line x1="306.2197363619777" x2="306.2197363619777" y1="274" y2="278" role="presentation" shape-rendering="auto" vector-effect="non-scaling-stroke" style="stroke: transparent; fill: transparent; size: 4px; stroke-width: 1; stroke-linecap: round; stroke-linejoin: round;"></line><text dx="0" dy="11.969999999999999" x="306.2197363619777" y="286"><tspan x="306.2197363619777" dx="0" text-anchor="middle" style="fill: rgb(153, 153, 153); font-size: 14px; font-family: inherit; stroke: transparent; letter-spacing: normal; padding: 8px; stroke-width: 0;">2019</tspan></text></g><g role="presentation"><line x1="418.69647418354316" x2="418.69647418354316" y1="274" y2="34" role="presentation" shape-rendering="auto" vector-effect="non-scaling-stroke" style="stroke: transparent; fill: transparent; stroke-width: 1; stroke-linecap: round; stroke-linejoin: round; pointer-events: none;"></line><line x1="418.69647418354316" x2="418.69647418354316" y1="274" y2="278" role="presentation" shape-rendering="auto" vector-effect="non-scaling-stroke" style="stroke: transparent; fill: transparent; size: 4px; stroke-width: 1; stroke-linecap: round; stroke-linejoin: round;"></line><text dx="0" dy="11.969999999999999" x="418.69647418354316" y="286"><tspan x="418.69647418354316" dx="0" text-anchor="middle" style="fill: rgb(153, 153, 153); font-size: 14px; font-family: inherit; stroke: transparent; letter-spacing: normal; padding: 8px; stroke-width: 0;">2020</tspan></text></g><g role="presentation"><line x1="531.4813674511951" x2="531.4813674511951" y1="274" y2="34" role="presentation" shape-rendering="auto" vector-effect="non-scaling-stroke" style="stroke: transparent; fill: transparent; stroke-width: 1; stroke-linecap: round; stroke-linejoin: round; pointer-events: none;"></line><line x1="531.4813674511951" x2="531.4813674511951" y1="274" y2="278" role="presentation" shape-rendering="auto" vector-effect="non-scaling-stroke" style="stroke: transparent; fill: transparent; size: 4px; stroke-width: 1; stroke-linecap: round; stroke-linejoin: round;"></line><text dx="0" dy="11.969999999999999" x="531.4813674511951" y="286"><tspan x="531.4813674511951" dx="0" text-anchor="middle" style="fill: rgb(153, 153, 153); font-size: 14px; font-family: inherit; stroke: transparent; letter-spacing: normal; padding: 8px; stroke-width: 0;">2021</tspan></text></g></g><g role="presentation"><line x1="578" x2="578" y1="34" y2="274" role="presentation" shape-rendering="auto" vector-effect="non-scaling-stroke" style="stroke: transparent; fill: transparent; stroke-width: 1; stroke-linejoin: round;"></line><g role="presentation"><line x1="578" x2="15" y1="274" y2="274" role="presentation" shape-rendering="auto" vector-effect="non-scaling-stroke" style="stroke: rgb(226, 226, 226); fill: transparent; stroke-width: 1; stroke-linecap: round; stroke-linejoin: round; pointer-events: none;"></line><line x1="578" x2="582" y1="274" y2="274" role="presentation" shape-rendering="auto" vector-effect="non-scaling-stroke" style="stroke: transparent; fill: transparent; size: 4px; stroke-width: 1; stroke-linecap: round; stroke-linejoin: round;"></line><text dx="0" dy="4.97" x="590" y="274"><tspan x="590" dx="0" text-anchor="start" style="fill: rgb(153, 153, 153); font-size: 14px; font-family: inherit; stroke: transparent; letter-spacing: normal; padding: 8px; stroke-width: 0;">$100K</tspan></text></g><g role="presentation"><line x1="578" x2="15" y1="214" y2="214" role="presentation" shape-rendering="auto" vector-effect="non-scaling-stroke" style="stroke: rgb(226, 226, 226); fill: transparent; stroke-width: 1; stroke-linecap: round; stroke-linejoin: round; pointer-events: none;"></line><line x1="578" x2="582" y1="214" y2="214" role="presentation" shape-rendering="auto" vector-effect="non-scaling-stroke" style="stroke: transparent; fill: transparent; size: 4px; stroke-width: 1; stroke-linecap: round; stroke-linejoin: round;"></line><text dx="0" dy="4.97" x="590" y="214"><tspan x="590" dx="0" text-anchor="start" style="fill: rgb(153, 153, 153); font-size: 14px; font-family: inherit; stroke: transparent; letter-spacing: normal; padding: 8px; stroke-width: 0;">$150K</tspan></text></g><g role="presentation"><line x1="578" x2="15" y1="154" y2="154" role="presentation" shape-rendering="auto" vector-effect="non-scaling-stroke" style="stroke: rgb(226, 226, 226); fill: transparent; stroke-width: 1; stroke-linecap: round; stroke-linejoin: round; pointer-events: none;"></line><line x1="578" x2="582" y1="154" y2="154" role="presentation" shape-rendering="auto" vector-effect="non-scaling-stroke" style="stroke: transparent; fill: transparent; size: 4px; stroke-width: 1; stroke-linecap: round; stroke-linejoin: round;"></line><text dx="0" dy="4.97" x="590" y="154"><tspan x="590" dx="0" text-anchor="start" style="fill: rgb(153, 153, 153); font-size: 14px; font-family: inherit; stroke: transparent; letter-spacing: normal; padding: 8px; stroke-width: 0;">$200K</tspan></text></g><g role="presentation"><line x1="578" x2="15" y1="94" y2="94" role="presentation" shape-rendering="auto" vector-effect="non-scaling-stroke" style="stroke: rgb(226, 226, 226); fill: transparent; stroke-width: 1; stroke-linecap: round; stroke-linejoin: round; pointer-events: none;"></line><line x1="578" x2="582" y1="94" y2="94" role="presentation" shape-rendering="auto" vector-effect="non-scaling-stroke" style="stroke: transparent; fill: transparent; size: 4px; stroke-width: 1; stroke-linecap: round; stroke-linejoin: round;"></line><text dx="0" dy="4.97" x="590" y="94"><tspan x="590" dx="0" text-anchor="start" style="fill: rgb(153, 153, 153); font-size: 14px; font-family: inherit; stroke: transparent; letter-spacing: normal; padding: 8px; stroke-width: 0;">$250K</tspan></text></g><g role="presentation"><line x1="578" x2="15" y1="34" y2="34" role="presentation" shape-rendering="auto" vector-effect="non-scaling-stroke" style="stroke: rgb(226, 226, 226); fill: transparent; stroke-width: 1; stroke-linecap: round; stroke-linejoin: round; pointer-events: none;"></line><line x1="578" x2="582" y1="34" y2="34" role="presentation" shape-rendering="auto" vector-effect="non-scaling-stroke" style="stroke: transparent; fill: transparent; size: 4px; stroke-width: 1; stroke-linecap: round; stroke-linejoin: round;"></line><text dx="0" dy="4.97" x="590" y="34"><tspan x="590" dx="0" text-anchor="start" style="fill: rgb(153, 153, 153); font-size: 14px; font-family: inherit; stroke: transparent; letter-spacing: normal; padding: 8px; stroke-width: 0;">$300K</tspan></text></g></g><g style="height: 100%; width: 100%; user-select: none;"><defs><clipPath id="victory-clip-5"><rect x="15" y="34" width="563" height="240"></rect></clipPath></defs><g clip-path="url(#victory-clip-5)"><path shape-rendering="auto" role="presentation" d="M24.5528188286809,148.006C27.73709177157453,137.803,30.921364714468165,127.6,34.1056376573618,127.6C37.28991060025543,127.6,40.47418354314906,135.45126666666664,43.658456486042695,136.89999999999998C46.7400109469075,138.302,49.821565407772304,137.60099999999997,52.90311986863711,139.003C56.08739281153075,140.45173333333332,59.271665754424376,179.803,62.45593869731801,179.803C65.54177309493402,179.803,68.62760749255003,164.2,71.71344189016602,164.2C74.89771483305965,164.2,78.0819877759533,168.51999999999998,81.26626071884692,168.51999999999998C84.45053366174056,168.51999999999998,87.63480660463419,167.48,90.81907954752783,165.39999999999998C93.69519704433499,163.52129032258063,96.57131454114213,108.4,99.44743203794928,108.4C102.62742504409171,108.4,105.80741805023415,140.203,108.98741105637657,140.203C112.06896551724138,140.203,115.15051997810617,122.20000000000002,118.23207443897098,122.20000000000002C121.41634738186463,122.20000000000002,124.60062032475825,172,127.7848932676519,172C130.8664477285167,172,133.9480021893815,154.73083024854574,137.02955665024632,148C140.21382959313993,141.04480874316943,143.39810253603358,131.20000000000002,146.5823754789272,131.20000000000002C149.76664842182083,131.20000000000002,152.95092136471445,154.12,156.1351943076081,154.12C159.2167487684729,154.12,162.2983032293377,151.281,165.37985769020253,145.603C168.56413063309614,139.73573333333337,171.74840357598978,97.6,174.9326765188834,97.6C178.0185109164994,97.6,181.10434531411542,135.1662897721017,184.19017971173142,150.39999999999998C187.37445265462506,166.11966769702676,190.55872559751867,187.60000000000002,193.74299854041232,190C196.92727148330596,192.4,200.1115444261996,193.6,203.29581736909324,193.6C206.1719348659004,193.6,209.04805236270755,136,211.9241698595147,136C215.10416286565712,136,218.28415587179956,138.2,221.46414887794197,142.6C224.5457033388068,146.86379542395696,227.62725779967158,163.6,230.7088122605364,163.6C233.89308520343002,163.6,237.07735814632366,142,240.26163108921727,142C243.3431855500821,142,246.4247400109469,158.8,249.5062944718117,158.8C252.69056741470536,158.8,255.874840357599,130,259.05911330049264,130C262.2433862433863,130,265.42765918627987,163.6,268.6119321291735,163.6C271.69348659003833,163.6,274.7750410509031,142.57590322580648,277.8565955117679,138.703C281.04086845466156,134.701,284.22514139755515,132.7,287.4094143404488,132.7C290.4952487380648,132.7,293.58108313568084,133.4,296.66691753329684,134.8C299.8511904761905,136.24466019417477,303.03546341908407,158.2,306.2197363619777,158.2C309.40400930487135,158.2,312.588282247765,142,315.77255519065864,142C318.6486726874658,142,321.52479018427294,148.8233932724272,324.4009076810801,151C327.58090068722254,153.40657559313476,330.76089369336495,155.2,333.94088669950736,155.2C337.0224411603722,155.2,340.10399562123695,141.92258064516128,343.18555008210177,139.6C346.3698230249954,137.2,349.55409596788905,138.4,352.7383689107827,136C355.8199233716475,133.67741935483872,358.9014778325123,110.79999999999998,361.9830322933771,110.79999999999998C365.16730523627075,110.79999999999998,368.35157817916433,142.6,371.535851122058,142.6C374.7201240649516,142.6,377.90439700784526,109.6,381.0886699507389,109.6C384.1702244116037,109.6,387.2517788724685,130,390.3333333333333,130C393.51760627622696,130,396.7018792191206,100,399.88615216201424,100C402.97198655963024,100,406.0578209572463,102.45,409.1436553548623,107.35000000000002C412.32792829775593,112.40631067961166,415.5122012406495,136,418.69647418354316,136C421.8807471264368,136,425.0650200693304,124,428.24929301222403,124C431.22812899106003,124,434.206964969896,124,437.185800948732,124C440.3657939548744,124,443.54578696101686,130.06,446.72577996715927,130.06C449.8073344280241,130.06,452.8888888888889,124.13052353252252,455.97044334975374,120.4C459.1547162926473,116.54512568306014,462.33898923554096,111.04437158469945,465.52326217843455,107.20000000000002C468.6048166392994,103.47964040190374,471.6863711001642,97.6,474.767925561029,97.6C477.95219850392266,97.6,481.1364714468163,100,484.32074438970994,100C487.50501733260353,100,490.68929027549717,88,493.87356321839076,88C496.9551176792556,88,500.0366721401204,98.72200000000001,503.1182266009852,98.72200000000001C506.3024995438788,98.72200000000001,509.48677248677245,97.9216,512.671045429666,96.32079999999999C515.7568798272821,94.76948709677414,518.8427142248981,70.6,521.9285486225142,70.6C525.1128215654078,70.6,528.2970945083015,103,531.4813674511951,103C534.6656403940887,103,537.8499133369824,99.07817445520581,541.0341862798759,93.10300000000001C543.9103037766831,87.70606823400766,546.7864212734902,75.5538939434724,549.6625387702974,70.36240000000001C552.8425317764398,64.62240000000001,556.0225247825822,67.49240000000002,559.2025177887247,61.75240000000002C562.2840722495895,56.19008506056527,565.3656267104543,34.119999999999976,568.4471811713191,34.119999999999976C571.6314541142127,34.119999999999976,574.8157270571064,54.592,578,75.06400000000002" style="fill: transparent; stroke: rgb(51, 51, 51); stroke-width: 2; opacity: 1;"></path></g></g></svg>