<svg xmlns="http://www.w3.org/2000/svg" width="640" height="324" role="img" aria-labelledby="victory-container-4-title victory-container-4-desc" viewBox="0 0 640 324" style="pointer-events: all; width: 100%; height: 100%;"><g role="presentation"><line x1="15" x2="578" y1="274" y2="274" role="presentation" shape-rendering="auto" vector-effect="non-scaling-stroke" style="stroke: rgb(226, 226, 226); fill: transparent; stroke-width: 1; stroke-linejoin: round;"></line><g role="presentation"><line x1="81.26626071884692" x2="81.26626071884692" y1="274" y2="34" role="presentation" shape-rendering="auto" vector-effect="non-scaling-stroke" style="stroke: transparent; fill: transparent; stroke-width: 1; stroke-linecap: round; stroke-linejoin: round; pointer-events: none;"></line><line x1="81.26626071884692" x2="81.26626071884692" y1="274" y2="278" role="presentation" shape-rendering="auto" vector-effect="non-scaling-stroke" style="stroke: transparent; fill: transparent; size: 4px; stroke-width: 1; stroke-linecap: round; stroke-linejoin: round;"></line><text dx="0" dy="11.969999999999999" x="81.26626071884692" y="286"><tspan x="81.26626071884692" dx="0" text-anchor="middle" style="fill: rgb(153, 153, 153); font-size: 14px; font-family: inherit; stroke: transparent; letter-spacing: normal; padding: 8px; stroke-width: 0;">2017</tspan></text></g><g role="presentation"><line x1="193.74299854041232" x2="193.74299854041232" y1="274" y2="34" role="presentation" shape-rendering="auto" vector-effect="non-scaling-stroke" style="stroke: transparent; fill: transparent; stroke-width: 1; stroke-linecap: round; stroke-linejoin: round; pointer-events: none;"></line><line x1="193.74299854041232" x2="193.74299854041232" y1="274" y2="278" role="presentation" shape-rendering="auto" vector-effect="non-scaling-stroke" style="stroke: transparent; fill: transparent; size: 4px; stroke-width: 1; stroke-linecap: round; stroke-linejoin: round;"></line><text dx="0" dy="11.969999999999999" x="193.74299854041232" y="286"><tspan x="193.74299854041232" dx="0" text-anchor="middle" style="fill: rgb(153, 153, 153); font-size: 14px; font-family: inherit; stroke: transparent; letter-spacing: normal; padding: 8px; stroke-width: 0;">2018</tspan></text></g><g role="presentation"><line x1="306.2197363619777" x2="306.2197363619777" y1="274" y2="34" role="presentation" shape-rendering="auto" vector-effect="non-scaling-stroke" style="stroke: transparent; fill: transparent; stroke-width: 1; stroke-linecap: round; stroke-linejoin: round; pointer-events: none;"></line><line x1="306.2197363619777" x2="306.2197363619777" y1="274" y2="278" role="presentation" shape-rendering="auto" vector-effect="non-scaling-stroke" style="stroke: transparent; fill: transparent; size: 4px; stroke-width: 1; stroke-linecap: round; stroke-linejoin: round;"></line><text dx="0" dy="11.969999999999999" x="306.2197363619777" y="286"><tspan x="306.2197363619777" dx="0" text-anchor="middle" style="fill: rgb(153, 153, 153); font-size: 14px; font-family: inherit; stroke: transparent; letter-spacing: normal; padding: 8px; stroke-width: 0;">2019</tspan></text></g><g role="presentation"><line x1="418.69647418354316" x2="418.69647418354316" y1="274" y2="34" role="presentation" shape-rendering="auto" vector-effect="non-scaling-stroke" style="stroke: transparent; fill: transparent; stroke-width: 1; stroke-linecap: round; stroke-linejoin: round; pointer-events: none;"></line><line x1="418.69647418354316" x2="418.69647418354316" y1="274" y2="278" role="presentation" shape-rendering="auto" vector-effect="non-scaling-stroke" style="stroke: transparent; fill: transparent; size: 4px; stroke-width: 1; stroke-linecap: round; stroke-linejoin: round;"></line><text dx="0" dy="11.969999999999999" x="418.69647418354316" y="286"><tspan x="418.69647418354316" dx="0" text-anchor="middle" style="fill: rgb(153, 153, 153); font-size: 14px; font-family: inherit; stroke: transparent; letter-spacing: normal; padding: 8px; stroke-width: 0;">2020</tspan></text></g><g role="presentation"><line x1="531.4813674511951" x2="531.4813674511951" y1="274" y2="34" role="presentation" shape-rendering="auto" vector-effect="non-scaling-stroke" style="stroke: transparent; fill: transparent; stroke-width: 1; stroke-linecap: round; stroke-linejoin: round; pointer-events: none;"></line><line x1="531.4813674511951" x2="531.4813674511951" y1="274" y2="278" role="presentation" shape-rendering="auto" vector-effect="non-scaling-stroke" style="stroke: transparent; fill: transparent; size: 4px; stroke-width: 1; stroke-linecap: round; stroke-linejoin: round;"></line><text dx="0" dy="11.969999999999999" x="531.4813674511951" y="286"><tspan x="531.4813674511951" dx="0" text-anchor="middle" style="fill: rgb(153, 153, 153); font-size: 14px; font-family: inherit; stroke: transparent; letter-spacing: normal; padding: 8px; stroke-width: 0;">2021</tspan></text></g></g><g role="presentation"><line x1="578" x2="578" y1="34" y2="274" role="presentation" shape-rendering="auto" vector-effect="non-scaling-stroke" style="stroke: transparent; fill: transparent; stroke-width: 1; stroke-linejoin: round;"></line><g role="presentation"><line x1="578" x2="15" y1="274" y2="274" role="presentation" shape-rendering="auto" vector-effect="non-scaling-stroke" style="stroke: rgb(226, 226, 226); fill: transparent; stroke-width: 1; stroke-linecap: round; stroke-linejoin: round; pointer-events: none;"></line><line x1="578" x2="582" y1="274" y2="274" role="presentation" shape-rendering="auto" vector-effect="non-scaling-stroke" style="stroke: transparent; fill: transparent; size: 4px; stroke-width: 1; stroke-linecap: round; stroke-linejoin: round;"></line><text dx="0" dy="4.97" x="590" y="274"><tspan x="590" dx="0" text-anchor="start" style="fill: rgb(153, 153, 153); font-size: 14px; font-family: inherit; stroke: transparent; letter-spacing: normal; padding: 8px; stroke-width: 0;">$50K</tspan></text></g><g role="presentation"><line x1="578" x2="15" y1="226" y2="226" role="presentation" shape-rendering="auto" vector-effect="non-scaling-stroke" style="stroke: rgb(226, 226, 226); fill: transparent; stroke-width: 1; stroke-linecap: round; stroke-linejoin: round; pointer-events: none;"></line><line x1="578" x2="582" y1="226" y2="226" role="presentation" shape-rendering="auto" vector-effect="non-scaling-stroke" style="stroke: transparent; fill: transparent; size: 4px; stroke-width: 1; stroke-linecap: round; stroke-linejoin: round;"></line><text dx="0" dy="4.97" x="590" y="226"><tspan x="590" dx="0" text-anchor="start" style="fill: rgb(153, 153, 153); font-size: 14px; font-family: inherit; stroke: transparent; letter-spacing: normal; padding: 8px; stroke-width: 0;">$100K</tspan></text></g><g role="presentation"><line x1="578" x2="15" y1="178" y2="178" role="presentation" shape-rendering="auto" vector-effect="non-scaling-stroke" style="stroke: rgb(226, 226, 226); fill: transparent; stroke-width: 1; stroke-linecap: round; stroke-linejoin: round; pointer-events: none;"></line><line x1="578" x2="582" y1="178" y2="178" role="presentation" shape-rendering="auto" vector-effect="non-scaling-stroke" style="stroke: transparent; fill: transparent; size: 4px; stroke-width: 1; stroke-linecap: round; stroke-linejoin: round;"></line><text dx="0" dy="4.97" x="590" y="178"><tspan x="590" dx="0" text-anchor="start" style="fill: rgb(153, 153, 153); font-size: 14px; font-family: inherit; stroke: transparent; letter-spacing: normal; padding: 8px; stroke-width: 0;">$150K</tspan></text></g><g role="presentation"><line x1="578" x2="15" y1="130" y2="130" role="presentation" shape-rendering="auto" vector-effect="non-scaling-stroke" style="stroke: rgb(226, 226, 226); fill: transparent; stroke-width: 1; stroke-linecap: round; stroke-linejoin: round; pointer-events: none;"></line><line x1="578" x2="582" y1="130" y2="130" role="presentation" shape-rendering="auto" vector-effect="non-scaling-stroke" style="stroke: transparent; fill: transparent; size: 4px; stroke-width: 1; stroke-linecap: round; stroke-linejoin: round;"></line><text dx="0" dy="4.97" x="590" y="130"><tspan x="590" dx="0" text-anchor="start" style="fill: rgb(153, 153, 153); font-size: 14px; font-family: inherit; stroke: transparent; letter-spacing: normal; padding: 8px; stroke-width: 0;">$200K</tspan></text></g><g role="presentation"><line x1="578" x2="15" y1="82" y2="82" role="presentation" shape-rendering="auto" vector-effect="non-scaling-stroke" style="stroke: rgb(226, 226, 226); fill: transparent; stroke-width: 1; stroke-linecap: round; stroke-linejoin: round; pointer-events: none;"></line><line x1="578" x2="582" y1="82" y2="82" role="presentation" shape-rendering="auto" vector-effect="non-scaling-stroke" style="stroke: transparent; fill: transparent; size: 4px; stroke-width: 1; stroke-linecap: round; stroke-linejoin: round;"></line><text dx="0" dy="4.97" x="590" y="82"><tspan x="590" dx="0" text-anchor="start" style="fill: rgb(153, 153, 153); font-size: 14px; font-family: inherit; stroke: transparent; letter-spacing: normal; padding: 8px; stroke-width: 0;">$250K</tspan></text></g><g role="presentation"><line x1="578" x2="15" y1="34" y2="34" role="presentation" shape-rendering="auto" vector-effect="non-scaling-stroke" style="stroke: rgb(226, 226, 226); fill: transparent; stroke-width: 1; stroke-linecap: round; stroke-linejoin: round; pointer-events: none;"></line><line x1="578" x2="582" y1="34" y2="34" role="presentation" shape-rendering="auto" vector-effect="non-scaling-stroke" style="stroke: transparent; fill: transparent; size: 4px; stroke-width: 1; stroke-linecap: round; stroke-linejoin: round;"></line><text dx="0" dy="4.97" x="590" y="34"><tspan x="590" dx="0" text-anchor="start" style="fill: rgb(153, 153, 153); font-size: 14px; font-family: inherit; stroke: transparent; letter-spacing: normal; padding: 8px; stroke-width: 0;">$300K</tspan></text></g></g><g style="height: 100%; width: 100%; user-select: none;"><defs><clipPath id="victory-clip-5"><rect x="15" y="34" width="563" height="240"></rect></clipPath></defs><g clip-path="url(#victory-clip-5)"><path shape-rendering="auto" role="presentation" d="M24.5528188286809,154.48000000000002C27.73709177157453,164.22,30.921364714468165,173.95999999999998,34.1056376573618,192.39999999999998C37.28991060025543,210.83999999999997,40.47418354314906,265.12,43.658456486042695,265.12C46.7400109469075,265.12,49.821565407772304,34,52.90311986863711,34C56.08739281153075,34,59.271665754424376,182.8,62.45593869731801,182.8C65.54177309493402,182.8,68.62760749255003,131.92000000000002,71.71344189016602,131.92000000000002C74.89771483305965,131.92000000000002,78.0819877759533,178.63968000000003,81.26626071884692,179.92000000000002C84.45053366174056,181.20032,87.63480660463419,180.56016000000002,90.81907954752783,181.84048C93.69519704433499,182.99689806451613,96.57131454114213,223.12,99.44743203794928,223.12C102.62742504409171,223.12,105.80741805023415,152.07999999999998,108.98741105637657,152.07999999999998C112.06896551724138,152.07999999999998,115.15051997810617,158.38176626123746,118.23207443897098,160.24C121.41634738186463,162.160174863388,124.60062032475825,161.24,127.7848932676519,163.24C130.8664477285167,165.17548387096775,133.9480021893815,175.60000000000002,137.02955665024632,175.60000000000002C140.21382959313993,175.60000000000002,143.39810253603358,174.8,146.5823754789272,173.2C149.76664842182083,171.59999999999997,152.95092136471445,160.24,156.1351943076081,160.24C159.2167487684729,160.24,162.2983032293377,198.16,165.37985769020253,198.16C168.56413063309614,198.16,171.74840357598978,178,174.9326765188834,178C178.0185109164994,178,181.10434531411542,199.12,184.19017971173142,199.12C187.37445265462506,199.12,190.55872559751867,124.048,193.74299854041232,124.048C196.92727148330596,124.048,200.1115444261996,155.24091041162228,203.29581736909324,168.4C206.1719348659004,180.2856293056315,209.04805236270755,200.07999999999998,211.9241698595147,200.07999999999998C215.10416286565712,200.07999999999998,218.28415587179956,101.20000000000002,221.46414887794197,101.20000000000002C224.5457033388068,101.20000000000002,227.62725779967158,149.2,230.7088122605364,149.2C233.89308520343002,149.2,237.07735814632366,130,240.26163108921727,130C243.3431855500821,130,246.4247400109469,134.79999999999998,249.5062944718117,144.39999999999998C252.69056741470536,154.31999999999996,255.874840357599,210.4,259.05911330049264,210.4C262.2433862433863,210.4,265.42765918627987,139.72800000000004,268.6119321291735,135.76000000000002C271.69348659003833,131.92000000000002,274.7750410509031,130,277.8565955117679,130C281.04086845466156,130,284.22514139755515,182.8,287.4094143404488,182.8C290.4952487380648,182.8,293.58108313568084,164.32,296.66691753329684,164.32C299.8511904761905,164.32,303.03546341908407,178,306.2197363619777,178C309.40400930487135,178,312.588282247765,108.4,315.77255519065864,108.4C318.6486726874658,108.4,321.52479018427294,131.16755356234154,324.4009076810801,140.07999999999998C327.58090068722254,149.93408884401808,330.76089369336495,163.6,333.94088669950736,163.6C337.0224411603722,163.6,340.10399562123695,125.19999999999999,343.18555008210177,125.19999999999999C346.3698230249954,125.19999999999999,349.55409596788905,127.92,352.7383689107827,133.36C355.8199233716475,138.62451612903226,358.9014778325123,170.10322580645158,361.9830322933771,173.2C365.16730523627075,176.4,368.35157817916433,178,371.535851122058,178C374.7201240649516,178,377.90439700784526,140.92000000000002,381.0886699507389,140.92000000000002C384.1702244116037,140.92000000000002,387.2517788724685,154.13171866737176,390.3333333333333,159.76C393.51760627622696,165.5758907103825,396.7018792191206,175.12,399.88615216201424,175.12C402.97198655963024,175.12,406.0578209572463,101.20000000000002,409.1436553548623,101.20000000000002C412.32792829775593,101.20000000000002,415.5122012406495,169.36,418.69647418354316,169.36C421.8807471264368,169.36,425.0650200693304,130.528,428.24929301222403,130.528C431.22812899106003,130.528,434.206964969896,148.48,437.185800948732,148.48C440.3657939548744,148.48,443.54578696101686,73.36000000000001,446.72577996715927,73.36000000000001C449.8073344280241,73.36000000000001,452.8888888888889,157.84,455.97044334975374,157.84C459.1547162926473,157.84,462.33898923554096,143.68533333333326,465.52326217843455,141.04C468.6048166392994,138.48000000000002,471.6863711001642,139.76,474.767925561029,137.20000000000002C477.95219850392266,134.55466666666672,481.1364714468163,100.54527999999999,484.32074438970994,99.952C487.50501733260353,99.35872,490.68929027549717,99.06208000000001,493.87356321839076,99.06208000000001C496.9551176792556,99.06208000000001,500.0366721401204,108.04995502908513,503.1182266009852,110.79999999999998C506.3024995438788,113.64171313661197,509.48677248677245,112.40031999999998,512.671045429666,115.60095999999999C515.7568798272821,118.70265548387103,518.8427142248981,154,521.9285486225142,154C525.1128215654078,154,528.2970945083015,104.00799999999998,531.4813674511951,104.00799999999998C534.6656403940887,104.00799999999998,537.8499133369824,105.95199999999998,541.0341862798759,109.83999999999997C543.9103037766831,113.35174193548384,546.7864212734902,140.56,549.6625387702974,140.56C552.8425317764398,140.56,556.0225247825822,116.91962346776032,559.2025177887247,108.88000000000002C562.2840722495895,101.08924778359699,565.3656267104543,103.44399365415134,568.4471811713191,92.608C571.6314541142127,81.41080655737706,574.8157270571064,61.545403278688525,578,41.68000000000001" style="fill: transparent; stroke: rgb(51, 51, 51); stroke-width: 2; opacity: 1;"></path></g></g></svg>