<svg xmlns="http://www.w3.org/2000/svg" width="640" height="324" role="img" aria-labelledby="victory-container-4-title victory-container-4-desc" viewBox="0 0 640 324" style="pointer-events: all; width: 100%; height: 100%;"><g role="presentation"><line x1="15" x2="578" y1="274" y2="274" role="presentation" shape-rendering="auto" vector-effect="non-scaling-stroke" style="stroke: rgb(226, 226, 226); fill: transparent; stroke-width: 1; stroke-linejoin: round;"></line><g role="presentation"><line x1="81.26626071884692" x2="81.26626071884692" y1="274" y2="34" role="presentation" shape-rendering="auto" vector-effect="non-scaling-stroke" style="stroke: transparent; fill: transparent; stroke-width: 1; stroke-linecap: round; stroke-linejoin: round; pointer-events: none;"></line><line x1="81.26626071884692" x2="81.26626071884692" y1="274" y2="278" role="presentation" shape-rendering="auto" vector-effect="non-scaling-stroke" style="stroke: transparent; fill: transparent; size: 4px; stroke-width: 1; stroke-linecap: round; stroke-linejoin: round;"></line><text dx="0" dy="11.969999999999999" x="81.26626071884692" y="286"><tspan x="81.26626071884692" dx="0" text-anchor="middle" style="fill: rgb(153, 153, 153); font-size: 14px; font-family: inherit; stroke: transparent; letter-spacing: normal; padding: 8px; stroke-width: 0;">2017</tspan></text></g><g role="presentation"><line x1="193.74299854041232" x2="193.74299854041232" y1="274" y2="34" role="presentation" shape-rendering="auto" vector-effect="non-scaling-stroke" style="stroke: transparent; fill: transparent; stroke-width: 1; stroke-linecap: round; stroke-linejoin: round; pointer-events: none;"></line><line x1="193.74299854041232" x2="193.74299854041232" y1="274" y2="278" role="presentation" shape-rendering="auto" vector-effect="non-scaling-stroke" style="stroke: transparent; fill: transparent; size: 4px; stroke-width: 1; stroke-linecap: round; stroke-linejoin: round;"></line><text dx="0" dy="11.969999999999999" x="193.74299854041232" y="286"><tspan x="193.74299854041232" dx="0" text-anchor="middle" style="fill: rgb(153, 153, 153); font-size: 14px; font-family: inherit; stroke: transparent; letter-spacing: normal; padding: 8px; stroke-width: 0;">2018</tspan></text></g><g role="presentation"><line x1="306.2197363619777" x2="306.2197363619777" y1="274" y2="34" role="presentation" shape-rendering="auto" vector-effect="non-scaling-stroke" style="stroke: transparent; fill: transparent; stroke-width: 1; stroke-linecap: round; stroke-linejoin: round; pointer-events: none;"></line><line x1="306.2197363619777" x2="306.2197363619777" y1="274" y2="278" role="presentation" shape-rendering="auto" vector-effect="non-scaling-stroke" style="stroke: transparent; fill: transparent; size: 4px; stroke-width: 1; stroke-linecap: round; stroke-linejoin: round;"></line><text dx="0" dy="11.969999999999999" x="306.2197363619777" y="286"><tspan x="306.2197363619777" dx="0" text-anchor="middle" style="fill: rgb(153, 153, 153); font-size: 14px; font-family: inherit; stroke: transparent; letter-spacing: normal; padding: 8px; stroke-width: 0;">2019</tspan></text></g><g role="presentation"><line x1="418.69647418354316" x2="418.69647418354316" y1="274" y2="34" role="presentation" shape-rendering="auto" vector-effect="non-scaling-stroke" style="stroke: transparent; fill: transparent; stroke-width: 1; stroke-linecap: round; stroke-linejoin: round; pointer-events: none;"></line><line x1="418.69647418354316" x2="418.69647418354316" y1="274" y2="278" role="presentation" shape-rendering="auto" vector-effect="non-scaling-stroke" style="stroke: transparent; fill: transparent; size: 4px; stroke-width: 1; stroke-linecap: round; stroke-linejoin: round;"></line><text dx="0" dy="11.969999999999999" x="418.69647418354316" y="286"><tspan x="418.69647418354316" dx="0" text-anchor="middle" style="fill: rgb(153, 153, 153); font-size: 14px; font-family: inherit; stroke: transparent; letter-spacing: normal; padding: 8px; stroke-width: 0;">2020</tspan></text></g><g role="presentation"><line x1="531.4813674511951" x2="531.4813674511951" y1="274" y2="34" role="presentation" shape-rendering="auto" vector-effect="non-scaling-stroke" style="stroke: transparent; fill: transparent; stroke-width: 1; stroke-linecap: round; stroke-linejoin: round; pointer-events: none;"></line><line x1="531.4813674511951" x2="531.4813674511951" y1="274" y2="278" role="presentation" shape-rendering="auto" vector-effect="non-scaling-stroke" style="stroke: transparent; fill: transparent; size: 4px; stroke-width: 1; stroke-linecap: round; stroke-linejoin: round;"></line><text dx="0" dy="11.969999999999999" x="531.4813674511951" y="286"><tspan x="531.4813674511951" dx="0" text-anchor="middle" style="fill: rgb(153, 153, 153); font-size: 14px; font-family: inherit; stroke: transparent; letter-spacing: normal; padding: 8px; stroke-width: 0;">2021</tspan></text></g></g><g role="presentation"><line x1="578" x2="578" y1="34" y2="274" role="presentation" shape-rendering="auto" vector-effect="non-scaling-stroke" style="stroke: transparent; fill: transparent; stroke-width: 1; stroke-linejoin: round;"></line><g role="presentation"><line x1="578" x2="15" y1="274" y2="274" role="presentation" shape-rendering="auto" vector-effect="non-scaling-stroke" style="stroke: rgb(226, 226, 226); fill: transparent; stroke-width: 1; stroke-linecap: round; stroke-linejoin: round; pointer-events: none;"></line><line x1="578" x2="582" y1="274" y2="274" role="presentation" shape-rendering="auto" vector-effect="non-scaling-stroke" style="stroke: transparent; fill: transparent; size: 4px; stroke-width: 1; stroke-linecap: round; stroke-linejoin: round;"></line><text dx="0" dy="4.97" x="590" y="274"><tspan x="590" dx="0" text-anchor="start" style="fill: rgb(153, 153, 153); font-size: 14px; font-family: inherit; stroke: transparent; letter-spacing: normal; padding: 8px; stroke-width: 0;">$100K</tspan></text></g><g role="presentation"><line x1="578" x2="15" y1="214" y2="214" role="presentation" shape-rendering="auto" vector-effect="non-scaling-stroke" style="stroke: rgb(226, 226, 226); fill: transparent; stroke-width: 1; stroke-linecap: round; stroke-linejoin: round; pointer-events: none;"></line><line x1="578" x2="582" y1="214" y2="214" role="presentation" shape-rendering="auto" vector-effect="non-scaling-stroke" style="stroke: transparent; fill: transparent; size: 4px; stroke-width: 1; stroke-linecap: round; stroke-linejoin: round;"></line><text dx="0" dy="4.97" x="590" y="214"><tspan x="590" dx="0" text-anchor="start" style="fill: rgb(153, 153, 153); font-size: 14px; font-family: inherit; stroke: transparent; letter-spacing: normal; padding: 8px; stroke-width: 0;">$150K</tspan></text></g><g role="presentation"><line x1="578" x2="15" y1="154" y2="154" role="presentation" shape-rendering="auto" vector-effect="non-scaling-stroke" style="stroke: rgb(226, 226, 226); fill: transparent; stroke-width: 1; stroke-linecap: round; stroke-linejoin: round; pointer-events: none;"></line><line x1="578" x2="582" y1="154" y2="154" role="presentation" shape-rendering="auto" vector-effect="non-scaling-stroke" style="stroke: transparent; fill: transparent; size: 4px; stroke-width: 1; stroke-linecap: round; stroke-linejoin: round;"></line><text dx="0" dy="4.97" x="590" y="154"><tspan x="590" dx="0" text-anchor="start" style="fill: rgb(153, 153, 153); font-size: 14px; font-family: inherit; stroke: transparent; letter-spacing: normal; padding: 8px; stroke-width: 0;">$200K</tspan></text></g><g role="presentation"><line x1="578" x2="15" y1="94" y2="94" role="presentation" shape-rendering="auto" vector-effect="non-scaling-stroke" style="stroke: rgb(226, 226, 226); fill: transparent; stroke-width: 1; stroke-linecap: round; stroke-linejoin: round; pointer-events: none;"></line><line x1="578" x2="582" y1="94" y2="94" role="presentation" shape-rendering="auto" vector-effect="non-scaling-stroke" style="stroke: transparent; fill: transparent; size: 4px; stroke-width: 1; stroke-linecap: round; stroke-linejoin: round;"></line><text dx="0" dy="4.97" x="590" y="94"><tspan x="590" dx="0" text-anchor="start" style="fill: rgb(153, 153, 153); font-size: 14px; font-family: inherit; stroke: transparent; letter-spacing: normal; padding: 8px; stroke-width: 0;">$250K</tspan></text></g><g role="presentation"><line x1="578" x2="15" y1="34" y2="34" role="presentation" shape-rendering="auto" vector-effect="non-scaling-stroke" style="stroke: rgb(226, 226, 226); fill: transparent; stroke-width: 1; stroke-linecap: round; stroke-linejoin: round; pointer-events: none;"></line><line x1="578" x2="582" y1="34" y2="34" role="presentation" shape-rendering="auto" vector-effect="non-scaling-stroke" style="stroke: transparent; fill: transparent; size: 4px; stroke-width: 1; stroke-linecap: round; stroke-linejoin: round;"></line><text dx="0" dy="4.97" x="590" y="34"><tspan x="590" dx="0" text-anchor="start" style="fill: rgb(153, 153, 153); font-size: 14px; font-family: inherit; stroke: transparent; letter-spacing: normal; padding: 8px; stroke-width: 0;">$300K</tspan></text></g></g><g style="height: 100%; width: 100%; user-select: none;"><defs><clipPath id="victory-clip-5"><rect x="15" y="34" width="563" height="240"></rect></clipPath></defs><g clip-path="url(#victory-clip-5)"><path shape-rendering="auto" role="presentation" d="M24.5528188286809,209.524C27.73709177157453,213.262,30.921364714468165,217,34.1056376573618,217C37.28991060025543,217,40.47418354314906,212.7312568306011,43.658456486042695,208C46.7400109469075,203.42136435748282,49.821565407772304,189.4,52.90311986863711,189.4C56.08739281153075,189.4,59.271665754424376,204.80260748959776,62.45593869731801,208.6C65.54177309493402,212.28,68.62760749255003,211.63074544019963,71.71344189016602,214.12C74.89771483305965,216.68866212550827,78.0819877759533,223.9,81.26626071884692,223.9C84.45053366174056,223.9,87.63480660463419,198.60714285714286,90.81907954752783,197.5C93.69519704433499,196.5,96.57131454114213,196.86302681993067,99.44743203794928,196C102.62742504409171,195.04579028689216,105.80741805023415,191.806,108.98741105637657,191.806C112.06896551724138,191.806,115.15051997810617,195.106,118.23207443897098,195.106C121.41634738186463,195.106,124.60062032475825,178,127.7848932676519,178C130.8664477285167,178,133.9480021893815,208,137.02955665024632,208C140.21382959313993,208,143.39810253603358,187,146.5823754789272,187C149.76664842182083,187,152.95092136471445,194.3384,156.1351943076081,196C159.2167487684729,197.60799999999998,162.2983032293377,198.41199999999998,165.37985769020253,198.41199999999998C168.56413063309614,198.41199999999998,171.74840357598978,181.6,174.9326765188834,181.6C178.0185109164994,181.6,181.10434531411542,187.6360251201879,184.19017971173142,190.012C187.37445265462506,192.46376880801694,190.55872559751867,193.102,193.74299854041232,196C196.92727148330596,198.898,200.1115444261996,207.39999999999998,203.29581736909324,207.39999999999998C206.1719348659004,207.39999999999998,209.04805236270755,194.86475551222483,211.9241698595147,190.61200000000002C215.10416286565712,185.90992061669195,218.28415587179956,184.5856664160401,221.46414887794197,181.43200000000002C224.5457033388068,178.37595717422764,227.62725779967158,172,230.7088122605364,172C233.89308520343002,172,237.07735814632366,181.1665792349727,240.26163108921727,185.2C243.3431855500821,189.10331041776837,246.4247400109469,193.09990481226865,249.5062944718117,195.88C252.69056741470536,198.7527650273224,255.874840357599,202,259.05911330049264,202C262.2433862433863,202,265.42765918627987,192.2477595628415,268.6119321291735,188.2C271.69348659003833,184.28281332628237,274.7750410509031,178,277.8565955117679,178C281.04086845466156,178,284.22514139755515,179.2,287.4094143404488,181.6C290.4952487380648,183.9258064516129,293.58108313568084,204.1,296.66691753329684,204.1C299.8511904761905,204.1,303.03546341908407,178.45839999999998,306.2197363619777,178.45839999999998C309.40400930487135,178.45839999999998,312.588282247765,181.95992445520582,315.77255519065864,184C318.6486726874658,185.84264887916893,321.52479018427294,190,324.4009076810801,190C327.58090068722254,190,330.76089369336495,179.63692055555558,333.94088669950736,177.50740000000002C337.0224411603722,175.4438,340.10399562123695,174.5513548387097,343.18555008210177,174.412C346.3698230249954,174.268,349.55409596788905,174.34,352.7383689107827,174.196C355.8199233716475,174.0566451612903,358.9014778325123,158.8,361.9830322933771,158.8C365.16730523627075,158.8,368.35157817916433,180.70000000000002,371.535851122058,187.60000000000002C374.7201240649516,194.50000000000006,377.90439700784526,200.2,381.0886699507389,200.2C384.1702244116037,200.2,387.2517788724685,183.10000000000002,390.3333333333333,183.10000000000002C393.51760627622696,183.10000000000002,396.7018792191206,184.012,399.88615216201424,184.012C402.97198655963024,184.012,406.0578209572463,171.52919679988258,409.1436553548623,166C412.32792829775593,160.29442105532232,415.5122012406495,150.39999999999998,418.69647418354316,150.39999999999998C421.8807471264368,150.39999999999998,425.0650200693304,166.12,428.24929301222403,166.12C431.22812899106003,166.12,434.206964969896,148,437.185800948732,148C440.3657939548744,148,443.54578696101686,150.04,446.72577996715927,154.12C449.8073344280241,158.07370121130555,452.8888888888889,170.02580645161288,455.97044334975374,172C459.1547162926473,174.04,462.33898923554096,175.06,465.52326217843455,175.06C468.6048166392994,175.06,471.6863711001642,157.60000000000002,474.767925561029,157.60000000000002C477.95219850392266,157.60000000000002,481.1364714468163,169.6,484.32074438970994,169.6C487.50501733260353,169.6,490.68929027549717,151,493.87356321839076,151C496.9551176792556,151,500.0366721401204,176.8,503.1182266009852,176.8C506.3024995438788,176.8,509.48677248677245,165.27040332871007,512.671045429666,163.1224C515.7568798272821,161.0408,518.8427142248981,160,521.9285486225142,160C525.1128215654078,160,528.2970945083015,166,531.4813674511951,166C534.6656403940887,166,537.8499133369824,122.20000000000002,541.0341862798759,122.20000000000002C543.9103037766831,122.20000000000002,546.7864212734902,126.2504861372813,549.6625387702974,127.30000000000001C552.8425317764398,128.46040000000002,556.0225247825822,128.0109663987621,559.2025177887247,129.0406C562.2840722495895,130.03836069029788,565.3656267104543,133.29999999999998,568.4471811713191,133.29999999999998C571.6314541142127,133.29999999999998,574.8157270571064,128.64999999999998,578,124" style="fill: transparent; stroke: rgb(51, 51, 51); stroke-width: 2; opacity: 1;"></path></g></g></svg>