<svg xmlns="http://www.w3.org/2000/svg" width="640" height="324" role="img" aria-labelledby="victory-container-4-title victory-container-4-desc" viewBox="0 0 640 324" style="pointer-events: all; width: 100%; height: 100%;"><g role="presentation"><line x1="15" x2="578" y1="274" y2="274" role="presentation" shape-rendering="auto" vector-effect="non-scaling-stroke" style="stroke: rgb(226, 226, 226); fill: transparent; stroke-width: 1; stroke-linejoin: round;"></line><g role="presentation"><line x1="81.26626071884692" x2="81.26626071884692" y1="274" y2="34" role="presentation" shape-rendering="auto" vector-effect="non-scaling-stroke" style="stroke: transparent; fill: transparent; stroke-width: 1; stroke-linecap: round; stroke-linejoin: round; pointer-events: none;"></line><line x1="81.26626071884692" x2="81.26626071884692" y1="274" y2="278" role="presentation" shape-rendering="auto" vector-effect="non-scaling-stroke" style="stroke: transparent; fill: transparent; size: 4px; stroke-width: 1; stroke-linecap: round; stroke-linejoin: round;"></line><text dx="0" dy="11.969999999999999" x="81.26626071884692" y="286"><tspan x="81.26626071884692" dx="0" text-anchor="middle" style="fill: rgb(153, 153, 153); font-size: 14px; font-family: inherit; stroke: transparent; letter-spacing: normal; padding: 8px; stroke-width: 0;">2017</tspan></text></g><g role="presentation"><line x1="193.74299854041232" x2="193.74299854041232" y1="274" y2="34" role="presentation" shape-rendering="auto" vector-effect="non-scaling-stroke" style="stroke: transparent; fill: transparent; stroke-width: 1; stroke-linecap: round; stroke-linejoin: round; pointer-events: none;"></line><line x1="193.74299854041232" x2="193.74299854041232" y1="274" y2="278" role="presentation" shape-rendering="auto" vector-effect="non-scaling-stroke" style="stroke: transparent; fill: transparent; size: 4px; stroke-width: 1; stroke-linecap: round; stroke-linejoin: round;"></line><text dx="0" dy="11.969999999999999" x="193.74299854041232" y="286"><tspan x="193.74299854041232" dx="0" text-anchor="middle" style="fill: rgb(153, 153, 153); font-size: 14px; font-family: inherit; stroke: transparent; letter-spacing: normal; padding: 8px; stroke-width: 0;">2018</tspan></text></g><g role="presentation"><line x1="306.2197363619777" x2="306.2197363619777" y1="274" y2="34" role="presentation" shape-rendering="auto" vector-effect="non-scaling-stroke" style="stroke: transparent; fill: transparent; stroke-width: 1; stroke-linecap: round; stroke-linejoin: round; pointer-events: none;"></line><line x1="306.2197363619777" x2="306.2197363619777" y1="274" y2="278" role="presentation" shape-rendering="auto" vector-effect="non-scaling-stroke" style="stroke: transparent; fill: transparent; size: 4px; stroke-width: 1; stroke-linecap: round; stroke-linejoin: round;"></line><text dx="0" dy="11.969999999999999" x="306.2197363619777" y="286"><tspan x="306.2197363619777" dx="0" text-anchor="middle" style="fill: rgb(153, 153, 153); font-size: 14px; font-family: inherit; stroke: transparent; letter-spacing: normal; padding: 8px; stroke-width: 0;">2019</tspan></text></g><g role="presentation"><line x1="418.69647418354316" x2="418.69647418354316" y1="274" y2="34" role="presentation" shape-rendering="auto" vector-effect="non-scaling-stroke" style="stroke: transparent; fill: transparent; stroke-width: 1; stroke-linecap: round; stroke-linejoin: round; pointer-events: none;"></line><line x1="418.69647418354316" x2="418.69647418354316" y1="274" y2="278" role="presentation" shape-rendering="auto" vector-effect="non-scaling-stroke" style="stroke: transparent; fill: transparent; size: 4px; stroke-width: 1; stroke-linecap: round; stroke-linejoin: round;"></line><text dx="0" dy="11.969999999999999" x="418.69647418354316" y="286"><tspan x="418.69647418354316" dx="0" text-anchor="middle" style="fill: rgb(153, 153, 153); font-size: 14px; font-family: inherit; stroke: transparent; letter-spacing: normal; padding: 8px; stroke-width: 0;">2020</tspan></text></g><g role="presentation"><line x1="531.4813674511951" x2="531.4813674511951" y1="274" y2="34" role="presentation" shape-rendering="auto" vector-effect="non-scaling-stroke" style="stroke: transparent; fill: transparent; stroke-width: 1; stroke-linecap: round; stroke-linejoin: round; pointer-events: none;"></line><line x1="531.4813674511951" x2="531.4813674511951" y1="274" y2="278" role="presentation" shape-rendering="auto" vector-effect="non-scaling-stroke" style="stroke: transparent; fill: transparent; size: 4px; stroke-width: 1; stroke-linecap: round; stroke-linejoin: round;"></line><text dx="0" dy="11.969999999999999" x="531.4813674511951" y="286"><tspan x="531.4813674511951" dx="0" text-anchor="middle" style="fill: rgb(153, 153, 153); font-size: 14px; font-family: inherit; stroke: transparent; letter-spacing: normal; padding: 8px; stroke-width: 0;">2021</tspan></text></g></g><g role="presentation"><line x1="578" x2="578" y1="34" y2="274" role="presentation" shape-rendering="auto" vector-effect="non-scaling-stroke" style="stroke: transparent; fill: transparent; stroke-width: 1; stroke-linejoin: round;"></line><g role="presentation"><line x1="578" x2="15" y1="274" y2="274" role="presentation" shape-rendering="auto" vector-effect="non-scaling-stroke" style="stroke: rgb(226, 226, 226); fill: transparent; stroke-width: 1; stroke-linecap: round; stroke-linejoin: round; pointer-events: none;"></line><line x1="578" x2="582" y1="274" y2="274" role="presentation" shape-rendering="auto" vector-effect="non-scaling-stroke" style="stroke: transparent; fill: transparent; size: 4px; stroke-width: 1; stroke-linecap: round; stroke-linejoin: round;"></line><text dx="0" dy="4.97" x="590" y="274"><tspan x="590" dx="0" text-anchor="start" style="fill: rgb(153, 153, 153); font-size: 14px; font-family: inherit; stroke: transparent; letter-spacing: normal; padding: 8px; stroke-width: 0;">$100K</tspan></text></g><g role="presentation"><line x1="578" x2="15" y1="234" y2="234" role="presentation" shape-rendering="auto" vector-effect="non-scaling-stroke" style="stroke: rgb(226, 226, 226); fill: transparent; stroke-width: 1; stroke-linecap: round; stroke-linejoin: round; pointer-events: none;"></line><line x1="578" x2="582" y1="234" y2="234" role="presentation" shape-rendering="auto" vector-effect="non-scaling-stroke" style="stroke: transparent; fill: transparent; size: 4px; stroke-width: 1; stroke-linecap: round; stroke-linejoin: round;"></line><text dx="0" dy="4.97" x="590" y="234"><tspan x="590" dx="0" text-anchor="start" style="fill: rgb(153, 153, 153); font-size: 14px; font-family: inherit; stroke: transparent; letter-spacing: normal; padding: 8px; stroke-width: 0;">$150K</tspan></text></g><g role="presentation"><line x1="578" x2="15" y1="194" y2="194" role="presentation" shape-rendering="auto" vector-effect="non-scaling-stroke" style="stroke: rgb(226, 226, 226); fill: transparent; stroke-width: 1; stroke-linecap: round; stroke-linejoin: round; pointer-events: none;"></line><line x1="578" x2="582" y1="194" y2="194" role="presentation" shape-rendering="auto" vector-effect="non-scaling-stroke" style="stroke: transparent; fill: transparent; size: 4px; stroke-width: 1; stroke-linecap: round; stroke-linejoin: round;"></line><text dx="0" dy="4.97" x="590" y="194"><tspan x="590" dx="0" text-anchor="start" style="fill: rgb(153, 153, 153); font-size: 14px; font-family: inherit; stroke: transparent; letter-spacing: normal; padding: 8px; stroke-width: 0;">$200K</tspan></text></g><g role="presentation"><line x1="578" x2="15" y1="154" y2="154" role="presentation" shape-rendering="auto" vector-effect="non-scaling-stroke" style="stroke: rgb(226, 226, 226); fill: transparent; stroke-width: 1; stroke-linecap: round; stroke-linejoin: round; pointer-events: none;"></line><line x1="578" x2="582" y1="154" y2="154" role="presentation" shape-rendering="auto" vector-effect="non-scaling-stroke" style="stroke: transparent; fill: transparent; size: 4px; stroke-width: 1; stroke-linecap: round; stroke-linejoin: round;"></line><text dx="0" dy="4.97" x="590" y="154"><tspan x="590" dx="0" text-anchor="start" style="fill: rgb(153, 153, 153); font-size: 14px; font-family: inherit; stroke: transparent; letter-spacing: normal; padding: 8px; stroke-width: 0;">$250K</tspan></text></g><g role="presentation"><line x1="578" x2="15" y1="114" y2="114" role="presentation" shape-rendering="auto" vector-effect="non-scaling-stroke" style="stroke: rgb(226, 226, 226); fill: transparent; stroke-width: 1; stroke-linecap: round; stroke-linejoin: round; pointer-events: none;"></line><line x1="578" x2="582" y1="114" y2="114" role="presentation" shape-rendering="auto" vector-effect="non-scaling-stroke" style="stroke: transparent; fill: transparent; size: 4px; stroke-width: 1; stroke-linecap: round; stroke-linejoin: round;"></line><text dx="0" dy="4.97" x="590" y="114"><tspan x="590" dx="0" text-anchor="start" style="fill: rgb(153, 153, 153); font-size: 14px; font-family: inherit; stroke: transparent; letter-spacing: normal; padding: 8px; stroke-width: 0;">$300K</tspan></text></g><g role="presentation"><line x1="578" x2="15" y1="74" y2="74" role="presentation" shape-rendering="auto" vector-effect="non-scaling-stroke" style="stroke: rgb(226, 226, 226); fill: transparent; stroke-width: 1; stroke-linecap: round; stroke-linejoin: round; pointer-events: none;"></line><line x1="578" x2="582" y1="74" y2="74" role="presentation" shape-rendering="auto" vector-effect="non-scaling-stroke" style="stroke: transparent; fill: transparent; size: 4px; stroke-width: 1; stroke-linecap: round; stroke-linejoin: round;"></line><text dx="0" dy="4.97" x="590" y="74"><tspan x="590" dx="0" text-anchor="start" style="fill: rgb(153, 153, 153); font-size: 14px; font-family: inherit; stroke: transparent; letter-spacing: normal; padding: 8px; stroke-width: 0;">$350K</tspan></text></g><g role="presentation"><line x1="578" x2="15" y1="34" y2="34" role="presentation" shape-rendering="auto" vector-effect="non-scaling-stroke" style="stroke: rgb(226, 226, 226); fill: transparent; stroke-width: 1; stroke-linecap: round; stroke-linejoin: round; pointer-events: none;"></line><line x1="578" x2="582" y1="34" y2="34" role="presentation" shape-rendering="auto" vector-effect="non-scaling-stroke" style="stroke: transparent; fill: transparent; size: 4px; stroke-width: 1; stroke-linecap: round; stroke-linejoin: round;"></line><text dx="0" dy="4.97" x="590" y="34"><tspan x="590" dx="0" text-anchor="start" style="fill: rgb(153, 153, 153); font-size: 14px; font-family: inherit; stroke: transparent; letter-spacing: normal; padding: 8px; stroke-width: 0;">$400K</tspan></text></g></g><g style="height: 100%; width: 100%; user-select: none;"><defs><clipPath id="victory-clip-5"><rect x="15" y="34" width="563" height="240"></rect></clipPath></defs><g clip-path="url(#victory-clip-5)"><path shape-rendering="auto" role="presentation" d="M24.5528188286809,192.39999999999998C27.73709177157453,184,30.921364714468165,175.60000000000002,34.1056376573618,175.60000000000002C37.28991060025543,175.60000000000002,40.47418354314906,181.00809471766848,43.658456486042695,186.07999999999998C46.7400109469075,190.98829543451436,49.821565407772304,205.24,52.90311986863711,205.24C56.08739281153075,205.24,59.271665754424376,197.52993469126275,62.45593869731801,192.07999999999998C65.54177309493402,186.79854447258003,68.62760749255003,173.24,71.71344189016602,173.24C74.89771483305965,173.24,78.0819877759533,178.34,81.26626071884692,186C84.45053366174056,193.66,87.63480660463419,219.2,90.81907954752783,219.2C93.69519704433499,219.2,96.57131454114213,163.2,99.44743203794928,163.2C102.62742504409171,163.2,105.80741805023415,204.72,108.98741105637657,204.72C112.06896551724138,204.72,115.15051997810617,176.36663493742287,118.23207443897098,166C121.41634738186463,155.287810564663,124.60062032475825,142,127.7848932676519,142C130.8664477285167,142,133.9480021893815,248,137.02955665024632,248C140.21382959313993,248,143.39810253603358,218.16666666666666,146.5823754789272,206.8C149.76664842182083,195.43333333333334,152.95092136471445,179.8,156.1351943076081,179.8C159.2167487684729,179.8,162.2983032293377,193.50967741935483,165.37985769020253,194.8C168.56413063309614,196.13333333333335,171.74840357598978,196.8,174.9326765188834,196.8C178.0185109164994,196.8,181.10434531411542,186,184.19017971173142,186C187.37445265462506,186,190.55872559751867,239.33333333333334,193.74299854041232,242C196.92727148330596,244.66666666666666,200.1115444261996,246,203.29581736909324,246C206.1719348659004,246,209.04805236270755,238.40208101685624,211.9241698595147,223.6C215.10416286565712,207.23400863761287,218.28415587179956,147.60000000000002,221.46414887794197,147.60000000000002C224.5457033388068,147.60000000000002,227.62725779967158,167.4453023091838,230.7088122605364,182.8C233.89308520343002,198.66652094717668,237.07735814632366,242,240.26163108921727,242C243.3431855500821,242,246.4247400109469,230.4,249.5062944718117,230.4C252.69056741470536,230.4,255.874840357599,255.4,259.05911330049264,255.4C262.2433862433863,255.4,265.42765918627987,167.6,268.6119321291735,167.6C271.69348659003833,167.6,274.7750410509031,178.94193548387094,277.8565955117679,179.2C281.04086845466156,179.46666666666667,284.22514139755515,179.60000000000002,287.4094143404488,179.60000000000002C290.4952487380648,179.60000000000002,293.58108313568084,119.19999999999999,296.66691753329684,119.19999999999999C299.8511904761905,119.19999999999999,303.03546341908407,246,306.2197363619777,246C309.40400930487135,246,312.588282247765,189.2,315.77255519065864,189.2C318.6486726874658,189.2,321.52479018427294,189.2,324.4009076810801,189.2C327.58090068722254,189.2,330.76089369336495,206.8,333.94088669950736,206.8C337.0224411603722,206.8,340.10399562123695,142.3290322580645,343.18555008210177,142.2C346.3698230249954,142.06666666666666,349.55409596788905,142,352.7383689107827,142C355.8199233716475,142,358.9014778325123,230,361.9830322933771,230C365.16730523627075,230,368.35157817916433,167.6,371.535851122058,167.6C374.7201240649516,167.6,377.90439700784526,214.96888888888887,381.0886699507389,218C384.1702244116037,220.93333333333334,387.2517788724685,222.4,390.3333333333333,222.4C393.51760627622696,222.4,396.7018792191206,134.8,399.88615216201424,134.8C402.97198655963024,134.8,406.0578209572463,162.10839076663356,409.1436553548623,176.39999999999998C412.32792829775593,191.14751355010335,415.5122012406495,222,418.69647418354316,222C421.8807471264368,222,425.0650200693304,155.6,428.24929301222403,155.6C431.22812899106003,155.6,434.206964969896,166.1102228474175,437.185800948732,178C440.3657939548744,190.6926787706448,443.54578696101686,231.2,446.72577996715927,231.2C449.8073344280241,231.2,452.8888888888889,107.80000000000001,455.97044334975374,107.80000000000001C459.1547162926473,107.80000000000001,462.33898923554096,202,465.52326217843455,202C468.6048166392994,202,471.6863711001642,172.8,474.767925561029,172.8C477.95219850392266,172.8,481.1364714468163,176.90800000000002,484.32074438970994,176.90800000000002C487.50501733260353,176.90800000000002,490.68929027549717,175.21333333333337,493.87356321839076,174.8C496.9551176792556,174.4,500.0366721401204,174.6,503.1182266009852,174.2C506.3024995438788,173.78666666666663,509.48677248677245,160.02510203405393,512.671045429666,155.3C515.7568798272821,150.72096966861162,518.8427142248981,146,521.9285486225142,146C525.1128215654078,146,528.2970945083015,190.8,531.4813674511951,190.8C534.6656403940887,190.8,537.8499133369824,180.27473769168685,541.0341862798759,172.4C543.9103037766831,165.28733369783123,546.7864212734902,146.8,549.6625387702974,146.8C552.8425317764398,146.8,556.0225247825822,169.48351851851857,559.2025177887247,175.4C562.2840722495895,181.13333333333333,565.3656267104543,184,568.4471811713191,184C571.6314541142127,184,574.8157270571064,179.8,578,175.60000000000002" style="fill: transparent; stroke: rgb(51, 51, 51); stroke-width: 2; opacity: 1;"></path></g></g></svg>