<svg xmlns="http://www.w3.org/2000/svg" width="640" height="324" role="img" aria-labelledby="victory-container-4-title victory-container-4-desc" viewBox="0 0 640 324" style="pointer-events: all; width: 100%; height: 100%;"><g role="presentation"><line x1="15" x2="578" y1="274" y2="274" role="presentation" shape-rendering="auto" vector-effect="non-scaling-stroke" style="stroke: rgb(226, 226, 226); fill: transparent; stroke-width: 1; stroke-linejoin: round;"></line><g role="presentation"><line x1="81.26626071884692" x2="81.26626071884692" y1="274" y2="34" role="presentation" shape-rendering="auto" vector-effect="non-scaling-stroke" style="stroke: transparent; fill: transparent; stroke-width: 1; stroke-linecap: round; stroke-linejoin: round; pointer-events: none;"></line><line x1="81.26626071884692" x2="81.26626071884692" y1="274" y2="278" role="presentation" shape-rendering="auto" vector-effect="non-scaling-stroke" style="stroke: transparent; fill: transparent; size: 4px; stroke-width: 1; stroke-linecap: round; stroke-linejoin: round;"></line><text dx="0" dy="11.969999999999999" x="81.26626071884692" y="286"><tspan x="81.26626071884692" dx="0" text-anchor="middle" style="fill: rgb(153, 153, 153); font-size: 14px; font-family: inherit; stroke: transparent; letter-spacing: normal; padding: 8px; stroke-width: 0;">2017</tspan></text></g><g role="presentation"><line x1="193.74299854041232" x2="193.74299854041232" y1="274" y2="34" role="presentation" shape-rendering="auto" vector-effect="non-scaling-stroke" style="stroke: transparent; fill: transparent; stroke-width: 1; stroke-linecap: round; stroke-linejoin: round; pointer-events: none;"></line><line x1="193.74299854041232" x2="193.74299854041232" y1="274" y2="278" role="presentation" shape-rendering="auto" vector-effect="non-scaling-stroke" style="stroke: transparent; fill: transparent; size: 4px; stroke-width: 1; stroke-linecap: round; stroke-linejoin: round;"></line><text dx="0" dy="11.969999999999999" x="193.74299854041232" y="286"><tspan x="193.74299854041232" dx="0" text-anchor="middle" style="fill: rgb(153, 153, 153); font-size: 14px; font-family: inherit; stroke: transparent; letter-spacing: normal; padding: 8px; stroke-width: 0;">2018</tspan></text></g><g role="presentation"><line x1="306.2197363619777" x2="306.2197363619777" y1="274" y2="34" role="presentation" shape-rendering="auto" vector-effect="non-scaling-stroke" style="stroke: transparent; fill: transparent; stroke-width: 1; stroke-linecap: round; stroke-linejoin: round; pointer-events: none;"></line><line x1="306.2197363619777" x2="306.2197363619777" y1="274" y2="278" role="presentation" shape-rendering="auto" vector-effect="non-scaling-stroke" style="stroke: transparent; fill: transparent; size: 4px; stroke-width: 1; stroke-linecap: round; stroke-linejoin: round;"></line><text dx="0" dy="11.969999999999999" x="306.2197363619777" y="286"><tspan x="306.2197363619777" dx="0" text-anchor="middle" style="fill: rgb(153, 153, 153); font-size: 14px; font-family: inherit; stroke: transparent; letter-spacing: normal; padding: 8px; stroke-width: 0;">2019</tspan></text></g><g role="presentation"><line x1="418.69647418354316" x2="418.69647418354316" y1="274" y2="34" role="presentation" shape-rendering="auto" vector-effect="non-scaling-stroke" style="stroke: transparent; fill: transparent; stroke-width: 1; stroke-linecap: round; stroke-linejoin: round; pointer-events: none;"></line><line x1="418.69647418354316" x2="418.69647418354316" y1="274" y2="278" role="presentation" shape-rendering="auto" vector-effect="non-scaling-stroke" style="stroke: transparent; fill: transparent; size: 4px; stroke-width: 1; stroke-linecap: round; stroke-linejoin: round;"></line><text dx="0" dy="11.969999999999999" x="418.69647418354316" y="286"><tspan x="418.69647418354316" dx="0" text-anchor="middle" style="fill: rgb(153, 153, 153); font-size: 14px; font-family: inherit; stroke: transparent; letter-spacing: normal; padding: 8px; stroke-width: 0;">2020</tspan></text></g><g role="presentation"><line x1="531.4813674511951" x2="531.4813674511951" y1="274" y2="34" role="presentation" shape-rendering="auto" vector-effect="non-scaling-stroke" style="stroke: transparent; fill: transparent; stroke-width: 1; stroke-linecap: round; stroke-linejoin: round; pointer-events: none;"></line><line x1="531.4813674511951" x2="531.4813674511951" y1="274" y2="278" role="presentation" shape-rendering="auto" vector-effect="non-scaling-stroke" style="stroke: transparent; fill: transparent; size: 4px; stroke-width: 1; stroke-linecap: round; stroke-linejoin: round;"></line><text dx="0" dy="11.969999999999999" x="531.4813674511951" y="286"><tspan x="531.4813674511951" dx="0" text-anchor="middle" style="fill: rgb(153, 153, 153); font-size: 14px; font-family: inherit; stroke: transparent; letter-spacing: normal; padding: 8px; stroke-width: 0;">2021</tspan></text></g></g><g role="presentation"><line x1="578" x2="578" y1="34" y2="274" role="presentation" shape-rendering="auto" vector-effect="non-scaling-stroke" style="stroke: transparent; fill: transparent; stroke-width: 1; stroke-linejoin: round;"></line><g role="presentation"><line x1="578" x2="15" y1="226" y2="226" role="presentation" shape-rendering="auto" vector-effect="non-scaling-stroke" style="stroke: rgb(226, 226, 226); fill: transparent; stroke-width: 1; stroke-linecap: round; stroke-linejoin: round; pointer-events: none;"></line><line x1="578" x2="582" y1="226" y2="226" role="presentation" shape-rendering="auto" vector-effect="non-scaling-stroke" style="stroke: transparent; fill: transparent; size: 4px; stroke-width: 1; stroke-linecap: round; stroke-linejoin: round;"></line><text dx="0" dy="4.97" x="590" y="226"><tspan x="590" dx="0" text-anchor="start" style="fill: rgb(153, 153, 153); font-size: 14px; font-family: inherit; stroke: transparent; letter-spacing: normal; padding: 8px; stroke-width: 0;">$100K</tspan></text></g><g role="presentation"><line x1="578" x2="15" y1="166" y2="166" role="presentation" shape-rendering="auto" vector-effect="non-scaling-stroke" style="stroke: rgb(226, 226, 226); fill: transparent; stroke-width: 1; stroke-linecap: round; stroke-linejoin: round; pointer-events: none;"></line><line x1="578" x2="582" y1="166" y2="166" role="presentation" shape-rendering="auto" vector-effect="non-scaling-stroke" style="stroke: transparent; fill: transparent; size: 4px; stroke-width: 1; stroke-linecap: round; stroke-linejoin: round;"></line><text dx="0" dy="4.97" x="590" y="166"><tspan x="590" dx="0" text-anchor="start" style="fill: rgb(153, 153, 153); font-size: 14px; font-family: inherit; stroke: transparent; letter-spacing: normal; padding: 8px; stroke-width: 0;">$150K</tspan></text></g><g role="presentation"><line x1="578" x2="15" y1="106" y2="106" role="presentation" shape-rendering="auto" vector-effect="non-scaling-stroke" style="stroke: rgb(226, 226, 226); fill: transparent; stroke-width: 1; stroke-linecap: round; stroke-linejoin: round; pointer-events: none;"></line><line x1="578" x2="582" y1="106" y2="106" role="presentation" shape-rendering="auto" vector-effect="non-scaling-stroke" style="stroke: transparent; fill: transparent; size: 4px; stroke-width: 1; stroke-linecap: round; stroke-linejoin: round;"></line><text dx="0" dy="4.97" x="590" y="106"><tspan x="590" dx="0" text-anchor="start" style="fill: rgb(153, 153, 153); font-size: 14px; font-family: inherit; stroke: transparent; letter-spacing: normal; padding: 8px; stroke-width: 0;">$200K</tspan></text></g><g role="presentation"><line x1="578" x2="15" y1="46" y2="46" role="presentation" shape-rendering="auto" vector-effect="non-scaling-stroke" style="stroke: rgb(226, 226, 226); fill: transparent; stroke-width: 1; stroke-linecap: round; stroke-linejoin: round; pointer-events: none;"></line><line x1="578" x2="582" y1="46" y2="46" role="presentation" shape-rendering="auto" vector-effect="non-scaling-stroke" style="stroke: transparent; fill: transparent; size: 4px; stroke-width: 1; stroke-linecap: round; stroke-linejoin: round;"></line><text dx="0" dy="4.97" x="590" y="46"><tspan x="590" dx="0" text-anchor="start" style="fill: rgb(153, 153, 153); font-size: 14px; font-family: inherit; stroke: transparent; letter-spacing: normal; padding: 8px; stroke-width: 0;">$250K</tspan></text></g></g><g style="height: 100%; width: 100%; user-select: none;"><defs><clipPath id="victory-clip-5"><rect x="15" y="34" width="563" height="240"></rect></clipPath></defs><g clip-path="url(#victory-clip-5)"><path shape-rendering="auto" role="presentation" d="M15.30815544608648,176.8C18.389709906951285,143.2,21.471264367816094,109.6,24.5528188286809,109.6C27.73709177157453,109.6,30.921364714468165,132.1,34.1056376573618,142C37.28991060025543,151.9,40.47418354314906,167.55333333333334,43.658456486042695,169C46.7400109469075,170.4,49.821565407772304,169.7,52.90311986863711,171.1C56.08739281153075,172.54666666666665,59.271665754424376,184.3466434086143,62.45593869731801,188.2C65.54177309493402,191.93423400858745,68.62760749255003,190.2,71.71344189016602,194.2C74.89771483305965,198.32760055478502,78.0819877759533,270.9868,81.26626071884692,270.9868C84.45053366174056,270.9868,87.63480660463419,172,90.81907954752783,172C93.69519704433499,172,96.57131454114213,179.5,99.44743203794928,179.5C102.62742504409171,179.5,105.80741805023415,176.2,108.98741105637657,176.2C112.06896551724138,176.2,115.15051997810617,221.2,118.23207443897098,221.2C121.41634738186463,221.2,124.60062032475825,171.02666666666664,127.7848932676519,170.2C130.8664477285167,169.4,133.9480021893815,169.79999999999998,137.02955665024632,169C140.21382959313993,168.17333333333335,143.39810253603358,137.20000000000002,146.5823754789272,137.20000000000002C149.76664842182083,137.20000000000002,152.95092136471445,162.132,156.1351943076081,163C159.2167487684729,163.84,162.2983032293377,164.26,165.37985769020253,164.26C168.56413063309614,164.26,171.74840357598978,150.39999999999998,174.9326765188834,150.39999999999998C178.0185109164994,150.39999999999998,181.10434531411542,169,184.19017971173142,169C187.37445265462506,169,190.55872559751867,140.79999999999998,193.74299854041232,140.79999999999998C196.92727148330596,140.79999999999998,200.1115444261996,190,203.29581736909324,190C206.1719348659004,190,209.04805236270755,161.6942126514132,211.9241698595147,158.8C215.10416286565712,155.6,218.28415587179956,157.0933921926027,221.46414887794197,154C224.5457033388068,151.0023655737901,227.62725779967158,140.79999999999998,230.7088122605364,140.79999999999998C233.89308520343002,140.79999999999998,237.07735814632366,161.26,240.26163108921727,161.26C243.3431855500821,161.26,246.4247400109469,155.99133791644633,249.5062944718117,154C252.69056741470536,151.94228415300546,255.874840357599,149.2,259.05911330049264,149.2C262.2433862433863,149.2,265.42765918627987,151.29999999999998,268.6119321291735,155.5C271.69348659003833,159.56451612903228,274.7750410509031,176.5,277.8565955117679,176.5C281.04086845466156,176.5,284.22514139755515,147.09102579750345,287.4094143404488,140.86C290.4952487380648,134.82160000000002,293.58108313568084,131.8024,296.66691753329684,131.8024C299.8511904761905,131.8024,303.03546341908407,136.5754,306.2197363619777,138.4C309.40400930487135,140.2246,312.588282247765,141.33471549636803,315.77255519065864,142.75C318.6486726874658,144.02832148715146,321.52479018427294,146.5,324.4009076810801,146.5C327.58090068722254,146.5,330.76089369336495,131.8288,333.94088669950736,131.8288C337.0224411603722,131.8288,340.10399562123695,143.8,343.18555008210177,143.8C346.3698230249954,143.8,349.55409596788905,133.60000000000002,352.7383689107827,133.60000000000002C355.8199233716475,133.60000000000002,358.9014778325123,133.60000000000002,361.9830322933771,133.60000000000002C365.16730523627075,133.60000000000002,368.35157817916433,137.20000000000002,371.535851122058,139.6C374.7201240649516,142,377.90439700784526,148,381.0886699507389,148C384.1702244116037,148,387.2517788724685,148,390.3333333333333,148C393.51760627622696,148,396.7018792191206,161.2,399.88615216201424,161.2C402.97198655963024,161.2,406.0578209572463,146.2,409.1436553548623,146.2C412.32792829775593,146.2,415.5122012406495,157.60000000000002,418.69647418354316,157.60000000000002C421.8807471264368,157.60000000000002,425.0650200693304,130.06,428.24929301222403,130.06C431.22812899106003,130.06,434.206964969896,138.4,437.185800948732,138.4C440.3657939548744,138.4,443.54578696101686,133.60000000000002,446.72577996715927,133.60000000000002C449.8073344280241,133.60000000000002,452.8888888888889,140.79999999999998,455.97044334975374,140.79999999999998C459.1547162926473,140.79999999999998,462.33898923554096,136.99999999999997,465.52326217843455,129.39999999999998C468.6048166392994,122.04516129032245,471.6863711001642,71.20000000000002,474.767925561029,71.20000000000002C477.95219850392266,71.20000000000002,481.1364714468163,130.12,484.32074438970994,130.12C487.50501733260353,130.12,490.68929027549717,122.01333333333332,493.87356321839076,121.6C496.9551176792556,121.2,500.0366721401204,121.39999999999999,503.1182266009852,121C506.3024995438788,120.58666666666667,509.48677248677245,95.19999999999999,512.671045429666,95.19999999999999C515.7568798272821,95.19999999999999,518.8427142248981,117.35956989247313,521.9285486225142,118.60000000000002C525.1128215654078,119.88000000000001,528.2970945083015,119.24000000000002,531.4813674511951,120.52000000000001C534.6656403940887,121.8,537.8499133369824,146.2,541.0341862798759,146.2C543.9103037766831,146.2,546.7864212734902,106,549.6625387702974,106C552.8425317764398,106,556.0225247825822,134.8,559.2025177887247,134.8C562.2840722495895,134.8,565.3656267104543,40,568.4471811713191,40C571.6314541142127,40,574.8157270571064,68.5,578,97" style="fill: transparent; stroke: rgb(51, 51, 51); stroke-width: 2; opacity: 1;"></path></g></g></svg>