<svg xmlns="http://www.w3.org/2000/svg" width="640" height="324" role="img" aria-labelledby="victory-container-1-title victory-container-1-desc" viewBox="0 0 640 324" style="pointer-events: all; width: 100%; height: 100%;"><g role="presentation"><line x1="15" x2="578" y1="274" y2="274" role="presentation" shape-rendering="auto" vector-effect="non-scaling-stroke" style="stroke: rgb(226, 226, 226); fill: transparent; stroke-width: 1; stroke-linejoin: round;"></line><g role="presentation"><line x1="81.26626071884692" x2="81.26626071884692" y1="274" y2="34" role="presentation" shape-rendering="auto" vector-effect="non-scaling-stroke" style="stroke: transparent; fill: transparent; stroke-width: 1; stroke-linecap: round; stroke-linejoin: round; pointer-events: none;"></line><line x1="81.26626071884692" x2="81.26626071884692" y1="274" y2="278" role="presentation" shape-rendering="auto" vector-effect="non-scaling-stroke" style="stroke: transparent; fill: transparent; size: 4px; stroke-width: 1; stroke-linecap: round; stroke-linejoin: round;"></line><text dx="0" dy="11.969999999999999" x="81.26626071884692" y="286"><tspan x="81.26626071884692" dx="0" text-anchor="middle" style="fill: rgb(153, 153, 153); font-size: 14px; font-family: inherit; stroke: transparent; letter-spacing: normal; padding: 8px; stroke-width: 0;">2017</tspan></text></g><g role="presentation"><line x1="193.74299854041232" x2="193.74299854041232" y1="274" y2="34" role="presentation" shape-rendering="auto" vector-effect="non-scaling-stroke" style="stroke: transparent; fill: transparent; stroke-width: 1; stroke-linecap: round; stroke-linejoin: round; pointer-events: none;"></line><line x1="193.74299854041232" x2="193.74299854041232" y1="274" y2="278" role="presentation" shape-rendering="auto" vector-effect="non-scaling-stroke" style="stroke: transparent; fill: transparent; size: 4px; stroke-width: 1; stroke-linecap: round; stroke-linejoin: round;"></line><text dx="0" dy="11.969999999999999" x="193.74299854041232" y="286"><tspan x="193.74299854041232" dx="0" text-anchor="middle" style="fill: rgb(153, 153, 153); font-size: 14px; font-family: inherit; stroke: transparent; letter-spacing: normal; padding: 8px; stroke-width: 0;">2018</tspan></text></g><g role="presentation"><line x1="306.2197363619777" x2="306.2197363619777" y1="274" y2="34" role="presentation" shape-rendering="auto" vector-effect="non-scaling-stroke" style="stroke: transparent; fill: transparent; stroke-width: 1; stroke-linecap: round; stroke-linejoin: round; pointer-events: none;"></line><line x1="306.2197363619777" x2="306.2197363619777" y1="274" y2="278" role="presentation" shape-rendering="auto" vector-effect="non-scaling-stroke" style="stroke: transparent; fill: transparent; size: 4px; stroke-width: 1; stroke-linecap: round; stroke-linejoin: round;"></line><text dx="0" dy="11.969999999999999" x="306.2197363619777" y="286"><tspan x="306.2197363619777" dx="0" text-anchor="middle" style="fill: rgb(153, 153, 153); font-size: 14px; font-family: inherit; stroke: transparent; letter-spacing: normal; padding: 8px; stroke-width: 0;">2019</tspan></text></g><g role="presentation"><line x1="418.69647418354316" x2="418.69647418354316" y1="274" y2="34" role="presentation" shape-rendering="auto" vector-effect="non-scaling-stroke" style="stroke: transparent; fill: transparent; stroke-width: 1; stroke-linecap: round; stroke-linejoin: round; pointer-events: none;"></line><line x1="418.69647418354316" x2="418.69647418354316" y1="274" y2="278" role="presentation" shape-rendering="auto" vector-effect="non-scaling-stroke" style="stroke: transparent; fill: transparent; size: 4px; stroke-width: 1; stroke-linecap: round; stroke-linejoin: round;"></line><text dx="0" dy="11.969999999999999" x="418.69647418354316" y="286"><tspan x="418.69647418354316" dx="0" text-anchor="middle" style="fill: rgb(153, 153, 153); font-size: 14px; font-family: inherit; stroke: transparent; letter-spacing: normal; padding: 8px; stroke-width: 0;">2020</tspan></text></g><g role="presentation"><line x1="531.4813674511951" x2="531.4813674511951" y1="274" y2="34" role="presentation" shape-rendering="auto" vector-effect="non-scaling-stroke" style="stroke: transparent; fill: transparent; stroke-width: 1; stroke-linecap: round; stroke-linejoin: round; pointer-events: none;"></line><line x1="531.4813674511951" x2="531.4813674511951" y1="274" y2="278" role="presentation" shape-rendering="auto" vector-effect="non-scaling-stroke" style="stroke: transparent; fill: transparent; size: 4px; stroke-width: 1; stroke-linecap: round; stroke-linejoin: round;"></line><text dx="0" dy="11.969999999999999" x="531.4813674511951" y="286"><tspan x="531.4813674511951" dx="0" text-anchor="middle" style="fill: rgb(153, 153, 153); font-size: 14px; font-family: inherit; stroke: transparent; letter-spacing: normal; padding: 8px; stroke-width: 0;">2021</tspan></text></g></g><g role="presentation"><line x1="578" x2="578" y1="34" y2="274" role="presentation" shape-rendering="auto" vector-effect="non-scaling-stroke" style="stroke: transparent; fill: transparent; stroke-width: 1; stroke-linejoin: round;"></line><g role="presentation"><line x1="578" x2="15" y1="274" y2="274" role="presentation" shape-rendering="auto" vector-effect="non-scaling-stroke" style="stroke: rgb(226, 226, 226); fill: transparent; stroke-width: 1; stroke-linecap: round; stroke-linejoin: round; pointer-events: none;"></line><line x1="578" x2="582" y1="274" y2="274" role="presentation" shape-rendering="auto" vector-effect="non-scaling-stroke" style="stroke: transparent; fill: transparent; size: 4px; stroke-width: 1; stroke-linecap: round; stroke-linejoin: round;"></line><text dx="0" dy="4.97" x="590" y="274"><tspan x="590" dx="0" text-anchor="start" style="fill: rgb(153, 153, 153); font-size: 14px; font-family: inherit; stroke: transparent; letter-spacing: normal; padding: 8px; stroke-width: 0;">$100K</tspan></text></g><g role="presentation"><line x1="578" x2="15" y1="214" y2="214" role="presentation" shape-rendering="auto" vector-effect="non-scaling-stroke" style="stroke: rgb(226, 226, 226); fill: transparent; stroke-width: 1; stroke-linecap: round; stroke-linejoin: round; pointer-events: none;"></line><line x1="578" x2="582" y1="214" y2="214" role="presentation" shape-rendering="auto" vector-effect="non-scaling-stroke" style="stroke: transparent; fill: transparent; size: 4px; stroke-width: 1; stroke-linecap: round; stroke-linejoin: round;"></line><text dx="0" dy="4.97" x="590" y="214"><tspan x="590" dx="0" text-anchor="start" style="fill: rgb(153, 153, 153); font-size: 14px; font-family: inherit; stroke: transparent; letter-spacing: normal; padding: 8px; stroke-width: 0;">$150K</tspan></text></g><g role="presentation"><line x1="578" x2="15" y1="154" y2="154" role="presentation" shape-rendering="auto" vector-effect="non-scaling-stroke" style="stroke: rgb(226, 226, 226); fill: transparent; stroke-width: 1; stroke-linecap: round; stroke-linejoin: round; pointer-events: none;"></line><line x1="578" x2="582" y1="154" y2="154" role="presentation" shape-rendering="auto" vector-effect="non-scaling-stroke" style="stroke: transparent; fill: transparent; size: 4px; stroke-width: 1; stroke-linecap: round; stroke-linejoin: round;"></line><text dx="0" dy="4.97" x="590" y="154"><tspan x="590" dx="0" text-anchor="start" style="fill: rgb(153, 153, 153); font-size: 14px; font-family: inherit; stroke: transparent; letter-spacing: normal; padding: 8px; stroke-width: 0;">$200K</tspan></text></g><g role="presentation"><line x1="578" x2="15" y1="94" y2="94" role="presentation" shape-rendering="auto" vector-effect="non-scaling-stroke" style="stroke: rgb(226, 226, 226); fill: transparent; stroke-width: 1; stroke-linecap: round; stroke-linejoin: round; pointer-events: none;"></line><line x1="578" x2="582" y1="94" y2="94" role="presentation" shape-rendering="auto" vector-effect="non-scaling-stroke" style="stroke: transparent; fill: transparent; size: 4px; stroke-width: 1; stroke-linecap: round; stroke-linejoin: round;"></line><text dx="0" dy="4.97" x="590" y="94"><tspan x="590" dx="0" text-anchor="start" style="fill: rgb(153, 153, 153); font-size: 14px; font-family: inherit; stroke: transparent; letter-spacing: normal; padding: 8px; stroke-width: 0;">$250K</tspan></text></g><g role="presentation"><line x1="578" x2="15" y1="34" y2="34" role="presentation" shape-rendering="auto" vector-effect="non-scaling-stroke" style="stroke: rgb(226, 226, 226); fill: transparent; stroke-width: 1; stroke-linecap: round; stroke-linejoin: round; pointer-events: none;"></line><line x1="578" x2="582" y1="34" y2="34" role="presentation" shape-rendering="auto" vector-effect="non-scaling-stroke" style="stroke: transparent; fill: transparent; size: 4px; stroke-width: 1; stroke-linecap: round; stroke-linejoin: round;"></line><text dx="0" dy="4.97" x="590" y="34"><tspan x="590" dx="0" text-anchor="start" style="fill: rgb(153, 153, 153); font-size: 14px; font-family: inherit; stroke: transparent; letter-spacing: normal; padding: 8px; stroke-width: 0;">$300K</tspan></text></g></g><g style="height: 100%; width: 100%; user-select: none;"><defs><clipPath id="victory-clip-2"><rect x="15" y="34" width="563" height="240"></rect></clipPath></defs><g clip-path="url(#victory-clip-2)"><path shape-rendering="auto" role="presentation" d="M15.30815544608648,178C18.389709906951285,173.5,21.471264367816094,169,24.5528188286809,169C27.73709177157453,169,30.921364714468165,173.5,34.1056376573618,173.5C37.28991060025543,173.5,40.47418354314906,151,43.658456486042695,151C46.7400109469075,151,49.821565407772304,170.06451612903226,52.90311986863711,172C56.08739281153075,174,59.271665754424376,175,62.45593869731801,175C65.54177309493402,175,68.62760749255003,173.4,71.71344189016602,170.2C74.89771483305965,166.89791955617196,78.0819877759533,148,81.26626071884692,148C84.45053366174056,148,87.63480660463419,155.10348607748188,90.81907954752783,157.60000000000002C93.69519704433499,159.85491580098417,96.57131454114213,161.1937767050778,99.44743203794928,162.643C102.62742504409171,164.24534063709405,105.80741805023415,163.962,108.98741105637657,166.6C112.06896551724138,169.1563391655451,115.15051997810617,180.39999999999998,118.23207443897098,180.39999999999998C121.41634738186463,180.39999999999998,124.60062032475825,134.5,127.7848932676519,134.5C130.8664477285167,134.5,133.9480021893815,161.32,137.02955665024632,161.32C140.21382959313993,161.32,143.39810253603358,131.20000000000002,146.5823754789272,131.20000000000002C149.76664842182083,131.20000000000002,152.95092136471445,163.6,156.1351943076081,163.6C159.2167487684729,163.6,162.2983032293377,163,165.37985769020253,163C168.56413063309614,163,171.74840357598978,178.006,174.9326765188834,178.006C178.0185109164994,178.006,181.10434531411542,159.45999999999998,184.19017971173142,159.45999999999998C187.37445265462506,159.45999999999998,190.55872559751867,182.2,193.74299854041232,182.2C196.92727148330596,182.2,200.1115444261996,162.15771791767557,203.29581736909324,155.8C206.1719348659004,150.05754510661566,209.04805236270755,144.54999999999998,211.9241698595147,144.54999999999998C215.10416286565712,144.54999999999998,218.28415587179956,162.57999999999998,221.46414887794197,162.57999999999998C224.5457033388068,162.57999999999998,227.62725779967158,148.3653833950291,230.7088122605364,142.12C233.89308520343002,135.66643715846996,237.07735814632366,124.6,240.26163108921727,124.6C243.3431855500821,124.6,246.4247400109469,124.8,249.5062944718117,125.19999999999999C252.69056741470536,125.61333333333332,255.874840357599,136,259.05911330049264,136C262.2433862433863,136,265.42765918627987,133.60000000000002,268.6119321291735,133.60000000000002C271.69348659003833,133.60000000000002,274.7750410509031,152.1406,277.8565955117679,152.1406C281.04086845466156,152.1406,284.22514139755515,133.29999999999998,287.4094143404488,133.29999999999998C290.4952487380648,133.29999999999998,293.58108313568084,161.212,296.66691753329684,161.212C299.8511904761905,161.212,303.03546341908407,158.20199999999997,306.2197363619777,154C309.40400930487135,149.798,312.588282247765,136,315.77255519065864,136C318.6486726874658,136,321.52479018427294,142.36,324.4009076810801,142.36C327.58090068722254,142.36,330.76089369336495,136,333.94088669950736,136C337.0224411603722,136,340.10399562123695,143.5,343.18555008210177,143.5C346.3698230249954,143.5,349.55409596788905,119.19999999999999,352.7383689107827,119.19999999999999C355.8199233716475,119.19999999999999,358.9014778325123,145.6,361.9830322933771,145.6C365.16730523627075,145.6,368.35157817916433,134.8,371.535851122058,134.8C374.7201240649516,134.8,377.90439700784526,139.726,381.0886699507389,139.726C384.1702244116037,139.726,387.2517788724685,130.06,390.3333333333333,130.06C393.51760627622696,130.06,396.7018792191206,136,399.88615216201424,136C402.97198655963024,136,406.0578209572463,131.39200000000002,409.1436553548623,131.39200000000002C412.32792829775593,131.39200000000002,415.5122012406495,136.6,418.69647418354316,136.6C421.8807471264368,136.6,425.0650200693304,130.6827586206896,428.24929301222403,129.39999999999998C431.22812899106003,128.2,434.206964969896,127.6,437.185800948732,127.6C440.3657939548744,127.6,443.54578696101686,131.26,446.72577996715927,131.26C449.8073344280241,131.26,452.8888888888889,124.1658487572713,455.97044334975374,121C459.1547162926473,117.7286229508197,462.33898923554096,112,465.52326217843455,112C468.6048166392994,112,471.6863711001642,115.6,474.767925561029,115.6C477.95219850392266,115.6,481.1364714468163,101.79999999999998,484.32074438970994,101.79999999999998C487.50501733260353,101.79999999999998,490.68929027549717,128.8,493.87356321839076,128.8C496.9551176792556,128.8,500.0366721401204,106.30599999999998,503.1182266009852,106.30599999999998C506.3024995438788,106.30599999999998,509.48677248677245,112,512.671045429666,112C515.7568798272821,112,518.8427142248981,98.19999999999999,521.9285486225142,98.19999999999999C525.1128215654078,98.19999999999999,528.2970945083015,112.06,531.4813674511951,112.06C534.6656403940887,112.06,537.8499133369824,107.45260762711864,541.0341862798759,104.5C543.9103037766831,101.83312859486058,546.7864212734902,99.80970073001727,549.6625387702974,95.44060000000002C552.8425317764398,90.60988297261486,556.0225247825822,76,559.2025177887247,76C562.2840722495895,76,565.3656267104543,91,568.4471811713191,91C571.6314541142127,91,574.8157270571064,76,578,61" style="fill: transparent; stroke: rgb(51, 51, 51); stroke-width: 2; opacity: 1;"></path></g></g></svg>