<svg xmlns="http://www.w3.org/2000/svg" width="640" height="324" role="img" aria-labelledby="victory-container-4-title victory-container-4-desc" viewBox="0 0 640 324" style="pointer-events: all; width: 100%; height: 100%;"><g role="presentation"><line x1="15" x2="578" y1="274" y2="274" role="presentation" shape-rendering="auto" vector-effect="non-scaling-stroke" style="stroke: rgb(226, 226, 226); fill: transparent; stroke-width: 1; stroke-linejoin: round;"></line><g role="presentation"><line x1="81.26626071884692" x2="81.26626071884692" y1="274" y2="34" role="presentation" shape-rendering="auto" vector-effect="non-scaling-stroke" style="stroke: transparent; fill: transparent; stroke-width: 1; stroke-linecap: round; stroke-linejoin: round; pointer-events: none;"></line><line x1="81.26626071884692" x2="81.26626071884692" y1="274" y2="278" role="presentation" shape-rendering="auto" vector-effect="non-scaling-stroke" style="stroke: transparent; fill: transparent; size: 4px; stroke-width: 1; stroke-linecap: round; stroke-linejoin: round;"></line><text dx="0" dy="11.969999999999999" x="81.26626071884692" y="286"><tspan x="81.26626071884692" dx="0" text-anchor="middle" style="fill: rgb(153, 153, 153); font-size: 14px; font-family: inherit; stroke: transparent; letter-spacing: normal; padding: 8px; stroke-width: 0;">2017</tspan></text></g><g role="presentation"><line x1="193.74299854041232" x2="193.74299854041232" y1="274" y2="34" role="presentation" shape-rendering="auto" vector-effect="non-scaling-stroke" style="stroke: transparent; fill: transparent; stroke-width: 1; stroke-linecap: round; stroke-linejoin: round; pointer-events: none;"></line><line x1="193.74299854041232" x2="193.74299854041232" y1="274" y2="278" role="presentation" shape-rendering="auto" vector-effect="non-scaling-stroke" style="stroke: transparent; fill: transparent; size: 4px; stroke-width: 1; stroke-linecap: round; stroke-linejoin: round;"></line><text dx="0" dy="11.969999999999999" x="193.74299854041232" y="286"><tspan x="193.74299854041232" dx="0" text-anchor="middle" style="fill: rgb(153, 153, 153); font-size: 14px; font-family: inherit; stroke: transparent; letter-spacing: normal; padding: 8px; stroke-width: 0;">2018</tspan></text></g><g role="presentation"><line x1="306.2197363619777" x2="306.2197363619777" y1="274" y2="34" role="presentation" shape-rendering="auto" vector-effect="non-scaling-stroke" style="stroke: transparent; fill: transparent; stroke-width: 1; stroke-linecap: round; stroke-linejoin: round; pointer-events: none;"></line><line x1="306.2197363619777" x2="306.2197363619777" y1="274" y2="278" role="presentation" shape-rendering="auto" vector-effect="non-scaling-stroke" style="stroke: transparent; fill: transparent; size: 4px; stroke-width: 1; stroke-linecap: round; stroke-linejoin: round;"></line><text dx="0" dy="11.969999999999999" x="306.2197363619777" y="286"><tspan x="306.2197363619777" dx="0" text-anchor="middle" style="fill: rgb(153, 153, 153); font-size: 14px; font-family: inherit; stroke: transparent; letter-spacing: normal; padding: 8px; stroke-width: 0;">2019</tspan></text></g><g role="presentation"><line x1="418.69647418354316" x2="418.69647418354316" y1="274" y2="34" role="presentation" shape-rendering="auto" vector-effect="non-scaling-stroke" style="stroke: transparent; fill: transparent; stroke-width: 1; stroke-linecap: round; stroke-linejoin: round; pointer-events: none;"></line><line x1="418.69647418354316" x2="418.69647418354316" y1="274" y2="278" role="presentation" shape-rendering="auto" vector-effect="non-scaling-stroke" style="stroke: transparent; fill: transparent; size: 4px; stroke-width: 1; stroke-linecap: round; stroke-linejoin: round;"></line><text dx="0" dy="11.969999999999999" x="418.69647418354316" y="286"><tspan x="418.69647418354316" dx="0" text-anchor="middle" style="fill: rgb(153, 153, 153); font-size: 14px; font-family: inherit; stroke: transparent; letter-spacing: normal; padding: 8px; stroke-width: 0;">2020</tspan></text></g><g role="presentation"><line x1="531.4813674511951" x2="531.4813674511951" y1="274" y2="34" role="presentation" shape-rendering="auto" vector-effect="non-scaling-stroke" style="stroke: transparent; fill: transparent; stroke-width: 1; stroke-linecap: round; stroke-linejoin: round; pointer-events: none;"></line><line x1="531.4813674511951" x2="531.4813674511951" y1="274" y2="278" role="presentation" shape-rendering="auto" vector-effect="non-scaling-stroke" style="stroke: transparent; fill: transparent; size: 4px; stroke-width: 1; stroke-linecap: round; stroke-linejoin: round;"></line><text dx="0" dy="11.969999999999999" x="531.4813674511951" y="286"><tspan x="531.4813674511951" dx="0" text-anchor="middle" style="fill: rgb(153, 153, 153); font-size: 14px; font-family: inherit; stroke: transparent; letter-spacing: normal; padding: 8px; stroke-width: 0;">2021</tspan></text></g></g><g role="presentation"><line x1="578" x2="578" y1="34" y2="274" role="presentation" shape-rendering="auto" vector-effect="non-scaling-stroke" style="stroke: transparent; fill: transparent; stroke-width: 1; stroke-linejoin: round;"></line><g role="presentation"><line x1="578" x2="15" y1="274" y2="274" role="presentation" shape-rendering="auto" vector-effect="non-scaling-stroke" style="stroke: rgb(226, 226, 226); fill: transparent; stroke-width: 1; stroke-linecap: round; stroke-linejoin: round; pointer-events: none;"></line><line x1="578" x2="582" y1="274" y2="274" role="presentation" shape-rendering="auto" vector-effect="non-scaling-stroke" style="stroke: transparent; fill: transparent; size: 4px; stroke-width: 1; stroke-linecap: round; stroke-linejoin: round;"></line><text dx="0" dy="4.97" x="590" y="274"><tspan x="590" dx="0" text-anchor="start" style="fill: rgb(153, 153, 153); font-size: 14px; font-family: inherit; stroke: transparent; letter-spacing: normal; padding: 8px; stroke-width: 0;">$50K</tspan></text></g><g role="presentation"><line x1="578" x2="15" y1="199" y2="199" role="presentation" shape-rendering="auto" vector-effect="non-scaling-stroke" style="stroke: rgb(226, 226, 226); fill: transparent; stroke-width: 1; stroke-linecap: round; stroke-linejoin: round; pointer-events: none;"></line><line x1="578" x2="582" y1="199" y2="199" role="presentation" shape-rendering="auto" vector-effect="non-scaling-stroke" style="stroke: transparent; fill: transparent; size: 4px; stroke-width: 1; stroke-linecap: round; stroke-linejoin: round;"></line><text dx="0" dy="4.97" x="590" y="199"><tspan x="590" dx="0" text-anchor="start" style="fill: rgb(153, 153, 153); font-size: 14px; font-family: inherit; stroke: transparent; letter-spacing: normal; padding: 8px; stroke-width: 0;">$100K</tspan></text></g><g role="presentation"><line x1="578" x2="15" y1="124" y2="124" role="presentation" shape-rendering="auto" vector-effect="non-scaling-stroke" style="stroke: rgb(226, 226, 226); fill: transparent; stroke-width: 1; stroke-linecap: round; stroke-linejoin: round; pointer-events: none;"></line><line x1="578" x2="582" y1="124" y2="124" role="presentation" shape-rendering="auto" vector-effect="non-scaling-stroke" style="stroke: transparent; fill: transparent; size: 4px; stroke-width: 1; stroke-linecap: round; stroke-linejoin: round;"></line><text dx="0" dy="4.97" x="590" y="124"><tspan x="590" dx="0" text-anchor="start" style="fill: rgb(153, 153, 153); font-size: 14px; font-family: inherit; stroke: transparent; letter-spacing: normal; padding: 8px; stroke-width: 0;">$150K</tspan></text></g><g role="presentation"><line x1="578" x2="15" y1="49" y2="49" role="presentation" shape-rendering="auto" vector-effect="non-scaling-stroke" style="stroke: rgb(226, 226, 226); fill: transparent; stroke-width: 1; stroke-linecap: round; stroke-linejoin: round; pointer-events: none;"></line><line x1="578" x2="582" y1="49" y2="49" role="presentation" shape-rendering="auto" vector-effect="non-scaling-stroke" style="stroke: transparent; fill: transparent; size: 4px; stroke-width: 1; stroke-linecap: round; stroke-linejoin: round;"></line><text dx="0" dy="4.97" x="590" y="49"><tspan x="590" dx="0" text-anchor="start" style="fill: rgb(153, 153, 153); font-size: 14px; font-family: inherit; stroke: transparent; letter-spacing: normal; padding: 8px; stroke-width: 0;">$200K</tspan></text></g></g><g style="height: 100%; width: 100%; user-select: none;"><defs><clipPath id="victory-clip-5"><rect x="15" y="34" width="563" height="240"></rect></clipPath></defs><g clip-path="url(#victory-clip-5)"><path shape-rendering="auto" role="presentation" d="M24.5528188286809,217.15C27.73709177157453,234.65312500000002,30.921364714468165,252.15625,34.1056376573618,252.15625C37.28991060025543,252.15625,40.47418354314906,246.12657103825137,43.658456486042695,237.25C46.7400109469075,228.65976996298255,49.821565407772304,200.5,52.90311986863711,200.5C56.08739281153075,200.5,59.271665754424376,219.25,62.45593869731801,219.25C65.54177309493402,219.25,68.62760749255003,210.25,71.71344189016602,210.25C74.89771483305965,210.25,78.0819877759533,248.5,81.26626071884692,248.5C84.45053366174056,248.5,87.63480660463419,221.54711713075062,90.81907954752783,210.9625C93.69519704433499,201.40220065609626,96.57131454114213,187,99.44743203794928,187C102.62742504409171,187,105.80741805023415,245.125,108.98741105637657,245.125C112.06896551724138,245.125,115.15051997810617,156.25,118.23207443897098,156.25C121.41634738186463,156.25,124.60062032475825,203.95,127.7848932676519,203.95C130.8664477285167,203.95,133.9480021893815,197.9765468006346,137.02955665024632,193.75C140.21382959313993,189.38256830601094,143.39810253603358,178,146.5823754789272,178C149.76664842182083,178,152.95092136471445,254.515,156.1351943076081,254.515C159.2167487684729,254.515,162.2983032293377,209.54838709677423,165.37985769020253,205C168.56413063309614,200.29999999999998,171.74840357598978,197.95,174.9326765188834,197.95C178.0185109164994,197.95,181.10434531411542,237.25,184.19017971173142,237.25C187.37445265462506,237.25,190.55872559751867,194.65,193.74299854041232,194.65C196.92727148330596,194.65,200.1115444261996,266.5,203.29581736909324,266.5C206.1719348659004,266.5,209.04805236270755,221.48707940780625,211.9241698595147,211.9C215.10416286565712,201.3,218.28415587179956,196,221.46414887794197,196C224.5457033388068,196,227.62725779967158,236.5,230.7088122605364,236.5C233.89308520343002,236.5,237.07735814632366,212.59666666666664,240.26163108921727,206.5C243.3431855500821,200.6,246.4247400109469,201.3147012162877,249.5062944718117,197.65C252.69056741470536,193.86314207650273,255.874840357599,188.65,259.05911330049264,184C262.2433862433863,179.35000000000002,265.42765918627987,179.25,268.6119321291735,169.75C271.69348659003833,160.5564516129032,274.7750410509031,44.5,277.8565955117679,44.5C281.04086845466156,44.5,284.22514139755515,193,287.4094143404488,193C290.4952487380648,193,293.58108313568084,182.12792143748396,296.66691753329684,175.75C299.8511904761905,169.1686219840665,303.03546341908407,154,306.2197363619777,154C309.40400930487135,154,312.588282247765,175,315.77255519065864,175C318.6486726874658,175,321.52479018427294,151.75,324.4009076810801,151.75C327.58090068722254,151.75,330.76089369336495,162.86124888452198,333.94088669950736,176.875C337.0224411603722,190.45494724514703,340.10399562123695,233.5,343.18555008210177,233.5C346.3698230249954,233.5,349.55409596788905,71.5,352.7383689107827,71.5C355.8199233716475,71.5,358.9014778325123,156.25,361.9830322933771,156.25C365.16730523627075,156.25,368.35157817916433,145,371.535851122058,145C374.7201240649516,145,377.90439700784526,167.5,381.0886699507389,167.5C384.1702244116037,167.5,387.2517788724685,138.625,390.3333333333333,138.625C393.51760627622696,138.625,396.7018792191206,142.75,399.88615216201424,142.75C402.97198655963024,142.75,406.0578209572463,140.8271519138317,409.1436553548623,139C412.32792829775593,137.11456168669795,415.5122012406495,131.5,418.69647418354316,131.5C421.8807471264368,131.5,425.0650200693304,131.5,428.24929301222403,131.5C431.22812899106003,131.5,434.206964969896,122.5,437.185800948732,122.5C440.3657939548744,122.5,443.54578696101686,144.25,446.72577996715927,144.25C449.8073344280241,144.25,452.8888888888889,141.75,455.97044334975374,136.75C459.1547162926473,131.5833333333334,462.33898923554096,95.5,465.52326217843455,95.5C468.6048166392994,95.5,471.6863711001642,142.75,474.767925561029,142.75C477.95219850392266,142.75,481.1364714468163,140.5,484.32074438970994,140.5C487.50501733260353,140.5,490.68929027549717,145,493.87356321839076,145C496.9551176792556,145,500.0366721401204,116.5,503.1182266009852,116.5C506.3024995438788,116.5,509.48677248677245,144.625,512.671045429666,144.625C515.7568798272821,144.625,518.8427142248981,142,521.9285486225142,142C525.1128215654078,142,528.2970945083015,191.5,531.4813674511951,191.5C534.6656403940887,191.5,537.8499133369824,133.875,541.0341862798759,130C543.9103037766831,126.5,546.7864212734902,126.53870242403778,549.6625387702974,124.75C552.8425317764398,122.77231264723203,556.0225247825822,118.67499999999998,559.2025177887247,118.67499999999998C562.2840722495895,118.67499999999998,565.3656267104543,131.65,568.4471811713191,131.65C571.6314541142127,131.65,574.8157270571064,100.08250000000001,578,68.51500000000001" style="fill: transparent; stroke: rgb(51, 51, 51); stroke-width: 2; opacity: 1;"></path></g></g></svg>