<svg xmlns="http://www.w3.org/2000/svg" width="640" height="324" role="img" aria-labelledby="victory-container-4-title victory-container-4-desc" viewBox="0 0 640 324" style="pointer-events: all; width: 100%; height: 100%;"><g role="presentation"><line x1="15" x2="578" y1="274" y2="274" role="presentation" shape-rendering="auto" vector-effect="non-scaling-stroke" style="stroke: rgb(226, 226, 226); fill: transparent; stroke-width: 1; stroke-linejoin: round;"></line><g role="presentation"><line x1="81.26626071884692" x2="81.26626071884692" y1="274" y2="34" role="presentation" shape-rendering="auto" vector-effect="non-scaling-stroke" style="stroke: transparent; fill: transparent; stroke-width: 1; stroke-linecap: round; stroke-linejoin: round; pointer-events: none;"></line><line x1="81.26626071884692" x2="81.26626071884692" y1="274" y2="278" role="presentation" shape-rendering="auto" vector-effect="non-scaling-stroke" style="stroke: transparent; fill: transparent; size: 4px; stroke-width: 1; stroke-linecap: round; stroke-linejoin: round;"></line><text dx="0" dy="11.969999999999999" x="81.26626071884692" y="286"><tspan x="81.26626071884692" dx="0" text-anchor="middle" style="fill: rgb(153, 153, 153); font-size: 14px; font-family: inherit; stroke: transparent; letter-spacing: normal; padding: 8px; stroke-width: 0;">2017</tspan></text></g><g role="presentation"><line x1="193.74299854041232" x2="193.74299854041232" y1="274" y2="34" role="presentation" shape-rendering="auto" vector-effect="non-scaling-stroke" style="stroke: transparent; fill: transparent; stroke-width: 1; stroke-linecap: round; stroke-linejoin: round; pointer-events: none;"></line><line x1="193.74299854041232" x2="193.74299854041232" y1="274" y2="278" role="presentation" shape-rendering="auto" vector-effect="non-scaling-stroke" style="stroke: transparent; fill: transparent; size: 4px; stroke-width: 1; stroke-linecap: round; stroke-linejoin: round;"></line><text dx="0" dy="11.969999999999999" x="193.74299854041232" y="286"><tspan x="193.74299854041232" dx="0" text-anchor="middle" style="fill: rgb(153, 153, 153); font-size: 14px; font-family: inherit; stroke: transparent; letter-spacing: normal; padding: 8px; stroke-width: 0;">2018</tspan></text></g><g role="presentation"><line x1="306.2197363619777" x2="306.2197363619777" y1="274" y2="34" role="presentation" shape-rendering="auto" vector-effect="non-scaling-stroke" style="stroke: transparent; fill: transparent; stroke-width: 1; stroke-linecap: round; stroke-linejoin: round; pointer-events: none;"></line><line x1="306.2197363619777" x2="306.2197363619777" y1="274" y2="278" role="presentation" shape-rendering="auto" vector-effect="non-scaling-stroke" style="stroke: transparent; fill: transparent; size: 4px; stroke-width: 1; stroke-linecap: round; stroke-linejoin: round;"></line><text dx="0" dy="11.969999999999999" x="306.2197363619777" y="286"><tspan x="306.2197363619777" dx="0" text-anchor="middle" style="fill: rgb(153, 153, 153); font-size: 14px; font-family: inherit; stroke: transparent; letter-spacing: normal; padding: 8px; stroke-width: 0;">2019</tspan></text></g><g role="presentation"><line x1="418.69647418354316" x2="418.69647418354316" y1="274" y2="34" role="presentation" shape-rendering="auto" vector-effect="non-scaling-stroke" style="stroke: transparent; fill: transparent; stroke-width: 1; stroke-linecap: round; stroke-linejoin: round; pointer-events: none;"></line><line x1="418.69647418354316" x2="418.69647418354316" y1="274" y2="278" role="presentation" shape-rendering="auto" vector-effect="non-scaling-stroke" style="stroke: transparent; fill: transparent; size: 4px; stroke-width: 1; stroke-linecap: round; stroke-linejoin: round;"></line><text dx="0" dy="11.969999999999999" x="418.69647418354316" y="286"><tspan x="418.69647418354316" dx="0" text-anchor="middle" style="fill: rgb(153, 153, 153); font-size: 14px; font-family: inherit; stroke: transparent; letter-spacing: normal; padding: 8px; stroke-width: 0;">2020</tspan></text></g><g role="presentation"><line x1="531.4813674511951" x2="531.4813674511951" y1="274" y2="34" role="presentation" shape-rendering="auto" vector-effect="non-scaling-stroke" style="stroke: transparent; fill: transparent; stroke-width: 1; stroke-linecap: round; stroke-linejoin: round; pointer-events: none;"></line><line x1="531.4813674511951" x2="531.4813674511951" y1="274" y2="278" role="presentation" shape-rendering="auto" vector-effect="non-scaling-stroke" style="stroke: transparent; fill: transparent; size: 4px; stroke-width: 1; stroke-linecap: round; stroke-linejoin: round;"></line><text dx="0" dy="11.969999999999999" x="531.4813674511951" y="286"><tspan x="531.4813674511951" dx="0" text-anchor="middle" style="fill: rgb(153, 153, 153); font-size: 14px; font-family: inherit; stroke: transparent; letter-spacing: normal; padding: 8px; stroke-width: 0;">2021</tspan></text></g></g><g role="presentation"><line x1="578" x2="578" y1="34" y2="274" role="presentation" shape-rendering="auto" vector-effect="non-scaling-stroke" style="stroke: transparent; fill: transparent; stroke-width: 1; stroke-linejoin: round;"></line><g role="presentation"><line x1="578" x2="15" y1="250" y2="250" role="presentation" shape-rendering="auto" vector-effect="non-scaling-stroke" style="stroke: rgb(226, 226, 226); fill: transparent; stroke-width: 1; stroke-linecap: round; stroke-linejoin: round; pointer-events: none;"></line><line x1="578" x2="582" y1="250" y2="250" role="presentation" shape-rendering="auto" vector-effect="non-scaling-stroke" style="stroke: transparent; fill: transparent; size: 4px; stroke-width: 1; stroke-linecap: round; stroke-linejoin: round;"></line><text dx="0" dy="4.97" x="590" y="250"><tspan x="590" dx="0" text-anchor="start" style="fill: rgb(153, 153, 153); font-size: 14px; font-family: inherit; stroke: transparent; letter-spacing: normal; padding: 8px; stroke-width: 0;">$100K</tspan></text></g><g role="presentation"><line x1="578" x2="15" y1="190" y2="190" role="presentation" shape-rendering="auto" vector-effect="non-scaling-stroke" style="stroke: rgb(226, 226, 226); fill: transparent; stroke-width: 1; stroke-linecap: round; stroke-linejoin: round; pointer-events: none;"></line><line x1="578" x2="582" y1="190" y2="190" role="presentation" shape-rendering="auto" vector-effect="non-scaling-stroke" style="stroke: transparent; fill: transparent; size: 4px; stroke-width: 1; stroke-linecap: round; stroke-linejoin: round;"></line><text dx="0" dy="4.97" x="590" y="190"><tspan x="590" dx="0" text-anchor="start" style="fill: rgb(153, 153, 153); font-size: 14px; font-family: inherit; stroke: transparent; letter-spacing: normal; padding: 8px; stroke-width: 0;">$150K</tspan></text></g><g role="presentation"><line x1="578" x2="15" y1="130" y2="130" role="presentation" shape-rendering="auto" vector-effect="non-scaling-stroke" style="stroke: rgb(226, 226, 226); fill: transparent; stroke-width: 1; stroke-linecap: round; stroke-linejoin: round; pointer-events: none;"></line><line x1="578" x2="582" y1="130" y2="130" role="presentation" shape-rendering="auto" vector-effect="non-scaling-stroke" style="stroke: transparent; fill: transparent; size: 4px; stroke-width: 1; stroke-linecap: round; stroke-linejoin: round;"></line><text dx="0" dy="4.97" x="590" y="130"><tspan x="590" dx="0" text-anchor="start" style="fill: rgb(153, 153, 153); font-size: 14px; font-family: inherit; stroke: transparent; letter-spacing: normal; padding: 8px; stroke-width: 0;">$200K</tspan></text></g><g role="presentation"><line x1="578" x2="15" y1="70" y2="70" role="presentation" shape-rendering="auto" vector-effect="non-scaling-stroke" style="stroke: rgb(226, 226, 226); fill: transparent; stroke-width: 1; stroke-linecap: round; stroke-linejoin: round; pointer-events: none;"></line><line x1="578" x2="582" y1="70" y2="70" role="presentation" shape-rendering="auto" vector-effect="non-scaling-stroke" style="stroke: transparent; fill: transparent; size: 4px; stroke-width: 1; stroke-linecap: round; stroke-linejoin: round;"></line><text dx="0" dy="4.97" x="590" y="70"><tspan x="590" dx="0" text-anchor="start" style="fill: rgb(153, 153, 153); font-size: 14px; font-family: inherit; stroke: transparent; letter-spacing: normal; padding: 8px; stroke-width: 0;">$250K</tspan></text></g></g><g style="height: 100%; width: 100%; user-select: none;"><defs><clipPath id="victory-clip-5"><rect x="15" y="34" width="563" height="240"></rect></clipPath></defs><g clip-path="url(#victory-clip-5)"><path shape-rendering="auto" role="presentation" d="M24.5528188286809,232C27.73709177157453,238,30.921364714468165,244,34.1056376573618,244C37.28991060025543,244,40.47418354314906,239.5,43.658456486042695,239.5C46.7400109469075,239.5,49.821565407772304,262,52.90311986863711,262C56.08739281153075,262,59.271665754424376,184,62.45593869731801,184C65.54177309493402,184,68.62760749255003,202,71.71344189016602,202C74.89771483305965,202,78.0819877759533,202,81.26626071884692,202C84.45053366174056,202,87.63480660463419,253,90.81907954752783,253C93.69519704433499,253,96.57131454114213,172,99.44743203794928,172C102.62742504409171,172,105.80741805023415,208,108.98741105637657,208C112.06896551724138,208,115.15051997810617,143.8,118.23207443897098,143.8C121.41634738186463,143.8,124.60062032475825,224.2,127.7848932676519,224.2C130.8664477285167,224.2,133.9480021893815,202.3906,137.02955665024632,202.3906C140.21382959313993,202.3906,143.39810253603358,220.76510000000002,146.5823754789272,232C149.76664842182083,243.2349,152.95092136471445,269.8,156.1351943076081,269.8C159.2167487684729,269.8,162.2983032293377,242.0876784769963,165.37985769020253,233.8C168.56413063309614,225.23606557377053,171.74840357598978,220,174.9326765188834,220C178.0185109164994,220,181.10434531411542,250,184.19017971173142,250C187.37445265462506,250,190.55872559751867,205.99999999999994,193.74299854041232,197.2C196.92727148330596,188.4,200.1115444261996,184,203.29581736909324,184C206.1719348659004,184,209.04805236270755,223,211.9241698595147,223C215.10416286565712,223,218.28415587179956,196.12,221.46414887794197,196.12C224.5457033388068,196.12,227.62725779967158,212.2,230.7088122605364,212.2C233.89308520343002,212.2,237.07735814632366,178,240.26163108921727,178C243.3431855500821,178,246.4247400109469,179.4923320994183,249.5062944718117,181C252.69056741470536,182.55792349726775,255.874840357599,183.1,259.05911330049264,187.3C262.2433862433863,191.5,265.42765918627987,213.4,268.6119321291735,213.4C271.69348659003833,213.4,274.7750410509031,98.80000000000001,277.8565955117679,98.80000000000001C281.04086845466156,98.80000000000001,284.22514139755515,142.09938187860058,287.4094143404488,160C290.4952487380648,177.3472387977541,293.58108313568084,197.44112903225803,296.66691753329684,205C299.8511904761905,212.79999999999998,303.03546341908407,216.7,306.2197363619777,216.7C309.40400930487135,216.7,312.588282247765,202,315.77255519065864,202C318.6486726874658,202,321.52479018427294,208,324.4009076810801,208C327.58090068722254,208,330.76089369336495,178,333.94088669950736,178C337.0224411603722,178,340.10399562123695,194.5,343.18555008210177,194.5C346.3698230249954,194.5,349.55409596788905,189.5545573770492,352.7383689107827,180.51999999999998C355.8199233716475,171.77687995769432,358.9014778325123,142,361.9830322933771,142C365.16730523627075,142,368.35157817916433,189.4,371.535851122058,189.4C374.7201240649516,189.4,377.90439700784526,179.6,381.0886699507389,160C384.1702244116037,141.03225806451618,387.2517788724685,36.400000000000006,390.3333333333333,36.400000000000006C393.51760627622696,36.400000000000006,396.7018792191206,193.5630346740638,399.88615216201424,194.5C402.97198655963024,195.408,406.0578209572463,194.954,409.1436553548623,195.862C412.32792829775593,196.7989653259362,415.5122012406495,210.0515,418.69647418354316,216.4C421.8807471264368,222.7485,425.0650200693304,233.953,428.24929301222403,233.953C431.22812899106003,233.953,434.206964969896,170.34939434724092,437.185800948732,169.6C440.3657939548744,168.8,443.54578696101686,168.4,446.72577996715927,168.4C449.8073344280241,168.4,452.8888888888889,168.70000000000002,455.97044334975374,169.3C459.1547162926473,169.92000000000002,462.33898923554096,190,465.52326217843455,190C468.6048166392994,190,471.6863711001642,146.8,474.767925561029,146.8C477.95219850392266,146.8,481.1364714468163,191.79999999999998,484.32074438970994,193C487.50501733260353,194.20000000000002,490.68929027549717,194.8,493.87356321839076,194.8C496.9551176792556,194.8,500.0366721401204,83.19999999999999,503.1182266009852,83.19999999999999C506.3024995438788,83.19999999999999,509.48677248677245,180.80859916782262,512.671045429666,187C515.7568798272821,193,518.8427142248981,196,521.9285486225142,196C525.1128215654078,196,528.2970945083015,172,531.4813674511951,172C534.6656403940887,172,537.8499133369824,185.0624921307506,541.0341862798759,189.667C543.9103037766831,193.8259103335156,546.7864212734902,199,549.6625387702974,199C552.8425317764398,199,556.0225247825822,189.9351349965823,559.2025177887247,178C562.2840722495895,166.4343240948327,565.3656267104543,132.88387096774193,568.4471811713191,129.39999999999998C571.6314541142127,125.8,574.8157270571064,124.89999999999999,578,124" style="fill: transparent; stroke: rgb(51, 51, 51); stroke-width: 2; opacity: 1;"></path></g></g></svg>