<svg xmlns="http://www.w3.org/2000/svg" width="640" height="324" role="img" aria-labelledby="victory-container-4-title victory-container-4-desc" viewBox="0 0 640 324" style="pointer-events: all; width: 100%; height: 100%;"><g role="presentation"><line x1="15" x2="578" y1="274" y2="274" role="presentation" shape-rendering="auto" vector-effect="non-scaling-stroke" style="stroke: rgb(226, 226, 226); fill: transparent; stroke-width: 1; stroke-linejoin: round;"></line><g role="presentation"><line x1="81.26626071884692" x2="81.26626071884692" y1="274" y2="34" role="presentation" shape-rendering="auto" vector-effect="non-scaling-stroke" style="stroke: transparent; fill: transparent; stroke-width: 1; stroke-linecap: round; stroke-linejoin: round; pointer-events: none;"></line><line x1="81.26626071884692" x2="81.26626071884692" y1="274" y2="278" role="presentation" shape-rendering="auto" vector-effect="non-scaling-stroke" style="stroke: transparent; fill: transparent; size: 4px; stroke-width: 1; stroke-linecap: round; stroke-linejoin: round;"></line><text dx="0" dy="11.969999999999999" x="81.26626071884692" y="286"><tspan x="81.26626071884692" dx="0" text-anchor="middle" style="fill: rgb(153, 153, 153); font-size: 14px; font-family: inherit; stroke: transparent; letter-spacing: normal; padding: 8px; stroke-width: 0;">2017</tspan></text></g><g role="presentation"><line x1="193.74299854041232" x2="193.74299854041232" y1="274" y2="34" role="presentation" shape-rendering="auto" vector-effect="non-scaling-stroke" style="stroke: transparent; fill: transparent; stroke-width: 1; stroke-linecap: round; stroke-linejoin: round; pointer-events: none;"></line><line x1="193.74299854041232" x2="193.74299854041232" y1="274" y2="278" role="presentation" shape-rendering="auto" vector-effect="non-scaling-stroke" style="stroke: transparent; fill: transparent; size: 4px; stroke-width: 1; stroke-linecap: round; stroke-linejoin: round;"></line><text dx="0" dy="11.969999999999999" x="193.74299854041232" y="286"><tspan x="193.74299854041232" dx="0" text-anchor="middle" style="fill: rgb(153, 153, 153); font-size: 14px; font-family: inherit; stroke: transparent; letter-spacing: normal; padding: 8px; stroke-width: 0;">2018</tspan></text></g><g role="presentation"><line x1="306.2197363619777" x2="306.2197363619777" y1="274" y2="34" role="presentation" shape-rendering="auto" vector-effect="non-scaling-stroke" style="stroke: transparent; fill: transparent; stroke-width: 1; stroke-linecap: round; stroke-linejoin: round; pointer-events: none;"></line><line x1="306.2197363619777" x2="306.2197363619777" y1="274" y2="278" role="presentation" shape-rendering="auto" vector-effect="non-scaling-stroke" style="stroke: transparent; fill: transparent; size: 4px; stroke-width: 1; stroke-linecap: round; stroke-linejoin: round;"></line><text dx="0" dy="11.969999999999999" x="306.2197363619777" y="286"><tspan x="306.2197363619777" dx="0" text-anchor="middle" style="fill: rgb(153, 153, 153); font-size: 14px; font-family: inherit; stroke: transparent; letter-spacing: normal; padding: 8px; stroke-width: 0;">2019</tspan></text></g><g role="presentation"><line x1="418.69647418354316" x2="418.69647418354316" y1="274" y2="34" role="presentation" shape-rendering="auto" vector-effect="non-scaling-stroke" style="stroke: transparent; fill: transparent; stroke-width: 1; stroke-linecap: round; stroke-linejoin: round; pointer-events: none;"></line><line x1="418.69647418354316" x2="418.69647418354316" y1="274" y2="278" role="presentation" shape-rendering="auto" vector-effect="non-scaling-stroke" style="stroke: transparent; fill: transparent; size: 4px; stroke-width: 1; stroke-linecap: round; stroke-linejoin: round;"></line><text dx="0" dy="11.969999999999999" x="418.69647418354316" y="286"><tspan x="418.69647418354316" dx="0" text-anchor="middle" style="fill: rgb(153, 153, 153); font-size: 14px; font-family: inherit; stroke: transparent; letter-spacing: normal; padding: 8px; stroke-width: 0;">2020</tspan></text></g><g role="presentation"><line x1="531.4813674511951" x2="531.4813674511951" y1="274" y2="34" role="presentation" shape-rendering="auto" vector-effect="non-scaling-stroke" style="stroke: transparent; fill: transparent; stroke-width: 1; stroke-linecap: round; stroke-linejoin: round; pointer-events: none;"></line><line x1="531.4813674511951" x2="531.4813674511951" y1="274" y2="278" role="presentation" shape-rendering="auto" vector-effect="non-scaling-stroke" style="stroke: transparent; fill: transparent; size: 4px; stroke-width: 1; stroke-linecap: round; stroke-linejoin: round;"></line><text dx="0" dy="11.969999999999999" x="531.4813674511951" y="286"><tspan x="531.4813674511951" dx="0" text-anchor="middle" style="fill: rgb(153, 153, 153); font-size: 14px; font-family: inherit; stroke: transparent; letter-spacing: normal; padding: 8px; stroke-width: 0;">2021</tspan></text></g></g><g role="presentation"><line x1="578" x2="578" y1="34" y2="274" role="presentation" shape-rendering="auto" vector-effect="non-scaling-stroke" style="stroke: transparent; fill: transparent; stroke-width: 1; stroke-linejoin: round;"></line><g role="presentation"><line x1="578" x2="15" y1="274" y2="274" role="presentation" shape-rendering="auto" vector-effect="non-scaling-stroke" style="stroke: rgb(226, 226, 226); fill: transparent; stroke-width: 1; stroke-linecap: round; stroke-linejoin: round; pointer-events: none;"></line><line x1="578" x2="582" y1="274" y2="274" role="presentation" shape-rendering="auto" vector-effect="non-scaling-stroke" style="stroke: transparent; fill: transparent; size: 4px; stroke-width: 1; stroke-linecap: round; stroke-linejoin: round;"></line><text dx="0" dy="4.97" x="590" y="274"><tspan x="590" dx="0" text-anchor="start" style="fill: rgb(153, 153, 153); font-size: 14px; font-family: inherit; stroke: transparent; letter-spacing: normal; padding: 8px; stroke-width: 0;">$100K</tspan></text></g><g role="presentation"><line x1="578" x2="15" y1="214" y2="214" role="presentation" shape-rendering="auto" vector-effect="non-scaling-stroke" style="stroke: rgb(226, 226, 226); fill: transparent; stroke-width: 1; stroke-linecap: round; stroke-linejoin: round; pointer-events: none;"></line><line x1="578" x2="582" y1="214" y2="214" role="presentation" shape-rendering="auto" vector-effect="non-scaling-stroke" style="stroke: transparent; fill: transparent; size: 4px; stroke-width: 1; stroke-linecap: round; stroke-linejoin: round;"></line><text dx="0" dy="4.97" x="590" y="214"><tspan x="590" dx="0" text-anchor="start" style="fill: rgb(153, 153, 153); font-size: 14px; font-family: inherit; stroke: transparent; letter-spacing: normal; padding: 8px; stroke-width: 0;">$150K</tspan></text></g><g role="presentation"><line x1="578" x2="15" y1="154" y2="154" role="presentation" shape-rendering="auto" vector-effect="non-scaling-stroke" style="stroke: rgb(226, 226, 226); fill: transparent; stroke-width: 1; stroke-linecap: round; stroke-linejoin: round; pointer-events: none;"></line><line x1="578" x2="582" y1="154" y2="154" role="presentation" shape-rendering="auto" vector-effect="non-scaling-stroke" style="stroke: transparent; fill: transparent; size: 4px; stroke-width: 1; stroke-linecap: round; stroke-linejoin: round;"></line><text dx="0" dy="4.97" x="590" y="154"><tspan x="590" dx="0" text-anchor="start" style="fill: rgb(153, 153, 153); font-size: 14px; font-family: inherit; stroke: transparent; letter-spacing: normal; padding: 8px; stroke-width: 0;">$200K</tspan></text></g><g role="presentation"><line x1="578" x2="15" y1="94" y2="94" role="presentation" shape-rendering="auto" vector-effect="non-scaling-stroke" style="stroke: rgb(226, 226, 226); fill: transparent; stroke-width: 1; stroke-linecap: round; stroke-linejoin: round; pointer-events: none;"></line><line x1="578" x2="582" y1="94" y2="94" role="presentation" shape-rendering="auto" vector-effect="non-scaling-stroke" style="stroke: transparent; fill: transparent; size: 4px; stroke-width: 1; stroke-linecap: round; stroke-linejoin: round;"></line><text dx="0" dy="4.97" x="590" y="94"><tspan x="590" dx="0" text-anchor="start" style="fill: rgb(153, 153, 153); font-size: 14px; font-family: inherit; stroke: transparent; letter-spacing: normal; padding: 8px; stroke-width: 0;">$250K</tspan></text></g><g role="presentation"><line x1="578" x2="15" y1="34" y2="34" role="presentation" shape-rendering="auto" vector-effect="non-scaling-stroke" style="stroke: rgb(226, 226, 226); fill: transparent; stroke-width: 1; stroke-linecap: round; stroke-linejoin: round; pointer-events: none;"></line><line x1="578" x2="582" y1="34" y2="34" role="presentation" shape-rendering="auto" vector-effect="non-scaling-stroke" style="stroke: transparent; fill: transparent; size: 4px; stroke-width: 1; stroke-linecap: round; stroke-linejoin: round;"></line><text dx="0" dy="4.97" x="590" y="34"><tspan x="590" dx="0" text-anchor="start" style="fill: rgb(153, 153, 153); font-size: 14px; font-family: inherit; stroke: transparent; letter-spacing: normal; padding: 8px; stroke-width: 0;">$300K</tspan></text></g></g><g style="height: 100%; width: 100%; user-select: none;"><defs><clipPath id="victory-clip-5"><rect x="15" y="34" width="563" height="240"></rect></clipPath></defs><g clip-path="url(#victory-clip-5)"><path shape-rendering="auto" role="presentation" d="M24.5528188286809,180.7C27.73709177157453,186.94899999999998,30.921364714468165,193.19799999999998,34.1056376573618,197.248C37.28991060025543,201.298,40.47418354314906,205,43.658456486042695,205C46.7400109469075,205,49.821565407772304,202,52.90311986863711,202C56.08739281153075,202,59.271665754424376,208,62.45593869731801,208C65.54177309493402,208,68.62760749255003,204.7,71.71344189016602,204.7C74.89771483305965,204.7,78.0819877759533,208,81.26626071884692,208C84.45053366174056,208,87.63480660463419,180.39999999999998,90.81907954752783,180.39999999999998C93.69519704433499,180.39999999999998,96.57131454114213,187.8994,99.44743203794928,187.8994C102.62742504409171,187.8994,105.80741805023415,173.2,108.98741105637657,173.2C112.06896551724138,173.2,115.15051997810617,210.4,118.23207443897098,210.4C121.41634738186463,210.4,124.60062032475825,208.54546448087433,127.7848932676519,206.8C130.8664477285167,205.11084082496035,133.9480021893815,204.0213643574828,137.02955665024632,200.2C140.21382959313993,196.25125683060108,143.39810253603358,188.64,146.5823754789272,183.16C149.76664842182083,177.67999999999998,152.95092136471445,167.32,156.1351943076081,167.32C159.2167487684729,167.32,162.2983032293377,183.61290322580646,165.37985769020253,184C168.56413063309614,184.4,171.74840357598978,184.2,174.9326765188834,184.6C178.0185109164994,184.98763440860213,181.10434531411542,196.01053810965539,184.19017971173142,199.6C187.37445265462506,203.3039662224915,190.55872559751867,206.20600000000002,193.74299854041232,206.20600000000002C196.92727148330596,206.20600000000002,200.1115444261996,205.12400000000002,203.29581736909324,202.96C206.1719348659004,201.00541935483872,209.04805236270755,187.60000000000002,211.9241698595147,187.60000000000002C215.10416286565712,187.60000000000002,218.28415587179956,204.4,221.46414887794197,204.4C224.5457033388068,204.4,227.62725779967158,190.07741935483875,230.7088122605364,187.60000000000002C233.89308520343002,185.04,237.07735814632366,183.76,240.26163108921727,183.76C243.3431855500821,183.76,246.4247400109469,208,249.5062944718117,208C252.69056741470536,208,255.874840357599,192.855,259.05911330049264,188.2C262.2433862433863,183.54500000000002,265.42765918627987,180.07,268.6119321291735,180.07C271.69348659003833,180.07,274.7750410509031,211.6,277.8565955117679,211.6C281.04086845466156,211.6,284.22514139755515,197.09213464424172,287.4094143404488,187.60000000000002C290.4952487380648,178.40130500201843,293.58108313568084,155.8,296.66691753329684,155.8C299.8511904761905,155.8,303.03546341908407,187,306.2197363619777,187C309.40400930487135,187,312.588282247765,174.4,315.77255519065864,174.4C318.6486726874658,174.4,321.52479018427294,177.98269249390063,324.4009076810801,182.2C327.58090068722254,186.86288612653541,330.76089369336495,202.12,333.94088669950736,202.12C337.0224411603722,202.12,340.10399562123695,157,343.18555008210177,157C346.3698230249954,157,349.55409596788905,178.3,352.7383689107827,178.3C355.8199233716475,178.3,358.9014778325123,171.85198307773666,361.9830322933771,167.5C365.16730523627075,163.00295081967212,368.35157817916433,151.6,371.535851122058,151.6C374.7201240649516,151.6,377.90439700784526,166.6,381.0886699507389,166.6C384.1702244116037,166.6,387.2517788724685,164.8,390.3333333333333,164.8C393.51760627622696,164.8,396.7018792191206,175,399.88615216201424,175C402.97198655963024,175,406.0578209572463,172.20578908583803,409.1436553548623,169C412.32792829775593,165.69194579769282,415.5122012406495,155.224,418.69647418354316,155.224C421.8807471264368,155.224,425.0650200693304,181,428.24929301222403,181C431.22812899106003,181,434.206964969896,173.3660324529989,437.185800948732,170.98C440.3657939548744,168.4328417922727,443.54578696101686,166.6,446.72577996715927,166.6C449.8073344280241,166.6,452.8888888888889,166.6,455.97044334975374,166.6C459.1547162926473,166.6,462.33898923554096,153.75488415300546,465.52326217843455,149.014C468.6048166392994,144.42604759386563,471.6863711001642,138.4,474.767925561029,138.4C477.95219850392266,138.4,481.1364714468163,154.6,484.32074438970994,154.6C487.50501733260353,154.6,490.68929027549717,153.44540983606552,493.87356321839076,151.89999999999998C496.9551176792556,150.40444209413008,500.0366721401204,149.79999999999998,503.1182266009852,145.6C506.3024995438788,141.26000000000008,509.48677248677245,117.094,512.671045429666,117.094C515.7568798272821,117.094,518.8427142248981,145.138,521.9285486225142,145.138C525.1128215654078,145.138,528.2970945083015,138.30700000000002,531.4813674511951,136C534.6656403940887,133.69299999999998,537.8499133369824,132.45176004842614,541.0341862798759,131.296C543.9103037766831,130.25208769819574,546.7864212734902,130.5884,549.6625387702974,129.1732C552.8425317764398,127.6084773809524,556.0225247825822,120.5666415660363,559.2025177887247,118C562.2840722495895,115.51281032631744,565.3656267104543,113.80000000000001,568.4471811713191,113.80000000000001C571.6314541142127,113.80000000000001,574.8157270571064,124.9,578,136" style="fill: transparent; stroke: rgb(51, 51, 51); stroke-width: 2; opacity: 1;"></path></g></g></svg>