<svg xmlns="http://www.w3.org/2000/svg" width="640" height="324" role="img" aria-labelledby="victory-container-1-title victory-container-1-desc" viewBox="0 0 640 324" style="pointer-events: all; width: 100%; height: 100%;"><g role="presentation"><line x1="15" x2="578" y1="274" y2="274" role="presentation" shape-rendering="auto" vector-effect="non-scaling-stroke" style="stroke: rgb(226, 226, 226); fill: transparent; stroke-width: 1; stroke-linejoin: round;"></line><g role="presentation"><line x1="81.26626071884692" x2="81.26626071884692" y1="274" y2="34" role="presentation" shape-rendering="auto" vector-effect="non-scaling-stroke" style="stroke: transparent; fill: transparent; stroke-width: 1; stroke-linecap: round; stroke-linejoin: round; pointer-events: none;"></line><line x1="81.26626071884692" x2="81.26626071884692" y1="274" y2="278" role="presentation" shape-rendering="auto" vector-effect="non-scaling-stroke" style="stroke: transparent; fill: transparent; size: 4px; stroke-width: 1; stroke-linecap: round; stroke-linejoin: round;"></line><text dx="0" dy="11.969999999999999" x="81.26626071884692" y="286"><tspan x="81.26626071884692" dx="0" text-anchor="middle" style="fill: rgb(153, 153, 153); font-size: 14px; font-family: inherit; stroke: transparent; letter-spacing: normal; padding: 8px; stroke-width: 0;">2017</tspan></text></g><g role="presentation"><line x1="193.74299854041232" x2="193.74299854041232" y1="274" y2="34" role="presentation" shape-rendering="auto" vector-effect="non-scaling-stroke" style="stroke: transparent; fill: transparent; stroke-width: 1; stroke-linecap: round; stroke-linejoin: round; pointer-events: none;"></line><line x1="193.74299854041232" x2="193.74299854041232" y1="274" y2="278" role="presentation" shape-rendering="auto" vector-effect="non-scaling-stroke" style="stroke: transparent; fill: transparent; size: 4px; stroke-width: 1; stroke-linecap: round; stroke-linejoin: round;"></line><text dx="0" dy="11.969999999999999" x="193.74299854041232" y="286"><tspan x="193.74299854041232" dx="0" text-anchor="middle" style="fill: rgb(153, 153, 153); font-size: 14px; font-family: inherit; stroke: transparent; letter-spacing: normal; padding: 8px; stroke-width: 0;">2018</tspan></text></g><g role="presentation"><line x1="306.2197363619777" x2="306.2197363619777" y1="274" y2="34" role="presentation" shape-rendering="auto" vector-effect="non-scaling-stroke" style="stroke: transparent; fill: transparent; stroke-width: 1; stroke-linecap: round; stroke-linejoin: round; pointer-events: none;"></line><line x1="306.2197363619777" x2="306.2197363619777" y1="274" y2="278" role="presentation" shape-rendering="auto" vector-effect="non-scaling-stroke" style="stroke: transparent; fill: transparent; size: 4px; stroke-width: 1; stroke-linecap: round; stroke-linejoin: round;"></line><text dx="0" dy="11.969999999999999" x="306.2197363619777" y="286"><tspan x="306.2197363619777" dx="0" text-anchor="middle" style="fill: rgb(153, 153, 153); font-size: 14px; font-family: inherit; stroke: transparent; letter-spacing: normal; padding: 8px; stroke-width: 0;">2019</tspan></text></g><g role="presentation"><line x1="418.69647418354316" x2="418.69647418354316" y1="274" y2="34" role="presentation" shape-rendering="auto" vector-effect="non-scaling-stroke" style="stroke: transparent; fill: transparent; stroke-width: 1; stroke-linecap: round; stroke-linejoin: round; pointer-events: none;"></line><line x1="418.69647418354316" x2="418.69647418354316" y1="274" y2="278" role="presentation" shape-rendering="auto" vector-effect="non-scaling-stroke" style="stroke: transparent; fill: transparent; size: 4px; stroke-width: 1; stroke-linecap: round; stroke-linejoin: round;"></line><text dx="0" dy="11.969999999999999" x="418.69647418354316" y="286"><tspan x="418.69647418354316" dx="0" text-anchor="middle" style="fill: rgb(153, 153, 153); font-size: 14px; font-family: inherit; stroke: transparent; letter-spacing: normal; padding: 8px; stroke-width: 0;">2020</tspan></text></g><g role="presentation"><line x1="531.4813674511951" x2="531.4813674511951" y1="274" y2="34" role="presentation" shape-rendering="auto" vector-effect="non-scaling-stroke" style="stroke: transparent; fill: transparent; stroke-width: 1; stroke-linecap: round; stroke-linejoin: round; pointer-events: none;"></line><line x1="531.4813674511951" x2="531.4813674511951" y1="274" y2="278" role="presentation" shape-rendering="auto" vector-effect="non-scaling-stroke" style="stroke: transparent; fill: transparent; size: 4px; stroke-width: 1; stroke-linecap: round; stroke-linejoin: round;"></line><text dx="0" dy="11.969999999999999" x="531.4813674511951" y="286"><tspan x="531.4813674511951" dx="0" text-anchor="middle" style="fill: rgb(153, 153, 153); font-size: 14px; font-family: inherit; stroke: transparent; letter-spacing: normal; padding: 8px; stroke-width: 0;">2021</tspan></text></g></g><g role="presentation"><line x1="578" x2="578" y1="34" y2="274" role="presentation" shape-rendering="auto" vector-effect="non-scaling-stroke" style="stroke: transparent; fill: transparent; stroke-width: 1; stroke-linejoin: round;"></line><g role="presentation"><line x1="578" x2="15" y1="274" y2="274" role="presentation" shape-rendering="auto" vector-effect="non-scaling-stroke" style="stroke: rgb(226, 226, 226); fill: transparent; stroke-width: 1; stroke-linecap: round; stroke-linejoin: round; pointer-events: none;"></line><line x1="578" x2="582" y1="274" y2="274" role="presentation" shape-rendering="auto" vector-effect="non-scaling-stroke" style="stroke: transparent; fill: transparent; size: 4px; stroke-width: 1; stroke-linecap: round; stroke-linejoin: round;"></line><text dx="0" dy="4.97" x="590" y="274"><tspan x="590" dx="0" text-anchor="start" style="fill: rgb(153, 153, 153); font-size: 14px; font-family: inherit; stroke: transparent; letter-spacing: normal; padding: 8px; stroke-width: 0;">$100K</tspan></text></g><g role="presentation"><line x1="578" x2="15" y1="214" y2="214" role="presentation" shape-rendering="auto" vector-effect="non-scaling-stroke" style="stroke: rgb(226, 226, 226); fill: transparent; stroke-width: 1; stroke-linecap: round; stroke-linejoin: round; pointer-events: none;"></line><line x1="578" x2="582" y1="214" y2="214" role="presentation" shape-rendering="auto" vector-effect="non-scaling-stroke" style="stroke: transparent; fill: transparent; size: 4px; stroke-width: 1; stroke-linecap: round; stroke-linejoin: round;"></line><text dx="0" dy="4.97" x="590" y="214"><tspan x="590" dx="0" text-anchor="start" style="fill: rgb(153, 153, 153); font-size: 14px; font-family: inherit; stroke: transparent; letter-spacing: normal; padding: 8px; stroke-width: 0;">$150K</tspan></text></g><g role="presentation"><line x1="578" x2="15" y1="154" y2="154" role="presentation" shape-rendering="auto" vector-effect="non-scaling-stroke" style="stroke: rgb(226, 226, 226); fill: transparent; stroke-width: 1; stroke-linecap: round; stroke-linejoin: round; pointer-events: none;"></line><line x1="578" x2="582" y1="154" y2="154" role="presentation" shape-rendering="auto" vector-effect="non-scaling-stroke" style="stroke: transparent; fill: transparent; size: 4px; stroke-width: 1; stroke-linecap: round; stroke-linejoin: round;"></line><text dx="0" dy="4.97" x="590" y="154"><tspan x="590" dx="0" text-anchor="start" style="fill: rgb(153, 153, 153); font-size: 14px; font-family: inherit; stroke: transparent; letter-spacing: normal; padding: 8px; stroke-width: 0;">$200K</tspan></text></g><g role="presentation"><line x1="578" x2="15" y1="94" y2="94" role="presentation" shape-rendering="auto" vector-effect="non-scaling-stroke" style="stroke: rgb(226, 226, 226); fill: transparent; stroke-width: 1; stroke-linecap: round; stroke-linejoin: round; pointer-events: none;"></line><line x1="578" x2="582" y1="94" y2="94" role="presentation" shape-rendering="auto" vector-effect="non-scaling-stroke" style="stroke: transparent; fill: transparent; size: 4px; stroke-width: 1; stroke-linecap: round; stroke-linejoin: round;"></line><text dx="0" dy="4.97" x="590" y="94"><tspan x="590" dx="0" text-anchor="start" style="fill: rgb(153, 153, 153); font-size: 14px; font-family: inherit; stroke: transparent; letter-spacing: normal; padding: 8px; stroke-width: 0;">$250K</tspan></text></g><g role="presentation"><line x1="578" x2="15" y1="34" y2="34" role="presentation" shape-rendering="auto" vector-effect="non-scaling-stroke" style="stroke: rgb(226, 226, 226); fill: transparent; stroke-width: 1; stroke-linecap: round; stroke-linejoin: round; pointer-events: none;"></line><line x1="578" x2="582" y1="34" y2="34" role="presentation" shape-rendering="auto" vector-effect="non-scaling-stroke" style="stroke: transparent; fill: transparent; size: 4px; stroke-width: 1; stroke-linecap: round; stroke-linejoin: round;"></line><text dx="0" dy="4.97" x="590" y="34"><tspan x="590" dx="0" text-anchor="start" style="fill: rgb(153, 153, 153); font-size: 14px; font-family: inherit; stroke: transparent; letter-spacing: normal; padding: 8px; stroke-width: 0;">$300K</tspan></text></g></g><g style="height: 100%; width: 100%; user-select: none;"><defs><clipPath id="victory-clip-2"><rect x="15" y="34" width="563" height="240"></rect></clipPath></defs><g clip-path="url(#victory-clip-2)"><path shape-rendering="auto" role="presentation" d="M15.30815544608648,228.46C18.389709906951285,230.23000000000002,21.471264367816094,232,24.5528188286809,232C27.73709177157453,232,30.921364714468165,221.80599999999998,34.1056376573618,218.80599999999998C37.28991060025543,215.80599999999998,40.47418354314906,214,43.658456486042695,214C46.7400109469075,214,49.821565407772304,226,52.90311986863711,226C56.08739281153075,226,59.271665754424376,212.2,62.45593869731801,212.2C65.54177309493402,212.2,68.62760749255003,217.8494623655914,71.71344189016602,219.4C74.89771483305965,221,78.0819877759533,221.8,81.26626071884692,221.8C84.45053366174056,221.8,87.63480660463419,215.20600000000002,90.81907954752783,215.20600000000002C93.69519704433499,215.20600000000002,96.57131454114213,220,99.44743203794928,220C102.62742504409171,220,105.80741805023415,215.2,108.98741105637657,215.2C112.06896551724138,215.2,115.15051997810617,219.4,118.23207443897098,219.4C121.41634738186463,219.4,124.60062032475825,217,127.7848932676519,217C130.8664477285167,217,133.9480021893815,221.6258064516129,137.02955665024632,222.4C140.21382959313993,223.2,143.39810253603358,223.6,146.5823754789272,223.6C149.76664842182083,223.6,152.95092136471445,220.4271038251366,156.1351943076081,218.8C159.2167487684729,217.2253833950291,162.2983032293377,214,165.37985769020253,214C168.56413063309614,214,171.74840357598978,214,174.9326765188834,214C178.0185109164994,214,181.10434531411542,218.41236559139787,184.19017971173142,218.8C187.37445265462506,219.20000000000002,190.55872559751867,219.4,193.74299854041232,219.4C196.92727148330596,219.4,200.1115444261996,219.4,203.29581736909324,219.4C206.1719348659004,219.4,209.04805236270755,216.66327818175768,211.9241698595147,214C215.10416286565712,211.0553337960626,218.28415587179956,204.80709197235512,221.46414887794197,202C224.5457033388068,199.27980320310132,227.62725779967158,197.2,230.7088122605364,197.2C233.89308520343002,197.2,237.07735814632366,207.39999999999998,240.26163108921727,207.39999999999998C243.3431855500821,207.39999999999998,246.4247400109469,205.28894764674774,249.5062944718117,204.4C252.69056741470536,203.48142076502734,255.874840357599,203.4,259.05911330049264,202C262.2433862433863,200.6,265.42765918627987,196,268.6119321291735,196C271.69348659003833,196,274.7750410509031,200.8,277.8565955117679,200.8C281.04086845466156,200.8,284.22514139755515,196,287.4094143404488,196C290.4952487380648,196,293.58108313568084,196,296.66691753329684,196C299.8511904761905,196,303.03546341908407,198.4,306.2197363619777,198.4C309.40400930487135,198.4,312.588282247765,188.2,315.77255519065864,188.2C318.6486726874658,188.2,321.52479018427294,193.31836381016697,324.4009076810801,196.06C327.58090068722254,199.0913031086993,330.76089369336495,205.60000000000002,333.94088669950736,205.60000000000002C337.0224411603722,205.60000000000002,340.10399562123695,188.56,343.18555008210177,188.56C346.3698230249954,188.56,349.55409596788905,198.4,352.7383689107827,198.4C355.8199233716475,198.4,358.9014778325123,187.60000000000002,361.9830322933771,187.60000000000002C365.16730523627075,187.60000000000002,368.35157817916433,188.60000000000002,371.535851122058,190C374.7201240649516,191.4,377.90439700784526,196,381.0886699507389,196C384.1702244116037,196,387.2517788724685,186.4,390.3333333333333,186.4C393.51760627622696,186.4,396.7018792191206,193.6,399.88615216201424,193.6C402.97198655963024,193.6,406.0578209572463,186.19744247495322,409.1436553548623,184C412.32792829775593,181.73245880531874,415.5122012406495,180.39999999999998,418.69647418354316,180.39999999999998C421.8807471264368,180.39999999999998,425.0650200693304,184.36175862068967,428.24929301222403,185.86C431.22812899106003,187.2615806451613,434.206964969896,189.22,437.185800948732,189.22C440.3657939548744,189.22,443.54578696101686,188.98,446.72577996715927,188.5C449.8073344280241,188.03485868102288,452.8888888888889,180.406,455.97044334975374,180.406C459.1547162926473,180.406,462.33898923554096,186.51999999999998,465.52326217843455,186.51999999999998C468.6048166392994,186.51999999999998,471.6863711001642,181.58225277630882,474.767925561029,179.2C477.95219850392266,176.7383387978142,481.1364714468163,172,484.32074438970994,172C487.50501733260353,172,490.68929027549717,184,493.87356321839076,184C496.9551176792556,184,500.0366721401204,177.59407720782656,503.1182266009852,175.60000000000002C506.3024995438788,173.53945355191263,509.48677248677245,174.05792107094334,512.671045429666,172C515.7568798272821,170.0056974567874,518.8427142248981,163.6,521.9285486225142,163.6C525.1128215654078,163.6,528.2970945083015,167.2,531.4813674511951,167.2C534.6656403940887,167.2,537.8499133369824,163.41047215496368,541.0341862798759,161.8C543.9103037766831,160.34537998906507,546.7864212734902,159.7423452815203,549.6625387702974,157.89999999999998C552.8425317764398,155.86300216641425,556.0225247825822,153.01547846889952,559.2025177887247,149.8C562.2840722495895,146.68405854965323,565.3656267104543,139,568.4471811713191,139C571.6314541142127,139,574.8157270571064,145,578,151" style="fill: transparent; stroke: rgb(51, 51, 51); stroke-width: 2; opacity: 1;"></path></g></g></svg>