<svg xmlns="http://www.w3.org/2000/svg" width="640" height="324" role="img" aria-labelledby="victory-container-4-title victory-container-4-desc" viewBox="0 0 640 324" style="pointer-events: all; width: 100%; height: 100%;"><g role="presentation"><line x1="15" x2="578" y1="274" y2="274" role="presentation" shape-rendering="auto" vector-effect="non-scaling-stroke" style="stroke: rgb(226, 226, 226); fill: transparent; stroke-width: 1; stroke-linejoin: round;"></line><g role="presentation"><line x1="81.26626071884692" x2="81.26626071884692" y1="274" y2="34" role="presentation" shape-rendering="auto" vector-effect="non-scaling-stroke" style="stroke: transparent; fill: transparent; stroke-width: 1; stroke-linecap: round; stroke-linejoin: round; pointer-events: none;"></line><line x1="81.26626071884692" x2="81.26626071884692" y1="274" y2="278" role="presentation" shape-rendering="auto" vector-effect="non-scaling-stroke" style="stroke: transparent; fill: transparent; size: 4px; stroke-width: 1; stroke-linecap: round; stroke-linejoin: round;"></line><text dx="0" dy="11.969999999999999" x="81.26626071884692" y="286"><tspan x="81.26626071884692" dx="0" text-anchor="middle" style="fill: rgb(153, 153, 153); font-size: 14px; font-family: inherit; stroke: transparent; letter-spacing: normal; padding: 8px; stroke-width: 0;">2017</tspan></text></g><g role="presentation"><line x1="193.74299854041232" x2="193.74299854041232" y1="274" y2="34" role="presentation" shape-rendering="auto" vector-effect="non-scaling-stroke" style="stroke: transparent; fill: transparent; stroke-width: 1; stroke-linecap: round; stroke-linejoin: round; pointer-events: none;"></line><line x1="193.74299854041232" x2="193.74299854041232" y1="274" y2="278" role="presentation" shape-rendering="auto" vector-effect="non-scaling-stroke" style="stroke: transparent; fill: transparent; size: 4px; stroke-width: 1; stroke-linecap: round; stroke-linejoin: round;"></line><text dx="0" dy="11.969999999999999" x="193.74299854041232" y="286"><tspan x="193.74299854041232" dx="0" text-anchor="middle" style="fill: rgb(153, 153, 153); font-size: 14px; font-family: inherit; stroke: transparent; letter-spacing: normal; padding: 8px; stroke-width: 0;">2018</tspan></text></g><g role="presentation"><line x1="306.2197363619777" x2="306.2197363619777" y1="274" y2="34" role="presentation" shape-rendering="auto" vector-effect="non-scaling-stroke" style="stroke: transparent; fill: transparent; stroke-width: 1; stroke-linecap: round; stroke-linejoin: round; pointer-events: none;"></line><line x1="306.2197363619777" x2="306.2197363619777" y1="274" y2="278" role="presentation" shape-rendering="auto" vector-effect="non-scaling-stroke" style="stroke: transparent; fill: transparent; size: 4px; stroke-width: 1; stroke-linecap: round; stroke-linejoin: round;"></line><text dx="0" dy="11.969999999999999" x="306.2197363619777" y="286"><tspan x="306.2197363619777" dx="0" text-anchor="middle" style="fill: rgb(153, 153, 153); font-size: 14px; font-family: inherit; stroke: transparent; letter-spacing: normal; padding: 8px; stroke-width: 0;">2019</tspan></text></g><g role="presentation"><line x1="418.69647418354316" x2="418.69647418354316" y1="274" y2="34" role="presentation" shape-rendering="auto" vector-effect="non-scaling-stroke" style="stroke: transparent; fill: transparent; stroke-width: 1; stroke-linecap: round; stroke-linejoin: round; pointer-events: none;"></line><line x1="418.69647418354316" x2="418.69647418354316" y1="274" y2="278" role="presentation" shape-rendering="auto" vector-effect="non-scaling-stroke" style="stroke: transparent; fill: transparent; size: 4px; stroke-width: 1; stroke-linecap: round; stroke-linejoin: round;"></line><text dx="0" dy="11.969999999999999" x="418.69647418354316" y="286"><tspan x="418.69647418354316" dx="0" text-anchor="middle" style="fill: rgb(153, 153, 153); font-size: 14px; font-family: inherit; stroke: transparent; letter-spacing: normal; padding: 8px; stroke-width: 0;">2020</tspan></text></g><g role="presentation"><line x1="531.4813674511951" x2="531.4813674511951" y1="274" y2="34" role="presentation" shape-rendering="auto" vector-effect="non-scaling-stroke" style="stroke: transparent; fill: transparent; stroke-width: 1; stroke-linecap: round; stroke-linejoin: round; pointer-events: none;"></line><line x1="531.4813674511951" x2="531.4813674511951" y1="274" y2="278" role="presentation" shape-rendering="auto" vector-effect="non-scaling-stroke" style="stroke: transparent; fill: transparent; size: 4px; stroke-width: 1; stroke-linecap: round; stroke-linejoin: round;"></line><text dx="0" dy="11.969999999999999" x="531.4813674511951" y="286"><tspan x="531.4813674511951" dx="0" text-anchor="middle" style="fill: rgb(153, 153, 153); font-size: 14px; font-family: inherit; stroke: transparent; letter-spacing: normal; padding: 8px; stroke-width: 0;">2021</tspan></text></g></g><g role="presentation"><line x1="578" x2="578" y1="34" y2="274" role="presentation" shape-rendering="auto" vector-effect="non-scaling-stroke" style="stroke: transparent; fill: transparent; stroke-width: 1; stroke-linejoin: round;"></line><g role="presentation"><line x1="578" x2="15" y1="274" y2="274" role="presentation" shape-rendering="auto" vector-effect="non-scaling-stroke" style="stroke: rgb(226, 226, 226); fill: transparent; stroke-width: 1; stroke-linecap: round; stroke-linejoin: round; pointer-events: none;"></line><line x1="578" x2="582" y1="274" y2="274" role="presentation" shape-rendering="auto" vector-effect="non-scaling-stroke" style="stroke: transparent; fill: transparent; size: 4px; stroke-width: 1; stroke-linecap: round; stroke-linejoin: round;"></line><text dx="0" dy="4.97" x="590" y="274"><tspan x="590" dx="0" text-anchor="start" style="fill: rgb(153, 153, 153); font-size: 14px; font-family: inherit; stroke: transparent; letter-spacing: normal; padding: 8px; stroke-width: 0;">$200K</tspan></text></g><g role="presentation"><line x1="578" x2="15" y1="226" y2="226" role="presentation" shape-rendering="auto" vector-effect="non-scaling-stroke" style="stroke: rgb(226, 226, 226); fill: transparent; stroke-width: 1; stroke-linecap: round; stroke-linejoin: round; pointer-events: none;"></line><line x1="578" x2="582" y1="226" y2="226" role="presentation" shape-rendering="auto" vector-effect="non-scaling-stroke" style="stroke: transparent; fill: transparent; size: 4px; stroke-width: 1; stroke-linecap: round; stroke-linejoin: round;"></line><text dx="0" dy="4.97" x="590" y="226"><tspan x="590" dx="0" text-anchor="start" style="fill: rgb(153, 153, 153); font-size: 14px; font-family: inherit; stroke: transparent; letter-spacing: normal; padding: 8px; stroke-width: 0;">$300K</tspan></text></g><g role="presentation"><line x1="578" x2="15" y1="178" y2="178" role="presentation" shape-rendering="auto" vector-effect="non-scaling-stroke" style="stroke: rgb(226, 226, 226); fill: transparent; stroke-width: 1; stroke-linecap: round; stroke-linejoin: round; pointer-events: none;"></line><line x1="578" x2="582" y1="178" y2="178" role="presentation" shape-rendering="auto" vector-effect="non-scaling-stroke" style="stroke: transparent; fill: transparent; size: 4px; stroke-width: 1; stroke-linecap: round; stroke-linejoin: round;"></line><text dx="0" dy="4.97" x="590" y="178"><tspan x="590" dx="0" text-anchor="start" style="fill: rgb(153, 153, 153); font-size: 14px; font-family: inherit; stroke: transparent; letter-spacing: normal; padding: 8px; stroke-width: 0;">$400K</tspan></text></g><g role="presentation"><line x1="578" x2="15" y1="130" y2="130" role="presentation" shape-rendering="auto" vector-effect="non-scaling-stroke" style="stroke: rgb(226, 226, 226); fill: transparent; stroke-width: 1; stroke-linecap: round; stroke-linejoin: round; pointer-events: none;"></line><line x1="578" x2="582" y1="130" y2="130" role="presentation" shape-rendering="auto" vector-effect="non-scaling-stroke" style="stroke: transparent; fill: transparent; size: 4px; stroke-width: 1; stroke-linecap: round; stroke-linejoin: round;"></line><text dx="0" dy="4.97" x="590" y="130"><tspan x="590" dx="0" text-anchor="start" style="fill: rgb(153, 153, 153); font-size: 14px; font-family: inherit; stroke: transparent; letter-spacing: normal; padding: 8px; stroke-width: 0;">$500K</tspan></text></g><g role="presentation"><line x1="578" x2="15" y1="82" y2="82" role="presentation" shape-rendering="auto" vector-effect="non-scaling-stroke" style="stroke: rgb(226, 226, 226); fill: transparent; stroke-width: 1; stroke-linecap: round; stroke-linejoin: round; pointer-events: none;"></line><line x1="578" x2="582" y1="82" y2="82" role="presentation" shape-rendering="auto" vector-effect="non-scaling-stroke" style="stroke: transparent; fill: transparent; size: 4px; stroke-width: 1; stroke-linecap: round; stroke-linejoin: round;"></line><text dx="0" dy="4.97" x="590" y="82"><tspan x="590" dx="0" text-anchor="start" style="fill: rgb(153, 153, 153); font-size: 14px; font-family: inherit; stroke: transparent; letter-spacing: normal; padding: 8px; stroke-width: 0;">$600K</tspan></text></g><g role="presentation"><line x1="578" x2="15" y1="34" y2="34" role="presentation" shape-rendering="auto" vector-effect="non-scaling-stroke" style="stroke: rgb(226, 226, 226); fill: transparent; stroke-width: 1; stroke-linecap: round; stroke-linejoin: round; pointer-events: none;"></line><line x1="578" x2="582" y1="34" y2="34" role="presentation" shape-rendering="auto" vector-effect="non-scaling-stroke" style="stroke: transparent; fill: transparent; size: 4px; stroke-width: 1; stroke-linecap: round; stroke-linejoin: round;"></line><text dx="0" dy="4.97" x="590" y="34"><tspan x="590" dx="0" text-anchor="start" style="fill: rgb(153, 153, 153); font-size: 14px; font-family: inherit; stroke: transparent; letter-spacing: normal; padding: 8px; stroke-width: 0;">$700K</tspan></text></g></g><g style="height: 100%; width: 100%; user-select: none;"><defs><clipPath id="victory-clip-5"><rect x="15" y="34" width="563" height="240"></rect></clipPath></defs><g clip-path="url(#victory-clip-5)"><path shape-rendering="auto" role="presentation" d="M15.30815544608648,106C18.389709906951285,122.8,21.471264367816094,139.6,24.5528188286809,139.6C27.73709177157453,139.6,30.921364714468165,106.96000000000001,34.1056376573618,106.96000000000001C37.28991060025543,106.96000000000001,40.47418354314906,152.32,43.658456486042695,152.32C46.7400109469075,152.32,49.821565407772304,131.68,52.90311986863711,131.68C56.08739281153075,131.68,59.271665754424376,154,62.45593869731801,154C65.54177309493402,154,68.62760749255003,134.18645161290323,71.71344189016602,130C74.89771483305965,125.68,78.0819877759533,123.52000000000001,81.26626071884692,123.52000000000001C84.45053366174056,123.52000000000001,87.63480660463419,170.8,90.81907954752783,170.8C93.69519704433499,170.8,96.57131454114213,141.08263795423957,99.44743203794928,132.4C102.62742504409171,122.8,105.80741805023415,119.45297777777779,108.98741105637657,118C112.06896551724138,116.59199999999998,115.15051997810617,117.29599999999999,118.23207443897098,115.88799999999998C121.41634738186463,114.43306666666662,124.60062032475825,102.4,127.7848932676519,102.4C130.8664477285167,102.4,133.9480021893815,141.568,137.02955665024632,141.568C140.21382959313993,141.568,143.39810253603358,139.6,146.5823754789272,139.6C149.76664842182083,139.6,152.95092136471445,162.64,156.1351943076081,162.64C159.2167487684729,162.64,162.2983032293377,157.024,165.37985769020253,157.024C168.56413063309614,157.024,171.74840357598978,250,174.9326765188834,250C178.0185109164994,250,181.10434531411542,233.49673676098206,184.19017971173142,226C187.37445265462506,218.2641162965733,190.55872559751867,204.4,193.74299854041232,204.4C196.92727148330596,204.4,200.1115444261996,206.09457627118647,203.29581736909324,206.8C206.1719348659004,207.43715691634773,209.04805236270755,208.48,211.9241698595147,208.48C215.10416286565712,208.48,218.28415587179956,206.32,221.46414887794197,202C224.5457033388068,197.8137281292059,227.62725779967158,160,230.7088122605364,160C233.89308520343002,160,237.07735814632366,190,240.26163108921727,190C243.3431855500821,190,246.4247400109469,147.74838709677417,249.5062944718117,144.39999999999998C252.69056741470536,140.93999999999997,255.874840357599,139.20999999999998,259.05911330049264,139.20999999999998C262.2433862433863,139.20999999999998,265.42765918627987,184.09652459016394,268.6119321291735,198.4C271.69348659003833,212.24207297726073,274.7750410509031,224.68,277.8565955117679,224.68C281.04086845466156,224.68,284.22514139755515,166,287.4094143404488,166C290.4952487380648,166,293.58108313568084,175.82427512569268,296.66691753329684,181.48000000000002C299.8511904761905,187.31614328222557,303.03546341908407,200.572,306.2197363619777,200.572C309.40400930487135,200.572,312.588282247765,188.00515496368038,315.77255519065864,175.9C318.6486726874658,164.96631164570806,321.52479018427294,133.60000000000002,324.4009076810801,133.60000000000002C327.58090068722254,133.60000000000002,330.76089369336495,157.84,333.94088669950736,157.84C337.0224411603722,157.84,340.10399562123695,106.96000000000001,343.18555008210177,106.96000000000001C346.3698230249954,106.96000000000001,349.55409596788905,128.824,352.7383689107827,128.824C355.8199233716475,128.824,358.9014778325123,103.60000000000002,361.9830322933771,103.60000000000002C365.16730523627075,103.60000000000002,368.35157817916433,153.6,371.535851122058,154.72C374.7201240649516,155.84,377.90439700784526,155.28,381.0886699507389,156.4C384.1702244116037,157.48387096774195,387.2517788724685,166,390.3333333333333,166C393.51760627622696,166,396.7018792191206,160.288,399.88615216201424,160.288C402.97198655963024,160.288,406.0578209572463,160.61731242981395,409.1436553548623,160.96C412.32792829775593,161.3136193512045,415.5122012406495,161.44,418.69647418354316,162.39999999999998C421.8807471264368,163.35999999999996,425.0650200693304,181.84,428.24929301222403,181.84C431.22812899106003,181.84,434.206964969896,120.4,437.185800948732,120.4C440.3657939548744,120.4,443.54578696101686,134.8,446.72577996715927,134.8C449.8073344280241,134.8,452.8888888888889,130.66000000000003,455.97044334975374,130.66000000000003C459.1547162926473,130.66000000000003,462.33898923554096,149.2,465.52326217843455,149.2C468.6048166392994,149.2,471.6863711001642,112.9677419354839,474.767925561029,106C477.95219850392266,98.8,481.1364714468163,95.19999999999999,484.32074438970994,95.19999999999999C487.50501733260353,95.19999999999999,490.68929027549717,151,493.87356321839076,151C496.9551176792556,151,500.0366721401204,93.88000000000002,503.1182266009852,93.88000000000002C506.3024995438788,93.88000000000002,509.48677248677245,119.17839999999998,512.671045429666,119.17839999999998C515.7568798272821,119.17839999999998,518.8427142248981,79.6,521.9285486225142,79.6C525.1128215654078,79.6,528.2970945083015,226,531.4813674511951,226C534.6656403940887,226,537.8499133369824,217.2,541.0341862798759,199.6C543.9103037766831,183.7032258064516,546.7864212734902,108.54399999999998,549.6625387702974,108.54399999999998C552.8425317764398,108.54399999999998,556.0225247825822,131.20000000000002,559.2025177887247,131.20000000000002C562.2840722495895,131.20000000000002,565.3656267104543,82,568.4471811713191,82C571.6314541142127,82,574.8157270571064,98.8,578,115.6" style="fill: transparent; stroke: rgb(51, 51, 51); stroke-width: 2; opacity: 1;"></path></g></g></svg>