<svg xmlns="http://www.w3.org/2000/svg" width="640" height="324" role="img" aria-labelledby="victory-container-4-title victory-container-4-desc" viewBox="0 0 640 324" style="pointer-events: all; width: 100%; height: 100%;"><g role="presentation"><line x1="15" x2="578" y1="274" y2="274" role="presentation" shape-rendering="auto" vector-effect="non-scaling-stroke" style="stroke: rgb(226, 226, 226); fill: transparent; stroke-width: 1; stroke-linejoin: round;"></line><g role="presentation"><line x1="81.26626071884692" x2="81.26626071884692" y1="274" y2="34" role="presentation" shape-rendering="auto" vector-effect="non-scaling-stroke" style="stroke: transparent; fill: transparent; stroke-width: 1; stroke-linecap: round; stroke-linejoin: round; pointer-events: none;"></line><line x1="81.26626071884692" x2="81.26626071884692" y1="274" y2="278" role="presentation" shape-rendering="auto" vector-effect="non-scaling-stroke" style="stroke: transparent; fill: transparent; size: 4px; stroke-width: 1; stroke-linecap: round; stroke-linejoin: round;"></line><text dx="0" dy="11.969999999999999" x="81.26626071884692" y="286"><tspan x="81.26626071884692" dx="0" text-anchor="middle" style="fill: rgb(153, 153, 153); font-size: 14px; font-family: inherit; stroke: transparent; letter-spacing: normal; padding: 8px; stroke-width: 0;">2017</tspan></text></g><g role="presentation"><line x1="193.74299854041232" x2="193.74299854041232" y1="274" y2="34" role="presentation" shape-rendering="auto" vector-effect="non-scaling-stroke" style="stroke: transparent; fill: transparent; stroke-width: 1; stroke-linecap: round; stroke-linejoin: round; pointer-events: none;"></line><line x1="193.74299854041232" x2="193.74299854041232" y1="274" y2="278" role="presentation" shape-rendering="auto" vector-effect="non-scaling-stroke" style="stroke: transparent; fill: transparent; size: 4px; stroke-width: 1; stroke-linecap: round; stroke-linejoin: round;"></line><text dx="0" dy="11.969999999999999" x="193.74299854041232" y="286"><tspan x="193.74299854041232" dx="0" text-anchor="middle" style="fill: rgb(153, 153, 153); font-size: 14px; font-family: inherit; stroke: transparent; letter-spacing: normal; padding: 8px; stroke-width: 0;">2018</tspan></text></g><g role="presentation"><line x1="306.2197363619777" x2="306.2197363619777" y1="274" y2="34" role="presentation" shape-rendering="auto" vector-effect="non-scaling-stroke" style="stroke: transparent; fill: transparent; stroke-width: 1; stroke-linecap: round; stroke-linejoin: round; pointer-events: none;"></line><line x1="306.2197363619777" x2="306.2197363619777" y1="274" y2="278" role="presentation" shape-rendering="auto" vector-effect="non-scaling-stroke" style="stroke: transparent; fill: transparent; size: 4px; stroke-width: 1; stroke-linecap: round; stroke-linejoin: round;"></line><text dx="0" dy="11.969999999999999" x="306.2197363619777" y="286"><tspan x="306.2197363619777" dx="0" text-anchor="middle" style="fill: rgb(153, 153, 153); font-size: 14px; font-family: inherit; stroke: transparent; letter-spacing: normal; padding: 8px; stroke-width: 0;">2019</tspan></text></g><g role="presentation"><line x1="418.69647418354316" x2="418.69647418354316" y1="274" y2="34" role="presentation" shape-rendering="auto" vector-effect="non-scaling-stroke" style="stroke: transparent; fill: transparent; stroke-width: 1; stroke-linecap: round; stroke-linejoin: round; pointer-events: none;"></line><line x1="418.69647418354316" x2="418.69647418354316" y1="274" y2="278" role="presentation" shape-rendering="auto" vector-effect="non-scaling-stroke" style="stroke: transparent; fill: transparent; size: 4px; stroke-width: 1; stroke-linecap: round; stroke-linejoin: round;"></line><text dx="0" dy="11.969999999999999" x="418.69647418354316" y="286"><tspan x="418.69647418354316" dx="0" text-anchor="middle" style="fill: rgb(153, 153, 153); font-size: 14px; font-family: inherit; stroke: transparent; letter-spacing: normal; padding: 8px; stroke-width: 0;">2020</tspan></text></g><g role="presentation"><line x1="531.4813674511951" x2="531.4813674511951" y1="274" y2="34" role="presentation" shape-rendering="auto" vector-effect="non-scaling-stroke" style="stroke: transparent; fill: transparent; stroke-width: 1; stroke-linecap: round; stroke-linejoin: round; pointer-events: none;"></line><line x1="531.4813674511951" x2="531.4813674511951" y1="274" y2="278" role="presentation" shape-rendering="auto" vector-effect="non-scaling-stroke" style="stroke: transparent; fill: transparent; size: 4px; stroke-width: 1; stroke-linecap: round; stroke-linejoin: round;"></line><text dx="0" dy="11.969999999999999" x="531.4813674511951" y="286"><tspan x="531.4813674511951" dx="0" text-anchor="middle" style="fill: rgb(153, 153, 153); font-size: 14px; font-family: inherit; stroke: transparent; letter-spacing: normal; padding: 8px; stroke-width: 0;">2021</tspan></text></g></g><g role="presentation"><line x1="578" x2="578" y1="34" y2="274" role="presentation" shape-rendering="auto" vector-effect="non-scaling-stroke" style="stroke: transparent; fill: transparent; stroke-width: 1; stroke-linejoin: round;"></line><g role="presentation"><line x1="578" x2="15" y1="274" y2="274" role="presentation" shape-rendering="auto" vector-effect="non-scaling-stroke" style="stroke: rgb(226, 226, 226); fill: transparent; stroke-width: 1; stroke-linecap: round; stroke-linejoin: round; pointer-events: none;"></line><line x1="578" x2="582" y1="274" y2="274" role="presentation" shape-rendering="auto" vector-effect="non-scaling-stroke" style="stroke: transparent; fill: transparent; size: 4px; stroke-width: 1; stroke-linecap: round; stroke-linejoin: round;"></line><text dx="0" dy="4.97" x="590" y="274"><tspan x="590" dx="0" text-anchor="start" style="fill: rgb(153, 153, 153); font-size: 14px; font-family: inherit; stroke: transparent; letter-spacing: normal; padding: 8px; stroke-width: 0;">$100K</tspan></text></g><g role="presentation"><line x1="578" x2="15" y1="226" y2="226" role="presentation" shape-rendering="auto" vector-effect="non-scaling-stroke" style="stroke: rgb(226, 226, 226); fill: transparent; stroke-width: 1; stroke-linecap: round; stroke-linejoin: round; pointer-events: none;"></line><line x1="578" x2="582" y1="226" y2="226" role="presentation" shape-rendering="auto" vector-effect="non-scaling-stroke" style="stroke: transparent; fill: transparent; size: 4px; stroke-width: 1; stroke-linecap: round; stroke-linejoin: round;"></line><text dx="0" dy="4.97" x="590" y="226"><tspan x="590" dx="0" text-anchor="start" style="fill: rgb(153, 153, 153); font-size: 14px; font-family: inherit; stroke: transparent; letter-spacing: normal; padding: 8px; stroke-width: 0;">$120K</tspan></text></g><g role="presentation"><line x1="578" x2="15" y1="178" y2="178" role="presentation" shape-rendering="auto" vector-effect="non-scaling-stroke" style="stroke: rgb(226, 226, 226); fill: transparent; stroke-width: 1; stroke-linecap: round; stroke-linejoin: round; pointer-events: none;"></line><line x1="578" x2="582" y1="178" y2="178" role="presentation" shape-rendering="auto" vector-effect="non-scaling-stroke" style="stroke: transparent; fill: transparent; size: 4px; stroke-width: 1; stroke-linecap: round; stroke-linejoin: round;"></line><text dx="0" dy="4.97" x="590" y="178"><tspan x="590" dx="0" text-anchor="start" style="fill: rgb(153, 153, 153); font-size: 14px; font-family: inherit; stroke: transparent; letter-spacing: normal; padding: 8px; stroke-width: 0;">$140K</tspan></text></g><g role="presentation"><line x1="578" x2="15" y1="130" y2="130" role="presentation" shape-rendering="auto" vector-effect="non-scaling-stroke" style="stroke: rgb(226, 226, 226); fill: transparent; stroke-width: 1; stroke-linecap: round; stroke-linejoin: round; pointer-events: none;"></line><line x1="578" x2="582" y1="130" y2="130" role="presentation" shape-rendering="auto" vector-effect="non-scaling-stroke" style="stroke: transparent; fill: transparent; size: 4px; stroke-width: 1; stroke-linecap: round; stroke-linejoin: round;"></line><text dx="0" dy="4.97" x="590" y="130"><tspan x="590" dx="0" text-anchor="start" style="fill: rgb(153, 153, 153); font-size: 14px; font-family: inherit; stroke: transparent; letter-spacing: normal; padding: 8px; stroke-width: 0;">$160K</tspan></text></g><g role="presentation"><line x1="578" x2="15" y1="82" y2="82" role="presentation" shape-rendering="auto" vector-effect="non-scaling-stroke" style="stroke: rgb(226, 226, 226); fill: transparent; stroke-width: 1; stroke-linecap: round; stroke-linejoin: round; pointer-events: none;"></line><line x1="578" x2="582" y1="82" y2="82" role="presentation" shape-rendering="auto" vector-effect="non-scaling-stroke" style="stroke: transparent; fill: transparent; size: 4px; stroke-width: 1; stroke-linecap: round; stroke-linejoin: round;"></line><text dx="0" dy="4.97" x="590" y="82"><tspan x="590" dx="0" text-anchor="start" style="fill: rgb(153, 153, 153); font-size: 14px; font-family: inherit; stroke: transparent; letter-spacing: normal; padding: 8px; stroke-width: 0;">$180K</tspan></text></g><g role="presentation"><line x1="578" x2="15" y1="34" y2="34" role="presentation" shape-rendering="auto" vector-effect="non-scaling-stroke" style="stroke: rgb(226, 226, 226); fill: transparent; stroke-width: 1; stroke-linecap: round; stroke-linejoin: round; pointer-events: none;"></line><line x1="578" x2="582" y1="34" y2="34" role="presentation" shape-rendering="auto" vector-effect="non-scaling-stroke" style="stroke: transparent; fill: transparent; size: 4px; stroke-width: 1; stroke-linecap: round; stroke-linejoin: round;"></line><text dx="0" dy="4.97" x="590" y="34"><tspan x="590" dx="0" text-anchor="start" style="fill: rgb(153, 153, 153); font-size: 14px; font-family: inherit; stroke: transparent; letter-spacing: normal; padding: 8px; stroke-width: 0;">$200K</tspan></text></g></g><g style="height: 100%; width: 100%; user-select: none;"><defs><clipPath id="victory-clip-5"><rect x="15" y="34" width="563" height="240"></rect></clipPath></defs><g clip-path="url(#victory-clip-5)"><path shape-rendering="auto" role="presentation" d="M24.5528188286809,230.8C27.73709177157453,223.6,30.921364714468165,216.4,34.1056376573618,216.4C37.28991060025543,216.4,40.47418354314906,237.92000000000002,43.658456486042695,240.4C46.7400109469075,242.8,49.821565407772304,241.6,52.90311986863711,244C56.08739281153075,246.48,59.271665754424376,260.8,62.45593869731801,260.8C65.54177309493402,260.8,68.62760749255003,251.27475723879775,71.71344189016602,245.2C74.89771483305965,238.9314571627385,78.0819877759533,229.95999999999998,81.26626071884692,223.6C84.45053366174056,217.23999999999998,87.63480660463419,210.63694915254237,90.81907954752783,207.04C93.69519704433499,203.79114270092947,96.57131454114213,203.82711395403032,99.44743203794928,202C102.62742504409171,199.97984275618376,105.80741805023415,195.39999999999998,108.98741105637657,195.39999999999998C112.06896551724138,195.39999999999998,115.15051997810617,200.8,118.23207443897098,200.8C121.41634738186463,200.8,124.60062032475825,178,127.7848932676519,178C130.8664477285167,178,133.9480021893815,231.88,137.02955665024632,231.88C140.21382959313993,231.88,143.39810253603358,229.92,146.5823754789272,226C149.76664842182083,222.07999999999998,152.95092136471445,199,156.1351943076081,199C159.2167487684729,199,162.2983032293377,226,165.37985769020253,226C168.56413063309614,226,171.74840357598978,192.39999999999998,174.9326765188834,192.39999999999998C178.0185109164994,192.39999999999998,181.10434531411542,198.46713714264743,184.19017971173142,202C187.37445265462506,205.64556167249697,190.55872559751867,214,193.74299854041232,214C196.92727148330596,214,200.1115444261996,161.8,203.29581736909324,161.8C206.1719348659004,161.8,209.04805236270755,214,211.9241698595147,214C215.10416286565712,214,218.28415587179956,191.71416590719218,221.46414887794197,182.2C224.5457033388068,172.98035066866967,227.62725779967158,157.60000000000002,230.7088122605364,157.60000000000002C233.89308520343002,157.60000000000002,237.07735814632366,184.6,240.26163108921727,184.6C243.3431855500821,184.6,246.4247400109469,166,249.5062944718117,166C252.69056741470536,166,255.874840357599,202,259.05911330049264,202C262.2433862433863,202,265.42765918627987,173.2,268.6119321291735,173.2C271.69348659003833,173.2,274.7750410509031,178,277.8565955117679,178C281.04086845466156,178,284.22514139755515,164.2,287.4094143404488,164.2C290.4952487380648,164.2,293.58108313568084,164.79999999999998,296.66691753329684,166C299.8511904761905,167.23828016643552,303.03546341908407,187,306.2197363619777,193.6C309.40400930487135,200.20000000000005,312.588282247765,205.60000000000002,315.77255519065864,205.60000000000002C318.6486726874658,205.60000000000002,321.52479018427294,149.2,324.4009076810801,149.2C327.58090068722254,149.2,330.76089369336495,184,333.94088669950736,184C337.0224411603722,184,340.10399562123695,173.99894235854043,343.18555008210177,166C346.3698230249954,157.7344262295082,349.55409596788905,134.8,352.7383689107827,134.8C355.8199233716475,134.8,358.9014778325123,143.80433632998412,361.9830322933771,151.6C365.16730523627075,159.65551912568304,368.35157817916433,170.51960000000005,371.535851122058,182.8C374.7201240649516,195.08040000000003,377.90439700784526,225.2824,381.0886699507389,225.2824C384.1702244116037,225.2824,387.2517788724685,222.5392,390.3333333333333,217.0528C393.51760627622696,211.38351999999998,396.7018792191206,133.60000000000002,399.88615216201424,133.60000000000002C402.97198655963024,133.60000000000002,406.0578209572463,150.12365591397847,409.1436553548623,154C412.32792829775593,158,415.5122012406495,160,418.69647418354316,160C421.8807471264368,160,425.0650200693304,148.36,428.24929301222403,148.36C431.22812899106003,148.36,434.206964969896,173.68,437.185800948732,173.68C440.3657939548744,173.68,443.54578696101686,154,446.72577996715927,154C449.8073344280241,154,452.8888888888889,192.39999999999998,455.97044334975374,192.39999999999998C459.1547162926473,192.39999999999998,462.33898923554096,130,465.52326217843455,130C468.6048166392994,130,471.6863711001642,142,474.767925561029,142C477.95219850392266,142,481.1364714468163,135.20000000000002,484.32074438970994,132.4C487.50501733260353,129.60000000000002,490.68929027549717,125.19999999999999,493.87356321839076,125.19999999999999C496.9551176792556,125.19999999999999,500.0366721401204,187.60000000000002,503.1182266009852,187.60000000000002C506.3024995438788,187.60000000000002,509.48677248677245,107.01276005547848,512.671045429666,106.6C515.7568798272821,106.2,518.8427142248981,106,521.9285486225142,106C525.1128215654078,106,528.2970945083015,106.8,531.4813674511951,108.4C534.6656403940887,110.00000000000001,537.8499133369824,170.8,541.0341862798759,170.8C543.9103037766831,170.8,546.7864212734902,148.79168950249442,549.6625387702974,136C552.8425317764398,121.85680758875986,556.0225247825822,89.19999999999999,559.2025177887247,89.19999999999999C562.2840722495895,89.19999999999999,565.3656267104543,97.74531993654142,568.4471811713191,109C571.6314541142127,120.62983606557377,574.8157270571064,139.7149180327869,578,158.8" style="fill: transparent; stroke: rgb(51, 51, 51); stroke-width: 2; opacity: 1;"></path></g></g></svg>