<svg xmlns="http://www.w3.org/2000/svg" width="640" height="324" role="img" aria-labelledby="victory-container-4-title victory-container-4-desc" viewBox="0 0 640 324" style="pointer-events: all; width: 100%; height: 100%;"><g role="presentation"><line x1="15" x2="578" y1="274" y2="274" role="presentation" shape-rendering="auto" vector-effect="non-scaling-stroke" style="stroke: rgb(226, 226, 226); fill: transparent; stroke-width: 1; stroke-linejoin: round;"></line><g role="presentation"><line x1="81.26626071884692" x2="81.26626071884692" y1="274" y2="34" role="presentation" shape-rendering="auto" vector-effect="non-scaling-stroke" style="stroke: transparent; fill: transparent; stroke-width: 1; stroke-linecap: round; stroke-linejoin: round; pointer-events: none;"></line><line x1="81.26626071884692" x2="81.26626071884692" y1="274" y2="278" role="presentation" shape-rendering="auto" vector-effect="non-scaling-stroke" style="stroke: transparent; fill: transparent; size: 4px; stroke-width: 1; stroke-linecap: round; stroke-linejoin: round;"></line><text dx="0" dy="11.969999999999999" x="81.26626071884692" y="286"><tspan x="81.26626071884692" dx="0" text-anchor="middle" style="fill: rgb(153, 153, 153); font-size: 14px; font-family: inherit; stroke: transparent; letter-spacing: normal; padding: 8px; stroke-width: 0;">2017</tspan></text></g><g role="presentation"><line x1="193.74299854041232" x2="193.74299854041232" y1="274" y2="34" role="presentation" shape-rendering="auto" vector-effect="non-scaling-stroke" style="stroke: transparent; fill: transparent; stroke-width: 1; stroke-linecap: round; stroke-linejoin: round; pointer-events: none;"></line><line x1="193.74299854041232" x2="193.74299854041232" y1="274" y2="278" role="presentation" shape-rendering="auto" vector-effect="non-scaling-stroke" style="stroke: transparent; fill: transparent; size: 4px; stroke-width: 1; stroke-linecap: round; stroke-linejoin: round;"></line><text dx="0" dy="11.969999999999999" x="193.74299854041232" y="286"><tspan x="193.74299854041232" dx="0" text-anchor="middle" style="fill: rgb(153, 153, 153); font-size: 14px; font-family: inherit; stroke: transparent; letter-spacing: normal; padding: 8px; stroke-width: 0;">2018</tspan></text></g><g role="presentation"><line x1="306.2197363619777" x2="306.2197363619777" y1="274" y2="34" role="presentation" shape-rendering="auto" vector-effect="non-scaling-stroke" style="stroke: transparent; fill: transparent; stroke-width: 1; stroke-linecap: round; stroke-linejoin: round; pointer-events: none;"></line><line x1="306.2197363619777" x2="306.2197363619777" y1="274" y2="278" role="presentation" shape-rendering="auto" vector-effect="non-scaling-stroke" style="stroke: transparent; fill: transparent; size: 4px; stroke-width: 1; stroke-linecap: round; stroke-linejoin: round;"></line><text dx="0" dy="11.969999999999999" x="306.2197363619777" y="286"><tspan x="306.2197363619777" dx="0" text-anchor="middle" style="fill: rgb(153, 153, 153); font-size: 14px; font-family: inherit; stroke: transparent; letter-spacing: normal; padding: 8px; stroke-width: 0;">2019</tspan></text></g><g role="presentation"><line x1="418.69647418354316" x2="418.69647418354316" y1="274" y2="34" role="presentation" shape-rendering="auto" vector-effect="non-scaling-stroke" style="stroke: transparent; fill: transparent; stroke-width: 1; stroke-linecap: round; stroke-linejoin: round; pointer-events: none;"></line><line x1="418.69647418354316" x2="418.69647418354316" y1="274" y2="278" role="presentation" shape-rendering="auto" vector-effect="non-scaling-stroke" style="stroke: transparent; fill: transparent; size: 4px; stroke-width: 1; stroke-linecap: round; stroke-linejoin: round;"></line><text dx="0" dy="11.969999999999999" x="418.69647418354316" y="286"><tspan x="418.69647418354316" dx="0" text-anchor="middle" style="fill: rgb(153, 153, 153); font-size: 14px; font-family: inherit; stroke: transparent; letter-spacing: normal; padding: 8px; stroke-width: 0;">2020</tspan></text></g><g role="presentation"><line x1="531.4813674511951" x2="531.4813674511951" y1="274" y2="34" role="presentation" shape-rendering="auto" vector-effect="non-scaling-stroke" style="stroke: transparent; fill: transparent; stroke-width: 1; stroke-linecap: round; stroke-linejoin: round; pointer-events: none;"></line><line x1="531.4813674511951" x2="531.4813674511951" y1="274" y2="278" role="presentation" shape-rendering="auto" vector-effect="non-scaling-stroke" style="stroke: transparent; fill: transparent; size: 4px; stroke-width: 1; stroke-linecap: round; stroke-linejoin: round;"></line><text dx="0" dy="11.969999999999999" x="531.4813674511951" y="286"><tspan x="531.4813674511951" dx="0" text-anchor="middle" style="fill: rgb(153, 153, 153); font-size: 14px; font-family: inherit; stroke: transparent; letter-spacing: normal; padding: 8px; stroke-width: 0;">2021</tspan></text></g></g><g role="presentation"><line x1="578" x2="578" y1="34" y2="274" role="presentation" shape-rendering="auto" vector-effect="non-scaling-stroke" style="stroke: transparent; fill: transparent; stroke-width: 1; stroke-linejoin: round;"></line><g role="presentation"><line x1="578" x2="15" y1="259.88235294117646" y2="259.88235294117646" role="presentation" shape-rendering="auto" vector-effect="non-scaling-stroke" style="stroke: rgb(226, 226, 226); fill: transparent; stroke-width: 1; stroke-linecap: round; stroke-linejoin: round; pointer-events: none;"></line><line x1="578" x2="582" y1="259.88235294117646" y2="259.88235294117646" role="presentation" shape-rendering="auto" vector-effect="non-scaling-stroke" style="stroke: transparent; fill: transparent; size: 4px; stroke-width: 1; stroke-linecap: round; stroke-linejoin: round;"></line><text dx="0" dy="4.97" x="590" y="259.88235294117646"><tspan x="590" dx="0" text-anchor="start" style="fill: rgb(153, 153, 153); font-size: 14px; font-family: inherit; stroke: transparent; letter-spacing: normal; padding: 8px; stroke-width: 0;">$100K</tspan></text></g><g role="presentation"><line x1="578" x2="15" y1="189.2941176470588" y2="189.2941176470588" role="presentation" shape-rendering="auto" vector-effect="non-scaling-stroke" style="stroke: rgb(226, 226, 226); fill: transparent; stroke-width: 1; stroke-linecap: round; stroke-linejoin: round; pointer-events: none;"></line><line x1="578" x2="582" y1="189.2941176470588" y2="189.2941176470588" role="presentation" shape-rendering="auto" vector-effect="non-scaling-stroke" style="stroke: transparent; fill: transparent; size: 4px; stroke-width: 1; stroke-linecap: round; stroke-linejoin: round;"></line><text dx="0" dy="4.97" x="590" y="189.2941176470588"><tspan x="590" dx="0" text-anchor="start" style="fill: rgb(153, 153, 153); font-size: 14px; font-family: inherit; stroke: transparent; letter-spacing: normal; padding: 8px; stroke-width: 0;">$150K</tspan></text></g><g role="presentation"><line x1="578" x2="15" y1="118.70588235294116" y2="118.70588235294116" role="presentation" shape-rendering="auto" vector-effect="non-scaling-stroke" style="stroke: rgb(226, 226, 226); fill: transparent; stroke-width: 1; stroke-linecap: round; stroke-linejoin: round; pointer-events: none;"></line><line x1="578" x2="582" y1="118.70588235294116" y2="118.70588235294116" role="presentation" shape-rendering="auto" vector-effect="non-scaling-stroke" style="stroke: transparent; fill: transparent; size: 4px; stroke-width: 1; stroke-linecap: round; stroke-linejoin: round;"></line><text dx="0" dy="4.97" x="590" y="118.70588235294116"><tspan x="590" dx="0" text-anchor="start" style="fill: rgb(153, 153, 153); font-size: 14px; font-family: inherit; stroke: transparent; letter-spacing: normal; padding: 8px; stroke-width: 0;">$200K</tspan></text></g><g role="presentation"><line x1="578" x2="15" y1="48.117647058823536" y2="48.117647058823536" role="presentation" shape-rendering="auto" vector-effect="non-scaling-stroke" style="stroke: rgb(226, 226, 226); fill: transparent; stroke-width: 1; stroke-linecap: round; stroke-linejoin: round; pointer-events: none;"></line><line x1="578" x2="582" y1="48.117647058823536" y2="48.117647058823536" role="presentation" shape-rendering="auto" vector-effect="non-scaling-stroke" style="stroke: transparent; fill: transparent; size: 4px; stroke-width: 1; stroke-linecap: round; stroke-linejoin: round;"></line><text dx="0" dy="4.97" x="590" y="48.117647058823536"><tspan x="590" dx="0" text-anchor="start" style="fill: rgb(153, 153, 153); font-size: 14px; font-family: inherit; stroke: transparent; letter-spacing: normal; padding: 8px; stroke-width: 0;">$250K</tspan></text></g></g><g style="height: 100%; width: 100%; user-select: none;"><defs><clipPath id="victory-clip-5"><rect x="15" y="34" width="563" height="240"></rect></clipPath></defs><g clip-path="url(#victory-clip-5)"><path shape-rendering="auto" role="presentation" d="M15.30815544608648,182.23529411764707C18.389709906951285,179.76470588235296,21.471264367816094,177.29411764705884,24.5528188286809,177.29411764705884C27.73709177157453,177.29411764705884,30.921364714468165,252.8235294117647,34.1056376573618,252.8235294117647C37.28991060025543,252.8235294117647,40.47418354314906,182.23529411764707,43.658456486042695,182.23529411764707C46.7400109469075,182.23529411764707,49.821565407772304,228.8235294117647,52.90311986863711,228.8235294117647C56.08739281153075,228.8235294117647,59.271665754424376,201.36167088194503,62.45593869731801,199.1764705882353C65.54177309493402,197.05882352941177,68.62760749255003,196,71.71344189016602,196C74.89771483305965,196,78.0819877759533,262.70588235294116,81.26626071884692,262.70588235294116C84.45053366174056,262.70588235294116,87.63480660463419,261.05882352941177,90.81907954752783,257.7647058823529C93.69519704433499,254.78937381404174,96.57131454114213,207.66795978148997,99.44743203794928,203.41176470588235C102.62742504409171,198.70588235294116,105.80741805023415,196.35294117647058,108.98741105637657,196.35294117647058C112.06896551724138,196.35294117647058,115.15051997810617,219.71764705882353,118.23207443897098,219.71764705882353C121.41634738186463,219.71764705882353,124.60062032475825,186.321568627451,127.7848932676519,183.64705882352942C130.8664477285167,181.05882352941177,133.9480021893815,182.35294117647058,137.02955665024632,179.76470588235293C140.21382959313993,177.09019607843135,143.39810253603358,161.05882352941177,146.5823754789272,161.05882352941177C149.76664842182083,161.05882352941177,152.95092136471445,200.90305882352942,156.1351943076081,200.90305882352942C159.2167487684729,200.90305882352942,162.2983032293377,178,165.37985769020253,178C168.56413063309614,178,171.74840357598978,190.70588235294116,174.9326765188834,190.70588235294116C178.0185109164994,190.70588235294116,181.10434531411542,175.1764705882353,184.19017971173142,175.1764705882353C187.37445265462506,175.1764705882353,190.55872559751867,196.82352941176472,193.74299854041232,206.23529411764707C196.92727148330596,215.64705882352945,200.1115444261996,231.6470588235294,203.29581736909324,231.6470588235294C206.1719348659004,231.6470588235294,209.04805236270755,190.70588235294116,211.9241698595147,190.70588235294116C215.10416286565712,190.70588235294116,218.28415587179956,222.11764705882354,221.46414887794197,222.11764705882354C224.5457033388068,222.11764705882354,227.62725779967158,206.4374280648272,230.7088122605364,199.88235294117646C233.89308520343002,193.10877531340407,237.07735814632366,187.30017357762776,240.26163108921727,182.30588235294118C243.3431855500821,177.47269729679286,246.4247400109469,170.23529411764707,249.5062944718117,170.23529411764707C252.69056741470536,170.23529411764707,255.874840357599,172.3529411764706,259.05911330049264,172.3529411764706C262.2433862433863,172.3529411764706,265.42765918627987,163.88235294117646,268.6119321291735,163.88235294117646C271.69348659003833,163.88235294117646,274.7750410509031,184.35294117647058,277.8565955117679,184.35294117647058C281.04086845466156,184.35294117647058,284.22514139755515,179.4823529411765,287.4094143404488,179.4823529411765C290.4952487380648,179.4823529411765,293.58108313568084,211.88235294117646,296.66691753329684,211.88235294117646C299.8511904761905,211.88235294117646,303.03546341908407,205.52941176470588,306.2197363619777,205.52941176470588C309.40400930487135,205.52941176470588,312.588282247765,252.8235294117647,315.77255519065864,252.8235294117647C318.6486726874658,252.8235294117647,321.52479018427294,151.1764705882353,324.4009076810801,151.1764705882353C327.58090068722254,151.1764705882353,330.76089369336495,168.11764705882354,333.94088669950736,168.11764705882354C337.0224411603722,168.11764705882354,340.10399562123695,144.11764705882354,343.18555008210177,144.11764705882354C346.3698230249954,144.11764705882354,349.55409596788905,166,352.7383689107827,166C355.8199233716475,166,358.9014778325123,161.91551311164338,361.9830322933771,158.58823529411762C365.16730523627075,155.1500482160077,368.35157817916433,145.52941176470588,371.535851122058,145.52941176470588C374.7201240649516,145.52941176470588,377.90439700784526,148.35294117647058,381.0886699507389,154C384.1702244116037,159.4648956356736,387.2517788724685,187.1764705882353,390.3333333333333,187.1764705882353C393.51760627622696,187.1764705882353,396.7018792191206,178,399.88615216201424,178C402.97198655963024,178,406.0578209572463,180.49882352941177,409.1436553548623,180.49882352941177C412.32792829775593,180.49882352941177,415.5122012406495,163.23999999999998,418.69647418354316,156.8235294117647C421.8807471264368,150.4070588235294,425.0650200693304,148.02691007437454,428.24929301222403,142C431.22812899106003,136.36192283364957,434.206964969896,122.23529411764707,437.185800948732,122.23529411764707C440.3657939548744,122.23529411764707,443.54578696101686,142,446.72577996715927,142C449.8073344280241,142,452.8888888888889,111.64705882352939,455.97044334975374,111.64705882352939C459.1547162926473,111.64705882352939,462.33898923554096,161.76470588235293,465.52326217843455,161.76470588235293C468.6048166392994,161.76470588235293,471.6863711001642,136.8959467446418,474.767925561029,128.58823529411765C477.95219850392266,120.00360012857604,481.1364714468163,111.64705882352939,484.32074438970994,111.64705882352939C487.50501733260353,111.64705882352939,490.68929027549717,111.88235294117645,493.87356321839076,112.35294117647058C496.9551176792556,112.80834914611006,500.0366721401204,120.82352941176472,503.1182266009852,120.82352941176472C506.3024995438788,120.82352941176472,509.48677248677245,114.47058823529412,512.671045429666,114.47058823529412C515.7568798272821,114.47058823529412,518.8427142248981,196.35294117647058,521.9285486225142,196.35294117647058C525.1128215654078,196.35294117647058,528.2970945083015,97.52941176470586,531.4813674511951,97.52941176470586C534.6656403940887,97.52941176470586,537.8499133369824,120.55462184873949,541.0341862798759,125.76470588235293C543.9103037766831,130.47058823529412,546.7864212734902,129.5667107651739,549.6625387702974,132.8235294117647C552.8425317764398,136.42444645702804,556.0225247825822,146.94117647058823,559.2025177887247,146.94117647058823C562.2840722495895,146.94117647058823,565.3656267104543,108.99548947024616,568.4471811713191,90.47058823529414C571.6314541142127,71.32819029251056,574.8157270571064,52.66409514625528,578,34" style="fill: transparent; stroke: rgb(51, 51, 51); stroke-width: 2; opacity: 1;"></path></g></g></svg>