<svg xmlns="http://www.w3.org/2000/svg" width="640" height="324" role="img" aria-labelledby="victory-container-4-title victory-container-4-desc" viewBox="0 0 640 324" style="pointer-events: all; width: 100%; height: 100%;"><g role="presentation"><line x1="15" x2="578" y1="274" y2="274" role="presentation" shape-rendering="auto" vector-effect="non-scaling-stroke" style="stroke: rgb(226, 226, 226); fill: transparent; stroke-width: 1; stroke-linejoin: round;"></line><g role="presentation"><line x1="81.26626071884692" x2="81.26626071884692" y1="274" y2="34" role="presentation" shape-rendering="auto" vector-effect="non-scaling-stroke" style="stroke: transparent; fill: transparent; stroke-width: 1; stroke-linecap: round; stroke-linejoin: round; pointer-events: none;"></line><line x1="81.26626071884692" x2="81.26626071884692" y1="274" y2="278" role="presentation" shape-rendering="auto" vector-effect="non-scaling-stroke" style="stroke: transparent; fill: transparent; size: 4px; stroke-width: 1; stroke-linecap: round; stroke-linejoin: round;"></line><text dx="0" dy="11.969999999999999" x="81.26626071884692" y="286"><tspan x="81.26626071884692" dx="0" text-anchor="middle" style="fill: rgb(153, 153, 153); font-size: 14px; font-family: inherit; stroke: transparent; letter-spacing: normal; padding: 8px; stroke-width: 0;">2017</tspan></text></g><g role="presentation"><line x1="193.74299854041232" x2="193.74299854041232" y1="274" y2="34" role="presentation" shape-rendering="auto" vector-effect="non-scaling-stroke" style="stroke: transparent; fill: transparent; stroke-width: 1; stroke-linecap: round; stroke-linejoin: round; pointer-events: none;"></line><line x1="193.74299854041232" x2="193.74299854041232" y1="274" y2="278" role="presentation" shape-rendering="auto" vector-effect="non-scaling-stroke" style="stroke: transparent; fill: transparent; size: 4px; stroke-width: 1; stroke-linecap: round; stroke-linejoin: round;"></line><text dx="0" dy="11.969999999999999" x="193.74299854041232" y="286"><tspan x="193.74299854041232" dx="0" text-anchor="middle" style="fill: rgb(153, 153, 153); font-size: 14px; font-family: inherit; stroke: transparent; letter-spacing: normal; padding: 8px; stroke-width: 0;">2018</tspan></text></g><g role="presentation"><line x1="306.2197363619777" x2="306.2197363619777" y1="274" y2="34" role="presentation" shape-rendering="auto" vector-effect="non-scaling-stroke" style="stroke: transparent; fill: transparent; stroke-width: 1; stroke-linecap: round; stroke-linejoin: round; pointer-events: none;"></line><line x1="306.2197363619777" x2="306.2197363619777" y1="274" y2="278" role="presentation" shape-rendering="auto" vector-effect="non-scaling-stroke" style="stroke: transparent; fill: transparent; size: 4px; stroke-width: 1; stroke-linecap: round; stroke-linejoin: round;"></line><text dx="0" dy="11.969999999999999" x="306.2197363619777" y="286"><tspan x="306.2197363619777" dx="0" text-anchor="middle" style="fill: rgb(153, 153, 153); font-size: 14px; font-family: inherit; stroke: transparent; letter-spacing: normal; padding: 8px; stroke-width: 0;">2019</tspan></text></g><g role="presentation"><line x1="418.69647418354316" x2="418.69647418354316" y1="274" y2="34" role="presentation" shape-rendering="auto" vector-effect="non-scaling-stroke" style="stroke: transparent; fill: transparent; stroke-width: 1; stroke-linecap: round; stroke-linejoin: round; pointer-events: none;"></line><line x1="418.69647418354316" x2="418.69647418354316" y1="274" y2="278" role="presentation" shape-rendering="auto" vector-effect="non-scaling-stroke" style="stroke: transparent; fill: transparent; size: 4px; stroke-width: 1; stroke-linecap: round; stroke-linejoin: round;"></line><text dx="0" dy="11.969999999999999" x="418.69647418354316" y="286"><tspan x="418.69647418354316" dx="0" text-anchor="middle" style="fill: rgb(153, 153, 153); font-size: 14px; font-family: inherit; stroke: transparent; letter-spacing: normal; padding: 8px; stroke-width: 0;">2020</tspan></text></g><g role="presentation"><line x1="531.4813674511951" x2="531.4813674511951" y1="274" y2="34" role="presentation" shape-rendering="auto" vector-effect="non-scaling-stroke" style="stroke: transparent; fill: transparent; stroke-width: 1; stroke-linecap: round; stroke-linejoin: round; pointer-events: none;"></line><line x1="531.4813674511951" x2="531.4813674511951" y1="274" y2="278" role="presentation" shape-rendering="auto" vector-effect="non-scaling-stroke" style="stroke: transparent; fill: transparent; size: 4px; stroke-width: 1; stroke-linecap: round; stroke-linejoin: round;"></line><text dx="0" dy="11.969999999999999" x="531.4813674511951" y="286"><tspan x="531.4813674511951" dx="0" text-anchor="middle" style="fill: rgb(153, 153, 153); font-size: 14px; font-family: inherit; stroke: transparent; letter-spacing: normal; padding: 8px; stroke-width: 0;">2021</tspan></text></g></g><g role="presentation"><line x1="578" x2="578" y1="34" y2="274" role="presentation" shape-rendering="auto" vector-effect="non-scaling-stroke" style="stroke: transparent; fill: transparent; stroke-width: 1; stroke-linejoin: round;"></line><g role="presentation"><line x1="578" x2="15" y1="274" y2="274" role="presentation" shape-rendering="auto" vector-effect="non-scaling-stroke" style="stroke: rgb(226, 226, 226); fill: transparent; stroke-width: 1; stroke-linecap: round; stroke-linejoin: round; pointer-events: none;"></line><line x1="578" x2="582" y1="274" y2="274" role="presentation" shape-rendering="auto" vector-effect="non-scaling-stroke" style="stroke: transparent; fill: transparent; size: 4px; stroke-width: 1; stroke-linecap: round; stroke-linejoin: round;"></line><text dx="0" dy="4.97" x="590" y="274"><tspan x="590" dx="0" text-anchor="start" style="fill: rgb(153, 153, 153); font-size: 14px; font-family: inherit; stroke: transparent; letter-spacing: normal; padding: 8px; stroke-width: 0;">$200K</tspan></text></g><g role="presentation"><line x1="578" x2="15" y1="214" y2="214" role="presentation" shape-rendering="auto" vector-effect="non-scaling-stroke" style="stroke: rgb(226, 226, 226); fill: transparent; stroke-width: 1; stroke-linecap: round; stroke-linejoin: round; pointer-events: none;"></line><line x1="578" x2="582" y1="214" y2="214" role="presentation" shape-rendering="auto" vector-effect="non-scaling-stroke" style="stroke: transparent; fill: transparent; size: 4px; stroke-width: 1; stroke-linecap: round; stroke-linejoin: round;"></line><text dx="0" dy="4.97" x="590" y="214"><tspan x="590" dx="0" text-anchor="start" style="fill: rgb(153, 153, 153); font-size: 14px; font-family: inherit; stroke: transparent; letter-spacing: normal; padding: 8px; stroke-width: 0;">$250K</tspan></text></g><g role="presentation"><line x1="578" x2="15" y1="154" y2="154" role="presentation" shape-rendering="auto" vector-effect="non-scaling-stroke" style="stroke: rgb(226, 226, 226); fill: transparent; stroke-width: 1; stroke-linecap: round; stroke-linejoin: round; pointer-events: none;"></line><line x1="578" x2="582" y1="154" y2="154" role="presentation" shape-rendering="auto" vector-effect="non-scaling-stroke" style="stroke: transparent; fill: transparent; size: 4px; stroke-width: 1; stroke-linecap: round; stroke-linejoin: round;"></line><text dx="0" dy="4.97" x="590" y="154"><tspan x="590" dx="0" text-anchor="start" style="fill: rgb(153, 153, 153); font-size: 14px; font-family: inherit; stroke: transparent; letter-spacing: normal; padding: 8px; stroke-width: 0;">$300K</tspan></text></g><g role="presentation"><line x1="578" x2="15" y1="94" y2="94" role="presentation" shape-rendering="auto" vector-effect="non-scaling-stroke" style="stroke: rgb(226, 226, 226); fill: transparent; stroke-width: 1; stroke-linecap: round; stroke-linejoin: round; pointer-events: none;"></line><line x1="578" x2="582" y1="94" y2="94" role="presentation" shape-rendering="auto" vector-effect="non-scaling-stroke" style="stroke: transparent; fill: transparent; size: 4px; stroke-width: 1; stroke-linecap: round; stroke-linejoin: round;"></line><text dx="0" dy="4.97" x="590" y="94"><tspan x="590" dx="0" text-anchor="start" style="fill: rgb(153, 153, 153); font-size: 14px; font-family: inherit; stroke: transparent; letter-spacing: normal; padding: 8px; stroke-width: 0;">$350K</tspan></text></g><g role="presentation"><line x1="578" x2="15" y1="34" y2="34" role="presentation" shape-rendering="auto" vector-effect="non-scaling-stroke" style="stroke: rgb(226, 226, 226); fill: transparent; stroke-width: 1; stroke-linecap: round; stroke-linejoin: round; pointer-events: none;"></line><line x1="578" x2="582" y1="34" y2="34" role="presentation" shape-rendering="auto" vector-effect="non-scaling-stroke" style="stroke: transparent; fill: transparent; size: 4px; stroke-width: 1; stroke-linecap: round; stroke-linejoin: round;"></line><text dx="0" dy="4.97" x="590" y="34"><tspan x="590" dx="0" text-anchor="start" style="fill: rgb(153, 153, 153); font-size: 14px; font-family: inherit; stroke: transparent; letter-spacing: normal; padding: 8px; stroke-width: 0;">$400K</tspan></text></g></g><g style="height: 100%; width: 100%; user-select: none;"><defs><clipPath id="victory-clip-5"><rect x="15" y="34" width="563" height="240"></rect></clipPath></defs><g clip-path="url(#victory-clip-5)"><path shape-rendering="auto" role="presentation" d="M15.30815544608648,131.79999999999998C18.389709906951285,135.67773664727656,21.471264367816094,139.55547329455314,24.5528188286809,143.2C27.73709177157453,146.96601092896174,30.921364714468165,149.8,34.1056376573618,154C37.28991060025543,158.2,40.47418354314906,158.8,43.658456486042695,168.4C46.7400109469075,177.69032258064516,49.821565407772304,217,52.90311986863711,217C56.08739281153075,217,59.271665754424376,157.60000000000002,62.45593869731801,157.60000000000002C65.54177309493402,157.60000000000002,68.62760749255003,181,71.71344189016602,181C74.89771483305965,181,78.0819877759533,138.6,81.26626071884692,123.4C84.45053366174056,108.19999999999999,87.63480660463419,89.80000000000001,90.81907954752783,89.80000000000001C93.69519704433499,89.80000000000001,96.57131454114213,170.2,99.44743203794928,170.2C102.62742504409171,170.2,105.80741805023415,127.6,108.98741105637657,127.6C112.06896551724138,127.6,115.15051997810617,146.8,118.23207443897098,146.8C121.41634738186463,146.8,124.60062032475825,146.6,127.7848932676519,146.2C130.8664477285167,145.81290322580642,133.9480021893815,126.18709677419353,137.02955665024632,125.79999999999998C140.21382959313993,125.39999999999999,143.39810253603358,125.59999999999998,146.5823754789272,125.19999999999999C149.76664842182083,124.8,152.95092136471445,112,156.1351943076081,112C159.2167487684729,112,162.2983032293377,148.012,165.37985769020253,148.012C168.56413063309614,148.012,171.74840357598978,113.127600554785,174.9326765188834,109C178.0185109164994,105,181.10434531411542,103,184.19017971173142,103C187.37445265462506,103,190.55872559751867,147.18,193.74299854041232,160.18C196.92727148330596,173.18000000000004,200.1115444261996,181,203.29581736909324,181C206.1719348659004,181,209.04805236270755,168.1038655246375,211.9241698595147,159.25C215.10416286565712,149.46068142142016,218.28415587179956,124,221.46414887794197,124C224.5457033388068,124,227.62725779967158,142,230.7088122605364,142C233.89308520343002,142,237.07735814632366,136.66,240.26163108921727,136.66C243.3431855500821,136.66,246.4247400109469,148.91413008989954,249.5062944718117,152.8C252.69056741470536,156.81539890710383,255.874840357599,160.06,259.05911330049264,160.06C262.2433862433863,160.06,265.42765918627987,112.6,268.6119321291735,112.6C271.69348659003833,112.6,274.7750410509031,144.39999999999998,277.8565955117679,144.39999999999998C281.04086845466156,144.39999999999998,284.22514139755515,126.4,287.4094143404488,126.4C290.4952487380648,126.4,293.58108313568084,193,296.66691753329684,193C299.8511904761905,193,303.03546341908407,160.3,306.2197363619777,160.3C309.40400930487135,160.3,312.588282247765,211,315.77255519065864,211C318.6486726874658,211,321.52479018427294,139.4524,324.4009076810801,139.4524C327.58090068722254,139.4524,330.76089369336495,166.6,333.94088669950736,166.6C337.0224411603722,166.6,340.10399562123695,135.41935483870967,343.18555008210177,130C346.3698230249954,124.39999999999999,349.55409596788905,121.6,352.7383689107827,121.6C355.8199233716475,121.6,358.9014778325123,131.41948175568484,361.9830322933771,135.76000000000002C365.16730523627075,140.24520218579235,368.35157817916433,148,371.535851122058,148C374.7201240649516,148,377.90439700784526,136.72,381.0886699507389,136.72C384.1702244116037,136.72,387.2517788724685,157.23249074563725,390.3333333333333,166C393.51760627622696,175.05975956284155,396.7018792191206,190,399.88615216201424,190C402.97198655963024,190,406.0578209572463,147.4,409.1436553548623,147.4C412.32792829775593,147.4,415.5122012406495,174.4,418.69647418354316,174.4C421.8807471264368,174.4,425.0650200693304,151,428.24929301222403,151C431.22812899106003,151,434.206964969896,189.7,437.185800948732,189.7C440.3657939548744,189.7,443.54578696101686,174.10222222222222,446.72577996715927,170.8C449.8073344280241,167.6,452.8888888888889,169.20000000000002,455.97044334975374,166C459.1547162926473,162.69333333333338,462.33898923554096,153.68153005464478,465.52326217843455,148C468.6048166392994,142.50174510840822,471.6863711001642,136.851189846642,474.767925561029,132.4C477.95219850392266,127.80043715846996,481.1364714468163,121,484.32074438970994,121C487.50501733260353,121,490.68929027549717,136.1066666666667,493.87356321839076,139C496.9551176792556,141.79999999999998,500.0366721401204,143.2,503.1182266009852,143.2C506.3024995438788,143.2,509.48677248677245,141.4,512.671045429666,141.4C515.7568798272821,141.4,518.8427142248981,143.8,521.9285486225142,143.8C525.1128215654078,143.8,528.2970945083015,121.00059999999999,531.4813674511951,121.00059999999999C534.6656403940887,121.00059999999999,537.8499133369824,124,541.0341862798759,124C543.9103037766831,124,546.7864212734902,119.84787201156612,549.6625387702974,113.5C552.8425317764398,106.48144508244994,556.0225247825822,86.95333333333329,559.2025177887247,82C562.2840722495895,77.2,565.3656267104543,76.7811739820201,568.4471811713191,74.80000000000001C571.6314541142127,72.75278688524592,574.8157270571064,71.37639344262297,578,70" style="fill: transparent; stroke: rgb(51, 51, 51); stroke-width: 2; opacity: 1;"></path></g></g></svg>