<svg xmlns="http://www.w3.org/2000/svg" width="640" height="324" role="img" aria-labelledby="victory-container-4-title victory-container-4-desc" viewBox="0 0 640 324" style="pointer-events: all; width: 100%; height: 100%;"><g role="presentation"><line x1="15" x2="578" y1="274" y2="274" role="presentation" shape-rendering="auto" vector-effect="non-scaling-stroke" style="stroke: rgb(226, 226, 226); fill: transparent; stroke-width: 1; stroke-linejoin: round;"></line><g role="presentation"><line x1="81.26626071884692" x2="81.26626071884692" y1="274" y2="34" role="presentation" shape-rendering="auto" vector-effect="non-scaling-stroke" style="stroke: transparent; fill: transparent; stroke-width: 1; stroke-linecap: round; stroke-linejoin: round; pointer-events: none;"></line><line x1="81.26626071884692" x2="81.26626071884692" y1="274" y2="278" role="presentation" shape-rendering="auto" vector-effect="non-scaling-stroke" style="stroke: transparent; fill: transparent; size: 4px; stroke-width: 1; stroke-linecap: round; stroke-linejoin: round;"></line><text dx="0" dy="11.969999999999999" x="81.26626071884692" y="286"><tspan x="81.26626071884692" dx="0" text-anchor="middle" style="fill: rgb(153, 153, 153); font-size: 14px; font-family: inherit; stroke: transparent; letter-spacing: normal; padding: 8px; stroke-width: 0;">2017</tspan></text></g><g role="presentation"><line x1="193.74299854041232" x2="193.74299854041232" y1="274" y2="34" role="presentation" shape-rendering="auto" vector-effect="non-scaling-stroke" style="stroke: transparent; fill: transparent; stroke-width: 1; stroke-linecap: round; stroke-linejoin: round; pointer-events: none;"></line><line x1="193.74299854041232" x2="193.74299854041232" y1="274" y2="278" role="presentation" shape-rendering="auto" vector-effect="non-scaling-stroke" style="stroke: transparent; fill: transparent; size: 4px; stroke-width: 1; stroke-linecap: round; stroke-linejoin: round;"></line><text dx="0" dy="11.969999999999999" x="193.74299854041232" y="286"><tspan x="193.74299854041232" dx="0" text-anchor="middle" style="fill: rgb(153, 153, 153); font-size: 14px; font-family: inherit; stroke: transparent; letter-spacing: normal; padding: 8px; stroke-width: 0;">2018</tspan></text></g><g role="presentation"><line x1="306.2197363619777" x2="306.2197363619777" y1="274" y2="34" role="presentation" shape-rendering="auto" vector-effect="non-scaling-stroke" style="stroke: transparent; fill: transparent; stroke-width: 1; stroke-linecap: round; stroke-linejoin: round; pointer-events: none;"></line><line x1="306.2197363619777" x2="306.2197363619777" y1="274" y2="278" role="presentation" shape-rendering="auto" vector-effect="non-scaling-stroke" style="stroke: transparent; fill: transparent; size: 4px; stroke-width: 1; stroke-linecap: round; stroke-linejoin: round;"></line><text dx="0" dy="11.969999999999999" x="306.2197363619777" y="286"><tspan x="306.2197363619777" dx="0" text-anchor="middle" style="fill: rgb(153, 153, 153); font-size: 14px; font-family: inherit; stroke: transparent; letter-spacing: normal; padding: 8px; stroke-width: 0;">2019</tspan></text></g><g role="presentation"><line x1="418.69647418354316" x2="418.69647418354316" y1="274" y2="34" role="presentation" shape-rendering="auto" vector-effect="non-scaling-stroke" style="stroke: transparent; fill: transparent; stroke-width: 1; stroke-linecap: round; stroke-linejoin: round; pointer-events: none;"></line><line x1="418.69647418354316" x2="418.69647418354316" y1="274" y2="278" role="presentation" shape-rendering="auto" vector-effect="non-scaling-stroke" style="stroke: transparent; fill: transparent; size: 4px; stroke-width: 1; stroke-linecap: round; stroke-linejoin: round;"></line><text dx="0" dy="11.969999999999999" x="418.69647418354316" y="286"><tspan x="418.69647418354316" dx="0" text-anchor="middle" style="fill: rgb(153, 153, 153); font-size: 14px; font-family: inherit; stroke: transparent; letter-spacing: normal; padding: 8px; stroke-width: 0;">2020</tspan></text></g><g role="presentation"><line x1="531.4813674511951" x2="531.4813674511951" y1="274" y2="34" role="presentation" shape-rendering="auto" vector-effect="non-scaling-stroke" style="stroke: transparent; fill: transparent; stroke-width: 1; stroke-linecap: round; stroke-linejoin: round; pointer-events: none;"></line><line x1="531.4813674511951" x2="531.4813674511951" y1="274" y2="278" role="presentation" shape-rendering="auto" vector-effect="non-scaling-stroke" style="stroke: transparent; fill: transparent; size: 4px; stroke-width: 1; stroke-linecap: round; stroke-linejoin: round;"></line><text dx="0" dy="11.969999999999999" x="531.4813674511951" y="286"><tspan x="531.4813674511951" dx="0" text-anchor="middle" style="fill: rgb(153, 153, 153); font-size: 14px; font-family: inherit; stroke: transparent; letter-spacing: normal; padding: 8px; stroke-width: 0;">2021</tspan></text></g></g><g role="presentation"><line x1="578" x2="578" y1="34" y2="274" role="presentation" shape-rendering="auto" vector-effect="non-scaling-stroke" style="stroke: transparent; fill: transparent; stroke-width: 1; stroke-linejoin: round;"></line><g role="presentation"><line x1="578" x2="15" y1="274" y2="274" role="presentation" shape-rendering="auto" vector-effect="non-scaling-stroke" style="stroke: rgb(226, 226, 226); fill: transparent; stroke-width: 1; stroke-linecap: round; stroke-linejoin: round; pointer-events: none;"></line><line x1="578" x2="582" y1="274" y2="274" role="presentation" shape-rendering="auto" vector-effect="non-scaling-stroke" style="stroke: transparent; fill: transparent; size: 4px; stroke-width: 1; stroke-linecap: round; stroke-linejoin: round;"></line><text dx="0" dy="4.97" x="590" y="274"><tspan x="590" dx="0" text-anchor="start" style="fill: rgb(153, 153, 153); font-size: 14px; font-family: inherit; stroke: transparent; letter-spacing: normal; padding: 8px; stroke-width: 0;">$100K</tspan></text></g><g role="presentation"><line x1="578" x2="15" y1="226" y2="226" role="presentation" shape-rendering="auto" vector-effect="non-scaling-stroke" style="stroke: rgb(226, 226, 226); fill: transparent; stroke-width: 1; stroke-linecap: round; stroke-linejoin: round; pointer-events: none;"></line><line x1="578" x2="582" y1="226" y2="226" role="presentation" shape-rendering="auto" vector-effect="non-scaling-stroke" style="stroke: transparent; fill: transparent; size: 4px; stroke-width: 1; stroke-linecap: round; stroke-linejoin: round;"></line><text dx="0" dy="4.97" x="590" y="226"><tspan x="590" dx="0" text-anchor="start" style="fill: rgb(153, 153, 153); font-size: 14px; font-family: inherit; stroke: transparent; letter-spacing: normal; padding: 8px; stroke-width: 0;">$120K</tspan></text></g><g role="presentation"><line x1="578" x2="15" y1="178" y2="178" role="presentation" shape-rendering="auto" vector-effect="non-scaling-stroke" style="stroke: rgb(226, 226, 226); fill: transparent; stroke-width: 1; stroke-linecap: round; stroke-linejoin: round; pointer-events: none;"></line><line x1="578" x2="582" y1="178" y2="178" role="presentation" shape-rendering="auto" vector-effect="non-scaling-stroke" style="stroke: transparent; fill: transparent; size: 4px; stroke-width: 1; stroke-linecap: round; stroke-linejoin: round;"></line><text dx="0" dy="4.97" x="590" y="178"><tspan x="590" dx="0" text-anchor="start" style="fill: rgb(153, 153, 153); font-size: 14px; font-family: inherit; stroke: transparent; letter-spacing: normal; padding: 8px; stroke-width: 0;">$140K</tspan></text></g><g role="presentation"><line x1="578" x2="15" y1="130" y2="130" role="presentation" shape-rendering="auto" vector-effect="non-scaling-stroke" style="stroke: rgb(226, 226, 226); fill: transparent; stroke-width: 1; stroke-linecap: round; stroke-linejoin: round; pointer-events: none;"></line><line x1="578" x2="582" y1="130" y2="130" role="presentation" shape-rendering="auto" vector-effect="non-scaling-stroke" style="stroke: transparent; fill: transparent; size: 4px; stroke-width: 1; stroke-linecap: round; stroke-linejoin: round;"></line><text dx="0" dy="4.97" x="590" y="130"><tspan x="590" dx="0" text-anchor="start" style="fill: rgb(153, 153, 153); font-size: 14px; font-family: inherit; stroke: transparent; letter-spacing: normal; padding: 8px; stroke-width: 0;">$160K</tspan></text></g><g role="presentation"><line x1="578" x2="15" y1="82" y2="82" role="presentation" shape-rendering="auto" vector-effect="non-scaling-stroke" style="stroke: rgb(226, 226, 226); fill: transparent; stroke-width: 1; stroke-linecap: round; stroke-linejoin: round; pointer-events: none;"></line><line x1="578" x2="582" y1="82" y2="82" role="presentation" shape-rendering="auto" vector-effect="non-scaling-stroke" style="stroke: transparent; fill: transparent; size: 4px; stroke-width: 1; stroke-linecap: round; stroke-linejoin: round;"></line><text dx="0" dy="4.97" x="590" y="82"><tspan x="590" dx="0" text-anchor="start" style="fill: rgb(153, 153, 153); font-size: 14px; font-family: inherit; stroke: transparent; letter-spacing: normal; padding: 8px; stroke-width: 0;">$180K</tspan></text></g><g role="presentation"><line x1="578" x2="15" y1="34" y2="34" role="presentation" shape-rendering="auto" vector-effect="non-scaling-stroke" style="stroke: rgb(226, 226, 226); fill: transparent; stroke-width: 1; stroke-linecap: round; stroke-linejoin: round; pointer-events: none;"></line><line x1="578" x2="582" y1="34" y2="34" role="presentation" shape-rendering="auto" vector-effect="non-scaling-stroke" style="stroke: transparent; fill: transparent; size: 4px; stroke-width: 1; stroke-linecap: round; stroke-linejoin: round;"></line><text dx="0" dy="4.97" x="590" y="34"><tspan x="590" dx="0" text-anchor="start" style="fill: rgb(153, 153, 153); font-size: 14px; font-family: inherit; stroke: transparent; letter-spacing: normal; padding: 8px; stroke-width: 0;">$200K</tspan></text></g></g><g style="height: 100%; width: 100%; user-select: none;"><defs><clipPath id="victory-clip-5"><rect x="15" y="34" width="563" height="240"></rect></clipPath></defs><g clip-path="url(#victory-clip-5)"><path shape-rendering="auto" role="presentation" d="M15.30815544608648,205.60000000000002C18.389709906951285,208.13664727657326,21.471264367816094,210.6732945531465,24.5528188286809,214C27.73709177157453,217.4375956284153,30.921364714468165,226,34.1056376573618,226C37.28991060025543,226,40.47418354314906,203.92000000000002,43.658456486042695,203.92000000000002C46.7400109469075,203.92000000000002,49.821565407772304,214,52.90311986863711,214C56.08739281153075,214,59.271665754424376,214,62.45593869731801,214C65.54177309493402,214,68.62760749255003,190,71.71344189016602,190C74.89771483305965,190,78.0819877759533,202,81.26626071884692,202C84.45053366174056,202,87.63480660463419,182.64794188861987,90.81907954752783,176.8C93.69519704433499,171.5179879715692,96.57131454114213,167.2,99.44743203794928,167.2C102.62742504409171,167.2,105.80741805023415,178,108.98741105637657,178C112.06896551724138,178,115.15051997810617,172,118.23207443897098,172C121.41634738186463,172,124.60062032475825,195.04,127.7848932676519,195.04C130.8664477285167,195.04,133.9480021893815,184,137.02955665024632,184C140.21382959313993,184,143.39810253603358,186.60000000000002,146.5823754789272,190C149.76664842182083,193.4,152.95092136471445,204.4,156.1351943076081,204.4C159.2167487684729,204.4,162.2983032293377,173.2,165.37985769020253,173.2C168.56413063309614,173.2,171.74840357598978,181.04527670612964,174.9326765188834,187.60000000000002C178.0185109164994,193.9520907189255,181.10434531411542,211.6,184.19017971173142,211.6C187.37445265462506,211.6,190.55872559751867,186.17079999999999,193.74299854041232,186.17079999999999C196.92727148330596,186.17079999999999,200.1115444261996,187.88178111380145,203.29581736909324,190C206.1719348659004,191.91322996172772,209.04805236270755,197.8,211.9241698595147,197.8C215.10416286565712,197.8,218.28415587179956,192.00976617680564,221.46414887794197,187.3C224.5457033388068,182.7360273925975,227.62725779967158,177.38016922263355,230.7088122605364,170.2C233.89308520343002,162.7804918032787,237.07735814632366,143.2,240.26163108921727,143.2C243.3431855500821,143.2,246.4247400109469,149.01025912215758,249.5062944718117,154C252.69056741470536,159.1560655737705,255.874840357599,173.92000000000002,259.05911330049264,173.92000000000002C262.2433862433863,173.92000000000002,265.42765918627987,168.4,268.6119321291735,168.4C271.69348659003833,168.4,274.7750410509031,190.60000000000002,277.8565955117679,190.60000000000002C281.04086845466156,190.60000000000002,284.22514139755515,148,287.4094143404488,148C290.4952487380648,148,293.58108313568084,162.51999999999998,296.66691753329684,162.51999999999998C299.8511904761905,162.51999999999998,303.03546341908407,152.51999999999998,306.2197363619777,148C309.40400930487135,143.48,312.588282247765,135.4,315.77255519065864,135.4C318.6486726874658,135.4,321.52479018427294,136.8,324.4009076810801,139.6C327.58090068722254,142.6958333333333,330.76089369336495,175,333.94088669950736,175C337.0224411603722,175,340.10399562123695,116.79999999999998,343.18555008210177,116.79999999999998C346.3698230249954,116.79999999999998,349.55409596788905,166,352.7383689107827,166C355.8199233716475,166,358.9014778325123,131.20000000000002,361.9830322933771,131.20000000000002C365.16730523627075,131.20000000000002,368.35157817916433,142.23999999999998,371.535851122058,142.23999999999998C374.7201240649516,142.23999999999998,377.90439700784526,103.60000000000002,381.0886699507389,103.60000000000002C384.1702244116037,103.60000000000002,387.2517788724685,115.35928080380755,390.3333333333333,122.80000000000001C393.51760627622696,130.48874316939893,396.7018792191206,149.2,399.88615216201424,149.2C402.97198655963024,149.2,406.0578209572463,127.68341388674816,409.1436553548623,120.52000000000001C412.32792829775593,113.12807221672597,415.5122012406495,106,418.69647418354316,106C421.8807471264368,106,425.0650200693304,121.6,428.24929301222403,121.6C431.22812899106003,121.6,434.206964969896,115.6,437.185800948732,115.6C440.3657939548744,115.6,443.54578696101686,116.39999999999999,446.72577996715927,118C449.8073344280241,119.55047106325708,452.8888888888889,129.28,455.97044334975374,129.28C459.1547162926473,129.28,462.33898923554096,111.49683060109288,465.52326217843455,106C468.6048166392994,100.68048651507132,471.6863711001642,96.4,474.767925561029,96.4C477.95219850392266,96.4,481.1364714468163,122.80000000000001,484.32074438970994,122.80000000000001C487.50501733260353,122.80000000000001,490.68929027549717,102.03519125683057,493.87356321839076,95.19999999999999C496.9551176792556,88.58529878371223,500.0366721401204,82.77419354838712,503.1182266009852,82C506.3024995438788,81.19999999999999,509.48677248677245,80.79999999999998,512.671045429666,80.79999999999998C515.7568798272821,80.79999999999998,518.8427142248981,122.80000000000001,521.9285486225142,122.80000000000001C525.1128215654078,122.80000000000001,528.2970945083015,82,531.4813674511951,82C534.6656403940887,82,537.8499133369824,83.19999999999999,541.0341862798759,83.19999999999999C543.9103037766831,83.19999999999999,546.7864212734902,76.12,549.6625387702974,76.12C552.8425317764398,76.12,556.0225247825822,101.20000000000002,559.2025177887247,101.20000000000002C562.2840722495895,101.20000000000002,565.3656267104543,36.400000000000006,568.4471811713191,36.400000000000006C571.6314541142127,36.400000000000006,574.8157270571064,55.61200000000001,578,74.82400000000001" style="fill: transparent; stroke: rgb(51, 51, 51); stroke-width: 2; opacity: 1;"></path></g></g></svg>