<svg xmlns="http://www.w3.org/2000/svg" width="640" height="324" role="img" aria-labelledby="victory-container-1-title victory-container-1-desc" viewBox="0 0 640 324" style="pointer-events: all; width: 100%; height: 100%;"><g role="presentation"><line x1="15" x2="578" y1="274" y2="274" role="presentation" shape-rendering="auto" vector-effect="non-scaling-stroke" style="stroke: rgb(226, 226, 226); fill: transparent; stroke-width: 1; stroke-linejoin: round;"></line><g role="presentation"><line x1="81.26626071884692" x2="81.26626071884692" y1="274" y2="34" role="presentation" shape-rendering="auto" vector-effect="non-scaling-stroke" style="stroke: transparent; fill: transparent; stroke-width: 1; stroke-linecap: round; stroke-linejoin: round; pointer-events: none;"></line><line x1="81.26626071884692" x2="81.26626071884692" y1="274" y2="278" role="presentation" shape-rendering="auto" vector-effect="non-scaling-stroke" style="stroke: transparent; fill: transparent; size: 4px; stroke-width: 1; stroke-linecap: round; stroke-linejoin: round;"></line><text dx="0" dy="11.969999999999999" x="81.26626071884692" y="286"><tspan x="81.26626071884692" dx="0" text-anchor="middle" style="fill: rgb(153, 153, 153); font-size: 14px; font-family: inherit; stroke: transparent; letter-spacing: normal; padding: 8px; stroke-width: 0;">2017</tspan></text></g><g role="presentation"><line x1="193.74299854041232" x2="193.74299854041232" y1="274" y2="34" role="presentation" shape-rendering="auto" vector-effect="non-scaling-stroke" style="stroke: transparent; fill: transparent; stroke-width: 1; stroke-linecap: round; stroke-linejoin: round; pointer-events: none;"></line><line x1="193.74299854041232" x2="193.74299854041232" y1="274" y2="278" role="presentation" shape-rendering="auto" vector-effect="non-scaling-stroke" style="stroke: transparent; fill: transparent; size: 4px; stroke-width: 1; stroke-linecap: round; stroke-linejoin: round;"></line><text dx="0" dy="11.969999999999999" x="193.74299854041232" y="286"><tspan x="193.74299854041232" dx="0" text-anchor="middle" style="fill: rgb(153, 153, 153); font-size: 14px; font-family: inherit; stroke: transparent; letter-spacing: normal; padding: 8px; stroke-width: 0;">2018</tspan></text></g><g role="presentation"><line x1="306.2197363619777" x2="306.2197363619777" y1="274" y2="34" role="presentation" shape-rendering="auto" vector-effect="non-scaling-stroke" style="stroke: transparent; fill: transparent; stroke-width: 1; stroke-linecap: round; stroke-linejoin: round; pointer-events: none;"></line><line x1="306.2197363619777" x2="306.2197363619777" y1="274" y2="278" role="presentation" shape-rendering="auto" vector-effect="non-scaling-stroke" style="stroke: transparent; fill: transparent; size: 4px; stroke-width: 1; stroke-linecap: round; stroke-linejoin: round;"></line><text dx="0" dy="11.969999999999999" x="306.2197363619777" y="286"><tspan x="306.2197363619777" dx="0" text-anchor="middle" style="fill: rgb(153, 153, 153); font-size: 14px; font-family: inherit; stroke: transparent; letter-spacing: normal; padding: 8px; stroke-width: 0;">2019</tspan></text></g><g role="presentation"><line x1="418.69647418354316" x2="418.69647418354316" y1="274" y2="34" role="presentation" shape-rendering="auto" vector-effect="non-scaling-stroke" style="stroke: transparent; fill: transparent; stroke-width: 1; stroke-linecap: round; stroke-linejoin: round; pointer-events: none;"></line><line x1="418.69647418354316" x2="418.69647418354316" y1="274" y2="278" role="presentation" shape-rendering="auto" vector-effect="non-scaling-stroke" style="stroke: transparent; fill: transparent; size: 4px; stroke-width: 1; stroke-linecap: round; stroke-linejoin: round;"></line><text dx="0" dy="11.969999999999999" x="418.69647418354316" y="286"><tspan x="418.69647418354316" dx="0" text-anchor="middle" style="fill: rgb(153, 153, 153); font-size: 14px; font-family: inherit; stroke: transparent; letter-spacing: normal; padding: 8px; stroke-width: 0;">2020</tspan></text></g><g role="presentation"><line x1="531.4813674511951" x2="531.4813674511951" y1="274" y2="34" role="presentation" shape-rendering="auto" vector-effect="non-scaling-stroke" style="stroke: transparent; fill: transparent; stroke-width: 1; stroke-linecap: round; stroke-linejoin: round; pointer-events: none;"></line><line x1="531.4813674511951" x2="531.4813674511951" y1="274" y2="278" role="presentation" shape-rendering="auto" vector-effect="non-scaling-stroke" style="stroke: transparent; fill: transparent; size: 4px; stroke-width: 1; stroke-linecap: round; stroke-linejoin: round;"></line><text dx="0" dy="11.969999999999999" x="531.4813674511951" y="286"><tspan x="531.4813674511951" dx="0" text-anchor="middle" style="fill: rgb(153, 153, 153); font-size: 14px; font-family: inherit; stroke: transparent; letter-spacing: normal; padding: 8px; stroke-width: 0;">2021</tspan></text></g></g><g role="presentation"><line x1="578" x2="578" y1="34" y2="274" role="presentation" shape-rendering="auto" vector-effect="non-scaling-stroke" style="stroke: transparent; fill: transparent; stroke-width: 1; stroke-linejoin: round;"></line><g role="presentation"><line x1="578" x2="15" y1="274" y2="274" role="presentation" shape-rendering="auto" vector-effect="non-scaling-stroke" style="stroke: rgb(226, 226, 226); fill: transparent; stroke-width: 1; stroke-linecap: round; stroke-linejoin: round; pointer-events: none;"></line><line x1="578" x2="582" y1="274" y2="274" role="presentation" shape-rendering="auto" vector-effect="non-scaling-stroke" style="stroke: transparent; fill: transparent; size: 4px; stroke-width: 1; stroke-linecap: round; stroke-linejoin: round;"></line><text dx="0" dy="4.97" x="590" y="274"><tspan x="590" dx="0" text-anchor="start" style="fill: rgb(153, 153, 153); font-size: 14px; font-family: inherit; stroke: transparent; letter-spacing: normal; padding: 8px; stroke-width: 0;">$100K</tspan></text></g><g role="presentation"><line x1="578" x2="15" y1="214" y2="214" role="presentation" shape-rendering="auto" vector-effect="non-scaling-stroke" style="stroke: rgb(226, 226, 226); fill: transparent; stroke-width: 1; stroke-linecap: round; stroke-linejoin: round; pointer-events: none;"></line><line x1="578" x2="582" y1="214" y2="214" role="presentation" shape-rendering="auto" vector-effect="non-scaling-stroke" style="stroke: transparent; fill: transparent; size: 4px; stroke-width: 1; stroke-linecap: round; stroke-linejoin: round;"></line><text dx="0" dy="4.97" x="590" y="214"><tspan x="590" dx="0" text-anchor="start" style="fill: rgb(153, 153, 153); font-size: 14px; font-family: inherit; stroke: transparent; letter-spacing: normal; padding: 8px; stroke-width: 0;">$150K</tspan></text></g><g role="presentation"><line x1="578" x2="15" y1="154" y2="154" role="presentation" shape-rendering="auto" vector-effect="non-scaling-stroke" style="stroke: rgb(226, 226, 226); fill: transparent; stroke-width: 1; stroke-linecap: round; stroke-linejoin: round; pointer-events: none;"></line><line x1="578" x2="582" y1="154" y2="154" role="presentation" shape-rendering="auto" vector-effect="non-scaling-stroke" style="stroke: transparent; fill: transparent; size: 4px; stroke-width: 1; stroke-linecap: round; stroke-linejoin: round;"></line><text dx="0" dy="4.97" x="590" y="154"><tspan x="590" dx="0" text-anchor="start" style="fill: rgb(153, 153, 153); font-size: 14px; font-family: inherit; stroke: transparent; letter-spacing: normal; padding: 8px; stroke-width: 0;">$200K</tspan></text></g><g role="presentation"><line x1="578" x2="15" y1="94" y2="94" role="presentation" shape-rendering="auto" vector-effect="non-scaling-stroke" style="stroke: rgb(226, 226, 226); fill: transparent; stroke-width: 1; stroke-linecap: round; stroke-linejoin: round; pointer-events: none;"></line><line x1="578" x2="582" y1="94" y2="94" role="presentation" shape-rendering="auto" vector-effect="non-scaling-stroke" style="stroke: transparent; fill: transparent; size: 4px; stroke-width: 1; stroke-linecap: round; stroke-linejoin: round;"></line><text dx="0" dy="4.97" x="590" y="94"><tspan x="590" dx="0" text-anchor="start" style="fill: rgb(153, 153, 153); font-size: 14px; font-family: inherit; stroke: transparent; letter-spacing: normal; padding: 8px; stroke-width: 0;">$250K</tspan></text></g><g role="presentation"><line x1="578" x2="15" y1="34" y2="34" role="presentation" shape-rendering="auto" vector-effect="non-scaling-stroke" style="stroke: rgb(226, 226, 226); fill: transparent; stroke-width: 1; stroke-linecap: round; stroke-linejoin: round; pointer-events: none;"></line><line x1="578" x2="582" y1="34" y2="34" role="presentation" shape-rendering="auto" vector-effect="non-scaling-stroke" style="stroke: transparent; fill: transparent; size: 4px; stroke-width: 1; stroke-linecap: round; stroke-linejoin: round;"></line><text dx="0" dy="4.97" x="590" y="34"><tspan x="590" dx="0" text-anchor="start" style="fill: rgb(153, 153, 153); font-size: 14px; font-family: inherit; stroke: transparent; letter-spacing: normal; padding: 8px; stroke-width: 0;">$300K</tspan></text></g></g><g style="height: 100%; width: 100%; user-select: none;"><defs><clipPath id="victory-clip-2"><rect x="15" y="34" width="563" height="240"></rect></clipPath></defs><g clip-path="url(#victory-clip-2)"><path shape-rendering="auto" role="presentation" d="M24.5528188286809,190C27.73709177157453,189.1,30.921364714468165,188.2,34.1056376573618,184.6C37.28991060025543,181,40.47418354314906,143.935,43.658456486042695,143.935C46.7400109469075,143.935,49.821565407772304,181.2516129032258,52.90311986863711,184C56.08739281153075,186.84,59.271665754424376,188.26,62.45593869731801,188.26C65.54177309493402,188.26,68.62760749255003,187.04,71.71344189016602,184.6C74.89771483305965,182.08216366158112,78.0819877759533,172.85,81.26626071884692,167.2C84.45053366174056,161.54999999999998,87.63480660463419,150.7,90.81907954752783,150.7C93.69519704433499,150.7,96.57131454114213,161.60597643970343,99.44743203794928,167.2C102.62742504409171,173.3850587876493,105.80741805023415,186.1,108.98741105637657,186.1C112.06896551724138,186.1,115.15051997810617,179.15891062929663,118.23207443897098,167.2C121.41634738186463,154.84245901639343,124.60062032475825,112,127.7848932676519,112C130.8664477285167,112,133.9480021893815,194.83870967741933,137.02955665024632,196C140.21382959313993,197.20000000000002,143.39810253603358,197.8,146.5823754789272,197.8C149.76664842182083,197.8,152.95092136471445,154,156.1351943076081,154C159.2167487684729,154,162.2983032293377,193,165.37985769020253,193C168.56413063309614,193,171.74840357598978,169.00416088765596,174.9326765188834,162.39999999999998C178.0185109164994,156,181.10434531411542,152.8,184.19017971173142,152.8C187.37445265462506,152.8,190.55872559751867,165.15000000000003,193.74299854041232,172.60000000000002C196.92727148330596,180.05000000000004,200.1115444261996,197.5,203.29581736909324,197.5C206.1719348659004,197.5,209.04805236270755,112,211.9241698595147,112C215.10416286565712,112,218.28415587179956,160.81963888888893,221.46414887794197,166C224.5457033388068,171.02,227.62725779967158,173.53,230.7088122605364,173.53C233.89308520343002,173.53,237.07735814632366,171.9246994535519,240.26163108921727,169.6C243.3431855500821,167.35029085140138,246.4247400109469,160,249.5062944718117,160C252.69056741470536,160,255.874840357599,182.8,259.05911330049264,182.8C262.2433862433863,182.8,265.42765918627987,167.41366120218578,268.6119321291735,160C271.69348659003833,152.82548915917502,274.7750410509031,139,277.8565955117679,139C281.04086845466156,139,284.22514139755515,175.74479889043002,287.4094143404488,184C290.4952487380648,192,293.58108313568084,196,296.66691753329684,196C299.8511904761905,196,303.03546341908407,179.55,306.2197363619777,178.93C309.40400930487135,178.31,312.588282247765,178,315.77255519065864,178C318.6486726874658,178,321.52479018427294,182.8,324.4009076810801,182.8C327.58090068722254,182.8,330.76089369336495,160,333.94088669950736,160C337.0224411603722,160,340.10399562123695,178,343.18555008210177,178C346.3698230249954,178,349.55409596788905,169.6,352.7383689107827,169.6C355.8199233716475,169.6,358.9014778325123,173.2,361.9830322933771,173.2C365.16730523627075,173.2,368.35157817916433,167.2,371.535851122058,167.2C374.7201240649516,167.2,377.90439700784526,168.4,381.0886699507389,168.4C384.1702244116037,168.4,387.2517788724685,164.68505552617663,390.3333333333333,159.16000000000003C393.51760627622696,153.45077595628416,396.7018792191206,134.2,399.88615216201424,134.2C402.97198655963024,134.2,406.0578209572463,173.2,409.1436553548623,173.2C412.32792829775593,173.2,415.5122012406495,172.5,418.69647418354316,171.1C421.8807471264368,169.7,425.0650200693304,161.26,428.24929301222403,161.26C431.22812899106003,161.26,434.206964969896,178,437.185800948732,178C440.3657939548744,178,443.54578696101686,165.36362250322776,446.72577996715927,160C449.8073344280241,154.8024115715693,452.8888888888889,146.2,455.97044334975374,146.2C459.1547162926473,146.2,462.33898923554096,160.06,465.52326217843455,160.06C468.6048166392994,160.06,471.6863711001642,128.8,474.767925561029,128.8C477.95219850392266,128.8,481.1364714468163,148,484.32074438970994,148C487.50501733260353,148,490.68929027549717,125.19999999999999,493.87356321839076,125.19999999999999C496.9551176792556,125.19999999999999,500.0366721401204,132.26673717609728,503.1182266009852,136C506.3024995438788,139.85770491803277,509.48677248677245,148,512.671045429666,148C515.7568798272821,148,518.8427142248981,143,521.9285486225142,133C525.1128215654078,122.68099861303763,528.2970945083015,70,531.4813674511951,70C534.6656403940887,70,537.8499133369824,131.48285714285714,541.0341862798759,136C543.9103037766831,140.08,546.7864212734902,142.12,549.6625387702974,142.12C552.8425317764398,142.12,556.0225247825822,40.120000000000005,559.2025177887247,40.120000000000005C562.2840722495895,40.120000000000005,565.3656267104543,88.9,568.4471811713191,88.9C571.6314541142127,88.9,574.8157270571064,79.45,578,70" style="fill: transparent; stroke: rgb(51, 51, 51); stroke-width: 2; opacity: 1;"></path></g></g></svg>