<svg xmlns="http://www.w3.org/2000/svg" width="640" height="324" role="img" aria-labelledby="victory-container-4-title victory-container-4-desc" viewBox="0 0 640 324" style="pointer-events: all; width: 100%; height: 100%;"><g role="presentation"><line x1="15" x2="578" y1="274" y2="274" role="presentation" shape-rendering="auto" vector-effect="non-scaling-stroke" style="stroke: rgb(226, 226, 226); fill: transparent; stroke-width: 1; stroke-linejoin: round;"></line><g role="presentation"><line x1="81.26626071884692" x2="81.26626071884692" y1="274" y2="34" role="presentation" shape-rendering="auto" vector-effect="non-scaling-stroke" style="stroke: transparent; fill: transparent; stroke-width: 1; stroke-linecap: round; stroke-linejoin: round; pointer-events: none;"></line><line x1="81.26626071884692" x2="81.26626071884692" y1="274" y2="278" role="presentation" shape-rendering="auto" vector-effect="non-scaling-stroke" style="stroke: transparent; fill: transparent; size: 4px; stroke-width: 1; stroke-linecap: round; stroke-linejoin: round;"></line><text dx="0" dy="11.969999999999999" x="81.26626071884692" y="286"><tspan x="81.26626071884692" dx="0" text-anchor="middle" style="fill: rgb(153, 153, 153); font-size: 14px; font-family: inherit; stroke: transparent; letter-spacing: normal; padding: 8px; stroke-width: 0;">2017</tspan></text></g><g role="presentation"><line x1="193.74299854041232" x2="193.74299854041232" y1="274" y2="34" role="presentation" shape-rendering="auto" vector-effect="non-scaling-stroke" style="stroke: transparent; fill: transparent; stroke-width: 1; stroke-linecap: round; stroke-linejoin: round; pointer-events: none;"></line><line x1="193.74299854041232" x2="193.74299854041232" y1="274" y2="278" role="presentation" shape-rendering="auto" vector-effect="non-scaling-stroke" style="stroke: transparent; fill: transparent; size: 4px; stroke-width: 1; stroke-linecap: round; stroke-linejoin: round;"></line><text dx="0" dy="11.969999999999999" x="193.74299854041232" y="286"><tspan x="193.74299854041232" dx="0" text-anchor="middle" style="fill: rgb(153, 153, 153); font-size: 14px; font-family: inherit; stroke: transparent; letter-spacing: normal; padding: 8px; stroke-width: 0;">2018</tspan></text></g><g role="presentation"><line x1="306.2197363619777" x2="306.2197363619777" y1="274" y2="34" role="presentation" shape-rendering="auto" vector-effect="non-scaling-stroke" style="stroke: transparent; fill: transparent; stroke-width: 1; stroke-linecap: round; stroke-linejoin: round; pointer-events: none;"></line><line x1="306.2197363619777" x2="306.2197363619777" y1="274" y2="278" role="presentation" shape-rendering="auto" vector-effect="non-scaling-stroke" style="stroke: transparent; fill: transparent; size: 4px; stroke-width: 1; stroke-linecap: round; stroke-linejoin: round;"></line><text dx="0" dy="11.969999999999999" x="306.2197363619777" y="286"><tspan x="306.2197363619777" dx="0" text-anchor="middle" style="fill: rgb(153, 153, 153); font-size: 14px; font-family: inherit; stroke: transparent; letter-spacing: normal; padding: 8px; stroke-width: 0;">2019</tspan></text></g><g role="presentation"><line x1="418.69647418354316" x2="418.69647418354316" y1="274" y2="34" role="presentation" shape-rendering="auto" vector-effect="non-scaling-stroke" style="stroke: transparent; fill: transparent; stroke-width: 1; stroke-linecap: round; stroke-linejoin: round; pointer-events: none;"></line><line x1="418.69647418354316" x2="418.69647418354316" y1="274" y2="278" role="presentation" shape-rendering="auto" vector-effect="non-scaling-stroke" style="stroke: transparent; fill: transparent; size: 4px; stroke-width: 1; stroke-linecap: round; stroke-linejoin: round;"></line><text dx="0" dy="11.969999999999999" x="418.69647418354316" y="286"><tspan x="418.69647418354316" dx="0" text-anchor="middle" style="fill: rgb(153, 153, 153); font-size: 14px; font-family: inherit; stroke: transparent; letter-spacing: normal; padding: 8px; stroke-width: 0;">2020</tspan></text></g><g role="presentation"><line x1="531.4813674511951" x2="531.4813674511951" y1="274" y2="34" role="presentation" shape-rendering="auto" vector-effect="non-scaling-stroke" style="stroke: transparent; fill: transparent; stroke-width: 1; stroke-linecap: round; stroke-linejoin: round; pointer-events: none;"></line><line x1="531.4813674511951" x2="531.4813674511951" y1="274" y2="278" role="presentation" shape-rendering="auto" vector-effect="non-scaling-stroke" style="stroke: transparent; fill: transparent; size: 4px; stroke-width: 1; stroke-linecap: round; stroke-linejoin: round;"></line><text dx="0" dy="11.969999999999999" x="531.4813674511951" y="286"><tspan x="531.4813674511951" dx="0" text-anchor="middle" style="fill: rgb(153, 153, 153); font-size: 14px; font-family: inherit; stroke: transparent; letter-spacing: normal; padding: 8px; stroke-width: 0;">2021</tspan></text></g></g><g role="presentation"><line x1="578" x2="578" y1="34" y2="274" role="presentation" shape-rendering="auto" vector-effect="non-scaling-stroke" style="stroke: transparent; fill: transparent; stroke-width: 1; stroke-linejoin: round;"></line><g role="presentation"><line x1="578" x2="15" y1="274" y2="274" role="presentation" shape-rendering="auto" vector-effect="non-scaling-stroke" style="stroke: rgb(226, 226, 226); fill: transparent; stroke-width: 1; stroke-linecap: round; stroke-linejoin: round; pointer-events: none;"></line><line x1="578" x2="582" y1="274" y2="274" role="presentation" shape-rendering="auto" vector-effect="non-scaling-stroke" style="stroke: transparent; fill: transparent; size: 4px; stroke-width: 1; stroke-linecap: round; stroke-linejoin: round;"></line><text dx="0" dy="4.97" x="590" y="274"><tspan x="590" dx="0" text-anchor="start" style="fill: rgb(153, 153, 153); font-size: 14px; font-family: inherit; stroke: transparent; letter-spacing: normal; padding: 8px; stroke-width: 0;">$100K</tspan></text></g><g role="presentation"><line x1="578" x2="15" y1="214" y2="214" role="presentation" shape-rendering="auto" vector-effect="non-scaling-stroke" style="stroke: rgb(226, 226, 226); fill: transparent; stroke-width: 1; stroke-linecap: round; stroke-linejoin: round; pointer-events: none;"></line><line x1="578" x2="582" y1="214" y2="214" role="presentation" shape-rendering="auto" vector-effect="non-scaling-stroke" style="stroke: transparent; fill: transparent; size: 4px; stroke-width: 1; stroke-linecap: round; stroke-linejoin: round;"></line><text dx="0" dy="4.97" x="590" y="214"><tspan x="590" dx="0" text-anchor="start" style="fill: rgb(153, 153, 153); font-size: 14px; font-family: inherit; stroke: transparent; letter-spacing: normal; padding: 8px; stroke-width: 0;">$150K</tspan></text></g><g role="presentation"><line x1="578" x2="15" y1="154" y2="154" role="presentation" shape-rendering="auto" vector-effect="non-scaling-stroke" style="stroke: rgb(226, 226, 226); fill: transparent; stroke-width: 1; stroke-linecap: round; stroke-linejoin: round; pointer-events: none;"></line><line x1="578" x2="582" y1="154" y2="154" role="presentation" shape-rendering="auto" vector-effect="non-scaling-stroke" style="stroke: transparent; fill: transparent; size: 4px; stroke-width: 1; stroke-linecap: round; stroke-linejoin: round;"></line><text dx="0" dy="4.97" x="590" y="154"><tspan x="590" dx="0" text-anchor="start" style="fill: rgb(153, 153, 153); font-size: 14px; font-family: inherit; stroke: transparent; letter-spacing: normal; padding: 8px; stroke-width: 0;">$200K</tspan></text></g><g role="presentation"><line x1="578" x2="15" y1="94" y2="94" role="presentation" shape-rendering="auto" vector-effect="non-scaling-stroke" style="stroke: rgb(226, 226, 226); fill: transparent; stroke-width: 1; stroke-linecap: round; stroke-linejoin: round; pointer-events: none;"></line><line x1="578" x2="582" y1="94" y2="94" role="presentation" shape-rendering="auto" vector-effect="non-scaling-stroke" style="stroke: transparent; fill: transparent; size: 4px; stroke-width: 1; stroke-linecap: round; stroke-linejoin: round;"></line><text dx="0" dy="4.97" x="590" y="94"><tspan x="590" dx="0" text-anchor="start" style="fill: rgb(153, 153, 153); font-size: 14px; font-family: inherit; stroke: transparent; letter-spacing: normal; padding: 8px; stroke-width: 0;">$250K</tspan></text></g><g role="presentation"><line x1="578" x2="15" y1="34" y2="34" role="presentation" shape-rendering="auto" vector-effect="non-scaling-stroke" style="stroke: rgb(226, 226, 226); fill: transparent; stroke-width: 1; stroke-linecap: round; stroke-linejoin: round; pointer-events: none;"></line><line x1="578" x2="582" y1="34" y2="34" role="presentation" shape-rendering="auto" vector-effect="non-scaling-stroke" style="stroke: transparent; fill: transparent; size: 4px; stroke-width: 1; stroke-linecap: round; stroke-linejoin: round;"></line><text dx="0" dy="4.97" x="590" y="34"><tspan x="590" dx="0" text-anchor="start" style="fill: rgb(153, 153, 153); font-size: 14px; font-family: inherit; stroke: transparent; letter-spacing: normal; padding: 8px; stroke-width: 0;">$300K</tspan></text></g></g><g style="height: 100%; width: 100%; user-select: none;"><defs><clipPath id="victory-clip-5"><rect x="15" y="34" width="563" height="240"></rect></clipPath></defs><g clip-path="url(#victory-clip-5)"><path shape-rendering="auto" role="presentation" d="M15.30815544608648,197.2C18.389709906951285,192.49074563722897,21.471264367816094,187.78149127445795,24.5528188286809,184.6C27.73709177157453,181.31245901639343,30.921364714468165,178,34.1056376573618,178C37.28991060025543,178,40.47418354314906,192.63025333333331,43.658456486042695,195.39999999999998C46.7400109469075,198.08039999999997,49.821565407772304,197.9305142252776,52.90311986863711,199.42059999999998C56.08739281153075,200.96035530054644,59.271665754424376,204.52,62.45593869731801,204.52C65.54177309493402,204.52,68.62760749255003,187,71.71344189016602,187C74.89771483305965,187,78.0819877759533,196,81.26626071884692,196C84.45053366174056,196,87.63480660463419,190.81156174334143,90.81907954752783,188.8C93.69519704433499,186.98310552214326,96.57131454114213,184.3,99.44743203794928,184.3C102.62742504409171,184.3,105.80741805023415,190,108.98741105637657,190C112.06896551724138,190,115.15051997810617,186.4,118.23207443897098,186.4C121.41634738186463,186.4,124.60062032475825,188.8,127.7848932676519,188.8C130.8664477285167,188.8,133.9480021893815,186.59925965097833,137.02955665024632,183.4C140.21382959313993,180.09409836065575,143.39810253603358,169,146.5823754789272,169C149.76664842182083,169,152.95092136471445,172.45311693989072,156.1351943076081,175.012C159.2167487684729,177.48833844526706,162.2983032293377,178.008,165.37985769020253,184C168.56413063309614,190.1917333333333,171.74840357598978,214,174.9326765188834,214C178.0185109164994,214,181.10434531411542,210.4,184.19017971173142,210.4C187.37445265462506,210.4,190.55872559751867,217.3,193.74299854041232,217.3C196.92727148330596,217.3,200.1115444261996,208.70179176755448,203.29581736909324,202C206.1719348659004,195.94676872607982,209.04805236270755,179.92000000000002,211.9241698595147,179.92000000000002C215.10416286565712,179.92000000000002,218.28415587179956,197.05,221.46414887794197,197.05C224.5457033388068,197.05,227.62725779967158,187.73548387096776,230.7088122605364,185.8C233.89308520343002,183.8,237.07735814632366,184.76218579234973,240.26163108921727,182.8C243.3431855500821,180.90111052353254,246.4247400109469,174.4,249.5062944718117,174.4C252.69056741470536,174.4,255.874840357599,177.35999999999999,259.05911330049264,177.64C262.2433862433863,177.92,265.42765918627987,177.78,268.6119321291735,178.06C271.69348659003833,178.3309677419355,274.7750410509031,184,277.8565955117679,184C281.04086845466156,184,284.22514139755515,173.8,287.4094143404488,173.8C290.4952487380648,173.8,293.58108313568084,178.12,296.66691753329684,178.12C299.8511904761905,178.12,303.03546341908407,172,306.2197363619777,172C309.40400930487135,172,312.588282247765,180.39999999999998,315.77255519065864,180.39999999999998C318.6486726874658,180.39999999999998,321.52479018427294,165.39999999999998,324.4009076810801,165.39999999999998C327.58090068722254,165.39999999999998,330.76089369336495,176.8,333.94088669950736,176.8C337.0224411603722,176.8,340.10399562123695,164.79032258064518,343.18555008210177,163.9C346.3698230249954,162.98,349.55409596788905,162.51999999999998,352.7383689107827,162.51999999999998C355.8199233716475,162.51999999999998,358.9014778325123,169.6,361.9830322933771,169.6C365.16730523627075,169.6,368.35157817916433,168.1,371.535851122058,166C374.7201240649516,163.9,377.90439700784526,159.00054644808742,381.0886699507389,157C384.1702244116037,155.0639873083025,387.2517788724685,154,390.3333333333333,154C393.51760627622696,154,396.7018792191206,160.06,399.88615216201424,160.06C402.97198655963024,160.06,406.0578209572463,158.7533348196264,409.1436553548623,158.2C412.32792829775593,157.62901372288204,415.5122012406495,157.1,418.69647418354316,156.7C421.8807471264368,156.29999999999998,425.0650200693304,155.8,428.24929301222403,155.8C431.22812899106003,155.8,434.206964969896,166,437.185800948732,166C440.3657939548744,166,443.54578696101686,159.44228108149161,446.72577996715927,156.4C449.8073344280241,153.45189451053304,452.8888888888889,148,455.97044334975374,148C459.1547162926473,148,462.33898923554096,150.39999999999998,465.52326217843455,150.39999999999998C468.6048166392994,150.39999999999998,471.6863711001642,148.012,474.767925561029,148.012C477.95219850392266,148.012,481.1364714468163,149.2,484.32074438970994,149.2C487.50501733260353,149.2,490.68929027549717,148.03366120218578,493.87356321839076,146.8C496.9551176792556,145.60613432046537,500.0366721401204,143.95536753040722,503.1182266009852,142C506.3024995438788,139.97945355191257,509.48677248677245,135.62552011095698,512.671045429666,134.8C515.7568798272821,134.00000000000003,518.8427142248981,133.60000000000002,521.9285486225142,133.60000000000002C525.1128215654078,133.60000000000002,528.2970945083015,138.52,531.4813674511951,138.52C534.6656403940887,138.52,537.8499133369824,120.4,541.0341862798759,120.4C543.9103037766831,120.4,546.7864212734902,124,549.6625387702974,124C552.8425317764398,124,556.0225247825822,118.81966886914253,559.2025177887247,116.79999999999998C562.2840722495895,114.84285116314582,565.3656267104543,114.14574299312534,568.4471811713191,112C571.6314541142127,109.78273224043717,574.8157270571064,106.69136612021859,578,103.60000000000002" style="fill: transparent; stroke: rgb(51, 51, 51); stroke-width: 2; opacity: 1;"></path></g></g></svg>