<svg xmlns="http://www.w3.org/2000/svg" width="640" height="324" role="img" aria-labelledby="victory-container-4-title victory-container-4-desc" viewBox="0 0 640 324" style="pointer-events: all; width: 100%; height: 100%;"><g role="presentation"><line x1="15" x2="578" y1="274" y2="274" role="presentation" shape-rendering="auto" vector-effect="non-scaling-stroke" style="stroke: rgb(226, 226, 226); fill: transparent; stroke-width: 1; stroke-linejoin: round;"></line><g role="presentation"><line x1="81.26626071884692" x2="81.26626071884692" y1="274" y2="34" role="presentation" shape-rendering="auto" vector-effect="non-scaling-stroke" style="stroke: transparent; fill: transparent; stroke-width: 1; stroke-linecap: round; stroke-linejoin: round; pointer-events: none;"></line><line x1="81.26626071884692" x2="81.26626071884692" y1="274" y2="278" role="presentation" shape-rendering="auto" vector-effect="non-scaling-stroke" style="stroke: transparent; fill: transparent; size: 4px; stroke-width: 1; stroke-linecap: round; stroke-linejoin: round;"></line><text dx="0" dy="11.969999999999999" x="81.26626071884692" y="286"><tspan x="81.26626071884692" dx="0" text-anchor="middle" style="fill: rgb(153, 153, 153); font-size: 14px; font-family: inherit; stroke: transparent; letter-spacing: normal; padding: 8px; stroke-width: 0;">2017</tspan></text></g><g role="presentation"><line x1="193.74299854041232" x2="193.74299854041232" y1="274" y2="34" role="presentation" shape-rendering="auto" vector-effect="non-scaling-stroke" style="stroke: transparent; fill: transparent; stroke-width: 1; stroke-linecap: round; stroke-linejoin: round; pointer-events: none;"></line><line x1="193.74299854041232" x2="193.74299854041232" y1="274" y2="278" role="presentation" shape-rendering="auto" vector-effect="non-scaling-stroke" style="stroke: transparent; fill: transparent; size: 4px; stroke-width: 1; stroke-linecap: round; stroke-linejoin: round;"></line><text dx="0" dy="11.969999999999999" x="193.74299854041232" y="286"><tspan x="193.74299854041232" dx="0" text-anchor="middle" style="fill: rgb(153, 153, 153); font-size: 14px; font-family: inherit; stroke: transparent; letter-spacing: normal; padding: 8px; stroke-width: 0;">2018</tspan></text></g><g role="presentation"><line x1="306.2197363619777" x2="306.2197363619777" y1="274" y2="34" role="presentation" shape-rendering="auto" vector-effect="non-scaling-stroke" style="stroke: transparent; fill: transparent; stroke-width: 1; stroke-linecap: round; stroke-linejoin: round; pointer-events: none;"></line><line x1="306.2197363619777" x2="306.2197363619777" y1="274" y2="278" role="presentation" shape-rendering="auto" vector-effect="non-scaling-stroke" style="stroke: transparent; fill: transparent; size: 4px; stroke-width: 1; stroke-linecap: round; stroke-linejoin: round;"></line><text dx="0" dy="11.969999999999999" x="306.2197363619777" y="286"><tspan x="306.2197363619777" dx="0" text-anchor="middle" style="fill: rgb(153, 153, 153); font-size: 14px; font-family: inherit; stroke: transparent; letter-spacing: normal; padding: 8px; stroke-width: 0;">2019</tspan></text></g><g role="presentation"><line x1="418.69647418354316" x2="418.69647418354316" y1="274" y2="34" role="presentation" shape-rendering="auto" vector-effect="non-scaling-stroke" style="stroke: transparent; fill: transparent; stroke-width: 1; stroke-linecap: round; stroke-linejoin: round; pointer-events: none;"></line><line x1="418.69647418354316" x2="418.69647418354316" y1="274" y2="278" role="presentation" shape-rendering="auto" vector-effect="non-scaling-stroke" style="stroke: transparent; fill: transparent; size: 4px; stroke-width: 1; stroke-linecap: round; stroke-linejoin: round;"></line><text dx="0" dy="11.969999999999999" x="418.69647418354316" y="286"><tspan x="418.69647418354316" dx="0" text-anchor="middle" style="fill: rgb(153, 153, 153); font-size: 14px; font-family: inherit; stroke: transparent; letter-spacing: normal; padding: 8px; stroke-width: 0;">2020</tspan></text></g><g role="presentation"><line x1="531.4813674511951" x2="531.4813674511951" y1="274" y2="34" role="presentation" shape-rendering="auto" vector-effect="non-scaling-stroke" style="stroke: transparent; fill: transparent; stroke-width: 1; stroke-linecap: round; stroke-linejoin: round; pointer-events: none;"></line><line x1="531.4813674511951" x2="531.4813674511951" y1="274" y2="278" role="presentation" shape-rendering="auto" vector-effect="non-scaling-stroke" style="stroke: transparent; fill: transparent; size: 4px; stroke-width: 1; stroke-linecap: round; stroke-linejoin: round;"></line><text dx="0" dy="11.969999999999999" x="531.4813674511951" y="286"><tspan x="531.4813674511951" dx="0" text-anchor="middle" style="fill: rgb(153, 153, 153); font-size: 14px; font-family: inherit; stroke: transparent; letter-spacing: normal; padding: 8px; stroke-width: 0;">2021</tspan></text></g></g><g role="presentation"><line x1="578" x2="578" y1="34" y2="274" role="presentation" shape-rendering="auto" vector-effect="non-scaling-stroke" style="stroke: transparent; fill: transparent; stroke-width: 1; stroke-linejoin: round;"></line><g role="presentation"><line x1="578" x2="15" y1="274" y2="274" role="presentation" shape-rendering="auto" vector-effect="non-scaling-stroke" style="stroke: rgb(226, 226, 226); fill: transparent; stroke-width: 1; stroke-linecap: round; stroke-linejoin: round; pointer-events: none;"></line><line x1="578" x2="582" y1="274" y2="274" role="presentation" shape-rendering="auto" vector-effect="non-scaling-stroke" style="stroke: transparent; fill: transparent; size: 4px; stroke-width: 1; stroke-linecap: round; stroke-linejoin: round;"></line><text dx="0" dy="4.97" x="590" y="274"><tspan x="590" dx="0" text-anchor="start" style="fill: rgb(153, 153, 153); font-size: 14px; font-family: inherit; stroke: transparent; letter-spacing: normal; padding: 8px; stroke-width: 0;">$100K</tspan></text></g><g role="presentation"><line x1="578" x2="15" y1="214" y2="214" role="presentation" shape-rendering="auto" vector-effect="non-scaling-stroke" style="stroke: rgb(226, 226, 226); fill: transparent; stroke-width: 1; stroke-linecap: round; stroke-linejoin: round; pointer-events: none;"></line><line x1="578" x2="582" y1="214" y2="214" role="presentation" shape-rendering="auto" vector-effect="non-scaling-stroke" style="stroke: transparent; fill: transparent; size: 4px; stroke-width: 1; stroke-linecap: round; stroke-linejoin: round;"></line><text dx="0" dy="4.97" x="590" y="214"><tspan x="590" dx="0" text-anchor="start" style="fill: rgb(153, 153, 153); font-size: 14px; font-family: inherit; stroke: transparent; letter-spacing: normal; padding: 8px; stroke-width: 0;">$150K</tspan></text></g><g role="presentation"><line x1="578" x2="15" y1="154" y2="154" role="presentation" shape-rendering="auto" vector-effect="non-scaling-stroke" style="stroke: rgb(226, 226, 226); fill: transparent; stroke-width: 1; stroke-linecap: round; stroke-linejoin: round; pointer-events: none;"></line><line x1="578" x2="582" y1="154" y2="154" role="presentation" shape-rendering="auto" vector-effect="non-scaling-stroke" style="stroke: transparent; fill: transparent; size: 4px; stroke-width: 1; stroke-linecap: round; stroke-linejoin: round;"></line><text dx="0" dy="4.97" x="590" y="154"><tspan x="590" dx="0" text-anchor="start" style="fill: rgb(153, 153, 153); font-size: 14px; font-family: inherit; stroke: transparent; letter-spacing: normal; padding: 8px; stroke-width: 0;">$200K</tspan></text></g><g role="presentation"><line x1="578" x2="15" y1="94" y2="94" role="presentation" shape-rendering="auto" vector-effect="non-scaling-stroke" style="stroke: rgb(226, 226, 226); fill: transparent; stroke-width: 1; stroke-linecap: round; stroke-linejoin: round; pointer-events: none;"></line><line x1="578" x2="582" y1="94" y2="94" role="presentation" shape-rendering="auto" vector-effect="non-scaling-stroke" style="stroke: transparent; fill: transparent; size: 4px; stroke-width: 1; stroke-linecap: round; stroke-linejoin: round;"></line><text dx="0" dy="4.97" x="590" y="94"><tspan x="590" dx="0" text-anchor="start" style="fill: rgb(153, 153, 153); font-size: 14px; font-family: inherit; stroke: transparent; letter-spacing: normal; padding: 8px; stroke-width: 0;">$250K</tspan></text></g><g role="presentation"><line x1="578" x2="15" y1="34" y2="34" role="presentation" shape-rendering="auto" vector-effect="non-scaling-stroke" style="stroke: rgb(226, 226, 226); fill: transparent; stroke-width: 1; stroke-linecap: round; stroke-linejoin: round; pointer-events: none;"></line><line x1="578" x2="582" y1="34" y2="34" role="presentation" shape-rendering="auto" vector-effect="non-scaling-stroke" style="stroke: transparent; fill: transparent; size: 4px; stroke-width: 1; stroke-linecap: round; stroke-linejoin: round;"></line><text dx="0" dy="4.97" x="590" y="34"><tspan x="590" dx="0" text-anchor="start" style="fill: rgb(153, 153, 153); font-size: 14px; font-family: inherit; stroke: transparent; letter-spacing: normal; padding: 8px; stroke-width: 0;">$300K</tspan></text></g></g><g style="height: 100%; width: 100%; user-select: none;"><defs><clipPath id="victory-clip-5"><rect x="15" y="34" width="563" height="240"></rect></clipPath></defs><g clip-path="url(#victory-clip-5)"><path shape-rendering="auto" role="presentation" d="M15.30815544608648,250C18.389709906951285,221.2,21.471264367816094,192.39999999999998,24.5528188286809,192.39999999999998C27.73709177157453,192.39999999999998,30.921364714468165,202.57999999999998,34.1056376573618,214C37.28991060025543,225.42000000000002,40.47418354314906,260.1346666666667,43.658456486042695,260.92C46.7400109469075,261.68,49.821565407772304,262.06,52.90311986863711,262.06C56.08739281153075,262.06,59.271665754424376,209.8,62.45593869731801,209.8C65.54177309493402,209.8,68.62760749255003,218.94356580057985,71.71344189016602,223C74.89771483305965,227.1858350129939,78.0819877759533,230.76000000000002,81.26626071884692,234.46C84.45053366174056,238.16,87.63480660463419,245.2,90.81907954752783,245.2C93.69519704433499,245.2,96.57131454114213,192.1,99.44743203794928,192.1C102.62742504409171,192.1,105.80741805023415,223.6,108.98741105637657,223.6C112.06896551724138,223.6,115.15051997810617,210.92258064516128,118.23207443897098,208.6C121.41634738186463,206.2,124.60062032475825,205,127.7848932676519,205C130.8664477285167,205,133.9480021893815,220,137.02955665024632,220C140.21382959313993,220,143.39810253603358,207.16000000000003,146.5823754789272,202.36C149.76664842182083,197.56,152.95092136471445,191.2,156.1351943076081,191.2C159.2167487684729,191.2,162.2983032293377,199.6,165.37985769020253,199.6C168.56413063309614,199.6,171.74840357598978,198.4,174.9326765188834,198.4C178.0185109164994,198.4,181.10434531411542,217.6,184.19017971173142,217.6C187.37445265462506,217.6,190.55872559751867,187,193.74299854041232,187C196.92727148330596,187,200.1115444261996,238.327,203.29581736909324,238.327C206.1719348659004,238.327,209.04805236270755,202.2275235531629,211.9241698595147,192.55C215.10416286565712,181.85,218.28415587179956,176.5,221.46414887794197,176.5C224.5457033388068,176.5,227.62725779967158,229,230.7088122605364,229C233.89308520343002,229,237.07735814632366,189.06666666666666,240.26163108921727,187C243.3431855500821,185,246.4247400109469,184,249.5062944718117,184C252.69056741470536,184,255.874840357599,200.26,259.05911330049264,200.26C262.2433862433863,200.26,265.42765918627987,198.84,268.6119321291735,196C271.69348659003833,193.2516129032258,274.7750410509031,175.07080909571656,277.8565955117679,166C281.04086845466156,156.6268306010929,284.22514139755515,140.857,287.4094143404488,140.857C290.4952487380648,140.857,293.58108313568084,178.55730282212187,296.66691753329684,196C299.8511904761905,213.9991216370891,303.03546341908407,247,306.2197363619777,247C309.40400930487135,247,312.588282247765,228.14467312348668,315.77255519065864,217C318.6486726874658,206.9338436303991,321.52479018427294,184,324.4009076810801,184C327.58090068722254,184,330.76089369336495,203.5,333.94088669950736,203.5C337.0224411603722,203.5,340.10399562123695,202,343.18555008210177,202C346.3698230249954,202,349.55409596788905,211,352.7383689107827,211C355.8199233716475,211,358.9014778325123,192.39999999999998,361.9830322933771,192.39999999999998C365.16730523627075,192.39999999999998,368.35157817916433,201,371.535851122058,202C374.7201240649516,203,377.90439700784526,203.5,381.0886699507389,203.5C384.1702244116037,203.5,387.2517788724685,182.662,390.3333333333333,182.662C393.51760627622696,182.662,396.7018792191206,195.39999999999998,399.88615216201424,195.39999999999998C402.97198655963024,195.39999999999998,406.0578209572463,188.8,409.1436553548623,188.8C412.32792829775593,188.8,415.5122012406495,208,418.69647418354316,208C421.8807471264368,208,425.0650200693304,178,428.24929301222403,178C431.22812899106003,178,434.206964969896,205.60000000000002,437.185800948732,205.60000000000002C440.3657939548744,205.60000000000002,443.54578696101686,184,446.72577996715927,184C449.8073344280241,184,452.8888888888889,187.60000000000002,455.97044334975374,187.60000000000002C459.1547162926473,187.60000000000002,462.33898923554096,160,465.52326217843455,160C468.6048166392994,160,471.6863711001642,204.4,474.767925561029,204.4C477.95219850392266,204.4,481.1364714468163,203.6,484.32074438970994,202C487.50501733260353,200.4,490.68929027549717,198.79999999999998,493.87356321839076,192.39999999999998C496.9551176792556,186.2064516129031,500.0366721401204,145.6,503.1182266009852,145.6C506.3024995438788,145.6,509.48677248677245,146.4,512.671045429666,148C515.7568798272821,149.55053763440864,518.8427142248981,182.8708602150537,521.9285486225142,187.60000000000002C525.1128215654078,192.48000000000002,528.2970945083015,194.92000000000002,531.4813674511951,194.92000000000002C534.6656403940887,194.92000000000002,537.8499133369824,170.1039709443099,541.0341862798759,162.39999999999998C543.9103037766831,155.44157463094584,546.7864212734902,149.2,549.6625387702974,149.2C552.8425317764398,149.2,556.0225247825822,166,559.2025177887247,166C562.2840722495895,166,565.3656267104543,125.5,568.4471811713191,125.5C571.6314541142127,125.5,574.8157270571064,133.75,578,142" style="fill: transparent; stroke: rgb(51, 51, 51); stroke-width: 2; opacity: 1;"></path></g></g></svg>