<svg xmlns="http://www.w3.org/2000/svg" width="640" height="324" role="img" aria-labelledby="victory-container-4-title victory-container-4-desc" viewBox="0 0 640 324" style="pointer-events: all; width: 100%; height: 100%;"><g role="presentation"><line x1="15" x2="578" y1="274" y2="274" role="presentation" shape-rendering="auto" vector-effect="non-scaling-stroke" style="stroke: rgb(226, 226, 226); fill: transparent; stroke-width: 1; stroke-linejoin: round;"></line><g role="presentation"><line x1="81.26626071884692" x2="81.26626071884692" y1="274" y2="34" role="presentation" shape-rendering="auto" vector-effect="non-scaling-stroke" style="stroke: transparent; fill: transparent; stroke-width: 1; stroke-linecap: round; stroke-linejoin: round; pointer-events: none;"></line><line x1="81.26626071884692" x2="81.26626071884692" y1="274" y2="278" role="presentation" shape-rendering="auto" vector-effect="non-scaling-stroke" style="stroke: transparent; fill: transparent; size: 4px; stroke-width: 1; stroke-linecap: round; stroke-linejoin: round;"></line><text dx="0" dy="11.969999999999999" x="81.26626071884692" y="286"><tspan x="81.26626071884692" dx="0" text-anchor="middle" style="fill: rgb(153, 153, 153); font-size: 14px; font-family: inherit; stroke: transparent; letter-spacing: normal; padding: 8px; stroke-width: 0;">2017</tspan></text></g><g role="presentation"><line x1="193.74299854041232" x2="193.74299854041232" y1="274" y2="34" role="presentation" shape-rendering="auto" vector-effect="non-scaling-stroke" style="stroke: transparent; fill: transparent; stroke-width: 1; stroke-linecap: round; stroke-linejoin: round; pointer-events: none;"></line><line x1="193.74299854041232" x2="193.74299854041232" y1="274" y2="278" role="presentation" shape-rendering="auto" vector-effect="non-scaling-stroke" style="stroke: transparent; fill: transparent; size: 4px; stroke-width: 1; stroke-linecap: round; stroke-linejoin: round;"></line><text dx="0" dy="11.969999999999999" x="193.74299854041232" y="286"><tspan x="193.74299854041232" dx="0" text-anchor="middle" style="fill: rgb(153, 153, 153); font-size: 14px; font-family: inherit; stroke: transparent; letter-spacing: normal; padding: 8px; stroke-width: 0;">2018</tspan></text></g><g role="presentation"><line x1="306.2197363619777" x2="306.2197363619777" y1="274" y2="34" role="presentation" shape-rendering="auto" vector-effect="non-scaling-stroke" style="stroke: transparent; fill: transparent; stroke-width: 1; stroke-linecap: round; stroke-linejoin: round; pointer-events: none;"></line><line x1="306.2197363619777" x2="306.2197363619777" y1="274" y2="278" role="presentation" shape-rendering="auto" vector-effect="non-scaling-stroke" style="stroke: transparent; fill: transparent; size: 4px; stroke-width: 1; stroke-linecap: round; stroke-linejoin: round;"></line><text dx="0" dy="11.969999999999999" x="306.2197363619777" y="286"><tspan x="306.2197363619777" dx="0" text-anchor="middle" style="fill: rgb(153, 153, 153); font-size: 14px; font-family: inherit; stroke: transparent; letter-spacing: normal; padding: 8px; stroke-width: 0;">2019</tspan></text></g><g role="presentation"><line x1="418.69647418354316" x2="418.69647418354316" y1="274" y2="34" role="presentation" shape-rendering="auto" vector-effect="non-scaling-stroke" style="stroke: transparent; fill: transparent; stroke-width: 1; stroke-linecap: round; stroke-linejoin: round; pointer-events: none;"></line><line x1="418.69647418354316" x2="418.69647418354316" y1="274" y2="278" role="presentation" shape-rendering="auto" vector-effect="non-scaling-stroke" style="stroke: transparent; fill: transparent; size: 4px; stroke-width: 1; stroke-linecap: round; stroke-linejoin: round;"></line><text dx="0" dy="11.969999999999999" x="418.69647418354316" y="286"><tspan x="418.69647418354316" dx="0" text-anchor="middle" style="fill: rgb(153, 153, 153); font-size: 14px; font-family: inherit; stroke: transparent; letter-spacing: normal; padding: 8px; stroke-width: 0;">2020</tspan></text></g><g role="presentation"><line x1="531.4813674511951" x2="531.4813674511951" y1="274" y2="34" role="presentation" shape-rendering="auto" vector-effect="non-scaling-stroke" style="stroke: transparent; fill: transparent; stroke-width: 1; stroke-linecap: round; stroke-linejoin: round; pointer-events: none;"></line><line x1="531.4813674511951" x2="531.4813674511951" y1="274" y2="278" role="presentation" shape-rendering="auto" vector-effect="non-scaling-stroke" style="stroke: transparent; fill: transparent; size: 4px; stroke-width: 1; stroke-linecap: round; stroke-linejoin: round;"></line><text dx="0" dy="11.969999999999999" x="531.4813674511951" y="286"><tspan x="531.4813674511951" dx="0" text-anchor="middle" style="fill: rgb(153, 153, 153); font-size: 14px; font-family: inherit; stroke: transparent; letter-spacing: normal; padding: 8px; stroke-width: 0;">2021</tspan></text></g></g><g role="presentation"><line x1="578" x2="578" y1="34" y2="274" role="presentation" shape-rendering="auto" vector-effect="non-scaling-stroke" style="stroke: transparent; fill: transparent; stroke-width: 1; stroke-linejoin: round;"></line><g role="presentation"><line x1="578" x2="15" y1="274" y2="274" role="presentation" shape-rendering="auto" vector-effect="non-scaling-stroke" style="stroke: rgb(226, 226, 226); fill: transparent; stroke-width: 1; stroke-linecap: round; stroke-linejoin: round; pointer-events: none;"></line><line x1="578" x2="582" y1="274" y2="274" role="presentation" shape-rendering="auto" vector-effect="non-scaling-stroke" style="stroke: transparent; fill: transparent; size: 4px; stroke-width: 1; stroke-linecap: round; stroke-linejoin: round;"></line><text dx="0" dy="4.97" x="590" y="274"><tspan x="590" dx="0" text-anchor="start" style="fill: rgb(153, 153, 153); font-size: 14px; font-family: inherit; stroke: transparent; letter-spacing: normal; padding: 8px; stroke-width: 0;">$100K</tspan></text></g><g role="presentation"><line x1="578" x2="15" y1="214" y2="214" role="presentation" shape-rendering="auto" vector-effect="non-scaling-stroke" style="stroke: rgb(226, 226, 226); fill: transparent; stroke-width: 1; stroke-linecap: round; stroke-linejoin: round; pointer-events: none;"></line><line x1="578" x2="582" y1="214" y2="214" role="presentation" shape-rendering="auto" vector-effect="non-scaling-stroke" style="stroke: transparent; fill: transparent; size: 4px; stroke-width: 1; stroke-linecap: round; stroke-linejoin: round;"></line><text dx="0" dy="4.97" x="590" y="214"><tspan x="590" dx="0" text-anchor="start" style="fill: rgb(153, 153, 153); font-size: 14px; font-family: inherit; stroke: transparent; letter-spacing: normal; padding: 8px; stroke-width: 0;">$150K</tspan></text></g><g role="presentation"><line x1="578" x2="15" y1="154" y2="154" role="presentation" shape-rendering="auto" vector-effect="non-scaling-stroke" style="stroke: rgb(226, 226, 226); fill: transparent; stroke-width: 1; stroke-linecap: round; stroke-linejoin: round; pointer-events: none;"></line><line x1="578" x2="582" y1="154" y2="154" role="presentation" shape-rendering="auto" vector-effect="non-scaling-stroke" style="stroke: transparent; fill: transparent; size: 4px; stroke-width: 1; stroke-linecap: round; stroke-linejoin: round;"></line><text dx="0" dy="4.97" x="590" y="154"><tspan x="590" dx="0" text-anchor="start" style="fill: rgb(153, 153, 153); font-size: 14px; font-family: inherit; stroke: transparent; letter-spacing: normal; padding: 8px; stroke-width: 0;">$200K</tspan></text></g><g role="presentation"><line x1="578" x2="15" y1="94" y2="94" role="presentation" shape-rendering="auto" vector-effect="non-scaling-stroke" style="stroke: rgb(226, 226, 226); fill: transparent; stroke-width: 1; stroke-linecap: round; stroke-linejoin: round; pointer-events: none;"></line><line x1="578" x2="582" y1="94" y2="94" role="presentation" shape-rendering="auto" vector-effect="non-scaling-stroke" style="stroke: transparent; fill: transparent; size: 4px; stroke-width: 1; stroke-linecap: round; stroke-linejoin: round;"></line><text dx="0" dy="4.97" x="590" y="94"><tspan x="590" dx="0" text-anchor="start" style="fill: rgb(153, 153, 153); font-size: 14px; font-family: inherit; stroke: transparent; letter-spacing: normal; padding: 8px; stroke-width: 0;">$250K</tspan></text></g><g role="presentation"><line x1="578" x2="15" y1="34" y2="34" role="presentation" shape-rendering="auto" vector-effect="non-scaling-stroke" style="stroke: rgb(226, 226, 226); fill: transparent; stroke-width: 1; stroke-linecap: round; stroke-linejoin: round; pointer-events: none;"></line><line x1="578" x2="582" y1="34" y2="34" role="presentation" shape-rendering="auto" vector-effect="non-scaling-stroke" style="stroke: transparent; fill: transparent; size: 4px; stroke-width: 1; stroke-linecap: round; stroke-linejoin: round;"></line><text dx="0" dy="4.97" x="590" y="34"><tspan x="590" dx="0" text-anchor="start" style="fill: rgb(153, 153, 153); font-size: 14px; font-family: inherit; stroke: transparent; letter-spacing: normal; padding: 8px; stroke-width: 0;">$300K</tspan></text></g></g><g style="height: 100%; width: 100%; user-select: none;"><defs><clipPath id="victory-clip-5"><rect x="15" y="34" width="563" height="240"></rect></clipPath></defs><g clip-path="url(#victory-clip-5)"><path shape-rendering="auto" role="presentation" d="M24.5528188286809,190.3C27.73709177157453,187.57000000000002,30.921364714468165,184.84,34.1056376573618,182.8C37.28991060025543,180.76000000000002,40.47418354314906,178.928,43.658456486042695,178.06C46.7400109469075,177.22,49.821565407772304,177.64000000000001,52.90311986863711,176.8C56.08739281153075,175.93200000000002,59.271665754424376,166,62.45593869731801,166C65.54177309493402,166,68.62760749255003,193.6,71.71344189016602,193.6C74.89771483305965,193.6,78.0819877759533,191.5,81.26626071884692,187.3C84.45053366174056,183.10000000000002,87.63480660463419,151.6,90.81907954752783,151.6C93.69519704433499,151.6,96.57131454114213,166.71128012212927,99.44743203794928,172C102.62742504409171,177.84749831734814,105.80741805023415,179.25379765702135,108.98741105637657,184C112.06896551724138,188.59928087071955,115.15051997810617,199.89999999999998,118.23207443897098,199.89999999999998C121.41634738186463,199.89999999999998,124.60062032475825,197.47956284153005,127.7848932676519,196C130.8664477285167,194.5681649920677,133.9480021893815,193.63130618720254,137.02955665024632,191.2C140.21382959313993,188.68765027322402,143.39810253603358,184.79999999999998,146.5823754789272,181C149.76664842182083,177.2,152.95092136471445,168.4,156.1351943076081,168.4C159.2167487684729,168.4,162.2983032293377,184,165.37985769020253,184C168.56413063309614,184,171.74840357598978,149.8,174.9326765188834,149.8C178.0185109164994,149.8,181.10434531411542,172.89999999999998,184.19017971173142,172.89999999999998C187.37445265462506,172.89999999999998,190.55872559751867,166.12,193.74299854041232,166.12C196.92727148330596,166.12,200.1115444261996,177.63871670702179,203.29581736909324,181.6C206.1719348659004,185.17793329688354,209.04805236270755,189.4,211.9241698595147,189.4C215.10416286565712,189.4,218.28415587179956,184.41277777777776,221.46414887794197,184C224.5457033388068,183.6,227.62725779967158,183.8,230.7088122605364,183.4C233.89308520343002,182.98666666666668,237.07735814632366,170.65422950819672,240.26163108921727,166.12C243.3431855500821,161.73203595980962,246.4247400109469,158.9032469592808,249.5062944718117,156.4C252.69056741470536,153.81331147540985,255.874840357599,151,259.05911330049264,151C262.2433862433863,151,265.42765918627987,169,268.6119321291735,169C271.69348659003833,169,274.7750410509031,142,277.8565955117679,142C281.04086845466156,142,284.22514139755515,174.697919556172,287.4094143404488,178C290.4952487380648,181.20000000000002,293.58108313568084,182.8,296.66691753329684,182.8C299.8511904761905,182.8,303.03546341908407,181.24,306.2197363619777,178.12C309.40400930487135,174.99999999999997,312.588282247765,163.48,315.77255519065864,163.48C318.6486726874658,163.48,321.52479018427294,164.32,324.4009076810801,166C327.58090068722254,167.8575,330.76089369336495,178,333.94088669950736,178C337.0224411603722,178,340.10399562123695,166.4983606557377,343.18555008210177,160.60000000000002C346.3698230249954,154.50502732240437,349.55409596788905,142,352.7383689107827,142C355.8199233716475,142,358.9014778325123,151.4667371760973,361.9830322933771,156.4C365.16730523627075,161.49770491803278,368.35157817916433,172.12,371.535851122058,172.12C374.7201240649516,172.12,377.90439700784526,159.65866666666668,381.0886699507389,157.84C384.1702244116037,156.07999999999998,387.2517788724685,156.96,390.3333333333333,155.2C393.51760627622696,153.38133333333332,396.7018792191206,150.45406446298986,399.88615216201424,142C402.97198655963024,133.80728430401115,406.0578209572463,106,409.1436553548623,106C412.32792829775593,106,415.5122012406495,124.26399999999998,418.69647418354316,133.26399999999998C421.8807471264368,142.26399999999998,425.0650200693304,160,428.24929301222403,160C431.22812899106003,160,434.206964969896,124,437.185800948732,124C440.3657939548744,124,443.54578696101686,151.99799119009646,446.72577996715927,160C449.8073344280241,167.75430194230228,452.8888888888889,172,455.97044334975374,172C459.1547162926473,172,462.33898923554096,106,465.52326217843455,106C468.6048166392994,106,471.6863711001642,109.9253305129561,474.767925561029,111.69999999999999C477.95219850392266,113.53382513661201,481.1364714468163,113.39999999999999,484.32074438970994,116.79999999999998C487.50501733260353,120.19999999999993,490.68929027549717,133,493.87356321839076,133C496.9551176792556,133,500.0366721401204,124,503.1182266009852,124C506.3024995438788,124,509.48677248677245,133.06,512.671045429666,133.06C515.7568798272821,133.06,518.8427142248981,127.68284356857133,521.9285486225142,125.19999999999999C525.1128215654078,122.63795337723016,528.2970945083015,122.78399999999999,531.4813674511951,117.952C534.6656403940887,113.12,537.8499133369824,78.21428571428571,541.0341862798759,76C543.9103037766831,74,546.7864212734902,73,549.6625387702974,73C552.8425317764398,73,556.0225247825822,98.64211495595049,559.2025177887247,106C562.2840722495895,113.13011740473173,565.3656267104543,117.13,568.4471811713191,117.13C571.6314541142127,117.13,574.8157270571064,84.565,578,52" style="fill: transparent; stroke: rgb(51, 51, 51); stroke-width: 2; opacity: 1;"></path></g></g></svg>