<svg xmlns="http://www.w3.org/2000/svg" width="640" height="324" role="img" aria-labelledby="victory-container-4-title victory-container-4-desc" viewBox="0 0 640 324" style="pointer-events: all; width: 100%; height: 100%;"><g role="presentation"><line x1="15" x2="578" y1="274" y2="274" role="presentation" shape-rendering="auto" vector-effect="non-scaling-stroke" style="stroke: rgb(226, 226, 226); fill: transparent; stroke-width: 1; stroke-linejoin: round;"></line><g role="presentation"><line x1="81.26626071884692" x2="81.26626071884692" y1="274" y2="34" role="presentation" shape-rendering="auto" vector-effect="non-scaling-stroke" style="stroke: transparent; fill: transparent; stroke-width: 1; stroke-linecap: round; stroke-linejoin: round; pointer-events: none;"></line><line x1="81.26626071884692" x2="81.26626071884692" y1="274" y2="278" role="presentation" shape-rendering="auto" vector-effect="non-scaling-stroke" style="stroke: transparent; fill: transparent; size: 4px; stroke-width: 1; stroke-linecap: round; stroke-linejoin: round;"></line><text dx="0" dy="11.969999999999999" x="81.26626071884692" y="286"><tspan x="81.26626071884692" dx="0" text-anchor="middle" style="fill: rgb(153, 153, 153); font-size: 14px; font-family: inherit; stroke: transparent; letter-spacing: normal; padding: 8px; stroke-width: 0;">2017</tspan></text></g><g role="presentation"><line x1="193.74299854041232" x2="193.74299854041232" y1="274" y2="34" role="presentation" shape-rendering="auto" vector-effect="non-scaling-stroke" style="stroke: transparent; fill: transparent; stroke-width: 1; stroke-linecap: round; stroke-linejoin: round; pointer-events: none;"></line><line x1="193.74299854041232" x2="193.74299854041232" y1="274" y2="278" role="presentation" shape-rendering="auto" vector-effect="non-scaling-stroke" style="stroke: transparent; fill: transparent; size: 4px; stroke-width: 1; stroke-linecap: round; stroke-linejoin: round;"></line><text dx="0" dy="11.969999999999999" x="193.74299854041232" y="286"><tspan x="193.74299854041232" dx="0" text-anchor="middle" style="fill: rgb(153, 153, 153); font-size: 14px; font-family: inherit; stroke: transparent; letter-spacing: normal; padding: 8px; stroke-width: 0;">2018</tspan></text></g><g role="presentation"><line x1="306.2197363619777" x2="306.2197363619777" y1="274" y2="34" role="presentation" shape-rendering="auto" vector-effect="non-scaling-stroke" style="stroke: transparent; fill: transparent; stroke-width: 1; stroke-linecap: round; stroke-linejoin: round; pointer-events: none;"></line><line x1="306.2197363619777" x2="306.2197363619777" y1="274" y2="278" role="presentation" shape-rendering="auto" vector-effect="non-scaling-stroke" style="stroke: transparent; fill: transparent; size: 4px; stroke-width: 1; stroke-linecap: round; stroke-linejoin: round;"></line><text dx="0" dy="11.969999999999999" x="306.2197363619777" y="286"><tspan x="306.2197363619777" dx="0" text-anchor="middle" style="fill: rgb(153, 153, 153); font-size: 14px; font-family: inherit; stroke: transparent; letter-spacing: normal; padding: 8px; stroke-width: 0;">2019</tspan></text></g><g role="presentation"><line x1="418.69647418354316" x2="418.69647418354316" y1="274" y2="34" role="presentation" shape-rendering="auto" vector-effect="non-scaling-stroke" style="stroke: transparent; fill: transparent; stroke-width: 1; stroke-linecap: round; stroke-linejoin: round; pointer-events: none;"></line><line x1="418.69647418354316" x2="418.69647418354316" y1="274" y2="278" role="presentation" shape-rendering="auto" vector-effect="non-scaling-stroke" style="stroke: transparent; fill: transparent; size: 4px; stroke-width: 1; stroke-linecap: round; stroke-linejoin: round;"></line><text dx="0" dy="11.969999999999999" x="418.69647418354316" y="286"><tspan x="418.69647418354316" dx="0" text-anchor="middle" style="fill: rgb(153, 153, 153); font-size: 14px; font-family: inherit; stroke: transparent; letter-spacing: normal; padding: 8px; stroke-width: 0;">2020</tspan></text></g><g role="presentation"><line x1="531.4813674511951" x2="531.4813674511951" y1="274" y2="34" role="presentation" shape-rendering="auto" vector-effect="non-scaling-stroke" style="stroke: transparent; fill: transparent; stroke-width: 1; stroke-linecap: round; stroke-linejoin: round; pointer-events: none;"></line><line x1="531.4813674511951" x2="531.4813674511951" y1="274" y2="278" role="presentation" shape-rendering="auto" vector-effect="non-scaling-stroke" style="stroke: transparent; fill: transparent; size: 4px; stroke-width: 1; stroke-linecap: round; stroke-linejoin: round;"></line><text dx="0" dy="11.969999999999999" x="531.4813674511951" y="286"><tspan x="531.4813674511951" dx="0" text-anchor="middle" style="fill: rgb(153, 153, 153); font-size: 14px; font-family: inherit; stroke: transparent; letter-spacing: normal; padding: 8px; stroke-width: 0;">2021</tspan></text></g></g><g role="presentation"><line x1="578" x2="578" y1="34" y2="274" role="presentation" shape-rendering="auto" vector-effect="non-scaling-stroke" style="stroke: transparent; fill: transparent; stroke-width: 1; stroke-linejoin: round;"></line><g role="presentation"><line x1="578" x2="15" y1="274" y2="274" role="presentation" shape-rendering="auto" vector-effect="non-scaling-stroke" style="stroke: rgb(226, 226, 226); fill: transparent; stroke-width: 1; stroke-linecap: round; stroke-linejoin: round; pointer-events: none;"></line><line x1="578" x2="582" y1="274" y2="274" role="presentation" shape-rendering="auto" vector-effect="non-scaling-stroke" style="stroke: transparent; fill: transparent; size: 4px; stroke-width: 1; stroke-linecap: round; stroke-linejoin: round;"></line><text dx="0" dy="4.97" x="590" y="274"><tspan x="590" dx="0" text-anchor="start" style="fill: rgb(153, 153, 153); font-size: 14px; font-family: inherit; stroke: transparent; letter-spacing: normal; padding: 8px; stroke-width: 0;">$100K</tspan></text></g><g role="presentation"><line x1="578" x2="15" y1="214" y2="214" role="presentation" shape-rendering="auto" vector-effect="non-scaling-stroke" style="stroke: rgb(226, 226, 226); fill: transparent; stroke-width: 1; stroke-linecap: round; stroke-linejoin: round; pointer-events: none;"></line><line x1="578" x2="582" y1="214" y2="214" role="presentation" shape-rendering="auto" vector-effect="non-scaling-stroke" style="stroke: transparent; fill: transparent; size: 4px; stroke-width: 1; stroke-linecap: round; stroke-linejoin: round;"></line><text dx="0" dy="4.97" x="590" y="214"><tspan x="590" dx="0" text-anchor="start" style="fill: rgb(153, 153, 153); font-size: 14px; font-family: inherit; stroke: transparent; letter-spacing: normal; padding: 8px; stroke-width: 0;">$150K</tspan></text></g><g role="presentation"><line x1="578" x2="15" y1="154" y2="154" role="presentation" shape-rendering="auto" vector-effect="non-scaling-stroke" style="stroke: rgb(226, 226, 226); fill: transparent; stroke-width: 1; stroke-linecap: round; stroke-linejoin: round; pointer-events: none;"></line><line x1="578" x2="582" y1="154" y2="154" role="presentation" shape-rendering="auto" vector-effect="non-scaling-stroke" style="stroke: transparent; fill: transparent; size: 4px; stroke-width: 1; stroke-linecap: round; stroke-linejoin: round;"></line><text dx="0" dy="4.97" x="590" y="154"><tspan x="590" dx="0" text-anchor="start" style="fill: rgb(153, 153, 153); font-size: 14px; font-family: inherit; stroke: transparent; letter-spacing: normal; padding: 8px; stroke-width: 0;">$200K</tspan></text></g><g role="presentation"><line x1="578" x2="15" y1="94" y2="94" role="presentation" shape-rendering="auto" vector-effect="non-scaling-stroke" style="stroke: rgb(226, 226, 226); fill: transparent; stroke-width: 1; stroke-linecap: round; stroke-linejoin: round; pointer-events: none;"></line><line x1="578" x2="582" y1="94" y2="94" role="presentation" shape-rendering="auto" vector-effect="non-scaling-stroke" style="stroke: transparent; fill: transparent; size: 4px; stroke-width: 1; stroke-linecap: round; stroke-linejoin: round;"></line><text dx="0" dy="4.97" x="590" y="94"><tspan x="590" dx="0" text-anchor="start" style="fill: rgb(153, 153, 153); font-size: 14px; font-family: inherit; stroke: transparent; letter-spacing: normal; padding: 8px; stroke-width: 0;">$250K</tspan></text></g><g role="presentation"><line x1="578" x2="15" y1="34" y2="34" role="presentation" shape-rendering="auto" vector-effect="non-scaling-stroke" style="stroke: rgb(226, 226, 226); fill: transparent; stroke-width: 1; stroke-linecap: round; stroke-linejoin: round; pointer-events: none;"></line><line x1="578" x2="582" y1="34" y2="34" role="presentation" shape-rendering="auto" vector-effect="non-scaling-stroke" style="stroke: transparent; fill: transparent; size: 4px; stroke-width: 1; stroke-linecap: round; stroke-linejoin: round;"></line><text dx="0" dy="4.97" x="590" y="34"><tspan x="590" dx="0" text-anchor="start" style="fill: rgb(153, 153, 153); font-size: 14px; font-family: inherit; stroke: transparent; letter-spacing: normal; padding: 8px; stroke-width: 0;">$300K</tspan></text></g></g><g style="height: 100%; width: 100%; user-select: none;"><defs><clipPath id="victory-clip-5"><rect x="15" y="34" width="563" height="240"></rect></clipPath></defs><g clip-path="url(#victory-clip-5)"><path shape-rendering="auto" role="presentation" d="M15.30815544608648,192.7C18.389709906951285,193.83252247488102,21.471264367816094,194.96504494976202,24.5528188286809,196C27.73709177157453,197.06945355191257,30.921364714468165,199,34.1056376573618,199C37.28991060025543,199,40.47418354314906,196.3287431693989,43.658456486042695,194.8C46.7400109469075,193.32057112638816,49.821565407772304,190,52.90311986863711,190C56.08739281153075,190,59.271665754424376,190.89832986987165,62.45593869731801,191.2C65.54177309493402,191.49234430621306,68.62760749255003,191.4,71.71344189016602,191.8C74.89771483305965,192.21276005547853,78.0819877759533,199.6,81.26626071884692,199.6C84.45053366174056,199.6,87.63480660463419,188.8,90.81907954752783,188.8C93.69519704433499,188.8,96.57131454114213,196.6,99.44743203794928,196.6C102.62742504409171,196.6,105.80741805023415,179.2,108.98741105637657,179.2C112.06896551724138,179.2,115.15051997810617,198.4,118.23207443897098,198.4C121.41634738186463,198.4,124.60062032475825,195.79923497267757,127.7848932676519,192.39999999999998C130.8664477285167,189.1104177683765,133.9480021893815,178.6,137.02955665024632,178.6C140.21382959313993,178.6,143.39810253603358,188.90000000000003,146.5823754789272,190.3C149.76664842182083,191.7,152.95092136471445,191.42557377049178,156.1351943076081,192.39999999999998C159.2167487684729,193.34299312533048,162.2983032293377,196,165.37985769020253,196C168.56413063309614,196,171.74840357598978,184.076560332871,174.9326765188834,181.6C178.0185109164994,179.2,181.10434531411542,178,184.19017971173142,178C187.37445265462506,178,190.55872559751867,190,193.74299854041232,190C196.92727148330596,190,200.1115444261996,171.4,203.29581736909324,171.4C206.1719348659004,171.4,209.04805236270755,188.8,211.9241698595147,188.8C215.10416286565712,188.8,218.28415587179956,170.8,221.46414887794197,170.8C224.5457033388068,170.8,227.62725779967158,171.32078265468007,230.7088122605364,172C233.89308520343002,172.70185792349727,237.07735814632366,173.87803278688526,240.26163108921727,175C243.3431855500821,176.0857747223691,246.4247400109469,178.6,249.5062944718117,178.6C252.69056741470536,178.6,255.874840357599,172,259.05911330049264,172C262.2433862433863,172,265.42765918627987,172.8,268.6119321291735,174.4C271.69348659003833,175.9483870967742,274.7750410509031,179.3332628239027,277.8565955117679,181.6C281.04086845466156,183.9422950819672,284.22514139755515,188.2,287.4094143404488,188.2C290.4952487380648,188.2,293.58108313568084,173.32,296.66691753329684,173.32C299.8511904761905,173.32,303.03546341908407,184,306.2197363619777,184C309.40400930487135,184,312.588282247765,179.2,315.77255519065864,179.2C318.6486726874658,179.2,321.52479018427294,179.206,324.4009076810801,179.206C327.58090068722254,179.206,330.76089369336495,164.2006,333.94088669950736,164.2006C337.0224411603722,164.2006,340.10399562123695,170.02580645161294,343.18555008210177,170.8C346.3698230249954,171.6,349.55409596788905,172,352.7383689107827,172C355.8199233716475,172,358.9014778325123,172,361.9830322933771,172C365.16730523627075,172,368.35157817916433,164.2,371.535851122058,164.2C374.7201240649516,164.2,377.90439700784526,167.8855737704918,381.0886699507389,172C384.1702244116037,175.98170280274988,387.2517788724685,188.2,390.3333333333333,188.2C393.51760627622696,188.2,396.7018792191206,162.00638002773928,399.88615216201424,161.8C402.97198655963024,161.6,406.0578209572463,161.5,409.1436553548623,161.5C412.32792829775593,161.5,415.5122012406495,174.40000000000003,418.69647418354316,176.8C421.8807471264368,179.2,425.0650200693304,180.39999999999998,428.24929301222403,180.39999999999998C431.22812899106003,180.39999999999998,434.206964969896,154.36,437.185800948732,154.36C440.3657939548744,154.36,443.54578696101686,157.7494412166781,446.72577996715927,161.8C449.8073344280241,165.72517136472652,452.8888888888889,178,455.97044334975374,178C459.1547162926473,178,462.33898923554096,149.8,465.52326217843455,149.8C468.6048166392994,149.8,471.6863711001642,152.24145954521416,474.767925561029,154C477.95219850392266,155.81715846994535,481.1364714468163,160.60000000000002,484.32074438970994,160.60000000000002C487.50501733260353,160.60000000000002,490.68929027549717,138.06666666666663,493.87356321839076,136C496.9551176792556,134,500.0366721401204,133,503.1182266009852,133C506.3024995438788,133,509.48677248677245,136,512.671045429666,136C515.7568798272821,136,518.8427142248981,134.8,521.9285486225142,134.8C525.1128215654078,134.8,528.2970945083015,140.8,531.4813674511951,143.8C534.6656403940887,146.8,537.8499133369824,152.8,541.0341862798759,152.8C543.9103037766831,152.8,546.7864212734902,112.96177658142663,549.6625387702974,112.6C552.8425317764398,112.2,556.0225247825822,112.39999999999999,559.2025177887247,112C562.2840722495895,111.61238223418573,565.3656267104543,106,568.4471811713191,106C571.6314541142127,106,574.8157270571064,108.40599999999999,578,110.81199999999998" style="fill: transparent; stroke: rgb(51, 51, 51); stroke-width: 2; opacity: 1;"></path></g></g></svg>