<svg xmlns="http://www.w3.org/2000/svg" width="640" height="324" role="img" aria-labelledby="victory-container-4-title victory-container-4-desc" viewBox="0 0 640 324" style="pointer-events: all; width: 100%; height: 100%;"><g role="presentation"><line x1="15" x2="578" y1="274" y2="274" role="presentation" shape-rendering="auto" vector-effect="non-scaling-stroke" style="stroke: rgb(226, 226, 226); fill: transparent; stroke-width: 1; stroke-linejoin: round;"></line><g role="presentation"><line x1="81.26626071884692" x2="81.26626071884692" y1="274" y2="34" role="presentation" shape-rendering="auto" vector-effect="non-scaling-stroke" style="stroke: transparent; fill: transparent; stroke-width: 1; stroke-linecap: round; stroke-linejoin: round; pointer-events: none;"></line><line x1="81.26626071884692" x2="81.26626071884692" y1="274" y2="278" role="presentation" shape-rendering="auto" vector-effect="non-scaling-stroke" style="stroke: transparent; fill: transparent; size: 4px; stroke-width: 1; stroke-linecap: round; stroke-linejoin: round;"></line><text dx="0" dy="11.969999999999999" x="81.26626071884692" y="286"><tspan x="81.26626071884692" dx="0" text-anchor="middle" style="fill: rgb(153, 153, 153); font-size: 14px; font-family: inherit; stroke: transparent; letter-spacing: normal; padding: 8px; stroke-width: 0;">2017</tspan></text></g><g role="presentation"><line x1="193.74299854041232" x2="193.74299854041232" y1="274" y2="34" role="presentation" shape-rendering="auto" vector-effect="non-scaling-stroke" style="stroke: transparent; fill: transparent; stroke-width: 1; stroke-linecap: round; stroke-linejoin: round; pointer-events: none;"></line><line x1="193.74299854041232" x2="193.74299854041232" y1="274" y2="278" role="presentation" shape-rendering="auto" vector-effect="non-scaling-stroke" style="stroke: transparent; fill: transparent; size: 4px; stroke-width: 1; stroke-linecap: round; stroke-linejoin: round;"></line><text dx="0" dy="11.969999999999999" x="193.74299854041232" y="286"><tspan x="193.74299854041232" dx="0" text-anchor="middle" style="fill: rgb(153, 153, 153); font-size: 14px; font-family: inherit; stroke: transparent; letter-spacing: normal; padding: 8px; stroke-width: 0;">2018</tspan></text></g><g role="presentation"><line x1="306.2197363619777" x2="306.2197363619777" y1="274" y2="34" role="presentation" shape-rendering="auto" vector-effect="non-scaling-stroke" style="stroke: transparent; fill: transparent; stroke-width: 1; stroke-linecap: round; stroke-linejoin: round; pointer-events: none;"></line><line x1="306.2197363619777" x2="306.2197363619777" y1="274" y2="278" role="presentation" shape-rendering="auto" vector-effect="non-scaling-stroke" style="stroke: transparent; fill: transparent; size: 4px; stroke-width: 1; stroke-linecap: round; stroke-linejoin: round;"></line><text dx="0" dy="11.969999999999999" x="306.2197363619777" y="286"><tspan x="306.2197363619777" dx="0" text-anchor="middle" style="fill: rgb(153, 153, 153); font-size: 14px; font-family: inherit; stroke: transparent; letter-spacing: normal; padding: 8px; stroke-width: 0;">2019</tspan></text></g><g role="presentation"><line x1="418.69647418354316" x2="418.69647418354316" y1="274" y2="34" role="presentation" shape-rendering="auto" vector-effect="non-scaling-stroke" style="stroke: transparent; fill: transparent; stroke-width: 1; stroke-linecap: round; stroke-linejoin: round; pointer-events: none;"></line><line x1="418.69647418354316" x2="418.69647418354316" y1="274" y2="278" role="presentation" shape-rendering="auto" vector-effect="non-scaling-stroke" style="stroke: transparent; fill: transparent; size: 4px; stroke-width: 1; stroke-linecap: round; stroke-linejoin: round;"></line><text dx="0" dy="11.969999999999999" x="418.69647418354316" y="286"><tspan x="418.69647418354316" dx="0" text-anchor="middle" style="fill: rgb(153, 153, 153); font-size: 14px; font-family: inherit; stroke: transparent; letter-spacing: normal; padding: 8px; stroke-width: 0;">2020</tspan></text></g><g role="presentation"><line x1="531.4813674511951" x2="531.4813674511951" y1="274" y2="34" role="presentation" shape-rendering="auto" vector-effect="non-scaling-stroke" style="stroke: transparent; fill: transparent; stroke-width: 1; stroke-linecap: round; stroke-linejoin: round; pointer-events: none;"></line><line x1="531.4813674511951" x2="531.4813674511951" y1="274" y2="278" role="presentation" shape-rendering="auto" vector-effect="non-scaling-stroke" style="stroke: transparent; fill: transparent; size: 4px; stroke-width: 1; stroke-linecap: round; stroke-linejoin: round;"></line><text dx="0" dy="11.969999999999999" x="531.4813674511951" y="286"><tspan x="531.4813674511951" dx="0" text-anchor="middle" style="fill: rgb(153, 153, 153); font-size: 14px; font-family: inherit; stroke: transparent; letter-spacing: normal; padding: 8px; stroke-width: 0;">2021</tspan></text></g></g><g role="presentation"><line x1="578" x2="578" y1="34" y2="274" role="presentation" shape-rendering="auto" vector-effect="non-scaling-stroke" style="stroke: transparent; fill: transparent; stroke-width: 1; stroke-linejoin: round;"></line><g role="presentation"><line x1="578" x2="15" y1="274" y2="274" role="presentation" shape-rendering="auto" vector-effect="non-scaling-stroke" style="stroke: rgb(226, 226, 226); fill: transparent; stroke-width: 1; stroke-linecap: round; stroke-linejoin: round; pointer-events: none;"></line><line x1="578" x2="582" y1="274" y2="274" role="presentation" shape-rendering="auto" vector-effect="non-scaling-stroke" style="stroke: transparent; fill: transparent; size: 4px; stroke-width: 1; stroke-linecap: round; stroke-linejoin: round;"></line><text dx="0" dy="4.97" x="590" y="274"><tspan x="590" dx="0" text-anchor="start" style="fill: rgb(153, 153, 153); font-size: 14px; font-family: inherit; stroke: transparent; letter-spacing: normal; padding: 8px; stroke-width: 0;">$200K</tspan></text></g><g role="presentation"><line x1="578" x2="15" y1="214" y2="214" role="presentation" shape-rendering="auto" vector-effect="non-scaling-stroke" style="stroke: rgb(226, 226, 226); fill: transparent; stroke-width: 1; stroke-linecap: round; stroke-linejoin: round; pointer-events: none;"></line><line x1="578" x2="582" y1="214" y2="214" role="presentation" shape-rendering="auto" vector-effect="non-scaling-stroke" style="stroke: transparent; fill: transparent; size: 4px; stroke-width: 1; stroke-linecap: round; stroke-linejoin: round;"></line><text dx="0" dy="4.97" x="590" y="214"><tspan x="590" dx="0" text-anchor="start" style="fill: rgb(153, 153, 153); font-size: 14px; font-family: inherit; stroke: transparent; letter-spacing: normal; padding: 8px; stroke-width: 0;">$250K</tspan></text></g><g role="presentation"><line x1="578" x2="15" y1="154" y2="154" role="presentation" shape-rendering="auto" vector-effect="non-scaling-stroke" style="stroke: rgb(226, 226, 226); fill: transparent; stroke-width: 1; stroke-linecap: round; stroke-linejoin: round; pointer-events: none;"></line><line x1="578" x2="582" y1="154" y2="154" role="presentation" shape-rendering="auto" vector-effect="non-scaling-stroke" style="stroke: transparent; fill: transparent; size: 4px; stroke-width: 1; stroke-linecap: round; stroke-linejoin: round;"></line><text dx="0" dy="4.97" x="590" y="154"><tspan x="590" dx="0" text-anchor="start" style="fill: rgb(153, 153, 153); font-size: 14px; font-family: inherit; stroke: transparent; letter-spacing: normal; padding: 8px; stroke-width: 0;">$300K</tspan></text></g><g role="presentation"><line x1="578" x2="15" y1="94" y2="94" role="presentation" shape-rendering="auto" vector-effect="non-scaling-stroke" style="stroke: rgb(226, 226, 226); fill: transparent; stroke-width: 1; stroke-linecap: round; stroke-linejoin: round; pointer-events: none;"></line><line x1="578" x2="582" y1="94" y2="94" role="presentation" shape-rendering="auto" vector-effect="non-scaling-stroke" style="stroke: transparent; fill: transparent; size: 4px; stroke-width: 1; stroke-linecap: round; stroke-linejoin: round;"></line><text dx="0" dy="4.97" x="590" y="94"><tspan x="590" dx="0" text-anchor="start" style="fill: rgb(153, 153, 153); font-size: 14px; font-family: inherit; stroke: transparent; letter-spacing: normal; padding: 8px; stroke-width: 0;">$350K</tspan></text></g><g role="presentation"><line x1="578" x2="15" y1="34" y2="34" role="presentation" shape-rendering="auto" vector-effect="non-scaling-stroke" style="stroke: rgb(226, 226, 226); fill: transparent; stroke-width: 1; stroke-linecap: round; stroke-linejoin: round; pointer-events: none;"></line><line x1="578" x2="582" y1="34" y2="34" role="presentation" shape-rendering="auto" vector-effect="non-scaling-stroke" style="stroke: transparent; fill: transparent; size: 4px; stroke-width: 1; stroke-linecap: round; stroke-linejoin: round;"></line><text dx="0" dy="4.97" x="590" y="34"><tspan x="590" dx="0" text-anchor="start" style="fill: rgb(153, 153, 153); font-size: 14px; font-family: inherit; stroke: transparent; letter-spacing: normal; padding: 8px; stroke-width: 0;">$400K</tspan></text></g></g><g style="height: 100%; width: 100%; user-select: none;"><defs><clipPath id="victory-clip-5"><rect x="15" y="34" width="563" height="240"></rect></clipPath></defs><g clip-path="url(#victory-clip-5)"><path shape-rendering="auto" role="presentation" d="M15.30815544608648,169C18.389709906951285,166,21.471264367816094,163,24.5528188286809,163C27.73709177157453,163,30.921364714468165,196,34.1056376573618,196C37.28991060025543,196,40.47418354314906,174.28,43.658456486042695,174.28C46.7400109469075,174.28,49.821565407772304,209.8,52.90311986863711,209.8C56.08739281153075,209.8,59.271665754424376,197.2146548451383,62.45593869731801,185.68C65.54177309493402,174.50192722668723,68.62760749255003,142.3,71.71344189016602,142.3C74.89771483305965,142.3,78.0819877759533,144.22,81.26626071884692,148.06C84.45053366174056,151.9,87.63480660463419,166.63,90.81907954752783,166.63C93.69519704433499,166.63,96.57131454114213,139,99.44743203794928,139C102.62742504409171,139,105.80741805023415,154,108.98741105637657,154C112.06896551724138,154,115.15051997810617,147.7,118.23207443897098,147.7C121.41634738186463,147.7,124.60062032475825,173.66,127.7848932676519,178C130.8664477285167,182.20000000000002,133.9480021893815,184.3,137.02955665024632,184.3C140.21382959313993,184.3,143.39810253603358,155.2,146.5823754789272,155.2C149.76664842182083,155.2,152.95092136471445,160,156.1351943076081,160C159.2167487684729,160,162.2983032293377,154,165.37985769020253,154C168.56413063309614,154,171.74840357598978,154.001,174.9326765188834,154.003C178.0185109164994,154.00493817204298,181.10434531411542,160.044247179713,184.19017971173142,172C187.37445265462506,184.33714299347227,190.55872559751867,228.04,193.74299854041232,228.04C196.92727148330596,228.04,200.1115444261996,207.24713317191285,203.29581736909324,190C206.1719348659004,174.42194423182067,209.04805236270755,132.088,211.9241698595147,132.088C215.10416286565712,132.088,218.28415587179956,160,221.46414887794197,160C224.5457033388068,160,227.62725779967158,113.87199999999999,230.7088122605364,113.87199999999999C233.89308520343002,113.87199999999999,237.07735814632366,113.87199999999999,240.26163108921727,113.87199999999999C243.3431855500821,113.87199999999999,246.4247400109469,134.37951560021153,249.5062944718117,142C252.69056741470536,149.8745005464481,255.874840357599,155.678,259.05911330049264,160C262.2433862433863,164.32199999999997,265.42765918627987,167.93200000000002,268.6119321291735,167.93200000000002C271.69348659003833,167.93200000000002,274.7750410509031,137.59959999999998,277.8565955117679,137.59959999999998C281.04086845466156,137.59959999999998,284.22514139755515,161.5666,287.4094143404488,161.5666C290.4952487380648,161.5666,293.58108313568084,149.0692,296.66691753329684,149.0692C299.8511904761905,149.0692,303.03546341908407,157.1782,306.2197363619777,161.2C309.40400930487135,165.2218,312.588282247765,168.5792493946731,315.77255519065864,173.2C318.6486726874658,177.37358119190813,321.52479018427294,187.24,324.4009076810801,187.24C327.58090068722254,187.24,330.76089369336495,161.75445629034706,333.94088669950736,154.006C337.0224411603722,146.49740171056538,340.10399562123695,143.0087741935484,343.18555008210177,140.86C346.3698230249954,138.6396,349.55409596788905,137.5294,352.7383689107827,137.5294C355.8199233716475,137.5294,358.9014778325123,137.67960000000002,361.9830322933771,137.98000000000002C365.16730523627075,138.29041333333336,368.35157817916433,163.6,371.535851122058,163.6C374.7201240649516,163.6,377.90439700784526,156.80812131147542,381.0886699507389,151.606C384.1702244116037,146.5716890534109,387.2517788724685,133.12,390.3333333333333,133.12C393.51760627622696,133.12,396.7018792191206,139.65979431298015,399.88615216201424,143.2C402.97198655963024,146.63076384454473,406.0578209572463,154,409.1436553548623,154C412.32792829775593,154,415.5122012406495,137.8,418.69647418354316,137.8C421.8807471264368,137.8,425.0650200693304,146.8,428.24929301222403,146.8C431.22812899106003,146.8,434.206964969896,121,437.185800948732,121C440.3657939548744,121,443.54578696101686,172,446.72577996715927,172C449.8073344280241,172,452.8888888888889,159.37097704918034,455.97044334975374,154.1344C459.1547162926473,148.7232703825137,462.33898923554096,140.203,465.52326217843455,140.203C468.6048166392994,140.203,471.6863711001642,142.0672,474.767925561029,142.0672C477.95219850392266,142.0672,481.1364714468163,142,484.32074438970994,142C487.50501733260353,142,490.68929027549717,142.04,493.87356321839076,142.12C496.9551176792556,142.19741935483873,500.0366721401204,148,503.1182266009852,148C506.3024995438788,148,509.48677248677245,147.82,512.671045429666,147.46C515.7568798272821,147.11112903225808,518.8427142248981,126.75880000000001,521.9285486225142,126.75880000000001C525.1128215654078,126.75880000000001,528.2970945083015,134.2,531.4813674511951,134.2C534.6656403940887,134.2,537.8499133369824,112,541.0341862798759,112C543.9103037766831,112,546.7864212734902,114.39999999999998,549.6625387702974,114.39999999999998C552.8425317764398,114.39999999999998,556.0225247825822,100,559.2025177887247,100C562.2840722495895,100,565.3656267104543,118.06,568.4471811713191,118.06C571.6314541142127,118.06,574.8157270571064,108.16000000000001,578,98.26000000000002" style="fill: transparent; stroke: rgb(51, 51, 51); stroke-width: 2; opacity: 1;"></path></g></g></svg>