<svg xmlns="http://www.w3.org/2000/svg" width="640" height="324" role="img" aria-labelledby="victory-container-4-title victory-container-4-desc" viewBox="0 0 640 324" style="pointer-events: all; width: 100%; height: 100%;"><g role="presentation"><line x1="15" x2="578" y1="274" y2="274" role="presentation" shape-rendering="auto" vector-effect="non-scaling-stroke" style="stroke: rgb(226, 226, 226); fill: transparent; stroke-width: 1; stroke-linejoin: round;"></line><g role="presentation"><line x1="81.26626071884692" x2="81.26626071884692" y1="274" y2="34" role="presentation" shape-rendering="auto" vector-effect="non-scaling-stroke" style="stroke: transparent; fill: transparent; stroke-width: 1; stroke-linecap: round; stroke-linejoin: round; pointer-events: none;"></line><line x1="81.26626071884692" x2="81.26626071884692" y1="274" y2="278" role="presentation" shape-rendering="auto" vector-effect="non-scaling-stroke" style="stroke: transparent; fill: transparent; size: 4px; stroke-width: 1; stroke-linecap: round; stroke-linejoin: round;"></line><text dx="0" dy="11.969999999999999" x="81.26626071884692" y="286"><tspan x="81.26626071884692" dx="0" text-anchor="middle" style="fill: rgb(153, 153, 153); font-size: 14px; font-family: inherit; stroke: transparent; letter-spacing: normal; padding: 8px; stroke-width: 0;">2017</tspan></text></g><g role="presentation"><line x1="193.74299854041232" x2="193.74299854041232" y1="274" y2="34" role="presentation" shape-rendering="auto" vector-effect="non-scaling-stroke" style="stroke: transparent; fill: transparent; stroke-width: 1; stroke-linecap: round; stroke-linejoin: round; pointer-events: none;"></line><line x1="193.74299854041232" x2="193.74299854041232" y1="274" y2="278" role="presentation" shape-rendering="auto" vector-effect="non-scaling-stroke" style="stroke: transparent; fill: transparent; size: 4px; stroke-width: 1; stroke-linecap: round; stroke-linejoin: round;"></line><text dx="0" dy="11.969999999999999" x="193.74299854041232" y="286"><tspan x="193.74299854041232" dx="0" text-anchor="middle" style="fill: rgb(153, 153, 153); font-size: 14px; font-family: inherit; stroke: transparent; letter-spacing: normal; padding: 8px; stroke-width: 0;">2018</tspan></text></g><g role="presentation"><line x1="306.2197363619777" x2="306.2197363619777" y1="274" y2="34" role="presentation" shape-rendering="auto" vector-effect="non-scaling-stroke" style="stroke: transparent; fill: transparent; stroke-width: 1; stroke-linecap: round; stroke-linejoin: round; pointer-events: none;"></line><line x1="306.2197363619777" x2="306.2197363619777" y1="274" y2="278" role="presentation" shape-rendering="auto" vector-effect="non-scaling-stroke" style="stroke: transparent; fill: transparent; size: 4px; stroke-width: 1; stroke-linecap: round; stroke-linejoin: round;"></line><text dx="0" dy="11.969999999999999" x="306.2197363619777" y="286"><tspan x="306.2197363619777" dx="0" text-anchor="middle" style="fill: rgb(153, 153, 153); font-size: 14px; font-family: inherit; stroke: transparent; letter-spacing: normal; padding: 8px; stroke-width: 0;">2019</tspan></text></g><g role="presentation"><line x1="418.69647418354316" x2="418.69647418354316" y1="274" y2="34" role="presentation" shape-rendering="auto" vector-effect="non-scaling-stroke" style="stroke: transparent; fill: transparent; stroke-width: 1; stroke-linecap: round; stroke-linejoin: round; pointer-events: none;"></line><line x1="418.69647418354316" x2="418.69647418354316" y1="274" y2="278" role="presentation" shape-rendering="auto" vector-effect="non-scaling-stroke" style="stroke: transparent; fill: transparent; size: 4px; stroke-width: 1; stroke-linecap: round; stroke-linejoin: round;"></line><text dx="0" dy="11.969999999999999" x="418.69647418354316" y="286"><tspan x="418.69647418354316" dx="0" text-anchor="middle" style="fill: rgb(153, 153, 153); font-size: 14px; font-family: inherit; stroke: transparent; letter-spacing: normal; padding: 8px; stroke-width: 0;">2020</tspan></text></g><g role="presentation"><line x1="531.4813674511951" x2="531.4813674511951" y1="274" y2="34" role="presentation" shape-rendering="auto" vector-effect="non-scaling-stroke" style="stroke: transparent; fill: transparent; stroke-width: 1; stroke-linecap: round; stroke-linejoin: round; pointer-events: none;"></line><line x1="531.4813674511951" x2="531.4813674511951" y1="274" y2="278" role="presentation" shape-rendering="auto" vector-effect="non-scaling-stroke" style="stroke: transparent; fill: transparent; size: 4px; stroke-width: 1; stroke-linecap: round; stroke-linejoin: round;"></line><text dx="0" dy="11.969999999999999" x="531.4813674511951" y="286"><tspan x="531.4813674511951" dx="0" text-anchor="middle" style="fill: rgb(153, 153, 153); font-size: 14px; font-family: inherit; stroke: transparent; letter-spacing: normal; padding: 8px; stroke-width: 0;">2021</tspan></text></g></g><g role="presentation"><line x1="578" x2="578" y1="34" y2="274" role="presentation" shape-rendering="auto" vector-effect="non-scaling-stroke" style="stroke: transparent; fill: transparent; stroke-width: 1; stroke-linejoin: round;"></line><g role="presentation"><line x1="578" x2="15" y1="231.6470588235294" y2="231.6470588235294" role="presentation" shape-rendering="auto" vector-effect="non-scaling-stroke" style="stroke: rgb(226, 226, 226); fill: transparent; stroke-width: 1; stroke-linecap: round; stroke-linejoin: round; pointer-events: none;"></line><line x1="578" x2="582" y1="231.6470588235294" y2="231.6470588235294" role="presentation" shape-rendering="auto" vector-effect="non-scaling-stroke" style="stroke: transparent; fill: transparent; size: 4px; stroke-width: 1; stroke-linecap: round; stroke-linejoin: round;"></line><text dx="0" dy="4.97" x="590" y="231.6470588235294"><tspan x="590" dx="0" text-anchor="start" style="fill: rgb(153, 153, 153); font-size: 14px; font-family: inherit; stroke: transparent; letter-spacing: normal; padding: 8px; stroke-width: 0;">$100K</tspan></text></g><g role="presentation"><line x1="578" x2="15" y1="161.05882352941177" y2="161.05882352941177" role="presentation" shape-rendering="auto" vector-effect="non-scaling-stroke" style="stroke: rgb(226, 226, 226); fill: transparent; stroke-width: 1; stroke-linecap: round; stroke-linejoin: round; pointer-events: none;"></line><line x1="578" x2="582" y1="161.05882352941177" y2="161.05882352941177" role="presentation" shape-rendering="auto" vector-effect="non-scaling-stroke" style="stroke: transparent; fill: transparent; size: 4px; stroke-width: 1; stroke-linecap: round; stroke-linejoin: round;"></line><text dx="0" dy="4.97" x="590" y="161.05882352941177"><tspan x="590" dx="0" text-anchor="start" style="fill: rgb(153, 153, 153); font-size: 14px; font-family: inherit; stroke: transparent; letter-spacing: normal; padding: 8px; stroke-width: 0;">$150K</tspan></text></g><g role="presentation"><line x1="578" x2="15" y1="90.47058823529414" y2="90.47058823529414" role="presentation" shape-rendering="auto" vector-effect="non-scaling-stroke" style="stroke: rgb(226, 226, 226); fill: transparent; stroke-width: 1; stroke-linecap: round; stroke-linejoin: round; pointer-events: none;"></line><line x1="578" x2="582" y1="90.47058823529414" y2="90.47058823529414" role="presentation" shape-rendering="auto" vector-effect="non-scaling-stroke" style="stroke: transparent; fill: transparent; size: 4px; stroke-width: 1; stroke-linecap: round; stroke-linejoin: round;"></line><text dx="0" dy="4.97" x="590" y="90.47058823529414"><tspan x="590" dx="0" text-anchor="start" style="fill: rgb(153, 153, 153); font-size: 14px; font-family: inherit; stroke: transparent; letter-spacing: normal; padding: 8px; stroke-width: 0;">$200K</tspan></text></g></g><g style="height: 100%; width: 100%; user-select: none;"><defs><clipPath id="victory-clip-5"><rect x="15" y="34" width="563" height="240"></rect></clipPath></defs><g clip-path="url(#victory-clip-5)"><path shape-rendering="auto" role="presentation" d="M15.30815544608648,252.8235294117647C18.389709906951285,262,21.471264367816094,271.1764705882353,24.5528188286809,271.1764705882353C27.73709177157453,271.1764705882353,30.921364714468165,217.4,34.1056376573618,196.35294117647058C37.28991060025543,175.30588235294115,40.47418354314906,144.8941176470588,43.658456486042695,144.8941176470588C46.7400109469075,144.8941176470588,49.821565407772304,203.41176470588235,52.90311986863711,203.41176470588235C56.08739281153075,203.41176470588235,59.271665754424376,200.58823529411762,62.45593869731801,200.58823529411762C65.54177309493402,200.58823529411762,68.62760749255003,201.52941176470586,71.71344189016602,203.41176470588235C74.89771483305965,205.35416496695765,78.0819877759533,259.88235294117646,81.26626071884692,259.88235294117646C84.45053366174056,259.88235294117646,87.63480660463419,200.58823529411762,90.81907954752783,200.58823529411762C93.69519704433499,200.58823529411762,96.57131454114213,221.76470588235293,99.44743203794928,221.76470588235293C102.62742504409171,221.76470588235293,105.80741805023415,187.1764705882353,108.98741105637657,187.1764705882353C112.06896551724138,187.1764705882353,115.15051997810617,204.8235294117647,118.23207443897098,204.8235294117647C121.41634738186463,204.8235294117647,124.60062032475825,176.58823529411765,127.7848932676519,176.58823529411765C130.8664477285167,176.58823529411765,133.9480021893815,229.52941176470588,137.02955665024632,229.52941176470588C140.21382959313993,229.52941176470588,143.39810253603358,196.35294117647058,146.5823754789272,196.35294117647058C149.76664842182083,196.35294117647058,152.95092136471445,199.83863709418193,156.1351943076081,202C159.2167487684729,204.0916415217594,162.2983032293377,209.05882352941177,165.37985769020253,209.05882352941177C168.56413063309614,209.05882352941177,171.74840357598978,198.47058823529412,174.9326765188834,198.47058823529412C178.0185109164994,198.47058823529412,181.10434531411542,204.8376470588235,184.19017971173142,204.8376470588235C187.37445265462506,204.8376470588235,190.55872559751867,197.76470588235293,193.74299854041232,197.76470588235293C196.92727148330596,197.76470588235293,200.1115444261996,202,203.29581736909324,202C206.1719348659004,202,209.04805236270755,161.05882352941177,211.9241698595147,161.05882352941177C215.10416286565712,161.05882352941177,218.28415587179956,173.6785958881161,221.46414887794197,187.88235294117646C224.5457033388068,201.6464243788663,227.62725779967158,244,230.7088122605364,244C233.89308520343002,244,237.07735814632366,211.38579234972673,240.26163108921727,194.94117647058823C243.3431855500821,179.02703207142187,246.4247400109469,156.0493358633776,249.5062944718117,146.94117647058823C252.69056741470536,137.52941176470588,255.874840357599,132.8235294117647,259.05911330049264,132.8235294117647C262.2433862433863,132.8235294117647,265.42765918627987,203.41176470588235,268.6119321291735,203.41176470588235C271.69348659003833,203.41176470588235,274.7750410509031,176.3361433415249,277.8565955117679,168.11764705882354C281.04086845466156,159.62520090003216,284.22514139755515,158.41220204043046,287.4094143404488,154C290.4952487380648,149.72419667856133,293.58108313568084,142,296.66691753329684,142C299.8511904761905,142,303.03546341908407,160.23529411764707,306.2197363619777,168.11764705882354C309.40400930487135,176.00000000000003,312.588282247765,189.2941176470588,315.77255519065864,189.2941176470588C318.6486726874658,189.2941176470588,321.52479018427294,188.35294117647058,324.4009076810801,186.47058823529412C327.58090068722254,184.38935574229694,330.76089369336495,132.8235294117647,333.94088669950736,132.8235294117647C337.0224411603722,132.8235294117647,340.10399562123695,142.8470588235294,343.18555008210177,142.8470588235294C346.3698230249954,142.8470588235294,349.55409596788905,142.8470588235294,352.7383689107827,142.8470588235294C355.8199233716475,142.8470588235294,358.9014778325123,147.03529411764706,361.9830322933771,155.41176470588235C365.16730523627075,164.06745098039212,368.35157817916433,212.58823529411765,371.535851122058,212.58823529411765C374.7201240649516,212.58823529411765,377.90439700784526,161.29725490196077,381.0886699507389,161.2C384.1702244116037,161.10588235294117,387.2517788724685,161.1529411764706,390.3333333333333,161.05882352941177C393.51760627622696,160.961568627451,396.7018792191206,150.47058823529414,399.88615216201424,150.47058823529414C402.97198655963024,150.47058823529414,406.0578209572463,171.64705882352942,409.1436553548623,171.64705882352942C412.32792829775593,171.64705882352942,415.5122012406495,168.11764705882354,418.69647418354316,161.05882352941177C421.8807471264368,154,425.0650200693304,128.94117647058823,428.24929301222403,128.94117647058823C431.22812899106003,128.94117647058823,434.206964969896,168.11764705882354,437.185800948732,168.11764705882354C440.3657939548744,168.11764705882354,443.54578696101686,139.69882352941178,446.72577996715927,139.69882352941178C449.8073344280241,139.69882352941178,452.8888888888889,139.88235294117646,455.97044334975374,139.88235294117646C459.1547162926473,139.88235294117646,462.33898923554096,139.88235294117646,465.52326217843455,139.88235294117646C468.6048166392994,139.88235294117646,471.6863711001642,111.64705882352939,474.767925561029,111.64705882352939C477.95219850392266,111.64705882352939,481.1364714468163,147.1764705882352,484.32074438970994,154.14117647058822C487.50501733260353,161.10588235294117,490.68929027549717,164.58823529411765,493.87356321839076,164.58823529411765C496.9551176792556,164.58823529411765,500.0366721401204,121.52941176470588,503.1182266009852,121.52941176470588C506.3024995438788,121.52941176470588,509.48677248677245,146.94117647058823,512.671045429666,146.94117647058823C515.7568798272821,146.94117647058823,518.8427142248981,69.29411764705884,521.9285486225142,69.29411764705884C525.1128215654078,69.29411764705884,528.2970945083015,100.62352941176472,531.4813674511951,113.83529411764707C534.6656403940887,127.04705882352941,537.8499133369824,148.56470588235294,541.0341862798759,148.56470588235294C543.9103037766831,148.56470588235294,546.7864212734902,148.35294117647058,549.6625387702974,148.35294117647058C552.8425317764398,148.35294117647058,556.0225247825822,162.8235294117647,559.2025177887247,162.8235294117647C562.2840722495895,162.8235294117647,565.3656267104543,47.764705882352956,568.4471811713191,47.764705882352956C571.6314541142127,47.764705882352956,574.8157270571064,85.00000000000001,578,122.23529411764707" style="fill: transparent; stroke: rgb(51, 51, 51); stroke-width: 2; opacity: 1;"></path></g></g></svg>