<svg xmlns="http://www.w3.org/2000/svg" width="640" height="324" role="img" aria-labelledby="victory-container-4-title victory-container-4-desc" viewBox="0 0 640 324" style="pointer-events: all; width: 100%; height: 100%;"><g role="presentation"><line x1="15" x2="578" y1="274" y2="274" role="presentation" shape-rendering="auto" vector-effect="non-scaling-stroke" style="stroke: rgb(226, 226, 226); fill: transparent; stroke-width: 1; stroke-linejoin: round;"></line><g role="presentation"><line x1="81.26626071884692" x2="81.26626071884692" y1="274" y2="34" role="presentation" shape-rendering="auto" vector-effect="non-scaling-stroke" style="stroke: transparent; fill: transparent; stroke-width: 1; stroke-linecap: round; stroke-linejoin: round; pointer-events: none;"></line><line x1="81.26626071884692" x2="81.26626071884692" y1="274" y2="278" role="presentation" shape-rendering="auto" vector-effect="non-scaling-stroke" style="stroke: transparent; fill: transparent; size: 4px; stroke-width: 1; stroke-linecap: round; stroke-linejoin: round;"></line><text dx="0" dy="11.969999999999999" x="81.26626071884692" y="286"><tspan x="81.26626071884692" dx="0" text-anchor="middle" style="fill: rgb(153, 153, 153); font-size: 14px; font-family: inherit; stroke: transparent; letter-spacing: normal; padding: 8px; stroke-width: 0;">2017</tspan></text></g><g role="presentation"><line x1="193.74299854041232" x2="193.74299854041232" y1="274" y2="34" role="presentation" shape-rendering="auto" vector-effect="non-scaling-stroke" style="stroke: transparent; fill: transparent; stroke-width: 1; stroke-linecap: round; stroke-linejoin: round; pointer-events: none;"></line><line x1="193.74299854041232" x2="193.74299854041232" y1="274" y2="278" role="presentation" shape-rendering="auto" vector-effect="non-scaling-stroke" style="stroke: transparent; fill: transparent; size: 4px; stroke-width: 1; stroke-linecap: round; stroke-linejoin: round;"></line><text dx="0" dy="11.969999999999999" x="193.74299854041232" y="286"><tspan x="193.74299854041232" dx="0" text-anchor="middle" style="fill: rgb(153, 153, 153); font-size: 14px; font-family: inherit; stroke: transparent; letter-spacing: normal; padding: 8px; stroke-width: 0;">2018</tspan></text></g><g role="presentation"><line x1="306.2197363619777" x2="306.2197363619777" y1="274" y2="34" role="presentation" shape-rendering="auto" vector-effect="non-scaling-stroke" style="stroke: transparent; fill: transparent; stroke-width: 1; stroke-linecap: round; stroke-linejoin: round; pointer-events: none;"></line><line x1="306.2197363619777" x2="306.2197363619777" y1="274" y2="278" role="presentation" shape-rendering="auto" vector-effect="non-scaling-stroke" style="stroke: transparent; fill: transparent; size: 4px; stroke-width: 1; stroke-linecap: round; stroke-linejoin: round;"></line><text dx="0" dy="11.969999999999999" x="306.2197363619777" y="286"><tspan x="306.2197363619777" dx="0" text-anchor="middle" style="fill: rgb(153, 153, 153); font-size: 14px; font-family: inherit; stroke: transparent; letter-spacing: normal; padding: 8px; stroke-width: 0;">2019</tspan></text></g><g role="presentation"><line x1="418.69647418354316" x2="418.69647418354316" y1="274" y2="34" role="presentation" shape-rendering="auto" vector-effect="non-scaling-stroke" style="stroke: transparent; fill: transparent; stroke-width: 1; stroke-linecap: round; stroke-linejoin: round; pointer-events: none;"></line><line x1="418.69647418354316" x2="418.69647418354316" y1="274" y2="278" role="presentation" shape-rendering="auto" vector-effect="non-scaling-stroke" style="stroke: transparent; fill: transparent; size: 4px; stroke-width: 1; stroke-linecap: round; stroke-linejoin: round;"></line><text dx="0" dy="11.969999999999999" x="418.69647418354316" y="286"><tspan x="418.69647418354316" dx="0" text-anchor="middle" style="fill: rgb(153, 153, 153); font-size: 14px; font-family: inherit; stroke: transparent; letter-spacing: normal; padding: 8px; stroke-width: 0;">2020</tspan></text></g><g role="presentation"><line x1="531.4813674511951" x2="531.4813674511951" y1="274" y2="34" role="presentation" shape-rendering="auto" vector-effect="non-scaling-stroke" style="stroke: transparent; fill: transparent; stroke-width: 1; stroke-linecap: round; stroke-linejoin: round; pointer-events: none;"></line><line x1="531.4813674511951" x2="531.4813674511951" y1="274" y2="278" role="presentation" shape-rendering="auto" vector-effect="non-scaling-stroke" style="stroke: transparent; fill: transparent; size: 4px; stroke-width: 1; stroke-linecap: round; stroke-linejoin: round;"></line><text dx="0" dy="11.969999999999999" x="531.4813674511951" y="286"><tspan x="531.4813674511951" dx="0" text-anchor="middle" style="fill: rgb(153, 153, 153); font-size: 14px; font-family: inherit; stroke: transparent; letter-spacing: normal; padding: 8px; stroke-width: 0;">2021</tspan></text></g></g><g role="presentation"><line x1="578" x2="578" y1="34" y2="274" role="presentation" shape-rendering="auto" vector-effect="non-scaling-stroke" style="stroke: transparent; fill: transparent; stroke-width: 1; stroke-linejoin: round;"></line><g role="presentation"><line x1="578" x2="15" y1="274" y2="274" role="presentation" shape-rendering="auto" vector-effect="non-scaling-stroke" style="stroke: rgb(226, 226, 226); fill: transparent; stroke-width: 1; stroke-linecap: round; stroke-linejoin: round; pointer-events: none;"></line><line x1="578" x2="582" y1="274" y2="274" role="presentation" shape-rendering="auto" vector-effect="non-scaling-stroke" style="stroke: transparent; fill: transparent; size: 4px; stroke-width: 1; stroke-linecap: round; stroke-linejoin: round;"></line><text dx="0" dy="4.97" x="590" y="274"><tspan x="590" dx="0" text-anchor="start" style="fill: rgb(153, 153, 153); font-size: 14px; font-family: inherit; stroke: transparent; letter-spacing: normal; padding: 8px; stroke-width: 0;">$100K</tspan></text></g><g role="presentation"><line x1="578" x2="15" y1="214" y2="214" role="presentation" shape-rendering="auto" vector-effect="non-scaling-stroke" style="stroke: rgb(226, 226, 226); fill: transparent; stroke-width: 1; stroke-linecap: round; stroke-linejoin: round; pointer-events: none;"></line><line x1="578" x2="582" y1="214" y2="214" role="presentation" shape-rendering="auto" vector-effect="non-scaling-stroke" style="stroke: transparent; fill: transparent; size: 4px; stroke-width: 1; stroke-linecap: round; stroke-linejoin: round;"></line><text dx="0" dy="4.97" x="590" y="214"><tspan x="590" dx="0" text-anchor="start" style="fill: rgb(153, 153, 153); font-size: 14px; font-family: inherit; stroke: transparent; letter-spacing: normal; padding: 8px; stroke-width: 0;">$150K</tspan></text></g><g role="presentation"><line x1="578" x2="15" y1="154" y2="154" role="presentation" shape-rendering="auto" vector-effect="non-scaling-stroke" style="stroke: rgb(226, 226, 226); fill: transparent; stroke-width: 1; stroke-linecap: round; stroke-linejoin: round; pointer-events: none;"></line><line x1="578" x2="582" y1="154" y2="154" role="presentation" shape-rendering="auto" vector-effect="non-scaling-stroke" style="stroke: transparent; fill: transparent; size: 4px; stroke-width: 1; stroke-linecap: round; stroke-linejoin: round;"></line><text dx="0" dy="4.97" x="590" y="154"><tspan x="590" dx="0" text-anchor="start" style="fill: rgb(153, 153, 153); font-size: 14px; font-family: inherit; stroke: transparent; letter-spacing: normal; padding: 8px; stroke-width: 0;">$200K</tspan></text></g><g role="presentation"><line x1="578" x2="15" y1="94" y2="94" role="presentation" shape-rendering="auto" vector-effect="non-scaling-stroke" style="stroke: rgb(226, 226, 226); fill: transparent; stroke-width: 1; stroke-linecap: round; stroke-linejoin: round; pointer-events: none;"></line><line x1="578" x2="582" y1="94" y2="94" role="presentation" shape-rendering="auto" vector-effect="non-scaling-stroke" style="stroke: transparent; fill: transparent; size: 4px; stroke-width: 1; stroke-linecap: round; stroke-linejoin: round;"></line><text dx="0" dy="4.97" x="590" y="94"><tspan x="590" dx="0" text-anchor="start" style="fill: rgb(153, 153, 153); font-size: 14px; font-family: inherit; stroke: transparent; letter-spacing: normal; padding: 8px; stroke-width: 0;">$250K</tspan></text></g><g role="presentation"><line x1="578" x2="15" y1="34" y2="34" role="presentation" shape-rendering="auto" vector-effect="non-scaling-stroke" style="stroke: rgb(226, 226, 226); fill: transparent; stroke-width: 1; stroke-linecap: round; stroke-linejoin: round; pointer-events: none;"></line><line x1="578" x2="582" y1="34" y2="34" role="presentation" shape-rendering="auto" vector-effect="non-scaling-stroke" style="stroke: transparent; fill: transparent; size: 4px; stroke-width: 1; stroke-linecap: round; stroke-linejoin: round;"></line><text dx="0" dy="4.97" x="590" y="34"><tspan x="590" dx="0" text-anchor="start" style="fill: rgb(153, 153, 153); font-size: 14px; font-family: inherit; stroke: transparent; letter-spacing: normal; padding: 8px; stroke-width: 0;">$300K</tspan></text></g></g><g style="height: 100%; width: 100%; user-select: none;"><defs><clipPath id="victory-clip-5"><rect x="15" y="34" width="563" height="240"></rect></clipPath></defs><g clip-path="url(#victory-clip-5)"><path shape-rendering="auto" role="presentation" d="M15.30815544608648,244C18.389709906951285,240.54999999999998,21.471264367816094,237.1,24.5528188286809,237.1C27.73709177157453,237.1,30.921364714468165,250,34.1056376573618,250C37.28991060025543,250,40.47418354314906,234.02666666666664,43.658456486042695,233.2C46.7400109469075,232.4,49.821565407772304,232,52.90311986863711,232C56.08739281153075,232,59.271665754424376,236.8,62.45593869731801,236.8C65.54177309493402,236.8,68.62760749255003,229,71.71344189016602,229C74.89771483305965,229,78.0819877759533,247.70000000000002,81.26626071884692,248.62C84.45053366174056,249.54,87.63480660463419,250,90.81907954752783,250C93.69519704433499,250,96.57131454114213,231.4,99.44743203794928,231.4C102.62742504409171,231.4,105.80741805023415,245.8,108.98741105637657,245.8C112.06896551724138,245.8,115.15051997810617,230.8,118.23207443897098,230.8C121.41634738186463,230.8,124.60062032475825,244,127.7848932676519,244C130.8664477285167,244,133.9480021893815,218.8,137.02955665024632,218.8C140.21382959313993,218.8,143.39810253603358,241.6,146.5823754789272,241.6C149.76664842182083,241.6,152.95092136471445,220.66,156.1351943076081,220.66C159.2167487684729,220.66,162.2983032293377,221.24,165.37985769020253,222.4C168.56413063309614,223.59866666666667,171.74840357598978,245.8,174.9326765188834,245.8C178.0185109164994,245.8,181.10434531411542,223.06,184.19017971173142,223.06C187.37445265462506,223.06,190.55872559751867,262,193.74299854041232,262C196.92727148330596,262,200.1115444261996,199,203.29581736909324,199C206.1719348659004,199,209.04805236270755,200,211.9241698595147,202C215.10416286565712,204.21130952380952,218.28415587179956,214,221.46414887794197,214C224.5457033388068,214,227.62725779967158,202,230.7088122605364,202C233.89308520343002,202,237.07735814632366,214,240.26163108921727,214C243.3431855500821,214,246.4247400109469,185.32,249.5062944718117,185.32C252.69056741470536,185.32,255.874840357599,220,259.05911330049264,220C262.2433862433863,220,265.42765918627987,207.06666666666666,268.6119321291735,205C271.69348659003833,203,274.7750410509031,202,277.8565955117679,202C281.04086845466156,202,284.22514139755515,227.872399445215,287.4094143404488,232C290.4952487380648,236,293.58108313568084,238,296.66691753329684,238C299.8511904761905,238,303.03546341908407,200.8,306.2197363619777,200.8C309.40400930487135,200.8,312.588282247765,209.2,315.77255519065864,209.2C318.6486726874658,209.2,321.52479018427294,208,324.4009076810801,208C327.58090068722254,208,330.76089369336495,215.2,333.94088669950736,215.2C337.0224411603722,215.2,340.10399562123695,206.37503966155472,343.18555008210177,203.2C346.3698230249954,199.9191256830601,349.55409596788905,196,352.7383689107827,196C355.8199233716475,196,358.9014778325123,202,361.9830322933771,202C365.16730523627075,202,368.35157817916433,196,371.535851122058,196C374.7201240649516,196,377.90439700784526,204.97866666666664,381.0886699507389,206.26C384.1702244116037,207.5,387.2517788724685,208.12,390.3333333333333,208.12C393.51760627622696,208.12,396.7018792191206,198.4,399.88615216201424,198.4C402.97198655963024,198.4,406.0578209572463,210.40154501082608,409.1436553548623,214.96C412.32792829775593,219.6638703355692,415.5122012406495,226,418.69647418354316,226C421.8807471264368,226,425.0650200693304,216.69913793103444,428.24929301222403,208C431.22812899106003,199.86209677419353,434.206964969896,176.5,437.185800948732,176.5C440.3657939548744,176.5,443.54578696101686,180.90546119085593,446.72577996715927,183.4C449.8073344280241,185.8173188998435,452.8888888888889,191.2,455.97044334975374,191.2C459.1547162926473,191.2,462.33898923554096,176.2,465.52326217843455,176.2C468.6048166392994,176.2,471.6863711001642,183.46,474.767925561029,183.46C477.95219850392266,183.46,481.1364714468163,178.6,484.32074438970994,178.6C487.50501733260353,178.6,490.68929027549717,183.72195628415304,493.87356321839076,187C496.9551176792556,190.17230037017453,500.0366721401204,197.86,503.1182266009852,197.86C506.3024995438788,197.86,509.48677248677245,184.4127600554785,512.671045429666,184C515.7568798272821,183.6,518.8427142248981,183.8,521.9285486225142,183.4C525.1128215654078,182.98723994452152,528.2970945083015,160,531.4813674511951,160C534.6656403940887,160,537.8499133369824,173.5,541.0341862798759,173.5C543.9103037766831,173.5,546.7864212734902,148.60000000000002,549.6625387702974,148.60000000000002C552.8425317764398,148.60000000000002,556.0225247825822,165.39999999999998,559.2025177887247,165.39999999999998C562.2840722495895,165.39999999999998,565.3656267104543,153.3272342675833,568.4471811713191,148C571.6314541142127,142.49519125683062,574.8157270571064,137.74759562841533,578,133" style="fill: transparent; stroke: rgb(51, 51, 51); stroke-width: 2; opacity: 1;"></path></g></g></svg>