<svg xmlns="http://www.w3.org/2000/svg" width="640" height="324" role="img" aria-labelledby="victory-container-4-title victory-container-4-desc" viewBox="0 0 640 324" style="pointer-events: all; width: 100%; height: 100%;"><g role="presentation"><line x1="15" x2="578" y1="274" y2="274" role="presentation" shape-rendering="auto" vector-effect="non-scaling-stroke" style="stroke: rgb(226, 226, 226); fill: transparent; stroke-width: 1; stroke-linejoin: round;"></line><g role="presentation"><line x1="81.26626071884692" x2="81.26626071884692" y1="274" y2="34" role="presentation" shape-rendering="auto" vector-effect="non-scaling-stroke" style="stroke: transparent; fill: transparent; stroke-width: 1; stroke-linecap: round; stroke-linejoin: round; pointer-events: none;"></line><line x1="81.26626071884692" x2="81.26626071884692" y1="274" y2="278" role="presentation" shape-rendering="auto" vector-effect="non-scaling-stroke" style="stroke: transparent; fill: transparent; size: 4px; stroke-width: 1; stroke-linecap: round; stroke-linejoin: round;"></line><text dx="0" dy="11.969999999999999" x="81.26626071884692" y="286"><tspan x="81.26626071884692" dx="0" text-anchor="middle" style="fill: rgb(153, 153, 153); font-size: 14px; font-family: inherit; stroke: transparent; letter-spacing: normal; padding: 8px; stroke-width: 0;">2017</tspan></text></g><g role="presentation"><line x1="193.74299854041232" x2="193.74299854041232" y1="274" y2="34" role="presentation" shape-rendering="auto" vector-effect="non-scaling-stroke" style="stroke: transparent; fill: transparent; stroke-width: 1; stroke-linecap: round; stroke-linejoin: round; pointer-events: none;"></line><line x1="193.74299854041232" x2="193.74299854041232" y1="274" y2="278" role="presentation" shape-rendering="auto" vector-effect="non-scaling-stroke" style="stroke: transparent; fill: transparent; size: 4px; stroke-width: 1; stroke-linecap: round; stroke-linejoin: round;"></line><text dx="0" dy="11.969999999999999" x="193.74299854041232" y="286"><tspan x="193.74299854041232" dx="0" text-anchor="middle" style="fill: rgb(153, 153, 153); font-size: 14px; font-family: inherit; stroke: transparent; letter-spacing: normal; padding: 8px; stroke-width: 0;">2018</tspan></text></g><g role="presentation"><line x1="306.2197363619777" x2="306.2197363619777" y1="274" y2="34" role="presentation" shape-rendering="auto" vector-effect="non-scaling-stroke" style="stroke: transparent; fill: transparent; stroke-width: 1; stroke-linecap: round; stroke-linejoin: round; pointer-events: none;"></line><line x1="306.2197363619777" x2="306.2197363619777" y1="274" y2="278" role="presentation" shape-rendering="auto" vector-effect="non-scaling-stroke" style="stroke: transparent; fill: transparent; size: 4px; stroke-width: 1; stroke-linecap: round; stroke-linejoin: round;"></line><text dx="0" dy="11.969999999999999" x="306.2197363619777" y="286"><tspan x="306.2197363619777" dx="0" text-anchor="middle" style="fill: rgb(153, 153, 153); font-size: 14px; font-family: inherit; stroke: transparent; letter-spacing: normal; padding: 8px; stroke-width: 0;">2019</tspan></text></g><g role="presentation"><line x1="418.69647418354316" x2="418.69647418354316" y1="274" y2="34" role="presentation" shape-rendering="auto" vector-effect="non-scaling-stroke" style="stroke: transparent; fill: transparent; stroke-width: 1; stroke-linecap: round; stroke-linejoin: round; pointer-events: none;"></line><line x1="418.69647418354316" x2="418.69647418354316" y1="274" y2="278" role="presentation" shape-rendering="auto" vector-effect="non-scaling-stroke" style="stroke: transparent; fill: transparent; size: 4px; stroke-width: 1; stroke-linecap: round; stroke-linejoin: round;"></line><text dx="0" dy="11.969999999999999" x="418.69647418354316" y="286"><tspan x="418.69647418354316" dx="0" text-anchor="middle" style="fill: rgb(153, 153, 153); font-size: 14px; font-family: inherit; stroke: transparent; letter-spacing: normal; padding: 8px; stroke-width: 0;">2020</tspan></text></g><g role="presentation"><line x1="531.4813674511951" x2="531.4813674511951" y1="274" y2="34" role="presentation" shape-rendering="auto" vector-effect="non-scaling-stroke" style="stroke: transparent; fill: transparent; stroke-width: 1; stroke-linecap: round; stroke-linejoin: round; pointer-events: none;"></line><line x1="531.4813674511951" x2="531.4813674511951" y1="274" y2="278" role="presentation" shape-rendering="auto" vector-effect="non-scaling-stroke" style="stroke: transparent; fill: transparent; size: 4px; stroke-width: 1; stroke-linecap: round; stroke-linejoin: round;"></line><text dx="0" dy="11.969999999999999" x="531.4813674511951" y="286"><tspan x="531.4813674511951" dx="0" text-anchor="middle" style="fill: rgb(153, 153, 153); font-size: 14px; font-family: inherit; stroke: transparent; letter-spacing: normal; padding: 8px; stroke-width: 0;">2021</tspan></text></g></g><g role="presentation"><line x1="578" x2="578" y1="34" y2="274" role="presentation" shape-rendering="auto" vector-effect="non-scaling-stroke" style="stroke: transparent; fill: transparent; stroke-width: 1; stroke-linejoin: round;"></line><g role="presentation"><line x1="578" x2="15" y1="253.19810028313088" y2="253.19810028313088" role="presentation" shape-rendering="auto" vector-effect="non-scaling-stroke" style="stroke: rgb(226, 226, 226); fill: transparent; stroke-width: 1; stroke-linecap: round; stroke-linejoin: round; pointer-events: none;"></line><line x1="578" x2="582" y1="253.19810028313088" y2="253.19810028313088" role="presentation" shape-rendering="auto" vector-effect="non-scaling-stroke" style="stroke: transparent; fill: transparent; size: 4px; stroke-width: 1; stroke-linecap: round; stroke-linejoin: round;"></line><text dx="0" dy="4.97" x="590" y="253.19810028313088"><tspan x="590" dx="0" text-anchor="start" style="fill: rgb(153, 153, 153); font-size: 14px; font-family: inherit; stroke: transparent; letter-spacing: normal; padding: 8px; stroke-width: 0;">$280K</tspan></text></g><g role="presentation"><line x1="578" x2="15" y1="216.66508356927574" y2="216.66508356927574" role="presentation" shape-rendering="auto" vector-effect="non-scaling-stroke" style="stroke: rgb(226, 226, 226); fill: transparent; stroke-width: 1; stroke-linecap: round; stroke-linejoin: round; pointer-events: none;"></line><line x1="578" x2="582" y1="216.66508356927574" y2="216.66508356927574" role="presentation" shape-rendering="auto" vector-effect="non-scaling-stroke" style="stroke: transparent; fill: transparent; size: 4px; stroke-width: 1; stroke-linecap: round; stroke-linejoin: round;"></line><text dx="0" dy="4.97" x="590" y="216.66508356927574"><tspan x="590" dx="0" text-anchor="start" style="fill: rgb(153, 153, 153); font-size: 14px; font-family: inherit; stroke: transparent; letter-spacing: normal; padding: 8px; stroke-width: 0;">$300K</tspan></text></g><g role="presentation"><line x1="578" x2="15" y1="180.1320668554206" y2="180.1320668554206" role="presentation" shape-rendering="auto" vector-effect="non-scaling-stroke" style="stroke: rgb(226, 226, 226); fill: transparent; stroke-width: 1; stroke-linecap: round; stroke-linejoin: round; pointer-events: none;"></line><line x1="578" x2="582" y1="180.1320668554206" y2="180.1320668554206" role="presentation" shape-rendering="auto" vector-effect="non-scaling-stroke" style="stroke: transparent; fill: transparent; size: 4px; stroke-width: 1; stroke-linecap: round; stroke-linejoin: round;"></line><text dx="0" dy="4.97" x="590" y="180.1320668554206"><tspan x="590" dx="0" text-anchor="start" style="fill: rgb(153, 153, 153); font-size: 14px; font-family: inherit; stroke: transparent; letter-spacing: normal; padding: 8px; stroke-width: 0;">$320K</tspan></text></g><g role="presentation"><line x1="578" x2="15" y1="143.59905014156544" y2="143.59905014156544" role="presentation" shape-rendering="auto" vector-effect="non-scaling-stroke" style="stroke: rgb(226, 226, 226); fill: transparent; stroke-width: 1; stroke-linecap: round; stroke-linejoin: round; pointer-events: none;"></line><line x1="578" x2="582" y1="143.59905014156544" y2="143.59905014156544" role="presentation" shape-rendering="auto" vector-effect="non-scaling-stroke" style="stroke: transparent; fill: transparent; size: 4px; stroke-width: 1; stroke-linecap: round; stroke-linejoin: round;"></line><text dx="0" dy="4.97" x="590" y="143.59905014156544"><tspan x="590" dx="0" text-anchor="start" style="fill: rgb(153, 153, 153); font-size: 14px; font-family: inherit; stroke: transparent; letter-spacing: normal; padding: 8px; stroke-width: 0;">$340K</tspan></text></g><g role="presentation"><line x1="578" x2="15" y1="107.0660334277103" y2="107.0660334277103" role="presentation" shape-rendering="auto" vector-effect="non-scaling-stroke" style="stroke: rgb(226, 226, 226); fill: transparent; stroke-width: 1; stroke-linecap: round; stroke-linejoin: round; pointer-events: none;"></line><line x1="578" x2="582" y1="107.0660334277103" y2="107.0660334277103" role="presentation" shape-rendering="auto" vector-effect="non-scaling-stroke" style="stroke: transparent; fill: transparent; size: 4px; stroke-width: 1; stroke-linecap: round; stroke-linejoin: round;"></line><text dx="0" dy="4.97" x="590" y="107.0660334277103"><tspan x="590" dx="0" text-anchor="start" style="fill: rgb(153, 153, 153); font-size: 14px; font-family: inherit; stroke: transparent; letter-spacing: normal; padding: 8px; stroke-width: 0;">$360K</tspan></text></g><g role="presentation"><line x1="578" x2="15" y1="70.53301671385515" y2="70.53301671385515" role="presentation" shape-rendering="auto" vector-effect="non-scaling-stroke" style="stroke: rgb(226, 226, 226); fill: transparent; stroke-width: 1; stroke-linecap: round; stroke-linejoin: round; pointer-events: none;"></line><line x1="578" x2="582" y1="70.53301671385515" y2="70.53301671385515" role="presentation" shape-rendering="auto" vector-effect="non-scaling-stroke" style="stroke: transparent; fill: transparent; size: 4px; stroke-width: 1; stroke-linecap: round; stroke-linejoin: round;"></line><text dx="0" dy="4.97" x="590" y="70.53301671385515"><tspan x="590" dx="0" text-anchor="start" style="fill: rgb(153, 153, 153); font-size: 14px; font-family: inherit; stroke: transparent; letter-spacing: normal; padding: 8px; stroke-width: 0;">$380K</tspan></text></g><g role="presentation"><line x1="578" x2="15" y1="34" y2="34" role="presentation" shape-rendering="auto" vector-effect="non-scaling-stroke" style="stroke: rgb(226, 226, 226); fill: transparent; stroke-width: 1; stroke-linecap: round; stroke-linejoin: round; pointer-events: none;"></line><line x1="578" x2="582" y1="34" y2="34" role="presentation" shape-rendering="auto" vector-effect="non-scaling-stroke" style="stroke: transparent; fill: transparent; size: 4px; stroke-width: 1; stroke-linecap: round; stroke-linejoin: round;"></line><text dx="0" dy="4.97" x="590" y="34"><tspan x="590" dx="0" text-anchor="start" style="fill: rgb(153, 153, 153); font-size: 14px; font-family: inherit; stroke: transparent; letter-spacing: normal; padding: 8px; stroke-width: 0;">$400K</tspan></text></g></g><g style="height: 100%; width: 100%; user-select: none;"><defs><clipPath id="victory-clip-5"><rect x="15" y="34" width="563" height="240"></rect></clipPath></defs><g clip-path="url(#victory-clip-5)"><path shape-rendering="auto" role="presentation" d="M15.30815544608648,112.08932322586537C18.389709906951285,95.87779705909216,21.471264367816094,79.66627089231895,24.5528188286809,79.66627089231895C27.73709177157453,79.66627089231895,30.921364714468165,162.0482235820623,34.1056376573618,162.0482235820623C37.28991060025543,162.0482235820623,40.47418354314906,117.38661064937438,43.658456486042695,117.38661064937438C46.7400109469075,117.38661064937438,49.821565407772304,136.29244679879443,52.90311986863711,136.29244679879443C56.08739281153075,136.29244679879443,59.271665754424376,123.50589094894511,62.45593869731801,123.50589094894511C65.54177309493402,123.50589094894511,68.62760749255003,127.1591926203306,71.71344189016602,127.1591926203306C74.89771483305965,127.1591926203306,78.0819877759533,43.13325417846377,81.26626071884692,43.13325417846377C84.45053366174056,43.13325417846377,87.63480660463419,155.47228057356836,90.81907954752783,155.47228057356836C93.69519704433499,155.47228057356836,96.57131454114213,84.32423052333547,99.44743203794928,84.32423052333547C102.62742504409171,84.32423052333547,105.80741805023415,148.17328827594602,108.98741105637657,153.82829482144487C112.06896551724138,159.30824732852315,115.15051997810617,162.0482235820623,118.23207443897098,162.0482235820623C121.41634738186463,162.0482235820623,124.60062032475825,76.82481403679688,127.7848932676519,70.53301671385515C130.8664477285167,64.44418059487928,133.9480021893815,61.399762535391346,137.02955665024632,61.399762535391346C140.21382959313993,61.399762535391346,143.39810253603358,180.1320668554206,146.5823754789272,180.1320668554206C149.76664842182083,180.1320668554206,152.95092136471445,125.33254178463787,156.1351943076081,125.33254178463787C159.2167487684729,125.33254178463787,162.2983032293377,220.31838524066126,165.37985769020253,220.31838524066126C168.56413063309614,220.31838524066126,171.74840357598978,184.69869394465246,174.9326765188834,184.69869394465246C178.0185109164994,184.69869394465246,181.10434531411542,194.66421028193838,184.19017971173142,207.53182939081194C187.37445265462506,220.80992733394913,190.55872559751867,264.15800529728745,193.74299854041232,264.15800529728745C196.92727148330596,264.15800529728745,200.1115444261996,259.28693640210673,203.29581736909324,249.54479861174536C206.1719348659004,240.7454483494835,209.04805236270755,205.70517855511918,211.9241698595147,205.70517855511918C215.10416286565712,205.70517855511918,218.28415587179956,212.09845648004384,221.46414887794197,212.09845648004384C224.5457033388068,212.09845648004384,227.62725779967158,196.5719243766554,230.7088122605364,196.5719243766554C233.89308520343002,196.5719243766554,237.07735814632366,221.2317106585076,240.26163108921727,221.2317106585076C243.3431855500821,221.2317106585076,246.4247400109469,183.7853685268061,249.5062944718117,183.7853685268061C252.69056741470536,183.7853685268061,255.874840357599,249.98623923037104,259.05911330049264,259.5913782080555C262.2433862433863,269.19651718573994,265.42765918627987,273.99908667458214,268.6119321291735,273.99908667458214C271.69348659003833,273.99908667458214,274.7750410509031,258.9035707546343,277.8565955117679,249.54479861174536C281.04086845466156,239.8740673974268,284.22514139755515,229.39797253119056,287.4094143404488,216.66508356927574C290.4952487380648,204.3258188629039,293.58108313568084,174.6521143483423,296.66691753329684,174.6521143483423C299.8511904761905,174.6521143483423,303.03546341908407,216.66508356927574,306.2197363619777,216.66508356927574C309.40400930487135,216.66508356927574,312.588282247765,209.3584802265047,315.77255519065864,194.74527354096264C318.6486726874658,181.5462481475698,321.52479018427294,133.39639146725426,324.4009076810801,130.36313818613573C327.58090068722254,127.00940725180382,330.76089369336495,125.33254178463787,333.94088669950736,125.33254178463787C337.0224411603722,125.33254178463787,340.10399562123695,165.5188601698785,343.18555008210177,165.5188601698785C346.3698230249954,165.5188601698785,349.55409596788905,146.55404881815858,352.7383689107827,139.48908576125675C355.8199233716475,132.65202473844855,358.9014778325123,123.53299609037796,361.9830322933771,123.50589094894511C365.16730523627075,123.47788230279782,368.35157817916433,123.49188662587146,371.535851122058,123.46387797972417C374.7201240649516,123.43586933357689,377.90439700784526,103.4127317563248,381.0886699507389,103.4127317563248C384.1702244116037,103.4127317563248,387.2517788724685,260.9613663348251,390.3333333333333,260.9613663348251C393.51760627622696,260.9613663348251,396.7018792191206,185.15535665357567,399.88615216201424,185.15535665357567C402.97198655963024,185.15535665357567,406.0578209572463,219.36414022524104,409.1436553548623,227.62498858343227C412.32792829775593,236.14935914999847,415.5122012406495,240.41154443328156,418.69647418354316,240.41154443328156C421.8807471264368,240.41154443328156,425.0650200693304,232.49605747861295,428.24929301222403,216.66508356927574C431.22812899106003,201.85546281537955,434.206964969896,164.4505391605094,437.185800948732,143.59905014156544C440.3657939548744,121.33948643312387,443.54578696101686,88.79952507078272,446.72577996715927,88.79952507078272C449.8073344280241,88.79952507078272,452.8888888888889,200.22522604804092,455.97044334975374,200.22522604804092C459.1547162926473,200.22522604804092,462.33898923554096,196.8763661826042,465.52326217843455,190.17864645173074C468.6048166392994,183.69698219604666,471.6863711001642,149.07900264864372,474.767925561029,149.07900264864372C477.95219850392266,149.07900264864372,481.1364714468163,166.0135781045453,484.32074438970994,170.9988126769568C487.50501733260353,175.98404724936822,490.68929027549717,175.56198776210488,493.87356321839076,178.9904100831126C496.9551176792556,182.30823813570078,500.0366721401204,191.09197186957715,503.1182266009852,191.09197186957715C506.3024995438788,191.09197186957715,509.48677248677245,189.11310013091,512.671045429666,185.15535665357567C515.7568798272821,181.3199627729868,518.8427142248981,174.19289814480507,521.9285486225142,152.73230432002924C525.1128215654078,130.58711457573946,528.2970945083015,52.266508356927574,531.4813674511951,52.266508356927574C534.6656403940887,52.266508356927574,537.8499133369824,81.07124808092938,541.0341862798759,82.80171705178557C543.9103037766831,84.36472128352666,546.7864212734902,85.1462233993972,549.6625387702974,85.1462233993972C552.8425317764398,85.1462233993972,556.0225247825822,81.79736353396048,559.2025177887247,75.09964380308705C562.2840722495895,68.60925590775878,565.3656267104543,34,568.4471811713191,34C571.6314541142127,34,574.8157270571064,44.04657959631015,578,54.093159192620305" style="fill: transparent; stroke: rgb(51, 51, 51); stroke-width: 2; opacity: 1;"></path></g></g></svg>