<svg xmlns="http://www.w3.org/2000/svg" width="640" height="324" role="img" aria-labelledby="victory-container-4-title victory-container-4-desc" viewBox="0 0 640 324" style="pointer-events: all; width: 100%; height: 100%;"><g role="presentation"><line x1="15" x2="578" y1="274" y2="274" role="presentation" shape-rendering="auto" vector-effect="non-scaling-stroke" style="stroke: rgb(226, 226, 226); fill: transparent; stroke-width: 1; stroke-linejoin: round;"></line><g role="presentation"><line x1="81.26626071884692" x2="81.26626071884692" y1="274" y2="34" role="presentation" shape-rendering="auto" vector-effect="non-scaling-stroke" style="stroke: transparent; fill: transparent; stroke-width: 1; stroke-linecap: round; stroke-linejoin: round; pointer-events: none;"></line><line x1="81.26626071884692" x2="81.26626071884692" y1="274" y2="278" role="presentation" shape-rendering="auto" vector-effect="non-scaling-stroke" style="stroke: transparent; fill: transparent; size: 4px; stroke-width: 1; stroke-linecap: round; stroke-linejoin: round;"></line><text dx="0" dy="11.969999999999999" x="81.26626071884692" y="286"><tspan x="81.26626071884692" dx="0" text-anchor="middle" style="fill: rgb(153, 153, 153); font-size: 14px; font-family: inherit; stroke: transparent; letter-spacing: normal; padding: 8px; stroke-width: 0;">2017</tspan></text></g><g role="presentation"><line x1="193.74299854041232" x2="193.74299854041232" y1="274" y2="34" role="presentation" shape-rendering="auto" vector-effect="non-scaling-stroke" style="stroke: transparent; fill: transparent; stroke-width: 1; stroke-linecap: round; stroke-linejoin: round; pointer-events: none;"></line><line x1="193.74299854041232" x2="193.74299854041232" y1="274" y2="278" role="presentation" shape-rendering="auto" vector-effect="non-scaling-stroke" style="stroke: transparent; fill: transparent; size: 4px; stroke-width: 1; stroke-linecap: round; stroke-linejoin: round;"></line><text dx="0" dy="11.969999999999999" x="193.74299854041232" y="286"><tspan x="193.74299854041232" dx="0" text-anchor="middle" style="fill: rgb(153, 153, 153); font-size: 14px; font-family: inherit; stroke: transparent; letter-spacing: normal; padding: 8px; stroke-width: 0;">2018</tspan></text></g><g role="presentation"><line x1="306.2197363619777" x2="306.2197363619777" y1="274" y2="34" role="presentation" shape-rendering="auto" vector-effect="non-scaling-stroke" style="stroke: transparent; fill: transparent; stroke-width: 1; stroke-linecap: round; stroke-linejoin: round; pointer-events: none;"></line><line x1="306.2197363619777" x2="306.2197363619777" y1="274" y2="278" role="presentation" shape-rendering="auto" vector-effect="non-scaling-stroke" style="stroke: transparent; fill: transparent; size: 4px; stroke-width: 1; stroke-linecap: round; stroke-linejoin: round;"></line><text dx="0" dy="11.969999999999999" x="306.2197363619777" y="286"><tspan x="306.2197363619777" dx="0" text-anchor="middle" style="fill: rgb(153, 153, 153); font-size: 14px; font-family: inherit; stroke: transparent; letter-spacing: normal; padding: 8px; stroke-width: 0;">2019</tspan></text></g><g role="presentation"><line x1="418.69647418354316" x2="418.69647418354316" y1="274" y2="34" role="presentation" shape-rendering="auto" vector-effect="non-scaling-stroke" style="stroke: transparent; fill: transparent; stroke-width: 1; stroke-linecap: round; stroke-linejoin: round; pointer-events: none;"></line><line x1="418.69647418354316" x2="418.69647418354316" y1="274" y2="278" role="presentation" shape-rendering="auto" vector-effect="non-scaling-stroke" style="stroke: transparent; fill: transparent; size: 4px; stroke-width: 1; stroke-linecap: round; stroke-linejoin: round;"></line><text dx="0" dy="11.969999999999999" x="418.69647418354316" y="286"><tspan x="418.69647418354316" dx="0" text-anchor="middle" style="fill: rgb(153, 153, 153); font-size: 14px; font-family: inherit; stroke: transparent; letter-spacing: normal; padding: 8px; stroke-width: 0;">2020</tspan></text></g><g role="presentation"><line x1="531.4813674511951" x2="531.4813674511951" y1="274" y2="34" role="presentation" shape-rendering="auto" vector-effect="non-scaling-stroke" style="stroke: transparent; fill: transparent; stroke-width: 1; stroke-linecap: round; stroke-linejoin: round; pointer-events: none;"></line><line x1="531.4813674511951" x2="531.4813674511951" y1="274" y2="278" role="presentation" shape-rendering="auto" vector-effect="non-scaling-stroke" style="stroke: transparent; fill: transparent; size: 4px; stroke-width: 1; stroke-linecap: round; stroke-linejoin: round;"></line><text dx="0" dy="11.969999999999999" x="531.4813674511951" y="286"><tspan x="531.4813674511951" dx="0" text-anchor="middle" style="fill: rgb(153, 153, 153); font-size: 14px; font-family: inherit; stroke: transparent; letter-spacing: normal; padding: 8px; stroke-width: 0;">2021</tspan></text></g></g><g role="presentation"><line x1="578" x2="578" y1="34" y2="274" role="presentation" shape-rendering="auto" vector-effect="non-scaling-stroke" style="stroke: transparent; fill: transparent; stroke-width: 1; stroke-linejoin: round;"></line><g role="presentation"><line x1="578" x2="15" y1="274" y2="274" role="presentation" shape-rendering="auto" vector-effect="non-scaling-stroke" style="stroke: rgb(226, 226, 226); fill: transparent; stroke-width: 1; stroke-linecap: round; stroke-linejoin: round; pointer-events: none;"></line><line x1="578" x2="582" y1="274" y2="274" role="presentation" shape-rendering="auto" vector-effect="non-scaling-stroke" style="stroke: transparent; fill: transparent; size: 4px; stroke-width: 1; stroke-linecap: round; stroke-linejoin: round;"></line><text dx="0" dy="4.97" x="590" y="274"><tspan x="590" dx="0" text-anchor="start" style="fill: rgb(153, 153, 153); font-size: 14px; font-family: inherit; stroke: transparent; letter-spacing: normal; padding: 8px; stroke-width: 0;">$200K</tspan></text></g><g role="presentation"><line x1="578" x2="15" y1="214" y2="214" role="presentation" shape-rendering="auto" vector-effect="non-scaling-stroke" style="stroke: rgb(226, 226, 226); fill: transparent; stroke-width: 1; stroke-linecap: round; stroke-linejoin: round; pointer-events: none;"></line><line x1="578" x2="582" y1="214" y2="214" role="presentation" shape-rendering="auto" vector-effect="non-scaling-stroke" style="stroke: transparent; fill: transparent; size: 4px; stroke-width: 1; stroke-linecap: round; stroke-linejoin: round;"></line><text dx="0" dy="4.97" x="590" y="214"><tspan x="590" dx="0" text-anchor="start" style="fill: rgb(153, 153, 153); font-size: 14px; font-family: inherit; stroke: transparent; letter-spacing: normal; padding: 8px; stroke-width: 0;">$300K</tspan></text></g><g role="presentation"><line x1="578" x2="15" y1="154" y2="154" role="presentation" shape-rendering="auto" vector-effect="non-scaling-stroke" style="stroke: rgb(226, 226, 226); fill: transparent; stroke-width: 1; stroke-linecap: round; stroke-linejoin: round; pointer-events: none;"></line><line x1="578" x2="582" y1="154" y2="154" role="presentation" shape-rendering="auto" vector-effect="non-scaling-stroke" style="stroke: transparent; fill: transparent; size: 4px; stroke-width: 1; stroke-linecap: round; stroke-linejoin: round;"></line><text dx="0" dy="4.97" x="590" y="154"><tspan x="590" dx="0" text-anchor="start" style="fill: rgb(153, 153, 153); font-size: 14px; font-family: inherit; stroke: transparent; letter-spacing: normal; padding: 8px; stroke-width: 0;">$400K</tspan></text></g><g role="presentation"><line x1="578" x2="15" y1="94" y2="94" role="presentation" shape-rendering="auto" vector-effect="non-scaling-stroke" style="stroke: rgb(226, 226, 226); fill: transparent; stroke-width: 1; stroke-linecap: round; stroke-linejoin: round; pointer-events: none;"></line><line x1="578" x2="582" y1="94" y2="94" role="presentation" shape-rendering="auto" vector-effect="non-scaling-stroke" style="stroke: transparent; fill: transparent; size: 4px; stroke-width: 1; stroke-linecap: round; stroke-linejoin: round;"></line><text dx="0" dy="4.97" x="590" y="94"><tspan x="590" dx="0" text-anchor="start" style="fill: rgb(153, 153, 153); font-size: 14px; font-family: inherit; stroke: transparent; letter-spacing: normal; padding: 8px; stroke-width: 0;">$500K</tspan></text></g><g role="presentation"><line x1="578" x2="15" y1="34" y2="34" role="presentation" shape-rendering="auto" vector-effect="non-scaling-stroke" style="stroke: rgb(226, 226, 226); fill: transparent; stroke-width: 1; stroke-linecap: round; stroke-linejoin: round; pointer-events: none;"></line><line x1="578" x2="582" y1="34" y2="34" role="presentation" shape-rendering="auto" vector-effect="non-scaling-stroke" style="stroke: transparent; fill: transparent; size: 4px; stroke-width: 1; stroke-linecap: round; stroke-linejoin: round;"></line><text dx="0" dy="4.97" x="590" y="34"><tspan x="590" dx="0" text-anchor="start" style="fill: rgb(153, 153, 153); font-size: 14px; font-family: inherit; stroke: transparent; letter-spacing: normal; padding: 8px; stroke-width: 0;">$600K</tspan></text></g></g><g style="height: 100%; width: 100%; user-select: none;"><defs><clipPath id="victory-clip-5"><rect x="15" y="34" width="563" height="240"></rect></clipPath></defs><g clip-path="url(#victory-clip-5)"><path shape-rendering="auto" role="presentation" d="M24.5528188286809,118.60000000000002C27.73709177157453,149.425,30.921364714468165,180.25,34.1056376573618,180.25C37.28991060025543,180.25,40.47418354314906,153.4039,43.658456486042695,153.4039C46.7400109469075,153.4039,49.821565407772304,161.5,52.90311986863711,161.5C56.08739281153075,161.5,59.271665754424376,154.36,62.45593869731801,154.36C65.54177309493402,154.36,68.62760749255003,176.97620967741935,71.71344189016602,182.5C74.89771483305965,188.20000000000002,78.0819877759533,191.05,81.26626071884692,191.05C84.45053366174056,191.05,87.63480660463419,190.78,90.81907954752783,190.24C93.69519704433499,189.75225806451613,96.57131454114213,174.23734085385863,99.44743203794928,166C102.62742504409171,156.89234485949856,105.80741805023415,138.1,108.98741105637657,138.1C112.06896551724138,138.1,115.15051997810617,142.53940772078266,118.23207443897098,145.33C121.41634738186463,148.21361202185793,124.60062032475825,155.2,127.7848932676519,155.2C130.8664477285167,155.2,133.9480021893815,145.6,137.02955665024632,145.6C140.21382959313993,145.6,143.39810253603358,175.60000000000002,146.5823754789272,175.60000000000002C149.76664842182083,175.60000000000002,152.95092136471445,130.74666666666664,156.1351943076081,123.1C159.2167487684729,115.7,162.2983032293377,112,165.37985769020253,112C168.56413063309614,112,171.74840357598978,217.6,174.9326765188834,217.6C178.0185109164994,217.6,181.10434531411542,163.87,184.19017971173142,163.87C187.37445265462506,163.87,190.55872559751867,181.95999999999998,193.74299854041232,181.95999999999998C196.92727148330596,181.95999999999998,200.1115444261996,147.21428571428572,203.29581736909324,145C206.1719348659004,143,209.04805236270755,142,211.9241698595147,142C215.10416286565712,142,218.28415587179956,151.93611111111113,221.46414887794197,154C224.5457033388068,156,227.62725779967158,157,230.7088122605364,157C233.89308520343002,157,237.07735814632366,142,240.26163108921727,142C243.3431855500821,142,246.4247400109469,156.70735060814383,249.5062944718117,162.39999999999998C252.69056741470536,168.28240437158468,255.874840357599,176.5,259.05911330049264,176.5C262.2433862433863,176.5,265.42765918627987,160.9,268.6119321291735,160.9C271.69348659003833,160.9,274.7750410509031,175.573,277.8565955117679,175.573C281.04086845466156,175.573,284.22514139755515,174.85,287.4094143404488,174.85C290.4952487380648,174.85,293.58108313568084,191.2,296.66691753329684,191.2C299.8511904761905,191.2,303.03546341908407,178.14999999999998,306.2197363619777,173.2C309.40400930487135,168.24999999999997,312.588282247765,164.6888014527845,315.77255519065864,161.5C318.6486726874658,158.61979223619463,321.52479018427294,157.18219851713758,324.4009076810801,154.6C327.58090068722254,151.74497991334343,330.76089369336495,145,333.94088669950736,145C337.0224411603722,145,340.10399562123695,165.22,343.18555008210177,165.22C346.3698230249954,165.22,349.55409596788905,139.71229508196723,352.7383689107827,130C355.8199233716475,120.6010047593866,358.9014778325123,107.5,361.9830322933771,107.5C365.16730523627075,107.5,368.35157817916433,148,371.535851122058,148C374.7201240649516,148,377.90439700784526,135.85,381.0886699507389,135.85C384.1702244116037,135.85,387.2517788724685,149.5,390.3333333333333,149.5C393.51760627622696,149.5,396.7018792191206,149,399.88615216201424,148C402.97198655963024,147.03091397849462,406.0578209572463,71.5,409.1436553548623,71.5C412.32792829775593,71.5,415.5122012406495,139,418.69647418354316,139C421.8807471264368,139,425.0650200693304,127,428.24929301222403,127C431.22812899106003,127,434.206964969896,155.22261103633915,437.185800948732,160C440.3657939548744,165.1,443.54578696101686,167.65,446.72577996715927,167.65C449.8073344280241,167.65,452.8888888888889,121,455.97044334975374,121C459.1547162926473,121,462.33898923554096,181.6,465.52326217843455,181.6C468.6048166392994,181.6,471.6863711001642,156.86451612903227,474.767925561029,154.6C477.95219850392266,152.26,481.1364714468163,153.42999999999998,484.32074438970994,151.08999999999997C487.50501733260353,148.75,490.68929027549717,127.52666666666664,493.87356321839076,126.69999999999999C496.9551176792556,125.89999999999999,500.0366721401204,125.5,503.1182266009852,125.5C506.3024995438788,125.5,509.48677248677245,126,512.671045429666,127C515.7568798272821,127.9690860215054,518.8427142248981,142.82951117472197,521.9285486225142,149.5C525.1128215654078,156.3832783439761,528.2970945083015,163.05,531.4813674511951,167.5C534.6656403940887,171.95,537.8499133369824,176.2,541.0341862798759,176.2C543.9103037766831,176.2,546.7864212734902,147.7244279946164,549.6625387702974,142.75C552.8425317764398,137.25,556.0225247825822,136.42987573099415,559.2025177887247,134.5C562.2840722495895,132.62986470213218,565.3656267104543,133.4,568.4471811713191,131.20000000000002C571.6314541142127,128.9266666666667,574.8157270571064,116.26333333333336,578,103.60000000000002" style="fill: transparent; stroke: rgb(51, 51, 51); stroke-width: 2; opacity: 1;"></path></g></g></svg>