<svg xmlns="http://www.w3.org/2000/svg" width="640" height="324" role="img" aria-labelledby="victory-container-4-title victory-container-4-desc" viewBox="0 0 640 324" style="pointer-events: all; width: 100%; height: 100%;"><g role="presentation"><line x1="15" x2="578" y1="274" y2="274" role="presentation" shape-rendering="auto" vector-effect="non-scaling-stroke" style="stroke: rgb(226, 226, 226); fill: transparent; stroke-width: 1; stroke-linejoin: round;"></line><g role="presentation"><line x1="81.26626071884692" x2="81.26626071884692" y1="274" y2="34" role="presentation" shape-rendering="auto" vector-effect="non-scaling-stroke" style="stroke: transparent; fill: transparent; stroke-width: 1; stroke-linecap: round; stroke-linejoin: round; pointer-events: none;"></line><line x1="81.26626071884692" x2="81.26626071884692" y1="274" y2="278" role="presentation" shape-rendering="auto" vector-effect="non-scaling-stroke" style="stroke: transparent; fill: transparent; size: 4px; stroke-width: 1; stroke-linecap: round; stroke-linejoin: round;"></line><text dx="0" dy="11.969999999999999" x="81.26626071884692" y="286"><tspan x="81.26626071884692" dx="0" text-anchor="middle" style="fill: rgb(153, 153, 153); font-size: 14px; font-family: inherit; stroke: transparent; letter-spacing: normal; padding: 8px; stroke-width: 0;">2017</tspan></text></g><g role="presentation"><line x1="193.74299854041232" x2="193.74299854041232" y1="274" y2="34" role="presentation" shape-rendering="auto" vector-effect="non-scaling-stroke" style="stroke: transparent; fill: transparent; stroke-width: 1; stroke-linecap: round; stroke-linejoin: round; pointer-events: none;"></line><line x1="193.74299854041232" x2="193.74299854041232" y1="274" y2="278" role="presentation" shape-rendering="auto" vector-effect="non-scaling-stroke" style="stroke: transparent; fill: transparent; size: 4px; stroke-width: 1; stroke-linecap: round; stroke-linejoin: round;"></line><text dx="0" dy="11.969999999999999" x="193.74299854041232" y="286"><tspan x="193.74299854041232" dx="0" text-anchor="middle" style="fill: rgb(153, 153, 153); font-size: 14px; font-family: inherit; stroke: transparent; letter-spacing: normal; padding: 8px; stroke-width: 0;">2018</tspan></text></g><g role="presentation"><line x1="306.2197363619777" x2="306.2197363619777" y1="274" y2="34" role="presentation" shape-rendering="auto" vector-effect="non-scaling-stroke" style="stroke: transparent; fill: transparent; stroke-width: 1; stroke-linecap: round; stroke-linejoin: round; pointer-events: none;"></line><line x1="306.2197363619777" x2="306.2197363619777" y1="274" y2="278" role="presentation" shape-rendering="auto" vector-effect="non-scaling-stroke" style="stroke: transparent; fill: transparent; size: 4px; stroke-width: 1; stroke-linecap: round; stroke-linejoin: round;"></line><text dx="0" dy="11.969999999999999" x="306.2197363619777" y="286"><tspan x="306.2197363619777" dx="0" text-anchor="middle" style="fill: rgb(153, 153, 153); font-size: 14px; font-family: inherit; stroke: transparent; letter-spacing: normal; padding: 8px; stroke-width: 0;">2019</tspan></text></g><g role="presentation"><line x1="418.69647418354316" x2="418.69647418354316" y1="274" y2="34" role="presentation" shape-rendering="auto" vector-effect="non-scaling-stroke" style="stroke: transparent; fill: transparent; stroke-width: 1; stroke-linecap: round; stroke-linejoin: round; pointer-events: none;"></line><line x1="418.69647418354316" x2="418.69647418354316" y1="274" y2="278" role="presentation" shape-rendering="auto" vector-effect="non-scaling-stroke" style="stroke: transparent; fill: transparent; size: 4px; stroke-width: 1; stroke-linecap: round; stroke-linejoin: round;"></line><text dx="0" dy="11.969999999999999" x="418.69647418354316" y="286"><tspan x="418.69647418354316" dx="0" text-anchor="middle" style="fill: rgb(153, 153, 153); font-size: 14px; font-family: inherit; stroke: transparent; letter-spacing: normal; padding: 8px; stroke-width: 0;">2020</tspan></text></g><g role="presentation"><line x1="531.4813674511951" x2="531.4813674511951" y1="274" y2="34" role="presentation" shape-rendering="auto" vector-effect="non-scaling-stroke" style="stroke: transparent; fill: transparent; stroke-width: 1; stroke-linecap: round; stroke-linejoin: round; pointer-events: none;"></line><line x1="531.4813674511951" x2="531.4813674511951" y1="274" y2="278" role="presentation" shape-rendering="auto" vector-effect="non-scaling-stroke" style="stroke: transparent; fill: transparent; size: 4px; stroke-width: 1; stroke-linecap: round; stroke-linejoin: round;"></line><text dx="0" dy="11.969999999999999" x="531.4813674511951" y="286"><tspan x="531.4813674511951" dx="0" text-anchor="middle" style="fill: rgb(153, 153, 153); font-size: 14px; font-family: inherit; stroke: transparent; letter-spacing: normal; padding: 8px; stroke-width: 0;">2021</tspan></text></g></g><g role="presentation"><line x1="578" x2="578" y1="34" y2="274" role="presentation" shape-rendering="auto" vector-effect="non-scaling-stroke" style="stroke: transparent; fill: transparent; stroke-width: 1; stroke-linejoin: round;"></line><g role="presentation"><line x1="578" x2="15" y1="255.53846153846155" y2="255.53846153846155" role="presentation" shape-rendering="auto" vector-effect="non-scaling-stroke" style="stroke: rgb(226, 226, 226); fill: transparent; stroke-width: 1; stroke-linecap: round; stroke-linejoin: round; pointer-events: none;"></line><line x1="578" x2="582" y1="255.53846153846155" y2="255.53846153846155" role="presentation" shape-rendering="auto" vector-effect="non-scaling-stroke" style="stroke: transparent; fill: transparent; size: 4px; stroke-width: 1; stroke-linecap: round; stroke-linejoin: round;"></line><text dx="0" dy="4.97" x="590" y="255.53846153846155"><tspan x="590" dx="0" text-anchor="start" style="fill: rgb(153, 153, 153); font-size: 14px; font-family: inherit; stroke: transparent; letter-spacing: normal; padding: 8px; stroke-width: 0;">$50K</tspan></text></g><g role="presentation"><line x1="578" x2="15" y1="209.3846153846154" y2="209.3846153846154" role="presentation" shape-rendering="auto" vector-effect="non-scaling-stroke" style="stroke: rgb(226, 226, 226); fill: transparent; stroke-width: 1; stroke-linecap: round; stroke-linejoin: round; pointer-events: none;"></line><line x1="578" x2="582" y1="209.3846153846154" y2="209.3846153846154" role="presentation" shape-rendering="auto" vector-effect="non-scaling-stroke" style="stroke: transparent; fill: transparent; size: 4px; stroke-width: 1; stroke-linecap: round; stroke-linejoin: round;"></line><text dx="0" dy="4.97" x="590" y="209.3846153846154"><tspan x="590" dx="0" text-anchor="start" style="fill: rgb(153, 153, 153); font-size: 14px; font-family: inherit; stroke: transparent; letter-spacing: normal; padding: 8px; stroke-width: 0;">$100K</tspan></text></g><g role="presentation"><line x1="578" x2="15" y1="163.23076923076923" y2="163.23076923076923" role="presentation" shape-rendering="auto" vector-effect="non-scaling-stroke" style="stroke: rgb(226, 226, 226); fill: transparent; stroke-width: 1; stroke-linecap: round; stroke-linejoin: round; pointer-events: none;"></line><line x1="578" x2="582" y1="163.23076923076923" y2="163.23076923076923" role="presentation" shape-rendering="auto" vector-effect="non-scaling-stroke" style="stroke: transparent; fill: transparent; size: 4px; stroke-width: 1; stroke-linecap: round; stroke-linejoin: round;"></line><text dx="0" dy="4.97" x="590" y="163.23076923076923"><tspan x="590" dx="0" text-anchor="start" style="fill: rgb(153, 153, 153); font-size: 14px; font-family: inherit; stroke: transparent; letter-spacing: normal; padding: 8px; stroke-width: 0;">$150K</tspan></text></g><g role="presentation"><line x1="578" x2="15" y1="117.07692307692307" y2="117.07692307692307" role="presentation" shape-rendering="auto" vector-effect="non-scaling-stroke" style="stroke: rgb(226, 226, 226); fill: transparent; stroke-width: 1; stroke-linecap: round; stroke-linejoin: round; pointer-events: none;"></line><line x1="578" x2="582" y1="117.07692307692307" y2="117.07692307692307" role="presentation" shape-rendering="auto" vector-effect="non-scaling-stroke" style="stroke: transparent; fill: transparent; size: 4px; stroke-width: 1; stroke-linecap: round; stroke-linejoin: round;"></line><text dx="0" dy="4.97" x="590" y="117.07692307692307"><tspan x="590" dx="0" text-anchor="start" style="fill: rgb(153, 153, 153); font-size: 14px; font-family: inherit; stroke: transparent; letter-spacing: normal; padding: 8px; stroke-width: 0;">$200K</tspan></text></g><g role="presentation"><line x1="578" x2="15" y1="70.92307692307693" y2="70.92307692307693" role="presentation" shape-rendering="auto" vector-effect="non-scaling-stroke" style="stroke: rgb(226, 226, 226); fill: transparent; stroke-width: 1; stroke-linecap: round; stroke-linejoin: round; pointer-events: none;"></line><line x1="578" x2="582" y1="70.92307692307693" y2="70.92307692307693" role="presentation" shape-rendering="auto" vector-effect="non-scaling-stroke" style="stroke: transparent; fill: transparent; size: 4px; stroke-width: 1; stroke-linecap: round; stroke-linejoin: round;"></line><text dx="0" dy="4.97" x="590" y="70.92307692307693"><tspan x="590" dx="0" text-anchor="start" style="fill: rgb(153, 153, 153); font-size: 14px; font-family: inherit; stroke: transparent; letter-spacing: normal; padding: 8px; stroke-width: 0;">$250K</tspan></text></g></g><g style="height: 100%; width: 100%; user-select: none;"><defs><clipPath id="victory-clip-5"><rect x="15" y="34" width="563" height="240"></rect></clipPath></defs><g clip-path="url(#victory-clip-5)"><path shape-rendering="auto" role="presentation" d="M24.5528188286809,96.30769230769229C27.73709177157453,117.12346153846151,30.921364714468165,137.93923076923073,34.1056376573618,142.55430769230767C37.28991060025543,147.16938461538462,40.47418354314906,149.47692307692307,43.658456486042695,149.47692307692307C46.7400109469075,149.47692307692307,49.821565407772304,139.23076923076923,52.90311986863711,139.23076923076923C56.08739281153075,139.23076923076923,59.271665754424376,170.6153846153846,62.45593869731801,170.6153846153846C65.54177309493402,170.6153846153846,68.62760749255003,155.3846153846154,71.71344189016602,155.3846153846154C74.89771483305965,155.3846153846154,78.0819877759533,272.15384615384613,81.26626071884692,272.15384615384613C84.45053366174056,272.15384615384613,87.63480660463419,191.54688955112687,90.81907954752783,165.0769230769231C93.69519704433499,141.1685662615133,96.57131454114213,115.92307692307693,99.44743203794928,115.92307692307693C102.62742504409171,115.92307692307693,105.80741805023415,174.8769230769231,108.98741105637657,186.30769230769232C112.06896551724138,197.3846153846154,115.15051997810617,202.9230769230769,118.23207443897098,202.9230769230769C121.41634738186463,202.9230769230769,124.60062032475825,129.21641025641028,127.7848932676519,127.27692307692308C130.8664477285167,125.39999999999999,133.9480021893815,126.33846153846154,137.02955665024632,124.46153846153845C140.21382959313993,122.52205128205127,143.39810253603358,100.92307692307693,146.5823754789272,100.92307692307693C149.76664842182083,100.92307692307693,152.95092136471445,145.25401849516606,156.1351943076081,174.33076923076922C159.2167487684729,202.46956026522395,162.2983032293377,271.6923076923077,165.37985769020253,271.6923076923077C168.56413063309614,271.6923076923077,171.74840357598978,255.48235309539524,174.9326765188834,241.69230769230768C178.0185109164994,228.32856745625102,181.10434531411542,190.9230769230769,184.19017971173142,190.9230769230769C187.37445265462506,190.9230769230769,190.55872559751867,251.00846153846155,193.74299854041232,251.00846153846155C196.92727148330596,251.00846153846155,200.1115444261996,118,203.29581736909324,118C206.1719348659004,118,209.04805236270755,160.23076923076923,211.9241698595147,160.23076923076923C215.10416286565712,160.23076923076923,218.28415587179956,119.84615384615384,221.46414887794197,119.84615384615384C224.5457033388068,119.84615384615384,227.62725779967158,126.46243338892727,230.7088122605364,132.3076923076923C233.89308520343002,138.34779319041613,237.07735814632366,155.84615384615384,240.26163108921727,155.84615384615384C243.3431855500821,155.84615384615384,246.4247400109469,131.15384615384616,249.5062944718117,131.15384615384616C252.69056741470536,131.15384615384616,255.874840357599,137.56923076923076,259.05911330049264,137.56923076923076C262.2433862433863,137.56923076923076,265.42765918627987,123.74510298444724,268.6119321291735,117.16923076923078C271.69348659003833,110.80548346418257,274.7750410509031,98.7076923076923,277.8565955117679,98.7076923076923C281.04086845466156,98.7076923076923,284.22514139755515,112.34144884241974,287.4094143404488,115.23076923076923C290.4952487380648,118.03076923076922,293.58108313568084,116.63076923076922,296.66691753329684,119.43076923076922C299.8511904761905,122.3200896191187,303.03546341908407,190.9230769230769,306.2197363619777,190.9230769230769C309.40400930487135,190.9230769230769,312.588282247765,147.90808344198174,315.77255519065864,134.6153846153846C318.6486726874658,122.609075997813,321.52479018427294,116.73092452634855,324.4009076810801,112C327.58090068722254,106.76923076923076,330.76089369336495,105.4239316239316,333.94088669950736,104.15384615384613C337.0224411603722,102.9230769230769,340.10399562123695,103.35264206972296,343.18555008210177,102.30769230769229C346.3698230249954,101.22791088692726,349.55409596788905,97.69230769230768,352.7383689107827,97.69230769230768C355.8199233716475,97.69230769230768,358.9014778325123,104.36879144123988,361.9830322933771,107.84615384615384C365.16730523627075,111.4394283312316,368.35157817916433,118.9230769230769,371.535851122058,118.9230769230769C374.7201240649516,118.9230769230769,377.90439700784526,105.04923076923077,381.0886699507389,105.04923076923077C384.1702244116037,105.04923076923077,387.2517788724685,106.90461538461538,390.3333333333333,110.61538461538461C393.51760627622696,114.44984615384617,396.7018792191206,135.53846153846155,399.88615216201424,135.53846153846155C402.97198655963024,135.53846153846155,406.0578209572463,34.00923076923078,409.1436553548623,34.00923076923078C412.32792829775593,34.00923076923078,415.5122012406495,130.46153846153845,418.69647418354316,130.46153846153845C421.8807471264368,130.46153846153845,425.0650200693304,77.84615384615384,428.24929301222403,77.84615384615384C431.22812899106003,77.84615384615384,434.206964969896,98.61538461538461,437.185800948732,98.61538461538461C440.3657939548744,98.61538461538461,443.54578696101686,70.77676255177568,446.72577996715927,61.784615384615364C449.8073344280241,53.0708253975959,452.8888888888889,44.89692307692309,455.97044334975374,44.89692307692309C459.1547162926473,44.89692307692309,462.33898923554096,59.58734762505267,465.52326217843455,70.92307692307693C468.6048166392994,81.8931375340683,471.6863711001642,111.30769230769229,474.767925561029,111.30769230769229C477.95219850392266,111.30769230769229,481.1364714468163,43.3336923076923,484.32074438970994,43.3336923076923C487.50501733260353,43.3336923076923,490.68929027549717,80.15384615384616,493.87356321839076,80.15384615384616C496.9551176792556,80.15384615384616,500.0366721401204,66.30769230769229,503.1182266009852,66.30769230769229C506.3024995438788,66.30769230769229,509.48677248677245,76.92307692307693,512.671045429666,76.92307692307693C515.7568798272821,76.92307692307693,518.8427142248981,52.47076923076921,521.9285486225142,52.47076923076921C525.1128215654078,52.47076923076921,528.2970945083015,64.96923076923076,531.4813674511951,64.96923076923076C534.6656403940887,64.96923076923076,537.8499133369824,59.6516409014714,541.0341862798759,57.58923076923077C543.9103037766831,55.72640871430374,546.7864212734902,55.175333341869404,549.6625387702974,52.973846153846154C552.8425317764398,50.539761361135916,556.0225247825822,45.805955240665774,559.2025177887247,43.24000000000001C562.2840722495895,40.75347540608431,565.3656267104543,37.69230769230768,568.4471811713191,37.69230769230768C571.6314541142127,37.69230769230768,574.8157270571064,41.84615384615384,578,46" style="fill: transparent; stroke: rgb(51, 51, 51); stroke-width: 2; opacity: 1;"></path></g></g></svg>