<svg xmlns="http://www.w3.org/2000/svg" width="640" height="324" role="img" aria-labelledby="victory-container-4-title victory-container-4-desc" viewBox="0 0 640 324" style="pointer-events: all; width: 100%; height: 100%;"><g role="presentation"><line x1="15" x2="578" y1="274" y2="274" role="presentation" shape-rendering="auto" vector-effect="non-scaling-stroke" style="stroke: rgb(226, 226, 226); fill: transparent; stroke-width: 1; stroke-linejoin: round;"></line><g role="presentation"><line x1="81.26626071884692" x2="81.26626071884692" y1="274" y2="34" role="presentation" shape-rendering="auto" vector-effect="non-scaling-stroke" style="stroke: transparent; fill: transparent; stroke-width: 1; stroke-linecap: round; stroke-linejoin: round; pointer-events: none;"></line><line x1="81.26626071884692" x2="81.26626071884692" y1="274" y2="278" role="presentation" shape-rendering="auto" vector-effect="non-scaling-stroke" style="stroke: transparent; fill: transparent; size: 4px; stroke-width: 1; stroke-linecap: round; stroke-linejoin: round;"></line><text dx="0" dy="11.969999999999999" x="81.26626071884692" y="286"><tspan x="81.26626071884692" dx="0" text-anchor="middle" style="fill: rgb(153, 153, 153); font-size: 14px; font-family: inherit; stroke: transparent; letter-spacing: normal; padding: 8px; stroke-width: 0;">2017</tspan></text></g><g role="presentation"><line x1="193.74299854041232" x2="193.74299854041232" y1="274" y2="34" role="presentation" shape-rendering="auto" vector-effect="non-scaling-stroke" style="stroke: transparent; fill: transparent; stroke-width: 1; stroke-linecap: round; stroke-linejoin: round; pointer-events: none;"></line><line x1="193.74299854041232" x2="193.74299854041232" y1="274" y2="278" role="presentation" shape-rendering="auto" vector-effect="non-scaling-stroke" style="stroke: transparent; fill: transparent; size: 4px; stroke-width: 1; stroke-linecap: round; stroke-linejoin: round;"></line><text dx="0" dy="11.969999999999999" x="193.74299854041232" y="286"><tspan x="193.74299854041232" dx="0" text-anchor="middle" style="fill: rgb(153, 153, 153); font-size: 14px; font-family: inherit; stroke: transparent; letter-spacing: normal; padding: 8px; stroke-width: 0;">2018</tspan></text></g><g role="presentation"><line x1="306.2197363619777" x2="306.2197363619777" y1="274" y2="34" role="presentation" shape-rendering="auto" vector-effect="non-scaling-stroke" style="stroke: transparent; fill: transparent; stroke-width: 1; stroke-linecap: round; stroke-linejoin: round; pointer-events: none;"></line><line x1="306.2197363619777" x2="306.2197363619777" y1="274" y2="278" role="presentation" shape-rendering="auto" vector-effect="non-scaling-stroke" style="stroke: transparent; fill: transparent; size: 4px; stroke-width: 1; stroke-linecap: round; stroke-linejoin: round;"></line><text dx="0" dy="11.969999999999999" x="306.2197363619777" y="286"><tspan x="306.2197363619777" dx="0" text-anchor="middle" style="fill: rgb(153, 153, 153); font-size: 14px; font-family: inherit; stroke: transparent; letter-spacing: normal; padding: 8px; stroke-width: 0;">2019</tspan></text></g><g role="presentation"><line x1="418.69647418354316" x2="418.69647418354316" y1="274" y2="34" role="presentation" shape-rendering="auto" vector-effect="non-scaling-stroke" style="stroke: transparent; fill: transparent; stroke-width: 1; stroke-linecap: round; stroke-linejoin: round; pointer-events: none;"></line><line x1="418.69647418354316" x2="418.69647418354316" y1="274" y2="278" role="presentation" shape-rendering="auto" vector-effect="non-scaling-stroke" style="stroke: transparent; fill: transparent; size: 4px; stroke-width: 1; stroke-linecap: round; stroke-linejoin: round;"></line><text dx="0" dy="11.969999999999999" x="418.69647418354316" y="286"><tspan x="418.69647418354316" dx="0" text-anchor="middle" style="fill: rgb(153, 153, 153); font-size: 14px; font-family: inherit; stroke: transparent; letter-spacing: normal; padding: 8px; stroke-width: 0;">2020</tspan></text></g><g role="presentation"><line x1="531.4813674511951" x2="531.4813674511951" y1="274" y2="34" role="presentation" shape-rendering="auto" vector-effect="non-scaling-stroke" style="stroke: transparent; fill: transparent; stroke-width: 1; stroke-linecap: round; stroke-linejoin: round; pointer-events: none;"></line><line x1="531.4813674511951" x2="531.4813674511951" y1="274" y2="278" role="presentation" shape-rendering="auto" vector-effect="non-scaling-stroke" style="stroke: transparent; fill: transparent; size: 4px; stroke-width: 1; stroke-linecap: round; stroke-linejoin: round;"></line><text dx="0" dy="11.969999999999999" x="531.4813674511951" y="286"><tspan x="531.4813674511951" dx="0" text-anchor="middle" style="fill: rgb(153, 153, 153); font-size: 14px; font-family: inherit; stroke: transparent; letter-spacing: normal; padding: 8px; stroke-width: 0;">2021</tspan></text></g></g><g role="presentation"><line x1="578" x2="578" y1="34" y2="274" role="presentation" shape-rendering="auto" vector-effect="non-scaling-stroke" style="stroke: transparent; fill: transparent; stroke-width: 1; stroke-linejoin: round;"></line><g role="presentation"><line x1="578" x2="15" y1="274" y2="274" role="presentation" shape-rendering="auto" vector-effect="non-scaling-stroke" style="stroke: rgb(226, 226, 226); fill: transparent; stroke-width: 1; stroke-linecap: round; stroke-linejoin: round; pointer-events: none;"></line><line x1="578" x2="582" y1="274" y2="274" role="presentation" shape-rendering="auto" vector-effect="non-scaling-stroke" style="stroke: transparent; fill: transparent; size: 4px; stroke-width: 1; stroke-linecap: round; stroke-linejoin: round;"></line><text dx="0" dy="4.97" x="590" y="274"><tspan x="590" dx="0" text-anchor="start" style="fill: rgb(153, 153, 153); font-size: 14px; font-family: inherit; stroke: transparent; letter-spacing: normal; padding: 8px; stroke-width: 0;">$100K</tspan></text></g><g role="presentation"><line x1="578" x2="15" y1="214" y2="214" role="presentation" shape-rendering="auto" vector-effect="non-scaling-stroke" style="stroke: rgb(226, 226, 226); fill: transparent; stroke-width: 1; stroke-linecap: round; stroke-linejoin: round; pointer-events: none;"></line><line x1="578" x2="582" y1="214" y2="214" role="presentation" shape-rendering="auto" vector-effect="non-scaling-stroke" style="stroke: transparent; fill: transparent; size: 4px; stroke-width: 1; stroke-linecap: round; stroke-linejoin: round;"></line><text dx="0" dy="4.97" x="590" y="214"><tspan x="590" dx="0" text-anchor="start" style="fill: rgb(153, 153, 153); font-size: 14px; font-family: inherit; stroke: transparent; letter-spacing: normal; padding: 8px; stroke-width: 0;">$150K</tspan></text></g><g role="presentation"><line x1="578" x2="15" y1="154" y2="154" role="presentation" shape-rendering="auto" vector-effect="non-scaling-stroke" style="stroke: rgb(226, 226, 226); fill: transparent; stroke-width: 1; stroke-linecap: round; stroke-linejoin: round; pointer-events: none;"></line><line x1="578" x2="582" y1="154" y2="154" role="presentation" shape-rendering="auto" vector-effect="non-scaling-stroke" style="stroke: transparent; fill: transparent; size: 4px; stroke-width: 1; stroke-linecap: round; stroke-linejoin: round;"></line><text dx="0" dy="4.97" x="590" y="154"><tspan x="590" dx="0" text-anchor="start" style="fill: rgb(153, 153, 153); font-size: 14px; font-family: inherit; stroke: transparent; letter-spacing: normal; padding: 8px; stroke-width: 0;">$200K</tspan></text></g><g role="presentation"><line x1="578" x2="15" y1="94" y2="94" role="presentation" shape-rendering="auto" vector-effect="non-scaling-stroke" style="stroke: rgb(226, 226, 226); fill: transparent; stroke-width: 1; stroke-linecap: round; stroke-linejoin: round; pointer-events: none;"></line><line x1="578" x2="582" y1="94" y2="94" role="presentation" shape-rendering="auto" vector-effect="non-scaling-stroke" style="stroke: transparent; fill: transparent; size: 4px; stroke-width: 1; stroke-linecap: round; stroke-linejoin: round;"></line><text dx="0" dy="4.97" x="590" y="94"><tspan x="590" dx="0" text-anchor="start" style="fill: rgb(153, 153, 153); font-size: 14px; font-family: inherit; stroke: transparent; letter-spacing: normal; padding: 8px; stroke-width: 0;">$250K</tspan></text></g><g role="presentation"><line x1="578" x2="15" y1="34" y2="34" role="presentation" shape-rendering="auto" vector-effect="non-scaling-stroke" style="stroke: rgb(226, 226, 226); fill: transparent; stroke-width: 1; stroke-linecap: round; stroke-linejoin: round; pointer-events: none;"></line><line x1="578" x2="582" y1="34" y2="34" role="presentation" shape-rendering="auto" vector-effect="non-scaling-stroke" style="stroke: transparent; fill: transparent; size: 4px; stroke-width: 1; stroke-linecap: round; stroke-linejoin: round;"></line><text dx="0" dy="4.97" x="590" y="34"><tspan x="590" dx="0" text-anchor="start" style="fill: rgb(153, 153, 153); font-size: 14px; font-family: inherit; stroke: transparent; letter-spacing: normal; padding: 8px; stroke-width: 0;">$300K</tspan></text></g></g><g style="height: 100%; width: 100%; user-select: none;"><defs><clipPath id="victory-clip-5"><rect x="15" y="34" width="563" height="240"></rect></clipPath></defs><g clip-path="url(#victory-clip-5)"><path shape-rendering="auto" role="presentation" d="M24.5528188286809,196.6396C27.73709177157453,205.31980000000001,30.921364714468165,214,34.1056376573618,214C37.28991060025543,214,40.47418354314906,213.2,43.658456486042695,211.6C46.7400109469075,210.0516129032258,49.821565407772304,202.12,52.90311986863711,202.12C56.08739281153075,202.12,59.271665754424376,215.8,62.45593869731801,215.8C65.54177309493402,215.8,68.62760749255003,215.20000000000002,71.71344189016602,214C74.89771483305965,212.76171983356448,78.0819877759533,209.8,81.26626071884692,208C84.45053366174056,206.2,87.63480660463419,205.18093220338983,90.81907954752783,203.2C93.69519704433499,201.41077091306724,96.57131454114213,196.9,99.44743203794928,196.9C102.62742504409171,196.9,105.80741805023415,202.60000000000002,108.98741105637657,202.60000000000002C112.06896551724138,202.60000000000002,115.15051997810617,179.32,118.23207443897098,179.32C121.41634738186463,179.32,124.60062032475825,200.34666666666666,127.7848932676519,202C130.8664477285167,203.6,133.9480021893815,204.4,137.02955665024632,204.4C140.21382959313993,204.4,143.39810253603358,199,146.5823754789272,199C149.76664842182083,199,152.95092136471445,204.5746666666667,156.1351943076081,205.36C159.2167487684729,206.12,162.2983032293377,206.5,165.37985769020253,206.5C168.56413063309614,206.5,171.74840357598978,195.39999999999998,174.9326765188834,195.39999999999998C178.0185109164994,195.39999999999998,181.10434531411542,239.8,184.19017971173142,239.8C187.37445265462506,239.8,190.55872559751867,215.4,193.74299854041232,214C196.92727148330596,212.6,200.1115444261996,213.3,203.29581736909324,211.9C206.1719348659004,210.63548387096776,209.04805236270755,206.2,211.9241698595147,206.2C215.10416286565712,206.2,218.28415587179956,211.6,221.46414887794197,211.6C224.5457033388068,211.6,227.62725779967158,184,230.7088122605364,184C233.89308520343002,184,237.07735814632366,196,240.26163108921727,196C243.3431855500821,196,246.4247400109469,190,249.5062944718117,190C252.69056741470536,190,255.874840357599,215.2,259.05911330049264,215.2C262.2433862433863,215.2,265.42765918627987,190,268.6119321291735,190C271.69348659003833,190,274.7750410509031,211.756,277.8565955117679,211.756C281.04086845466156,211.756,284.22514139755515,202.57196272905,287.4094143404488,198.4C290.4952487380648,194.3570092370362,293.58108313568084,187.06,296.66691753329684,187.06C299.8511904761905,187.06,303.03546341908407,189.26000000000002,306.2197363619777,193.6C309.40400930487135,197.94,312.588282247765,213.10000000000002,315.77255519065864,213.10000000000002C318.6486726874658,213.10000000000002,321.52479018427294,172.57,324.4009076810801,172.57C327.58090068722254,172.57,330.76089369336495,193.825,333.94088669950736,193.825C337.0224411603722,193.825,340.10399562123695,190,343.18555008210177,190C346.3698230249954,190,349.55409596788905,192.39999999999998,352.7383689107827,192.39999999999998C355.8199233716475,192.39999999999998,358.9014778325123,173.32776308831308,361.9830322933771,166C365.16730523627075,158.4279781420765,368.35157817916433,148,371.535851122058,148C374.7201240649516,148,377.90439700784526,151.7,381.0886699507389,159.1C384.1702244116037,166.2612903225806,387.2517788724685,191.86,390.3333333333333,191.86C393.51760627622696,191.86,396.7018792191206,187.95000000000002,399.88615216201424,180.13C402.97198655963024,172.55174731182794,406.0578209572463,139.6,409.1436553548623,139.6C412.32792829775593,139.6,415.5122012406495,166.94000000000003,418.69647418354316,175.60000000000002C421.8807471264368,184.26000000000002,425.0650200693304,191.56,428.24929301222403,191.56C431.22812899106003,191.56,434.206964969896,156.68200000000002,437.185800948732,156.68200000000002C440.3657939548744,156.68200000000002,443.54578696101686,178.82111111111112,446.72577996715927,184.6C449.8073344280241,190.2,452.8888888888889,193,455.97044334975374,193C459.1547162926473,193,462.33898923554096,163.01333333333324,465.52326217843455,156.4C468.6048166392994,150,471.6863711001642,146.8,474.767925561029,146.8C477.95219850392266,146.8,481.1364714468163,151.2,484.32074438970994,154C487.50501733260353,156.79999999999998,490.68929027549717,163.6,493.87356321839076,163.6C496.9551176792556,163.6,500.0366721401204,154,503.1182266009852,154C506.3024995438788,154,509.48677248677245,157.18723994452156,512.671045429666,157.60000000000002C515.7568798272821,158,518.8427142248981,158.2,521.9285486225142,158.2C525.1128215654078,158.2,528.2970945083015,158,531.4813674511951,157.60000000000002C534.6656403940887,157.20000000000005,537.8499133369824,135.9949152542373,541.0341862798759,130C543.9103037766831,124.58523783488245,546.7864212734902,121.6,549.6625387702974,121.6C552.8425317764398,121.6,556.0225247825822,122.8786,559.2025177887247,122.8786C562.2840722495895,122.8786,565.3656267104543,120.34943320994185,568.4471811713191,118C571.6314541142127,115.57225234972678,574.8157270571064,111.98612617486339,578,108.4" style="fill: transparent; stroke: rgb(51, 51, 51); stroke-width: 2; opacity: 1;"></path></g></g></svg>