<svg xmlns="http://www.w3.org/2000/svg" width="640" height="324" role="img" aria-labelledby="victory-container-4-title victory-container-4-desc" viewBox="0 0 640 324" style="pointer-events: all; width: 100%; height: 100%;"><g role="presentation"><line x1="15" x2="578" y1="274" y2="274" role="presentation" shape-rendering="auto" vector-effect="non-scaling-stroke" style="stroke: rgb(226, 226, 226); fill: transparent; stroke-width: 1; stroke-linejoin: round;"></line><g role="presentation"><line x1="81.26626071884692" x2="81.26626071884692" y1="274" y2="34" role="presentation" shape-rendering="auto" vector-effect="non-scaling-stroke" style="stroke: transparent; fill: transparent; stroke-width: 1; stroke-linecap: round; stroke-linejoin: round; pointer-events: none;"></line><line x1="81.26626071884692" x2="81.26626071884692" y1="274" y2="278" role="presentation" shape-rendering="auto" vector-effect="non-scaling-stroke" style="stroke: transparent; fill: transparent; size: 4px; stroke-width: 1; stroke-linecap: round; stroke-linejoin: round;"></line><text dx="0" dy="11.969999999999999" x="81.26626071884692" y="286"><tspan x="81.26626071884692" dx="0" text-anchor="middle" style="fill: rgb(153, 153, 153); font-size: 14px; font-family: inherit; stroke: transparent; letter-spacing: normal; padding: 8px; stroke-width: 0;">2017</tspan></text></g><g role="presentation"><line x1="193.74299854041232" x2="193.74299854041232" y1="274" y2="34" role="presentation" shape-rendering="auto" vector-effect="non-scaling-stroke" style="stroke: transparent; fill: transparent; stroke-width: 1; stroke-linecap: round; stroke-linejoin: round; pointer-events: none;"></line><line x1="193.74299854041232" x2="193.74299854041232" y1="274" y2="278" role="presentation" shape-rendering="auto" vector-effect="non-scaling-stroke" style="stroke: transparent; fill: transparent; size: 4px; stroke-width: 1; stroke-linecap: round; stroke-linejoin: round;"></line><text dx="0" dy="11.969999999999999" x="193.74299854041232" y="286"><tspan x="193.74299854041232" dx="0" text-anchor="middle" style="fill: rgb(153, 153, 153); font-size: 14px; font-family: inherit; stroke: transparent; letter-spacing: normal; padding: 8px; stroke-width: 0;">2018</tspan></text></g><g role="presentation"><line x1="306.2197363619777" x2="306.2197363619777" y1="274" y2="34" role="presentation" shape-rendering="auto" vector-effect="non-scaling-stroke" style="stroke: transparent; fill: transparent; stroke-width: 1; stroke-linecap: round; stroke-linejoin: round; pointer-events: none;"></line><line x1="306.2197363619777" x2="306.2197363619777" y1="274" y2="278" role="presentation" shape-rendering="auto" vector-effect="non-scaling-stroke" style="stroke: transparent; fill: transparent; size: 4px; stroke-width: 1; stroke-linecap: round; stroke-linejoin: round;"></line><text dx="0" dy="11.969999999999999" x="306.2197363619777" y="286"><tspan x="306.2197363619777" dx="0" text-anchor="middle" style="fill: rgb(153, 153, 153); font-size: 14px; font-family: inherit; stroke: transparent; letter-spacing: normal; padding: 8px; stroke-width: 0;">2019</tspan></text></g><g role="presentation"><line x1="418.69647418354316" x2="418.69647418354316" y1="274" y2="34" role="presentation" shape-rendering="auto" vector-effect="non-scaling-stroke" style="stroke: transparent; fill: transparent; stroke-width: 1; stroke-linecap: round; stroke-linejoin: round; pointer-events: none;"></line><line x1="418.69647418354316" x2="418.69647418354316" y1="274" y2="278" role="presentation" shape-rendering="auto" vector-effect="non-scaling-stroke" style="stroke: transparent; fill: transparent; size: 4px; stroke-width: 1; stroke-linecap: round; stroke-linejoin: round;"></line><text dx="0" dy="11.969999999999999" x="418.69647418354316" y="286"><tspan x="418.69647418354316" dx="0" text-anchor="middle" style="fill: rgb(153, 153, 153); font-size: 14px; font-family: inherit; stroke: transparent; letter-spacing: normal; padding: 8px; stroke-width: 0;">2020</tspan></text></g><g role="presentation"><line x1="531.4813674511951" x2="531.4813674511951" y1="274" y2="34" role="presentation" shape-rendering="auto" vector-effect="non-scaling-stroke" style="stroke: transparent; fill: transparent; stroke-width: 1; stroke-linecap: round; stroke-linejoin: round; pointer-events: none;"></line><line x1="531.4813674511951" x2="531.4813674511951" y1="274" y2="278" role="presentation" shape-rendering="auto" vector-effect="non-scaling-stroke" style="stroke: transparent; fill: transparent; size: 4px; stroke-width: 1; stroke-linecap: round; stroke-linejoin: round;"></line><text dx="0" dy="11.969999999999999" x="531.4813674511951" y="286"><tspan x="531.4813674511951" dx="0" text-anchor="middle" style="fill: rgb(153, 153, 153); font-size: 14px; font-family: inherit; stroke: transparent; letter-spacing: normal; padding: 8px; stroke-width: 0;">2021</tspan></text></g></g><g role="presentation"><line x1="578" x2="578" y1="34" y2="274" role="presentation" shape-rendering="auto" vector-effect="non-scaling-stroke" style="stroke: transparent; fill: transparent; stroke-width: 1; stroke-linejoin: round;"></line><g role="presentation"><line x1="578" x2="15" y1="256.85714285714283" y2="256.85714285714283" role="presentation" shape-rendering="auto" vector-effect="non-scaling-stroke" style="stroke: rgb(226, 226, 226); fill: transparent; stroke-width: 1; stroke-linecap: round; stroke-linejoin: round; pointer-events: none;"></line><line x1="578" x2="582" y1="256.85714285714283" y2="256.85714285714283" role="presentation" shape-rendering="auto" vector-effect="non-scaling-stroke" style="stroke: transparent; fill: transparent; size: 4px; stroke-width: 1; stroke-linecap: round; stroke-linejoin: round;"></line><text dx="0" dy="4.97" x="590" y="256.85714285714283"><tspan x="590" dx="0" text-anchor="start" style="fill: rgb(153, 153, 153); font-size: 14px; font-family: inherit; stroke: transparent; letter-spacing: normal; padding: 8px; stroke-width: 0;">$60K</tspan></text></g><g role="presentation"><line x1="578" x2="15" y1="222.57142857142858" y2="222.57142857142858" role="presentation" shape-rendering="auto" vector-effect="non-scaling-stroke" style="stroke: rgb(226, 226, 226); fill: transparent; stroke-width: 1; stroke-linecap: round; stroke-linejoin: round; pointer-events: none;"></line><line x1="578" x2="582" y1="222.57142857142858" y2="222.57142857142858" role="presentation" shape-rendering="auto" vector-effect="non-scaling-stroke" style="stroke: transparent; fill: transparent; size: 4px; stroke-width: 1; stroke-linecap: round; stroke-linejoin: round;"></line><text dx="0" dy="4.97" x="590" y="222.57142857142858"><tspan x="590" dx="0" text-anchor="start" style="fill: rgb(153, 153, 153); font-size: 14px; font-family: inherit; stroke: transparent; letter-spacing: normal; padding: 8px; stroke-width: 0;">$80K</tspan></text></g><g role="presentation"><line x1="578" x2="15" y1="188.28571428571428" y2="188.28571428571428" role="presentation" shape-rendering="auto" vector-effect="non-scaling-stroke" style="stroke: rgb(226, 226, 226); fill: transparent; stroke-width: 1; stroke-linecap: round; stroke-linejoin: round; pointer-events: none;"></line><line x1="578" x2="582" y1="188.28571428571428" y2="188.28571428571428" role="presentation" shape-rendering="auto" vector-effect="non-scaling-stroke" style="stroke: transparent; fill: transparent; size: 4px; stroke-width: 1; stroke-linecap: round; stroke-linejoin: round;"></line><text dx="0" dy="4.97" x="590" y="188.28571428571428"><tspan x="590" dx="0" text-anchor="start" style="fill: rgb(153, 153, 153); font-size: 14px; font-family: inherit; stroke: transparent; letter-spacing: normal; padding: 8px; stroke-width: 0;">$100K</tspan></text></g><g role="presentation"><line x1="578" x2="15" y1="154" y2="154" role="presentation" shape-rendering="auto" vector-effect="non-scaling-stroke" style="stroke: rgb(226, 226, 226); fill: transparent; stroke-width: 1; stroke-linecap: round; stroke-linejoin: round; pointer-events: none;"></line><line x1="578" x2="582" y1="154" y2="154" role="presentation" shape-rendering="auto" vector-effect="non-scaling-stroke" style="stroke: transparent; fill: transparent; size: 4px; stroke-width: 1; stroke-linecap: round; stroke-linejoin: round;"></line><text dx="0" dy="4.97" x="590" y="154"><tspan x="590" dx="0" text-anchor="start" style="fill: rgb(153, 153, 153); font-size: 14px; font-family: inherit; stroke: transparent; letter-spacing: normal; padding: 8px; stroke-width: 0;">$120K</tspan></text></g><g role="presentation"><line x1="578" x2="15" y1="119.7142857142857" y2="119.7142857142857" role="presentation" shape-rendering="auto" vector-effect="non-scaling-stroke" style="stroke: rgb(226, 226, 226); fill: transparent; stroke-width: 1; stroke-linecap: round; stroke-linejoin: round; pointer-events: none;"></line><line x1="578" x2="582" y1="119.7142857142857" y2="119.7142857142857" role="presentation" shape-rendering="auto" vector-effect="non-scaling-stroke" style="stroke: transparent; fill: transparent; size: 4px; stroke-width: 1; stroke-linecap: round; stroke-linejoin: round;"></line><text dx="0" dy="4.97" x="590" y="119.7142857142857"><tspan x="590" dx="0" text-anchor="start" style="fill: rgb(153, 153, 153); font-size: 14px; font-family: inherit; stroke: transparent; letter-spacing: normal; padding: 8px; stroke-width: 0;">$140K</tspan></text></g><g role="presentation"><line x1="578" x2="15" y1="85.42857142857144" y2="85.42857142857144" role="presentation" shape-rendering="auto" vector-effect="non-scaling-stroke" style="stroke: rgb(226, 226, 226); fill: transparent; stroke-width: 1; stroke-linecap: round; stroke-linejoin: round; pointer-events: none;"></line><line x1="578" x2="582" y1="85.42857142857144" y2="85.42857142857144" role="presentation" shape-rendering="auto" vector-effect="non-scaling-stroke" style="stroke: transparent; fill: transparent; size: 4px; stroke-width: 1; stroke-linecap: round; stroke-linejoin: round;"></line><text dx="0" dy="4.97" x="590" y="85.42857142857144"><tspan x="590" dx="0" text-anchor="start" style="fill: rgb(153, 153, 153); font-size: 14px; font-family: inherit; stroke: transparent; letter-spacing: normal; padding: 8px; stroke-width: 0;">$160K</tspan></text></g><g role="presentation"><line x1="578" x2="15" y1="51.14285714285714" y2="51.14285714285714" role="presentation" shape-rendering="auto" vector-effect="non-scaling-stroke" style="stroke: rgb(226, 226, 226); fill: transparent; stroke-width: 1; stroke-linecap: round; stroke-linejoin: round; pointer-events: none;"></line><line x1="578" x2="582" y1="51.14285714285714" y2="51.14285714285714" role="presentation" shape-rendering="auto" vector-effect="non-scaling-stroke" style="stroke: transparent; fill: transparent; size: 4px; stroke-width: 1; stroke-linecap: round; stroke-linejoin: round;"></line><text dx="0" dy="4.97" x="590" y="51.14285714285714"><tspan x="590" dx="0" text-anchor="start" style="fill: rgb(153, 153, 153); font-size: 14px; font-family: inherit; stroke: transparent; letter-spacing: normal; padding: 8px; stroke-width: 0;">$180K</tspan></text></g></g><g style="height: 100%; width: 100%; user-select: none;"><defs><clipPath id="victory-clip-5"><rect x="15" y="34" width="563" height="240"></rect></clipPath></defs><g clip-path="url(#victory-clip-5)"><path shape-rendering="auto" role="presentation" d="M24.5528188286809,202C27.73709177157453,208.85714285714286,30.921364714468165,215.71428571428572,34.1056376573618,215.71428571428572C37.28991060025543,215.71428571428572,40.47418354314906,179.71428571428572,43.658456486042695,179.71428571428572C46.7400109469075,179.71428571428572,49.821565407772304,216.65714285714284,52.90311986863711,216.65714285714284C56.08739281153075,216.65714285714284,59.271665754424376,188.28571428571428,62.45593869731801,188.28571428571428C65.54177309493402,188.28571428571428,68.62760749255003,188.28571428571428,71.71344189016602,188.28571428571428C74.89771483305965,188.28571428571428,78.0819877759533,175.42857142857144,81.26626071884692,175.42857142857144C84.45053366174056,175.42857142857144,87.63480660463419,234.57142857142856,90.81907954752783,234.57142857142856C93.69519704433499,234.57142857142856,96.57131454114213,121.42857142857144,99.44743203794928,121.42857142857144C102.62742504409171,121.42857142857144,105.80741805023415,222.57142857142858,108.98741105637657,222.57142857142858C112.06896551724138,222.57142857142858,115.15051997810617,218.28571428571428,118.23207443897098,218.28571428571428C121.41634738186463,218.28571428571428,124.60062032475825,251.08942857142858,127.7848932676519,251.08942857142858C130.8664477285167,251.08942857142858,133.9480021893815,185.78929228677194,137.02955665024632,164.28571428571428C140.21382959313993,142.06535035128812,143.39810253603358,121.42857142857144,146.5823754789272,121.42857142857144C149.76664842182083,121.42857142857144,152.95092136471445,162.65729898516787,156.1351943076081,179.71428571428572C159.2167487684729,196.22104706504498,162.2983032293377,222.57142857142858,165.37985769020253,222.57142857142858C168.56413063309614,222.57142857142858,171.74840357598978,169.85714285714286,174.9326765188834,169.85714285714286C178.0185109164994,169.85714285714286,181.10434531411542,211.8935680470581,184.19017971173142,226.85714285714286C187.37445265462506,242.29805777906114,190.55872559751867,260.2857142857143,193.74299854041232,260.2857142857143C196.92727148330596,260.2857142857143,200.1115444261996,129.14285714285714,203.29581736909324,129.14285714285714C206.1719348659004,129.14285714285714,209.04805236270755,165.57142857142856,211.9241698595147,165.57142857142856C215.10416286565712,165.57142857142856,218.28415587179956,94,221.46414887794197,94C224.5457033388068,94,227.62725779967158,179.71428571428572,230.7088122605364,179.71428571428572C233.89308520343002,179.71428571428572,237.07735814632366,121.42857142857144,240.26163108921727,121.42857142857144C243.3431855500821,121.42857142857144,246.4247400109469,131.9959205257989,249.5062944718117,138.57142857142858C252.69056741470536,145.36612021857925,255.874840357599,161.71428571428572,259.05911330049264,161.71428571428572C262.2433862433863,161.71428571428572,265.42765918627987,111.22857142857143,268.6119321291735,111.22857142857143C271.69348659003833,111.22857142857143,274.7750410509031,192.93087557603687,277.8565955117679,195.14285714285714C281.04086845466156,197.42857142857142,284.22514139755515,196.28571428571428,287.4094143404488,198.57142857142856C290.4952487380648,200.78648233486942,293.58108313568084,231.14285714285714,296.66691753329684,231.14285714285714C299.8511904761905,231.14285714285714,303.03546341908407,109,306.2197363619777,109C309.40400930487135,109,312.588282247765,169.42857142857144,315.77255519065864,169.42857142857144C318.6486726874658,169.42857142857144,321.52479018427294,102.57142857142856,324.4009076810801,102.57142857142856C327.58090068722254,102.57142857142856,330.76089369336495,160.68650793650806,333.94088669950736,175.42857142857144C337.0224411603722,189.7142857142857,340.10399562123695,185.61214776762108,343.18555008210177,196.85714285714283C346.3698230249954,208.47697111631535,349.55409596788905,244.85714285714286,352.7383689107827,244.85714285714286C355.8199233716475,244.85714285714286,358.9014778325123,169.29032258064515,361.9830322933771,156.57142857142856C365.16730523627075,143.42857142857142,368.35157817916433,141.2997142857143,371.535851122058,136.85714285714286C374.7201240649516,132.4145714285714,377.90439700784526,129.916,381.0886699507389,129.916C384.1702244116037,129.916,387.2517788724685,164.71428571428572,390.3333333333333,164.71428571428572C393.51760627622696,164.71428571428572,396.7018792191206,138.1782914325477,399.88615216201424,128.45714285714286C402.97198655963024,119.03651365974112,406.0578209572463,116.64569399663426,409.1436553548623,106.85714285714286C412.32792829775593,96.75633557866637,415.5122012406495,68.2857142857143,418.69647418354316,68.2857142857143C421.8807471264368,68.2857142857143,425.0650200693304,136.85714285714286,428.24929301222403,136.85714285714286C431.22812899106003,136.85714285714286,434.206964969896,91.42857142857144,437.185800948732,91.42857142857144C440.3657939548744,91.42857142857144,443.54578696101686,169.42857142857144,446.72577996715927,169.42857142857144C449.8073344280241,169.42857142857144,452.8888888888889,145.37417843922347,455.97044334975374,133.42857142857142C459.1547162926473,121.08477751756448,462.33898923554096,96.57142857142856,465.52326217843455,96.57142857142856C468.6048166392994,96.57142857142856,471.6863711001642,108.57142857142858,474.767925561029,108.57142857142858C477.95219850392266,108.57142857142858,481.1364714468163,104.02857142857141,484.32074438970994,102.57142857142856C487.50501733260353,101.11428571428571,490.68929027549717,101.65714285714284,493.87356321839076,99.82857142857142C496.9551176792556,98.05898617511518,500.0366721401204,74.28571428571428,503.1182266009852,74.28571428571428C506.3024995438788,74.28571428571428,509.48677248677245,92.28571428571428,512.671045429666,92.28571428571428C515.7568798272821,92.28571428571428,518.8427142248981,73.4302857142857,521.9285486225142,73.4302857142857C525.1128215654078,73.4302857142857,528.2970945083015,89.14314285714286,531.4813674511951,94C534.6656403940887,98.85685714285714,537.8499133369824,102.57142857142856,541.0341862798759,102.57142857142856C543.9103037766831,102.57142857142856,546.7864212734902,81.31428571428572,549.6625387702974,81.31428571428572C552.8425317764398,81.31428571428572,556.0225247825822,85.42857142857144,559.2025177887247,85.42857142857144C562.2840722495895,85.42857142857144,565.3656267104543,78.96571912064672,568.4471811713191,72.57228571428573C571.6314541142127,65.96573786104608,574.8157270571064,55.98286893052304,578,46" style="fill: transparent; stroke: rgb(51, 51, 51); stroke-width: 2; opacity: 1;"></path></g></g></svg>