<svg xmlns="http://www.w3.org/2000/svg" width="640" height="324" role="img" aria-labelledby="victory-container-4-title victory-container-4-desc" viewBox="0 0 640 324" style="pointer-events: all; width: 100%; height: 100%;"><g role="presentation"><line x1="15" x2="578" y1="274" y2="274" role="presentation" shape-rendering="auto" vector-effect="non-scaling-stroke" style="stroke: rgb(226, 226, 226); fill: transparent; stroke-width: 1; stroke-linejoin: round;"></line><g role="presentation"><line x1="81.26626071884692" x2="81.26626071884692" y1="274" y2="34" role="presentation" shape-rendering="auto" vector-effect="non-scaling-stroke" style="stroke: transparent; fill: transparent; stroke-width: 1; stroke-linecap: round; stroke-linejoin: round; pointer-events: none;"></line><line x1="81.26626071884692" x2="81.26626071884692" y1="274" y2="278" role="presentation" shape-rendering="auto" vector-effect="non-scaling-stroke" style="stroke: transparent; fill: transparent; size: 4px; stroke-width: 1; stroke-linecap: round; stroke-linejoin: round;"></line><text dx="0" dy="11.969999999999999" x="81.26626071884692" y="286"><tspan x="81.26626071884692" dx="0" text-anchor="middle" style="fill: rgb(153, 153, 153); font-size: 14px; font-family: inherit; stroke: transparent; letter-spacing: normal; padding: 8px; stroke-width: 0;">2017</tspan></text></g><g role="presentation"><line x1="193.74299854041232" x2="193.74299854041232" y1="274" y2="34" role="presentation" shape-rendering="auto" vector-effect="non-scaling-stroke" style="stroke: transparent; fill: transparent; stroke-width: 1; stroke-linecap: round; stroke-linejoin: round; pointer-events: none;"></line><line x1="193.74299854041232" x2="193.74299854041232" y1="274" y2="278" role="presentation" shape-rendering="auto" vector-effect="non-scaling-stroke" style="stroke: transparent; fill: transparent; size: 4px; stroke-width: 1; stroke-linecap: round; stroke-linejoin: round;"></line><text dx="0" dy="11.969999999999999" x="193.74299854041232" y="286"><tspan x="193.74299854041232" dx="0" text-anchor="middle" style="fill: rgb(153, 153, 153); font-size: 14px; font-family: inherit; stroke: transparent; letter-spacing: normal; padding: 8px; stroke-width: 0;">2018</tspan></text></g><g role="presentation"><line x1="306.2197363619777" x2="306.2197363619777" y1="274" y2="34" role="presentation" shape-rendering="auto" vector-effect="non-scaling-stroke" style="stroke: transparent; fill: transparent; stroke-width: 1; stroke-linecap: round; stroke-linejoin: round; pointer-events: none;"></line><line x1="306.2197363619777" x2="306.2197363619777" y1="274" y2="278" role="presentation" shape-rendering="auto" vector-effect="non-scaling-stroke" style="stroke: transparent; fill: transparent; size: 4px; stroke-width: 1; stroke-linecap: round; stroke-linejoin: round;"></line><text dx="0" dy="11.969999999999999" x="306.2197363619777" y="286"><tspan x="306.2197363619777" dx="0" text-anchor="middle" style="fill: rgb(153, 153, 153); font-size: 14px; font-family: inherit; stroke: transparent; letter-spacing: normal; padding: 8px; stroke-width: 0;">2019</tspan></text></g><g role="presentation"><line x1="418.69647418354316" x2="418.69647418354316" y1="274" y2="34" role="presentation" shape-rendering="auto" vector-effect="non-scaling-stroke" style="stroke: transparent; fill: transparent; stroke-width: 1; stroke-linecap: round; stroke-linejoin: round; pointer-events: none;"></line><line x1="418.69647418354316" x2="418.69647418354316" y1="274" y2="278" role="presentation" shape-rendering="auto" vector-effect="non-scaling-stroke" style="stroke: transparent; fill: transparent; size: 4px; stroke-width: 1; stroke-linecap: round; stroke-linejoin: round;"></line><text dx="0" dy="11.969999999999999" x="418.69647418354316" y="286"><tspan x="418.69647418354316" dx="0" text-anchor="middle" style="fill: rgb(153, 153, 153); font-size: 14px; font-family: inherit; stroke: transparent; letter-spacing: normal; padding: 8px; stroke-width: 0;">2020</tspan></text></g><g role="presentation"><line x1="531.4813674511951" x2="531.4813674511951" y1="274" y2="34" role="presentation" shape-rendering="auto" vector-effect="non-scaling-stroke" style="stroke: transparent; fill: transparent; stroke-width: 1; stroke-linecap: round; stroke-linejoin: round; pointer-events: none;"></line><line x1="531.4813674511951" x2="531.4813674511951" y1="274" y2="278" role="presentation" shape-rendering="auto" vector-effect="non-scaling-stroke" style="stroke: transparent; fill: transparent; size: 4px; stroke-width: 1; stroke-linecap: round; stroke-linejoin: round;"></line><text dx="0" dy="11.969999999999999" x="531.4813674511951" y="286"><tspan x="531.4813674511951" dx="0" text-anchor="middle" style="fill: rgb(153, 153, 153); font-size: 14px; font-family: inherit; stroke: transparent; letter-spacing: normal; padding: 8px; stroke-width: 0;">2021</tspan></text></g></g><g role="presentation"><line x1="578" x2="578" y1="34" y2="274" role="presentation" shape-rendering="auto" vector-effect="non-scaling-stroke" style="stroke: transparent; fill: transparent; stroke-width: 1; stroke-linejoin: round;"></line><g role="presentation"><line x1="578" x2="15" y1="274" y2="274" role="presentation" shape-rendering="auto" vector-effect="non-scaling-stroke" style="stroke: rgb(226, 226, 226); fill: transparent; stroke-width: 1; stroke-linecap: round; stroke-linejoin: round; pointer-events: none;"></line><line x1="578" x2="582" y1="274" y2="274" role="presentation" shape-rendering="auto" vector-effect="non-scaling-stroke" style="stroke: transparent; fill: transparent; size: 4px; stroke-width: 1; stroke-linecap: round; stroke-linejoin: round;"></line><text dx="0" dy="4.97" x="590" y="274"><tspan x="590" dx="0" text-anchor="start" style="fill: rgb(153, 153, 153); font-size: 14px; font-family: inherit; stroke: transparent; letter-spacing: normal; padding: 8px; stroke-width: 0;">$100K</tspan></text></g><g role="presentation"><line x1="578" x2="15" y1="214" y2="214" role="presentation" shape-rendering="auto" vector-effect="non-scaling-stroke" style="stroke: rgb(226, 226, 226); fill: transparent; stroke-width: 1; stroke-linecap: round; stroke-linejoin: round; pointer-events: none;"></line><line x1="578" x2="582" y1="214" y2="214" role="presentation" shape-rendering="auto" vector-effect="non-scaling-stroke" style="stroke: transparent; fill: transparent; size: 4px; stroke-width: 1; stroke-linecap: round; stroke-linejoin: round;"></line><text dx="0" dy="4.97" x="590" y="214"><tspan x="590" dx="0" text-anchor="start" style="fill: rgb(153, 153, 153); font-size: 14px; font-family: inherit; stroke: transparent; letter-spacing: normal; padding: 8px; stroke-width: 0;">$150K</tspan></text></g><g role="presentation"><line x1="578" x2="15" y1="154" y2="154" role="presentation" shape-rendering="auto" vector-effect="non-scaling-stroke" style="stroke: rgb(226, 226, 226); fill: transparent; stroke-width: 1; stroke-linecap: round; stroke-linejoin: round; pointer-events: none;"></line><line x1="578" x2="582" y1="154" y2="154" role="presentation" shape-rendering="auto" vector-effect="non-scaling-stroke" style="stroke: transparent; fill: transparent; size: 4px; stroke-width: 1; stroke-linecap: round; stroke-linejoin: round;"></line><text dx="0" dy="4.97" x="590" y="154"><tspan x="590" dx="0" text-anchor="start" style="fill: rgb(153, 153, 153); font-size: 14px; font-family: inherit; stroke: transparent; letter-spacing: normal; padding: 8px; stroke-width: 0;">$200K</tspan></text></g><g role="presentation"><line x1="578" x2="15" y1="94" y2="94" role="presentation" shape-rendering="auto" vector-effect="non-scaling-stroke" style="stroke: rgb(226, 226, 226); fill: transparent; stroke-width: 1; stroke-linecap: round; stroke-linejoin: round; pointer-events: none;"></line><line x1="578" x2="582" y1="94" y2="94" role="presentation" shape-rendering="auto" vector-effect="non-scaling-stroke" style="stroke: transparent; fill: transparent; size: 4px; stroke-width: 1; stroke-linecap: round; stroke-linejoin: round;"></line><text dx="0" dy="4.97" x="590" y="94"><tspan x="590" dx="0" text-anchor="start" style="fill: rgb(153, 153, 153); font-size: 14px; font-family: inherit; stroke: transparent; letter-spacing: normal; padding: 8px; stroke-width: 0;">$250K</tspan></text></g><g role="presentation"><line x1="578" x2="15" y1="34" y2="34" role="presentation" shape-rendering="auto" vector-effect="non-scaling-stroke" style="stroke: rgb(226, 226, 226); fill: transparent; stroke-width: 1; stroke-linecap: round; stroke-linejoin: round; pointer-events: none;"></line><line x1="578" x2="582" y1="34" y2="34" role="presentation" shape-rendering="auto" vector-effect="non-scaling-stroke" style="stroke: transparent; fill: transparent; size: 4px; stroke-width: 1; stroke-linecap: round; stroke-linejoin: round;"></line><text dx="0" dy="4.97" x="590" y="34"><tspan x="590" dx="0" text-anchor="start" style="fill: rgb(153, 153, 153); font-size: 14px; font-family: inherit; stroke: transparent; letter-spacing: normal; padding: 8px; stroke-width: 0;">$300K</tspan></text></g></g><g style="height: 100%; width: 100%; user-select: none;"><defs><clipPath id="victory-clip-5"><rect x="15" y="34" width="563" height="240"></rect></clipPath></defs><g clip-path="url(#victory-clip-5)"><path shape-rendering="auto" role="presentation" d="M24.5528188286809,131.79999999999998C27.73709177157453,137.54999999999998,30.921364714468165,143.29999999999998,34.1056376573618,148C37.28991060025543,152.70000000000002,40.47418354314906,160,43.658456486042695,160C46.7400109469075,160,49.821565407772304,156.15864621893178,52.90311986863711,154C56.08739281153075,151.76939890710383,59.271665754424376,146.8,62.45593869731801,146.8C65.54177309493402,146.8,68.62760749255003,155.2,71.71344189016602,155.2C74.89771483305965,155.2,78.0819877759533,136,81.26626071884692,136C84.45053366174056,136,87.63480660463419,137.5,90.81907954752783,137.5C93.69519704433499,137.5,96.57131454114213,136,99.44743203794928,136C102.62742504409171,136,105.80741805023415,154,108.98741105637657,154C112.06896551724138,154,115.15051997810617,153.29999999999998,118.23207443897098,151.89999999999998C121.41634738186463,150.4533333333333,124.60062032475825,142,127.7848932676519,142C130.8664477285167,142,133.9480021893815,143.2,137.02955665024632,143.2C140.21382959313993,143.2,143.39810253603358,124.6,146.5823754789272,124.6C149.76664842182083,124.6,152.95092136471445,148,156.1351943076081,148C159.2167487684729,148,162.2983032293377,144.56181914331043,165.37985769020253,142.6C168.56413063309614,140.5727868852459,171.74840357598978,136,174.9326765188834,136C178.0185109164994,136,181.10434531411542,136,184.19017971173142,136C187.37445265462506,136,190.55872559751867,129.1,193.74299854041232,129.1C196.92727148330596,129.1,200.1115444261996,139.29999999999998,203.29581736909324,139.29999999999998C206.1719348659004,139.29999999999998,209.04805236270755,131.20000000000002,211.9241698595147,131.20000000000002C215.10416286565712,131.20000000000002,218.28415587179956,131.5,221.46414887794197,131.5C224.5457033388068,131.5,227.62725779967158,124,230.7088122605364,124C233.89308520343002,124,237.07735814632366,136,240.26163108921727,136C243.3431855500821,136,246.4247400109469,112.6,249.5062944718117,112.6C252.69056741470536,112.6,255.874840357599,139,259.05911330049264,139C262.2433862433863,139,265.42765918627987,130.66000000000003,268.6119321291735,130.66000000000003C271.69348659003833,130.66000000000003,274.7750410509031,132.46,277.8565955117679,132.46C281.04086845466156,132.46,284.22514139755515,130,287.4094143404488,130C290.4952487380648,130,293.58108313568084,143.434623655914,296.66691753329684,144.52C299.8511904761905,145.64,303.03546341908407,146.2,306.2197363619777,146.2C309.40400930487135,146.2,312.588282247765,141.16192966101693,315.77255519065864,136C318.6486726874658,131.33761191908147,321.52479018427294,117.70060000000001,324.4009076810801,117.70060000000001C327.58090068722254,117.70060000000001,330.76089369336495,119.44,333.94088669950736,119.44C337.0224411603722,119.44,340.10399562123695,109.35999999999999,343.18555008210177,109.35999999999999C346.3698230249954,109.35999999999999,349.55409596788905,110.51459016393441,352.7383689107827,112.06C355.8199233716475,113.55555790586992,358.9014778325123,118.36000000000001,361.9830322933771,118.36000000000001C365.16730523627075,118.36000000000001,368.35157817916433,116.79999999999998,371.535851122058,116.79999999999998C374.7201240649516,116.79999999999998,377.90439700784526,124.11999999999998,381.0886699507389,124.11999999999998C384.1702244116037,124.11999999999998,387.2517788724685,124.07999999999998,390.3333333333333,124C393.51760627622696,123.91733333333335,396.7018792191206,118,399.88615216201424,118C402.97198655963024,118,406.0578209572463,125.40255752504679,409.1436553548623,127.6C412.32792829775593,129.86754119468125,415.5122012406495,131.20000000000002,418.69647418354316,131.20000000000002C421.8807471264368,131.20000000000002,425.0650200693304,126.57080459770113,428.24929301222403,121.06C431.22812899106003,115.9047311827957,434.206964969896,100,437.185800948732,100C440.3657939548744,100,443.54578696101686,106,446.72577996715927,106C449.8073344280241,106,452.8888888888889,96.4,455.97044334975374,96.4C459.1547162926473,96.4,462.33898923554096,112.12,465.52326217843455,112.12C468.6048166392994,112.12,471.6863711001642,94,474.767925561029,94C477.95219850392266,94,481.1364714468163,100,484.32074438970994,100C487.50501733260353,100,490.68929027549717,97.71333333333335,493.87356321839076,97.30000000000001C496.9551176792556,96.89999999999999,500.0366721401204,97.10000000000001,503.1182266009852,96.69999999999999C506.3024995438788,96.28666666666665,509.48677248677245,72.4,512.671045429666,72.4C515.7568798272821,72.4,518.8427142248981,78.58590058350762,521.9285486225142,82.12C525.1128215654078,85.76683767804478,528.2970945083015,94,531.4813674511951,94C534.6656403940887,94,537.8499133369824,79.6,541.0341862798759,79.6C543.9103037766831,79.6,546.7864212734902,88,549.6625387702974,88C552.8425317764398,88,556.0225247825822,56.79999999999998,559.2025177887247,56.79999999999998C562.2840722495895,56.79999999999998,565.3656267104543,64,568.4471811713191,64C571.6314541142127,64,574.8157270571064,61.900000000000006,578,59.80000000000001" style="fill: transparent; stroke: rgb(51, 51, 51); stroke-width: 2; opacity: 1;"></path></g></g></svg>