<svg xmlns="http://www.w3.org/2000/svg" width="640" height="324" role="img" aria-labelledby="victory-container-4-title victory-container-4-desc" viewBox="0 0 640 324" style="pointer-events: all; width: 100%; height: 100%;"><g role="presentation"><line x1="15" x2="578" y1="274" y2="274" role="presentation" shape-rendering="auto" vector-effect="non-scaling-stroke" style="stroke: rgb(226, 226, 226); fill: transparent; stroke-width: 1; stroke-linejoin: round;"></line><g role="presentation"><line x1="81.26626071884692" x2="81.26626071884692" y1="274" y2="34" role="presentation" shape-rendering="auto" vector-effect="non-scaling-stroke" style="stroke: transparent; fill: transparent; stroke-width: 1; stroke-linecap: round; stroke-linejoin: round; pointer-events: none;"></line><line x1="81.26626071884692" x2="81.26626071884692" y1="274" y2="278" role="presentation" shape-rendering="auto" vector-effect="non-scaling-stroke" style="stroke: transparent; fill: transparent; size: 4px; stroke-width: 1; stroke-linecap: round; stroke-linejoin: round;"></line><text dx="0" dy="11.969999999999999" x="81.26626071884692" y="286"><tspan x="81.26626071884692" dx="0" text-anchor="middle" style="fill: rgb(153, 153, 153); font-size: 14px; font-family: inherit; stroke: transparent; letter-spacing: normal; padding: 8px; stroke-width: 0;">2017</tspan></text></g><g role="presentation"><line x1="193.74299854041232" x2="193.74299854041232" y1="274" y2="34" role="presentation" shape-rendering="auto" vector-effect="non-scaling-stroke" style="stroke: transparent; fill: transparent; stroke-width: 1; stroke-linecap: round; stroke-linejoin: round; pointer-events: none;"></line><line x1="193.74299854041232" x2="193.74299854041232" y1="274" y2="278" role="presentation" shape-rendering="auto" vector-effect="non-scaling-stroke" style="stroke: transparent; fill: transparent; size: 4px; stroke-width: 1; stroke-linecap: round; stroke-linejoin: round;"></line><text dx="0" dy="11.969999999999999" x="193.74299854041232" y="286"><tspan x="193.74299854041232" dx="0" text-anchor="middle" style="fill: rgb(153, 153, 153); font-size: 14px; font-family: inherit; stroke: transparent; letter-spacing: normal; padding: 8px; stroke-width: 0;">2018</tspan></text></g><g role="presentation"><line x1="306.2197363619777" x2="306.2197363619777" y1="274" y2="34" role="presentation" shape-rendering="auto" vector-effect="non-scaling-stroke" style="stroke: transparent; fill: transparent; stroke-width: 1; stroke-linecap: round; stroke-linejoin: round; pointer-events: none;"></line><line x1="306.2197363619777" x2="306.2197363619777" y1="274" y2="278" role="presentation" shape-rendering="auto" vector-effect="non-scaling-stroke" style="stroke: transparent; fill: transparent; size: 4px; stroke-width: 1; stroke-linecap: round; stroke-linejoin: round;"></line><text dx="0" dy="11.969999999999999" x="306.2197363619777" y="286"><tspan x="306.2197363619777" dx="0" text-anchor="middle" style="fill: rgb(153, 153, 153); font-size: 14px; font-family: inherit; stroke: transparent; letter-spacing: normal; padding: 8px; stroke-width: 0;">2019</tspan></text></g><g role="presentation"><line x1="418.69647418354316" x2="418.69647418354316" y1="274" y2="34" role="presentation" shape-rendering="auto" vector-effect="non-scaling-stroke" style="stroke: transparent; fill: transparent; stroke-width: 1; stroke-linecap: round; stroke-linejoin: round; pointer-events: none;"></line><line x1="418.69647418354316" x2="418.69647418354316" y1="274" y2="278" role="presentation" shape-rendering="auto" vector-effect="non-scaling-stroke" style="stroke: transparent; fill: transparent; size: 4px; stroke-width: 1; stroke-linecap: round; stroke-linejoin: round;"></line><text dx="0" dy="11.969999999999999" x="418.69647418354316" y="286"><tspan x="418.69647418354316" dx="0" text-anchor="middle" style="fill: rgb(153, 153, 153); font-size: 14px; font-family: inherit; stroke: transparent; letter-spacing: normal; padding: 8px; stroke-width: 0;">2020</tspan></text></g><g role="presentation"><line x1="531.4813674511951" x2="531.4813674511951" y1="274" y2="34" role="presentation" shape-rendering="auto" vector-effect="non-scaling-stroke" style="stroke: transparent; fill: transparent; stroke-width: 1; stroke-linecap: round; stroke-linejoin: round; pointer-events: none;"></line><line x1="531.4813674511951" x2="531.4813674511951" y1="274" y2="278" role="presentation" shape-rendering="auto" vector-effect="non-scaling-stroke" style="stroke: transparent; fill: transparent; size: 4px; stroke-width: 1; stroke-linecap: round; stroke-linejoin: round;"></line><text dx="0" dy="11.969999999999999" x="531.4813674511951" y="286"><tspan x="531.4813674511951" dx="0" text-anchor="middle" style="fill: rgb(153, 153, 153); font-size: 14px; font-family: inherit; stroke: transparent; letter-spacing: normal; padding: 8px; stroke-width: 0;">2021</tspan></text></g></g><g role="presentation"><line x1="578" x2="578" y1="34" y2="274" role="presentation" shape-rendering="auto" vector-effect="non-scaling-stroke" style="stroke: transparent; fill: transparent; stroke-width: 1; stroke-linejoin: round;"></line><g role="presentation"><line x1="578" x2="15" y1="252.1818181818182" y2="252.1818181818182" role="presentation" shape-rendering="auto" vector-effect="non-scaling-stroke" style="stroke: rgb(226, 226, 226); fill: transparent; stroke-width: 1; stroke-linecap: round; stroke-linejoin: round; pointer-events: none;"></line><line x1="578" x2="582" y1="252.1818181818182" y2="252.1818181818182" role="presentation" shape-rendering="auto" vector-effect="non-scaling-stroke" style="stroke: transparent; fill: transparent; size: 4px; stroke-width: 1; stroke-linecap: round; stroke-linejoin: round;"></line><text dx="0" dy="4.97" x="590" y="252.1818181818182"><tspan x="590" dx="0" text-anchor="start" style="fill: rgb(153, 153, 153); font-size: 14px; font-family: inherit; stroke: transparent; letter-spacing: normal; padding: 8px; stroke-width: 0;">$100K</tspan></text></g><g role="presentation"><line x1="578" x2="15" y1="208.54545454545456" y2="208.54545454545456" role="presentation" shape-rendering="auto" vector-effect="non-scaling-stroke" style="stroke: rgb(226, 226, 226); fill: transparent; stroke-width: 1; stroke-linecap: round; stroke-linejoin: round; pointer-events: none;"></line><line x1="578" x2="582" y1="208.54545454545456" y2="208.54545454545456" role="presentation" shape-rendering="auto" vector-effect="non-scaling-stroke" style="stroke: transparent; fill: transparent; size: 4px; stroke-width: 1; stroke-linecap: round; stroke-linejoin: round;"></line><text dx="0" dy="4.97" x="590" y="208.54545454545456"><tspan x="590" dx="0" text-anchor="start" style="fill: rgb(153, 153, 153); font-size: 14px; font-family: inherit; stroke: transparent; letter-spacing: normal; padding: 8px; stroke-width: 0;">$120K</tspan></text></g><g role="presentation"><line x1="578" x2="15" y1="164.9090909090909" y2="164.9090909090909" role="presentation" shape-rendering="auto" vector-effect="non-scaling-stroke" style="stroke: rgb(226, 226, 226); fill: transparent; stroke-width: 1; stroke-linecap: round; stroke-linejoin: round; pointer-events: none;"></line><line x1="578" x2="582" y1="164.9090909090909" y2="164.9090909090909" role="presentation" shape-rendering="auto" vector-effect="non-scaling-stroke" style="stroke: transparent; fill: transparent; size: 4px; stroke-width: 1; stroke-linecap: round; stroke-linejoin: round;"></line><text dx="0" dy="4.97" x="590" y="164.9090909090909"><tspan x="590" dx="0" text-anchor="start" style="fill: rgb(153, 153, 153); font-size: 14px; font-family: inherit; stroke: transparent; letter-spacing: normal; padding: 8px; stroke-width: 0;">$140K</tspan></text></g><g role="presentation"><line x1="578" x2="15" y1="121.27272727272728" y2="121.27272727272728" role="presentation" shape-rendering="auto" vector-effect="non-scaling-stroke" style="stroke: rgb(226, 226, 226); fill: transparent; stroke-width: 1; stroke-linecap: round; stroke-linejoin: round; pointer-events: none;"></line><line x1="578" x2="582" y1="121.27272727272728" y2="121.27272727272728" role="presentation" shape-rendering="auto" vector-effect="non-scaling-stroke" style="stroke: transparent; fill: transparent; size: 4px; stroke-width: 1; stroke-linecap: round; stroke-linejoin: round;"></line><text dx="0" dy="4.97" x="590" y="121.27272727272728"><tspan x="590" dx="0" text-anchor="start" style="fill: rgb(153, 153, 153); font-size: 14px; font-family: inherit; stroke: transparent; letter-spacing: normal; padding: 8px; stroke-width: 0;">$160K</tspan></text></g><g role="presentation"><line x1="578" x2="15" y1="77.63636363636363" y2="77.63636363636363" role="presentation" shape-rendering="auto" vector-effect="non-scaling-stroke" style="stroke: rgb(226, 226, 226); fill: transparent; stroke-width: 1; stroke-linecap: round; stroke-linejoin: round; pointer-events: none;"></line><line x1="578" x2="582" y1="77.63636363636363" y2="77.63636363636363" role="presentation" shape-rendering="auto" vector-effect="non-scaling-stroke" style="stroke: transparent; fill: transparent; size: 4px; stroke-width: 1; stroke-linecap: round; stroke-linejoin: round;"></line><text dx="0" dy="4.97" x="590" y="77.63636363636363"><tspan x="590" dx="0" text-anchor="start" style="fill: rgb(153, 153, 153); font-size: 14px; font-family: inherit; stroke: transparent; letter-spacing: normal; padding: 8px; stroke-width: 0;">$180K</tspan></text></g><g role="presentation"><line x1="578" x2="15" y1="34" y2="34" role="presentation" shape-rendering="auto" vector-effect="non-scaling-stroke" style="stroke: rgb(226, 226, 226); fill: transparent; stroke-width: 1; stroke-linecap: round; stroke-linejoin: round; pointer-events: none;"></line><line x1="578" x2="582" y1="34" y2="34" role="presentation" shape-rendering="auto" vector-effect="non-scaling-stroke" style="stroke: transparent; fill: transparent; size: 4px; stroke-width: 1; stroke-linecap: round; stroke-linejoin: round;"></line><text dx="0" dy="4.97" x="590" y="34"><tspan x="590" dx="0" text-anchor="start" style="fill: rgb(153, 153, 153); font-size: 14px; font-family: inherit; stroke: transparent; letter-spacing: normal; padding: 8px; stroke-width: 0;">$200K</tspan></text></g></g><g style="height: 100%; width: 100%; user-select: none;"><defs><clipPath id="victory-clip-5"><rect x="15" y="34" width="563" height="240"></rect></clipPath></defs><g clip-path="url(#victory-clip-5)"><path shape-rendering="auto" role="presentation" d="M15.30815544608648,169.27272727272728C18.389709906951285,169.81818181818184,21.471264367816094,170.36363636363637,24.5528188286809,172.54545454545456C27.73709177157453,174.8,30.921364714468165,224.36363636363637,34.1056376573618,224.36363636363637C37.28991060025543,224.36363636363637,40.47418354314906,204.30938897168403,43.658456486042695,197.63636363636363C46.7400109469075,191.17859718282773,49.821565407772304,184.54545454545456,52.90311986863711,184.54545454545456C56.08739281153075,184.54545454545456,59.271665754424376,202.54545454545456,62.45593869731801,202.54545454545456C65.54177309493402,202.54545454545456,68.62760749255003,192.1818181818182,71.71344189016602,192.1818181818182C74.89771483305965,192.1818181818182,78.0819877759533,193.27272727272728,81.26626071884692,195.45454545454544C84.45053366174056,197.6363636363636,87.63480660463419,208.54545454545456,90.81907954752783,208.54545454545456C93.69519704433499,208.54545454545456,96.57131454114213,186.72727272727272,99.44743203794928,186.72727272727272C102.62742504409171,186.72727272727272,105.80741805023415,212.07127272727274,108.98741105637657,212.07127272727274C112.06896551724138,212.07127272727274,115.15051997810617,175.8181818181818,118.23207443897098,175.8181818181818C121.41634738186463,175.8181818181818,124.60062032475825,225.75127272727272,127.7848932676519,225.75127272727272C130.8664477285167,225.75127272727272,133.9480021893815,154,137.02955665024632,154C140.21382959313993,154,143.39810253603358,256,146.5823754789272,256C149.76664842182083,256,152.95092136471445,249.96731246895177,156.1351943076081,241.8181818181818C159.2167487684729,233.93192634969472,162.2983032293377,219.72001346089135,165.37985769020253,208.54545454545456C168.56413063309614,196.9984103328366,171.74840357598978,182.7933494650748,174.9326765188834,173.63636363636363C178.0185109164994,164.76245667063677,181.10434531411542,154,184.19017971173142,154C187.37445265462506,154,190.55872559751867,200.9090909090909,193.74299854041232,200.9090909090909C196.92727148330596,200.9090909090909,200.1115444261996,168.1818181818182,203.29581736909324,168.1818181818182C206.1719348659004,168.1818181818182,209.04805236270755,175.8181818181818,211.9241698595147,175.8181818181818C215.10416286565712,175.8181818181818,218.28415587179956,159.29437954390107,221.46414887794197,154C224.5457033388068,148.86951107455076,227.62725779967158,147.5756934762752,230.7088122605364,144.1818181818182C233.89308520343002,140.6748137108793,237.07735814632366,134.02424242424243,240.26163108921727,133.27272727272728C243.3431855500821,132.54545454545456,246.4247400109469,132.1818181818182,249.5062944718117,132.1818181818182C252.69056741470536,132.1818181818182,255.874840357599,140.9090909090909,259.05911330049264,140.9090909090909C262.2433862433863,140.9090909090909,265.42765918627987,132.1818181818182,268.6119321291735,132.1818181818182C271.69348659003833,132.1818181818182,274.7750410509031,155.09090909090907,277.8565955117679,155.09090909090907C281.04086845466156,155.09090909090907,284.22514139755515,148.21734680045427,287.4094143404488,145.27272727272728C290.4952487380648,142.4191376497553,293.58108313568084,142.72727272727272,296.66691753329684,137.63636363636363C299.8511904761905,132.38305383936452,303.03546341908407,66.72727272727272,306.2197363619777,66.72727272727272C309.40400930487135,66.72727272727272,312.588282247765,138.15606427470834,315.77255519065864,158.36363636363637C318.6486726874658,176.6156369600875,321.52479018427294,187.8181818181818,324.4009076810801,187.8181818181818C327.58090068722254,187.8181818181818,330.76089369336495,164.4208675959872,333.94088669950736,156.1818181818182C337.0224411603722,148.1978133659343,340.10399562123695,142.722465266093,343.18555008210177,138.72727272727275C346.3698230249954,134.59890710382516,349.55409596788905,132.1818181818182,352.7383689107827,132.1818181818182C355.8199233716475,132.1818181818182,358.9014778325123,139.65454545454546,361.9830322933771,139.65454545454546C365.16730523627075,139.65454545454546,368.35157817916433,112.54545454545453,371.535851122058,112.54545454545453C374.7201240649516,112.54545454545453,377.90439700784526,132.1818181818182,381.0886699507389,132.1818181818182C384.1702244116037,132.1818181818182,387.2517788724685,110.36363636363637,390.3333333333333,110.36363636363637C393.51760627622696,110.36363636363637,396.7018792191206,116.9090909090909,399.88615216201424,116.9090909090909C402.97198655963024,116.9090909090909,406.0578209572463,101.63636363636365,409.1436553548623,101.63636363636365C412.32792829775593,101.63636363636365,415.5122012406495,124.54545454545456,418.69647418354316,124.54545454545456C421.8807471264368,124.54545454545456,425.0650200693304,120.66123301985371,428.24929301222403,118C431.22812899106003,115.51045943304007,434.206964969896,111.5985508649941,437.185800948732,109.27272727272725C440.3657939548744,106.78984375397113,443.54578696101686,103.81818181818181,446.72577996715927,103.81818181818181C449.8073344280241,103.81818181818181,452.8888888888889,130.54545454545453,455.97044334975374,130.54545454545453C459.1547162926473,130.54545454545453,462.33898923554096,114.72727272727272,465.52326217843455,114.72727272727272C468.6048166392994,114.72727272727272,471.6863711001642,130.7741935483871,474.767925561029,132.1818181818182C477.95219850392266,133.63636363636365,481.1364714468163,134.36363636363637,484.32074438970994,134.36363636363637C487.50501733260353,134.36363636363637,490.68929027549717,106,493.87356321839076,106C496.9551176792556,106,500.0366721401204,110.9090909090909,503.1182266009852,110.9090909090909C506.3024995438788,110.9090909090909,509.48677248677245,82,512.671045429666,82C515.7568798272821,82,518.8427142248981,103.81818181818181,521.9285486225142,103.81818181818181C525.1128215654078,103.81818181818181,528.2970945083015,94,531.4813674511951,94C534.6656403940887,94,537.8499133369824,94,541.0341862798759,94C543.9103037766831,94,546.7864212734902,121.27272727272728,549.6625387702974,121.27272727272728C552.8425317764398,121.27272727272728,556.0225247825822,42.72727272727272,559.2025177887247,42.72727272727272C562.2840722495895,42.72727272727272,565.3656267104543,106,568.4471811713191,106C571.6314541142127,106,574.8157270571064,97.27272727272728,578,88.54545454545456" style="fill: transparent; stroke: rgb(51, 51, 51); stroke-width: 2; opacity: 1;"></path></g></g></svg>