<svg xmlns="http://www.w3.org/2000/svg" width="640" height="324" role="img" aria-labelledby="victory-container-4-title victory-container-4-desc" viewBox="0 0 640 324" style="pointer-events: all; width: 100%; height: 100%;"><g role="presentation"><line x1="15" x2="578" y1="274" y2="274" role="presentation" shape-rendering="auto" vector-effect="non-scaling-stroke" style="stroke: rgb(226, 226, 226); fill: transparent; stroke-width: 1; stroke-linejoin: round;"></line><g role="presentation"><line x1="81.26626071884692" x2="81.26626071884692" y1="274" y2="34" role="presentation" shape-rendering="auto" vector-effect="non-scaling-stroke" style="stroke: transparent; fill: transparent; stroke-width: 1; stroke-linecap: round; stroke-linejoin: round; pointer-events: none;"></line><line x1="81.26626071884692" x2="81.26626071884692" y1="274" y2="278" role="presentation" shape-rendering="auto" vector-effect="non-scaling-stroke" style="stroke: transparent; fill: transparent; size: 4px; stroke-width: 1; stroke-linecap: round; stroke-linejoin: round;"></line><text dx="0" dy="11.969999999999999" x="81.26626071884692" y="286"><tspan x="81.26626071884692" dx="0" text-anchor="middle" style="fill: rgb(153, 153, 153); font-size: 14px; font-family: inherit; stroke: transparent; letter-spacing: normal; padding: 8px; stroke-width: 0;">2017</tspan></text></g><g role="presentation"><line x1="193.74299854041232" x2="193.74299854041232" y1="274" y2="34" role="presentation" shape-rendering="auto" vector-effect="non-scaling-stroke" style="stroke: transparent; fill: transparent; stroke-width: 1; stroke-linecap: round; stroke-linejoin: round; pointer-events: none;"></line><line x1="193.74299854041232" x2="193.74299854041232" y1="274" y2="278" role="presentation" shape-rendering="auto" vector-effect="non-scaling-stroke" style="stroke: transparent; fill: transparent; size: 4px; stroke-width: 1; stroke-linecap: round; stroke-linejoin: round;"></line><text dx="0" dy="11.969999999999999" x="193.74299854041232" y="286"><tspan x="193.74299854041232" dx="0" text-anchor="middle" style="fill: rgb(153, 153, 153); font-size: 14px; font-family: inherit; stroke: transparent; letter-spacing: normal; padding: 8px; stroke-width: 0;">2018</tspan></text></g><g role="presentation"><line x1="306.2197363619777" x2="306.2197363619777" y1="274" y2="34" role="presentation" shape-rendering="auto" vector-effect="non-scaling-stroke" style="stroke: transparent; fill: transparent; stroke-width: 1; stroke-linecap: round; stroke-linejoin: round; pointer-events: none;"></line><line x1="306.2197363619777" x2="306.2197363619777" y1="274" y2="278" role="presentation" shape-rendering="auto" vector-effect="non-scaling-stroke" style="stroke: transparent; fill: transparent; size: 4px; stroke-width: 1; stroke-linecap: round; stroke-linejoin: round;"></line><text dx="0" dy="11.969999999999999" x="306.2197363619777" y="286"><tspan x="306.2197363619777" dx="0" text-anchor="middle" style="fill: rgb(153, 153, 153); font-size: 14px; font-family: inherit; stroke: transparent; letter-spacing: normal; padding: 8px; stroke-width: 0;">2019</tspan></text></g><g role="presentation"><line x1="418.69647418354316" x2="418.69647418354316" y1="274" y2="34" role="presentation" shape-rendering="auto" vector-effect="non-scaling-stroke" style="stroke: transparent; fill: transparent; stroke-width: 1; stroke-linecap: round; stroke-linejoin: round; pointer-events: none;"></line><line x1="418.69647418354316" x2="418.69647418354316" y1="274" y2="278" role="presentation" shape-rendering="auto" vector-effect="non-scaling-stroke" style="stroke: transparent; fill: transparent; size: 4px; stroke-width: 1; stroke-linecap: round; stroke-linejoin: round;"></line><text dx="0" dy="11.969999999999999" x="418.69647418354316" y="286"><tspan x="418.69647418354316" dx="0" text-anchor="middle" style="fill: rgb(153, 153, 153); font-size: 14px; font-family: inherit; stroke: transparent; letter-spacing: normal; padding: 8px; stroke-width: 0;">2020</tspan></text></g><g role="presentation"><line x1="531.4813674511951" x2="531.4813674511951" y1="274" y2="34" role="presentation" shape-rendering="auto" vector-effect="non-scaling-stroke" style="stroke: transparent; fill: transparent; stroke-width: 1; stroke-linecap: round; stroke-linejoin: round; pointer-events: none;"></line><line x1="531.4813674511951" x2="531.4813674511951" y1="274" y2="278" role="presentation" shape-rendering="auto" vector-effect="non-scaling-stroke" style="stroke: transparent; fill: transparent; size: 4px; stroke-width: 1; stroke-linecap: round; stroke-linejoin: round;"></line><text dx="0" dy="11.969999999999999" x="531.4813674511951" y="286"><tspan x="531.4813674511951" dx="0" text-anchor="middle" style="fill: rgb(153, 153, 153); font-size: 14px; font-family: inherit; stroke: transparent; letter-spacing: normal; padding: 8px; stroke-width: 0;">2021</tspan></text></g></g><g role="presentation"><line x1="578" x2="578" y1="34" y2="274" role="presentation" shape-rendering="auto" vector-effect="non-scaling-stroke" style="stroke: transparent; fill: transparent; stroke-width: 1; stroke-linejoin: round;"></line><g role="presentation"><line x1="578" x2="15" y1="274" y2="274" role="presentation" shape-rendering="auto" vector-effect="non-scaling-stroke" style="stroke: rgb(226, 226, 226); fill: transparent; stroke-width: 1; stroke-linecap: round; stroke-linejoin: round; pointer-events: none;"></line><line x1="578" x2="582" y1="274" y2="274" role="presentation" shape-rendering="auto" vector-effect="non-scaling-stroke" style="stroke: transparent; fill: transparent; size: 4px; stroke-width: 1; stroke-linecap: round; stroke-linejoin: round;"></line><text dx="0" dy="4.97" x="590" y="274"><tspan x="590" dx="0" text-anchor="start" style="fill: rgb(153, 153, 153); font-size: 14px; font-family: inherit; stroke: transparent; letter-spacing: normal; padding: 8px; stroke-width: 0;">$100K</tspan></text></g><g role="presentation"><line x1="578" x2="15" y1="234" y2="234" role="presentation" shape-rendering="auto" vector-effect="non-scaling-stroke" style="stroke: rgb(226, 226, 226); fill: transparent; stroke-width: 1; stroke-linecap: round; stroke-linejoin: round; pointer-events: none;"></line><line x1="578" x2="582" y1="234" y2="234" role="presentation" shape-rendering="auto" vector-effect="non-scaling-stroke" style="stroke: transparent; fill: transparent; size: 4px; stroke-width: 1; stroke-linecap: round; stroke-linejoin: round;"></line><text dx="0" dy="4.97" x="590" y="234"><tspan x="590" dx="0" text-anchor="start" style="fill: rgb(153, 153, 153); font-size: 14px; font-family: inherit; stroke: transparent; letter-spacing: normal; padding: 8px; stroke-width: 0;">$150K</tspan></text></g><g role="presentation"><line x1="578" x2="15" y1="194" y2="194" role="presentation" shape-rendering="auto" vector-effect="non-scaling-stroke" style="stroke: rgb(226, 226, 226); fill: transparent; stroke-width: 1; stroke-linecap: round; stroke-linejoin: round; pointer-events: none;"></line><line x1="578" x2="582" y1="194" y2="194" role="presentation" shape-rendering="auto" vector-effect="non-scaling-stroke" style="stroke: transparent; fill: transparent; size: 4px; stroke-width: 1; stroke-linecap: round; stroke-linejoin: round;"></line><text dx="0" dy="4.97" x="590" y="194"><tspan x="590" dx="0" text-anchor="start" style="fill: rgb(153, 153, 153); font-size: 14px; font-family: inherit; stroke: transparent; letter-spacing: normal; padding: 8px; stroke-width: 0;">$200K</tspan></text></g><g role="presentation"><line x1="578" x2="15" y1="154" y2="154" role="presentation" shape-rendering="auto" vector-effect="non-scaling-stroke" style="stroke: rgb(226, 226, 226); fill: transparent; stroke-width: 1; stroke-linecap: round; stroke-linejoin: round; pointer-events: none;"></line><line x1="578" x2="582" y1="154" y2="154" role="presentation" shape-rendering="auto" vector-effect="non-scaling-stroke" style="stroke: transparent; fill: transparent; size: 4px; stroke-width: 1; stroke-linecap: round; stroke-linejoin: round;"></line><text dx="0" dy="4.97" x="590" y="154"><tspan x="590" dx="0" text-anchor="start" style="fill: rgb(153, 153, 153); font-size: 14px; font-family: inherit; stroke: transparent; letter-spacing: normal; padding: 8px; stroke-width: 0;">$250K</tspan></text></g><g role="presentation"><line x1="578" x2="15" y1="114" y2="114" role="presentation" shape-rendering="auto" vector-effect="non-scaling-stroke" style="stroke: rgb(226, 226, 226); fill: transparent; stroke-width: 1; stroke-linecap: round; stroke-linejoin: round; pointer-events: none;"></line><line x1="578" x2="582" y1="114" y2="114" role="presentation" shape-rendering="auto" vector-effect="non-scaling-stroke" style="stroke: transparent; fill: transparent; size: 4px; stroke-width: 1; stroke-linecap: round; stroke-linejoin: round;"></line><text dx="0" dy="4.97" x="590" y="114"><tspan x="590" dx="0" text-anchor="start" style="fill: rgb(153, 153, 153); font-size: 14px; font-family: inherit; stroke: transparent; letter-spacing: normal; padding: 8px; stroke-width: 0;">$300K</tspan></text></g><g role="presentation"><line x1="578" x2="15" y1="74" y2="74" role="presentation" shape-rendering="auto" vector-effect="non-scaling-stroke" style="stroke: rgb(226, 226, 226); fill: transparent; stroke-width: 1; stroke-linecap: round; stroke-linejoin: round; pointer-events: none;"></line><line x1="578" x2="582" y1="74" y2="74" role="presentation" shape-rendering="auto" vector-effect="non-scaling-stroke" style="stroke: transparent; fill: transparent; size: 4px; stroke-width: 1; stroke-linecap: round; stroke-linejoin: round;"></line><text dx="0" dy="4.97" x="590" y="74"><tspan x="590" dx="0" text-anchor="start" style="fill: rgb(153, 153, 153); font-size: 14px; font-family: inherit; stroke: transparent; letter-spacing: normal; padding: 8px; stroke-width: 0;">$350K</tspan></text></g><g role="presentation"><line x1="578" x2="15" y1="34" y2="34" role="presentation" shape-rendering="auto" vector-effect="non-scaling-stroke" style="stroke: rgb(226, 226, 226); fill: transparent; stroke-width: 1; stroke-linecap: round; stroke-linejoin: round; pointer-events: none;"></line><line x1="578" x2="582" y1="34" y2="34" role="presentation" shape-rendering="auto" vector-effect="non-scaling-stroke" style="stroke: transparent; fill: transparent; size: 4px; stroke-width: 1; stroke-linecap: round; stroke-linejoin: round;"></line><text dx="0" dy="4.97" x="590" y="34"><tspan x="590" dx="0" text-anchor="start" style="fill: rgb(153, 153, 153); font-size: 14px; font-family: inherit; stroke: transparent; letter-spacing: normal; padding: 8px; stroke-width: 0;">$400K</tspan></text></g></g><g style="height: 100%; width: 100%; user-select: none;"><defs><clipPath id="victory-clip-5"><rect x="15" y="34" width="563" height="240"></rect></clipPath></defs><g clip-path="url(#victory-clip-5)"><path shape-rendering="auto" role="presentation" d="M24.5528188286809,190C27.73709177157453,187.9,30.921364714468165,185.8,34.1056376573618,184C37.28991060025543,182.2,40.47418354314906,180.58204007285974,43.658456486042695,179.2C46.7400109469075,177.86254186497442,49.821565407772304,176.97881191609378,52.90311986863711,175.8C56.08739281153075,174.5818943533698,59.271665754424376,174.53333333333333,62.45593869731801,172C65.54177309493402,169.54498207885305,68.62760749255003,160.4,71.71344189016602,160.4C74.89771483305965,160.4,78.0819877759533,180.53333333333336,81.26626071884692,187.8C84.45053366174056,195.0666666666667,87.63480660463419,204,90.81907954752783,204C93.69519704433499,204,96.57131454114213,177.22368775235532,99.44743203794928,172.4C102.62742504409171,167.06666666666666,105.80741805023415,164.4,108.98741105637657,164.4C112.06896551724138,164.4,115.15051997810617,164.93333333333334,118.23207443897098,166C121.41634738186463,167.10222222222222,124.60062032475825,177.05208743169396,127.7848932676519,180.39999999999998C130.8664477285167,183.63991538868322,133.9480021893815,183.06026441036488,137.02955665024632,186.04000000000002C140.21382959313993,189.11906010928965,143.39810253603358,198.8,146.5823754789272,198.8C149.76664842182083,198.8,152.95092136471445,198.1068,156.1351943076081,196.72039999999998C159.2167487684729,195.37872258064513,162.2983032293377,165.2,165.37985769020253,165.2C168.56413063309614,165.2,171.74840357598978,176.256,174.9326765188834,176.256C178.0185109164994,176.256,181.10434531411542,173.17188337676,184.19017971173142,170.4C187.37445265462506,167.5396931590715,190.55872559751867,159.2,193.74299854041232,159.2C196.92727148330596,159.2,200.1115444261996,200,203.29581736909324,200C206.1719348659004,200,209.04805236270755,154,211.9241698595147,154C215.10416286565712,154,218.28415587179956,167,221.46414887794197,167C224.5457033388068,167,227.62725779967158,154,230.7088122605364,154C233.89308520343002,154,237.07735814632366,213,240.26163108921727,213C243.3431855500821,213,246.4247400109469,169.2,249.5062944718117,169.2C252.69056741470536,169.2,255.874840357599,182.07999999999998,259.05911330049264,182.07999999999998C262.2433862433863,182.07999999999998,265.42765918627987,154,268.6119321291735,154C271.69348659003833,154,274.7750410509031,180,277.8565955117679,180C281.04086845466156,180,284.22514139755515,175.85275462754768,287.4094143404488,173.2C290.4952487380648,170.62925257195982,293.58108313568084,164.4,296.66691753329684,164.4C299.8511904761905,164.4,303.03546341908407,170,306.2197363619777,170C309.40400930487135,170,312.588282247765,161.3966101694915,315.77255519065864,157.2C318.6486726874658,153.40951339529798,321.52479018427294,146,324.4009076810801,146C327.58090068722254,146,330.76089369336495,146,333.94088669950736,146C337.0224411603722,146,340.10399562123695,151.45037898818967,343.18555008210177,156C346.3698230249954,160.70127504553736,349.55409596788905,174,352.7383689107827,174C355.8199233716475,174,358.9014778325123,147.60000000000002,361.9830322933771,147.60000000000002C365.16730523627075,147.60000000000002,368.35157817916433,168.8,371.535851122058,168.8C374.7201240649516,168.8,377.90439700784526,143.6,381.0886699507389,143.6C384.1702244116037,143.6,387.2517788724685,162,390.3333333333333,162C393.51760627622696,162,396.7018792191206,151,399.88615216201424,151C402.97198655963024,151,406.0578209572463,154,409.1436553548623,154C412.32792829775593,154,415.5122012406495,124.79999999999998,418.69647418354316,124.79999999999998C421.8807471264368,124.79999999999998,425.0650200693304,146.02268199233717,428.24929301222403,154.04C431.22812899106003,161.54007168458784,434.206964969896,172,437.185800948732,172C440.3657939548744,172,443.54578696101686,155.6,446.72577996715927,155.6C449.8073344280241,155.6,452.8888888888889,170.8,455.97044334975374,170.8C459.1547162926473,170.8,462.33898923554096,162.35555555555547,465.52326217843455,154C468.6048166392994,145.91397849462362,471.6863711001642,122,474.767925561029,122C477.95219850392266,122,481.1364714468163,168,484.32074438970994,168C487.50501733260353,168,490.68929027549717,159.79599271402543,493.87356321839076,154C496.9551176792556,148.39097479287852,500.0366721401204,135.29032258064518,503.1182266009852,134C506.3024995438788,132.66666666666666,509.48677248677245,132,512.671045429666,132C515.7568798272821,132,518.8427142248981,138.91621123710956,521.9285486225142,144C525.1128215654078,149.24596232952902,528.2970945083015,163.2,531.4813674511951,163.2C534.6656403940887,163.2,537.8499133369824,97.72,541.0341862798759,97.72C543.9103037766831,97.72,546.7864212734902,126.03999999999999,549.6625387702974,126.03999999999999C552.8425317764398,126.03999999999999,556.0225247825822,102,559.2025177887247,102C562.2840722495895,102,565.3656267104543,119.80000000000001,568.4471811713191,119.80000000000001C571.6314541142127,119.80000000000001,574.8157270571064,108.10000000000001,578,96.4" style="fill: transparent; stroke: rgb(51, 51, 51); stroke-width: 2; opacity: 1;"></path></g></g></svg>