<svg xmlns="http://www.w3.org/2000/svg" width="640" height="324" role="img" aria-labelledby="victory-container-4-title victory-container-4-desc" viewBox="0 0 640 324" style="pointer-events: all; width: 100%; height: 100%;"><g role="presentation"><line x1="15" x2="578" y1="274" y2="274" role="presentation" shape-rendering="auto" vector-effect="non-scaling-stroke" style="stroke: rgb(226, 226, 226); fill: transparent; stroke-width: 1; stroke-linejoin: round;"></line><g role="presentation"><line x1="81.26626071884692" x2="81.26626071884692" y1="274" y2="34" role="presentation" shape-rendering="auto" vector-effect="non-scaling-stroke" style="stroke: transparent; fill: transparent; stroke-width: 1; stroke-linecap: round; stroke-linejoin: round; pointer-events: none;"></line><line x1="81.26626071884692" x2="81.26626071884692" y1="274" y2="278" role="presentation" shape-rendering="auto" vector-effect="non-scaling-stroke" style="stroke: transparent; fill: transparent; size: 4px; stroke-width: 1; stroke-linecap: round; stroke-linejoin: round;"></line><text dx="0" dy="11.969999999999999" x="81.26626071884692" y="286"><tspan x="81.26626071884692" dx="0" text-anchor="middle" style="fill: rgb(153, 153, 153); font-size: 14px; font-family: inherit; stroke: transparent; letter-spacing: normal; padding: 8px; stroke-width: 0;">2017</tspan></text></g><g role="presentation"><line x1="193.74299854041232" x2="193.74299854041232" y1="274" y2="34" role="presentation" shape-rendering="auto" vector-effect="non-scaling-stroke" style="stroke: transparent; fill: transparent; stroke-width: 1; stroke-linecap: round; stroke-linejoin: round; pointer-events: none;"></line><line x1="193.74299854041232" x2="193.74299854041232" y1="274" y2="278" role="presentation" shape-rendering="auto" vector-effect="non-scaling-stroke" style="stroke: transparent; fill: transparent; size: 4px; stroke-width: 1; stroke-linecap: round; stroke-linejoin: round;"></line><text dx="0" dy="11.969999999999999" x="193.74299854041232" y="286"><tspan x="193.74299854041232" dx="0" text-anchor="middle" style="fill: rgb(153, 153, 153); font-size: 14px; font-family: inherit; stroke: transparent; letter-spacing: normal; padding: 8px; stroke-width: 0;">2018</tspan></text></g><g role="presentation"><line x1="306.2197363619777" x2="306.2197363619777" y1="274" y2="34" role="presentation" shape-rendering="auto" vector-effect="non-scaling-stroke" style="stroke: transparent; fill: transparent; stroke-width: 1; stroke-linecap: round; stroke-linejoin: round; pointer-events: none;"></line><line x1="306.2197363619777" x2="306.2197363619777" y1="274" y2="278" role="presentation" shape-rendering="auto" vector-effect="non-scaling-stroke" style="stroke: transparent; fill: transparent; size: 4px; stroke-width: 1; stroke-linecap: round; stroke-linejoin: round;"></line><text dx="0" dy="11.969999999999999" x="306.2197363619777" y="286"><tspan x="306.2197363619777" dx="0" text-anchor="middle" style="fill: rgb(153, 153, 153); font-size: 14px; font-family: inherit; stroke: transparent; letter-spacing: normal; padding: 8px; stroke-width: 0;">2019</tspan></text></g><g role="presentation"><line x1="418.69647418354316" x2="418.69647418354316" y1="274" y2="34" role="presentation" shape-rendering="auto" vector-effect="non-scaling-stroke" style="stroke: transparent; fill: transparent; stroke-width: 1; stroke-linecap: round; stroke-linejoin: round; pointer-events: none;"></line><line x1="418.69647418354316" x2="418.69647418354316" y1="274" y2="278" role="presentation" shape-rendering="auto" vector-effect="non-scaling-stroke" style="stroke: transparent; fill: transparent; size: 4px; stroke-width: 1; stroke-linecap: round; stroke-linejoin: round;"></line><text dx="0" dy="11.969999999999999" x="418.69647418354316" y="286"><tspan x="418.69647418354316" dx="0" text-anchor="middle" style="fill: rgb(153, 153, 153); font-size: 14px; font-family: inherit; stroke: transparent; letter-spacing: normal; padding: 8px; stroke-width: 0;">2020</tspan></text></g><g role="presentation"><line x1="531.4813674511951" x2="531.4813674511951" y1="274" y2="34" role="presentation" shape-rendering="auto" vector-effect="non-scaling-stroke" style="stroke: transparent; fill: transparent; stroke-width: 1; stroke-linecap: round; stroke-linejoin: round; pointer-events: none;"></line><line x1="531.4813674511951" x2="531.4813674511951" y1="274" y2="278" role="presentation" shape-rendering="auto" vector-effect="non-scaling-stroke" style="stroke: transparent; fill: transparent; size: 4px; stroke-width: 1; stroke-linecap: round; stroke-linejoin: round;"></line><text dx="0" dy="11.969999999999999" x="531.4813674511951" y="286"><tspan x="531.4813674511951" dx="0" text-anchor="middle" style="fill: rgb(153, 153, 153); font-size: 14px; font-family: inherit; stroke: transparent; letter-spacing: normal; padding: 8px; stroke-width: 0;">2021</tspan></text></g></g><g role="presentation"><line x1="578" x2="578" y1="34" y2="274" role="presentation" shape-rendering="auto" vector-effect="non-scaling-stroke" style="stroke: transparent; fill: transparent; stroke-width: 1; stroke-linejoin: round;"></line><g role="presentation"><line x1="578" x2="15" y1="274" y2="274" role="presentation" shape-rendering="auto" vector-effect="non-scaling-stroke" style="stroke: rgb(226, 226, 226); fill: transparent; stroke-width: 1; stroke-linecap: round; stroke-linejoin: round; pointer-events: none;"></line><line x1="578" x2="582" y1="274" y2="274" role="presentation" shape-rendering="auto" vector-effect="non-scaling-stroke" style="stroke: transparent; fill: transparent; size: 4px; stroke-width: 1; stroke-linecap: round; stroke-linejoin: round;"></line><text dx="0" dy="4.97" x="590" y="274"><tspan x="590" dx="0" text-anchor="start" style="fill: rgb(153, 153, 153); font-size: 14px; font-family: inherit; stroke: transparent; letter-spacing: normal; padding: 8px; stroke-width: 0;">$400K</tspan></text></g><g role="presentation"><line x1="578" x2="15" y1="214" y2="214" role="presentation" shape-rendering="auto" vector-effect="non-scaling-stroke" style="stroke: rgb(226, 226, 226); fill: transparent; stroke-width: 1; stroke-linecap: round; stroke-linejoin: round; pointer-events: none;"></line><line x1="578" x2="582" y1="214" y2="214" role="presentation" shape-rendering="auto" vector-effect="non-scaling-stroke" style="stroke: transparent; fill: transparent; size: 4px; stroke-width: 1; stroke-linecap: round; stroke-linejoin: round;"></line><text dx="0" dy="4.97" x="590" y="214"><tspan x="590" dx="0" text-anchor="start" style="fill: rgb(153, 153, 153); font-size: 14px; font-family: inherit; stroke: transparent; letter-spacing: normal; padding: 8px; stroke-width: 0;">$500K</tspan></text></g><g role="presentation"><line x1="578" x2="15" y1="154" y2="154" role="presentation" shape-rendering="auto" vector-effect="non-scaling-stroke" style="stroke: rgb(226, 226, 226); fill: transparent; stroke-width: 1; stroke-linecap: round; stroke-linejoin: round; pointer-events: none;"></line><line x1="578" x2="582" y1="154" y2="154" role="presentation" shape-rendering="auto" vector-effect="non-scaling-stroke" style="stroke: transparent; fill: transparent; size: 4px; stroke-width: 1; stroke-linecap: round; stroke-linejoin: round;"></line><text dx="0" dy="4.97" x="590" y="154"><tspan x="590" dx="0" text-anchor="start" style="fill: rgb(153, 153, 153); font-size: 14px; font-family: inherit; stroke: transparent; letter-spacing: normal; padding: 8px; stroke-width: 0;">$600K</tspan></text></g><g role="presentation"><line x1="578" x2="15" y1="94" y2="94" role="presentation" shape-rendering="auto" vector-effect="non-scaling-stroke" style="stroke: rgb(226, 226, 226); fill: transparent; stroke-width: 1; stroke-linecap: round; stroke-linejoin: round; pointer-events: none;"></line><line x1="578" x2="582" y1="94" y2="94" role="presentation" shape-rendering="auto" vector-effect="non-scaling-stroke" style="stroke: transparent; fill: transparent; size: 4px; stroke-width: 1; stroke-linecap: round; stroke-linejoin: round;"></line><text dx="0" dy="4.97" x="590" y="94"><tspan x="590" dx="0" text-anchor="start" style="fill: rgb(153, 153, 153); font-size: 14px; font-family: inherit; stroke: transparent; letter-spacing: normal; padding: 8px; stroke-width: 0;">$700K</tspan></text></g><g role="presentation"><line x1="578" x2="15" y1="34" y2="34" role="presentation" shape-rendering="auto" vector-effect="non-scaling-stroke" style="stroke: rgb(226, 226, 226); fill: transparent; stroke-width: 1; stroke-linecap: round; stroke-linejoin: round; pointer-events: none;"></line><line x1="578" x2="582" y1="34" y2="34" role="presentation" shape-rendering="auto" vector-effect="non-scaling-stroke" style="stroke: transparent; fill: transparent; size: 4px; stroke-width: 1; stroke-linecap: round; stroke-linejoin: round;"></line><text dx="0" dy="4.97" x="590" y="34"><tspan x="590" dx="0" text-anchor="start" style="fill: rgb(153, 153, 153); font-size: 14px; font-family: inherit; stroke: transparent; letter-spacing: normal; padding: 8px; stroke-width: 0;">$800K</tspan></text></g></g><g style="height: 100%; width: 100%; user-select: none;"><defs><clipPath id="victory-clip-5"><rect x="15" y="34" width="563" height="240"></rect></clipPath></defs><g clip-path="url(#victory-clip-5)"><path shape-rendering="auto" role="presentation" d="M24.5528188286809,139.29999999999998C27.73709177157453,159.925,30.921364714468165,180.55,34.1056376573618,180.55C37.28991060025543,180.55,40.47418354314906,154,43.658456486042695,154C46.7400109469075,154,49.821565407772304,169.33962982548917,52.90311986863711,184.06C56.08739281153075,199.27104918032788,59.271665754424376,244.75,62.45593869731801,244.75C65.54177309493402,244.75,68.62760749255003,239.1,71.71344189016602,227.8C74.89771483305965,216.13952843273233,78.0819877759533,189.152,81.26626071884692,173.602C84.45053366174056,158.052,87.63480660463419,134.5,90.81907954752783,134.5C93.69519704433499,134.5,96.57131454114213,169.06,99.44743203794928,169.06C102.62742504409171,169.06,105.80741805023415,133.03,108.98741105637657,133.03C112.06896551724138,133.03,115.15051997810617,209.5,118.23207443897098,209.5C121.41634738186463,209.5,124.60062032475825,136,127.7848932676519,136C130.8664477285167,136,133.9480021893815,136,137.02955665024632,136C140.21382959313993,136,143.39810253603358,214,146.5823754789272,214C149.76664842182083,214,152.95092136471445,94.06,156.1351943076081,94.06C159.2167487684729,94.06,162.2983032293377,197.2,165.37985769020253,197.2C168.56413063309614,197.2,171.74840357598978,104.19999999999999,174.9326765188834,104.19999999999999C178.0185109164994,104.19999999999999,181.10434531411542,154.89999999999998,184.19017971173142,154.89999999999998C187.37445265462506,154.89999999999998,190.55872559751867,115,193.74299854041232,115C196.92727148330596,115,200.1115444261996,176.1535,203.29581736909324,176.1535C206.1719348659004,176.1535,209.04805236270755,173.769,211.9241698595147,169C215.10416286565712,163.7271324404762,218.28415587179956,141.7,221.46414887794197,141.7C224.5457033388068,141.7,227.62725779967158,213.4,230.7088122605364,213.4C233.89308520343002,213.4,237.07735814632366,107.87950000000001,240.26163108921727,107.87950000000001C243.3431855500821,107.87950000000001,246.4247400109469,184,249.5062944718117,184C252.69056741470536,184,255.874840357599,171,259.05911330049264,166C262.2433862433863,161.00000000000003,265.42765918627987,154,268.6119321291735,154C271.69348659003833,154,274.7750410509031,164.66737176097303,277.8565955117679,172C281.04086845466156,179.57704918032786,284.22514139755515,199,287.4094143404488,199C290.4952487380648,199,293.58108313568084,173.0218608939778,296.66691753329684,164.8C299.8511904761905,156.3158606031631,303.03546341908407,149.5,306.2197363619777,149.5C309.40400930487135,149.5,312.588282247765,244,315.77255519065864,244C318.6486726874658,244,321.52479018427294,208.97079036852801,324.4009076810801,193C327.58090068722254,175.3418195776545,330.76089369336495,151.22999999999996,333.94088669950736,143.8C337.0224411603722,136.6,340.10399562123695,140.20000000000002,343.18555008210177,133C346.3698230249954,125.55999999999996,349.55409596788905,55.67500000000001,352.7383689107827,55.67500000000001C355.8199233716475,55.67500000000001,358.9014778325123,74.16887625594921,361.9830322933771,86.53C365.16730523627075,99.30316120218578,368.35157817916433,114.85500000000006,371.535851122058,131.5C374.7201240649516,148.14500000000004,377.90439700784526,186.4,381.0886699507389,186.4C384.1702244116037,186.4,387.2517788724685,153.344156530936,390.3333333333333,140.5C393.51760627622696,127.22770491803276,396.7018792191206,114.41119278779475,399.88615216201424,108.55000000000001C402.97198655963024,102.87,406.0578209572463,100.03,409.1436553548623,100.03C412.32792829775593,100.03,415.5122012406495,157.89999999999998,418.69647418354316,157.89999999999998C421.8807471264368,157.89999999999998,425.0650200693304,105.36896551724128,428.24929301222403,91.89999999999998C431.22812899106003,79.3,434.206964969896,73,437.185800948732,73C440.3657939548744,73,443.54578696101686,214,446.72577996715927,214C449.8073344280241,214,452.8888888888889,162.5986250661026,455.97044334975374,146.5C459.1547162926473,129.86475409836086,462.33898923554096,134.36540983606534,465.52326217843455,117.1C468.6048166392994,100.39153886832361,471.6863711001642,46,474.767925561029,46C477.95219850392266,46,481.1364714468163,172.60000000000002,484.32074438970994,172.60000000000002C487.50501733260353,172.60000000000002,490.68929027549717,44.19999999999999,493.87356321839076,44.19999999999999C496.9551176792556,44.19999999999999,500.0366721401204,81.9806451612902,503.1182266009852,100C506.3024995438788,118.61999999999986,509.48677248677245,154,512.671045429666,154C515.7568798272821,154,518.8427142248981,76.06,521.9285486225142,76.06C525.1128215654078,76.06,528.2970945083015,258.7,531.4813674511951,258.7C534.6656403940887,258.7,537.8499133369824,100.78,541.0341862798759,100.78C543.9103037766831,100.78,546.7864212734902,102.76647538153509,549.6625387702974,104.5C552.8425317764398,106.41667974928487,556.0225247825822,112.06,559.2025177887247,112.06C562.2840722495895,112.06,565.3656267104543,110.54,568.4471811713191,107.5C571.6314541142127,104.35866666666669,574.8157270571064,89.42933333333335,578,74.5" style="fill: transparent; stroke: rgb(51, 51, 51); stroke-width: 2; opacity: 1;"></path></g></g></svg>