<svg xmlns="http://www.w3.org/2000/svg" width="640" height="324" role="img" aria-labelledby="victory-container-4-title victory-container-4-desc" viewBox="0 0 640 324" style="pointer-events: all; width: 100%; height: 100%;"><g role="presentation"><line x1="15" x2="578" y1="274" y2="274" role="presentation" shape-rendering="auto" vector-effect="non-scaling-stroke" style="stroke: rgb(226, 226, 226); fill: transparent; stroke-width: 1; stroke-linejoin: round;"></line><g role="presentation"><line x1="81.26626071884692" x2="81.26626071884692" y1="274" y2="34" role="presentation" shape-rendering="auto" vector-effect="non-scaling-stroke" style="stroke: transparent; fill: transparent; stroke-width: 1; stroke-linecap: round; stroke-linejoin: round; pointer-events: none;"></line><line x1="81.26626071884692" x2="81.26626071884692" y1="274" y2="278" role="presentation" shape-rendering="auto" vector-effect="non-scaling-stroke" style="stroke: transparent; fill: transparent; size: 4px; stroke-width: 1; stroke-linecap: round; stroke-linejoin: round;"></line><text dx="0" dy="11.969999999999999" x="81.26626071884692" y="286"><tspan x="81.26626071884692" dx="0" text-anchor="middle" style="fill: rgb(153, 153, 153); font-size: 14px; font-family: inherit; stroke: transparent; letter-spacing: normal; padding: 8px; stroke-width: 0;">2017</tspan></text></g><g role="presentation"><line x1="193.74299854041232" x2="193.74299854041232" y1="274" y2="34" role="presentation" shape-rendering="auto" vector-effect="non-scaling-stroke" style="stroke: transparent; fill: transparent; stroke-width: 1; stroke-linecap: round; stroke-linejoin: round; pointer-events: none;"></line><line x1="193.74299854041232" x2="193.74299854041232" y1="274" y2="278" role="presentation" shape-rendering="auto" vector-effect="non-scaling-stroke" style="stroke: transparent; fill: transparent; size: 4px; stroke-width: 1; stroke-linecap: round; stroke-linejoin: round;"></line><text dx="0" dy="11.969999999999999" x="193.74299854041232" y="286"><tspan x="193.74299854041232" dx="0" text-anchor="middle" style="fill: rgb(153, 153, 153); font-size: 14px; font-family: inherit; stroke: transparent; letter-spacing: normal; padding: 8px; stroke-width: 0;">2018</tspan></text></g><g role="presentation"><line x1="306.2197363619777" x2="306.2197363619777" y1="274" y2="34" role="presentation" shape-rendering="auto" vector-effect="non-scaling-stroke" style="stroke: transparent; fill: transparent; stroke-width: 1; stroke-linecap: round; stroke-linejoin: round; pointer-events: none;"></line><line x1="306.2197363619777" x2="306.2197363619777" y1="274" y2="278" role="presentation" shape-rendering="auto" vector-effect="non-scaling-stroke" style="stroke: transparent; fill: transparent; size: 4px; stroke-width: 1; stroke-linecap: round; stroke-linejoin: round;"></line><text dx="0" dy="11.969999999999999" x="306.2197363619777" y="286"><tspan x="306.2197363619777" dx="0" text-anchor="middle" style="fill: rgb(153, 153, 153); font-size: 14px; font-family: inherit; stroke: transparent; letter-spacing: normal; padding: 8px; stroke-width: 0;">2019</tspan></text></g><g role="presentation"><line x1="418.69647418354316" x2="418.69647418354316" y1="274" y2="34" role="presentation" shape-rendering="auto" vector-effect="non-scaling-stroke" style="stroke: transparent; fill: transparent; stroke-width: 1; stroke-linecap: round; stroke-linejoin: round; pointer-events: none;"></line><line x1="418.69647418354316" x2="418.69647418354316" y1="274" y2="278" role="presentation" shape-rendering="auto" vector-effect="non-scaling-stroke" style="stroke: transparent; fill: transparent; size: 4px; stroke-width: 1; stroke-linecap: round; stroke-linejoin: round;"></line><text dx="0" dy="11.969999999999999" x="418.69647418354316" y="286"><tspan x="418.69647418354316" dx="0" text-anchor="middle" style="fill: rgb(153, 153, 153); font-size: 14px; font-family: inherit; stroke: transparent; letter-spacing: normal; padding: 8px; stroke-width: 0;">2020</tspan></text></g><g role="presentation"><line x1="531.4813674511951" x2="531.4813674511951" y1="274" y2="34" role="presentation" shape-rendering="auto" vector-effect="non-scaling-stroke" style="stroke: transparent; fill: transparent; stroke-width: 1; stroke-linecap: round; stroke-linejoin: round; pointer-events: none;"></line><line x1="531.4813674511951" x2="531.4813674511951" y1="274" y2="278" role="presentation" shape-rendering="auto" vector-effect="non-scaling-stroke" style="stroke: transparent; fill: transparent; size: 4px; stroke-width: 1; stroke-linecap: round; stroke-linejoin: round;"></line><text dx="0" dy="11.969999999999999" x="531.4813674511951" y="286"><tspan x="531.4813674511951" dx="0" text-anchor="middle" style="fill: rgb(153, 153, 153); font-size: 14px; font-family: inherit; stroke: transparent; letter-spacing: normal; padding: 8px; stroke-width: 0;">2021</tspan></text></g></g><g role="presentation"><line x1="578" x2="578" y1="34" y2="274" role="presentation" shape-rendering="auto" vector-effect="non-scaling-stroke" style="stroke: transparent; fill: transparent; stroke-width: 1; stroke-linejoin: round;"></line><g role="presentation"><line x1="578" x2="15" y1="274" y2="274" role="presentation" shape-rendering="auto" vector-effect="non-scaling-stroke" style="stroke: rgb(226, 226, 226); fill: transparent; stroke-width: 1; stroke-linecap: round; stroke-linejoin: round; pointer-events: none;"></line><line x1="578" x2="582" y1="274" y2="274" role="presentation" shape-rendering="auto" vector-effect="non-scaling-stroke" style="stroke: transparent; fill: transparent; size: 4px; stroke-width: 1; stroke-linecap: round; stroke-linejoin: round;"></line><text dx="0" dy="4.97" x="590" y="274"><tspan x="590" dx="0" text-anchor="start" style="fill: rgb(153, 153, 153); font-size: 14px; font-family: inherit; stroke: transparent; letter-spacing: normal; padding: 8px; stroke-width: 0;">$100K</tspan></text></g><g role="presentation"><line x1="578" x2="15" y1="234" y2="234" role="presentation" shape-rendering="auto" vector-effect="non-scaling-stroke" style="stroke: rgb(226, 226, 226); fill: transparent; stroke-width: 1; stroke-linecap: round; stroke-linejoin: round; pointer-events: none;"></line><line x1="578" x2="582" y1="234" y2="234" role="presentation" shape-rendering="auto" vector-effect="non-scaling-stroke" style="stroke: transparent; fill: transparent; size: 4px; stroke-width: 1; stroke-linecap: round; stroke-linejoin: round;"></line><text dx="0" dy="4.97" x="590" y="234"><tspan x="590" dx="0" text-anchor="start" style="fill: rgb(153, 153, 153); font-size: 14px; font-family: inherit; stroke: transparent; letter-spacing: normal; padding: 8px; stroke-width: 0;">$150K</tspan></text></g><g role="presentation"><line x1="578" x2="15" y1="194" y2="194" role="presentation" shape-rendering="auto" vector-effect="non-scaling-stroke" style="stroke: rgb(226, 226, 226); fill: transparent; stroke-width: 1; stroke-linecap: round; stroke-linejoin: round; pointer-events: none;"></line><line x1="578" x2="582" y1="194" y2="194" role="presentation" shape-rendering="auto" vector-effect="non-scaling-stroke" style="stroke: transparent; fill: transparent; size: 4px; stroke-width: 1; stroke-linecap: round; stroke-linejoin: round;"></line><text dx="0" dy="4.97" x="590" y="194"><tspan x="590" dx="0" text-anchor="start" style="fill: rgb(153, 153, 153); font-size: 14px; font-family: inherit; stroke: transparent; letter-spacing: normal; padding: 8px; stroke-width: 0;">$200K</tspan></text></g><g role="presentation"><line x1="578" x2="15" y1="154" y2="154" role="presentation" shape-rendering="auto" vector-effect="non-scaling-stroke" style="stroke: rgb(226, 226, 226); fill: transparent; stroke-width: 1; stroke-linecap: round; stroke-linejoin: round; pointer-events: none;"></line><line x1="578" x2="582" y1="154" y2="154" role="presentation" shape-rendering="auto" vector-effect="non-scaling-stroke" style="stroke: transparent; fill: transparent; size: 4px; stroke-width: 1; stroke-linecap: round; stroke-linejoin: round;"></line><text dx="0" dy="4.97" x="590" y="154"><tspan x="590" dx="0" text-anchor="start" style="fill: rgb(153, 153, 153); font-size: 14px; font-family: inherit; stroke: transparent; letter-spacing: normal; padding: 8px; stroke-width: 0;">$250K</tspan></text></g><g role="presentation"><line x1="578" x2="15" y1="114" y2="114" role="presentation" shape-rendering="auto" vector-effect="non-scaling-stroke" style="stroke: rgb(226, 226, 226); fill: transparent; stroke-width: 1; stroke-linecap: round; stroke-linejoin: round; pointer-events: none;"></line><line x1="578" x2="582" y1="114" y2="114" role="presentation" shape-rendering="auto" vector-effect="non-scaling-stroke" style="stroke: transparent; fill: transparent; size: 4px; stroke-width: 1; stroke-linecap: round; stroke-linejoin: round;"></line><text dx="0" dy="4.97" x="590" y="114"><tspan x="590" dx="0" text-anchor="start" style="fill: rgb(153, 153, 153); font-size: 14px; font-family: inherit; stroke: transparent; letter-spacing: normal; padding: 8px; stroke-width: 0;">$300K</tspan></text></g><g role="presentation"><line x1="578" x2="15" y1="74" y2="74" role="presentation" shape-rendering="auto" vector-effect="non-scaling-stroke" style="stroke: rgb(226, 226, 226); fill: transparent; stroke-width: 1; stroke-linecap: round; stroke-linejoin: round; pointer-events: none;"></line><line x1="578" x2="582" y1="74" y2="74" role="presentation" shape-rendering="auto" vector-effect="non-scaling-stroke" style="stroke: transparent; fill: transparent; size: 4px; stroke-width: 1; stroke-linecap: round; stroke-linejoin: round;"></line><text dx="0" dy="4.97" x="590" y="74"><tspan x="590" dx="0" text-anchor="start" style="fill: rgb(153, 153, 153); font-size: 14px; font-family: inherit; stroke: transparent; letter-spacing: normal; padding: 8px; stroke-width: 0;">$350K</tspan></text></g><g role="presentation"><line x1="578" x2="15" y1="34" y2="34" role="presentation" shape-rendering="auto" vector-effect="non-scaling-stroke" style="stroke: rgb(226, 226, 226); fill: transparent; stroke-width: 1; stroke-linecap: round; stroke-linejoin: round; pointer-events: none;"></line><line x1="578" x2="582" y1="34" y2="34" role="presentation" shape-rendering="auto" vector-effect="non-scaling-stroke" style="stroke: transparent; fill: transparent; size: 4px; stroke-width: 1; stroke-linecap: round; stroke-linejoin: round;"></line><text dx="0" dy="4.97" x="590" y="34"><tspan x="590" dx="0" text-anchor="start" style="fill: rgb(153, 153, 153); font-size: 14px; font-family: inherit; stroke: transparent; letter-spacing: normal; padding: 8px; stroke-width: 0;">$400K</tspan></text></g></g><g style="height: 100%; width: 100%; user-select: none;"><defs><clipPath id="victory-clip-5"><rect x="15" y="34" width="563" height="240"></rect></clipPath></defs><g clip-path="url(#victory-clip-5)"><path shape-rendering="auto" role="presentation" d="M24.5528188286809,170C27.73709177157453,202.6,30.921364714468165,235.2,34.1056376573618,235.2C37.28991060025543,235.2,40.47418354314906,186.07999999999998,43.658456486042695,186.07999999999998C46.7400109469075,186.07999999999998,49.821565407772304,245.2,52.90311986863711,245.2C56.08739281153075,245.2,59.271665754424376,205.89303164136524,62.45593869731801,194C65.54177309493402,182.47462928303182,68.62760749255003,174,71.71344189016602,174C74.89771483305965,174,78.0819877759533,184.4666666666667,81.26626071884692,197.8C84.45053366174056,211.13333333333335,87.63480660463419,254,90.81907954752783,254C93.69519704433499,254,96.57131454114213,230,99.44743203794928,230C102.62742504409171,230,105.80741805023415,236.96166666666664,108.98741105637657,238.2C112.06896551724138,239.4,115.15051997810617,240,118.23207443897098,240C121.41634738186463,240,124.60062032475825,189.3306666666667,127.7848932676519,182.8C130.8664477285167,176.48,133.9480021893815,173.32,137.02955665024632,173.32C140.21382959313993,173.32,143.39810253603358,206,146.5823754789272,206C149.76664842182083,206,152.95092136471445,166,156.1351943076081,166C159.2167487684729,166,162.2983032293377,198,165.37985769020253,198C168.56413063309614,198,171.74840357598978,138.79999999999998,174.9326765188834,138.79999999999998C178.0185109164994,138.79999999999998,181.10434531411542,236.2,184.19017971173142,236.2C187.37445265462506,236.2,190.55872559751867,206,193.74299854041232,206C196.92727148330596,206,200.1115444261996,259.6,203.29581736909324,259.6C206.1719348659004,259.6,209.04805236270755,213.16726783310907,211.9241698595147,206.8C215.10416286565712,199.76000000000002,218.28415587179956,197.23066666666668,221.46414887794197,196.24C224.5457033388068,195.28,227.62725779967158,195.76000000000002,230.7088122605364,194.8C233.89308520343002,193.80800000000002,237.07735814632366,183.27475409836063,240.26163108921727,178C243.3431855500821,172.89539925965096,246.4247400109469,163.6,249.5062944718117,163.6C252.69056741470536,163.6,255.874840357599,198,259.05911330049264,198C262.2433862433863,198,265.42765918627987,161.60000000000002,268.6119321291735,161.60000000000002C271.69348659003833,161.60000000000002,274.7750410509031,213.2,277.8565955117679,213.2C281.04086845466156,213.2,284.22514139755515,198,287.4094143404488,198C290.4952487380648,198,293.58108313568084,208.3,296.66691753329684,208.3C299.8511904761905,208.3,303.03546341908407,202,306.2197363619777,202C309.40400930487135,202,312.588282247765,236,315.77255519065864,236C318.6486726874658,236,321.52479018427294,192.89421265141323,324.4009076810801,190C327.58090068722254,186.79999999999998,330.76089369336495,185.2,333.94088669950736,185.2C337.0224411603722,185.2,340.10399562123695,214,343.18555008210177,214C346.3698230249954,214,349.55409596788905,172.4,352.7383689107827,172.4C355.8199233716475,172.4,358.9014778325123,187.36356777719018,361.9830322933771,191.76C365.16730523627075,196.30297996357012,368.35157817916433,198.8,371.535851122058,198.8C374.7201240649516,198.8,377.90439700784526,174,381.0886699507389,174C384.1702244116037,174,387.2517788724685,174.04333333333332,390.3333333333333,174.13C393.51760627622696,174.21955555555556,396.7018792191206,195.60399999999998,399.88615216201424,195.60399999999998C402.97198655963024,195.60399999999998,406.0578209572463,176.9719375157498,409.1436553548623,171.38C412.32792829775593,165.609678901917,415.5122012406495,162,418.69647418354316,162C421.8807471264368,162,425.0650200693304,214.04,428.24929301222403,214.04C431.22812899106003,214.04,434.206964969896,188.848089659492,437.185800948732,178.07999999999998C440.3657939548744,166.58475486062852,443.54578696101686,147.7604,446.72577996715927,147.7604C449.8073344280241,147.7604,452.8888888888889,162.8,455.97044334975374,162.8C459.1547162926473,162.8,462.33898923554096,114.0008,465.52326217843455,114.0008C468.6048166392994,114.0008,471.6863711001642,150,474.767925561029,150C477.95219850392266,150,481.1364714468163,123.05713333333335,484.32074438970994,114.0008C487.50501733260353,104.94446666666676,490.68929027549717,95.66199999999998,493.87356321839076,95.66199999999998C496.9551176792556,95.66199999999998,500.0366721401204,141.48518709677418,503.1182266009852,146.00080000000003C506.3024995438788,150.66693333333333,509.48677248677245,153,512.671045429666,153C515.7568798272821,153,518.8427142248981,126.7772,521.9285486225142,126.7772C525.1128215654078,126.7772,528.2970945083015,198.8,531.4813674511951,198.8C534.6656403940887,198.8,537.8499133369824,179.720503551251,541.0341862798759,166C543.9103037766831,153.60728711499908,546.7864212734902,133.13792124310606,549.6625387702974,122.00040000000001C552.8425317764398,109.68614660174434,556.0225247825822,98,559.2025177887247,98C562.2840722495895,98,565.3656267104543,147.60000000000002,568.4471811713191,147.60000000000002C571.6314541142127,147.60000000000002,574.8157270571064,132.4,578,117.19999999999999" style="fill: transparent; stroke: rgb(51, 51, 51); stroke-width: 2; opacity: 1;"></path></g></g></svg>