<svg xmlns="http://www.w3.org/2000/svg" width="640" height="324" role="img" aria-labelledby="victory-container-1-title victory-container-1-desc" viewBox="0 0 640 324" style="pointer-events: all; width: 100%; height: 100%;"><g role="presentation"><line x1="15" x2="578" y1="274" y2="274" role="presentation" shape-rendering="auto" vector-effect="non-scaling-stroke" style="stroke: rgb(226, 226, 226); fill: transparent; stroke-width: 1; stroke-linejoin: round;"></line><g role="presentation"><line x1="81.26626071884692" x2="81.26626071884692" y1="274" y2="34" role="presentation" shape-rendering="auto" vector-effect="non-scaling-stroke" style="stroke: transparent; fill: transparent; stroke-width: 1; stroke-linecap: round; stroke-linejoin: round; pointer-events: none;"></line><line x1="81.26626071884692" x2="81.26626071884692" y1="274" y2="278" role="presentation" shape-rendering="auto" vector-effect="non-scaling-stroke" style="stroke: transparent; fill: transparent; size: 4px; stroke-width: 1; stroke-linecap: round; stroke-linejoin: round;"></line><text dx="0" dy="11.969999999999999" x="81.26626071884692" y="286"><tspan x="81.26626071884692" dx="0" text-anchor="middle" style="fill: rgb(153, 153, 153); font-size: 14px; font-family: inherit; stroke: transparent; letter-spacing: normal; padding: 8px; stroke-width: 0;">2017</tspan></text></g><g role="presentation"><line x1="193.74299854041232" x2="193.74299854041232" y1="274" y2="34" role="presentation" shape-rendering="auto" vector-effect="non-scaling-stroke" style="stroke: transparent; fill: transparent; stroke-width: 1; stroke-linecap: round; stroke-linejoin: round; pointer-events: none;"></line><line x1="193.74299854041232" x2="193.74299854041232" y1="274" y2="278" role="presentation" shape-rendering="auto" vector-effect="non-scaling-stroke" style="stroke: transparent; fill: transparent; size: 4px; stroke-width: 1; stroke-linecap: round; stroke-linejoin: round;"></line><text dx="0" dy="11.969999999999999" x="193.74299854041232" y="286"><tspan x="193.74299854041232" dx="0" text-anchor="middle" style="fill: rgb(153, 153, 153); font-size: 14px; font-family: inherit; stroke: transparent; letter-spacing: normal; padding: 8px; stroke-width: 0;">2018</tspan></text></g><g role="presentation"><line x1="306.2197363619777" x2="306.2197363619777" y1="274" y2="34" role="presentation" shape-rendering="auto" vector-effect="non-scaling-stroke" style="stroke: transparent; fill: transparent; stroke-width: 1; stroke-linecap: round; stroke-linejoin: round; pointer-events: none;"></line><line x1="306.2197363619777" x2="306.2197363619777" y1="274" y2="278" role="presentation" shape-rendering="auto" vector-effect="non-scaling-stroke" style="stroke: transparent; fill: transparent; size: 4px; stroke-width: 1; stroke-linecap: round; stroke-linejoin: round;"></line><text dx="0" dy="11.969999999999999" x="306.2197363619777" y="286"><tspan x="306.2197363619777" dx="0" text-anchor="middle" style="fill: rgb(153, 153, 153); font-size: 14px; font-family: inherit; stroke: transparent; letter-spacing: normal; padding: 8px; stroke-width: 0;">2019</tspan></text></g><g role="presentation"><line x1="418.69647418354316" x2="418.69647418354316" y1="274" y2="34" role="presentation" shape-rendering="auto" vector-effect="non-scaling-stroke" style="stroke: transparent; fill: transparent; stroke-width: 1; stroke-linecap: round; stroke-linejoin: round; pointer-events: none;"></line><line x1="418.69647418354316" x2="418.69647418354316" y1="274" y2="278" role="presentation" shape-rendering="auto" vector-effect="non-scaling-stroke" style="stroke: transparent; fill: transparent; size: 4px; stroke-width: 1; stroke-linecap: round; stroke-linejoin: round;"></line><text dx="0" dy="11.969999999999999" x="418.69647418354316" y="286"><tspan x="418.69647418354316" dx="0" text-anchor="middle" style="fill: rgb(153, 153, 153); font-size: 14px; font-family: inherit; stroke: transparent; letter-spacing: normal; padding: 8px; stroke-width: 0;">2020</tspan></text></g><g role="presentation"><line x1="531.4813674511951" x2="531.4813674511951" y1="274" y2="34" role="presentation" shape-rendering="auto" vector-effect="non-scaling-stroke" style="stroke: transparent; fill: transparent; stroke-width: 1; stroke-linecap: round; stroke-linejoin: round; pointer-events: none;"></line><line x1="531.4813674511951" x2="531.4813674511951" y1="274" y2="278" role="presentation" shape-rendering="auto" vector-effect="non-scaling-stroke" style="stroke: transparent; fill: transparent; size: 4px; stroke-width: 1; stroke-linecap: round; stroke-linejoin: round;"></line><text dx="0" dy="11.969999999999999" x="531.4813674511951" y="286"><tspan x="531.4813674511951" dx="0" text-anchor="middle" style="fill: rgb(153, 153, 153); font-size: 14px; font-family: inherit; stroke: transparent; letter-spacing: normal; padding: 8px; stroke-width: 0;">2021</tspan></text></g></g><g role="presentation"><line x1="578" x2="578" y1="34" y2="274" role="presentation" shape-rendering="auto" vector-effect="non-scaling-stroke" style="stroke: transparent; fill: transparent; stroke-width: 1; stroke-linejoin: round;"></line><g role="presentation"><line x1="578" x2="15" y1="266.22520377258047" y2="266.22520377258047" role="presentation" shape-rendering="auto" vector-effect="non-scaling-stroke" style="stroke: rgb(226, 226, 226); fill: transparent; stroke-width: 1; stroke-linecap: round; stroke-linejoin: round; pointer-events: none;"></line><line x1="578" x2="582" y1="266.22520377258047" y2="266.22520377258047" role="presentation" shape-rendering="auto" vector-effect="non-scaling-stroke" style="stroke: transparent; fill: transparent; size: 4px; stroke-width: 1; stroke-linecap: round; stroke-linejoin: round;"></line><text dx="0" dy="4.97" x="590" y="266.22520377258047"><tspan x="590" dx="0" text-anchor="start" style="fill: rgb(153, 153, 153); font-size: 14px; font-family: inherit; stroke: transparent; letter-spacing: normal; padding: 8px; stroke-width: 0;">$200K</tspan></text></g><g role="presentation"><line x1="578" x2="15" y1="231.69357495881383" y2="231.69357495881383" role="presentation" shape-rendering="auto" vector-effect="non-scaling-stroke" style="stroke: rgb(226, 226, 226); fill: transparent; stroke-width: 1; stroke-linecap: round; stroke-linejoin: round; pointer-events: none;"></line><line x1="578" x2="582" y1="231.69357495881383" y2="231.69357495881383" role="presentation" shape-rendering="auto" vector-effect="non-scaling-stroke" style="stroke: transparent; fill: transparent; size: 4px; stroke-width: 1; stroke-linecap: round; stroke-linejoin: round;"></line><text dx="0" dy="4.97" x="590" y="231.69357495881383"><tspan x="590" dx="0" text-anchor="start" style="fill: rgb(153, 153, 153); font-size: 14px; font-family: inherit; stroke: transparent; letter-spacing: normal; padding: 8px; stroke-width: 0;">$220K</tspan></text></g><g role="presentation"><line x1="578" x2="15" y1="197.16194614504724" y2="197.16194614504724" role="presentation" shape-rendering="auto" vector-effect="non-scaling-stroke" style="stroke: rgb(226, 226, 226); fill: transparent; stroke-width: 1; stroke-linecap: round; stroke-linejoin: round; pointer-events: none;"></line><line x1="578" x2="582" y1="197.16194614504724" y2="197.16194614504724" role="presentation" shape-rendering="auto" vector-effect="non-scaling-stroke" style="stroke: transparent; fill: transparent; size: 4px; stroke-width: 1; stroke-linecap: round; stroke-linejoin: round;"></line><text dx="0" dy="4.97" x="590" y="197.16194614504724"><tspan x="590" dx="0" text-anchor="start" style="fill: rgb(153, 153, 153); font-size: 14px; font-family: inherit; stroke: transparent; letter-spacing: normal; padding: 8px; stroke-width: 0;">$240K</tspan></text></g><g role="presentation"><line x1="578" x2="15" y1="162.63031733128062" y2="162.63031733128062" role="presentation" shape-rendering="auto" vector-effect="non-scaling-stroke" style="stroke: rgb(226, 226, 226); fill: transparent; stroke-width: 1; stroke-linecap: round; stroke-linejoin: round; pointer-events: none;"></line><line x1="578" x2="582" y1="162.63031733128062" y2="162.63031733128062" role="presentation" shape-rendering="auto" vector-effect="non-scaling-stroke" style="stroke: transparent; fill: transparent; size: 4px; stroke-width: 1; stroke-linecap: round; stroke-linejoin: round;"></line><text dx="0" dy="4.97" x="590" y="162.63031733128062"><tspan x="590" dx="0" text-anchor="start" style="fill: rgb(153, 153, 153); font-size: 14px; font-family: inherit; stroke: transparent; letter-spacing: normal; padding: 8px; stroke-width: 0;">$260K</tspan></text></g><g role="presentation"><line x1="578" x2="15" y1="128.098688517514" y2="128.098688517514" role="presentation" shape-rendering="auto" vector-effect="non-scaling-stroke" style="stroke: rgb(226, 226, 226); fill: transparent; stroke-width: 1; stroke-linecap: round; stroke-linejoin: round; pointer-events: none;"></line><line x1="578" x2="582" y1="128.098688517514" y2="128.098688517514" role="presentation" shape-rendering="auto" vector-effect="non-scaling-stroke" style="stroke: transparent; fill: transparent; size: 4px; stroke-width: 1; stroke-linecap: round; stroke-linejoin: round;"></line><text dx="0" dy="4.97" x="590" y="128.098688517514"><tspan x="590" dx="0" text-anchor="start" style="fill: rgb(153, 153, 153); font-size: 14px; font-family: inherit; stroke: transparent; letter-spacing: normal; padding: 8px; stroke-width: 0;">$280K</tspan></text></g><g role="presentation"><line x1="578" x2="15" y1="93.56705970374739" y2="93.56705970374739" role="presentation" shape-rendering="auto" vector-effect="non-scaling-stroke" style="stroke: rgb(226, 226, 226); fill: transparent; stroke-width: 1; stroke-linecap: round; stroke-linejoin: round; pointer-events: none;"></line><line x1="578" x2="582" y1="93.56705970374739" y2="93.56705970374739" role="presentation" shape-rendering="auto" vector-effect="non-scaling-stroke" style="stroke: transparent; fill: transparent; size: 4px; stroke-width: 1; stroke-linecap: round; stroke-linejoin: round;"></line><text dx="0" dy="4.97" x="590" y="93.56705970374739"><tspan x="590" dx="0" text-anchor="start" style="fill: rgb(153, 153, 153); font-size: 14px; font-family: inherit; stroke: transparent; letter-spacing: normal; padding: 8px; stroke-width: 0;">$300K</tspan></text></g><g role="presentation"><line x1="578" x2="15" y1="59.0354308899808" y2="59.0354308899808" role="presentation" shape-rendering="auto" vector-effect="non-scaling-stroke" style="stroke: rgb(226, 226, 226); fill: transparent; stroke-width: 1; stroke-linecap: round; stroke-linejoin: round; pointer-events: none;"></line><line x1="578" x2="582" y1="59.0354308899808" y2="59.0354308899808" role="presentation" shape-rendering="auto" vector-effect="non-scaling-stroke" style="stroke: transparent; fill: transparent; size: 4px; stroke-width: 1; stroke-linecap: round; stroke-linejoin: round;"></line><text dx="0" dy="4.97" x="590" y="59.0354308899808"><tspan x="590" dx="0" text-anchor="start" style="fill: rgb(153, 153, 153); font-size: 14px; font-family: inherit; stroke: transparent; letter-spacing: normal; padding: 8px; stroke-width: 0;">$320K</tspan></text></g></g><g style="height: 100%; width: 100%; user-select: none;"><defs><clipPath id="victory-clip-2"><rect x="15" y="34" width="563" height="240"></rect></clipPath></defs><g clip-path="url(#victory-clip-2)"><path shape-rendering="auto" role="presentation" d="M24.5528188286809,201.47839974676805C27.73709177157453,222.7153514672345,30.921364714468165,243.95230318770098,34.1056376573618,243.95230318770098C37.28991060025543,243.95230318770098,40.47418354314906,220.47942850154314,43.658456486042695,220.47942850154314C46.7400109469075,220.47942850154314,49.821565407772304,246.18321045408996,52.90311986863711,255.0455889441235C56.08739281153075,264.2033800504915,59.271665754424376,273.99913670927964,62.45593869731801,273.99913670927964C65.54177309493402,273.99913670927964,68.62760749255003,227.9910479227686,71.71344189016602,223.06066775537218C74.89771483305965,217.97300777681056,78.0819877759533,219.74563138925058,81.26626071884692,215.42917778752977C84.45053366174056,211.11272418580893,87.63480660463419,209.34010057336891,90.81907954752783,197.16194614504724C93.69519704433499,186.16232279043413,96.57131454114213,146.3141227167759,99.44743203794928,146.3141227167759C102.62742504409171,146.3141227167759,105.80741805023415,234.80142155205283,108.98741105637657,234.80142155205283C112.06896551724138,234.80142155205283,115.15051997810617,206.86310599469542,118.23207443897098,206.1056380078128C121.41634738186463,205.32292108803406,124.60062032475825,204.93156262814472,127.7848932676519,204.93156262814472C130.8664477285167,204.93156262814472,133.9480021893815,217.23345539304907,137.02955665024632,217.23345539304907C140.21382959313993,217.23345539304907,143.39810253603358,191.36178355862828,146.5823754789272,190.84265807212796C149.76664842182083,190.32353258562765,152.95092136471445,190.0639698423775,156.1351943076081,190.0639698423775C159.2167487684729,190.0639698423775,162.2983032293377,216.1629748998223,165.37985769020253,216.1629748998223C168.56413063309614,216.1629748998223,171.74840357598978,180.06878988223275,174.9326765188834,180.06878988223275C178.0185109164994,180.06878988223275,181.10434531411542,197.24827521708164,184.19017971173142,197.24827521708164C187.37445265462506,197.24827521708164,190.55872559751867,177.59459867772637,193.74299854041232,177.59459867772637C196.92727148330596,177.59459867772637,200.1115444261996,245.52349229872738,203.29581736909324,245.52349229872738C206.1719348659004,245.52349229872738,209.04805236270755,182.65952533398558,211.9241698595147,182.65952533398558C215.10416286565712,182.65952533398558,218.28415587179956,197.16194614504724,221.46414887794197,197.16194614504724C224.5457033388068,197.16194614504724,227.62725779967158,163.93215973755963,230.7088122605364,163.93215973755963C233.89308520343002,163.93215973755963,237.07735814632366,197.8871103501363,240.26163108921727,197.8871103501363C243.3431855500821,197.8871103501363,246.4247400109469,187.67438112846486,249.5062944718117,187.67438112846486C252.69056741470536,187.67438112846486,255.874840357599,194.22848427731776,259.05911330049264,194.22848427731776C262.2433862433863,194.22848427731776,265.42765918627987,119.46578131407236,268.6119321291735,119.46578131407236C271.69348659003833,119.46578131407236,274.7750410509031,149.86597861244795,277.8565955117679,163.2380739984029C281.04086845466156,177.05590589722303,284.22514139755515,200.7877671704927,287.4094143404488,200.7877671704927C290.4952487380648,200.7877671704927,293.58108313568084,179.76275134441363,296.66691753329684,172.99843888261404C299.8511904761905,166.01834391509828,303.03546341908407,160.04044517024812,306.2197363619777,160.04044517024812C309.40400930487135,160.04044517024812,312.588282247765,223.5441105587649,315.77255519065864,223.5441105587649C318.6486726874658,223.5441105587649,321.52479018427294,210.6318375595155,324.4009076810801,210.11130695020972C327.58090068722254,209.5357798033136,330.76089369336495,209.82354337676168,333.94088669950736,209.24801622986556C337.0224411603722,208.6903048627522,340.10399562123695,191.9298626355408,343.18555008210177,178.17386675107733C346.3698230249954,163.95933767046503,349.55409596788905,124.64552563613736,352.7383689107827,124.64552563613736C355.8199233716475,124.64552563613736,358.9014778325123,139.63114470481563,361.9830322933771,144.50121220405313C365.16730523627075,149.53361528659855,368.35157817916433,152.84635583404676,371.535851122058,153.99741012783898C374.7201240649516,155.1484644216312,377.90439700784526,155.7239915685273,381.0886699507389,155.7239915685273C384.1702244116037,155.7239915685273,387.2517788724685,145.6537053157126,390.3333333333333,145.6537053157126C393.51760627622696,145.6537053157126,396.7018792191206,159.43385825599702,399.88615216201424,167.89639072538003C402.97198655963024,176.09731264799447,406.0578209572463,195.45263051876577,409.1436553548623,195.45263051876577C412.32792829775593,195.45263051876577,415.5122012406495,176.87461421695934,418.69647418354316,176.87461421695934C421.8807471264368,176.87461421695934,425.0650200693304,188.12501888448452,428.24929301222403,188.12501888448452C431.22812899106003,188.12501888448452,434.206964969896,180.62010879231724,437.185800948732,173.8617296029582C440.3657939548744,166.6469656120189,443.54578696101686,145.366229505838,446.72577996715927,145.366229505838C449.8073344280241,145.366229505838,452.8888888888889,150.86174922977295,455.97044334975374,158.74550908973188C459.1547162926473,166.89206094502265,462.33898923554096,194.15337798464782,465.52326217843455,194.15337798464782C468.6048166392994,194.15337798464782,471.6863711001642,163.57979788322044,474.767925561029,162.84182355776494C477.95219850392266,162.0792500881276,481.1364714468163,162.46053682294627,484.32074438970994,161.69796335330892C487.50501733260353,160.93538988367158,490.68929027549717,143.637921483709,493.87356321839076,143.637921483709C496.9551176792556,143.637921483709,500.0366721401204,148.8219822593757,503.1182266009852,148.8219822593757C506.3024995438788,148.8219822593757,509.48677248677245,145.07961698668373,512.671045429666,137.59488644129985C515.7568798272821,130.34153869503382,518.8427142248981,93.56705970374739,521.9285486225142,93.56705970374739C525.1128215654078,93.56705970374739,528.2970945083015,149.68095652611817,531.4813674511951,149.68095652611817C534.6656403940887,149.68095652611817,537.8499133369824,119.92787874925062,541.0341862798759,110.83287411063071C543.9103037766831,102.61803121123208,546.7864212734902,95.62169161816652,549.6625387702974,95.62169161816652C552.8425317764398,95.62169161816652,556.0225247825822,113.42274627166319,559.2025177887247,113.42274627166319C562.2840722495895,113.42274627166319,565.3656267104543,34,568.4471811713191,34C571.6314541142127,34,574.8157270571064,58.603785529808704,578,83.20757105961741" style="fill: transparent; stroke: rgb(51, 51, 51); stroke-width: 2; opacity: 1;"></path></g></g></svg>