<svg xmlns="http://www.w3.org/2000/svg" width="640" height="324" role="img" aria-labelledby="victory-container-1-title victory-container-1-desc" viewBox="0 0 640 324" style="pointer-events: all; width: 100%; height: 100%;"><g role="presentation"><line x1="15" x2="578" y1="274" y2="274" role="presentation" shape-rendering="auto" vector-effect="non-scaling-stroke" style="stroke: rgb(226, 226, 226); fill: transparent; stroke-width: 1; stroke-linejoin: round;"></line><g role="presentation"><line x1="81.26626071884692" x2="81.26626071884692" y1="274" y2="34" role="presentation" shape-rendering="auto" vector-effect="non-scaling-stroke" style="stroke: transparent; fill: transparent; stroke-width: 1; stroke-linecap: round; stroke-linejoin: round; pointer-events: none;"></line><line x1="81.26626071884692" x2="81.26626071884692" y1="274" y2="278" role="presentation" shape-rendering="auto" vector-effect="non-scaling-stroke" style="stroke: transparent; fill: transparent; size: 4px; stroke-width: 1; stroke-linecap: round; stroke-linejoin: round;"></line><text dx="0" dy="11.969999999999999" x="81.26626071884692" y="286"><tspan x="81.26626071884692" dx="0" text-anchor="middle" style="fill: rgb(153, 153, 153); font-size: 14px; font-family: inherit; stroke: transparent; letter-spacing: normal; padding: 8px; stroke-width: 0;">2017</tspan></text></g><g role="presentation"><line x1="193.74299854041232" x2="193.74299854041232" y1="274" y2="34" role="presentation" shape-rendering="auto" vector-effect="non-scaling-stroke" style="stroke: transparent; fill: transparent; stroke-width: 1; stroke-linecap: round; stroke-linejoin: round; pointer-events: none;"></line><line x1="193.74299854041232" x2="193.74299854041232" y1="274" y2="278" role="presentation" shape-rendering="auto" vector-effect="non-scaling-stroke" style="stroke: transparent; fill: transparent; size: 4px; stroke-width: 1; stroke-linecap: round; stroke-linejoin: round;"></line><text dx="0" dy="11.969999999999999" x="193.74299854041232" y="286"><tspan x="193.74299854041232" dx="0" text-anchor="middle" style="fill: rgb(153, 153, 153); font-size: 14px; font-family: inherit; stroke: transparent; letter-spacing: normal; padding: 8px; stroke-width: 0;">2018</tspan></text></g><g role="presentation"><line x1="306.2197363619777" x2="306.2197363619777" y1="274" y2="34" role="presentation" shape-rendering="auto" vector-effect="non-scaling-stroke" style="stroke: transparent; fill: transparent; stroke-width: 1; stroke-linecap: round; stroke-linejoin: round; pointer-events: none;"></line><line x1="306.2197363619777" x2="306.2197363619777" y1="274" y2="278" role="presentation" shape-rendering="auto" vector-effect="non-scaling-stroke" style="stroke: transparent; fill: transparent; size: 4px; stroke-width: 1; stroke-linecap: round; stroke-linejoin: round;"></line><text dx="0" dy="11.969999999999999" x="306.2197363619777" y="286"><tspan x="306.2197363619777" dx="0" text-anchor="middle" style="fill: rgb(153, 153, 153); font-size: 14px; font-family: inherit; stroke: transparent; letter-spacing: normal; padding: 8px; stroke-width: 0;">2019</tspan></text></g><g role="presentation"><line x1="418.69647418354316" x2="418.69647418354316" y1="274" y2="34" role="presentation" shape-rendering="auto" vector-effect="non-scaling-stroke" style="stroke: transparent; fill: transparent; stroke-width: 1; stroke-linecap: round; stroke-linejoin: round; pointer-events: none;"></line><line x1="418.69647418354316" x2="418.69647418354316" y1="274" y2="278" role="presentation" shape-rendering="auto" vector-effect="non-scaling-stroke" style="stroke: transparent; fill: transparent; size: 4px; stroke-width: 1; stroke-linecap: round; stroke-linejoin: round;"></line><text dx="0" dy="11.969999999999999" x="418.69647418354316" y="286"><tspan x="418.69647418354316" dx="0" text-anchor="middle" style="fill: rgb(153, 153, 153); font-size: 14px; font-family: inherit; stroke: transparent; letter-spacing: normal; padding: 8px; stroke-width: 0;">2020</tspan></text></g><g role="presentation"><line x1="531.4813674511951" x2="531.4813674511951" y1="274" y2="34" role="presentation" shape-rendering="auto" vector-effect="non-scaling-stroke" style="stroke: transparent; fill: transparent; stroke-width: 1; stroke-linecap: round; stroke-linejoin: round; pointer-events: none;"></line><line x1="531.4813674511951" x2="531.4813674511951" y1="274" y2="278" role="presentation" shape-rendering="auto" vector-effect="non-scaling-stroke" style="stroke: transparent; fill: transparent; size: 4px; stroke-width: 1; stroke-linecap: round; stroke-linejoin: round;"></line><text dx="0" dy="11.969999999999999" x="531.4813674511951" y="286"><tspan x="531.4813674511951" dx="0" text-anchor="middle" style="fill: rgb(153, 153, 153); font-size: 14px; font-family: inherit; stroke: transparent; letter-spacing: normal; padding: 8px; stroke-width: 0;">2021</tspan></text></g></g><g role="presentation"><line x1="578" x2="578" y1="34" y2="274" role="presentation" shape-rendering="auto" vector-effect="non-scaling-stroke" style="stroke: transparent; fill: transparent; stroke-width: 1; stroke-linejoin: round;"></line><g role="presentation"><line x1="578" x2="15" y1="274" y2="274" role="presentation" shape-rendering="auto" vector-effect="non-scaling-stroke" style="stroke: rgb(226, 226, 226); fill: transparent; stroke-width: 1; stroke-linecap: round; stroke-linejoin: round; pointer-events: none;"></line><line x1="578" x2="582" y1="274" y2="274" role="presentation" shape-rendering="auto" vector-effect="non-scaling-stroke" style="stroke: transparent; fill: transparent; size: 4px; stroke-width: 1; stroke-linecap: round; stroke-linejoin: round;"></line><text dx="0" dy="4.97" x="590" y="274"><tspan x="590" dx="0" text-anchor="start" style="fill: rgb(153, 153, 153); font-size: 14px; font-family: inherit; stroke: transparent; letter-spacing: normal; padding: 8px; stroke-width: 0;">$100K</tspan></text></g><g role="presentation"><line x1="578" x2="15" y1="214" y2="214" role="presentation" shape-rendering="auto" vector-effect="non-scaling-stroke" style="stroke: rgb(226, 226, 226); fill: transparent; stroke-width: 1; stroke-linecap: round; stroke-linejoin: round; pointer-events: none;"></line><line x1="578" x2="582" y1="214" y2="214" role="presentation" shape-rendering="auto" vector-effect="non-scaling-stroke" style="stroke: transparent; fill: transparent; size: 4px; stroke-width: 1; stroke-linecap: round; stroke-linejoin: round;"></line><text dx="0" dy="4.97" x="590" y="214"><tspan x="590" dx="0" text-anchor="start" style="fill: rgb(153, 153, 153); font-size: 14px; font-family: inherit; stroke: transparent; letter-spacing: normal; padding: 8px; stroke-width: 0;">$150K</tspan></text></g><g role="presentation"><line x1="578" x2="15" y1="154" y2="154" role="presentation" shape-rendering="auto" vector-effect="non-scaling-stroke" style="stroke: rgb(226, 226, 226); fill: transparent; stroke-width: 1; stroke-linecap: round; stroke-linejoin: round; pointer-events: none;"></line><line x1="578" x2="582" y1="154" y2="154" role="presentation" shape-rendering="auto" vector-effect="non-scaling-stroke" style="stroke: transparent; fill: transparent; size: 4px; stroke-width: 1; stroke-linecap: round; stroke-linejoin: round;"></line><text dx="0" dy="4.97" x="590" y="154"><tspan x="590" dx="0" text-anchor="start" style="fill: rgb(153, 153, 153); font-size: 14px; font-family: inherit; stroke: transparent; letter-spacing: normal; padding: 8px; stroke-width: 0;">$200K</tspan></text></g><g role="presentation"><line x1="578" x2="15" y1="94" y2="94" role="presentation" shape-rendering="auto" vector-effect="non-scaling-stroke" style="stroke: rgb(226, 226, 226); fill: transparent; stroke-width: 1; stroke-linecap: round; stroke-linejoin: round; pointer-events: none;"></line><line x1="578" x2="582" y1="94" y2="94" role="presentation" shape-rendering="auto" vector-effect="non-scaling-stroke" style="stroke: transparent; fill: transparent; size: 4px; stroke-width: 1; stroke-linecap: round; stroke-linejoin: round;"></line><text dx="0" dy="4.97" x="590" y="94"><tspan x="590" dx="0" text-anchor="start" style="fill: rgb(153, 153, 153); font-size: 14px; font-family: inherit; stroke: transparent; letter-spacing: normal; padding: 8px; stroke-width: 0;">$250K</tspan></text></g><g role="presentation"><line x1="578" x2="15" y1="34" y2="34" role="presentation" shape-rendering="auto" vector-effect="non-scaling-stroke" style="stroke: rgb(226, 226, 226); fill: transparent; stroke-width: 1; stroke-linecap: round; stroke-linejoin: round; pointer-events: none;"></line><line x1="578" x2="582" y1="34" y2="34" role="presentation" shape-rendering="auto" vector-effect="non-scaling-stroke" style="stroke: transparent; fill: transparent; size: 4px; stroke-width: 1; stroke-linecap: round; stroke-linejoin: round;"></line><text dx="0" dy="4.97" x="590" y="34"><tspan x="590" dx="0" text-anchor="start" style="fill: rgb(153, 153, 153); font-size: 14px; font-family: inherit; stroke: transparent; letter-spacing: normal; padding: 8px; stroke-width: 0;">$300K</tspan></text></g></g><g style="height: 100%; width: 100%; user-select: none;"><defs><clipPath id="victory-clip-2"><rect x="15" y="34" width="563" height="240"></rect></clipPath></defs><g clip-path="url(#victory-clip-2)"><path shape-rendering="auto" role="presentation" d="M24.5528188286809,168.34C27.73709177157453,181.1485,30.921364714468165,193.957,34.1056376573618,193.957C37.28991060025543,193.957,40.47418354314906,193.24,43.658456486042695,193.24C46.7400109469075,193.24,49.821565407772304,240.4,52.90311986863711,240.4C56.08739281153075,240.4,59.271665754424376,219.1,62.45593869731801,219.1C65.54177309493402,219.1,68.62760749255003,220,71.71344189016602,220C74.89771483305965,220,78.0819877759533,179.20000000000002,81.26626071884692,176.8C84.45053366174056,174.4,87.63480660463419,173.2,90.81907954752783,173.2C93.69519704433499,173.2,96.57131454114213,188.8,99.44743203794928,188.8C102.62742504409171,188.8,105.80741805023415,164.68,108.98741105637657,164.68C112.06896551724138,164.68,115.15051997810617,166.02,118.23207443897098,168.7C121.41634738186463,171.4693333333333,124.60062032475825,183.96404371584703,127.7848932676519,190.60000000000002C130.8664477285167,197.02189317821262,133.9480021893815,208,137.02955665024632,208C140.21382959313993,208,143.39810253603358,207.6,146.5823754789272,206.8C149.76664842182083,206.00000000000003,152.95092136471445,193.53436065573771,156.1351943076081,187.24C159.2167487684729,181.14868323638285,162.2983032293377,174.76704389212057,165.37985769020253,169.6C168.56413063309614,164.2607213114754,171.74840357598978,155.86599999999999,174.9326765188834,155.86599999999999C178.0185109164994,155.86599999999999,181.10434531411542,156.364,184.19017971173142,157.36C187.37445265462506,158.3877725381415,190.55872559751867,180.39999999999998,193.74299854041232,180.39999999999998C196.92727148330596,180.39999999999998,200.1115444261996,132.4,203.29581736909324,132.4C206.1719348659004,132.4,209.04805236270755,180.10000000000002,211.9241698595147,180.10000000000002C215.10416286565712,180.10000000000002,218.28415587179956,141.67138888888886,221.46414887794197,131.806C224.5457033388068,122.246,227.62725779967158,117.46599999999998,230.7088122605364,117.46599999999998C233.89308520343002,117.46599999999998,237.07735814632366,134.91150273224045,240.26163108921727,143.2C243.3431855500821,151.22112638815443,246.4247400109469,166.45,249.5062944718117,166.45C252.69056741470536,166.45,255.874840357599,140.05599999999998,259.05911330049264,140.05599999999998C262.2433862433863,140.05599999999998,265.42765918627987,148.61200000000002,268.6119321291735,148.61200000000002C271.69348659003833,148.61200000000002,274.7750410509031,148,277.8565955117679,148C281.04086845466156,148,284.22514139755515,154,287.4094143404488,154C290.4952487380648,154,293.58108313568084,129.70000000000002,296.66691753329684,129.70000000000002C299.8511904761905,129.70000000000002,303.03546341908407,163.6,306.2197363619777,163.6C309.40400930487135,163.6,312.588282247765,161.4,315.77255519065864,157C318.6486726874658,153.0258064516129,321.52479018427294,127.6,324.4009076810801,127.6C327.58090068722254,127.6,330.76089369336495,128.3727295644414,333.94088669950736,129.298C337.0224411603722,130.19462814751304,340.10399562123695,130.532,343.18555008210177,133C346.3698230249954,135.5502666666667,349.55409596788905,152.8,352.7383689107827,152.8C355.8199233716475,152.8,358.9014778325123,137.8,361.9830322933771,137.8C365.16730523627075,137.8,368.35157817916433,154,371.535851122058,154C374.7201240649516,154,377.90439700784526,100.56880000000001,381.0886699507389,100.56880000000001C384.1702244116037,100.56880000000001,387.2517788724685,125.22922580645165,390.3333333333333,131.806C393.51760627622696,138.602,396.7018792191206,142,399.88615216201424,142C402.97198655963024,142,406.0578209572463,125.19999999999999,409.1436553548623,125.19999999999999C412.32792829775593,125.19999999999999,415.5122012406495,146.2,418.69647418354316,146.2C421.8807471264368,146.2,425.0650200693304,144.79999999999998,428.24929301222403,142C431.22812899106003,139.38064516129032,434.206964969896,128.5,437.185800948732,128.5C440.3657939548744,128.5,443.54578696101686,154.12,446.72577996715927,154.12C449.8073344280241,154.12,452.8888888888889,145.92345637228982,455.97044334975374,141.004C459.1547162926473,135.9205617486339,462.33898923554096,124,465.52326217843455,124C468.6048166392994,124,471.6863711001642,136.012,474.767925561029,136.012C477.95219850392266,136.012,481.1364714468163,116.61999999999998,484.32074438970994,116.61999999999998C487.50501733260353,116.61999999999998,490.68929027549717,148,493.87356321839076,148C496.9551176792556,148,500.0366721401204,125.95745161290326,503.1182266009852,122.731C506.3024995438788,119.397,509.48677248677245,117.73000000000002,512.671045429666,117.73000000000002C515.7568798272821,117.73000000000002,518.8427142248981,124.85084113894086,521.9285486225142,127.50999999999999C525.1128215654078,130.25398639754223,528.2970945083015,133.8226,531.4813674511951,133.8226C534.6656403940887,133.8226,537.8499133369824,124.6,541.0341862798759,124.6C543.9103037766831,124.6,546.7864212734902,127.6,549.6625387702974,127.6C552.8425317764398,127.6,556.0225247825822,93.8194,559.2025177887247,93.8194C562.2840722495895,93.8194,565.3656267104543,109.3612,568.4471811713191,109.3612C571.6314541142127,109.3612,574.8157270571064,101.6866,578,94.012" style="fill: transparent; stroke: rgb(51, 51, 51); stroke-width: 2; opacity: 1;"></path></g></g></svg>