<svg xmlns="http://www.w3.org/2000/svg" width="640" height="324" role="img" aria-labelledby="victory-container-4-title victory-container-4-desc" viewBox="0 0 640 324" style="pointer-events: all; width: 100%; height: 100%;"><g role="presentation"><line x1="15" x2="578" y1="274" y2="274" role="presentation" shape-rendering="auto" vector-effect="non-scaling-stroke" style="stroke: rgb(226, 226, 226); fill: transparent; stroke-width: 1; stroke-linejoin: round;"></line><g role="presentation"><line x1="81.26626071884692" x2="81.26626071884692" y1="274" y2="34" role="presentation" shape-rendering="auto" vector-effect="non-scaling-stroke" style="stroke: transparent; fill: transparent; stroke-width: 1; stroke-linecap: round; stroke-linejoin: round; pointer-events: none;"></line><line x1="81.26626071884692" x2="81.26626071884692" y1="274" y2="278" role="presentation" shape-rendering="auto" vector-effect="non-scaling-stroke" style="stroke: transparent; fill: transparent; size: 4px; stroke-width: 1; stroke-linecap: round; stroke-linejoin: round;"></line><text dx="0" dy="11.969999999999999" x="81.26626071884692" y="286"><tspan x="81.26626071884692" dx="0" text-anchor="middle" style="fill: rgb(153, 153, 153); font-size: 14px; font-family: inherit; stroke: transparent; letter-spacing: normal; padding: 8px; stroke-width: 0;">2017</tspan></text></g><g role="presentation"><line x1="193.74299854041232" x2="193.74299854041232" y1="274" y2="34" role="presentation" shape-rendering="auto" vector-effect="non-scaling-stroke" style="stroke: transparent; fill: transparent; stroke-width: 1; stroke-linecap: round; stroke-linejoin: round; pointer-events: none;"></line><line x1="193.74299854041232" x2="193.74299854041232" y1="274" y2="278" role="presentation" shape-rendering="auto" vector-effect="non-scaling-stroke" style="stroke: transparent; fill: transparent; size: 4px; stroke-width: 1; stroke-linecap: round; stroke-linejoin: round;"></line><text dx="0" dy="11.969999999999999" x="193.74299854041232" y="286"><tspan x="193.74299854041232" dx="0" text-anchor="middle" style="fill: rgb(153, 153, 153); font-size: 14px; font-family: inherit; stroke: transparent; letter-spacing: normal; padding: 8px; stroke-width: 0;">2018</tspan></text></g><g role="presentation"><line x1="306.2197363619777" x2="306.2197363619777" y1="274" y2="34" role="presentation" shape-rendering="auto" vector-effect="non-scaling-stroke" style="stroke: transparent; fill: transparent; stroke-width: 1; stroke-linecap: round; stroke-linejoin: round; pointer-events: none;"></line><line x1="306.2197363619777" x2="306.2197363619777" y1="274" y2="278" role="presentation" shape-rendering="auto" vector-effect="non-scaling-stroke" style="stroke: transparent; fill: transparent; size: 4px; stroke-width: 1; stroke-linecap: round; stroke-linejoin: round;"></line><text dx="0" dy="11.969999999999999" x="306.2197363619777" y="286"><tspan x="306.2197363619777" dx="0" text-anchor="middle" style="fill: rgb(153, 153, 153); font-size: 14px; font-family: inherit; stroke: transparent; letter-spacing: normal; padding: 8px; stroke-width: 0;">2019</tspan></text></g><g role="presentation"><line x1="418.69647418354316" x2="418.69647418354316" y1="274" y2="34" role="presentation" shape-rendering="auto" vector-effect="non-scaling-stroke" style="stroke: transparent; fill: transparent; stroke-width: 1; stroke-linecap: round; stroke-linejoin: round; pointer-events: none;"></line><line x1="418.69647418354316" x2="418.69647418354316" y1="274" y2="278" role="presentation" shape-rendering="auto" vector-effect="non-scaling-stroke" style="stroke: transparent; fill: transparent; size: 4px; stroke-width: 1; stroke-linecap: round; stroke-linejoin: round;"></line><text dx="0" dy="11.969999999999999" x="418.69647418354316" y="286"><tspan x="418.69647418354316" dx="0" text-anchor="middle" style="fill: rgb(153, 153, 153); font-size: 14px; font-family: inherit; stroke: transparent; letter-spacing: normal; padding: 8px; stroke-width: 0;">2020</tspan></text></g><g role="presentation"><line x1="531.4813674511951" x2="531.4813674511951" y1="274" y2="34" role="presentation" shape-rendering="auto" vector-effect="non-scaling-stroke" style="stroke: transparent; fill: transparent; stroke-width: 1; stroke-linecap: round; stroke-linejoin: round; pointer-events: none;"></line><line x1="531.4813674511951" x2="531.4813674511951" y1="274" y2="278" role="presentation" shape-rendering="auto" vector-effect="non-scaling-stroke" style="stroke: transparent; fill: transparent; size: 4px; stroke-width: 1; stroke-linecap: round; stroke-linejoin: round;"></line><text dx="0" dy="11.969999999999999" x="531.4813674511951" y="286"><tspan x="531.4813674511951" dx="0" text-anchor="middle" style="fill: rgb(153, 153, 153); font-size: 14px; font-family: inherit; stroke: transparent; letter-spacing: normal; padding: 8px; stroke-width: 0;">2021</tspan></text></g></g><g role="presentation"><line x1="578" x2="578" y1="34" y2="274" role="presentation" shape-rendering="auto" vector-effect="non-scaling-stroke" style="stroke: transparent; fill: transparent; stroke-width: 1; stroke-linejoin: round;"></line><g role="presentation"><line x1="578" x2="15" y1="274" y2="274" role="presentation" shape-rendering="auto" vector-effect="non-scaling-stroke" style="stroke: rgb(226, 226, 226); fill: transparent; stroke-width: 1; stroke-linecap: round; stroke-linejoin: round; pointer-events: none;"></line><line x1="578" x2="582" y1="274" y2="274" role="presentation" shape-rendering="auto" vector-effect="non-scaling-stroke" style="stroke: transparent; fill: transparent; size: 4px; stroke-width: 1; stroke-linecap: round; stroke-linejoin: round;"></line><text dx="0" dy="4.97" x="590" y="274"><tspan x="590" dx="0" text-anchor="start" style="fill: rgb(153, 153, 153); font-size: 14px; font-family: inherit; stroke: transparent; letter-spacing: normal; padding: 8px; stroke-width: 0;">$100K</tspan></text></g><g role="presentation"><line x1="578" x2="15" y1="234" y2="234" role="presentation" shape-rendering="auto" vector-effect="non-scaling-stroke" style="stroke: rgb(226, 226, 226); fill: transparent; stroke-width: 1; stroke-linecap: round; stroke-linejoin: round; pointer-events: none;"></line><line x1="578" x2="582" y1="234" y2="234" role="presentation" shape-rendering="auto" vector-effect="non-scaling-stroke" style="stroke: transparent; fill: transparent; size: 4px; stroke-width: 1; stroke-linecap: round; stroke-linejoin: round;"></line><text dx="0" dy="4.97" x="590" y="234"><tspan x="590" dx="0" text-anchor="start" style="fill: rgb(153, 153, 153); font-size: 14px; font-family: inherit; stroke: transparent; letter-spacing: normal; padding: 8px; stroke-width: 0;">$150K</tspan></text></g><g role="presentation"><line x1="578" x2="15" y1="194" y2="194" role="presentation" shape-rendering="auto" vector-effect="non-scaling-stroke" style="stroke: rgb(226, 226, 226); fill: transparent; stroke-width: 1; stroke-linecap: round; stroke-linejoin: round; pointer-events: none;"></line><line x1="578" x2="582" y1="194" y2="194" role="presentation" shape-rendering="auto" vector-effect="non-scaling-stroke" style="stroke: transparent; fill: transparent; size: 4px; stroke-width: 1; stroke-linecap: round; stroke-linejoin: round;"></line><text dx="0" dy="4.97" x="590" y="194"><tspan x="590" dx="0" text-anchor="start" style="fill: rgb(153, 153, 153); font-size: 14px; font-family: inherit; stroke: transparent; letter-spacing: normal; padding: 8px; stroke-width: 0;">$200K</tspan></text></g><g role="presentation"><line x1="578" x2="15" y1="154" y2="154" role="presentation" shape-rendering="auto" vector-effect="non-scaling-stroke" style="stroke: rgb(226, 226, 226); fill: transparent; stroke-width: 1; stroke-linecap: round; stroke-linejoin: round; pointer-events: none;"></line><line x1="578" x2="582" y1="154" y2="154" role="presentation" shape-rendering="auto" vector-effect="non-scaling-stroke" style="stroke: transparent; fill: transparent; size: 4px; stroke-width: 1; stroke-linecap: round; stroke-linejoin: round;"></line><text dx="0" dy="4.97" x="590" y="154"><tspan x="590" dx="0" text-anchor="start" style="fill: rgb(153, 153, 153); font-size: 14px; font-family: inherit; stroke: transparent; letter-spacing: normal; padding: 8px; stroke-width: 0;">$250K</tspan></text></g><g role="presentation"><line x1="578" x2="15" y1="114" y2="114" role="presentation" shape-rendering="auto" vector-effect="non-scaling-stroke" style="stroke: rgb(226, 226, 226); fill: transparent; stroke-width: 1; stroke-linecap: round; stroke-linejoin: round; pointer-events: none;"></line><line x1="578" x2="582" y1="114" y2="114" role="presentation" shape-rendering="auto" vector-effect="non-scaling-stroke" style="stroke: transparent; fill: transparent; size: 4px; stroke-width: 1; stroke-linecap: round; stroke-linejoin: round;"></line><text dx="0" dy="4.97" x="590" y="114"><tspan x="590" dx="0" text-anchor="start" style="fill: rgb(153, 153, 153); font-size: 14px; font-family: inherit; stroke: transparent; letter-spacing: normal; padding: 8px; stroke-width: 0;">$300K</tspan></text></g><g role="presentation"><line x1="578" x2="15" y1="74" y2="74" role="presentation" shape-rendering="auto" vector-effect="non-scaling-stroke" style="stroke: rgb(226, 226, 226); fill: transparent; stroke-width: 1; stroke-linecap: round; stroke-linejoin: round; pointer-events: none;"></line><line x1="578" x2="582" y1="74" y2="74" role="presentation" shape-rendering="auto" vector-effect="non-scaling-stroke" style="stroke: transparent; fill: transparent; size: 4px; stroke-width: 1; stroke-linecap: round; stroke-linejoin: round;"></line><text dx="0" dy="4.97" x="590" y="74"><tspan x="590" dx="0" text-anchor="start" style="fill: rgb(153, 153, 153); font-size: 14px; font-family: inherit; stroke: transparent; letter-spacing: normal; padding: 8px; stroke-width: 0;">$350K</tspan></text></g><g role="presentation"><line x1="578" x2="15" y1="34" y2="34" role="presentation" shape-rendering="auto" vector-effect="non-scaling-stroke" style="stroke: rgb(226, 226, 226); fill: transparent; stroke-width: 1; stroke-linecap: round; stroke-linejoin: round; pointer-events: none;"></line><line x1="578" x2="582" y1="34" y2="34" role="presentation" shape-rendering="auto" vector-effect="non-scaling-stroke" style="stroke: transparent; fill: transparent; size: 4px; stroke-width: 1; stroke-linecap: round; stroke-linejoin: round;"></line><text dx="0" dy="4.97" x="590" y="34"><tspan x="590" dx="0" text-anchor="start" style="fill: rgb(153, 153, 153); font-size: 14px; font-family: inherit; stroke: transparent; letter-spacing: normal; padding: 8px; stroke-width: 0;">$400K</tspan></text></g></g><g style="height: 100%; width: 100%; user-select: none;"><defs><clipPath id="victory-clip-5"><rect x="15" y="34" width="563" height="240"></rect></clipPath></defs><g clip-path="url(#victory-clip-5)"><path shape-rendering="auto" role="presentation" d="M24.5528188286809,166.93C27.73709177157453,185.15916666666666,30.921364714468165,203.38833333333332,34.1056376573618,214C37.28991060025543,224.61166666666668,40.47418354314906,230.6,43.658456486042695,230.6C46.7400109469075,230.6,49.821565407772304,198.8,52.90311986863711,198.8C56.08739281153075,198.8,59.271665754424376,236,62.45593869731801,236C65.54177309493402,236,68.62760749255003,219.53658831516753,71.71344189016602,214C74.89771483305965,208.28679374967456,78.0819877759533,202.60000000000002,81.26626071884692,202.60000000000002C84.45053366174056,202.60000000000002,87.63480660463419,230.07999999999998,90.81907954752783,230.07999999999998C93.69519704433499,230.07999999999998,96.57131454114213,208.48,99.44743203794928,208.48C102.62742504409171,208.48,105.80741805023415,228,108.98741105637657,228C112.06896551724138,228,115.15051997810617,221.59957694341617,118.23207443897098,217.2C121.41634738186463,212.65377049180327,124.60062032475825,201,127.7848932676519,201C130.8664477285167,201,133.9480021893815,207.8281332628239,137.02955665024632,210C140.21382959313993,212.24426229508197,143.39810253603358,214.07999999999998,146.5823754789272,214.07999999999998C149.76664842182083,214.07999999999998,152.95092136471445,204.24,156.1351943076081,204.24C159.2167487684729,204.24,162.2983032293377,222,165.37985769020253,222C168.56413063309614,222,171.74840357598978,216.4,174.9326765188834,216.4C178.0185109164994,216.4,181.10434531411542,218,184.19017971173142,218C187.37445265462506,218,190.55872559751867,215.33333333333334,193.74299854041232,210C196.92727148330596,204.66666666666666,200.1115444261996,156.4,203.29581736909324,156.4C206.1719348659004,156.4,209.04805236270755,213.8,211.9241698595147,213.8C215.10416286565712,213.8,218.28415587179956,206,221.46414887794197,206C224.5457033388068,206,227.62725779967158,208.4339855455667,230.7088122605364,210C233.89308520343002,211.6182149362477,237.07735814632366,215.6,240.26163108921727,215.6C243.3431855500821,215.6,246.4247400109469,203.1581385510312,249.5062944718117,194C252.69056741470536,184.53659016393442,255.874840357599,159.3372,259.05911330049264,159.3372C262.2433862433863,159.3372,265.42765918627987,202.8,268.6119321291735,202.8C271.69348659003833,202.8,274.7750410509031,194,277.8565955117679,194C281.04086845466156,194,284.22514139755515,226,287.4094143404488,226C290.4952487380648,226,293.58108313568084,217.05842293906812,296.66691753329684,216.8C299.8511904761905,216.53333333333333,303.03546341908407,216.66666666666669,306.2197363619777,216.4C309.40400930487135,216.13333333333333,312.588282247765,178.07999999999998,315.77255519065864,178.07999999999998C318.6486726874658,178.07999999999998,321.52479018427294,222.04,324.4009076810801,222.04C327.58090068722254,222.04,330.76089369336495,216.84687628161308,333.94088669950736,206.8C337.0224411603722,197.06413065577195,340.10399562123695,163.6,343.18555008210177,163.6C346.3698230249954,163.6,349.55409596788905,202.11111111111111,352.7383689107827,202.8C355.8199233716475,203.46666666666667,358.9014778325123,203.8,361.9830322933771,203.8C365.16730523627075,203.8,368.35157817916433,170,371.535851122058,170C374.7201240649516,170,377.90439700784526,216.2736,381.0886699507389,216.2736C384.1702244116037,216.2736,387.2517788724685,214.39247833597744,390.3333333333333,210.8C393.51760627622696,207.08777238615667,396.7018792191206,194,399.88615216201424,194C402.97198655963024,194,406.0578209572463,194.8,409.1436553548623,196.4C412.32792829775593,198.051040221914,415.5122012406495,218.4,418.69647418354316,218.4C421.8807471264368,218.4,425.0650200693304,202.04,428.24929301222403,202.04C431.22812899106003,202.04,434.206964969896,204.68414015640067,437.185800948732,206C440.3657939548744,207.40471819510677,443.54578696101686,210.2,446.72577996715927,210.2C449.8073344280241,210.2,452.8888888888889,206.13333333333333,455.97044334975374,198C459.1547162926473,189.59555555555568,462.33898923554096,124.40519999999998,465.52326217843455,124.40519999999998C468.6048166392994,124.40519999999998,471.6863711001642,175.1225806451613,474.767925561029,179.60000000000002C477.95219850392266,184.2266666666667,481.1364714468163,186.54000000000002,484.32074438970994,186.54000000000002C487.50501733260353,186.54000000000002,490.68929027549717,110,493.87356321839076,110C496.9551176792556,110,500.0366721401204,114.66026666666667,503.1182266009852,123.98080000000002C506.3024995438788,133.61201777777768,509.48677248677245,175.18089264909864,512.671045429666,182.8508C515.7568798272821,190.2836,518.8427142248981,194,521.9285486225142,194C525.1128215654078,194,528.2970945083015,165.7772,531.4813674511951,154C534.6656403940887,142.2228,537.8499133369824,123.33680000000001,541.0341862798759,123.33680000000001C543.9103037766831,123.33680000000001,546.7864212734902,158.71219919246298,549.6625387702974,161.60399999999998C552.8425317764398,164.80133333333333,556.0225247825822,166.4,559.2025177887247,166.4C562.2840722495895,166.4,565.3656267104543,130,568.4471811713191,130C571.6314541142127,130,574.8157270571064,147.402,578,164.804" style="fill: transparent; stroke: rgb(51, 51, 51); stroke-width: 2; opacity: 1;"></path></g></g></svg>