<svg xmlns="http://www.w3.org/2000/svg" width="640" height="324" role="img" aria-labelledby="victory-container-1-title victory-container-1-desc" viewBox="0 0 640 324" style="pointer-events: all; width: 100%; height: 100%;"><g role="presentation"><line x1="15" x2="578" y1="274" y2="274" role="presentation" shape-rendering="auto" vector-effect="non-scaling-stroke" style="stroke: rgb(226, 226, 226); fill: transparent; stroke-width: 1; stroke-linejoin: round;"></line><g role="presentation"><line x1="81.26626071884692" x2="81.26626071884692" y1="274" y2="34" role="presentation" shape-rendering="auto" vector-effect="non-scaling-stroke" style="stroke: transparent; fill: transparent; stroke-width: 1; stroke-linecap: round; stroke-linejoin: round; pointer-events: none;"></line><line x1="81.26626071884692" x2="81.26626071884692" y1="274" y2="278" role="presentation" shape-rendering="auto" vector-effect="non-scaling-stroke" style="stroke: transparent; fill: transparent; size: 4px; stroke-width: 1; stroke-linecap: round; stroke-linejoin: round;"></line><text dx="0" dy="11.969999999999999" x="81.26626071884692" y="286"><tspan x="81.26626071884692" dx="0" text-anchor="middle" style="fill: rgb(153, 153, 153); font-size: 14px; font-family: inherit; stroke: transparent; letter-spacing: normal; padding: 8px; stroke-width: 0;">2017</tspan></text></g><g role="presentation"><line x1="193.74299854041232" x2="193.74299854041232" y1="274" y2="34" role="presentation" shape-rendering="auto" vector-effect="non-scaling-stroke" style="stroke: transparent; fill: transparent; stroke-width: 1; stroke-linecap: round; stroke-linejoin: round; pointer-events: none;"></line><line x1="193.74299854041232" x2="193.74299854041232" y1="274" y2="278" role="presentation" shape-rendering="auto" vector-effect="non-scaling-stroke" style="stroke: transparent; fill: transparent; size: 4px; stroke-width: 1; stroke-linecap: round; stroke-linejoin: round;"></line><text dx="0" dy="11.969999999999999" x="193.74299854041232" y="286"><tspan x="193.74299854041232" dx="0" text-anchor="middle" style="fill: rgb(153, 153, 153); font-size: 14px; font-family: inherit; stroke: transparent; letter-spacing: normal; padding: 8px; stroke-width: 0;">2018</tspan></text></g><g role="presentation"><line x1="306.2197363619777" x2="306.2197363619777" y1="274" y2="34" role="presentation" shape-rendering="auto" vector-effect="non-scaling-stroke" style="stroke: transparent; fill: transparent; stroke-width: 1; stroke-linecap: round; stroke-linejoin: round; pointer-events: none;"></line><line x1="306.2197363619777" x2="306.2197363619777" y1="274" y2="278" role="presentation" shape-rendering="auto" vector-effect="non-scaling-stroke" style="stroke: transparent; fill: transparent; size: 4px; stroke-width: 1; stroke-linecap: round; stroke-linejoin: round;"></line><text dx="0" dy="11.969999999999999" x="306.2197363619777" y="286"><tspan x="306.2197363619777" dx="0" text-anchor="middle" style="fill: rgb(153, 153, 153); font-size: 14px; font-family: inherit; stroke: transparent; letter-spacing: normal; padding: 8px; stroke-width: 0;">2019</tspan></text></g><g role="presentation"><line x1="418.69647418354316" x2="418.69647418354316" y1="274" y2="34" role="presentation" shape-rendering="auto" vector-effect="non-scaling-stroke" style="stroke: transparent; fill: transparent; stroke-width: 1; stroke-linecap: round; stroke-linejoin: round; pointer-events: none;"></line><line x1="418.69647418354316" x2="418.69647418354316" y1="274" y2="278" role="presentation" shape-rendering="auto" vector-effect="non-scaling-stroke" style="stroke: transparent; fill: transparent; size: 4px; stroke-width: 1; stroke-linecap: round; stroke-linejoin: round;"></line><text dx="0" dy="11.969999999999999" x="418.69647418354316" y="286"><tspan x="418.69647418354316" dx="0" text-anchor="middle" style="fill: rgb(153, 153, 153); font-size: 14px; font-family: inherit; stroke: transparent; letter-spacing: normal; padding: 8px; stroke-width: 0;">2020</tspan></text></g><g role="presentation"><line x1="531.4813674511951" x2="531.4813674511951" y1="274" y2="34" role="presentation" shape-rendering="auto" vector-effect="non-scaling-stroke" style="stroke: transparent; fill: transparent; stroke-width: 1; stroke-linecap: round; stroke-linejoin: round; pointer-events: none;"></line><line x1="531.4813674511951" x2="531.4813674511951" y1="274" y2="278" role="presentation" shape-rendering="auto" vector-effect="non-scaling-stroke" style="stroke: transparent; fill: transparent; size: 4px; stroke-width: 1; stroke-linecap: round; stroke-linejoin: round;"></line><text dx="0" dy="11.969999999999999" x="531.4813674511951" y="286"><tspan x="531.4813674511951" dx="0" text-anchor="middle" style="fill: rgb(153, 153, 153); font-size: 14px; font-family: inherit; stroke: transparent; letter-spacing: normal; padding: 8px; stroke-width: 0;">2021</tspan></text></g></g><g role="presentation"><line x1="578" x2="578" y1="34" y2="274" role="presentation" shape-rendering="auto" vector-effect="non-scaling-stroke" style="stroke: transparent; fill: transparent; stroke-width: 1; stroke-linejoin: round;"></line><g role="presentation"><line x1="578" x2="15" y1="274" y2="274" role="presentation" shape-rendering="auto" vector-effect="non-scaling-stroke" style="stroke: rgb(226, 226, 226); fill: transparent; stroke-width: 1; stroke-linecap: round; stroke-linejoin: round; pointer-events: none;"></line><line x1="578" x2="582" y1="274" y2="274" role="presentation" shape-rendering="auto" vector-effect="non-scaling-stroke" style="stroke: transparent; fill: transparent; size: 4px; stroke-width: 1; stroke-linecap: round; stroke-linejoin: round;"></line><text dx="0" dy="4.97" x="590" y="274"><tspan x="590" dx="0" text-anchor="start" style="fill: rgb(153, 153, 153); font-size: 14px; font-family: inherit; stroke: transparent; letter-spacing: normal; padding: 8px; stroke-width: 0;">$200K</tspan></text></g><g role="presentation"><line x1="578" x2="15" y1="214" y2="214" role="presentation" shape-rendering="auto" vector-effect="non-scaling-stroke" style="stroke: rgb(226, 226, 226); fill: transparent; stroke-width: 1; stroke-linecap: round; stroke-linejoin: round; pointer-events: none;"></line><line x1="578" x2="582" y1="214" y2="214" role="presentation" shape-rendering="auto" vector-effect="non-scaling-stroke" style="stroke: transparent; fill: transparent; size: 4px; stroke-width: 1; stroke-linecap: round; stroke-linejoin: round;"></line><text dx="0" dy="4.97" x="590" y="214"><tspan x="590" dx="0" text-anchor="start" style="fill: rgb(153, 153, 153); font-size: 14px; font-family: inherit; stroke: transparent; letter-spacing: normal; padding: 8px; stroke-width: 0;">$250K</tspan></text></g><g role="presentation"><line x1="578" x2="15" y1="154" y2="154" role="presentation" shape-rendering="auto" vector-effect="non-scaling-stroke" style="stroke: rgb(226, 226, 226); fill: transparent; stroke-width: 1; stroke-linecap: round; stroke-linejoin: round; pointer-events: none;"></line><line x1="578" x2="582" y1="154" y2="154" role="presentation" shape-rendering="auto" vector-effect="non-scaling-stroke" style="stroke: transparent; fill: transparent; size: 4px; stroke-width: 1; stroke-linecap: round; stroke-linejoin: round;"></line><text dx="0" dy="4.97" x="590" y="154"><tspan x="590" dx="0" text-anchor="start" style="fill: rgb(153, 153, 153); font-size: 14px; font-family: inherit; stroke: transparent; letter-spacing: normal; padding: 8px; stroke-width: 0;">$300K</tspan></text></g><g role="presentation"><line x1="578" x2="15" y1="94" y2="94" role="presentation" shape-rendering="auto" vector-effect="non-scaling-stroke" style="stroke: rgb(226, 226, 226); fill: transparent; stroke-width: 1; stroke-linecap: round; stroke-linejoin: round; pointer-events: none;"></line><line x1="578" x2="582" y1="94" y2="94" role="presentation" shape-rendering="auto" vector-effect="non-scaling-stroke" style="stroke: transparent; fill: transparent; size: 4px; stroke-width: 1; stroke-linecap: round; stroke-linejoin: round;"></line><text dx="0" dy="4.97" x="590" y="94"><tspan x="590" dx="0" text-anchor="start" style="fill: rgb(153, 153, 153); font-size: 14px; font-family: inherit; stroke: transparent; letter-spacing: normal; padding: 8px; stroke-width: 0;">$350K</tspan></text></g><g role="presentation"><line x1="578" x2="15" y1="34" y2="34" role="presentation" shape-rendering="auto" vector-effect="non-scaling-stroke" style="stroke: rgb(226, 226, 226); fill: transparent; stroke-width: 1; stroke-linecap: round; stroke-linejoin: round; pointer-events: none;"></line><line x1="578" x2="582" y1="34" y2="34" role="presentation" shape-rendering="auto" vector-effect="non-scaling-stroke" style="stroke: transparent; fill: transparent; size: 4px; stroke-width: 1; stroke-linecap: round; stroke-linejoin: round;"></line><text dx="0" dy="4.97" x="590" y="34"><tspan x="590" dx="0" text-anchor="start" style="fill: rgb(153, 153, 153); font-size: 14px; font-family: inherit; stroke: transparent; letter-spacing: normal; padding: 8px; stroke-width: 0;">$400K</tspan></text></g></g><g style="height: 100%; width: 100%; user-select: none;"><defs><clipPath id="victory-clip-2"><rect x="15" y="34" width="563" height="240"></rect></clipPath></defs><g clip-path="url(#victory-clip-2)"><path shape-rendering="auto" role="presentation" d="M24.5528188286809,136.375C27.73709177157453,105.83500000000001,30.921364714468165,75.29500000000002,34.1056376573618,75.29500000000002C37.28991060025543,75.29500000000002,40.47418354314906,120.7768710382514,43.658456486042695,134.42200000000003C46.7400109469075,147.62696351136967,49.821565407772304,157,52.90311986863711,157C56.08739281153075,157,59.271665754424376,152.9859106235651,62.45593869731801,148C65.54177309493402,143.1682237102279,68.62760749255003,127.90960000000001,71.71344189016602,127.90960000000001C74.89771483305965,127.90960000000001,78.0819877759533,138.29309999999998,81.26626071884692,143.2C84.45053366174056,148.1069,87.63480660463419,155.3957857142857,90.81907954752783,157.351C93.69519704433499,159.117,96.57131454114213,160,99.44743203794928,160C102.62742504409171,160,105.80741805023415,134.52964637199057,108.98741105637657,126.16C112.06896551724138,118.04944093158382,115.15051997810617,110.0272,118.23207443897098,110.0272C121.41634738186463,110.0272,124.60062032475825,163.06,127.7848932676519,163.06C130.8664477285167,163.06,133.9480021893815,125.28910629296674,137.02955665024632,107.20000000000002C140.21382959313993,88.50792349726781,143.39810253603358,52.8244,146.5823754789272,52.8244C149.76664842182083,52.8244,152.95092136471445,146.7011466666667,156.1351943076081,167.2C159.2167487684729,187.0376,162.2983032293377,196.9564,165.37985769020253,196.9564C168.56413063309614,196.9564,171.74840357598978,118.36000000000001,174.9326765188834,118.36000000000001C178.0185109164994,118.36000000000001,181.10434531411542,136,184.19017971173142,136C187.37445265462506,136,190.55872559751867,123.5788,193.74299854041232,123.5788C196.92727148330596,123.5788,200.1115444261996,162.39999999999998,203.29581736909324,162.39999999999998C206.1719348659004,162.39999999999998,209.04805236270755,73,211.9241698595147,73C215.10416286565712,73,218.28415587179956,109.6,221.46414887794197,109.6C224.5457033388068,109.6,227.62725779967158,98.851,230.7088122605364,98.851C233.89308520343002,98.851,237.07735814632366,124,240.26163108921727,124C243.3431855500821,124,246.4247400109469,118,249.5062944718117,118C252.69056741470536,118,255.874840357599,148,259.05911330049264,148C262.2433862433863,148,265.42765918627987,127.30000000000001,268.6119321291735,127.30000000000001C271.69348659003833,127.30000000000001,274.7750410509031,187.60000000000002,277.8565955117679,187.60000000000002C281.04086845466156,187.60000000000002,284.22514139755515,184.329,287.4094143404488,177.78699999999998C290.4952487380648,171.44723924731173,293.58108313568084,144.21714966053798,296.66691753329684,133.29999999999998C299.8511904761905,122.0345917511231,303.03546341908407,112,306.2197363619777,112C309.40400930487135,112,312.588282247765,160,315.77255519065864,160C318.6486726874658,160,321.52479018427294,106,324.4009076810801,106C327.58090068722254,106,330.76089369336495,155.29000000000002,333.94088669950736,155.29000000000002C337.0224411603722,155.29000000000002,340.10399562123695,150.06,343.18555008210177,139.6C346.3698230249954,128.79133333333326,349.55409596788905,64.666,352.7383689107827,64.666C355.8199233716475,64.666,358.9014778325123,134.8,361.9830322933771,134.8C365.16730523627075,134.8,368.35157817916433,82.12,371.535851122058,82.12C374.7201240649516,82.12,377.90439700784526,153.6796,381.0886699507389,153.6796C384.1702244116037,153.6796,387.2517788724685,147.20434331041776,390.3333333333333,141.412C393.51760627622696,135.42657857923498,396.7018792191206,118,399.88615216201424,118C402.97198655963024,118,406.0578209572463,136.96317213475723,409.1436553548623,144.1C412.32792829775593,151.46449366399526,415.5122012406495,161.2,418.69647418354316,161.2C421.8807471264368,161.2,425.0650200693304,108.0592,428.24929301222403,108.0592C431.22812899106003,108.0592,434.206964969896,111.38704500975982,437.185800948732,115.67679999999999C440.3657939548744,120.2562367209029,443.54578696101686,135.4,446.72577996715927,135.4C449.8073344280241,135.4,452.8888888888889,110.33402432575359,455.97044334975374,102.46000000000001C459.1547162926473,94.32350819672142,462.33898923554096,88,465.52326217843455,88C468.6048166392994,88,471.6863711001642,130.6006,474.767925561029,130.6006C477.95219850392266,130.6006,481.1364714468163,128.22639999999998,484.32074438970994,123.47799999999998C487.50501733260353,118.72960000000003,490.68929027549717,41.69200000000001,493.87356321839076,41.69200000000001C496.9551176792556,41.69200000000001,500.0366721401204,74.55936753040717,503.1182266009852,85.06C506.3024995438788,95.91065355191243,509.48677248677245,104.9416,512.671045429666,104.9416C515.7568798272821,104.9416,518.8427142248981,98.80000000000001,521.9285486225142,98.80000000000001C525.1128215654078,98.80000000000001,528.2970945083015,141.04,531.4813674511951,141.04C534.6656403940887,141.04,537.8499133369824,82.13980000000001,541.0341862798759,82.13980000000001C543.9103037766831,82.13980000000001,546.7864212734902,99.63999999999999,549.6625387702974,99.63999999999999C552.8425317764398,99.63999999999999,556.0225247825822,56.995000000000005,559.2025177887247,56.995000000000005C562.2840722495895,56.995000000000005,565.3656267104543,83.66739999999999,568.4471811713191,83.66739999999999C571.6314541142127,83.66739999999999,574.8157270571064,67.5337,578,51.400000000000006" style="fill: transparent; stroke: rgb(51, 51, 51); stroke-width: 2; opacity: 1;"></path></g></g></svg>