<svg xmlns="http://www.w3.org/2000/svg" width="640" height="324" role="img" aria-labelledby="victory-container-4-title victory-container-4-desc" viewBox="0 0 640 324" style="pointer-events: all; width: 100%; height: 100%;"><g role="presentation"><line x1="15" x2="578" y1="274" y2="274" role="presentation" shape-rendering="auto" vector-effect="non-scaling-stroke" style="stroke: rgb(226, 226, 226); fill: transparent; stroke-width: 1; stroke-linejoin: round;"></line><g role="presentation"><line x1="81.26626071884692" x2="81.26626071884692" y1="274" y2="34" role="presentation" shape-rendering="auto" vector-effect="non-scaling-stroke" style="stroke: transparent; fill: transparent; stroke-width: 1; stroke-linecap: round; stroke-linejoin: round; pointer-events: none;"></line><line x1="81.26626071884692" x2="81.26626071884692" y1="274" y2="278" role="presentation" shape-rendering="auto" vector-effect="non-scaling-stroke" style="stroke: transparent; fill: transparent; size: 4px; stroke-width: 1; stroke-linecap: round; stroke-linejoin: round;"></line><text dx="0" dy="11.969999999999999" x="81.26626071884692" y="286"><tspan x="81.26626071884692" dx="0" text-anchor="middle" style="fill: rgb(153, 153, 153); font-size: 14px; font-family: inherit; stroke: transparent; letter-spacing: normal; padding: 8px; stroke-width: 0;">2017</tspan></text></g><g role="presentation"><line x1="193.74299854041232" x2="193.74299854041232" y1="274" y2="34" role="presentation" shape-rendering="auto" vector-effect="non-scaling-stroke" style="stroke: transparent; fill: transparent; stroke-width: 1; stroke-linecap: round; stroke-linejoin: round; pointer-events: none;"></line><line x1="193.74299854041232" x2="193.74299854041232" y1="274" y2="278" role="presentation" shape-rendering="auto" vector-effect="non-scaling-stroke" style="stroke: transparent; fill: transparent; size: 4px; stroke-width: 1; stroke-linecap: round; stroke-linejoin: round;"></line><text dx="0" dy="11.969999999999999" x="193.74299854041232" y="286"><tspan x="193.74299854041232" dx="0" text-anchor="middle" style="fill: rgb(153, 153, 153); font-size: 14px; font-family: inherit; stroke: transparent; letter-spacing: normal; padding: 8px; stroke-width: 0;">2018</tspan></text></g><g role="presentation"><line x1="306.2197363619777" x2="306.2197363619777" y1="274" y2="34" role="presentation" shape-rendering="auto" vector-effect="non-scaling-stroke" style="stroke: transparent; fill: transparent; stroke-width: 1; stroke-linecap: round; stroke-linejoin: round; pointer-events: none;"></line><line x1="306.2197363619777" x2="306.2197363619777" y1="274" y2="278" role="presentation" shape-rendering="auto" vector-effect="non-scaling-stroke" style="stroke: transparent; fill: transparent; size: 4px; stroke-width: 1; stroke-linecap: round; stroke-linejoin: round;"></line><text dx="0" dy="11.969999999999999" x="306.2197363619777" y="286"><tspan x="306.2197363619777" dx="0" text-anchor="middle" style="fill: rgb(153, 153, 153); font-size: 14px; font-family: inherit; stroke: transparent; letter-spacing: normal; padding: 8px; stroke-width: 0;">2019</tspan></text></g><g role="presentation"><line x1="418.69647418354316" x2="418.69647418354316" y1="274" y2="34" role="presentation" shape-rendering="auto" vector-effect="non-scaling-stroke" style="stroke: transparent; fill: transparent; stroke-width: 1; stroke-linecap: round; stroke-linejoin: round; pointer-events: none;"></line><line x1="418.69647418354316" x2="418.69647418354316" y1="274" y2="278" role="presentation" shape-rendering="auto" vector-effect="non-scaling-stroke" style="stroke: transparent; fill: transparent; size: 4px; stroke-width: 1; stroke-linecap: round; stroke-linejoin: round;"></line><text dx="0" dy="11.969999999999999" x="418.69647418354316" y="286"><tspan x="418.69647418354316" dx="0" text-anchor="middle" style="fill: rgb(153, 153, 153); font-size: 14px; font-family: inherit; stroke: transparent; letter-spacing: normal; padding: 8px; stroke-width: 0;">2020</tspan></text></g><g role="presentation"><line x1="531.4813674511951" x2="531.4813674511951" y1="274" y2="34" role="presentation" shape-rendering="auto" vector-effect="non-scaling-stroke" style="stroke: transparent; fill: transparent; stroke-width: 1; stroke-linecap: round; stroke-linejoin: round; pointer-events: none;"></line><line x1="531.4813674511951" x2="531.4813674511951" y1="274" y2="278" role="presentation" shape-rendering="auto" vector-effect="non-scaling-stroke" style="stroke: transparent; fill: transparent; size: 4px; stroke-width: 1; stroke-linecap: round; stroke-linejoin: round;"></line><text dx="0" dy="11.969999999999999" x="531.4813674511951" y="286"><tspan x="531.4813674511951" dx="0" text-anchor="middle" style="fill: rgb(153, 153, 153); font-size: 14px; font-family: inherit; stroke: transparent; letter-spacing: normal; padding: 8px; stroke-width: 0;">2021</tspan></text></g></g><g role="presentation"><line x1="578" x2="578" y1="34" y2="274" role="presentation" shape-rendering="auto" vector-effect="non-scaling-stroke" style="stroke: transparent; fill: transparent; stroke-width: 1; stroke-linejoin: round;"></line><g role="presentation"><line x1="578" x2="15" y1="274" y2="274" role="presentation" shape-rendering="auto" vector-effect="non-scaling-stroke" style="stroke: rgb(226, 226, 226); fill: transparent; stroke-width: 1; stroke-linecap: round; stroke-linejoin: round; pointer-events: none;"></line><line x1="578" x2="582" y1="274" y2="274" role="presentation" shape-rendering="auto" vector-effect="non-scaling-stroke" style="stroke: transparent; fill: transparent; size: 4px; stroke-width: 1; stroke-linecap: round; stroke-linejoin: round;"></line><text dx="0" dy="4.97" x="590" y="274"><tspan x="590" dx="0" text-anchor="start" style="fill: rgb(153, 153, 153); font-size: 14px; font-family: inherit; stroke: transparent; letter-spacing: normal; padding: 8px; stroke-width: 0;">$100K</tspan></text></g><g role="presentation"><line x1="578" x2="15" y1="234" y2="234" role="presentation" shape-rendering="auto" vector-effect="non-scaling-stroke" style="stroke: rgb(226, 226, 226); fill: transparent; stroke-width: 1; stroke-linecap: round; stroke-linejoin: round; pointer-events: none;"></line><line x1="578" x2="582" y1="234" y2="234" role="presentation" shape-rendering="auto" vector-effect="non-scaling-stroke" style="stroke: transparent; fill: transparent; size: 4px; stroke-width: 1; stroke-linecap: round; stroke-linejoin: round;"></line><text dx="0" dy="4.97" x="590" y="234"><tspan x="590" dx="0" text-anchor="start" style="fill: rgb(153, 153, 153); font-size: 14px; font-family: inherit; stroke: transparent; letter-spacing: normal; padding: 8px; stroke-width: 0;">$150K</tspan></text></g><g role="presentation"><line x1="578" x2="15" y1="194" y2="194" role="presentation" shape-rendering="auto" vector-effect="non-scaling-stroke" style="stroke: rgb(226, 226, 226); fill: transparent; stroke-width: 1; stroke-linecap: round; stroke-linejoin: round; pointer-events: none;"></line><line x1="578" x2="582" y1="194" y2="194" role="presentation" shape-rendering="auto" vector-effect="non-scaling-stroke" style="stroke: transparent; fill: transparent; size: 4px; stroke-width: 1; stroke-linecap: round; stroke-linejoin: round;"></line><text dx="0" dy="4.97" x="590" y="194"><tspan x="590" dx="0" text-anchor="start" style="fill: rgb(153, 153, 153); font-size: 14px; font-family: inherit; stroke: transparent; letter-spacing: normal; padding: 8px; stroke-width: 0;">$200K</tspan></text></g><g role="presentation"><line x1="578" x2="15" y1="154" y2="154" role="presentation" shape-rendering="auto" vector-effect="non-scaling-stroke" style="stroke: rgb(226, 226, 226); fill: transparent; stroke-width: 1; stroke-linecap: round; stroke-linejoin: round; pointer-events: none;"></line><line x1="578" x2="582" y1="154" y2="154" role="presentation" shape-rendering="auto" vector-effect="non-scaling-stroke" style="stroke: transparent; fill: transparent; size: 4px; stroke-width: 1; stroke-linecap: round; stroke-linejoin: round;"></line><text dx="0" dy="4.97" x="590" y="154"><tspan x="590" dx="0" text-anchor="start" style="fill: rgb(153, 153, 153); font-size: 14px; font-family: inherit; stroke: transparent; letter-spacing: normal; padding: 8px; stroke-width: 0;">$250K</tspan></text></g><g role="presentation"><line x1="578" x2="15" y1="114" y2="114" role="presentation" shape-rendering="auto" vector-effect="non-scaling-stroke" style="stroke: rgb(226, 226, 226); fill: transparent; stroke-width: 1; stroke-linecap: round; stroke-linejoin: round; pointer-events: none;"></line><line x1="578" x2="582" y1="114" y2="114" role="presentation" shape-rendering="auto" vector-effect="non-scaling-stroke" style="stroke: transparent; fill: transparent; size: 4px; stroke-width: 1; stroke-linecap: round; stroke-linejoin: round;"></line><text dx="0" dy="4.97" x="590" y="114"><tspan x="590" dx="0" text-anchor="start" style="fill: rgb(153, 153, 153); font-size: 14px; font-family: inherit; stroke: transparent; letter-spacing: normal; padding: 8px; stroke-width: 0;">$300K</tspan></text></g><g role="presentation"><line x1="578" x2="15" y1="74" y2="74" role="presentation" shape-rendering="auto" vector-effect="non-scaling-stroke" style="stroke: rgb(226, 226, 226); fill: transparent; stroke-width: 1; stroke-linecap: round; stroke-linejoin: round; pointer-events: none;"></line><line x1="578" x2="582" y1="74" y2="74" role="presentation" shape-rendering="auto" vector-effect="non-scaling-stroke" style="stroke: transparent; fill: transparent; size: 4px; stroke-width: 1; stroke-linecap: round; stroke-linejoin: round;"></line><text dx="0" dy="4.97" x="590" y="74"><tspan x="590" dx="0" text-anchor="start" style="fill: rgb(153, 153, 153); font-size: 14px; font-family: inherit; stroke: transparent; letter-spacing: normal; padding: 8px; stroke-width: 0;">$350K</tspan></text></g><g role="presentation"><line x1="578" x2="15" y1="34" y2="34" role="presentation" shape-rendering="auto" vector-effect="non-scaling-stroke" style="stroke: rgb(226, 226, 226); fill: transparent; stroke-width: 1; stroke-linecap: round; stroke-linejoin: round; pointer-events: none;"></line><line x1="578" x2="582" y1="34" y2="34" role="presentation" shape-rendering="auto" vector-effect="non-scaling-stroke" style="stroke: transparent; fill: transparent; size: 4px; stroke-width: 1; stroke-linecap: round; stroke-linejoin: round;"></line><text dx="0" dy="4.97" x="590" y="34"><tspan x="590" dx="0" text-anchor="start" style="fill: rgb(153, 153, 153); font-size: 14px; font-family: inherit; stroke: transparent; letter-spacing: normal; padding: 8px; stroke-width: 0;">$400K</tspan></text></g></g><g style="height: 100%; width: 100%; user-select: none;"><defs><clipPath id="victory-clip-5"><rect x="15" y="34" width="563" height="240"></rect></clipPath></defs><g clip-path="url(#victory-clip-5)"><path shape-rendering="auto" role="presentation" d="M24.5528188286809,158.24C27.73709177157453,171.15,30.921364714468165,184.05999999999997,34.1056376573618,185.284C37.28991060025543,186.508,40.47418354314906,186.4969326047359,43.658456486042695,187.12C46.7400109469075,187.72296844702979,49.821565407772304,187.73333333333332,52.90311986863711,188.95999999999998C56.08739281153075,190.2275555555555,59.271665754424376,203.09,62.45593869731801,203.09C65.54177309493402,203.09,68.62760749255003,182.4932,71.71344189016602,182.4932C74.89771483305965,182.4932,78.0819877759533,224.44400000000002,81.26626071884692,224.44400000000002C84.45053366174056,224.44400000000002,87.63480660463419,185.208,90.81907954752783,185.208C93.69519704433499,185.208,96.57131454114213,217.8,99.44743203794928,217.8C102.62742504409171,217.8,105.80741805023415,196.1084555555556,108.98741105637657,192.08800000000002C112.06896551724138,188.192,115.15051997810617,186.244,118.23207443897098,186.244C121.41634738186463,186.244,124.60062032475825,202,127.7848932676519,202C130.8664477285167,202,133.9480021893815,187.92631764498503,137.02955665024632,182C140.21382959313993,175.8761384335155,143.39810253603358,166,146.5823754789272,166C149.76664842182083,166,152.95092136471445,172.64888888888888,156.1351943076081,173.2C159.2167487684729,173.73333333333332,162.2983032293377,174,165.37985769020253,174C168.56413063309614,174,171.74840357598978,154,174.9326765188834,154C178.0185109164994,154,181.10434531411542,208.4,184.19017971173142,208.4C187.37445265462506,208.4,190.55872559751867,200.904,193.74299854041232,197.2C196.92727148330596,193.49599999999998,200.1115444261996,189.0399128329298,203.29581736909324,186.176C206.1719348659004,183.58924002186987,209.04805236270755,184.25066666666666,211.9241698595147,180.39999999999998C215.10416286565712,176.14249206349206,218.28415587179956,148,221.46414887794197,148C224.5457033388068,148,227.62725779967158,171,230.7088122605364,171C233.89308520343002,171,237.07735814632366,144,240.26163108921727,144C243.3431855500821,144,246.4247400109469,186,249.5062944718117,186C252.69056741470536,186,255.874840357599,184,259.05911330049264,184C262.2433862433863,184,265.42765918627987,191.60000000000002,268.6119321291735,191.60000000000002C271.69348659003833,191.60000000000002,274.7750410509031,154.39999999999998,277.8565955117679,154.39999999999998C281.04086845466156,154.39999999999998,284.22514139755515,163.5765653278297,287.4094143404488,171.3272C290.4952487380648,178.8382317185952,293.58108313568084,199.8,296.66691753329684,199.8C299.8511904761905,199.8,303.03546341908407,195.17373333333327,306.2197363619777,188.39999999999998C309.40400930487135,181.62626666666665,312.588282247765,169.12711073446326,315.77255519065864,159.1576C318.6486726874658,150.1528806269364,321.52479018427294,131.6,324.4009076810801,131.6C327.58090068722254,131.6,330.76089369336495,142.8,333.94088669950736,142.8C337.0224411603722,142.8,340.10399562123695,142.184,343.18555008210177,142.184C346.3698230249954,142.184,349.55409596788905,170,352.7383689107827,170C355.8199233716475,170,358.9014778325123,133.60000000000002,361.9830322933771,133.60000000000002C365.16730523627075,133.60000000000002,368.35157817916433,147.83966666666666,371.535851122058,152.39999999999998C374.7201240649516,156.96033333333332,377.90439700784526,155.254,381.0886699507389,160.962C384.1702244116037,166.4858709677419,387.2517788724685,205,390.3333333333333,205C393.51760627622696,205,396.7018792191206,157.2,399.88615216201424,157.2C402.97198655963024,157.2,406.0578209572463,166,409.1436553548623,166C412.32792829775593,166,415.5122012406495,153.2,418.69647418354316,153.2C421.8807471264368,153.2,425.0650200693304,166.07873103448276,428.24929301222403,167.7104C431.22812899106003,169.2368,434.206964969896,170,437.185800948732,170C440.3657939548744,170,443.54578696101686,116,446.72577996715927,116C449.8073344280241,116,452.8888888888889,171.3928,455.97044334975374,171.3928C459.1547162926473,171.3928,462.33898923554096,141.4,465.52326217843455,141.4C468.6048166392994,141.4,471.6863711001642,146.07999999999998,474.767925561029,146.07999999999998C477.95219850392266,146.07999999999998,481.1364714468163,142.0096,484.32074438970994,142.0096C487.50501733260353,142.0096,490.68929027549717,152,493.87356321839076,152C496.9551176792556,152,500.0366721401204,150,503.1182266009852,150C506.3024995438788,150,509.48677248677245,155.2,512.671045429666,155.2C515.7568798272821,155.2,518.8427142248981,143.6052,521.9285486225142,143.6052C525.1128215654078,143.6052,528.2970945083015,166,531.4813674511951,166C534.6656403940887,166,537.8499133369824,154.45518159806298,541.0341862798759,150.36C543.9103037766831,146.66112629852378,546.7864212734902,142,549.6625387702974,142C552.8425317764398,142,556.0225247825822,142.8,559.2025177887247,142.8C562.2840722495895,142.8,565.3656267104543,141.46666666666667,568.4471811713191,138.79999999999998C571.6314541142127,136.04444444444442,574.8157270571064,121.82222222222221,578,107.6" style="fill: transparent; stroke: rgb(51, 51, 51); stroke-width: 2; opacity: 1;"></path></g></g></svg>