<svg xmlns="http://www.w3.org/2000/svg" width="640" height="324" role="img" aria-labelledby="victory-container-4-title victory-container-4-desc" viewBox="0 0 640 324" style="pointer-events: all; width: 100%; height: 100%;"><g role="presentation"><line x1="15" x2="578" y1="274" y2="274" role="presentation" shape-rendering="auto" vector-effect="non-scaling-stroke" style="stroke: rgb(226, 226, 226); fill: transparent; stroke-width: 1; stroke-linejoin: round;"></line><g role="presentation"><line x1="81.26626071884692" x2="81.26626071884692" y1="274" y2="34" role="presentation" shape-rendering="auto" vector-effect="non-scaling-stroke" style="stroke: transparent; fill: transparent; stroke-width: 1; stroke-linecap: round; stroke-linejoin: round; pointer-events: none;"></line><line x1="81.26626071884692" x2="81.26626071884692" y1="274" y2="278" role="presentation" shape-rendering="auto" vector-effect="non-scaling-stroke" style="stroke: transparent; fill: transparent; size: 4px; stroke-width: 1; stroke-linecap: round; stroke-linejoin: round;"></line><text dx="0" dy="11.969999999999999" x="81.26626071884692" y="286"><tspan x="81.26626071884692" dx="0" text-anchor="middle" style="fill: rgb(153, 153, 153); font-size: 14px; font-family: inherit; stroke: transparent; letter-spacing: normal; padding: 8px; stroke-width: 0;">2017</tspan></text></g><g role="presentation"><line x1="193.74299854041232" x2="193.74299854041232" y1="274" y2="34" role="presentation" shape-rendering="auto" vector-effect="non-scaling-stroke" style="stroke: transparent; fill: transparent; stroke-width: 1; stroke-linecap: round; stroke-linejoin: round; pointer-events: none;"></line><line x1="193.74299854041232" x2="193.74299854041232" y1="274" y2="278" role="presentation" shape-rendering="auto" vector-effect="non-scaling-stroke" style="stroke: transparent; fill: transparent; size: 4px; stroke-width: 1; stroke-linecap: round; stroke-linejoin: round;"></line><text dx="0" dy="11.969999999999999" x="193.74299854041232" y="286"><tspan x="193.74299854041232" dx="0" text-anchor="middle" style="fill: rgb(153, 153, 153); font-size: 14px; font-family: inherit; stroke: transparent; letter-spacing: normal; padding: 8px; stroke-width: 0;">2018</tspan></text></g><g role="presentation"><line x1="306.2197363619777" x2="306.2197363619777" y1="274" y2="34" role="presentation" shape-rendering="auto" vector-effect="non-scaling-stroke" style="stroke: transparent; fill: transparent; stroke-width: 1; stroke-linecap: round; stroke-linejoin: round; pointer-events: none;"></line><line x1="306.2197363619777" x2="306.2197363619777" y1="274" y2="278" role="presentation" shape-rendering="auto" vector-effect="non-scaling-stroke" style="stroke: transparent; fill: transparent; size: 4px; stroke-width: 1; stroke-linecap: round; stroke-linejoin: round;"></line><text dx="0" dy="11.969999999999999" x="306.2197363619777" y="286"><tspan x="306.2197363619777" dx="0" text-anchor="middle" style="fill: rgb(153, 153, 153); font-size: 14px; font-family: inherit; stroke: transparent; letter-spacing: normal; padding: 8px; stroke-width: 0;">2019</tspan></text></g><g role="presentation"><line x1="418.69647418354316" x2="418.69647418354316" y1="274" y2="34" role="presentation" shape-rendering="auto" vector-effect="non-scaling-stroke" style="stroke: transparent; fill: transparent; stroke-width: 1; stroke-linecap: round; stroke-linejoin: round; pointer-events: none;"></line><line x1="418.69647418354316" x2="418.69647418354316" y1="274" y2="278" role="presentation" shape-rendering="auto" vector-effect="non-scaling-stroke" style="stroke: transparent; fill: transparent; size: 4px; stroke-width: 1; stroke-linecap: round; stroke-linejoin: round;"></line><text dx="0" dy="11.969999999999999" x="418.69647418354316" y="286"><tspan x="418.69647418354316" dx="0" text-anchor="middle" style="fill: rgb(153, 153, 153); font-size: 14px; font-family: inherit; stroke: transparent; letter-spacing: normal; padding: 8px; stroke-width: 0;">2020</tspan></text></g><g role="presentation"><line x1="531.4813674511951" x2="531.4813674511951" y1="274" y2="34" role="presentation" shape-rendering="auto" vector-effect="non-scaling-stroke" style="stroke: transparent; fill: transparent; stroke-width: 1; stroke-linecap: round; stroke-linejoin: round; pointer-events: none;"></line><line x1="531.4813674511951" x2="531.4813674511951" y1="274" y2="278" role="presentation" shape-rendering="auto" vector-effect="non-scaling-stroke" style="stroke: transparent; fill: transparent; size: 4px; stroke-width: 1; stroke-linecap: round; stroke-linejoin: round;"></line><text dx="0" dy="11.969999999999999" x="531.4813674511951" y="286"><tspan x="531.4813674511951" dx="0" text-anchor="middle" style="fill: rgb(153, 153, 153); font-size: 14px; font-family: inherit; stroke: transparent; letter-spacing: normal; padding: 8px; stroke-width: 0;">2021</tspan></text></g></g><g role="presentation"><line x1="578" x2="578" y1="34" y2="274" role="presentation" shape-rendering="auto" vector-effect="non-scaling-stroke" style="stroke: transparent; fill: transparent; stroke-width: 1; stroke-linejoin: round;"></line><g role="presentation"><line x1="578" x2="15" y1="274" y2="274" role="presentation" shape-rendering="auto" vector-effect="non-scaling-stroke" style="stroke: rgb(226, 226, 226); fill: transparent; stroke-width: 1; stroke-linecap: round; stroke-linejoin: round; pointer-events: none;"></line><line x1="578" x2="582" y1="274" y2="274" role="presentation" shape-rendering="auto" vector-effect="non-scaling-stroke" style="stroke: transparent; fill: transparent; size: 4px; stroke-width: 1; stroke-linecap: round; stroke-linejoin: round;"></line><text dx="0" dy="4.97" x="590" y="274"><tspan x="590" dx="0" text-anchor="start" style="fill: rgb(153, 153, 153); font-size: 14px; font-family: inherit; stroke: transparent; letter-spacing: normal; padding: 8px; stroke-width: 0;">$100K</tspan></text></g><g role="presentation"><line x1="578" x2="15" y1="214" y2="214" role="presentation" shape-rendering="auto" vector-effect="non-scaling-stroke" style="stroke: rgb(226, 226, 226); fill: transparent; stroke-width: 1; stroke-linecap: round; stroke-linejoin: round; pointer-events: none;"></line><line x1="578" x2="582" y1="214" y2="214" role="presentation" shape-rendering="auto" vector-effect="non-scaling-stroke" style="stroke: transparent; fill: transparent; size: 4px; stroke-width: 1; stroke-linecap: round; stroke-linejoin: round;"></line><text dx="0" dy="4.97" x="590" y="214"><tspan x="590" dx="0" text-anchor="start" style="fill: rgb(153, 153, 153); font-size: 14px; font-family: inherit; stroke: transparent; letter-spacing: normal; padding: 8px; stroke-width: 0;">$150K</tspan></text></g><g role="presentation"><line x1="578" x2="15" y1="154" y2="154" role="presentation" shape-rendering="auto" vector-effect="non-scaling-stroke" style="stroke: rgb(226, 226, 226); fill: transparent; stroke-width: 1; stroke-linecap: round; stroke-linejoin: round; pointer-events: none;"></line><line x1="578" x2="582" y1="154" y2="154" role="presentation" shape-rendering="auto" vector-effect="non-scaling-stroke" style="stroke: transparent; fill: transparent; size: 4px; stroke-width: 1; stroke-linecap: round; stroke-linejoin: round;"></line><text dx="0" dy="4.97" x="590" y="154"><tspan x="590" dx="0" text-anchor="start" style="fill: rgb(153, 153, 153); font-size: 14px; font-family: inherit; stroke: transparent; letter-spacing: normal; padding: 8px; stroke-width: 0;">$200K</tspan></text></g><g role="presentation"><line x1="578" x2="15" y1="94" y2="94" role="presentation" shape-rendering="auto" vector-effect="non-scaling-stroke" style="stroke: rgb(226, 226, 226); fill: transparent; stroke-width: 1; stroke-linecap: round; stroke-linejoin: round; pointer-events: none;"></line><line x1="578" x2="582" y1="94" y2="94" role="presentation" shape-rendering="auto" vector-effect="non-scaling-stroke" style="stroke: transparent; fill: transparent; size: 4px; stroke-width: 1; stroke-linecap: round; stroke-linejoin: round;"></line><text dx="0" dy="4.97" x="590" y="94"><tspan x="590" dx="0" text-anchor="start" style="fill: rgb(153, 153, 153); font-size: 14px; font-family: inherit; stroke: transparent; letter-spacing: normal; padding: 8px; stroke-width: 0;">$250K</tspan></text></g><g role="presentation"><line x1="578" x2="15" y1="34" y2="34" role="presentation" shape-rendering="auto" vector-effect="non-scaling-stroke" style="stroke: rgb(226, 226, 226); fill: transparent; stroke-width: 1; stroke-linecap: round; stroke-linejoin: round; pointer-events: none;"></line><line x1="578" x2="582" y1="34" y2="34" role="presentation" shape-rendering="auto" vector-effect="non-scaling-stroke" style="stroke: transparent; fill: transparent; size: 4px; stroke-width: 1; stroke-linecap: round; stroke-linejoin: round;"></line><text dx="0" dy="4.97" x="590" y="34"><tspan x="590" dx="0" text-anchor="start" style="fill: rgb(153, 153, 153); font-size: 14px; font-family: inherit; stroke: transparent; letter-spacing: normal; padding: 8px; stroke-width: 0;">$300K</tspan></text></g></g><g style="height: 100%; width: 100%; user-select: none;"><defs><clipPath id="victory-clip-5"><rect x="15" y="34" width="563" height="240"></rect></clipPath></defs><g clip-path="url(#victory-clip-5)"><path shape-rendering="auto" role="presentation" d="M15.30815544608648,229.6C18.389709906951285,216.76,21.471264367816094,203.92000000000002,24.5528188286809,203.92000000000002C27.73709177157453,203.92000000000002,30.921364714468165,204.4,34.1056376573618,204.4C37.28991060025543,204.4,40.47418354314906,196,43.658456486042695,196C46.7400109469075,196,49.821565407772304,226,52.90311986863711,226C56.08739281153075,226,59.271665754424376,199,62.45593869731801,199C65.54177309493402,199,68.62760749255003,244.06,71.71344189016602,244.06C74.89771483305965,244.06,78.0819877759533,196.3,81.26626071884692,196.3C84.45053366174056,196.3,87.63480660463419,212.7842857142857,90.81907954752783,214.6C93.69519704433499,216.24,96.57131454114213,217.06,99.44743203794928,217.06C102.62742504409171,217.06,105.80741805023415,212.13657714361662,108.98741105637657,208.6C112.06896551724138,205.17289967240382,115.15051997810617,196.3,118.23207443897098,196.3C121.41634738186463,196.3,124.60062032475825,196.5038,127.7848932676519,196.91140000000001C130.8664477285167,197.30585161290324,133.9480021893815,217,137.02955665024632,217C140.21382959313993,217,143.39810253603358,187.1,146.5823754789272,184.18C149.76664842182083,181.26000000000002,152.95092136471445,179.8,156.1351943076081,179.8C159.2167487684729,179.8,162.2983032293377,195.3238498149127,165.37985769020253,203.2C168.56413063309614,211.33868852459014,171.74840357598978,227.86,174.9326765188834,227.86C178.0185109164994,227.86,181.10434531411542,225.74,184.19017971173142,221.5C187.37445265462506,217.12474341192788,190.55872559751867,191.6314,193.74299854041232,182.74540000000002C196.92727148330596,173.8594,200.1115444261996,168.184,203.29581736909324,168.184C206.1719348659004,168.184,209.04805236270755,176.8,211.9241698595147,176.8C215.10416286565712,176.8,218.28415587179956,173.92000000000002,221.46414887794197,173.92000000000002C224.5457033388068,173.92000000000002,227.62725779967158,175.60000000000002,230.7088122605364,175.60000000000002C233.89308520343002,175.60000000000002,237.07735814632366,130.6,240.26163108921727,130.6C243.3431855500821,130.6,246.4247400109469,208.12,249.5062944718117,208.12C252.69056741470536,208.12,255.874840357599,191.2,259.05911330049264,191.2C262.2433862433863,191.2,265.42765918627987,193,268.6119321291735,193C271.69348659003833,193,274.7750410509031,181.67935483870966,277.8565955117679,181.06C281.04086845466156,180.42000000000002,284.22514139755515,180.74,287.4094143404488,180.10000000000002C290.4952487380648,179.47978494623658,293.58108313568084,53.19999999999999,296.66691753329684,53.19999999999999C299.8511904761905,53.19999999999999,303.03546341908407,171.1,306.2197363619777,171.1C309.40400930487135,171.1,312.588282247765,165.95503631961256,315.77255519065864,161.92C318.6486726874658,158.27545106615636,321.52479018427294,148.60000000000002,324.4009076810801,148.60000000000002C327.58090068722254,148.60000000000002,330.76089369336495,187,333.94088669950736,187C337.0224411603722,187,340.10399562123695,148,343.18555008210177,148C346.3698230249954,148,349.55409596788905,160.71366120218576,352.7383689107827,172C355.8199233716475,182.9222633527234,358.9014778325123,214,361.9830322933771,214C365.16730523627075,214,368.35157817916433,178,371.535851122058,178C374.7201240649516,178,377.90439700784526,192.66634666666667,381.0886699507389,194.5156C384.1702244116037,196.30519999999999,387.2517788724685,197.2,390.3333333333333,197.2C393.51760627622696,197.2,396.7018792191206,172.89999999999998,399.88615216201424,172.89999999999998C402.97198655963024,172.89999999999998,406.0578209572463,199.5242922081544,409.1436553548623,208C412.32792829775593,216.74608404595435,415.5122012406495,223.9384,418.69647418354316,223.9384C421.8807471264368,223.9384,425.0650200693304,195.4118073563218,428.24929301222403,180.39999999999998C431.22812899106003,166.35669634408598,434.206964969896,136.96,437.185800948732,136.96C440.3657939548744,136.96,443.54578696101686,163.83424828738518,446.72577996715927,179.5C449.8073344280241,194.68080919661202,452.8888888888889,229.228,455.97044334975374,229.228C459.1547162926473,229.228,462.33898923554096,157.60000000000002,465.52326217843455,157.60000000000002C468.6048166392994,157.60000000000002,471.6863711001642,161.182,474.767925561029,161.182C477.95219850392266,161.182,481.1364714468163,151,484.32074438970994,151C487.50501733260353,151,490.68929027549717,164.8,493.87356321839076,164.8C496.9551176792556,164.8,500.0366721401204,152.89677419354842,503.1182266009852,151C506.3024995438788,149.04,509.48677248677245,150.02,512.671045429666,148.06C515.7568798272821,146.16059139784943,518.8427142248981,136,521.9285486225142,136C525.1128215654078,136,528.2970945083015,139.2,531.4813674511951,143.5C534.6656403940887,147.8,537.8499133369824,161.8,541.0341862798759,161.8C543.9103037766831,161.8,546.7864212734902,143.5,549.6625387702974,143.5C552.8425317764398,143.5,556.0225247825822,196,559.2025177887247,196C562.2840722495895,196,565.3656267104543,189,568.4471811713191,175C571.6314541142127,160.53333333333345,574.8157270571064,133.56666666666672,578,106.6" style="fill: transparent; stroke: rgb(51, 51, 51); stroke-width: 2; opacity: 1;"></path></g></g></svg>