<svg xmlns="http://www.w3.org/2000/svg" width="640" height="324" role="img" aria-labelledby="victory-container-4-title victory-container-4-desc" viewBox="0 0 640 324" style="pointer-events: all; width: 100%; height: 100%;"><g role="presentation"><line x1="15" x2="578" y1="274" y2="274" role="presentation" shape-rendering="auto" vector-effect="non-scaling-stroke" style="stroke: rgb(226, 226, 226); fill: transparent; stroke-width: 1; stroke-linejoin: round;"></line><g role="presentation"><line x1="81.26626071884692" x2="81.26626071884692" y1="274" y2="34" role="presentation" shape-rendering="auto" vector-effect="non-scaling-stroke" style="stroke: transparent; fill: transparent; stroke-width: 1; stroke-linecap: round; stroke-linejoin: round; pointer-events: none;"></line><line x1="81.26626071884692" x2="81.26626071884692" y1="274" y2="278" role="presentation" shape-rendering="auto" vector-effect="non-scaling-stroke" style="stroke: transparent; fill: transparent; size: 4px; stroke-width: 1; stroke-linecap: round; stroke-linejoin: round;"></line><text dx="0" dy="11.969999999999999" x="81.26626071884692" y="286"><tspan x="81.26626071884692" dx="0" text-anchor="middle" style="fill: rgb(153, 153, 153); font-size: 14px; font-family: inherit; stroke: transparent; letter-spacing: normal; padding: 8px; stroke-width: 0;">2017</tspan></text></g><g role="presentation"><line x1="193.74299854041232" x2="193.74299854041232" y1="274" y2="34" role="presentation" shape-rendering="auto" vector-effect="non-scaling-stroke" style="stroke: transparent; fill: transparent; stroke-width: 1; stroke-linecap: round; stroke-linejoin: round; pointer-events: none;"></line><line x1="193.74299854041232" x2="193.74299854041232" y1="274" y2="278" role="presentation" shape-rendering="auto" vector-effect="non-scaling-stroke" style="stroke: transparent; fill: transparent; size: 4px; stroke-width: 1; stroke-linecap: round; stroke-linejoin: round;"></line><text dx="0" dy="11.969999999999999" x="193.74299854041232" y="286"><tspan x="193.74299854041232" dx="0" text-anchor="middle" style="fill: rgb(153, 153, 153); font-size: 14px; font-family: inherit; stroke: transparent; letter-spacing: normal; padding: 8px; stroke-width: 0;">2018</tspan></text></g><g role="presentation"><line x1="306.2197363619777" x2="306.2197363619777" y1="274" y2="34" role="presentation" shape-rendering="auto" vector-effect="non-scaling-stroke" style="stroke: transparent; fill: transparent; stroke-width: 1; stroke-linecap: round; stroke-linejoin: round; pointer-events: none;"></line><line x1="306.2197363619777" x2="306.2197363619777" y1="274" y2="278" role="presentation" shape-rendering="auto" vector-effect="non-scaling-stroke" style="stroke: transparent; fill: transparent; size: 4px; stroke-width: 1; stroke-linecap: round; stroke-linejoin: round;"></line><text dx="0" dy="11.969999999999999" x="306.2197363619777" y="286"><tspan x="306.2197363619777" dx="0" text-anchor="middle" style="fill: rgb(153, 153, 153); font-size: 14px; font-family: inherit; stroke: transparent; letter-spacing: normal; padding: 8px; stroke-width: 0;">2019</tspan></text></g><g role="presentation"><line x1="418.69647418354316" x2="418.69647418354316" y1="274" y2="34" role="presentation" shape-rendering="auto" vector-effect="non-scaling-stroke" style="stroke: transparent; fill: transparent; stroke-width: 1; stroke-linecap: round; stroke-linejoin: round; pointer-events: none;"></line><line x1="418.69647418354316" x2="418.69647418354316" y1="274" y2="278" role="presentation" shape-rendering="auto" vector-effect="non-scaling-stroke" style="stroke: transparent; fill: transparent; size: 4px; stroke-width: 1; stroke-linecap: round; stroke-linejoin: round;"></line><text dx="0" dy="11.969999999999999" x="418.69647418354316" y="286"><tspan x="418.69647418354316" dx="0" text-anchor="middle" style="fill: rgb(153, 153, 153); font-size: 14px; font-family: inherit; stroke: transparent; letter-spacing: normal; padding: 8px; stroke-width: 0;">2020</tspan></text></g><g role="presentation"><line x1="531.4813674511951" x2="531.4813674511951" y1="274" y2="34" role="presentation" shape-rendering="auto" vector-effect="non-scaling-stroke" style="stroke: transparent; fill: transparent; stroke-width: 1; stroke-linecap: round; stroke-linejoin: round; pointer-events: none;"></line><line x1="531.4813674511951" x2="531.4813674511951" y1="274" y2="278" role="presentation" shape-rendering="auto" vector-effect="non-scaling-stroke" style="stroke: transparent; fill: transparent; size: 4px; stroke-width: 1; stroke-linecap: round; stroke-linejoin: round;"></line><text dx="0" dy="11.969999999999999" x="531.4813674511951" y="286"><tspan x="531.4813674511951" dx="0" text-anchor="middle" style="fill: rgb(153, 153, 153); font-size: 14px; font-family: inherit; stroke: transparent; letter-spacing: normal; padding: 8px; stroke-width: 0;">2021</tspan></text></g></g><g role="presentation"><line x1="578" x2="578" y1="34" y2="274" role="presentation" shape-rendering="auto" vector-effect="non-scaling-stroke" style="stroke: transparent; fill: transparent; stroke-width: 1; stroke-linejoin: round;"></line><g role="presentation"><line x1="578" x2="15" y1="274" y2="274" role="presentation" shape-rendering="auto" vector-effect="non-scaling-stroke" style="stroke: rgb(226, 226, 226); fill: transparent; stroke-width: 1; stroke-linecap: round; stroke-linejoin: round; pointer-events: none;"></line><line x1="578" x2="582" y1="274" y2="274" role="presentation" shape-rendering="auto" vector-effect="non-scaling-stroke" style="stroke: transparent; fill: transparent; size: 4px; stroke-width: 1; stroke-linecap: round; stroke-linejoin: round;"></line><text dx="0" dy="4.97" x="590" y="274"><tspan x="590" dx="0" text-anchor="start" style="fill: rgb(153, 153, 153); font-size: 14px; font-family: inherit; stroke: transparent; letter-spacing: normal; padding: 8px; stroke-width: 0;">$100K</tspan></text></g><g role="presentation"><line x1="578" x2="15" y1="234" y2="234" role="presentation" shape-rendering="auto" vector-effect="non-scaling-stroke" style="stroke: rgb(226, 226, 226); fill: transparent; stroke-width: 1; stroke-linecap: round; stroke-linejoin: round; pointer-events: none;"></line><line x1="578" x2="582" y1="234" y2="234" role="presentation" shape-rendering="auto" vector-effect="non-scaling-stroke" style="stroke: transparent; fill: transparent; size: 4px; stroke-width: 1; stroke-linecap: round; stroke-linejoin: round;"></line><text dx="0" dy="4.97" x="590" y="234"><tspan x="590" dx="0" text-anchor="start" style="fill: rgb(153, 153, 153); font-size: 14px; font-family: inherit; stroke: transparent; letter-spacing: normal; padding: 8px; stroke-width: 0;">$150K</tspan></text></g><g role="presentation"><line x1="578" x2="15" y1="194" y2="194" role="presentation" shape-rendering="auto" vector-effect="non-scaling-stroke" style="stroke: rgb(226, 226, 226); fill: transparent; stroke-width: 1; stroke-linecap: round; stroke-linejoin: round; pointer-events: none;"></line><line x1="578" x2="582" y1="194" y2="194" role="presentation" shape-rendering="auto" vector-effect="non-scaling-stroke" style="stroke: transparent; fill: transparent; size: 4px; stroke-width: 1; stroke-linecap: round; stroke-linejoin: round;"></line><text dx="0" dy="4.97" x="590" y="194"><tspan x="590" dx="0" text-anchor="start" style="fill: rgb(153, 153, 153); font-size: 14px; font-family: inherit; stroke: transparent; letter-spacing: normal; padding: 8px; stroke-width: 0;">$200K</tspan></text></g><g role="presentation"><line x1="578" x2="15" y1="154" y2="154" role="presentation" shape-rendering="auto" vector-effect="non-scaling-stroke" style="stroke: rgb(226, 226, 226); fill: transparent; stroke-width: 1; stroke-linecap: round; stroke-linejoin: round; pointer-events: none;"></line><line x1="578" x2="582" y1="154" y2="154" role="presentation" shape-rendering="auto" vector-effect="non-scaling-stroke" style="stroke: transparent; fill: transparent; size: 4px; stroke-width: 1; stroke-linecap: round; stroke-linejoin: round;"></line><text dx="0" dy="4.97" x="590" y="154"><tspan x="590" dx="0" text-anchor="start" style="fill: rgb(153, 153, 153); font-size: 14px; font-family: inherit; stroke: transparent; letter-spacing: normal; padding: 8px; stroke-width: 0;">$250K</tspan></text></g><g role="presentation"><line x1="578" x2="15" y1="114" y2="114" role="presentation" shape-rendering="auto" vector-effect="non-scaling-stroke" style="stroke: rgb(226, 226, 226); fill: transparent; stroke-width: 1; stroke-linecap: round; stroke-linejoin: round; pointer-events: none;"></line><line x1="578" x2="582" y1="114" y2="114" role="presentation" shape-rendering="auto" vector-effect="non-scaling-stroke" style="stroke: transparent; fill: transparent; size: 4px; stroke-width: 1; stroke-linecap: round; stroke-linejoin: round;"></line><text dx="0" dy="4.97" x="590" y="114"><tspan x="590" dx="0" text-anchor="start" style="fill: rgb(153, 153, 153); font-size: 14px; font-family: inherit; stroke: transparent; letter-spacing: normal; padding: 8px; stroke-width: 0;">$300K</tspan></text></g><g role="presentation"><line x1="578" x2="15" y1="74" y2="74" role="presentation" shape-rendering="auto" vector-effect="non-scaling-stroke" style="stroke: rgb(226, 226, 226); fill: transparent; stroke-width: 1; stroke-linecap: round; stroke-linejoin: round; pointer-events: none;"></line><line x1="578" x2="582" y1="74" y2="74" role="presentation" shape-rendering="auto" vector-effect="non-scaling-stroke" style="stroke: transparent; fill: transparent; size: 4px; stroke-width: 1; stroke-linecap: round; stroke-linejoin: round;"></line><text dx="0" dy="4.97" x="590" y="74"><tspan x="590" dx="0" text-anchor="start" style="fill: rgb(153, 153, 153); font-size: 14px; font-family: inherit; stroke: transparent; letter-spacing: normal; padding: 8px; stroke-width: 0;">$350K</tspan></text></g><g role="presentation"><line x1="578" x2="15" y1="34" y2="34" role="presentation" shape-rendering="auto" vector-effect="non-scaling-stroke" style="stroke: rgb(226, 226, 226); fill: transparent; stroke-width: 1; stroke-linecap: round; stroke-linejoin: round; pointer-events: none;"></line><line x1="578" x2="582" y1="34" y2="34" role="presentation" shape-rendering="auto" vector-effect="non-scaling-stroke" style="stroke: transparent; fill: transparent; size: 4px; stroke-width: 1; stroke-linecap: round; stroke-linejoin: round;"></line><text dx="0" dy="4.97" x="590" y="34"><tspan x="590" dx="0" text-anchor="start" style="fill: rgb(153, 153, 153); font-size: 14px; font-family: inherit; stroke: transparent; letter-spacing: normal; padding: 8px; stroke-width: 0;">$400K</tspan></text></g></g><g style="height: 100%; width: 100%; user-select: none;"><defs><clipPath id="victory-clip-5"><rect x="15" y="34" width="563" height="240"></rect></clipPath></defs><g clip-path="url(#victory-clip-5)"><path shape-rendering="auto" role="presentation" d="M24.5528188286809,90C27.73709177157453,151.1,30.921364714468165,212.2,34.1056376573618,212.2C37.28991060025543,212.2,40.47418354314906,210.16,43.658456486042695,206.08C46.7400109469075,202.13161290322583,49.821565407772304,196.80939185616077,52.90311986863711,186.4C56.08739281153075,175.64362841530055,59.271665754424376,141.8,62.45593869731801,141.8C65.54177309493402,141.8,68.62760749255003,174,71.71344189016602,174C74.89771483305965,174,78.0819877759533,126,81.26626071884692,126C84.45053366174056,126,87.63480660463419,186.8,90.81907954752783,186.8C93.69519704433499,186.8,96.57131454114213,152.86629222567282,99.44743203794928,130.04C102.62742504409171,104.80200130405518,105.80741805023415,40,108.98741105637657,40C112.06896551724138,40,115.15051997810617,218.8,118.23207443897098,218.8C121.41634738186463,218.8,124.60062032475825,198.16612444444445,127.7848932676519,194C130.8664477285167,189.96826666666666,133.9480021893815,191.98413333333335,137.02955665024632,187.9524C140.21382959313993,183.7862755555556,143.39810253603358,94.4,146.5823754789272,94.4C149.76664842182083,94.4,152.95092136471445,204.804,156.1351943076081,204.804C159.2167487684729,204.804,162.2983032293377,146.04,165.37985769020253,146.04C168.56413063309614,146.04,171.74840357598978,253.4,174.9326765188834,253.4C178.0185109164994,253.4,181.10434531411542,215.46246308733043,184.19017971173142,200C187.37445265462506,184.04428219559802,190.55872559751867,159.6,193.74299854041232,159.6C196.92727148330596,159.6,200.1115444261996,202.8,203.29581736909324,202.8C206.1719348659004,202.8,209.04805236270755,197.20000000000002,211.9241698595147,186C215.10416286565712,173.6166666666667,218.28415587179956,100.39999999999998,221.46414887794197,100.39999999999998C224.5457033388068,100.39999999999998,227.62725779967158,110.53333333333332,230.7088122605364,130.8C233.89308520343002,151.74222222222215,237.07735814632366,234.07999999999998,240.26163108921727,234.07999999999998C243.3431855500821,234.07999999999998,246.4247400109469,177.2,249.5062944718117,177.2C252.69056741470536,177.2,255.874840357599,214.04,259.05911330049264,214.04C262.2433862433863,214.04,265.42765918627987,186,268.6119321291735,186C271.69348659003833,186,274.7750410509031,215.8,277.8565955117679,215.8C281.04086845466156,215.8,284.22514139755515,207.6,287.4094143404488,207.6C290.4952487380648,207.6,293.58108313568084,230.4,296.66691753329684,230.4C299.8511904761905,230.4,303.03546341908407,159.33333333333326,306.2197363619777,146C309.40400930487135,132.66666666666666,312.588282247765,139.33333333333334,315.77255519065864,126C318.6486726874658,113.95698924731181,321.52479018427294,67.2004,324.4009076810801,67.2004C327.58090068722254,67.2004,330.76089369336495,201.2,333.94088669950736,201.2C337.0224411603722,201.2,340.10399562123695,190.91859686233028,343.18555008210177,174C346.3698230249954,156.51744990892533,349.55409596788905,96.4,352.7383689107827,96.4C355.8199233716475,96.4,358.9014778325123,110.4,361.9830322933771,110.4C365.16730523627075,110.4,368.35157817916433,86,371.535851122058,86C374.7201240649516,86,377.90439700784526,88.76053333333333,381.0886699507389,94.2816C384.1702244116037,99.62456774193546,387.2517788724685,163.39258064516127,390.3333333333333,165.67C393.51760627622696,168.0233333333333,396.7018792191206,169.2,399.88615216201424,169.2C402.97198655963024,169.2,406.0578209572463,64,409.1436553548623,64C412.32792829775593,64,415.5122012406495,175,418.69647418354316,175C421.8807471264368,175,425.0650200693304,150,428.24929301222403,150C431.22812899106003,150,434.206964969896,184.39999999999998,437.185800948732,184.39999999999998C440.3657939548744,184.39999999999998,443.54578696101686,122,446.72577996715927,122C449.8073344280241,122,452.8888888888889,190,455.97044334975374,190C459.1547162926473,190,462.33898923554096,177.804,465.52326217843455,177.804C468.6048166392994,177.804,471.6863711001642,186,474.767925561029,186C477.95219850392266,186,481.1364714468163,38,484.32074438970994,38C487.50501733260353,38,490.68929027549717,162.50008888888905,493.87356321839076,172.00400000000002C496.9551176792556,181.20133333333334,500.0366721401204,185.8,503.1182266009852,185.8C506.3024995438788,185.8,509.48677248677245,137.71200000000002,512.671045429666,137.71200000000002C515.7568798272821,137.71200000000002,518.8427142248981,172.3957634408601,521.9285486225142,180.288C525.1128215654078,188.432,528.2970945083015,189.552,531.4813674511951,192.504C534.6656403940887,195.456,537.8499133369824,198,541.0341862798759,198C543.9103037766831,198,546.7864212734902,170.816,549.6625387702974,170.816C552.8425317764398,170.816,556.0225247825822,200.8,559.2025177887247,200.8C562.2840722495895,200.8,565.3656267104543,147.33140222104717,568.4471811713191,120.00039999999998C571.6314541142127,91.7583643715848,574.8157270571064,62.87918218579239,578,34" style="fill: transparent; stroke: rgb(51, 51, 51); stroke-width: 2; opacity: 1;"></path></g></g></svg>