<svg xmlns="http://www.w3.org/2000/svg" width="640" height="324" role="img" aria-labelledby="victory-container-4-title victory-container-4-desc" viewBox="0 0 640 324" style="pointer-events: all; width: 100%; height: 100%;"><g role="presentation"><line x1="15" x2="578" y1="274" y2="274" role="presentation" shape-rendering="auto" vector-effect="non-scaling-stroke" style="stroke: rgb(226, 226, 226); fill: transparent; stroke-width: 1; stroke-linejoin: round;"></line><g role="presentation"><line x1="81.26626071884692" x2="81.26626071884692" y1="274" y2="34" role="presentation" shape-rendering="auto" vector-effect="non-scaling-stroke" style="stroke: transparent; fill: transparent; stroke-width: 1; stroke-linecap: round; stroke-linejoin: round; pointer-events: none;"></line><line x1="81.26626071884692" x2="81.26626071884692" y1="274" y2="278" role="presentation" shape-rendering="auto" vector-effect="non-scaling-stroke" style="stroke: transparent; fill: transparent; size: 4px; stroke-width: 1; stroke-linecap: round; stroke-linejoin: round;"></line><text dx="0" dy="11.969999999999999" x="81.26626071884692" y="286"><tspan x="81.26626071884692" dx="0" text-anchor="middle" style="fill: rgb(153, 153, 153); font-size: 14px; font-family: inherit; stroke: transparent; letter-spacing: normal; padding: 8px; stroke-width: 0;">2017</tspan></text></g><g role="presentation"><line x1="193.74299854041232" x2="193.74299854041232" y1="274" y2="34" role="presentation" shape-rendering="auto" vector-effect="non-scaling-stroke" style="stroke: transparent; fill: transparent; stroke-width: 1; stroke-linecap: round; stroke-linejoin: round; pointer-events: none;"></line><line x1="193.74299854041232" x2="193.74299854041232" y1="274" y2="278" role="presentation" shape-rendering="auto" vector-effect="non-scaling-stroke" style="stroke: transparent; fill: transparent; size: 4px; stroke-width: 1; stroke-linecap: round; stroke-linejoin: round;"></line><text dx="0" dy="11.969999999999999" x="193.74299854041232" y="286"><tspan x="193.74299854041232" dx="0" text-anchor="middle" style="fill: rgb(153, 153, 153); font-size: 14px; font-family: inherit; stroke: transparent; letter-spacing: normal; padding: 8px; stroke-width: 0;">2018</tspan></text></g><g role="presentation"><line x1="306.2197363619777" x2="306.2197363619777" y1="274" y2="34" role="presentation" shape-rendering="auto" vector-effect="non-scaling-stroke" style="stroke: transparent; fill: transparent; stroke-width: 1; stroke-linecap: round; stroke-linejoin: round; pointer-events: none;"></line><line x1="306.2197363619777" x2="306.2197363619777" y1="274" y2="278" role="presentation" shape-rendering="auto" vector-effect="non-scaling-stroke" style="stroke: transparent; fill: transparent; size: 4px; stroke-width: 1; stroke-linecap: round; stroke-linejoin: round;"></line><text dx="0" dy="11.969999999999999" x="306.2197363619777" y="286"><tspan x="306.2197363619777" dx="0" text-anchor="middle" style="fill: rgb(153, 153, 153); font-size: 14px; font-family: inherit; stroke: transparent; letter-spacing: normal; padding: 8px; stroke-width: 0;">2019</tspan></text></g><g role="presentation"><line x1="418.69647418354316" x2="418.69647418354316" y1="274" y2="34" role="presentation" shape-rendering="auto" vector-effect="non-scaling-stroke" style="stroke: transparent; fill: transparent; stroke-width: 1; stroke-linecap: round; stroke-linejoin: round; pointer-events: none;"></line><line x1="418.69647418354316" x2="418.69647418354316" y1="274" y2="278" role="presentation" shape-rendering="auto" vector-effect="non-scaling-stroke" style="stroke: transparent; fill: transparent; size: 4px; stroke-width: 1; stroke-linecap: round; stroke-linejoin: round;"></line><text dx="0" dy="11.969999999999999" x="418.69647418354316" y="286"><tspan x="418.69647418354316" dx="0" text-anchor="middle" style="fill: rgb(153, 153, 153); font-size: 14px; font-family: inherit; stroke: transparent; letter-spacing: normal; padding: 8px; stroke-width: 0;">2020</tspan></text></g><g role="presentation"><line x1="531.4813674511951" x2="531.4813674511951" y1="274" y2="34" role="presentation" shape-rendering="auto" vector-effect="non-scaling-stroke" style="stroke: transparent; fill: transparent; stroke-width: 1; stroke-linecap: round; stroke-linejoin: round; pointer-events: none;"></line><line x1="531.4813674511951" x2="531.4813674511951" y1="274" y2="278" role="presentation" shape-rendering="auto" vector-effect="non-scaling-stroke" style="stroke: transparent; fill: transparent; size: 4px; stroke-width: 1; stroke-linecap: round; stroke-linejoin: round;"></line><text dx="0" dy="11.969999999999999" x="531.4813674511951" y="286"><tspan x="531.4813674511951" dx="0" text-anchor="middle" style="fill: rgb(153, 153, 153); font-size: 14px; font-family: inherit; stroke: transparent; letter-spacing: normal; padding: 8px; stroke-width: 0;">2021</tspan></text></g></g><g role="presentation"><line x1="578" x2="578" y1="34" y2="274" role="presentation" shape-rendering="auto" vector-effect="non-scaling-stroke" style="stroke: transparent; fill: transparent; stroke-width: 1; stroke-linejoin: round;"></line><g role="presentation"><line x1="578" x2="15" y1="274" y2="274" role="presentation" shape-rendering="auto" vector-effect="non-scaling-stroke" style="stroke: rgb(226, 226, 226); fill: transparent; stroke-width: 1; stroke-linecap: round; stroke-linejoin: round; pointer-events: none;"></line><line x1="578" x2="582" y1="274" y2="274" role="presentation" shape-rendering="auto" vector-effect="non-scaling-stroke" style="stroke: transparent; fill: transparent; size: 4px; stroke-width: 1; stroke-linecap: round; stroke-linejoin: round;"></line><text dx="0" dy="4.97" x="590" y="274"><tspan x="590" dx="0" text-anchor="start" style="fill: rgb(153, 153, 153); font-size: 14px; font-family: inherit; stroke: transparent; letter-spacing: normal; padding: 8px; stroke-width: 0;">$100K</tspan></text></g><g role="presentation"><line x1="578" x2="15" y1="214" y2="214" role="presentation" shape-rendering="auto" vector-effect="non-scaling-stroke" style="stroke: rgb(226, 226, 226); fill: transparent; stroke-width: 1; stroke-linecap: round; stroke-linejoin: round; pointer-events: none;"></line><line x1="578" x2="582" y1="214" y2="214" role="presentation" shape-rendering="auto" vector-effect="non-scaling-stroke" style="stroke: transparent; fill: transparent; size: 4px; stroke-width: 1; stroke-linecap: round; stroke-linejoin: round;"></line><text dx="0" dy="4.97" x="590" y="214"><tspan x="590" dx="0" text-anchor="start" style="fill: rgb(153, 153, 153); font-size: 14px; font-family: inherit; stroke: transparent; letter-spacing: normal; padding: 8px; stroke-width: 0;">$150K</tspan></text></g><g role="presentation"><line x1="578" x2="15" y1="154" y2="154" role="presentation" shape-rendering="auto" vector-effect="non-scaling-stroke" style="stroke: rgb(226, 226, 226); fill: transparent; stroke-width: 1; stroke-linecap: round; stroke-linejoin: round; pointer-events: none;"></line><line x1="578" x2="582" y1="154" y2="154" role="presentation" shape-rendering="auto" vector-effect="non-scaling-stroke" style="stroke: transparent; fill: transparent; size: 4px; stroke-width: 1; stroke-linecap: round; stroke-linejoin: round;"></line><text dx="0" dy="4.97" x="590" y="154"><tspan x="590" dx="0" text-anchor="start" style="fill: rgb(153, 153, 153); font-size: 14px; font-family: inherit; stroke: transparent; letter-spacing: normal; padding: 8px; stroke-width: 0;">$200K</tspan></text></g><g role="presentation"><line x1="578" x2="15" y1="94" y2="94" role="presentation" shape-rendering="auto" vector-effect="non-scaling-stroke" style="stroke: rgb(226, 226, 226); fill: transparent; stroke-width: 1; stroke-linecap: round; stroke-linejoin: round; pointer-events: none;"></line><line x1="578" x2="582" y1="94" y2="94" role="presentation" shape-rendering="auto" vector-effect="non-scaling-stroke" style="stroke: transparent; fill: transparent; size: 4px; stroke-width: 1; stroke-linecap: round; stroke-linejoin: round;"></line><text dx="0" dy="4.97" x="590" y="94"><tspan x="590" dx="0" text-anchor="start" style="fill: rgb(153, 153, 153); font-size: 14px; font-family: inherit; stroke: transparent; letter-spacing: normal; padding: 8px; stroke-width: 0;">$250K</tspan></text></g><g role="presentation"><line x1="578" x2="15" y1="34" y2="34" role="presentation" shape-rendering="auto" vector-effect="non-scaling-stroke" style="stroke: rgb(226, 226, 226); fill: transparent; stroke-width: 1; stroke-linecap: round; stroke-linejoin: round; pointer-events: none;"></line><line x1="578" x2="582" y1="34" y2="34" role="presentation" shape-rendering="auto" vector-effect="non-scaling-stroke" style="stroke: transparent; fill: transparent; size: 4px; stroke-width: 1; stroke-linecap: round; stroke-linejoin: round;"></line><text dx="0" dy="4.97" x="590" y="34"><tspan x="590" dx="0" text-anchor="start" style="fill: rgb(153, 153, 153); font-size: 14px; font-family: inherit; stroke: transparent; letter-spacing: normal; padding: 8px; stroke-width: 0;">$300K</tspan></text></g></g><g style="height: 100%; width: 100%; user-select: none;"><defs><clipPath id="victory-clip-5"><rect x="15" y="34" width="563" height="240"></rect></clipPath></defs><g clip-path="url(#victory-clip-5)"><path shape-rendering="auto" role="presentation" d="M15.30815544608648,204.4C18.389709906951285,207.4,21.471264367816094,210.4,24.5528188286809,210.4C27.73709177157453,210.4,30.921364714468165,209.8,34.1056376573618,208.6C37.28991060025543,207.39999999999998,40.47418354314906,194.424,43.658456486042695,191.2C46.7400109469075,188.07999999999998,49.821565407772304,186.51999999999998,52.90311986863711,186.51999999999998C56.08739281153075,186.51999999999998,59.271665754424376,202,62.45593869731801,202C65.54177309493402,202,68.62760749255003,192.184,71.71344189016602,192.184C74.89771483305965,192.184,78.0819877759533,215.8,81.26626071884692,215.8C84.45053366174056,215.8,87.63480660463419,198.4,90.81907954752783,198.4C93.69519704433499,198.4,96.57131454114213,199.6,99.44743203794928,199.6C102.62742504409171,199.6,105.80741805023415,196.80020088099036,108.98741105637657,196C112.06896551724138,195.2245698057698,115.15051997810617,195.6,118.23207443897098,194.8C121.41634738186463,193.97333333333336,124.60062032475825,190,127.7848932676519,190C130.8664477285167,190,133.9480021893815,191.4,137.02955665024632,194.2C140.21382959313993,197.0933333333333,143.39810253603358,212.76,146.5823754789272,214C149.76664842182083,215.24,152.95092136471445,215.86,156.1351943076081,215.86C159.2167487684729,215.86,162.2983032293377,212.2,165.37985769020253,212.2C168.56413063309614,212.2,171.74840357598978,214,174.9326765188834,214C178.0185109164994,214,181.10434531411542,210.4,184.19017971173142,210.4C187.37445265462506,210.4,190.55872559751867,215.78,193.74299854041232,220C196.92727148330596,224.22,200.1115444261996,235.72,203.29581736909324,235.72C206.1719348659004,235.72,209.04805236270755,214,211.9241698595147,214C215.10416286565712,214,218.28415587179956,220.12,221.46414887794197,220.12C224.5457033388068,220.12,227.62725779967158,196,230.7088122605364,196C233.89308520343002,196,237.07735814632366,197.5864480874317,240.26163108921727,198.4C243.3431855500821,199.18730830248546,246.4247400109469,199.20000000000002,249.5062944718117,200.8C252.69056741470536,202.45333333333335,255.874840357599,212.8,259.05911330049264,212.8C262.2433862433863,212.8,265.42765918627987,207.90162841530054,268.6119321291735,206.2C271.69348659003833,204.55326282390268,274.7750410509031,202.66,277.8565955117679,202.66C281.04086845466156,202.66,284.22514139755515,215.2,287.4094143404488,215.2C290.4952487380648,215.2,293.58108313568084,202.91010752688175,296.66691753329684,202.60000000000002C299.8511904761905,202.28,303.03546341908407,202.12,306.2197363619777,202.12C309.40400930487135,202.12,312.588282247765,202.12,315.77255519065864,202.12C318.6486726874658,202.12,321.52479018427294,205.60000000000002,324.4009076810801,205.60000000000002C327.58090068722254,205.60000000000002,330.76089369336495,197.0810161768056,333.94088669950736,192.39999999999998C337.0224411603722,187.86388741951535,340.10399562123695,178,343.18555008210177,178C346.3698230249954,178,349.55409596788905,190,352.7383689107827,190C355.8199233716475,190,358.9014778325123,187,361.9830322933771,187C365.16730523627075,187,368.35157817916433,187.8287,371.535851122058,188.2C374.7201240649516,188.57129999999998,377.90439700784526,189.2278,381.0886699507389,189.2278C384.1702244116037,189.2278,387.2517788724685,178.33962908514013,390.3333333333333,174.4C393.51760627622696,170.3290499453552,396.7018792191206,165.39999999999998,399.88615216201424,165.39999999999998C402.97198655963024,165.39999999999998,406.0578209572463,202.12,409.1436553548623,202.12C412.32792829775593,202.12,415.5122012406495,199.12,418.69647418354316,196C421.8807471264368,192.88,425.0650200693304,183.4,428.24929301222403,183.4C431.22812899106003,183.4,434.206964969896,187.77669534604655,437.185800948732,190C440.3657939548744,192.37344160616007,443.54578696101686,197.2,446.72577996715927,197.2C449.8073344280241,197.2,452.8888888888889,182.5850872554204,455.97044334975374,178C459.1547162926473,173.2620765027323,462.33898923554096,172.02732240437157,465.52326217843455,169.6C468.6048166392994,167.25097831835006,471.6863711001642,163.6,474.767925561029,163.6C477.95219850392266,163.6,481.1364714468163,183.11200000000002,484.32074438970994,183.11200000000002C487.50501733260353,183.11200000000002,490.68929027549717,181.14863387978139,493.87356321839076,178C496.9551176792556,174.95293495505024,500.0366721401204,164.8,503.1182266009852,164.8C506.3024995438788,164.8,509.48677248677245,174.4,512.671045429666,174.4C515.7568798272821,174.4,518.8427142248981,160,521.9285486225142,160C525.1128215654078,160,528.2970945083015,178.06,531.4813674511951,178.06C534.6656403940887,178.06,537.8499133369824,146.8,541.0341862798759,146.8C543.9103037766831,146.8,546.7864212734902,166.6,549.6625387702974,166.6C552.8425317764398,166.6,556.0225247825822,146.87666666666664,559.2025177887247,144.39999999999998C562.2840722495895,141.99999999999997,565.3656267104543,140.79999999999998,568.4471811713191,140.79999999999998C571.6314541142127,140.79999999999998,574.8157270571064,141.39999999999998,578,142" style="fill: transparent; stroke: rgb(51, 51, 51); stroke-width: 2; opacity: 1;"></path></g></g></svg>