<svg xmlns="http://www.w3.org/2000/svg" width="640" height="324" role="img" aria-labelledby="victory-container-4-title victory-container-4-desc" viewBox="0 0 640 324" style="pointer-events: all; width: 100%; height: 100%;"><g role="presentation"><line x1="15" x2="578" y1="274" y2="274" role="presentation" shape-rendering="auto" vector-effect="non-scaling-stroke" style="stroke: rgb(226, 226, 226); fill: transparent; stroke-width: 1; stroke-linejoin: round;"></line><g role="presentation"><line x1="81.26626071884692" x2="81.26626071884692" y1="274" y2="34" role="presentation" shape-rendering="auto" vector-effect="non-scaling-stroke" style="stroke: transparent; fill: transparent; stroke-width: 1; stroke-linecap: round; stroke-linejoin: round; pointer-events: none;"></line><line x1="81.26626071884692" x2="81.26626071884692" y1="274" y2="278" role="presentation" shape-rendering="auto" vector-effect="non-scaling-stroke" style="stroke: transparent; fill: transparent; size: 4px; stroke-width: 1; stroke-linecap: round; stroke-linejoin: round;"></line><text dx="0" dy="11.969999999999999" x="81.26626071884692" y="286"><tspan x="81.26626071884692" dx="0" text-anchor="middle" style="fill: rgb(153, 153, 153); font-size: 14px; font-family: inherit; stroke: transparent; letter-spacing: normal; padding: 8px; stroke-width: 0;">2017</tspan></text></g><g role="presentation"><line x1="193.74299854041232" x2="193.74299854041232" y1="274" y2="34" role="presentation" shape-rendering="auto" vector-effect="non-scaling-stroke" style="stroke: transparent; fill: transparent; stroke-width: 1; stroke-linecap: round; stroke-linejoin: round; pointer-events: none;"></line><line x1="193.74299854041232" x2="193.74299854041232" y1="274" y2="278" role="presentation" shape-rendering="auto" vector-effect="non-scaling-stroke" style="stroke: transparent; fill: transparent; size: 4px; stroke-width: 1; stroke-linecap: round; stroke-linejoin: round;"></line><text dx="0" dy="11.969999999999999" x="193.74299854041232" y="286"><tspan x="193.74299854041232" dx="0" text-anchor="middle" style="fill: rgb(153, 153, 153); font-size: 14px; font-family: inherit; stroke: transparent; letter-spacing: normal; padding: 8px; stroke-width: 0;">2018</tspan></text></g><g role="presentation"><line x1="306.2197363619777" x2="306.2197363619777" y1="274" y2="34" role="presentation" shape-rendering="auto" vector-effect="non-scaling-stroke" style="stroke: transparent; fill: transparent; stroke-width: 1; stroke-linecap: round; stroke-linejoin: round; pointer-events: none;"></line><line x1="306.2197363619777" x2="306.2197363619777" y1="274" y2="278" role="presentation" shape-rendering="auto" vector-effect="non-scaling-stroke" style="stroke: transparent; fill: transparent; size: 4px; stroke-width: 1; stroke-linecap: round; stroke-linejoin: round;"></line><text dx="0" dy="11.969999999999999" x="306.2197363619777" y="286"><tspan x="306.2197363619777" dx="0" text-anchor="middle" style="fill: rgb(153, 153, 153); font-size: 14px; font-family: inherit; stroke: transparent; letter-spacing: normal; padding: 8px; stroke-width: 0;">2019</tspan></text></g><g role="presentation"><line x1="418.69647418354316" x2="418.69647418354316" y1="274" y2="34" role="presentation" shape-rendering="auto" vector-effect="non-scaling-stroke" style="stroke: transparent; fill: transparent; stroke-width: 1; stroke-linecap: round; stroke-linejoin: round; pointer-events: none;"></line><line x1="418.69647418354316" x2="418.69647418354316" y1="274" y2="278" role="presentation" shape-rendering="auto" vector-effect="non-scaling-stroke" style="stroke: transparent; fill: transparent; size: 4px; stroke-width: 1; stroke-linecap: round; stroke-linejoin: round;"></line><text dx="0" dy="11.969999999999999" x="418.69647418354316" y="286"><tspan x="418.69647418354316" dx="0" text-anchor="middle" style="fill: rgb(153, 153, 153); font-size: 14px; font-family: inherit; stroke: transparent; letter-spacing: normal; padding: 8px; stroke-width: 0;">2020</tspan></text></g><g role="presentation"><line x1="531.4813674511951" x2="531.4813674511951" y1="274" y2="34" role="presentation" shape-rendering="auto" vector-effect="non-scaling-stroke" style="stroke: transparent; fill: transparent; stroke-width: 1; stroke-linecap: round; stroke-linejoin: round; pointer-events: none;"></line><line x1="531.4813674511951" x2="531.4813674511951" y1="274" y2="278" role="presentation" shape-rendering="auto" vector-effect="non-scaling-stroke" style="stroke: transparent; fill: transparent; size: 4px; stroke-width: 1; stroke-linecap: round; stroke-linejoin: round;"></line><text dx="0" dy="11.969999999999999" x="531.4813674511951" y="286"><tspan x="531.4813674511951" dx="0" text-anchor="middle" style="fill: rgb(153, 153, 153); font-size: 14px; font-family: inherit; stroke: transparent; letter-spacing: normal; padding: 8px; stroke-width: 0;">2021</tspan></text></g></g><g role="presentation"><line x1="578" x2="578" y1="34" y2="274" role="presentation" shape-rendering="auto" vector-effect="non-scaling-stroke" style="stroke: transparent; fill: transparent; stroke-width: 1; stroke-linejoin: round;"></line><g role="presentation"><line x1="578" x2="15" y1="274" y2="274" role="presentation" shape-rendering="auto" vector-effect="non-scaling-stroke" style="stroke: rgb(226, 226, 226); fill: transparent; stroke-width: 1; stroke-linecap: round; stroke-linejoin: round; pointer-events: none;"></line><line x1="578" x2="582" y1="274" y2="274" role="presentation" shape-rendering="auto" vector-effect="non-scaling-stroke" style="stroke: transparent; fill: transparent; size: 4px; stroke-width: 1; stroke-linecap: round; stroke-linejoin: round;"></line><text dx="0" dy="4.97" x="590" y="274"><tspan x="590" dx="0" text-anchor="start" style="fill: rgb(153, 153, 153); font-size: 14px; font-family: inherit; stroke: transparent; letter-spacing: normal; padding: 8px; stroke-width: 0;">$100K</tspan></text></g><g role="presentation"><line x1="578" x2="15" y1="214" y2="214" role="presentation" shape-rendering="auto" vector-effect="non-scaling-stroke" style="stroke: rgb(226, 226, 226); fill: transparent; stroke-width: 1; stroke-linecap: round; stroke-linejoin: round; pointer-events: none;"></line><line x1="578" x2="582" y1="214" y2="214" role="presentation" shape-rendering="auto" vector-effect="non-scaling-stroke" style="stroke: transparent; fill: transparent; size: 4px; stroke-width: 1; stroke-linecap: round; stroke-linejoin: round;"></line><text dx="0" dy="4.97" x="590" y="214"><tspan x="590" dx="0" text-anchor="start" style="fill: rgb(153, 153, 153); font-size: 14px; font-family: inherit; stroke: transparent; letter-spacing: normal; padding: 8px; stroke-width: 0;">$150K</tspan></text></g><g role="presentation"><line x1="578" x2="15" y1="154" y2="154" role="presentation" shape-rendering="auto" vector-effect="non-scaling-stroke" style="stroke: rgb(226, 226, 226); fill: transparent; stroke-width: 1; stroke-linecap: round; stroke-linejoin: round; pointer-events: none;"></line><line x1="578" x2="582" y1="154" y2="154" role="presentation" shape-rendering="auto" vector-effect="non-scaling-stroke" style="stroke: transparent; fill: transparent; size: 4px; stroke-width: 1; stroke-linecap: round; stroke-linejoin: round;"></line><text dx="0" dy="4.97" x="590" y="154"><tspan x="590" dx="0" text-anchor="start" style="fill: rgb(153, 153, 153); font-size: 14px; font-family: inherit; stroke: transparent; letter-spacing: normal; padding: 8px; stroke-width: 0;">$200K</tspan></text></g><g role="presentation"><line x1="578" x2="15" y1="94" y2="94" role="presentation" shape-rendering="auto" vector-effect="non-scaling-stroke" style="stroke: rgb(226, 226, 226); fill: transparent; stroke-width: 1; stroke-linecap: round; stroke-linejoin: round; pointer-events: none;"></line><line x1="578" x2="582" y1="94" y2="94" role="presentation" shape-rendering="auto" vector-effect="non-scaling-stroke" style="stroke: transparent; fill: transparent; size: 4px; stroke-width: 1; stroke-linecap: round; stroke-linejoin: round;"></line><text dx="0" dy="4.97" x="590" y="94"><tspan x="590" dx="0" text-anchor="start" style="fill: rgb(153, 153, 153); font-size: 14px; font-family: inherit; stroke: transparent; letter-spacing: normal; padding: 8px; stroke-width: 0;">$250K</tspan></text></g><g role="presentation"><line x1="578" x2="15" y1="34" y2="34" role="presentation" shape-rendering="auto" vector-effect="non-scaling-stroke" style="stroke: rgb(226, 226, 226); fill: transparent; stroke-width: 1; stroke-linecap: round; stroke-linejoin: round; pointer-events: none;"></line><line x1="578" x2="582" y1="34" y2="34" role="presentation" shape-rendering="auto" vector-effect="non-scaling-stroke" style="stroke: transparent; fill: transparent; size: 4px; stroke-width: 1; stroke-linecap: round; stroke-linejoin: round;"></line><text dx="0" dy="4.97" x="590" y="34"><tspan x="590" dx="0" text-anchor="start" style="fill: rgb(153, 153, 153); font-size: 14px; font-family: inherit; stroke: transparent; letter-spacing: normal; padding: 8px; stroke-width: 0;">$300K</tspan></text></g></g><g style="height: 100%; width: 100%; user-select: none;"><defs><clipPath id="victory-clip-5"><rect x="15" y="34" width="563" height="240"></rect></clipPath></defs><g clip-path="url(#victory-clip-5)"><path shape-rendering="auto" role="presentation" d="M15.30815544608648,156.4C18.389709906951285,157.13,21.471264367816094,157.86,24.5528188286809,160.78C27.73709177157453,163.79733333333334,30.921364714468165,184,34.1056376573618,184C37.28991060025543,184,40.47418354314906,181.54,43.658456486042695,176.62C46.7400109469075,171.85870967741937,49.821565407772304,155.26,52.90311986863711,155.26C56.08739281153075,155.26,59.271665754424376,187,62.45593869731801,187C65.54177309493402,187,68.62760749255003,164.8,71.71344189016602,164.8C74.89771483305965,164.8,78.0819877759533,166.0618,81.26626071884692,166.0618C84.45053366174056,166.0618,87.63480660463419,166.0412,90.81907954752783,166C93.69519704433499,165.96278709677418,96.57131454114213,140.5,99.44743203794928,140.5C102.62742504409171,140.5,105.80741805023415,166.66000000000003,108.98741105637657,166.66000000000003C112.06896551724138,166.66000000000003,115.15051997810617,138.4,118.23207443897098,138.4C121.41634738186463,138.4,124.60062032475825,153.91733333333332,127.7848932676519,154C130.8664477285167,154.08,133.9480021893815,154.04,137.02955665024632,154.12C140.21382959313993,154.2026666666667,143.39810253603358,166.66000000000003,146.5823754789272,166.66000000000003C149.76664842182083,166.66000000000003,152.95092136471445,148,156.1351943076081,148C159.2167487684729,148,162.2983032293377,154.12,165.37985769020253,154.12C168.56413063309614,154.12,171.74840357598978,149.01276005547854,174.9326765188834,148.60000000000002C178.0185109164994,148.20000000000002,181.10434531411542,148,184.19017971173142,148C187.37445265462506,148,190.55872559751867,154,193.74299854041232,154C196.92727148330596,154,200.1115444261996,140.2,203.29581736909324,140.2C206.1719348659004,140.2,209.04805236270755,150.9300722407963,211.9241698595147,154.3C215.10416286565712,158.0259766742386,218.28415587179956,160.60000000000002,221.46414887794197,160.60000000000002C224.5457033388068,160.60000000000002,227.62725779967158,145.29635113696455,230.7088122605364,140.79999999999998C233.89308520343002,136.1537704918033,237.07735814632366,133.60000000000002,240.26163108921727,133.60000000000002C243.3431855500821,133.60000000000002,246.4247400109469,144.13283976731887,249.5062944718117,148C252.69056741470536,151.9960655737705,255.874840357599,157,259.05911330049264,157C262.2433862433863,157,265.42765918627987,137.20000000000002,268.6119321291735,137.20000000000002C271.69348659003833,137.20000000000002,274.7750410509031,137.60000000000002,277.8565955117679,138.4C281.04086845466156,139.22666666666666,284.22514139755515,153.91744798890429,287.4094143404488,154C290.4952487380648,154.08,293.58108313568084,154.04,296.66691753329684,154.12C299.8511904761905,154.20255201109572,303.03546341908407,166,306.2197363619777,166C309.40400930487135,166,312.588282247765,145.17571428571424,315.77255519065864,140.26C318.6486726874658,135.82000000000002,321.52479018427294,133.60000000000002,324.4009076810801,133.60000000000002C327.58090068722254,133.60000000000002,330.76089369336495,135.83153734715577,333.94088669950736,137.26C337.0224411603722,138.6442437551115,340.10399562123695,142,343.18555008210177,142C346.3698230249954,142,349.55409596788905,137.94515846994537,352.7383689107827,136.12C355.8199233716475,134.35371760973032,358.9014778325123,131.20000000000002,361.9830322933771,131.20000000000002C365.16730523627075,131.20000000000002,368.35157817916433,141.4,371.535851122058,141.4C374.7201240649516,141.4,377.90439700784526,139.4393868852459,381.0886699507389,137.8C384.1702244116037,136.21349656266528,387.2517788724685,131.806,390.3333333333333,131.806C393.51760627622696,131.806,396.7018792191206,181.6,399.88615216201424,181.6C402.97198655963024,181.6,406.0578209572463,140.2,409.1436553548623,140.2C412.32792829775593,140.2,415.5122012406495,160,418.69647418354316,160C421.8807471264368,160,425.0650200693304,128.8,428.24929301222403,128.8C431.22812899106003,128.8,434.206964969896,142.0759084791386,437.185800948732,143.2C440.3657939548744,144.4,443.54578696101686,145,446.72577996715927,145C449.8073344280241,145,452.8888888888889,138.66684294024327,455.97044334975374,136C459.1547162926473,133.244262295082,462.33898923554096,128.8,465.52326217843455,128.8C468.6048166392994,128.8,471.6863711001642,136,474.767925561029,136C477.95219850392266,136,481.1364714468163,106,484.32074438970994,106C487.50501733260353,106,490.68929027549717,120.74173333333334,493.87356321839076,121.06C496.9551176792556,121.368,500.0366721401204,121.52199999999999,503.1182266009852,121.52199999999999C506.3024995438788,121.52199999999999,509.48677248677245,114.02552011095696,512.671045429666,113.19999999999999C515.7568798272821,112.39999999999999,518.8427142248981,112,521.9285486225142,112C525.1128215654078,112,528.2970945083015,124,531.4813674511951,124C534.6656403940887,124,537.8499133369824,122.62,541.0341862798759,119.86000000000001C543.9103037766831,117.36709677419357,546.7864212734902,106.00995135716632,549.6625387702974,101.20000000000002C552.8425317764398,95.88185437741882,556.0225247825822,90.4168,559.2025177887247,90.4168C562.2840722495895,90.4168,565.3656267104543,95.5,568.4471811713191,95.5C571.6314541142127,95.5,574.8157270571064,88.75,578,82" style="fill: transparent; stroke: rgb(51, 51, 51); stroke-width: 2; opacity: 1;"></path></g></g></svg>