<svg xmlns="http://www.w3.org/2000/svg" width="640" height="324" role="img" aria-labelledby="victory-container-4-title victory-container-4-desc" viewBox="0 0 640 324" style="pointer-events: all; width: 100%; height: 100%;"><g role="presentation"><line x1="15" x2="578" y1="274" y2="274" role="presentation" shape-rendering="auto" vector-effect="non-scaling-stroke" style="stroke: rgb(226, 226, 226); fill: transparent; stroke-width: 1; stroke-linejoin: round;"></line><g role="presentation"><line x1="81.26626071884692" x2="81.26626071884692" y1="274" y2="34" role="presentation" shape-rendering="auto" vector-effect="non-scaling-stroke" style="stroke: transparent; fill: transparent; stroke-width: 1; stroke-linecap: round; stroke-linejoin: round; pointer-events: none;"></line><line x1="81.26626071884692" x2="81.26626071884692" y1="274" y2="278" role="presentation" shape-rendering="auto" vector-effect="non-scaling-stroke" style="stroke: transparent; fill: transparent; size: 4px; stroke-width: 1; stroke-linecap: round; stroke-linejoin: round;"></line><text dx="0" dy="11.969999999999999" x="81.26626071884692" y="286"><tspan x="81.26626071884692" dx="0" text-anchor="middle" style="fill: rgb(153, 153, 153); font-size: 14px; font-family: inherit; stroke: transparent; letter-spacing: normal; padding: 8px; stroke-width: 0;">2017</tspan></text></g><g role="presentation"><line x1="193.74299854041232" x2="193.74299854041232" y1="274" y2="34" role="presentation" shape-rendering="auto" vector-effect="non-scaling-stroke" style="stroke: transparent; fill: transparent; stroke-width: 1; stroke-linecap: round; stroke-linejoin: round; pointer-events: none;"></line><line x1="193.74299854041232" x2="193.74299854041232" y1="274" y2="278" role="presentation" shape-rendering="auto" vector-effect="non-scaling-stroke" style="stroke: transparent; fill: transparent; size: 4px; stroke-width: 1; stroke-linecap: round; stroke-linejoin: round;"></line><text dx="0" dy="11.969999999999999" x="193.74299854041232" y="286"><tspan x="193.74299854041232" dx="0" text-anchor="middle" style="fill: rgb(153, 153, 153); font-size: 14px; font-family: inherit; stroke: transparent; letter-spacing: normal; padding: 8px; stroke-width: 0;">2018</tspan></text></g><g role="presentation"><line x1="306.2197363619777" x2="306.2197363619777" y1="274" y2="34" role="presentation" shape-rendering="auto" vector-effect="non-scaling-stroke" style="stroke: transparent; fill: transparent; stroke-width: 1; stroke-linecap: round; stroke-linejoin: round; pointer-events: none;"></line><line x1="306.2197363619777" x2="306.2197363619777" y1="274" y2="278" role="presentation" shape-rendering="auto" vector-effect="non-scaling-stroke" style="stroke: transparent; fill: transparent; size: 4px; stroke-width: 1; stroke-linecap: round; stroke-linejoin: round;"></line><text dx="0" dy="11.969999999999999" x="306.2197363619777" y="286"><tspan x="306.2197363619777" dx="0" text-anchor="middle" style="fill: rgb(153, 153, 153); font-size: 14px; font-family: inherit; stroke: transparent; letter-spacing: normal; padding: 8px; stroke-width: 0;">2019</tspan></text></g><g role="presentation"><line x1="418.69647418354316" x2="418.69647418354316" y1="274" y2="34" role="presentation" shape-rendering="auto" vector-effect="non-scaling-stroke" style="stroke: transparent; fill: transparent; stroke-width: 1; stroke-linecap: round; stroke-linejoin: round; pointer-events: none;"></line><line x1="418.69647418354316" x2="418.69647418354316" y1="274" y2="278" role="presentation" shape-rendering="auto" vector-effect="non-scaling-stroke" style="stroke: transparent; fill: transparent; size: 4px; stroke-width: 1; stroke-linecap: round; stroke-linejoin: round;"></line><text dx="0" dy="11.969999999999999" x="418.69647418354316" y="286"><tspan x="418.69647418354316" dx="0" text-anchor="middle" style="fill: rgb(153, 153, 153); font-size: 14px; font-family: inherit; stroke: transparent; letter-spacing: normal; padding: 8px; stroke-width: 0;">2020</tspan></text></g><g role="presentation"><line x1="531.4813674511951" x2="531.4813674511951" y1="274" y2="34" role="presentation" shape-rendering="auto" vector-effect="non-scaling-stroke" style="stroke: transparent; fill: transparent; stroke-width: 1; stroke-linecap: round; stroke-linejoin: round; pointer-events: none;"></line><line x1="531.4813674511951" x2="531.4813674511951" y1="274" y2="278" role="presentation" shape-rendering="auto" vector-effect="non-scaling-stroke" style="stroke: transparent; fill: transparent; size: 4px; stroke-width: 1; stroke-linecap: round; stroke-linejoin: round;"></line><text dx="0" dy="11.969999999999999" x="531.4813674511951" y="286"><tspan x="531.4813674511951" dx="0" text-anchor="middle" style="fill: rgb(153, 153, 153); font-size: 14px; font-family: inherit; stroke: transparent; letter-spacing: normal; padding: 8px; stroke-width: 0;">2021</tspan></text></g></g><g role="presentation"><line x1="578" x2="578" y1="34" y2="274" role="presentation" shape-rendering="auto" vector-effect="non-scaling-stroke" style="stroke: transparent; fill: transparent; stroke-width: 1; stroke-linejoin: round;"></line><g role="presentation"><line x1="578" x2="15" y1="274" y2="274" role="presentation" shape-rendering="auto" vector-effect="non-scaling-stroke" style="stroke: rgb(226, 226, 226); fill: transparent; stroke-width: 1; stroke-linecap: round; stroke-linejoin: round; pointer-events: none;"></line><line x1="578" x2="582" y1="274" y2="274" role="presentation" shape-rendering="auto" vector-effect="non-scaling-stroke" style="stroke: transparent; fill: transparent; size: 4px; stroke-width: 1; stroke-linecap: round; stroke-linejoin: round;"></line><text dx="0" dy="4.97" x="590" y="274"><tspan x="590" dx="0" text-anchor="start" style="fill: rgb(153, 153, 153); font-size: 14px; font-family: inherit; stroke: transparent; letter-spacing: normal; padding: 8px; stroke-width: 0;">$200K</tspan></text></g><g role="presentation"><line x1="578" x2="15" y1="214" y2="214" role="presentation" shape-rendering="auto" vector-effect="non-scaling-stroke" style="stroke: rgb(226, 226, 226); fill: transparent; stroke-width: 1; stroke-linecap: round; stroke-linejoin: round; pointer-events: none;"></line><line x1="578" x2="582" y1="214" y2="214" role="presentation" shape-rendering="auto" vector-effect="non-scaling-stroke" style="stroke: transparent; fill: transparent; size: 4px; stroke-width: 1; stroke-linecap: round; stroke-linejoin: round;"></line><text dx="0" dy="4.97" x="590" y="214"><tspan x="590" dx="0" text-anchor="start" style="fill: rgb(153, 153, 153); font-size: 14px; font-family: inherit; stroke: transparent; letter-spacing: normal; padding: 8px; stroke-width: 0;">$250K</tspan></text></g><g role="presentation"><line x1="578" x2="15" y1="154" y2="154" role="presentation" shape-rendering="auto" vector-effect="non-scaling-stroke" style="stroke: rgb(226, 226, 226); fill: transparent; stroke-width: 1; stroke-linecap: round; stroke-linejoin: round; pointer-events: none;"></line><line x1="578" x2="582" y1="154" y2="154" role="presentation" shape-rendering="auto" vector-effect="non-scaling-stroke" style="stroke: transparent; fill: transparent; size: 4px; stroke-width: 1; stroke-linecap: round; stroke-linejoin: round;"></line><text dx="0" dy="4.97" x="590" y="154"><tspan x="590" dx="0" text-anchor="start" style="fill: rgb(153, 153, 153); font-size: 14px; font-family: inherit; stroke: transparent; letter-spacing: normal; padding: 8px; stroke-width: 0;">$300K</tspan></text></g><g role="presentation"><line x1="578" x2="15" y1="94" y2="94" role="presentation" shape-rendering="auto" vector-effect="non-scaling-stroke" style="stroke: rgb(226, 226, 226); fill: transparent; stroke-width: 1; stroke-linecap: round; stroke-linejoin: round; pointer-events: none;"></line><line x1="578" x2="582" y1="94" y2="94" role="presentation" shape-rendering="auto" vector-effect="non-scaling-stroke" style="stroke: transparent; fill: transparent; size: 4px; stroke-width: 1; stroke-linecap: round; stroke-linejoin: round;"></line><text dx="0" dy="4.97" x="590" y="94"><tspan x="590" dx="0" text-anchor="start" style="fill: rgb(153, 153, 153); font-size: 14px; font-family: inherit; stroke: transparent; letter-spacing: normal; padding: 8px; stroke-width: 0;">$350K</tspan></text></g><g role="presentation"><line x1="578" x2="15" y1="34" y2="34" role="presentation" shape-rendering="auto" vector-effect="non-scaling-stroke" style="stroke: rgb(226, 226, 226); fill: transparent; stroke-width: 1; stroke-linecap: round; stroke-linejoin: round; pointer-events: none;"></line><line x1="578" x2="582" y1="34" y2="34" role="presentation" shape-rendering="auto" vector-effect="non-scaling-stroke" style="stroke: transparent; fill: transparent; size: 4px; stroke-width: 1; stroke-linecap: round; stroke-linejoin: round;"></line><text dx="0" dy="4.97" x="590" y="34"><tspan x="590" dx="0" text-anchor="start" style="fill: rgb(153, 153, 153); font-size: 14px; font-family: inherit; stroke: transparent; letter-spacing: normal; padding: 8px; stroke-width: 0;">$400K</tspan></text></g></g><g style="height: 100%; width: 100%; user-select: none;"><defs><clipPath id="victory-clip-5"><rect x="15" y="34" width="563" height="240"></rect></clipPath></defs><g clip-path="url(#victory-clip-5)"><path shape-rendering="auto" role="presentation" d="M24.5528188286809,168.7C27.73709177157453,164.4106,30.921364714468165,160.1212,34.1056376573618,160.1212C37.28991060025543,160.1212,40.47418354314906,171.13938797814208,43.658456486042695,175.36C46.7400109469075,179.4444632469593,49.821565407772304,180.86785827604442,52.90311986863711,185.2C56.08739281153075,189.6765464480874,59.271665754424376,202,62.45593869731801,202C65.54177309493402,202,68.62760749255003,177.3763440860215,71.71344189016602,173.5C74.89771483305965,169.5,78.0819877759533,167.5,81.26626071884692,167.5C84.45053366174056,167.5,87.63480660463419,226,90.81907954752783,226C93.69519704433499,226,96.57131454114213,192.70036633074776,99.44743203794928,179.2C102.62742504409171,164.27325567895002,105.80741805023415,142.12,108.98741105637657,142.12C112.06896551724138,142.12,115.15051997810617,163,118.23207443897098,163C121.41634738186463,163,124.60062032475825,131.20000000000002,127.7848932676519,131.20000000000002C130.8664477285167,131.20000000000002,133.9480021893815,185.5,137.02955665024632,185.5C140.21382959313993,185.5,143.39810253603358,178.9,146.5823754789272,178.78C149.76664842182083,178.66,152.95092136471445,178.72,156.1351943076081,178.6C159.2167487684729,178.48387096774192,162.2983032293377,172.60000000000002,165.37985769020253,172.60000000000002C168.56413063309614,172.60000000000002,171.74840357598978,186.75005173891023,174.9326765188834,195.51999999999998C178.0185109164994,204.01883426914748,181.10434531411542,224.2,184.19017971173142,224.2C187.37445265462506,224.2,190.55872559751867,221.85999999999999,193.74299854041232,217.18C196.92727148330596,212.5,200.1115444261996,190,203.29581736909324,190C206.1719348659004,190,209.04805236270755,216.52,211.9241698595147,216.52C215.10416286565712,216.52,218.28415587179956,210.33054532163743,221.46414887794197,208C224.5457033388068,205.741598073245,227.62725779967158,206.22,230.7088122605364,202.66C233.89308520343002,198.98133333333334,237.07735814632366,184,240.26163108921727,184C243.3431855500821,184,246.4247400109469,200.5,249.5062944718117,200.5C252.69056741470536,200.5,255.874840357599,166,259.05911330049264,166C262.2433862433863,166,265.42765918627987,176.848087431694,268.6119321291735,184C271.69348659003833,190.9212057112639,274.7750410509031,208,277.8565955117679,208C281.04086845466156,208,284.22514139755515,169.6,287.4094143404488,169.6C290.4952487380648,169.6,293.58108313568084,224.5,296.66691753329684,224.5C299.8511904761905,224.5,303.03546341908407,152.20000000000002,306.2197363619777,152.20000000000002C309.40400930487135,152.20000000000002,312.588282247765,163.34285714285716,315.77255519065864,166C318.6486726874658,168.4,321.52479018427294,169.6,324.4009076810801,169.6C327.58090068722254,169.6,330.76089369336495,155.56,333.94088669950736,155.56C337.0224411603722,155.56,340.10399562123695,191.2,343.18555008210177,191.2C346.3698230249954,191.2,349.55409596788905,154.6,352.7383689107827,154.6C355.8199233716475,154.6,358.9014778325123,202,361.9830322933771,202C365.16730523627075,202,368.35157817916433,160,371.535851122058,160C374.7201240649516,160,377.90439700784526,190,381.0886699507389,190C384.1702244116037,190,387.2517788724685,190,390.3333333333333,190C393.51760627622696,190,396.7018792191206,184.14004114497783,399.88615216201424,178C402.97198655963024,172.04977195493413,406.0578209572463,154.12,409.1436553548623,154.12C412.32792829775593,154.12,415.5122012406495,175.92,418.69647418354316,184.89999999999998C421.8807471264368,193.87999999999997,425.0650200693304,208,428.24929301222403,208C431.22812899106003,208,434.206964969896,187.0768,437.185800948732,187.0768C440.3657939548744,187.0768,443.54578696101686,193.6,446.72577996715927,193.6C449.8073344280241,193.6,452.8888888888889,184.3718667371761,455.97044334975374,181C459.1547162926473,177.51573770491808,462.33898923554096,178.4,465.52326217843455,173.2C468.6048166392994,168.16774193548378,471.6863711001642,130,474.767925561029,130C477.95219850392266,130,481.1364714468163,141.64999999999995,484.32074438970994,148C487.50501733260353,154.34999999999997,490.68929027549717,165.00000000000006,493.87356321839076,168.10000000000002C496.9551176792556,171.10000000000002,500.0366721401204,172.60000000000002,503.1182266009852,172.60000000000002C506.3024995438788,172.60000000000002,509.48677248677245,136,512.671045429666,136C515.7568798272821,136,518.8427142248981,154,521.9285486225142,154C525.1128215654078,154,528.2970945083015,147.6,531.4813674511951,145.6C534.6656403940887,143.6,537.8499133369824,142,541.0341862798759,142C543.9103037766831,142,546.7864212734902,160,549.6625387702974,160C552.8425317764398,160,556.0225247825822,77.80444444444444,559.2025177887247,71.20000000000002C562.2840722495895,64.8,565.3656267104543,61.599999999999994,568.4471811713191,61.599999999999994C571.6314541142127,61.599999999999994,574.8157270571064,86.8,578,112" style="fill: transparent; stroke: rgb(51, 51, 51); stroke-width: 2; opacity: 1;"></path></g></g></svg>