<svg xmlns="http://www.w3.org/2000/svg" width="640" height="324" role="img" aria-labelledby="victory-container-4-title victory-container-4-desc" viewBox="0 0 640 324" style="pointer-events: all; width: 100%; height: 100%;"><g role="presentation"><line x1="15" x2="578" y1="274" y2="274" role="presentation" shape-rendering="auto" vector-effect="non-scaling-stroke" style="stroke: rgb(226, 226, 226); fill: transparent; stroke-width: 1; stroke-linejoin: round;"></line><g role="presentation"><line x1="81.26626071884692" x2="81.26626071884692" y1="274" y2="34" role="presentation" shape-rendering="auto" vector-effect="non-scaling-stroke" style="stroke: transparent; fill: transparent; stroke-width: 1; stroke-linecap: round; stroke-linejoin: round; pointer-events: none;"></line><line x1="81.26626071884692" x2="81.26626071884692" y1="274" y2="278" role="presentation" shape-rendering="auto" vector-effect="non-scaling-stroke" style="stroke: transparent; fill: transparent; size: 4px; stroke-width: 1; stroke-linecap: round; stroke-linejoin: round;"></line><text dx="0" dy="11.969999999999999" x="81.26626071884692" y="286"><tspan x="81.26626071884692" dx="0" text-anchor="middle" style="fill: rgb(153, 153, 153); font-size: 14px; font-family: inherit; stroke: transparent; letter-spacing: normal; padding: 8px; stroke-width: 0;">2017</tspan></text></g><g role="presentation"><line x1="193.74299854041232" x2="193.74299854041232" y1="274" y2="34" role="presentation" shape-rendering="auto" vector-effect="non-scaling-stroke" style="stroke: transparent; fill: transparent; stroke-width: 1; stroke-linecap: round; stroke-linejoin: round; pointer-events: none;"></line><line x1="193.74299854041232" x2="193.74299854041232" y1="274" y2="278" role="presentation" shape-rendering="auto" vector-effect="non-scaling-stroke" style="stroke: transparent; fill: transparent; size: 4px; stroke-width: 1; stroke-linecap: round; stroke-linejoin: round;"></line><text dx="0" dy="11.969999999999999" x="193.74299854041232" y="286"><tspan x="193.74299854041232" dx="0" text-anchor="middle" style="fill: rgb(153, 153, 153); font-size: 14px; font-family: inherit; stroke: transparent; letter-spacing: normal; padding: 8px; stroke-width: 0;">2018</tspan></text></g><g role="presentation"><line x1="306.2197363619777" x2="306.2197363619777" y1="274" y2="34" role="presentation" shape-rendering="auto" vector-effect="non-scaling-stroke" style="stroke: transparent; fill: transparent; stroke-width: 1; stroke-linecap: round; stroke-linejoin: round; pointer-events: none;"></line><line x1="306.2197363619777" x2="306.2197363619777" y1="274" y2="278" role="presentation" shape-rendering="auto" vector-effect="non-scaling-stroke" style="stroke: transparent; fill: transparent; size: 4px; stroke-width: 1; stroke-linecap: round; stroke-linejoin: round;"></line><text dx="0" dy="11.969999999999999" x="306.2197363619777" y="286"><tspan x="306.2197363619777" dx="0" text-anchor="middle" style="fill: rgb(153, 153, 153); font-size: 14px; font-family: inherit; stroke: transparent; letter-spacing: normal; padding: 8px; stroke-width: 0;">2019</tspan></text></g><g role="presentation"><line x1="418.69647418354316" x2="418.69647418354316" y1="274" y2="34" role="presentation" shape-rendering="auto" vector-effect="non-scaling-stroke" style="stroke: transparent; fill: transparent; stroke-width: 1; stroke-linecap: round; stroke-linejoin: round; pointer-events: none;"></line><line x1="418.69647418354316" x2="418.69647418354316" y1="274" y2="278" role="presentation" shape-rendering="auto" vector-effect="non-scaling-stroke" style="stroke: transparent; fill: transparent; size: 4px; stroke-width: 1; stroke-linecap: round; stroke-linejoin: round;"></line><text dx="0" dy="11.969999999999999" x="418.69647418354316" y="286"><tspan x="418.69647418354316" dx="0" text-anchor="middle" style="fill: rgb(153, 153, 153); font-size: 14px; font-family: inherit; stroke: transparent; letter-spacing: normal; padding: 8px; stroke-width: 0;">2020</tspan></text></g><g role="presentation"><line x1="531.4813674511951" x2="531.4813674511951" y1="274" y2="34" role="presentation" shape-rendering="auto" vector-effect="non-scaling-stroke" style="stroke: transparent; fill: transparent; stroke-width: 1; stroke-linecap: round; stroke-linejoin: round; pointer-events: none;"></line><line x1="531.4813674511951" x2="531.4813674511951" y1="274" y2="278" role="presentation" shape-rendering="auto" vector-effect="non-scaling-stroke" style="stroke: transparent; fill: transparent; size: 4px; stroke-width: 1; stroke-linecap: round; stroke-linejoin: round;"></line><text dx="0" dy="11.969999999999999" x="531.4813674511951" y="286"><tspan x="531.4813674511951" dx="0" text-anchor="middle" style="fill: rgb(153, 153, 153); font-size: 14px; font-family: inherit; stroke: transparent; letter-spacing: normal; padding: 8px; stroke-width: 0;">2021</tspan></text></g></g><g role="presentation"><line x1="578" x2="578" y1="34" y2="274" role="presentation" shape-rendering="auto" vector-effect="non-scaling-stroke" style="stroke: transparent; fill: transparent; stroke-width: 1; stroke-linejoin: round;"></line><g role="presentation"><line x1="578" x2="15" y1="274" y2="274" role="presentation" shape-rendering="auto" vector-effect="non-scaling-stroke" style="stroke: rgb(226, 226, 226); fill: transparent; stroke-width: 1; stroke-linecap: round; stroke-linejoin: round; pointer-events: none;"></line><line x1="578" x2="582" y1="274" y2="274" role="presentation" shape-rendering="auto" vector-effect="non-scaling-stroke" style="stroke: transparent; fill: transparent; size: 4px; stroke-width: 1; stroke-linecap: round; stroke-linejoin: round;"></line><text dx="0" dy="4.97" x="590" y="274"><tspan x="590" dx="0" text-anchor="start" style="fill: rgb(153, 153, 153); font-size: 14px; font-family: inherit; stroke: transparent; letter-spacing: normal; padding: 8px; stroke-width: 0;">$200K</tspan></text></g><g role="presentation"><line x1="578" x2="15" y1="226" y2="226" role="presentation" shape-rendering="auto" vector-effect="non-scaling-stroke" style="stroke: rgb(226, 226, 226); fill: transparent; stroke-width: 1; stroke-linecap: round; stroke-linejoin: round; pointer-events: none;"></line><line x1="578" x2="582" y1="226" y2="226" role="presentation" shape-rendering="auto" vector-effect="non-scaling-stroke" style="stroke: transparent; fill: transparent; size: 4px; stroke-width: 1; stroke-linecap: round; stroke-linejoin: round;"></line><text dx="0" dy="4.97" x="590" y="226"><tspan x="590" dx="0" text-anchor="start" style="fill: rgb(153, 153, 153); font-size: 14px; font-family: inherit; stroke: transparent; letter-spacing: normal; padding: 8px; stroke-width: 0;">$220K</tspan></text></g><g role="presentation"><line x1="578" x2="15" y1="178" y2="178" role="presentation" shape-rendering="auto" vector-effect="non-scaling-stroke" style="stroke: rgb(226, 226, 226); fill: transparent; stroke-width: 1; stroke-linecap: round; stroke-linejoin: round; pointer-events: none;"></line><line x1="578" x2="582" y1="178" y2="178" role="presentation" shape-rendering="auto" vector-effect="non-scaling-stroke" style="stroke: transparent; fill: transparent; size: 4px; stroke-width: 1; stroke-linecap: round; stroke-linejoin: round;"></line><text dx="0" dy="4.97" x="590" y="178"><tspan x="590" dx="0" text-anchor="start" style="fill: rgb(153, 153, 153); font-size: 14px; font-family: inherit; stroke: transparent; letter-spacing: normal; padding: 8px; stroke-width: 0;">$240K</tspan></text></g><g role="presentation"><line x1="578" x2="15" y1="130" y2="130" role="presentation" shape-rendering="auto" vector-effect="non-scaling-stroke" style="stroke: rgb(226, 226, 226); fill: transparent; stroke-width: 1; stroke-linecap: round; stroke-linejoin: round; pointer-events: none;"></line><line x1="578" x2="582" y1="130" y2="130" role="presentation" shape-rendering="auto" vector-effect="non-scaling-stroke" style="stroke: transparent; fill: transparent; size: 4px; stroke-width: 1; stroke-linecap: round; stroke-linejoin: round;"></line><text dx="0" dy="4.97" x="590" y="130"><tspan x="590" dx="0" text-anchor="start" style="fill: rgb(153, 153, 153); font-size: 14px; font-family: inherit; stroke: transparent; letter-spacing: normal; padding: 8px; stroke-width: 0;">$260K</tspan></text></g><g role="presentation"><line x1="578" x2="15" y1="82" y2="82" role="presentation" shape-rendering="auto" vector-effect="non-scaling-stroke" style="stroke: rgb(226, 226, 226); fill: transparent; stroke-width: 1; stroke-linecap: round; stroke-linejoin: round; pointer-events: none;"></line><line x1="578" x2="582" y1="82" y2="82" role="presentation" shape-rendering="auto" vector-effect="non-scaling-stroke" style="stroke: transparent; fill: transparent; size: 4px; stroke-width: 1; stroke-linecap: round; stroke-linejoin: round;"></line><text dx="0" dy="4.97" x="590" y="82"><tspan x="590" dx="0" text-anchor="start" style="fill: rgb(153, 153, 153); font-size: 14px; font-family: inherit; stroke: transparent; letter-spacing: normal; padding: 8px; stroke-width: 0;">$280K</tspan></text></g><g role="presentation"><line x1="578" x2="15" y1="34" y2="34" role="presentation" shape-rendering="auto" vector-effect="non-scaling-stroke" style="stroke: rgb(226, 226, 226); fill: transparent; stroke-width: 1; stroke-linecap: round; stroke-linejoin: round; pointer-events: none;"></line><line x1="578" x2="582" y1="34" y2="34" role="presentation" shape-rendering="auto" vector-effect="non-scaling-stroke" style="stroke: transparent; fill: transparent; size: 4px; stroke-width: 1; stroke-linecap: round; stroke-linejoin: round;"></line><text dx="0" dy="4.97" x="590" y="34"><tspan x="590" dx="0" text-anchor="start" style="fill: rgb(153, 153, 153); font-size: 14px; font-family: inherit; stroke: transparent; letter-spacing: normal; padding: 8px; stroke-width: 0;">$300K</tspan></text></g></g><g style="height: 100%; width: 100%; user-select: none;"><defs><clipPath id="victory-clip-5"><rect x="15" y="34" width="563" height="240"></rect></clipPath></defs><g clip-path="url(#victory-clip-5)"><path shape-rendering="auto" role="presentation" d="M15.30815544608648,238C18.389709906951285,243.44907879428874,21.471264367816094,248.89815758857748,24.5528188286809,252.904C27.73709177157453,257.0433704918033,30.921364714468165,261.6,34.1056376573618,262.24C37.28991060025543,262.88,40.47418354314906,262.56,43.658456486042695,263.2C46.7400109469075,263.81935483870967,49.821565407772304,274,52.90311986863711,274C56.08739281153075,274,59.271665754424376,264.8070811775454,62.45593869731801,262C65.54177309493402,259.2796968696099,68.62760749255003,257.97526881720427,71.71344189016602,257.2C74.89771483305965,256.4,78.0819877759533,256.8,81.26626071884692,256C84.45053366174056,255.20000000000002,87.63480660463419,250,90.81907954752783,250C93.69519704433499,250,96.57131454114213,266.8,99.44743203794928,266.8C102.62742504409171,266.8,105.80741805023415,238,108.98741105637657,238C112.06896551724138,238,115.15051997810617,238.72,118.23207443897098,238.72C121.41634738186463,238.72,124.60062032475825,214,127.7848932676519,214C130.8664477285167,214,133.9480021893815,224.43765203595981,137.02955665024632,228.4C140.21382959313993,232.49442622950818,143.39810253603358,237.84,146.5823754789272,238C149.76664842182083,238.16,152.95092136471445,238.24,156.1351943076081,238.24C159.2167487684729,238.24,162.2983032293377,231.1174193548387,165.37985769020253,231.04C168.56413063309614,230.96,171.74840357598978,230.92000000000002,174.9326765188834,230.92000000000002C178.0185109164994,230.92000000000002,181.10434531411542,233.47233388381224,184.19017971173142,235.6C187.37445265462506,237.79553896039346,190.55872559751867,244,193.74299854041232,244C196.92727148330596,244,200.1115444261996,203.284,203.29581736909324,203.284C206.1719348659004,203.284,209.04805236270755,218.8,211.9241698595147,218.8C215.10416286565712,218.8,218.28415587179956,203.6511111111111,221.46414887794197,202C224.5457033388068,200.4,227.62725779967158,199.6,230.7088122605364,199.6C233.89308520343002,199.6,237.07735814632366,214.1921092896175,240.26163108921727,218.812C243.3431855500821,223.28286197778957,246.4247400109469,227.212,249.5062944718117,227.212C252.69056741470536,227.212,255.874840357599,204.4,259.05911330049264,204.4C262.2433862433863,204.4,265.42765918627987,234.4,268.6119321291735,234.4C271.69348659003833,234.4,274.7750410509031,190,277.8565955117679,190C281.04086845466156,190,284.22514139755515,213.946,287.4094143404488,213.946C290.4952487380648,213.946,293.58108313568084,202.66325396528313,296.66691753329684,198.892C299.8511904761905,195.00044251016556,303.03546341908407,191.99999999999997,306.2197363619777,191.2C309.40400930487135,190.4,312.588282247765,190.79999999999998,315.77255519065864,190C318.6486726874658,189.2774193548387,321.52479018427294,172.72831763122477,324.4009076810801,172.012C327.58090068722254,171.22,330.76089369336495,171.616,333.94088669950736,170.824C337.0224411603722,170.05651682368776,340.10399562123695,166,343.18555008210177,166C346.3698230249954,166,349.55409596788905,172.03149289617485,352.7383689107827,174.4C355.8199233716475,176.69210364886303,358.9014778325123,180.064,361.9830322933771,180.064C365.16730523627075,180.064,368.35157817916433,164.1904,371.535851122058,164.1904C374.7201240649516,164.1904,377.90439700784526,179.70609836065574,381.0886699507389,187.12C384.1702244116037,194.29474352194606,387.2517788724685,208,390.3333333333333,208C393.51760627622696,208,396.7018792191206,177.9376767913355,399.88615216201424,163.95999999999998C402.97198655963024,150.41442880839662,406.0578209572463,125.91058602150538,409.1436553548623,125.30199999999999C412.32792829775593,124.67399999999999,415.5122012406495,124.35999999999999,418.69647418354316,124.35999999999999C421.8807471264368,124.35999999999999,425.0650200693304,165.21730505747126,428.24929301222403,178C431.22812899106003,189.9580049462366,434.206964969896,200.4916,437.185800948732,200.4916C440.3657939548744,200.4916,443.54578696101686,157.7944,446.72577996715927,157.7944C449.8073344280241,157.7944,452.8888888888889,158.54,455.97044334975374,160.0312C459.1547162926473,161.57210666666666,462.33898923554096,178,465.52326217843455,178C468.6048166392994,178,471.6863711001642,147.35509677419356,474.767925561029,142C477.95219850392266,136.4664,481.1364714468163,133.6996,484.32074438970994,133.6996C487.50501733260353,133.6996,490.68929027549717,142,493.87356321839076,142C496.9551176792556,142,500.0366721401204,125.6584,503.1182266009852,125.6584C506.3024995438788,125.6584,509.48677248677245,129.9983489597781,512.671045429666,130C515.7568798272821,130.0016,518.8427142248981,130.0024,521.9285486225142,130.0024C525.1128215654078,130.0024,528.2970945083015,106.0024,531.4813674511951,106.0024C534.6656403940887,106.0024,537.8499133369824,118.024,541.0341862798759,118.024C543.9103037766831,118.024,546.7864212734902,53.90799999999999,549.6625387702974,53.90799999999999C552.8425317764398,53.90799999999999,556.0225247825822,102.4,559.2025177887247,102.4C562.2840722495895,102.4,565.3656267104543,74.9831961924908,568.4471811713191,64.48600000000002C571.6314541142127,53.638897267759646,574.8157270571064,46.220648633879826,578,38.802400000000006" style="fill: transparent; stroke: rgb(51, 51, 51); stroke-width: 2; opacity: 1;"></path></g></g></svg>