<svg xmlns="http://www.w3.org/2000/svg" width="640" height="324" role="img" aria-labelledby="victory-container-4-title victory-container-4-desc" viewBox="0 0 640 324" style="pointer-events: all; width: 100%; height: 100%;"><g role="presentation"><line x1="15" x2="578" y1="274" y2="274" role="presentation" shape-rendering="auto" vector-effect="non-scaling-stroke" style="stroke: rgb(226, 226, 226); fill: transparent; stroke-width: 1; stroke-linejoin: round;"></line><g role="presentation"><line x1="81.26626071884692" x2="81.26626071884692" y1="274" y2="34" role="presentation" shape-rendering="auto" vector-effect="non-scaling-stroke" style="stroke: transparent; fill: transparent; stroke-width: 1; stroke-linecap: round; stroke-linejoin: round; pointer-events: none;"></line><line x1="81.26626071884692" x2="81.26626071884692" y1="274" y2="278" role="presentation" shape-rendering="auto" vector-effect="non-scaling-stroke" style="stroke: transparent; fill: transparent; size: 4px; stroke-width: 1; stroke-linecap: round; stroke-linejoin: round;"></line><text dx="0" dy="11.969999999999999" x="81.26626071884692" y="286"><tspan x="81.26626071884692" dx="0" text-anchor="middle" style="fill: rgb(153, 153, 153); font-size: 14px; font-family: inherit; stroke: transparent; letter-spacing: normal; padding: 8px; stroke-width: 0;">2017</tspan></text></g><g role="presentation"><line x1="193.74299854041232" x2="193.74299854041232" y1="274" y2="34" role="presentation" shape-rendering="auto" vector-effect="non-scaling-stroke" style="stroke: transparent; fill: transparent; stroke-width: 1; stroke-linecap: round; stroke-linejoin: round; pointer-events: none;"></line><line x1="193.74299854041232" x2="193.74299854041232" y1="274" y2="278" role="presentation" shape-rendering="auto" vector-effect="non-scaling-stroke" style="stroke: transparent; fill: transparent; size: 4px; stroke-width: 1; stroke-linecap: round; stroke-linejoin: round;"></line><text dx="0" dy="11.969999999999999" x="193.74299854041232" y="286"><tspan x="193.74299854041232" dx="0" text-anchor="middle" style="fill: rgb(153, 153, 153); font-size: 14px; font-family: inherit; stroke: transparent; letter-spacing: normal; padding: 8px; stroke-width: 0;">2018</tspan></text></g><g role="presentation"><line x1="306.2197363619777" x2="306.2197363619777" y1="274" y2="34" role="presentation" shape-rendering="auto" vector-effect="non-scaling-stroke" style="stroke: transparent; fill: transparent; stroke-width: 1; stroke-linecap: round; stroke-linejoin: round; pointer-events: none;"></line><line x1="306.2197363619777" x2="306.2197363619777" y1="274" y2="278" role="presentation" shape-rendering="auto" vector-effect="non-scaling-stroke" style="stroke: transparent; fill: transparent; size: 4px; stroke-width: 1; stroke-linecap: round; stroke-linejoin: round;"></line><text dx="0" dy="11.969999999999999" x="306.2197363619777" y="286"><tspan x="306.2197363619777" dx="0" text-anchor="middle" style="fill: rgb(153, 153, 153); font-size: 14px; font-family: inherit; stroke: transparent; letter-spacing: normal; padding: 8px; stroke-width: 0;">2019</tspan></text></g><g role="presentation"><line x1="418.69647418354316" x2="418.69647418354316" y1="274" y2="34" role="presentation" shape-rendering="auto" vector-effect="non-scaling-stroke" style="stroke: transparent; fill: transparent; stroke-width: 1; stroke-linecap: round; stroke-linejoin: round; pointer-events: none;"></line><line x1="418.69647418354316" x2="418.69647418354316" y1="274" y2="278" role="presentation" shape-rendering="auto" vector-effect="non-scaling-stroke" style="stroke: transparent; fill: transparent; size: 4px; stroke-width: 1; stroke-linecap: round; stroke-linejoin: round;"></line><text dx="0" dy="11.969999999999999" x="418.69647418354316" y="286"><tspan x="418.69647418354316" dx="0" text-anchor="middle" style="fill: rgb(153, 153, 153); font-size: 14px; font-family: inherit; stroke: transparent; letter-spacing: normal; padding: 8px; stroke-width: 0;">2020</tspan></text></g><g role="presentation"><line x1="531.4813674511951" x2="531.4813674511951" y1="274" y2="34" role="presentation" shape-rendering="auto" vector-effect="non-scaling-stroke" style="stroke: transparent; fill: transparent; stroke-width: 1; stroke-linecap: round; stroke-linejoin: round; pointer-events: none;"></line><line x1="531.4813674511951" x2="531.4813674511951" y1="274" y2="278" role="presentation" shape-rendering="auto" vector-effect="non-scaling-stroke" style="stroke: transparent; fill: transparent; size: 4px; stroke-width: 1; stroke-linecap: round; stroke-linejoin: round;"></line><text dx="0" dy="11.969999999999999" x="531.4813674511951" y="286"><tspan x="531.4813674511951" dx="0" text-anchor="middle" style="fill: rgb(153, 153, 153); font-size: 14px; font-family: inherit; stroke: transparent; letter-spacing: normal; padding: 8px; stroke-width: 0;">2021</tspan></text></g></g><g role="presentation"><line x1="578" x2="578" y1="34" y2="274" role="presentation" shape-rendering="auto" vector-effect="non-scaling-stroke" style="stroke: transparent; fill: transparent; stroke-width: 1; stroke-linejoin: round;"></line><g role="presentation"><line x1="578" x2="15" y1="274" y2="274" role="presentation" shape-rendering="auto" vector-effect="non-scaling-stroke" style="stroke: rgb(226, 226, 226); fill: transparent; stroke-width: 1; stroke-linecap: round; stroke-linejoin: round; pointer-events: none;"></line><line x1="578" x2="582" y1="274" y2="274" role="presentation" shape-rendering="auto" vector-effect="non-scaling-stroke" style="stroke: transparent; fill: transparent; size: 4px; stroke-width: 1; stroke-linecap: round; stroke-linejoin: round;"></line><text dx="0" dy="4.97" x="590" y="274"><tspan x="590" dx="0" text-anchor="start" style="fill: rgb(153, 153, 153); font-size: 14px; font-family: inherit; stroke: transparent; letter-spacing: normal; padding: 8px; stroke-width: 0;">$100K</tspan></text></g><g role="presentation"><line x1="578" x2="15" y1="214" y2="214" role="presentation" shape-rendering="auto" vector-effect="non-scaling-stroke" style="stroke: rgb(226, 226, 226); fill: transparent; stroke-width: 1; stroke-linecap: round; stroke-linejoin: round; pointer-events: none;"></line><line x1="578" x2="582" y1="214" y2="214" role="presentation" shape-rendering="auto" vector-effect="non-scaling-stroke" style="stroke: transparent; fill: transparent; size: 4px; stroke-width: 1; stroke-linecap: round; stroke-linejoin: round;"></line><text dx="0" dy="4.97" x="590" y="214"><tspan x="590" dx="0" text-anchor="start" style="fill: rgb(153, 153, 153); font-size: 14px; font-family: inherit; stroke: transparent; letter-spacing: normal; padding: 8px; stroke-width: 0;">$150K</tspan></text></g><g role="presentation"><line x1="578" x2="15" y1="154" y2="154" role="presentation" shape-rendering="auto" vector-effect="non-scaling-stroke" style="stroke: rgb(226, 226, 226); fill: transparent; stroke-width: 1; stroke-linecap: round; stroke-linejoin: round; pointer-events: none;"></line><line x1="578" x2="582" y1="154" y2="154" role="presentation" shape-rendering="auto" vector-effect="non-scaling-stroke" style="stroke: transparent; fill: transparent; size: 4px; stroke-width: 1; stroke-linecap: round; stroke-linejoin: round;"></line><text dx="0" dy="4.97" x="590" y="154"><tspan x="590" dx="0" text-anchor="start" style="fill: rgb(153, 153, 153); font-size: 14px; font-family: inherit; stroke: transparent; letter-spacing: normal; padding: 8px; stroke-width: 0;">$200K</tspan></text></g><g role="presentation"><line x1="578" x2="15" y1="94" y2="94" role="presentation" shape-rendering="auto" vector-effect="non-scaling-stroke" style="stroke: rgb(226, 226, 226); fill: transparent; stroke-width: 1; stroke-linecap: round; stroke-linejoin: round; pointer-events: none;"></line><line x1="578" x2="582" y1="94" y2="94" role="presentation" shape-rendering="auto" vector-effect="non-scaling-stroke" style="stroke: transparent; fill: transparent; size: 4px; stroke-width: 1; stroke-linecap: round; stroke-linejoin: round;"></line><text dx="0" dy="4.97" x="590" y="94"><tspan x="590" dx="0" text-anchor="start" style="fill: rgb(153, 153, 153); font-size: 14px; font-family: inherit; stroke: transparent; letter-spacing: normal; padding: 8px; stroke-width: 0;">$250K</tspan></text></g><g role="presentation"><line x1="578" x2="15" y1="34" y2="34" role="presentation" shape-rendering="auto" vector-effect="non-scaling-stroke" style="stroke: rgb(226, 226, 226); fill: transparent; stroke-width: 1; stroke-linecap: round; stroke-linejoin: round; pointer-events: none;"></line><line x1="578" x2="582" y1="34" y2="34" role="presentation" shape-rendering="auto" vector-effect="non-scaling-stroke" style="stroke: transparent; fill: transparent; size: 4px; stroke-width: 1; stroke-linecap: round; stroke-linejoin: round;"></line><text dx="0" dy="4.97" x="590" y="34"><tspan x="590" dx="0" text-anchor="start" style="fill: rgb(153, 153, 153); font-size: 14px; font-family: inherit; stroke: transparent; letter-spacing: normal; padding: 8px; stroke-width: 0;">$300K</tspan></text></g></g><g style="height: 100%; width: 100%; user-select: none;"><defs><clipPath id="victory-clip-5"><rect x="15" y="34" width="563" height="240"></rect></clipPath></defs><g clip-path="url(#victory-clip-5)"><path shape-rendering="auto" role="presentation" d="M15.30815544608648,142C18.389709906951285,176.65,21.471264367816094,211.3,24.5528188286809,211.3C27.73709177157453,211.3,30.921364714468165,160.3,34.1056376573618,160.3C37.28991060025543,160.3,40.47418354314906,202,43.658456486042695,202C46.7400109469075,202,49.821565407772304,191.16129032258064,52.90311986863711,190C56.08739281153075,188.79999999999998,59.271665754424376,189.4,62.45593869731801,188.2C65.54177309493402,187.03709677419354,68.62760749255003,144.88,71.71344189016602,144.88C74.89771483305965,144.88,78.0819877759533,185.2,81.26626071884692,185.2C84.45053366174056,185.2,87.63480660463419,178,90.81907954752783,178C93.69519704433499,178,96.57131454114213,182.01549451416994,99.44743203794928,185.2C102.62742504409171,188.72096365471984,105.80741805023415,195.31367579934684,108.98741105637657,198.64C112.06896551724138,201.86335588757774,115.15051997810617,205.06,118.23207443897098,205.06C121.41634738186463,205.06,124.60062032475825,200.84,127.7848932676519,192.39999999999998C130.8664477285167,184.2322580645161,133.9480021893815,150.39999999999998,137.02955665024632,150.39999999999998C140.21382959313993,150.39999999999998,143.39810253603358,155.4,146.5823754789272,159.7C149.76664842182083,164,152.95092136471445,170.65934426229506,156.1351943076081,176.2C159.2167487684729,181.56192490745636,162.2983032293377,192.39999999999998,165.37985769020253,192.39999999999998C168.56413063309614,192.39999999999998,171.74840357598978,127,174.9326765188834,127C178.0185109164994,127,181.10434531411542,136.66,184.19017971173142,136.66C187.37445265462506,136.66,190.55872559751867,88,193.74299854041232,88C196.92727148330596,88,200.1115444261996,174.1,203.29581736909324,174.1C206.1719348659004,174.1,209.04805236270755,116.07999999999998,211.9241698595147,116.07999999999998C215.10416286565712,116.07999999999998,218.28415587179956,174.7,221.46414887794197,174.7C224.5457033388068,174.7,227.62725779967158,130,230.7088122605364,130C233.89308520343002,130,237.07735814632366,155.01999999999998,240.26163108921727,155.01999999999998C243.3431855500821,155.01999999999998,246.4247400109469,137.68,249.5062944718117,137.68C252.69056741470536,137.68,255.874840357599,182.8,259.05911330049264,182.8C262.2433862433863,182.8,265.42765918627987,180.6,268.6119321291735,176.2C271.69348659003833,171.94193548387094,274.7750410509031,140.79999999999998,277.8565955117679,140.79999999999998C281.04086845466156,140.79999999999998,284.22514139755515,199,287.4094143404488,199C290.4952487380648,199,293.58108313568084,161.2,296.66691753329684,161.2C299.8511904761905,161.2,303.03546341908407,169.6,306.2197363619777,169.6C309.40400930487135,169.6,312.588282247765,106,315.77255519065864,106C318.6486726874658,106,321.52479018427294,107.20000000000002,324.4009076810801,107.20000000000002C327.58090068722254,107.20000000000002,330.76089369336495,106.6,333.94088669950736,106.6C337.0224411603722,106.6,340.10399562123695,168.4,343.18555008210177,168.4C346.3698230249954,168.4,349.55409596788905,115,352.7383689107827,115C355.8199233716475,115,358.9014778325123,134.8,361.9830322933771,134.8C365.16730523627075,134.8,368.35157817916433,132.25,371.535851122058,128.8C374.7201240649516,125.35000000000001,377.90439700784526,114.1,381.0886699507389,114.1C384.1702244116037,114.1,387.2517788724685,179.8,390.3333333333333,179.8C393.51760627622696,179.8,396.7018792191206,108.4,399.88615216201424,108.4C402.97198655963024,108.4,406.0578209572463,124,409.1436553548623,124C412.32792829775593,124,415.5122012406495,100,418.69647418354316,100C421.8807471264368,100,425.0650200693304,173.2,428.24929301222403,173.2C431.22812899106003,173.2,434.206964969896,137.53566154154083,437.185800948732,126.4C440.3657939548744,114.51236131413101,443.54578696101686,106,446.72577996715927,106C449.8073344280241,106,452.8888888888889,161.5192,455.97044334975374,161.5192C459.1547162926473,161.5192,462.33898923554096,143.94096174863384,465.52326217843455,136.6C468.6048166392994,129.4958434690639,471.6863711001642,128.62505552617665,474.767925561029,118C477.95219850392266,107.02077595628415,481.1364714468163,70.88740000000001,484.32074438970994,70.88740000000001C487.50501733260353,70.88740000000001,490.68929027549717,74.76383606557384,493.87356321839076,80.79999999999998C496.9551176792556,86.64144896879957,500.0366721401204,97.16499206768898,503.1182266009852,106C506.3024995438788,115.12950819672126,509.48677248677245,134.782,512.671045429666,134.782C515.7568798272821,134.782,518.8427142248981,108.34,521.9285486225142,108.34C525.1128215654078,108.34,528.2970945083015,154,531.4813674511951,154C534.6656403940887,154,537.8499133369824,119.19999999999999,541.0341862798759,119.19999999999999C543.9103037766831,119.19999999999999,546.7864212734902,124,549.6625387702974,124C552.8425317764398,124,556.0225247825822,106,559.2025177887247,106C562.2840722495895,106,565.3656267104543,135.529,568.4471811713191,135.529C571.6314541142127,135.529,574.8157270571064,132.8245,578,130.12" style="fill: transparent; stroke: rgb(51, 51, 51); stroke-width: 2; opacity: 1;"></path></g></g></svg>