<svg xmlns="http://www.w3.org/2000/svg" width="640" height="324" role="img" aria-labelledby="victory-container-1-title victory-container-1-desc" viewBox="0 0 640 324" style="pointer-events: all; width: 100%; height: 100%;"><g role="presentation"><line x1="15" x2="578" y1="274" y2="274" role="presentation" shape-rendering="auto" vector-effect="non-scaling-stroke" style="stroke: rgb(226, 226, 226); fill: transparent; stroke-width: 1; stroke-linejoin: round;"></line><g role="presentation"><line x1="81.26626071884692" x2="81.26626071884692" y1="274" y2="34" role="presentation" shape-rendering="auto" vector-effect="non-scaling-stroke" style="stroke: transparent; fill: transparent; stroke-width: 1; stroke-linecap: round; stroke-linejoin: round; pointer-events: none;"></line><line x1="81.26626071884692" x2="81.26626071884692" y1="274" y2="278" role="presentation" shape-rendering="auto" vector-effect="non-scaling-stroke" style="stroke: transparent; fill: transparent; size: 4px; stroke-width: 1; stroke-linecap: round; stroke-linejoin: round;"></line><text dx="0" dy="11.969999999999999" x="81.26626071884692" y="286"><tspan x="81.26626071884692" dx="0" text-anchor="middle" style="fill: rgb(153, 153, 153); font-size: 14px; font-family: inherit; stroke: transparent; letter-spacing: normal; padding: 8px; stroke-width: 0;">2017</tspan></text></g><g role="presentation"><line x1="193.74299854041232" x2="193.74299854041232" y1="274" y2="34" role="presentation" shape-rendering="auto" vector-effect="non-scaling-stroke" style="stroke: transparent; fill: transparent; stroke-width: 1; stroke-linecap: round; stroke-linejoin: round; pointer-events: none;"></line><line x1="193.74299854041232" x2="193.74299854041232" y1="274" y2="278" role="presentation" shape-rendering="auto" vector-effect="non-scaling-stroke" style="stroke: transparent; fill: transparent; size: 4px; stroke-width: 1; stroke-linecap: round; stroke-linejoin: round;"></line><text dx="0" dy="11.969999999999999" x="193.74299854041232" y="286"><tspan x="193.74299854041232" dx="0" text-anchor="middle" style="fill: rgb(153, 153, 153); font-size: 14px; font-family: inherit; stroke: transparent; letter-spacing: normal; padding: 8px; stroke-width: 0;">2018</tspan></text></g><g role="presentation"><line x1="306.2197363619777" x2="306.2197363619777" y1="274" y2="34" role="presentation" shape-rendering="auto" vector-effect="non-scaling-stroke" style="stroke: transparent; fill: transparent; stroke-width: 1; stroke-linecap: round; stroke-linejoin: round; pointer-events: none;"></line><line x1="306.2197363619777" x2="306.2197363619777" y1="274" y2="278" role="presentation" shape-rendering="auto" vector-effect="non-scaling-stroke" style="stroke: transparent; fill: transparent; size: 4px; stroke-width: 1; stroke-linecap: round; stroke-linejoin: round;"></line><text dx="0" dy="11.969999999999999" x="306.2197363619777" y="286"><tspan x="306.2197363619777" dx="0" text-anchor="middle" style="fill: rgb(153, 153, 153); font-size: 14px; font-family: inherit; stroke: transparent; letter-spacing: normal; padding: 8px; stroke-width: 0;">2019</tspan></text></g><g role="presentation"><line x1="418.69647418354316" x2="418.69647418354316" y1="274" y2="34" role="presentation" shape-rendering="auto" vector-effect="non-scaling-stroke" style="stroke: transparent; fill: transparent; stroke-width: 1; stroke-linecap: round; stroke-linejoin: round; pointer-events: none;"></line><line x1="418.69647418354316" x2="418.69647418354316" y1="274" y2="278" role="presentation" shape-rendering="auto" vector-effect="non-scaling-stroke" style="stroke: transparent; fill: transparent; size: 4px; stroke-width: 1; stroke-linecap: round; stroke-linejoin: round;"></line><text dx="0" dy="11.969999999999999" x="418.69647418354316" y="286"><tspan x="418.69647418354316" dx="0" text-anchor="middle" style="fill: rgb(153, 153, 153); font-size: 14px; font-family: inherit; stroke: transparent; letter-spacing: normal; padding: 8px; stroke-width: 0;">2020</tspan></text></g><g role="presentation"><line x1="531.4813674511951" x2="531.4813674511951" y1="274" y2="34" role="presentation" shape-rendering="auto" vector-effect="non-scaling-stroke" style="stroke: transparent; fill: transparent; stroke-width: 1; stroke-linecap: round; stroke-linejoin: round; pointer-events: none;"></line><line x1="531.4813674511951" x2="531.4813674511951" y1="274" y2="278" role="presentation" shape-rendering="auto" vector-effect="non-scaling-stroke" style="stroke: transparent; fill: transparent; size: 4px; stroke-width: 1; stroke-linecap: round; stroke-linejoin: round;"></line><text dx="0" dy="11.969999999999999" x="531.4813674511951" y="286"><tspan x="531.4813674511951" dx="0" text-anchor="middle" style="fill: rgb(153, 153, 153); font-size: 14px; font-family: inherit; stroke: transparent; letter-spacing: normal; padding: 8px; stroke-width: 0;">2021</tspan></text></g></g><g role="presentation"><line x1="578" x2="578" y1="34" y2="274" role="presentation" shape-rendering="auto" vector-effect="non-scaling-stroke" style="stroke: transparent; fill: transparent; stroke-width: 1; stroke-linejoin: round;"></line><g role="presentation"><line x1="578" x2="15" y1="274" y2="274" role="presentation" shape-rendering="auto" vector-effect="non-scaling-stroke" style="stroke: rgb(226, 226, 226); fill: transparent; stroke-width: 1; stroke-linecap: round; stroke-linejoin: round; pointer-events: none;"></line><line x1="578" x2="582" y1="274" y2="274" role="presentation" shape-rendering="auto" vector-effect="non-scaling-stroke" style="stroke: transparent; fill: transparent; size: 4px; stroke-width: 1; stroke-linecap: round; stroke-linejoin: round;"></line><text dx="0" dy="4.97" x="590" y="274"><tspan x="590" dx="0" text-anchor="start" style="fill: rgb(153, 153, 153); font-size: 14px; font-family: inherit; stroke: transparent; letter-spacing: normal; padding: 8px; stroke-width: 0;">$200K</tspan></text></g><g role="presentation"><line x1="578" x2="15" y1="214" y2="214" role="presentation" shape-rendering="auto" vector-effect="non-scaling-stroke" style="stroke: rgb(226, 226, 226); fill: transparent; stroke-width: 1; stroke-linecap: round; stroke-linejoin: round; pointer-events: none;"></line><line x1="578" x2="582" y1="214" y2="214" role="presentation" shape-rendering="auto" vector-effect="non-scaling-stroke" style="stroke: transparent; fill: transparent; size: 4px; stroke-width: 1; stroke-linecap: round; stroke-linejoin: round;"></line><text dx="0" dy="4.97" x="590" y="214"><tspan x="590" dx="0" text-anchor="start" style="fill: rgb(153, 153, 153); font-size: 14px; font-family: inherit; stroke: transparent; letter-spacing: normal; padding: 8px; stroke-width: 0;">$250K</tspan></text></g><g role="presentation"><line x1="578" x2="15" y1="154" y2="154" role="presentation" shape-rendering="auto" vector-effect="non-scaling-stroke" style="stroke: rgb(226, 226, 226); fill: transparent; stroke-width: 1; stroke-linecap: round; stroke-linejoin: round; pointer-events: none;"></line><line x1="578" x2="582" y1="154" y2="154" role="presentation" shape-rendering="auto" vector-effect="non-scaling-stroke" style="stroke: transparent; fill: transparent; size: 4px; stroke-width: 1; stroke-linecap: round; stroke-linejoin: round;"></line><text dx="0" dy="4.97" x="590" y="154"><tspan x="590" dx="0" text-anchor="start" style="fill: rgb(153, 153, 153); font-size: 14px; font-family: inherit; stroke: transparent; letter-spacing: normal; padding: 8px; stroke-width: 0;">$300K</tspan></text></g><g role="presentation"><line x1="578" x2="15" y1="94" y2="94" role="presentation" shape-rendering="auto" vector-effect="non-scaling-stroke" style="stroke: rgb(226, 226, 226); fill: transparent; stroke-width: 1; stroke-linecap: round; stroke-linejoin: round; pointer-events: none;"></line><line x1="578" x2="582" y1="94" y2="94" role="presentation" shape-rendering="auto" vector-effect="non-scaling-stroke" style="stroke: transparent; fill: transparent; size: 4px; stroke-width: 1; stroke-linecap: round; stroke-linejoin: round;"></line><text dx="0" dy="4.97" x="590" y="94"><tspan x="590" dx="0" text-anchor="start" style="fill: rgb(153, 153, 153); font-size: 14px; font-family: inherit; stroke: transparent; letter-spacing: normal; padding: 8px; stroke-width: 0;">$350K</tspan></text></g><g role="presentation"><line x1="578" x2="15" y1="34" y2="34" role="presentation" shape-rendering="auto" vector-effect="non-scaling-stroke" style="stroke: rgb(226, 226, 226); fill: transparent; stroke-width: 1; stroke-linecap: round; stroke-linejoin: round; pointer-events: none;"></line><line x1="578" x2="582" y1="34" y2="34" role="presentation" shape-rendering="auto" vector-effect="non-scaling-stroke" style="stroke: transparent; fill: transparent; size: 4px; stroke-width: 1; stroke-linecap: round; stroke-linejoin: round;"></line><text dx="0" dy="4.97" x="590" y="34"><tspan x="590" dx="0" text-anchor="start" style="fill: rgb(153, 153, 153); font-size: 14px; font-family: inherit; stroke: transparent; letter-spacing: normal; padding: 8px; stroke-width: 0;">$400K</tspan></text></g></g><g style="height: 100%; width: 100%; user-select: none;"><defs><clipPath id="victory-clip-2"><rect x="15" y="34" width="563" height="240"></rect></clipPath></defs><g clip-path="url(#victory-clip-2)"><path shape-rendering="auto" role="presentation" d="M15.30815544608648,145.6C18.389709906951285,155.82999999999998,21.471264367816094,166.06,24.5528188286809,166.06C27.73709177157453,166.06,30.921364714468165,166.06,34.1056376573618,166.06C37.28991060025543,166.06,40.47418354314906,184.78666666666663,43.658456486042695,185.2C46.7400109469075,185.6,49.821565407772304,185.4,52.90311986863711,185.8C56.08739281153075,186.21333333333337,59.271665754424376,211.72,62.45593869731801,211.72C65.54177309493402,211.72,68.62760749255003,142.3,71.71344189016602,142.3C74.89771483305965,142.3,78.0819877759533,151.6,81.26626071884692,151.6C84.45053366174056,151.6,87.63480660463419,144.39999999999998,90.81907954752783,144.39999999999998C93.69519704433499,144.39999999999998,96.57131454114213,178,99.44743203794928,178C102.62742504409171,178,105.80741805023415,178,108.98741105637657,178C112.06896551724138,178,115.15051997810617,136,118.23207443897098,136C121.41634738186463,136,124.60062032475825,154,127.7848932676519,154C130.8664477285167,154,133.9480021893815,142,137.02955665024632,142C140.21382959313993,142,143.39810253603358,166,146.5823754789272,166C149.76664842182083,166,152.95092136471445,148.60000000000002,156.1351943076081,148.60000000000002C159.2167487684729,148.60000000000002,162.2983032293377,154.906,165.37985769020253,154.906C168.56413063309614,154.906,171.74840357598978,107.80000000000001,174.9326765188834,107.80000000000001C178.0185109164994,107.80000000000001,181.10434531411542,154.3709677419355,184.19017971173142,166C187.37445265462506,178,190.55872559751867,177.9994,193.74299854041232,184C196.92727148330596,190.00060000000002,200.1115444261996,202.0036,203.29581736909324,202.0036C206.1719348659004,202.0036,209.04805236270755,174.70705701629817,211.9241698595147,166C215.10416286565712,156.3730009477537,218.28415587179956,155.62456804891013,221.46414887794197,149.2C224.5457033388068,142.9743082163993,227.62725779967158,139.0868323638287,230.7088122605364,128.2C233.89308520343002,116.95027322404371,237.07735814632366,82,240.26163108921727,82C243.3431855500821,82,246.4247400109469,123.66622580645164,249.5062944718117,128.50300000000001C252.69056741470536,133.501,255.874840357599,131.002,259.05911330049264,136C262.2433862433863,140.99799999999996,265.42765918627987,167.71999999999997,268.6119321291735,170.2C271.69348659003833,172.6,274.7750410509031,171.57197250132205,277.8565955117679,173.8C281.04086845466156,176.1022950819672,284.22514139755515,178.13219074380012,287.4094143404488,184C290.4952487380648,189.6864119270432,293.58108313568084,208.012,296.66691753329684,208.012C299.8511904761905,208.012,303.03546341908407,161.8,306.2197363619777,161.8C309.40400930487135,161.8,312.588282247765,162.39999999999998,315.77255519065864,162.39999999999998C318.6486726874658,162.39999999999998,321.52479018427294,159.6,324.4009076810801,154C327.58090068722254,147.80833333333342,330.76089369336495,112,333.94088669950736,112C337.0224411603722,112,340.10399562123695,112,343.18555008210177,112C346.3698230249954,112,349.55409596788905,169.003,352.7383689107827,169.003C355.8199233716475,169.003,358.9014778325123,165.242,361.9830322933771,157.72C365.16730523627075,149.94726666666668,368.35157817916433,74.5,371.535851122058,74.5C374.7201240649516,74.5,377.90439700784526,166.06,381.0886699507389,166.06C384.1702244116037,166.06,387.2517788724685,136.2612903225806,390.3333333333333,129.1C393.51760627622696,121.7,396.7018792191206,118,399.88615216201424,118C402.97198655963024,118,406.0578209572463,194.809,409.1436553548623,194.809C412.32792829775593,194.809,415.5122012406495,112.612,418.69647418354316,112.612C421.8807471264368,112.612,425.0650200693304,172,428.24929301222403,172C431.22812899106003,172,434.206964969896,155.63274140764346,437.185800948732,148.06C440.3657939548744,139.97588093982893,443.54578696101686,125.19999999999999,446.72577996715927,125.19999999999999C449.8073344280241,125.19999999999999,452.8888888888889,180.39999999999998,455.97044334975374,180.39999999999998C459.1547162926473,180.39999999999998,462.33898923554096,161.7316393442621,465.52326217843455,146.2C468.6048166392994,131.16938127974612,471.6863711001642,89.5,474.767925561029,89.5C477.95219850392266,89.5,481.1364714468163,172,484.32074438970994,172C487.50501733260353,172,490.68929027549717,132.26666666666654,493.87356321839076,124C496.9551176792556,116,500.0366721401204,116.69804336329989,503.1182266009852,112C506.3024995438788,107.14535519125685,509.48677248677245,95.19999999999999,512.671045429666,95.19999999999999C515.7568798272821,95.19999999999999,518.8427142248981,156.6052,521.9285486225142,156.6052C525.1128215654078,156.6052,528.2970945083015,138.71200000000002,531.4813674511951,138.71200000000002C534.6656403940887,138.71200000000002,537.8499133369824,160,541.0341862798759,160C543.9103037766831,160,546.7864212734902,108.4352473755047,549.6625387702974,94C552.8425317764398,78.0396,556.0225247825822,75.34928443665981,559.2025177887247,70.05939999999998C562.2840722495895,64.93326703311558,565.3656267104543,62.25999999999999,568.4471811713191,62.25999999999999C571.6314541142127,62.25999999999999,574.8157270571064,74.1322,578,86.0044" style="fill: transparent; stroke: rgb(51, 51, 51); stroke-width: 2; opacity: 1;"></path></g></g></svg>