<svg xmlns="http://www.w3.org/2000/svg" width="640" height="324" role="img" aria-labelledby="victory-container-4-title victory-container-4-desc" viewBox="0 0 640 324" style="pointer-events: all; width: 100%; height: 100%;"><g role="presentation"><line x1="15" x2="578" y1="274" y2="274" role="presentation" shape-rendering="auto" vector-effect="non-scaling-stroke" style="stroke: rgb(226, 226, 226); fill: transparent; stroke-width: 1; stroke-linejoin: round;"></line><g role="presentation"><line x1="81.26626071884692" x2="81.26626071884692" y1="274" y2="34" role="presentation" shape-rendering="auto" vector-effect="non-scaling-stroke" style="stroke: transparent; fill: transparent; stroke-width: 1; stroke-linecap: round; stroke-linejoin: round; pointer-events: none;"></line><line x1="81.26626071884692" x2="81.26626071884692" y1="274" y2="278" role="presentation" shape-rendering="auto" vector-effect="non-scaling-stroke" style="stroke: transparent; fill: transparent; size: 4px; stroke-width: 1; stroke-linecap: round; stroke-linejoin: round;"></line><text dx="0" dy="11.969999999999999" x="81.26626071884692" y="286"><tspan x="81.26626071884692" dx="0" text-anchor="middle" style="fill: rgb(153, 153, 153); font-size: 14px; font-family: inherit; stroke: transparent; letter-spacing: normal; padding: 8px; stroke-width: 0;">2017</tspan></text></g><g role="presentation"><line x1="193.74299854041232" x2="193.74299854041232" y1="274" y2="34" role="presentation" shape-rendering="auto" vector-effect="non-scaling-stroke" style="stroke: transparent; fill: transparent; stroke-width: 1; stroke-linecap: round; stroke-linejoin: round; pointer-events: none;"></line><line x1="193.74299854041232" x2="193.74299854041232" y1="274" y2="278" role="presentation" shape-rendering="auto" vector-effect="non-scaling-stroke" style="stroke: transparent; fill: transparent; size: 4px; stroke-width: 1; stroke-linecap: round; stroke-linejoin: round;"></line><text dx="0" dy="11.969999999999999" x="193.74299854041232" y="286"><tspan x="193.74299854041232" dx="0" text-anchor="middle" style="fill: rgb(153, 153, 153); font-size: 14px; font-family: inherit; stroke: transparent; letter-spacing: normal; padding: 8px; stroke-width: 0;">2018</tspan></text></g><g role="presentation"><line x1="306.2197363619777" x2="306.2197363619777" y1="274" y2="34" role="presentation" shape-rendering="auto" vector-effect="non-scaling-stroke" style="stroke: transparent; fill: transparent; stroke-width: 1; stroke-linecap: round; stroke-linejoin: round; pointer-events: none;"></line><line x1="306.2197363619777" x2="306.2197363619777" y1="274" y2="278" role="presentation" shape-rendering="auto" vector-effect="non-scaling-stroke" style="stroke: transparent; fill: transparent; size: 4px; stroke-width: 1; stroke-linecap: round; stroke-linejoin: round;"></line><text dx="0" dy="11.969999999999999" x="306.2197363619777" y="286"><tspan x="306.2197363619777" dx="0" text-anchor="middle" style="fill: rgb(153, 153, 153); font-size: 14px; font-family: inherit; stroke: transparent; letter-spacing: normal; padding: 8px; stroke-width: 0;">2019</tspan></text></g><g role="presentation"><line x1="418.69647418354316" x2="418.69647418354316" y1="274" y2="34" role="presentation" shape-rendering="auto" vector-effect="non-scaling-stroke" style="stroke: transparent; fill: transparent; stroke-width: 1; stroke-linecap: round; stroke-linejoin: round; pointer-events: none;"></line><line x1="418.69647418354316" x2="418.69647418354316" y1="274" y2="278" role="presentation" shape-rendering="auto" vector-effect="non-scaling-stroke" style="stroke: transparent; fill: transparent; size: 4px; stroke-width: 1; stroke-linecap: round; stroke-linejoin: round;"></line><text dx="0" dy="11.969999999999999" x="418.69647418354316" y="286"><tspan x="418.69647418354316" dx="0" text-anchor="middle" style="fill: rgb(153, 153, 153); font-size: 14px; font-family: inherit; stroke: transparent; letter-spacing: normal; padding: 8px; stroke-width: 0;">2020</tspan></text></g><g role="presentation"><line x1="531.4813674511951" x2="531.4813674511951" y1="274" y2="34" role="presentation" shape-rendering="auto" vector-effect="non-scaling-stroke" style="stroke: transparent; fill: transparent; stroke-width: 1; stroke-linecap: round; stroke-linejoin: round; pointer-events: none;"></line><line x1="531.4813674511951" x2="531.4813674511951" y1="274" y2="278" role="presentation" shape-rendering="auto" vector-effect="non-scaling-stroke" style="stroke: transparent; fill: transparent; size: 4px; stroke-width: 1; stroke-linecap: round; stroke-linejoin: round;"></line><text dx="0" dy="11.969999999999999" x="531.4813674511951" y="286"><tspan x="531.4813674511951" dx="0" text-anchor="middle" style="fill: rgb(153, 153, 153); font-size: 14px; font-family: inherit; stroke: transparent; letter-spacing: normal; padding: 8px; stroke-width: 0;">2021</tspan></text></g></g><g role="presentation"><line x1="578" x2="578" y1="34" y2="274" role="presentation" shape-rendering="auto" vector-effect="non-scaling-stroke" style="stroke: transparent; fill: transparent; stroke-width: 1; stroke-linejoin: round;"></line><g role="presentation"><line x1="578" x2="15" y1="274" y2="274" role="presentation" shape-rendering="auto" vector-effect="non-scaling-stroke" style="stroke: rgb(226, 226, 226); fill: transparent; stroke-width: 1; stroke-linecap: round; stroke-linejoin: round; pointer-events: none;"></line><line x1="578" x2="582" y1="274" y2="274" role="presentation" shape-rendering="auto" vector-effect="non-scaling-stroke" style="stroke: transparent; fill: transparent; size: 4px; stroke-width: 1; stroke-linecap: round; stroke-linejoin: round;"></line><text dx="0" dy="4.97" x="590" y="274"><tspan x="590" dx="0" text-anchor="start" style="fill: rgb(153, 153, 153); font-size: 14px; font-family: inherit; stroke: transparent; letter-spacing: normal; padding: 8px; stroke-width: 0;">$200K</tspan></text></g><g role="presentation"><line x1="578" x2="15" y1="214" y2="214" role="presentation" shape-rendering="auto" vector-effect="non-scaling-stroke" style="stroke: rgb(226, 226, 226); fill: transparent; stroke-width: 1; stroke-linecap: round; stroke-linejoin: round; pointer-events: none;"></line><line x1="578" x2="582" y1="214" y2="214" role="presentation" shape-rendering="auto" vector-effect="non-scaling-stroke" style="stroke: transparent; fill: transparent; size: 4px; stroke-width: 1; stroke-linecap: round; stroke-linejoin: round;"></line><text dx="0" dy="4.97" x="590" y="214"><tspan x="590" dx="0" text-anchor="start" style="fill: rgb(153, 153, 153); font-size: 14px; font-family: inherit; stroke: transparent; letter-spacing: normal; padding: 8px; stroke-width: 0;">$250K</tspan></text></g><g role="presentation"><line x1="578" x2="15" y1="154" y2="154" role="presentation" shape-rendering="auto" vector-effect="non-scaling-stroke" style="stroke: rgb(226, 226, 226); fill: transparent; stroke-width: 1; stroke-linecap: round; stroke-linejoin: round; pointer-events: none;"></line><line x1="578" x2="582" y1="154" y2="154" role="presentation" shape-rendering="auto" vector-effect="non-scaling-stroke" style="stroke: transparent; fill: transparent; size: 4px; stroke-width: 1; stroke-linecap: round; stroke-linejoin: round;"></line><text dx="0" dy="4.97" x="590" y="154"><tspan x="590" dx="0" text-anchor="start" style="fill: rgb(153, 153, 153); font-size: 14px; font-family: inherit; stroke: transparent; letter-spacing: normal; padding: 8px; stroke-width: 0;">$300K</tspan></text></g><g role="presentation"><line x1="578" x2="15" y1="94" y2="94" role="presentation" shape-rendering="auto" vector-effect="non-scaling-stroke" style="stroke: rgb(226, 226, 226); fill: transparent; stroke-width: 1; stroke-linecap: round; stroke-linejoin: round; pointer-events: none;"></line><line x1="578" x2="582" y1="94" y2="94" role="presentation" shape-rendering="auto" vector-effect="non-scaling-stroke" style="stroke: transparent; fill: transparent; size: 4px; stroke-width: 1; stroke-linecap: round; stroke-linejoin: round;"></line><text dx="0" dy="4.97" x="590" y="94"><tspan x="590" dx="0" text-anchor="start" style="fill: rgb(153, 153, 153); font-size: 14px; font-family: inherit; stroke: transparent; letter-spacing: normal; padding: 8px; stroke-width: 0;">$350K</tspan></text></g><g role="presentation"><line x1="578" x2="15" y1="34" y2="34" role="presentation" shape-rendering="auto" vector-effect="non-scaling-stroke" style="stroke: rgb(226, 226, 226); fill: transparent; stroke-width: 1; stroke-linecap: round; stroke-linejoin: round; pointer-events: none;"></line><line x1="578" x2="582" y1="34" y2="34" role="presentation" shape-rendering="auto" vector-effect="non-scaling-stroke" style="stroke: transparent; fill: transparent; size: 4px; stroke-width: 1; stroke-linecap: round; stroke-linejoin: round;"></line><text dx="0" dy="4.97" x="590" y="34"><tspan x="590" dx="0" text-anchor="start" style="fill: rgb(153, 153, 153); font-size: 14px; font-family: inherit; stroke: transparent; letter-spacing: normal; padding: 8px; stroke-width: 0;">$400K</tspan></text></g></g><g style="height: 100%; width: 100%; user-select: none;"><defs><clipPath id="victory-clip-5"><rect x="15" y="34" width="563" height="240"></rect></clipPath></defs><g clip-path="url(#victory-clip-5)"><path shape-rendering="auto" role="presentation" d="M24.5528188286809,241C27.73709177157453,227.56,30.921364714468165,214.12,34.1056376573618,214.12C37.28991060025543,214.12,40.47418354314906,244,43.658456486042695,244C46.7400109469075,244,49.821565407772304,202.006,52.90311986863711,202.006C56.08739281153075,202.006,59.271665754424376,243.84687933425798,62.45593869731801,248.8C65.54177309493402,253.6,68.62760749255003,256,71.71344189016602,256C74.89771483305965,256,78.0819877759533,227.8,81.26626071884692,227.8C84.45053366174056,227.8,87.63480660463419,268,90.81907954752783,268C93.69519704433499,268,96.57131454114213,254.1036761481721,99.44743203794928,248.5C102.62742504409171,242.30426878260138,105.80741805023415,233.40638888888887,108.98741105637657,233.2C112.06896551724138,233,115.15051997810617,233.1,118.23207443897098,232.9C121.41634738186463,232.69333333333336,124.60062032475825,202,127.7848932676519,202C130.8664477285167,202,133.9480021893815,228.28450555261765,137.02955665024632,238C140.21382959313993,248.03934426229506,143.39810253603358,260.8,146.5823754789272,260.8C149.76664842182083,260.8,152.95092136471445,156.4,156.1351943076081,156.4C159.2167487684729,156.4,162.2983032293377,260.8,165.37985769020253,260.8C168.56413063309614,260.8,171.74840357598978,253.46516754791648,174.9326765188834,250.12C178.0185109164994,246.87824488972072,181.10434531411542,247.08,184.19017971173142,241C187.37445265462506,234.72604715672676,190.55872559751867,196,193.74299854041232,196C196.92727148330596,196,200.1115444261996,239.82999999999998,203.29581736909324,239.82999999999998C206.1719348659004,239.82999999999998,209.04805236270755,234.6099785417727,211.9241698595147,228.4C215.10416286565712,221.53390765396267,218.28415587179956,199,221.46414887794197,199C224.5457033388068,199,227.62725779967158,217.6,230.7088122605364,217.6C233.89308520343002,217.6,237.07735814632366,216.4,240.26163108921727,214C243.3431855500821,211.6774193548387,246.4247400109469,202.84,249.5062944718117,202.84C252.69056741470536,202.84,255.874840357599,214.23999999999998,259.05911330049264,220.12C262.2433862433863,226,265.42765918627987,233.50974863387978,268.6119321291735,238.12C271.69348659003833,242.58153358011634,274.7750410509031,247.6,277.8565955117679,247.6C281.04086845466156,247.6,284.22514139755515,211.6,287.4094143404488,211.6C290.4952487380648,211.6,293.58108313568084,249.34,296.66691753329684,249.34C299.8511904761905,249.34,303.03546341908407,222.4,306.2197363619777,222.4C309.40400930487135,222.4,312.588282247765,232,315.77255519065864,232C318.6486726874658,232,321.52479018427294,214.5436,324.4009076810801,214.5436C327.58090068722254,214.5436,330.76089369336495,218.5,333.94088669950736,218.5C337.0224411603722,218.5,340.10399562123695,205.60000000000002,343.18555008210177,205.60000000000002C346.3698230249954,205.60000000000002,349.55409596788905,231.4,352.7383689107827,231.4C355.8199233716475,231.4,358.9014778325123,225.77080909571654,361.9830322933771,223C365.16730523627075,220.1368306010929,368.35157817916433,220.168,371.535851122058,214.504C374.7201240649516,208.83999999999995,377.90439700784526,168.4,381.0886699507389,168.4C384.1702244116037,168.4,387.2517788724685,202.9849870967742,390.3333333333333,207.3046C393.51760627622696,211.7682,396.7018792191206,214,399.88615216201424,214C402.97198655963024,214,406.0578209572463,214,409.1436553548623,214C412.32792829775593,214,415.5122012406495,223.249,418.69647418354316,226.849C421.8807471264368,230.44899999999998,425.0650200693304,235.6,428.24929301222403,235.6C431.22812899106003,235.6,434.206964969896,214.12,437.185800948732,214.12C440.3657939548744,214.12,443.54578696101686,214.84,446.72577996715927,214.84C449.8073344280241,214.84,452.8888888888889,183.4,455.97044334975374,183.4C459.1547162926473,183.4,462.33898923554096,200.8,465.52326217843455,200.8C468.6048166392994,200.8,471.6863711001642,185.2048651507139,474.767925561029,173.2C477.95219850392266,160.79497267759564,481.1364714468163,127,484.32074438970994,127C487.50501733260353,127,490.68929027549717,154.603,493.87356321839076,154.603C496.9551176792556,154.603,500.0366721401204,146.38,503.1182266009852,146.38C506.3024995438788,146.38,509.48677248677245,203.8,512.671045429666,203.8C515.7568798272821,203.8,518.8427142248981,166.93499834856328,521.9285486225142,154.6C525.1128215654078,141.8715134932997,528.2970945083015,129.39999999999998,531.4813674511951,129.39999999999998C534.6656403940887,129.39999999999998,537.8499133369824,202.12,541.0341862798759,202.12C543.9103037766831,202.12,546.7864212734902,158.3557456258412,549.6625387702974,154.00900000000001C552.8425317764398,149.203,556.0225247825822,151.43108302954354,559.2025177887247,146.8C562.2840722495895,142.3122748569699,565.3656267104543,127.06,568.4471811713191,127.06C571.6314541142127,127.06,574.8157270571064,143.59,578,160.12" style="fill: transparent; stroke: rgb(51, 51, 51); stroke-width: 2; opacity: 1;"></path></g></g></svg>