<svg xmlns="http://www.w3.org/2000/svg" width="640" height="324" role="img" aria-labelledby="victory-container-1-title victory-container-1-desc" viewBox="0 0 640 324" style="pointer-events: all; width: 100%; height: 100%;"><g role="presentation"><line x1="15" x2="578" y1="274" y2="274" role="presentation" shape-rendering="auto" vector-effect="non-scaling-stroke" style="stroke: rgb(226, 226, 226); fill: transparent; stroke-width: 1; stroke-linejoin: round;"></line><g role="presentation"><line x1="81.26626071884692" x2="81.26626071884692" y1="274" y2="34" role="presentation" shape-rendering="auto" vector-effect="non-scaling-stroke" style="stroke: transparent; fill: transparent; stroke-width: 1; stroke-linecap: round; stroke-linejoin: round; pointer-events: none;"></line><line x1="81.26626071884692" x2="81.26626071884692" y1="274" y2="278" role="presentation" shape-rendering="auto" vector-effect="non-scaling-stroke" style="stroke: transparent; fill: transparent; size: 4px; stroke-width: 1; stroke-linecap: round; stroke-linejoin: round;"></line><text dx="0" dy="11.969999999999999" x="81.26626071884692" y="286"><tspan x="81.26626071884692" dx="0" text-anchor="middle" style="fill: rgb(153, 153, 153); font-size: 14px; font-family: inherit; stroke: transparent; letter-spacing: normal; padding: 8px; stroke-width: 0;">2017</tspan></text></g><g role="presentation"><line x1="193.74299854041232" x2="193.74299854041232" y1="274" y2="34" role="presentation" shape-rendering="auto" vector-effect="non-scaling-stroke" style="stroke: transparent; fill: transparent; stroke-width: 1; stroke-linecap: round; stroke-linejoin: round; pointer-events: none;"></line><line x1="193.74299854041232" x2="193.74299854041232" y1="274" y2="278" role="presentation" shape-rendering="auto" vector-effect="non-scaling-stroke" style="stroke: transparent; fill: transparent; size: 4px; stroke-width: 1; stroke-linecap: round; stroke-linejoin: round;"></line><text dx="0" dy="11.969999999999999" x="193.74299854041232" y="286"><tspan x="193.74299854041232" dx="0" text-anchor="middle" style="fill: rgb(153, 153, 153); font-size: 14px; font-family: inherit; stroke: transparent; letter-spacing: normal; padding: 8px; stroke-width: 0;">2018</tspan></text></g><g role="presentation"><line x1="306.2197363619777" x2="306.2197363619777" y1="274" y2="34" role="presentation" shape-rendering="auto" vector-effect="non-scaling-stroke" style="stroke: transparent; fill: transparent; stroke-width: 1; stroke-linecap: round; stroke-linejoin: round; pointer-events: none;"></line><line x1="306.2197363619777" x2="306.2197363619777" y1="274" y2="278" role="presentation" shape-rendering="auto" vector-effect="non-scaling-stroke" style="stroke: transparent; fill: transparent; size: 4px; stroke-width: 1; stroke-linecap: round; stroke-linejoin: round;"></line><text dx="0" dy="11.969999999999999" x="306.2197363619777" y="286"><tspan x="306.2197363619777" dx="0" text-anchor="middle" style="fill: rgb(153, 153, 153); font-size: 14px; font-family: inherit; stroke: transparent; letter-spacing: normal; padding: 8px; stroke-width: 0;">2019</tspan></text></g><g role="presentation"><line x1="418.69647418354316" x2="418.69647418354316" y1="274" y2="34" role="presentation" shape-rendering="auto" vector-effect="non-scaling-stroke" style="stroke: transparent; fill: transparent; stroke-width: 1; stroke-linecap: round; stroke-linejoin: round; pointer-events: none;"></line><line x1="418.69647418354316" x2="418.69647418354316" y1="274" y2="278" role="presentation" shape-rendering="auto" vector-effect="non-scaling-stroke" style="stroke: transparent; fill: transparent; size: 4px; stroke-width: 1; stroke-linecap: round; stroke-linejoin: round;"></line><text dx="0" dy="11.969999999999999" x="418.69647418354316" y="286"><tspan x="418.69647418354316" dx="0" text-anchor="middle" style="fill: rgb(153, 153, 153); font-size: 14px; font-family: inherit; stroke: transparent; letter-spacing: normal; padding: 8px; stroke-width: 0;">2020</tspan></text></g><g role="presentation"><line x1="531.4813674511951" x2="531.4813674511951" y1="274" y2="34" role="presentation" shape-rendering="auto" vector-effect="non-scaling-stroke" style="stroke: transparent; fill: transparent; stroke-width: 1; stroke-linecap: round; stroke-linejoin: round; pointer-events: none;"></line><line x1="531.4813674511951" x2="531.4813674511951" y1="274" y2="278" role="presentation" shape-rendering="auto" vector-effect="non-scaling-stroke" style="stroke: transparent; fill: transparent; size: 4px; stroke-width: 1; stroke-linecap: round; stroke-linejoin: round;"></line><text dx="0" dy="11.969999999999999" x="531.4813674511951" y="286"><tspan x="531.4813674511951" dx="0" text-anchor="middle" style="fill: rgb(153, 153, 153); font-size: 14px; font-family: inherit; stroke: transparent; letter-spacing: normal; padding: 8px; stroke-width: 0;">2021</tspan></text></g></g><g role="presentation"><line x1="578" x2="578" y1="34" y2="274" role="presentation" shape-rendering="auto" vector-effect="non-scaling-stroke" style="stroke: transparent; fill: transparent; stroke-width: 1; stroke-linejoin: round;"></line><g role="presentation"><line x1="578" x2="15" y1="274" y2="274" role="presentation" shape-rendering="auto" vector-effect="non-scaling-stroke" style="stroke: rgb(226, 226, 226); fill: transparent; stroke-width: 1; stroke-linecap: round; stroke-linejoin: round; pointer-events: none;"></line><line x1="578" x2="582" y1="274" y2="274" role="presentation" shape-rendering="auto" vector-effect="non-scaling-stroke" style="stroke: transparent; fill: transparent; size: 4px; stroke-width: 1; stroke-linecap: round; stroke-linejoin: round;"></line><text dx="0" dy="4.97" x="590" y="274"><tspan x="590" dx="0" text-anchor="start" style="fill: rgb(153, 153, 153); font-size: 14px; font-family: inherit; stroke: transparent; letter-spacing: normal; padding: 8px; stroke-width: 0;">$200K</tspan></text></g><g role="presentation"><line x1="578" x2="15" y1="234" y2="234" role="presentation" shape-rendering="auto" vector-effect="non-scaling-stroke" style="stroke: rgb(226, 226, 226); fill: transparent; stroke-width: 1; stroke-linecap: round; stroke-linejoin: round; pointer-events: none;"></line><line x1="578" x2="582" y1="234" y2="234" role="presentation" shape-rendering="auto" vector-effect="non-scaling-stroke" style="stroke: transparent; fill: transparent; size: 4px; stroke-width: 1; stroke-linecap: round; stroke-linejoin: round;"></line><text dx="0" dy="4.97" x="590" y="234"><tspan x="590" dx="0" text-anchor="start" style="fill: rgb(153, 153, 153); font-size: 14px; font-family: inherit; stroke: transparent; letter-spacing: normal; padding: 8px; stroke-width: 0;">$250K</tspan></text></g><g role="presentation"><line x1="578" x2="15" y1="194" y2="194" role="presentation" shape-rendering="auto" vector-effect="non-scaling-stroke" style="stroke: rgb(226, 226, 226); fill: transparent; stroke-width: 1; stroke-linecap: round; stroke-linejoin: round; pointer-events: none;"></line><line x1="578" x2="582" y1="194" y2="194" role="presentation" shape-rendering="auto" vector-effect="non-scaling-stroke" style="stroke: transparent; fill: transparent; size: 4px; stroke-width: 1; stroke-linecap: round; stroke-linejoin: round;"></line><text dx="0" dy="4.97" x="590" y="194"><tspan x="590" dx="0" text-anchor="start" style="fill: rgb(153, 153, 153); font-size: 14px; font-family: inherit; stroke: transparent; letter-spacing: normal; padding: 8px; stroke-width: 0;">$300K</tspan></text></g><g role="presentation"><line x1="578" x2="15" y1="154" y2="154" role="presentation" shape-rendering="auto" vector-effect="non-scaling-stroke" style="stroke: rgb(226, 226, 226); fill: transparent; stroke-width: 1; stroke-linecap: round; stroke-linejoin: round; pointer-events: none;"></line><line x1="578" x2="582" y1="154" y2="154" role="presentation" shape-rendering="auto" vector-effect="non-scaling-stroke" style="stroke: transparent; fill: transparent; size: 4px; stroke-width: 1; stroke-linecap: round; stroke-linejoin: round;"></line><text dx="0" dy="4.97" x="590" y="154"><tspan x="590" dx="0" text-anchor="start" style="fill: rgb(153, 153, 153); font-size: 14px; font-family: inherit; stroke: transparent; letter-spacing: normal; padding: 8px; stroke-width: 0;">$350K</tspan></text></g><g role="presentation"><line x1="578" x2="15" y1="114" y2="114" role="presentation" shape-rendering="auto" vector-effect="non-scaling-stroke" style="stroke: rgb(226, 226, 226); fill: transparent; stroke-width: 1; stroke-linecap: round; stroke-linejoin: round; pointer-events: none;"></line><line x1="578" x2="582" y1="114" y2="114" role="presentation" shape-rendering="auto" vector-effect="non-scaling-stroke" style="stroke: transparent; fill: transparent; size: 4px; stroke-width: 1; stroke-linecap: round; stroke-linejoin: round;"></line><text dx="0" dy="4.97" x="590" y="114"><tspan x="590" dx="0" text-anchor="start" style="fill: rgb(153, 153, 153); font-size: 14px; font-family: inherit; stroke: transparent; letter-spacing: normal; padding: 8px; stroke-width: 0;">$400K</tspan></text></g><g role="presentation"><line x1="578" x2="15" y1="74" y2="74" role="presentation" shape-rendering="auto" vector-effect="non-scaling-stroke" style="stroke: rgb(226, 226, 226); fill: transparent; stroke-width: 1; stroke-linecap: round; stroke-linejoin: round; pointer-events: none;"></line><line x1="578" x2="582" y1="74" y2="74" role="presentation" shape-rendering="auto" vector-effect="non-scaling-stroke" style="stroke: transparent; fill: transparent; size: 4px; stroke-width: 1; stroke-linecap: round; stroke-linejoin: round;"></line><text dx="0" dy="4.97" x="590" y="74"><tspan x="590" dx="0" text-anchor="start" style="fill: rgb(153, 153, 153); font-size: 14px; font-family: inherit; stroke: transparent; letter-spacing: normal; padding: 8px; stroke-width: 0;">$450K</tspan></text></g><g role="presentation"><line x1="578" x2="15" y1="34" y2="34" role="presentation" shape-rendering="auto" vector-effect="non-scaling-stroke" style="stroke: rgb(226, 226, 226); fill: transparent; stroke-width: 1; stroke-linecap: round; stroke-linejoin: round; pointer-events: none;"></line><line x1="578" x2="582" y1="34" y2="34" role="presentation" shape-rendering="auto" vector-effect="non-scaling-stroke" style="stroke: transparent; fill: transparent; size: 4px; stroke-width: 1; stroke-linecap: round; stroke-linejoin: round;"></line><text dx="0" dy="4.97" x="590" y="34"><tspan x="590" dx="0" text-anchor="start" style="fill: rgb(153, 153, 153); font-size: 14px; font-family: inherit; stroke: transparent; letter-spacing: normal; padding: 8px; stroke-width: 0;">$500K</tspan></text></g></g><g style="height: 100%; width: 100%; user-select: none;"><defs><clipPath id="victory-clip-2"><rect x="15" y="34" width="563" height="240"></rect></clipPath></defs><g clip-path="url(#victory-clip-2)"><path shape-rendering="auto" role="presentation" d="M24.5528188286809,235.24C27.73709177157453,242.64,30.921364714468165,250.04,34.1056376573618,250.04C37.28991060025543,250.04,40.47418354314906,250.04,43.658456486042695,250.04C46.7400109469075,250.04,49.821565407772304,234.5688207297726,52.90311986863711,223.04C56.08739281153075,211.12688524590163,59.271665754424376,179.2,62.45593869731801,179.2C65.54177309493402,179.2,68.62760749255003,244.48,71.71344189016602,244.48C74.89771483305965,244.48,78.0819877759533,172.4,81.26626071884692,172.4C84.45053366174056,172.4,87.63480660463419,254.04,90.81907954752783,254.04C93.69519704433499,254.04,96.57131454114213,238.04,99.44743203794928,238.04C102.62742504409171,238.04,105.80741805023415,255.04,108.98741105637657,255.04C112.06896551724138,255.04,115.15051997810617,252.02666666666667,118.23207443897098,246C121.41634738186463,239.77244444444443,124.60062032475825,202,127.7848932676519,202C130.8664477285167,202,133.9480021893815,242,137.02955665024632,242C140.21382959313993,242,143.39810253603358,208,146.5823754789272,208C149.76664842182083,208,152.95092136471445,214.7293632058288,156.1351943076081,224.004C159.2167487684729,232.97945496210116,162.2983032293377,262,165.37985769020253,262C168.56413063309614,262,171.74840357598978,206,174.9326765188834,206C178.0185109164994,206,181.10434531411542,223.24,184.19017971173142,223.24C187.37445265462506,223.24,190.55872559751867,186,193.74299854041232,186C196.92727148330596,186,200.1115444261996,244.04,203.29581736909324,244.04C206.1719348659004,244.04,209.04805236270755,216.45525706594887,211.9241698595147,214C215.10416286565712,211.28533333333334,218.28415587179956,212.64266666666666,221.46414887794197,209.928C224.5457033388068,207.29736742934048,227.62725779967158,172.60000000000002,230.7088122605364,172.60000000000002C233.89308520343002,172.60000000000002,237.07735814632366,270.14,240.26163108921727,270.14C243.3431855500821,270.14,246.4247400109469,253.59783888595098,249.5062944718117,238C252.69056741470536,221.88223315118398,255.874840357599,174,259.05911330049264,174C262.2433862433863,174,265.42765918627987,247.36533333333333,268.6119321291735,248.44C271.69348659003833,249.48,274.7750410509031,248.96,277.8565955117679,250C281.04086845466156,251.07466666666667,284.22514139755515,255.2464,287.4094143404488,255.2464C290.4952487380648,255.2464,293.58108313568084,210.042,296.66691753329684,210.042C299.8511904761905,210.042,303.03546341908407,260.04,306.2197363619777,260.04C309.40400930487135,260.04,312.588282247765,243.50630669895077,315.77255519065864,237.18C318.6486726874658,231.46591652997995,321.52479018427294,230.11789409439027,324.4009076810801,223.204C327.58090068722254,215.55962007123227,330.76089369336495,192,333.94088669950736,192C337.0224411603722,192,340.10399562123695,199.43246959280805,343.18555008210177,205.2C346.3698230249954,211.15978142076503,349.55409596788905,222.38594899817852,352.7383689107827,227.46C355.8199233716475,232.3703719372466,358.9014778325123,235.6,361.9830322933771,235.6C365.16730523627075,235.6,368.35157817916433,194,371.535851122058,194C374.7201240649516,194,377.90439700784526,214.3846921675774,381.0886699507389,220.4C384.1702244116037,226.2212656442799,387.2517788724685,225.24041600564075,390.3333333333333,230.04C393.51760627622696,234.99957012750454,396.7018792191206,245.0472024072242,399.88615216201424,250C402.97198655963024,254.79968691450452,406.0578209572463,259.608,409.1436553548623,259.608C412.32792829775593,259.608,415.5122012406495,238.04,418.69647418354316,238.04C421.8807471264368,238.04,425.0650200693304,258.04,428.24929301222403,258.04C431.22812899106003,258.04,434.206964969896,248.37315638726486,437.185800948732,242C440.3657939548744,235.19647241991697,443.54578696101686,218.07999999999998,446.72577996715927,218.07999999999998C449.8073344280241,218.07999999999998,452.8888888888889,244.4,455.97044334975374,244.4C459.1547162926473,244.4,462.33898923554096,231.75825136611996,465.52326217843455,213.2C468.6048166392994,195.24040190375462,471.6863711001642,139.23870967741937,474.767925561029,136.4C477.95219850392266,133.46666666666667,481.1364714468163,134.53333333333336,484.32074438970994,132C487.50501733260353,129.46666666666667,490.68929027549717,128.4,493.87356321839076,121.19999999999999C496.9551176792556,114.23225806451602,500.0366721401204,76,503.1182266009852,76C506.3024995438788,76,509.48677248677245,247.4,512.671045429666,247.4C515.7568798272821,247.4,518.8427142248981,243.53333333333333,521.9285486225142,235.8C525.1128215654078,227.81997226074913,528.2970945083015,193.33093333333332,531.4813674511951,188C534.6656403940887,182.66906666666668,537.8499133369824,180.0036,541.0341862798759,180.0036C543.9103037766831,180.0036,546.7864212734902,213.6,549.6625387702974,213.6C552.8425317764398,213.6,556.0225247825822,183.1224,559.2025177887247,183.1224C562.2840722495895,183.1224,565.3656267104543,199.6,568.4471811713191,199.6C571.6314541142127,199.6,574.8157270571064,197.6,578,195.6" style="fill: transparent; stroke: rgb(51, 51, 51); stroke-width: 2; opacity: 1;"></path></g></g></svg>