<svg xmlns="http://www.w3.org/2000/svg" width="640" height="324" role="img" aria-labelledby="victory-container-4-title victory-container-4-desc" viewBox="0 0 640 324" style="pointer-events: all; width: 100%; height: 100%;"><g role="presentation"><line x1="15" x2="578" y1="274" y2="274" role="presentation" shape-rendering="auto" vector-effect="non-scaling-stroke" style="stroke: rgb(226, 226, 226); fill: transparent; stroke-width: 1; stroke-linejoin: round;"></line><g role="presentation"><line x1="81.26626071884692" x2="81.26626071884692" y1="274" y2="34" role="presentation" shape-rendering="auto" vector-effect="non-scaling-stroke" style="stroke: transparent; fill: transparent; stroke-width: 1; stroke-linecap: round; stroke-linejoin: round; pointer-events: none;"></line><line x1="81.26626071884692" x2="81.26626071884692" y1="274" y2="278" role="presentation" shape-rendering="auto" vector-effect="non-scaling-stroke" style="stroke: transparent; fill: transparent; size: 4px; stroke-width: 1; stroke-linecap: round; stroke-linejoin: round;"></line><text dx="0" dy="11.969999999999999" x="81.26626071884692" y="286"><tspan x="81.26626071884692" dx="0" text-anchor="middle" style="fill: rgb(153, 153, 153); font-size: 14px; font-family: inherit; stroke: transparent; letter-spacing: normal; padding: 8px; stroke-width: 0;">2017</tspan></text></g><g role="presentation"><line x1="193.74299854041232" x2="193.74299854041232" y1="274" y2="34" role="presentation" shape-rendering="auto" vector-effect="non-scaling-stroke" style="stroke: transparent; fill: transparent; stroke-width: 1; stroke-linecap: round; stroke-linejoin: round; pointer-events: none;"></line><line x1="193.74299854041232" x2="193.74299854041232" y1="274" y2="278" role="presentation" shape-rendering="auto" vector-effect="non-scaling-stroke" style="stroke: transparent; fill: transparent; size: 4px; stroke-width: 1; stroke-linecap: round; stroke-linejoin: round;"></line><text dx="0" dy="11.969999999999999" x="193.74299854041232" y="286"><tspan x="193.74299854041232" dx="0" text-anchor="middle" style="fill: rgb(153, 153, 153); font-size: 14px; font-family: inherit; stroke: transparent; letter-spacing: normal; padding: 8px; stroke-width: 0;">2018</tspan></text></g><g role="presentation"><line x1="306.2197363619777" x2="306.2197363619777" y1="274" y2="34" role="presentation" shape-rendering="auto" vector-effect="non-scaling-stroke" style="stroke: transparent; fill: transparent; stroke-width: 1; stroke-linecap: round; stroke-linejoin: round; pointer-events: none;"></line><line x1="306.2197363619777" x2="306.2197363619777" y1="274" y2="278" role="presentation" shape-rendering="auto" vector-effect="non-scaling-stroke" style="stroke: transparent; fill: transparent; size: 4px; stroke-width: 1; stroke-linecap: round; stroke-linejoin: round;"></line><text dx="0" dy="11.969999999999999" x="306.2197363619777" y="286"><tspan x="306.2197363619777" dx="0" text-anchor="middle" style="fill: rgb(153, 153, 153); font-size: 14px; font-family: inherit; stroke: transparent; letter-spacing: normal; padding: 8px; stroke-width: 0;">2019</tspan></text></g><g role="presentation"><line x1="418.69647418354316" x2="418.69647418354316" y1="274" y2="34" role="presentation" shape-rendering="auto" vector-effect="non-scaling-stroke" style="stroke: transparent; fill: transparent; stroke-width: 1; stroke-linecap: round; stroke-linejoin: round; pointer-events: none;"></line><line x1="418.69647418354316" x2="418.69647418354316" y1="274" y2="278" role="presentation" shape-rendering="auto" vector-effect="non-scaling-stroke" style="stroke: transparent; fill: transparent; size: 4px; stroke-width: 1; stroke-linecap: round; stroke-linejoin: round;"></line><text dx="0" dy="11.969999999999999" x="418.69647418354316" y="286"><tspan x="418.69647418354316" dx="0" text-anchor="middle" style="fill: rgb(153, 153, 153); font-size: 14px; font-family: inherit; stroke: transparent; letter-spacing: normal; padding: 8px; stroke-width: 0;">2020</tspan></text></g><g role="presentation"><line x1="531.4813674511951" x2="531.4813674511951" y1="274" y2="34" role="presentation" shape-rendering="auto" vector-effect="non-scaling-stroke" style="stroke: transparent; fill: transparent; stroke-width: 1; stroke-linecap: round; stroke-linejoin: round; pointer-events: none;"></line><line x1="531.4813674511951" x2="531.4813674511951" y1="274" y2="278" role="presentation" shape-rendering="auto" vector-effect="non-scaling-stroke" style="stroke: transparent; fill: transparent; size: 4px; stroke-width: 1; stroke-linecap: round; stroke-linejoin: round;"></line><text dx="0" dy="11.969999999999999" x="531.4813674511951" y="286"><tspan x="531.4813674511951" dx="0" text-anchor="middle" style="fill: rgb(153, 153, 153); font-size: 14px; font-family: inherit; stroke: transparent; letter-spacing: normal; padding: 8px; stroke-width: 0;">2021</tspan></text></g></g><g role="presentation"><line x1="578" x2="578" y1="34" y2="274" role="presentation" shape-rendering="auto" vector-effect="non-scaling-stroke" style="stroke: transparent; fill: transparent; stroke-width: 1; stroke-linejoin: round;"></line><g role="presentation"><line x1="578" x2="15" y1="274" y2="274" role="presentation" shape-rendering="auto" vector-effect="non-scaling-stroke" style="stroke: rgb(226, 226, 226); fill: transparent; stroke-width: 1; stroke-linecap: round; stroke-linejoin: round; pointer-events: none;"></line><line x1="578" x2="582" y1="274" y2="274" role="presentation" shape-rendering="auto" vector-effect="non-scaling-stroke" style="stroke: transparent; fill: transparent; size: 4px; stroke-width: 1; stroke-linecap: round; stroke-linejoin: round;"></line><text dx="0" dy="4.97" x="590" y="274"><tspan x="590" dx="0" text-anchor="start" style="fill: rgb(153, 153, 153); font-size: 14px; font-family: inherit; stroke: transparent; letter-spacing: normal; padding: 8px; stroke-width: 0;">$100K</tspan></text></g><g role="presentation"><line x1="578" x2="15" y1="214" y2="214" role="presentation" shape-rendering="auto" vector-effect="non-scaling-stroke" style="stroke: rgb(226, 226, 226); fill: transparent; stroke-width: 1; stroke-linecap: round; stroke-linejoin: round; pointer-events: none;"></line><line x1="578" x2="582" y1="214" y2="214" role="presentation" shape-rendering="auto" vector-effect="non-scaling-stroke" style="stroke: transparent; fill: transparent; size: 4px; stroke-width: 1; stroke-linecap: round; stroke-linejoin: round;"></line><text dx="0" dy="4.97" x="590" y="214"><tspan x="590" dx="0" text-anchor="start" style="fill: rgb(153, 153, 153); font-size: 14px; font-family: inherit; stroke: transparent; letter-spacing: normal; padding: 8px; stroke-width: 0;">$150K</tspan></text></g><g role="presentation"><line x1="578" x2="15" y1="154" y2="154" role="presentation" shape-rendering="auto" vector-effect="non-scaling-stroke" style="stroke: rgb(226, 226, 226); fill: transparent; stroke-width: 1; stroke-linecap: round; stroke-linejoin: round; pointer-events: none;"></line><line x1="578" x2="582" y1="154" y2="154" role="presentation" shape-rendering="auto" vector-effect="non-scaling-stroke" style="stroke: transparent; fill: transparent; size: 4px; stroke-width: 1; stroke-linecap: round; stroke-linejoin: round;"></line><text dx="0" dy="4.97" x="590" y="154"><tspan x="590" dx="0" text-anchor="start" style="fill: rgb(153, 153, 153); font-size: 14px; font-family: inherit; stroke: transparent; letter-spacing: normal; padding: 8px; stroke-width: 0;">$200K</tspan></text></g><g role="presentation"><line x1="578" x2="15" y1="94" y2="94" role="presentation" shape-rendering="auto" vector-effect="non-scaling-stroke" style="stroke: rgb(226, 226, 226); fill: transparent; stroke-width: 1; stroke-linecap: round; stroke-linejoin: round; pointer-events: none;"></line><line x1="578" x2="582" y1="94" y2="94" role="presentation" shape-rendering="auto" vector-effect="non-scaling-stroke" style="stroke: transparent; fill: transparent; size: 4px; stroke-width: 1; stroke-linecap: round; stroke-linejoin: round;"></line><text dx="0" dy="4.97" x="590" y="94"><tspan x="590" dx="0" text-anchor="start" style="fill: rgb(153, 153, 153); font-size: 14px; font-family: inherit; stroke: transparent; letter-spacing: normal; padding: 8px; stroke-width: 0;">$250K</tspan></text></g><g role="presentation"><line x1="578" x2="15" y1="34" y2="34" role="presentation" shape-rendering="auto" vector-effect="non-scaling-stroke" style="stroke: rgb(226, 226, 226); fill: transparent; stroke-width: 1; stroke-linecap: round; stroke-linejoin: round; pointer-events: none;"></line><line x1="578" x2="582" y1="34" y2="34" role="presentation" shape-rendering="auto" vector-effect="non-scaling-stroke" style="stroke: transparent; fill: transparent; size: 4px; stroke-width: 1; stroke-linecap: round; stroke-linejoin: round;"></line><text dx="0" dy="4.97" x="590" y="34"><tspan x="590" dx="0" text-anchor="start" style="fill: rgb(153, 153, 153); font-size: 14px; font-family: inherit; stroke: transparent; letter-spacing: normal; padding: 8px; stroke-width: 0;">$300K</tspan></text></g></g><g style="height: 100%; width: 100%; user-select: none;"><defs><clipPath id="victory-clip-5"><rect x="15" y="34" width="563" height="240"></rect></clipPath></defs><g clip-path="url(#victory-clip-5)"><path shape-rendering="auto" role="presentation" d="M15.30815544608648,167.2C18.389709906951285,142.6,21.471264367816094,118,24.5528188286809,118C27.73709177157453,118,30.921364714468165,122.8,34.1056376573618,132.4C37.28991060025543,142,40.47418354314906,214,43.658456486042695,214C46.7400109469075,214,49.821565407772304,213.2,52.90311986863711,211.6C56.08739281153075,209.94666666666666,59.271665754424376,133.17458259054308,62.45593869731801,109.6C65.54177309493402,86.7542015486807,68.62760749255003,70.435,71.71344189016602,70.435C74.89771483305965,70.435,78.0819877759533,93.5612,81.26626071884692,100.6522C84.45053366174056,107.7432,87.63480660463419,112.981,90.81907954752783,112.981C93.69519704433499,112.981,96.57131454114213,88,99.44743203794928,88C102.62742504409171,88,105.80741805023415,167.8,108.98741105637657,167.8C112.06896551724138,167.8,115.15051997810617,157.31158117398198,118.23207443897098,144.39999999999998C121.41634738186463,131.0580327868852,124.60062032475825,88,127.7848932676519,88C130.8664477285167,88,133.9480021893815,97.06,137.02955665024632,97.06C140.21382959313993,97.06,143.39810253603358,95.244,146.5823754789272,91.612C149.76664842182083,87.97999999999998,152.95092136471445,51.400000000000006,156.1351943076081,51.400000000000006C159.2167487684729,51.400000000000006,162.2983032293377,83.74947012162876,165.37985769020253,94.012C168.56413063309614,104.61661420765022,171.74840357598978,106.06942515751255,174.9326765188834,113.19999999999999C178.0185109164994,120.11014040515248,181.10434531411542,136,184.19017971173142,136C187.37445265462506,136,190.55872559751867,106,193.74299854041232,106C196.92727148330596,106,200.1115444261996,136.096,203.29581736909324,136.096C206.1719348659004,136.096,209.04805236270755,99.67666056527591,211.9241698595147,94.606C215.10416286565712,88.9996,218.28415587179956,86.19640000000001,221.46414887794197,86.19640000000001C224.5457033388068,86.19640000000001,227.62725779967158,93.12169582231623,230.7088122605364,97.72C233.89308520343002,102.47158098360654,237.07735814632366,114.39999999999998,240.26163108921727,114.39999999999998C243.3431855500821,114.39999999999998,246.4247400109469,89.19999999999999,249.5062944718117,89.19999999999999C252.69056741470536,89.19999999999999,255.874840357599,94.11999999999998,259.05911330049264,94.11999999999998C262.2433862433863,94.11999999999998,265.42765918627987,87.38499999999999,268.6119321291735,87.38499999999999C271.69348659003833,87.38499999999999,274.7750410509031,100,277.8565955117679,100C281.04086845466156,100,284.22514139755515,97.3808928751781,287.4094143404488,96.4C290.4952487380648,95.44943042607068,293.58108313568084,94.16559999999998,296.66691753329684,94.16559999999998C299.8511904761905,94.16559999999998,303.03546341908407,104.82660000000003,306.2197363619777,112C309.40400930487135,119.17340000000002,312.588282247765,131.1255847457627,315.77255519065864,137.206C318.6486726874658,142.69798797156915,321.52479018427294,148,324.4009076810801,148C327.58090068722254,148,330.76089369336495,120.71199999999999,333.94088669950736,120.71199999999999C337.0224411603722,120.71199999999999,340.10399562123695,127.27600000000001,343.18555008210177,127.27600000000001C346.3698230249954,127.27600000000001,349.55409596788905,113.87199999999999,352.7383689107827,113.87199999999999C355.8199233716475,113.87199999999999,358.9014778325123,118,361.9830322933771,118C365.16730523627075,118,368.35157817916433,117.2,371.535851122058,115.6C374.7201240649516,113.99999999999999,377.90439700784526,103.9,381.0886699507389,103.9C384.1702244116037,103.9,387.2517788724685,129.172,390.3333333333333,129.172C393.51760627622696,129.172,396.7018792191206,88,399.88615216201424,88C402.97198655963024,88,406.0578209572463,133.60000000000002,409.1436553548623,133.60000000000002C412.32792829775593,133.60000000000002,415.5122012406495,122.56,418.69647418354316,122.56C421.8807471264368,122.56,425.0650200693304,123.04379999999999,428.24929301222403,124.01139999999998C431.22812899106003,124.91657419354836,434.206964969896,145.66899999999998,437.185800948732,145.66899999999998C440.3657939548744,145.66899999999998,443.54578696101686,115.59837312219945,446.72577996715927,106.98400000000001C449.8073344280241,98.63628984120643,452.8888888888889,94,455.97044334975374,94C459.1547162926473,94,462.33898923554096,110.79999999999998,465.52326217843455,110.79999999999998C468.6048166392994,110.79999999999998,471.6863711001642,98.80000000000001,474.767925561029,98.80000000000001C477.95219850392266,98.80000000000001,481.1364714468163,101.00000000000001,484.32074438970994,105.4C487.50501733260353,109.79999999999995,490.68929027549717,127.798,493.87356321839076,127.798C496.9551176792556,127.798,500.0366721401204,117.73174193548388,503.1182266009852,115.612C506.3024995438788,113.4216,509.48677248677245,112.3264,512.671045429666,112.3264C515.7568798272821,112.3264,518.8427142248981,119.21199999999999,521.9285486225142,119.21199999999999C525.1128215654078,119.21199999999999,528.2970945083015,118.2324,531.4813674511951,117.4306C534.6656403940887,116.6288,537.8499133369824,114.40119999999999,541.0341862798759,114.40119999999999C543.9103037766831,114.40119999999999,546.7864212734902,118.012,549.6625387702974,118.012C552.8425317764398,118.012,556.0225247825822,109.86119585137084,559.2025177887247,106.006C562.2840722495895,102.27014399328799,565.3656267104543,98.02606557377048,568.4471811713191,95.21199999999999C571.6314541142127,92.30413224043717,574.8157270571064,90.65186612021857,578,88.99959999999999" style="fill: transparent; stroke: rgb(51, 51, 51); stroke-width: 2; opacity: 1;"></path></g></g></svg>