<svg xmlns="http://www.w3.org/2000/svg" width="640" height="324" role="img" aria-labelledby="victory-container-4-title victory-container-4-desc" viewBox="0 0 640 324" style="pointer-events: all; width: 100%; height: 100%;"><g role="presentation"><line x1="15" x2="578" y1="274" y2="274" role="presentation" shape-rendering="auto" vector-effect="non-scaling-stroke" style="stroke: rgb(226, 226, 226); fill: transparent; stroke-width: 1; stroke-linejoin: round;"></line><g role="presentation"><line x1="81.26626071884692" x2="81.26626071884692" y1="274" y2="34" role="presentation" shape-rendering="auto" vector-effect="non-scaling-stroke" style="stroke: transparent; fill: transparent; stroke-width: 1; stroke-linecap: round; stroke-linejoin: round; pointer-events: none;"></line><line x1="81.26626071884692" x2="81.26626071884692" y1="274" y2="278" role="presentation" shape-rendering="auto" vector-effect="non-scaling-stroke" style="stroke: transparent; fill: transparent; size: 4px; stroke-width: 1; stroke-linecap: round; stroke-linejoin: round;"></line><text dx="0" dy="11.969999999999999" x="81.26626071884692" y="286"><tspan x="81.26626071884692" dx="0" text-anchor="middle" style="fill: rgb(153, 153, 153); font-size: 14px; font-family: inherit; stroke: transparent; letter-spacing: normal; padding: 8px; stroke-width: 0;">2017</tspan></text></g><g role="presentation"><line x1="193.74299854041232" x2="193.74299854041232" y1="274" y2="34" role="presentation" shape-rendering="auto" vector-effect="non-scaling-stroke" style="stroke: transparent; fill: transparent; stroke-width: 1; stroke-linecap: round; stroke-linejoin: round; pointer-events: none;"></line><line x1="193.74299854041232" x2="193.74299854041232" y1="274" y2="278" role="presentation" shape-rendering="auto" vector-effect="non-scaling-stroke" style="stroke: transparent; fill: transparent; size: 4px; stroke-width: 1; stroke-linecap: round; stroke-linejoin: round;"></line><text dx="0" dy="11.969999999999999" x="193.74299854041232" y="286"><tspan x="193.74299854041232" dx="0" text-anchor="middle" style="fill: rgb(153, 153, 153); font-size: 14px; font-family: inherit; stroke: transparent; letter-spacing: normal; padding: 8px; stroke-width: 0;">2018</tspan></text></g><g role="presentation"><line x1="306.2197363619777" x2="306.2197363619777" y1="274" y2="34" role="presentation" shape-rendering="auto" vector-effect="non-scaling-stroke" style="stroke: transparent; fill: transparent; stroke-width: 1; stroke-linecap: round; stroke-linejoin: round; pointer-events: none;"></line><line x1="306.2197363619777" x2="306.2197363619777" y1="274" y2="278" role="presentation" shape-rendering="auto" vector-effect="non-scaling-stroke" style="stroke: transparent; fill: transparent; size: 4px; stroke-width: 1; stroke-linecap: round; stroke-linejoin: round;"></line><text dx="0" dy="11.969999999999999" x="306.2197363619777" y="286"><tspan x="306.2197363619777" dx="0" text-anchor="middle" style="fill: rgb(153, 153, 153); font-size: 14px; font-family: inherit; stroke: transparent; letter-spacing: normal; padding: 8px; stroke-width: 0;">2019</tspan></text></g><g role="presentation"><line x1="418.69647418354316" x2="418.69647418354316" y1="274" y2="34" role="presentation" shape-rendering="auto" vector-effect="non-scaling-stroke" style="stroke: transparent; fill: transparent; stroke-width: 1; stroke-linecap: round; stroke-linejoin: round; pointer-events: none;"></line><line x1="418.69647418354316" x2="418.69647418354316" y1="274" y2="278" role="presentation" shape-rendering="auto" vector-effect="non-scaling-stroke" style="stroke: transparent; fill: transparent; size: 4px; stroke-width: 1; stroke-linecap: round; stroke-linejoin: round;"></line><text dx="0" dy="11.969999999999999" x="418.69647418354316" y="286"><tspan x="418.69647418354316" dx="0" text-anchor="middle" style="fill: rgb(153, 153, 153); font-size: 14px; font-family: inherit; stroke: transparent; letter-spacing: normal; padding: 8px; stroke-width: 0;">2020</tspan></text></g><g role="presentation"><line x1="531.4813674511951" x2="531.4813674511951" y1="274" y2="34" role="presentation" shape-rendering="auto" vector-effect="non-scaling-stroke" style="stroke: transparent; fill: transparent; stroke-width: 1; stroke-linecap: round; stroke-linejoin: round; pointer-events: none;"></line><line x1="531.4813674511951" x2="531.4813674511951" y1="274" y2="278" role="presentation" shape-rendering="auto" vector-effect="non-scaling-stroke" style="stroke: transparent; fill: transparent; size: 4px; stroke-width: 1; stroke-linecap: round; stroke-linejoin: round;"></line><text dx="0" dy="11.969999999999999" x="531.4813674511951" y="286"><tspan x="531.4813674511951" dx="0" text-anchor="middle" style="fill: rgb(153, 153, 153); font-size: 14px; font-family: inherit; stroke: transparent; letter-spacing: normal; padding: 8px; stroke-width: 0;">2021</tspan></text></g></g><g role="presentation"><line x1="578" x2="578" y1="34" y2="274" role="presentation" shape-rendering="auto" vector-effect="non-scaling-stroke" style="stroke: transparent; fill: transparent; stroke-width: 1; stroke-linejoin: round;"></line><g role="presentation"><line x1="578" x2="15" y1="274" y2="274" role="presentation" shape-rendering="auto" vector-effect="non-scaling-stroke" style="stroke: rgb(226, 226, 226); fill: transparent; stroke-width: 1; stroke-linecap: round; stroke-linejoin: round; pointer-events: none;"></line><line x1="578" x2="582" y1="274" y2="274" role="presentation" shape-rendering="auto" vector-effect="non-scaling-stroke" style="stroke: transparent; fill: transparent; size: 4px; stroke-width: 1; stroke-linecap: round; stroke-linejoin: round;"></line><text dx="0" dy="4.97" x="590" y="274"><tspan x="590" dx="0" text-anchor="start" style="fill: rgb(153, 153, 153); font-size: 14px; font-family: inherit; stroke: transparent; letter-spacing: normal; padding: 8px; stroke-width: 0;">$200K</tspan></text></g><g role="presentation"><line x1="578" x2="15" y1="226" y2="226" role="presentation" shape-rendering="auto" vector-effect="non-scaling-stroke" style="stroke: rgb(226, 226, 226); fill: transparent; stroke-width: 1; stroke-linecap: round; stroke-linejoin: round; pointer-events: none;"></line><line x1="578" x2="582" y1="226" y2="226" role="presentation" shape-rendering="auto" vector-effect="non-scaling-stroke" style="stroke: transparent; fill: transparent; size: 4px; stroke-width: 1; stroke-linecap: round; stroke-linejoin: round;"></line><text dx="0" dy="4.97" x="590" y="226"><tspan x="590" dx="0" text-anchor="start" style="fill: rgb(153, 153, 153); font-size: 14px; font-family: inherit; stroke: transparent; letter-spacing: normal; padding: 8px; stroke-width: 0;">$220K</tspan></text></g><g role="presentation"><line x1="578" x2="15" y1="178" y2="178" role="presentation" shape-rendering="auto" vector-effect="non-scaling-stroke" style="stroke: rgb(226, 226, 226); fill: transparent; stroke-width: 1; stroke-linecap: round; stroke-linejoin: round; pointer-events: none;"></line><line x1="578" x2="582" y1="178" y2="178" role="presentation" shape-rendering="auto" vector-effect="non-scaling-stroke" style="stroke: transparent; fill: transparent; size: 4px; stroke-width: 1; stroke-linecap: round; stroke-linejoin: round;"></line><text dx="0" dy="4.97" x="590" y="178"><tspan x="590" dx="0" text-anchor="start" style="fill: rgb(153, 153, 153); font-size: 14px; font-family: inherit; stroke: transparent; letter-spacing: normal; padding: 8px; stroke-width: 0;">$240K</tspan></text></g><g role="presentation"><line x1="578" x2="15" y1="130" y2="130" role="presentation" shape-rendering="auto" vector-effect="non-scaling-stroke" style="stroke: rgb(226, 226, 226); fill: transparent; stroke-width: 1; stroke-linecap: round; stroke-linejoin: round; pointer-events: none;"></line><line x1="578" x2="582" y1="130" y2="130" role="presentation" shape-rendering="auto" vector-effect="non-scaling-stroke" style="stroke: transparent; fill: transparent; size: 4px; stroke-width: 1; stroke-linecap: round; stroke-linejoin: round;"></line><text dx="0" dy="4.97" x="590" y="130"><tspan x="590" dx="0" text-anchor="start" style="fill: rgb(153, 153, 153); font-size: 14px; font-family: inherit; stroke: transparent; letter-spacing: normal; padding: 8px; stroke-width: 0;">$260K</tspan></text></g><g role="presentation"><line x1="578" x2="15" y1="82" y2="82" role="presentation" shape-rendering="auto" vector-effect="non-scaling-stroke" style="stroke: rgb(226, 226, 226); fill: transparent; stroke-width: 1; stroke-linecap: round; stroke-linejoin: round; pointer-events: none;"></line><line x1="578" x2="582" y1="82" y2="82" role="presentation" shape-rendering="auto" vector-effect="non-scaling-stroke" style="stroke: transparent; fill: transparent; size: 4px; stroke-width: 1; stroke-linecap: round; stroke-linejoin: round;"></line><text dx="0" dy="4.97" x="590" y="82"><tspan x="590" dx="0" text-anchor="start" style="fill: rgb(153, 153, 153); font-size: 14px; font-family: inherit; stroke: transparent; letter-spacing: normal; padding: 8px; stroke-width: 0;">$280K</tspan></text></g><g role="presentation"><line x1="578" x2="15" y1="34" y2="34" role="presentation" shape-rendering="auto" vector-effect="non-scaling-stroke" style="stroke: rgb(226, 226, 226); fill: transparent; stroke-width: 1; stroke-linecap: round; stroke-linejoin: round; pointer-events: none;"></line><line x1="578" x2="582" y1="34" y2="34" role="presentation" shape-rendering="auto" vector-effect="non-scaling-stroke" style="stroke: transparent; fill: transparent; size: 4px; stroke-width: 1; stroke-linecap: round; stroke-linejoin: round;"></line><text dx="0" dy="4.97" x="590" y="34"><tspan x="590" dx="0" text-anchor="start" style="fill: rgb(153, 153, 153); font-size: 14px; font-family: inherit; stroke: transparent; letter-spacing: normal; padding: 8px; stroke-width: 0;">$300K</tspan></text></g></g><g style="height: 100%; width: 100%; user-select: none;"><defs><clipPath id="victory-clip-5"><rect x="15" y="34" width="563" height="240"></rect></clipPath></defs><g clip-path="url(#victory-clip-5)"><path shape-rendering="auto" role="presentation" d="M24.5528188286809,206.8C27.73709177157453,180.7,30.921364714468165,154.6,34.1056376573618,154.6C37.28991060025543,154.6,40.47418354314906,204.4,43.658456486042695,204.4C46.7400109469075,204.4,49.821565407772304,187.0876,52.90311986863711,187.0876C56.08739281153075,187.0876,59.271665754424376,226,62.45593869731801,226C65.54177309493402,226,68.62760749255003,212.8,71.71344189016602,212.8C74.89771483305965,212.8,78.0819877759533,238,81.26626071884692,238C84.45053366174056,238,87.63480660463419,149.20600000000002,90.81907954752783,149.20600000000002C93.69519704433499,149.20600000000002,96.57131454114213,221.3812,99.44743203794928,221.3812C102.62742504409171,221.3812,105.80741805023415,219.3208,108.98741105637657,215.2C112.06896551724138,211.2067617765814,115.15051997810617,164.8,118.23207443897098,164.8C121.41634738186463,164.8,124.60062032475825,214.39317333333335,127.7848932676519,222.6028C130.8664477285167,230.5476,133.9480021893815,228.8555492332099,137.02955665024632,234.51999999999998C140.21382959313993,240.3732657923497,143.39810253603358,257.5,146.5823754789272,257.5C149.76664842182083,257.5,152.95092136471445,196,156.1351943076081,196C159.2167487684729,196,162.2983032293377,197.2,165.37985769020253,197.2C168.56413063309614,197.2,171.74840357598978,105.78400000000002,174.9326765188834,105.78400000000002C178.0185109164994,105.78400000000002,181.10434531411542,192.35066666666668,184.19017971173142,193.312C187.37445265462506,194.304,190.55872559751867,193.82000000000002,193.74299854041232,194.8C196.92727148330596,195.78,200.1115444261996,196.264,203.29581736909324,199.192C206.1719348659004,201.83664516129033,209.04805236270755,238,211.9241698595147,238C215.10416286565712,238,218.28415587179956,208.7834162030075,221.46414887794197,195.40120000000002C224.5457033388068,182.43323813436686,227.62725779967158,158.8,230.7088122605364,158.8C233.89308520343002,158.8,237.07735814632366,208.78666666666663,240.26163108921727,209.2C243.3431855500821,209.6,246.4247400109469,209.8,249.5062944718117,209.8C252.69056741470536,209.8,255.874840357599,178,259.05911330049264,178C262.2433862433863,178,265.42765918627987,238,268.6119321291735,238C271.69348659003833,238,274.7750410509031,226.935005817028,277.8565955117679,223.624C281.04086845466156,220.20262732240437,284.22514139755515,221.784,287.4094143404488,218.10399999999998C290.4952487380648,214.53776344086018,293.58108313568084,194.812,296.66691753329684,194.812C299.8511904761905,194.812,303.03546341908407,209.2,306.2197363619777,209.2C309.40400930487135,209.2,312.588282247765,167.212,315.77255519065864,167.212C318.6486726874658,167.212,321.52479018427294,181.0877405114401,324.4009076810801,182.1832C327.58090068722254,183.3944,330.76089369336495,184,333.94088669950736,184C337.0224411603722,184,340.10399562123695,178.80404442094127,343.18555008210177,172.012C346.3698230249954,164.99355409836065,349.55409596788905,142,352.7383689107827,142C355.8199233716475,142,358.9014778325123,144,361.9830322933771,148C365.16730523627075,152.13333333333333,368.35157817916433,218.6056,371.535851122058,218.6056C374.7201240649516,218.6056,377.90439700784526,161.224,381.0886699507389,161.224C384.1702244116037,161.224,387.2517788724685,238,390.3333333333333,238C393.51760627622696,238,396.7018792191206,173.2012,399.88615216201424,173.2012C402.97198655963024,173.2012,406.0578209572463,175.99,409.1436553548623,175.99C412.32792829775593,175.99,415.5122012406495,166,418.69647418354316,166C421.8807471264368,166,425.0650200693304,173.78974252873564,428.24929301222403,180.39999999999998C431.22812899106003,186.5837892473118,434.206964969896,202.7073055181696,437.185800948732,203.704C440.3657939548744,204.768,443.54578696101686,204.23600000000002,446.72577996715927,205.3C449.8073344280241,206.33106325706598,452.8888888888889,246.4,455.97044334975374,246.4C459.1547162926473,246.4,462.33898923554096,208.006,465.52326217843455,208.006C468.6048166392994,208.006,471.6863711001642,214,474.767925561029,214C477.95219850392266,214,481.1364714468163,142,484.32074438970994,142C487.50501733260353,142,490.68929027549717,175.1066666666667,493.87356321839076,178C496.9551176792556,180.79999999999998,500.0366721401204,182.2,503.1182266009852,182.2C506.3024995438788,182.2,509.48677248677245,170.73075394526938,512.671045429666,166C515.7568798272821,161.41549248045794,518.8427142248981,157.0376933245257,521.9285486225142,154.132C525.1128215654078,151.13361465541323,528.2970945083015,148.492,531.4813674511951,148.492C534.6656403940887,148.492,537.8499133369824,154.24,541.0341862798759,154.24C543.9103037766831,154.24,546.7864212734902,142,549.6625387702974,142C552.8425317764398,142,556.0225247825822,169.192,559.2025177887247,169.192C562.2840722495895,169.192,565.3656267104543,131.82399999999998,568.4471811713191,131.82399999999998C571.6314541142127,131.82399999999998,574.8157270571064,141.34300000000002,578,150.86200000000002" style="fill: transparent; stroke: rgb(51, 51, 51); stroke-width: 2; opacity: 1;"></path></g></g></svg>