<svg xmlns="http://www.w3.org/2000/svg" width="640" height="324" role="img" aria-labelledby="victory-container-1-title victory-container-1-desc" viewBox="0 0 640 324" style="pointer-events: all; width: 100%; height: 100%;"><g role="presentation"><line x1="15" x2="578" y1="274" y2="274" role="presentation" shape-rendering="auto" vector-effect="non-scaling-stroke" style="stroke: rgb(226, 226, 226); fill: transparent; stroke-width: 1; stroke-linejoin: round;"></line><g role="presentation"><line x1="81.26626071884692" x2="81.26626071884692" y1="274" y2="34" role="presentation" shape-rendering="auto" vector-effect="non-scaling-stroke" style="stroke: transparent; fill: transparent; stroke-width: 1; stroke-linecap: round; stroke-linejoin: round; pointer-events: none;"></line><line x1="81.26626071884692" x2="81.26626071884692" y1="274" y2="278" role="presentation" shape-rendering="auto" vector-effect="non-scaling-stroke" style="stroke: transparent; fill: transparent; size: 4px; stroke-width: 1; stroke-linecap: round; stroke-linejoin: round;"></line><text dx="0" dy="11.969999999999999" x="81.26626071884692" y="286"><tspan x="81.26626071884692" dx="0" text-anchor="middle" style="fill: rgb(153, 153, 153); font-size: 14px; font-family: inherit; stroke: transparent; letter-spacing: normal; padding: 8px; stroke-width: 0;">2017</tspan></text></g><g role="presentation"><line x1="193.74299854041232" x2="193.74299854041232" y1="274" y2="34" role="presentation" shape-rendering="auto" vector-effect="non-scaling-stroke" style="stroke: transparent; fill: transparent; stroke-width: 1; stroke-linecap: round; stroke-linejoin: round; pointer-events: none;"></line><line x1="193.74299854041232" x2="193.74299854041232" y1="274" y2="278" role="presentation" shape-rendering="auto" vector-effect="non-scaling-stroke" style="stroke: transparent; fill: transparent; size: 4px; stroke-width: 1; stroke-linecap: round; stroke-linejoin: round;"></line><text dx="0" dy="11.969999999999999" x="193.74299854041232" y="286"><tspan x="193.74299854041232" dx="0" text-anchor="middle" style="fill: rgb(153, 153, 153); font-size: 14px; font-family: inherit; stroke: transparent; letter-spacing: normal; padding: 8px; stroke-width: 0;">2018</tspan></text></g><g role="presentation"><line x1="306.2197363619777" x2="306.2197363619777" y1="274" y2="34" role="presentation" shape-rendering="auto" vector-effect="non-scaling-stroke" style="stroke: transparent; fill: transparent; stroke-width: 1; stroke-linecap: round; stroke-linejoin: round; pointer-events: none;"></line><line x1="306.2197363619777" x2="306.2197363619777" y1="274" y2="278" role="presentation" shape-rendering="auto" vector-effect="non-scaling-stroke" style="stroke: transparent; fill: transparent; size: 4px; stroke-width: 1; stroke-linecap: round; stroke-linejoin: round;"></line><text dx="0" dy="11.969999999999999" x="306.2197363619777" y="286"><tspan x="306.2197363619777" dx="0" text-anchor="middle" style="fill: rgb(153, 153, 153); font-size: 14px; font-family: inherit; stroke: transparent; letter-spacing: normal; padding: 8px; stroke-width: 0;">2019</tspan></text></g><g role="presentation"><line x1="418.69647418354316" x2="418.69647418354316" y1="274" y2="34" role="presentation" shape-rendering="auto" vector-effect="non-scaling-stroke" style="stroke: transparent; fill: transparent; stroke-width: 1; stroke-linecap: round; stroke-linejoin: round; pointer-events: none;"></line><line x1="418.69647418354316" x2="418.69647418354316" y1="274" y2="278" role="presentation" shape-rendering="auto" vector-effect="non-scaling-stroke" style="stroke: transparent; fill: transparent; size: 4px; stroke-width: 1; stroke-linecap: round; stroke-linejoin: round;"></line><text dx="0" dy="11.969999999999999" x="418.69647418354316" y="286"><tspan x="418.69647418354316" dx="0" text-anchor="middle" style="fill: rgb(153, 153, 153); font-size: 14px; font-family: inherit; stroke: transparent; letter-spacing: normal; padding: 8px; stroke-width: 0;">2020</tspan></text></g><g role="presentation"><line x1="531.4813674511951" x2="531.4813674511951" y1="274" y2="34" role="presentation" shape-rendering="auto" vector-effect="non-scaling-stroke" style="stroke: transparent; fill: transparent; stroke-width: 1; stroke-linecap: round; stroke-linejoin: round; pointer-events: none;"></line><line x1="531.4813674511951" x2="531.4813674511951" y1="274" y2="278" role="presentation" shape-rendering="auto" vector-effect="non-scaling-stroke" style="stroke: transparent; fill: transparent; size: 4px; stroke-width: 1; stroke-linecap: round; stroke-linejoin: round;"></line><text dx="0" dy="11.969999999999999" x="531.4813674511951" y="286"><tspan x="531.4813674511951" dx="0" text-anchor="middle" style="fill: rgb(153, 153, 153); font-size: 14px; font-family: inherit; stroke: transparent; letter-spacing: normal; padding: 8px; stroke-width: 0;">2021</tspan></text></g></g><g role="presentation"><line x1="578" x2="578" y1="34" y2="274" role="presentation" shape-rendering="auto" vector-effect="non-scaling-stroke" style="stroke: transparent; fill: transparent; stroke-width: 1; stroke-linejoin: round;"></line><g role="presentation"><line x1="578" x2="15" y1="274" y2="274" role="presentation" shape-rendering="auto" vector-effect="non-scaling-stroke" style="stroke: rgb(226, 226, 226); fill: transparent; stroke-width: 1; stroke-linecap: round; stroke-linejoin: round; pointer-events: none;"></line><line x1="578" x2="582" y1="274" y2="274" role="presentation" shape-rendering="auto" vector-effect="non-scaling-stroke" style="stroke: transparent; fill: transparent; size: 4px; stroke-width: 1; stroke-linecap: round; stroke-linejoin: round;"></line><text dx="0" dy="4.97" x="590" y="274"><tspan x="590" dx="0" text-anchor="start" style="fill: rgb(153, 153, 153); font-size: 14px; font-family: inherit; stroke: transparent; letter-spacing: normal; padding: 8px; stroke-width: 0;">$100K</tspan></text></g><g role="presentation"><line x1="578" x2="15" y1="214" y2="214" role="presentation" shape-rendering="auto" vector-effect="non-scaling-stroke" style="stroke: rgb(226, 226, 226); fill: transparent; stroke-width: 1; stroke-linecap: round; stroke-linejoin: round; pointer-events: none;"></line><line x1="578" x2="582" y1="214" y2="214" role="presentation" shape-rendering="auto" vector-effect="non-scaling-stroke" style="stroke: transparent; fill: transparent; size: 4px; stroke-width: 1; stroke-linecap: round; stroke-linejoin: round;"></line><text dx="0" dy="4.97" x="590" y="214"><tspan x="590" dx="0" text-anchor="start" style="fill: rgb(153, 153, 153); font-size: 14px; font-family: inherit; stroke: transparent; letter-spacing: normal; padding: 8px; stroke-width: 0;">$200K</tspan></text></g><g role="presentation"><line x1="578" x2="15" y1="154" y2="154" role="presentation" shape-rendering="auto" vector-effect="non-scaling-stroke" style="stroke: rgb(226, 226, 226); fill: transparent; stroke-width: 1; stroke-linecap: round; stroke-linejoin: round; pointer-events: none;"></line><line x1="578" x2="582" y1="154" y2="154" role="presentation" shape-rendering="auto" vector-effect="non-scaling-stroke" style="stroke: transparent; fill: transparent; size: 4px; stroke-width: 1; stroke-linecap: round; stroke-linejoin: round;"></line><text dx="0" dy="4.97" x="590" y="154"><tspan x="590" dx="0" text-anchor="start" style="fill: rgb(153, 153, 153); font-size: 14px; font-family: inherit; stroke: transparent; letter-spacing: normal; padding: 8px; stroke-width: 0;">$300K</tspan></text></g><g role="presentation"><line x1="578" x2="15" y1="94" y2="94" role="presentation" shape-rendering="auto" vector-effect="non-scaling-stroke" style="stroke: rgb(226, 226, 226); fill: transparent; stroke-width: 1; stroke-linecap: round; stroke-linejoin: round; pointer-events: none;"></line><line x1="578" x2="582" y1="94" y2="94" role="presentation" shape-rendering="auto" vector-effect="non-scaling-stroke" style="stroke: transparent; fill: transparent; size: 4px; stroke-width: 1; stroke-linecap: round; stroke-linejoin: round;"></line><text dx="0" dy="4.97" x="590" y="94"><tspan x="590" dx="0" text-anchor="start" style="fill: rgb(153, 153, 153); font-size: 14px; font-family: inherit; stroke: transparent; letter-spacing: normal; padding: 8px; stroke-width: 0;">$400K</tspan></text></g><g role="presentation"><line x1="578" x2="15" y1="34" y2="34" role="presentation" shape-rendering="auto" vector-effect="non-scaling-stroke" style="stroke: rgb(226, 226, 226); fill: transparent; stroke-width: 1; stroke-linecap: round; stroke-linejoin: round; pointer-events: none;"></line><line x1="578" x2="582" y1="34" y2="34" role="presentation" shape-rendering="auto" vector-effect="non-scaling-stroke" style="stroke: transparent; fill: transparent; size: 4px; stroke-width: 1; stroke-linecap: round; stroke-linejoin: round;"></line><text dx="0" dy="4.97" x="590" y="34"><tspan x="590" dx="0" text-anchor="start" style="fill: rgb(153, 153, 153); font-size: 14px; font-family: inherit; stroke: transparent; letter-spacing: normal; padding: 8px; stroke-width: 0;">$500K</tspan></text></g></g><g style="height: 100%; width: 100%; user-select: none;"><defs><clipPath id="victory-clip-2"><rect x="15" y="34" width="563" height="240"></rect></clipPath></defs><g clip-path="url(#victory-clip-2)"><path shape-rendering="auto" role="presentation" d="M24.5528188286809,174.55C27.73709177157453,169.3,30.921364714468165,164.05,34.1056376573618,164.05C37.28991060025543,164.05,40.47418354314906,238,43.658456486042695,238C46.7400109469075,238,49.821565407772304,79,52.90311986863711,79C56.08739281153075,79,59.271665754424376,139.79911511789183,62.45593869731801,143.38600000000002C65.54177309493402,146.86200000000002,68.62760749255003,145.12400000000002,71.71344189016602,148.60000000000002C74.89771483305965,152.18688488210822,78.0819877759533,176.63,81.26626071884692,189.73C84.45053366174056,202.82999999999998,87.63480660463419,227.2,90.81907954752783,227.2C93.69519704433499,227.2,96.57131454114213,188.43183503036587,99.44743203794928,175C102.62742504409171,160.1490276375568,105.80741805023415,145,108.98741105637657,145C112.06896551724138,145,115.15051997810617,189.9535483870968,118.23207443897098,201.76C121.41634738186463,213.96,124.60062032475825,216.34,127.7848932676519,220.06C130.8664477285167,223.66,133.9480021893815,225.45999999999998,137.02955665024632,225.45999999999998C140.21382959313993,225.45999999999998,143.39810253603358,224.42999999999998,146.5823754789272,223.32999999999998C149.76664842182083,222.23,152.95092136471445,218.86,156.1351943076081,218.86C159.2167487684729,218.86,162.2983032293377,221.35,165.37985769020253,221.35C168.56413063309614,221.35,171.74840357598978,200.26,174.9326765188834,200.26C178.0185109164994,200.26,181.10434531411542,218.06182795698925,184.19017971173142,220C187.37445265462506,222,190.55872559751867,223,193.74299854041232,223C196.92727148330596,223,200.1115444261996,199.8388668280872,203.29581736909324,185.53C206.1719348659004,172.60586221979224,209.04805236270755,142.30599999999998,211.9241698595147,142.30599999999998C215.10416286565712,142.30599999999998,218.28415587179956,143.5285,221.46414887794197,143.5285C224.5457033388068,143.5285,227.62725779967158,139,230.7088122605364,139C233.89308520343002,139,237.07735814632366,152.47983715846996,240.26163108921727,157.006C243.3431855500821,161.3861575885775,246.4247400109469,163.14379799048123,249.5062944718117,166C252.69056741470536,168.9514087431694,255.874840357599,174.4,259.05911330049264,174.4C262.2433862433863,174.4,265.42765918627987,107.39007999999998,268.6119321291735,97.0336C271.69348659003833,87.0112,274.7750410509031,82,277.8565955117679,82C281.04086845466156,82,284.22514139755515,125.42016565918601,287.4094143404488,148.81600000000003C290.4952487380648,171.4885760211385,293.58108313568084,220,296.66691753329684,220C299.8511904761905,220,303.03546341908407,214.65,306.2197363619777,203.95C309.40400930487135,193.24999999999991,312.588282247765,131.284,315.77255519065864,131.284C318.6486726874658,131.284,321.52479018427294,139.603,324.4009076810801,139.603C327.58090068722254,139.603,330.76089369336495,70,333.94088669950736,70C337.0224411603722,70,340.10399562123695,100.43659439450028,343.18555008210177,111.4C346.3698230249954,122.72885245901644,349.55409596788905,136.3,352.7383689107827,136.3C355.8199233716475,136.3,358.9014778325123,74.5,361.9830322933771,74.5C365.16730523627075,74.5,368.35157817916433,128.20000000000002,371.535851122058,145C374.7201240649516,161.8000000000001,377.90439700784526,175.3,381.0886699507389,175.3C384.1702244116037,175.3,387.2517788724685,116.5,390.3333333333333,116.5C393.51760627622696,116.5,396.7018792191206,143.5,399.88615216201424,143.5C402.97198655963024,143.5,406.0578209572463,143.1,409.1436553548623,142.3C412.32792829775593,141.474479889043,415.5122012406495,81.95349999999999,418.69647418354316,81.95349999999999C421.8807471264368,81.95349999999999,425.0650200693304,119.5,428.24929301222403,119.5C431.22812899106003,119.5,434.206964969896,58.00030000000001,437.185800948732,58.00030000000001C440.3657939548744,58.00030000000001,443.54578696101686,66.17397161464274,446.72577996715927,79C449.8073344280241,91.42899116750644,452.8888888888889,127.93870967741928,455.97044334975374,132.7C459.1547162926473,137.61999999999998,462.33898923554096,140.07999999999998,465.52326217843455,140.07999999999998C468.6048166392994,140.07999999999998,471.6863711001642,96.97,474.767925561029,96.97C477.95219850392266,96.97,481.1364714468163,129.29999999999987,484.32074438970994,148.06C487.50501733260353,166.8199999999999,490.68929027549717,209.53,493.87356321839076,209.53C496.9551176792556,209.53,500.0366721401204,209.491,503.1182266009852,209.413C506.3024995438788,209.3324,509.48677248677245,156.8683,512.671045429666,156.8683C515.7568798272821,156.8683,518.8427142248981,193,521.9285486225142,193C525.1128215654078,193,528.2970945083015,184,531.4813674511951,184C534.6656403940887,184,537.8499133369824,187,541.0341862798759,187C543.9103037766831,187,546.7864212734902,130.96044051144005,549.6625387702974,118.75029999999998C552.8425317764398,105.25009999999999,556.0225247825822,98.5,559.2025177887247,98.5C562.2840722495895,98.5,565.3656267104543,158.92000000000002,568.4471811713191,158.92000000000002C571.6314541142127,158.92000000000002,574.8157270571064,108.91000000000003,578,58.900000000000006" style="fill: transparent; stroke: rgb(51, 51, 51); stroke-width: 2; opacity: 1;"></path></g></g></svg>