<svg xmlns="http://www.w3.org/2000/svg" width="640" height="324" role="img" aria-labelledby="victory-container-1-title victory-container-1-desc" viewBox="0 0 640 324" style="pointer-events: all; width: 100%; height: 100%;"><g role="presentation"><line x1="15" x2="578" y1="274" y2="274" role="presentation" shape-rendering="auto" vector-effect="non-scaling-stroke" style="stroke: rgb(226, 226, 226); fill: transparent; stroke-width: 1; stroke-linejoin: round;"></line><g role="presentation"><line x1="81.26626071884692" x2="81.26626071884692" y1="274" y2="34" role="presentation" shape-rendering="auto" vector-effect="non-scaling-stroke" style="stroke: transparent; fill: transparent; stroke-width: 1; stroke-linecap: round; stroke-linejoin: round; pointer-events: none;"></line><line x1="81.26626071884692" x2="81.26626071884692" y1="274" y2="278" role="presentation" shape-rendering="auto" vector-effect="non-scaling-stroke" style="stroke: transparent; fill: transparent; size: 4px; stroke-width: 1; stroke-linecap: round; stroke-linejoin: round;"></line><text dx="0" dy="11.969999999999999" x="81.26626071884692" y="286"><tspan x="81.26626071884692" dx="0" text-anchor="middle" style="fill: rgb(153, 153, 153); font-size: 14px; font-family: inherit; stroke: transparent; letter-spacing: normal; padding: 8px; stroke-width: 0;">2017</tspan></text></g><g role="presentation"><line x1="193.74299854041232" x2="193.74299854041232" y1="274" y2="34" role="presentation" shape-rendering="auto" vector-effect="non-scaling-stroke" style="stroke: transparent; fill: transparent; stroke-width: 1; stroke-linecap: round; stroke-linejoin: round; pointer-events: none;"></line><line x1="193.74299854041232" x2="193.74299854041232" y1="274" y2="278" role="presentation" shape-rendering="auto" vector-effect="non-scaling-stroke" style="stroke: transparent; fill: transparent; size: 4px; stroke-width: 1; stroke-linecap: round; stroke-linejoin: round;"></line><text dx="0" dy="11.969999999999999" x="193.74299854041232" y="286"><tspan x="193.74299854041232" dx="0" text-anchor="middle" style="fill: rgb(153, 153, 153); font-size: 14px; font-family: inherit; stroke: transparent; letter-spacing: normal; padding: 8px; stroke-width: 0;">2018</tspan></text></g><g role="presentation"><line x1="306.2197363619777" x2="306.2197363619777" y1="274" y2="34" role="presentation" shape-rendering="auto" vector-effect="non-scaling-stroke" style="stroke: transparent; fill: transparent; stroke-width: 1; stroke-linecap: round; stroke-linejoin: round; pointer-events: none;"></line><line x1="306.2197363619777" x2="306.2197363619777" y1="274" y2="278" role="presentation" shape-rendering="auto" vector-effect="non-scaling-stroke" style="stroke: transparent; fill: transparent; size: 4px; stroke-width: 1; stroke-linecap: round; stroke-linejoin: round;"></line><text dx="0" dy="11.969999999999999" x="306.2197363619777" y="286"><tspan x="306.2197363619777" dx="0" text-anchor="middle" style="fill: rgb(153, 153, 153); font-size: 14px; font-family: inherit; stroke: transparent; letter-spacing: normal; padding: 8px; stroke-width: 0;">2019</tspan></text></g><g role="presentation"><line x1="418.69647418354316" x2="418.69647418354316" y1="274" y2="34" role="presentation" shape-rendering="auto" vector-effect="non-scaling-stroke" style="stroke: transparent; fill: transparent; stroke-width: 1; stroke-linecap: round; stroke-linejoin: round; pointer-events: none;"></line><line x1="418.69647418354316" x2="418.69647418354316" y1="274" y2="278" role="presentation" shape-rendering="auto" vector-effect="non-scaling-stroke" style="stroke: transparent; fill: transparent; size: 4px; stroke-width: 1; stroke-linecap: round; stroke-linejoin: round;"></line><text dx="0" dy="11.969999999999999" x="418.69647418354316" y="286"><tspan x="418.69647418354316" dx="0" text-anchor="middle" style="fill: rgb(153, 153, 153); font-size: 14px; font-family: inherit; stroke: transparent; letter-spacing: normal; padding: 8px; stroke-width: 0;">2020</tspan></text></g><g role="presentation"><line x1="531.4813674511951" x2="531.4813674511951" y1="274" y2="34" role="presentation" shape-rendering="auto" vector-effect="non-scaling-stroke" style="stroke: transparent; fill: transparent; stroke-width: 1; stroke-linecap: round; stroke-linejoin: round; pointer-events: none;"></line><line x1="531.4813674511951" x2="531.4813674511951" y1="274" y2="278" role="presentation" shape-rendering="auto" vector-effect="non-scaling-stroke" style="stroke: transparent; fill: transparent; size: 4px; stroke-width: 1; stroke-linecap: round; stroke-linejoin: round;"></line><text dx="0" dy="11.969999999999999" x="531.4813674511951" y="286"><tspan x="531.4813674511951" dx="0" text-anchor="middle" style="fill: rgb(153, 153, 153); font-size: 14px; font-family: inherit; stroke: transparent; letter-spacing: normal; padding: 8px; stroke-width: 0;">2021</tspan></text></g></g><g role="presentation"><line x1="578" x2="578" y1="34" y2="274" role="presentation" shape-rendering="auto" vector-effect="non-scaling-stroke" style="stroke: transparent; fill: transparent; stroke-width: 1; stroke-linejoin: round;"></line><g role="presentation"><line x1="578" x2="15" y1="259" y2="259" role="presentation" shape-rendering="auto" vector-effect="non-scaling-stroke" style="stroke: rgb(226, 226, 226); fill: transparent; stroke-width: 1; stroke-linecap: round; stroke-linejoin: round; pointer-events: none;"></line><line x1="578" x2="582" y1="259" y2="259" role="presentation" shape-rendering="auto" vector-effect="non-scaling-stroke" style="stroke: transparent; fill: transparent; size: 4px; stroke-width: 1; stroke-linecap: round; stroke-linejoin: round;"></line><text dx="0" dy="4.97" x="590" y="259"><tspan x="590" dx="0" text-anchor="start" style="fill: rgb(153, 153, 153); font-size: 14px; font-family: inherit; stroke: transparent; letter-spacing: normal; padding: 8px; stroke-width: 0;">$100K</tspan></text></g><g role="presentation"><line x1="578" x2="15" y1="184" y2="184" role="presentation" shape-rendering="auto" vector-effect="non-scaling-stroke" style="stroke: rgb(226, 226, 226); fill: transparent; stroke-width: 1; stroke-linecap: round; stroke-linejoin: round; pointer-events: none;"></line><line x1="578" x2="582" y1="184" y2="184" role="presentation" shape-rendering="auto" vector-effect="non-scaling-stroke" style="stroke: transparent; fill: transparent; size: 4px; stroke-width: 1; stroke-linecap: round; stroke-linejoin: round;"></line><text dx="0" dy="4.97" x="590" y="184"><tspan x="590" dx="0" text-anchor="start" style="fill: rgb(153, 153, 153); font-size: 14px; font-family: inherit; stroke: transparent; letter-spacing: normal; padding: 8px; stroke-width: 0;">$150K</tspan></text></g><g role="presentation"><line x1="578" x2="15" y1="109" y2="109" role="presentation" shape-rendering="auto" vector-effect="non-scaling-stroke" style="stroke: rgb(226, 226, 226); fill: transparent; stroke-width: 1; stroke-linecap: round; stroke-linejoin: round; pointer-events: none;"></line><line x1="578" x2="582" y1="109" y2="109" role="presentation" shape-rendering="auto" vector-effect="non-scaling-stroke" style="stroke: transparent; fill: transparent; size: 4px; stroke-width: 1; stroke-linecap: round; stroke-linejoin: round;"></line><text dx="0" dy="4.97" x="590" y="109"><tspan x="590" dx="0" text-anchor="start" style="fill: rgb(153, 153, 153); font-size: 14px; font-family: inherit; stroke: transparent; letter-spacing: normal; padding: 8px; stroke-width: 0;">$200K</tspan></text></g><g role="presentation"><line x1="578" x2="15" y1="34" y2="34" role="presentation" shape-rendering="auto" vector-effect="non-scaling-stroke" style="stroke: rgb(226, 226, 226); fill: transparent; stroke-width: 1; stroke-linecap: round; stroke-linejoin: round; pointer-events: none;"></line><line x1="578" x2="582" y1="34" y2="34" role="presentation" shape-rendering="auto" vector-effect="non-scaling-stroke" style="stroke: transparent; fill: transparent; size: 4px; stroke-width: 1; stroke-linecap: round; stroke-linejoin: round;"></line><text dx="0" dy="4.97" x="590" y="34"><tspan x="590" dx="0" text-anchor="start" style="fill: rgb(153, 153, 153); font-size: 14px; font-family: inherit; stroke: transparent; letter-spacing: normal; padding: 8px; stroke-width: 0;">$250K</tspan></text></g></g><g style="height: 100%; width: 100%; user-select: none;"><defs><clipPath id="victory-clip-2"><rect x="15" y="34" width="563" height="240"></rect></clipPath></defs><g clip-path="url(#victory-clip-2)"><path shape-rendering="auto" role="presentation" d="M24.5528188286809,170.11C27.73709177157453,166.585,30.921364714468165,163.06,34.1056376573618,158.5C37.28991060025543,153.94,40.47418354314906,146.250956284153,43.658456486042695,142.75C46.7400109469075,139.36197778952936,49.821565407772304,137.5,52.90311986863711,137.5C56.08739281153075,137.5,59.271665754424376,171.7825,62.45593869731801,171.7825C65.54177309493402,171.7825,68.62760749255003,165.48829566222614,71.71344189016602,163C74.89771483305965,160.43232736103155,78.0819877759533,159.69875,81.26626071884692,156.7C84.45053366174056,153.70125,87.63480660463419,145.0075,90.81907954752783,145.0075C93.69519704433499,145.0075,96.57131454114213,177.625,99.44743203794928,177.625C102.62742504409171,177.625,105.80741805023415,134.5075,108.98741105637657,134.5075C112.06896551724138,134.5075,115.15051997810617,227.5,118.23207443897098,227.5C121.41634738186463,227.5,124.60062032475825,156.25,127.7848932676519,156.25C130.8664477285167,156.25,133.9480021893815,156.75,137.02955665024632,157.75C140.21382959313993,158.78333333333333,143.39810253603358,163.35,146.5823754789272,165.25C149.76664842182083,167.15,152.95092136471445,169.14999999999998,156.1351943076081,169.14999999999998C159.2167487684729,169.14999999999998,162.2983032293377,124.15266129032258,165.37985769020253,122.8825C168.56413063309614,121.57,171.74840357598978,120.91375,174.9326765188834,120.91375C178.0185109164994,120.91375,181.10434531411542,175,184.19017971173142,175C187.37445265462506,175,190.55872559751867,166,193.74299854041232,161.5C196.92727148330596,157,200.1115444261996,153.84405266343828,203.29581736909324,148C206.1719348659004,142.7215008201203,209.04805236270755,129.77944145356662,211.9241698595147,128.875C215.10416286565712,127.875,218.28415587179956,127.375,221.46414887794197,127.375C224.5457033388068,127.375,227.62725779967158,152.2126520359598,230.7088122605364,160C233.89308520343002,168.04692622950816,237.07735814632366,174.25,240.26163108921727,174.25C243.3431855500821,174.25,246.4247400109469,161.5,249.5062944718117,161.5C252.69056741470536,161.5,255.874840357599,175.825,259.05911330049264,175.825C262.2433862433863,175.825,265.42765918627987,151,268.6119321291735,151C271.69348659003833,151,274.7750410509031,171.85750000000002,277.8565955117679,171.85750000000002C281.04086845466156,171.85750000000002,284.22514139755515,148.75,287.4094143404488,148.75C290.4952487380648,148.75,293.58108313568084,159.38969376169757,296.66691753329684,177.7525C299.8511904761905,196.7010823041566,303.03546341908407,262.375,306.2197363619777,262.375C309.40400930487135,262.375,312.588282247765,170.19642857142856,315.77255519065864,163C318.6486726874658,156.5,321.52479018427294,153.25,324.4009076810801,153.25C327.58090068722254,153.25,330.76089369336495,166.75,333.94088669950736,166.75C337.0224411603722,166.75,340.10399562123695,157.7904547858276,343.18555008210177,149.875C346.3698230249954,141.69569672131146,349.55409596788905,118,352.7383689107827,118C355.8199233716475,118,358.9014778325123,154.14999999999998,361.9830322933771,154.14999999999998C365.16730523627075,154.14999999999998,368.35157817916433,152.35,371.535851122058,148.75C374.7201240649516,145.15,377.90439700784526,127.07499999999999,381.0886699507389,127.07499999999999C384.1702244116037,127.07499999999999,387.2517788724685,149.65,390.3333333333333,149.65C393.51760627622696,149.65,396.7018792191206,127,399.88615216201424,127C402.97198655963024,127,406.0578209572463,137.566721412483,409.1436553548623,146.5C412.32792829775593,155.71825141347102,415.5122012406495,181.92775,418.69647418354316,181.92775C421.8807471264368,181.92775,425.0650200693304,129.72775000000001,428.24929301222403,129.72775000000001C431.22812899106003,129.72775000000001,434.206964969896,142,437.185800948732,142C440.3657939548744,142,443.54578696101686,124.381,446.72577996715927,124.381C449.8073344280241,124.381,452.8888888888889,143.875,455.97044334975374,143.875C459.1547162926473,143.875,462.33898923554096,121.81333333333332,465.52326217843455,120.625C468.6048166392994,119.47500000000001,471.6863711001642,120.05,474.767925561029,118.9C477.95219850392266,117.71166666666667,481.1364714468163,45.25750000000002,484.32074438970994,45.25750000000002C487.50501733260353,45.25750000000002,490.68929027549717,135.25,493.87356321839076,135.25C496.9551176792556,135.25,500.0366721401204,74.5,503.1182266009852,74.5C506.3024995438788,74.5,509.48677248677245,131.65,512.671045429666,131.65C515.7568798272821,131.65,518.8427142248981,111.118,521.9285486225142,111.118C525.1128215654078,111.118,528.2970945083015,127.46400000000003,531.4813674511951,127.82500000000002C534.6656403940887,128.186,537.8499133369824,128.3665,541.0341862798759,128.3665C543.9103037766831,128.3665,546.7864212734902,104.93125,549.6625387702974,104.93125C552.8425317764398,104.93125,556.0225247825822,119.57575,559.2025177887247,119.57575C562.2840722495895,119.57575,565.3656267104543,53.720500000000015,568.4471811713191,53.720500000000015C571.6314541142127,53.720500000000015,574.8157270571064,73.11025000000001,578,92.5" style="fill: transparent; stroke: rgb(51, 51, 51); stroke-width: 2; opacity: 1;"></path></g></g></svg>