<svg xmlns="http://www.w3.org/2000/svg" width="640" height="324" role="img" aria-labelledby="victory-container-4-title victory-container-4-desc" viewBox="0 0 640 324" style="pointer-events: all; width: 100%; height: 100%;"><g role="presentation"><line x1="15" x2="578" y1="274" y2="274" role="presentation" shape-rendering="auto" vector-effect="non-scaling-stroke" style="stroke: rgb(226, 226, 226); fill: transparent; stroke-width: 1; stroke-linejoin: round;"></line><g role="presentation"><line x1="81.26626071884692" x2="81.26626071884692" y1="274" y2="34" role="presentation" shape-rendering="auto" vector-effect="non-scaling-stroke" style="stroke: transparent; fill: transparent; stroke-width: 1; stroke-linecap: round; stroke-linejoin: round; pointer-events: none;"></line><line x1="81.26626071884692" x2="81.26626071884692" y1="274" y2="278" role="presentation" shape-rendering="auto" vector-effect="non-scaling-stroke" style="stroke: transparent; fill: transparent; size: 4px; stroke-width: 1; stroke-linecap: round; stroke-linejoin: round;"></line><text dx="0" dy="11.969999999999999" x="81.26626071884692" y="286"><tspan x="81.26626071884692" dx="0" text-anchor="middle" style="fill: rgb(153, 153, 153); font-size: 14px; font-family: inherit; stroke: transparent; letter-spacing: normal; padding: 8px; stroke-width: 0;">2017</tspan></text></g><g role="presentation"><line x1="193.74299854041232" x2="193.74299854041232" y1="274" y2="34" role="presentation" shape-rendering="auto" vector-effect="non-scaling-stroke" style="stroke: transparent; fill: transparent; stroke-width: 1; stroke-linecap: round; stroke-linejoin: round; pointer-events: none;"></line><line x1="193.74299854041232" x2="193.74299854041232" y1="274" y2="278" role="presentation" shape-rendering="auto" vector-effect="non-scaling-stroke" style="stroke: transparent; fill: transparent; size: 4px; stroke-width: 1; stroke-linecap: round; stroke-linejoin: round;"></line><text dx="0" dy="11.969999999999999" x="193.74299854041232" y="286"><tspan x="193.74299854041232" dx="0" text-anchor="middle" style="fill: rgb(153, 153, 153); font-size: 14px; font-family: inherit; stroke: transparent; letter-spacing: normal; padding: 8px; stroke-width: 0;">2018</tspan></text></g><g role="presentation"><line x1="306.2197363619777" x2="306.2197363619777" y1="274" y2="34" role="presentation" shape-rendering="auto" vector-effect="non-scaling-stroke" style="stroke: transparent; fill: transparent; stroke-width: 1; stroke-linecap: round; stroke-linejoin: round; pointer-events: none;"></line><line x1="306.2197363619777" x2="306.2197363619777" y1="274" y2="278" role="presentation" shape-rendering="auto" vector-effect="non-scaling-stroke" style="stroke: transparent; fill: transparent; size: 4px; stroke-width: 1; stroke-linecap: round; stroke-linejoin: round;"></line><text dx="0" dy="11.969999999999999" x="306.2197363619777" y="286"><tspan x="306.2197363619777" dx="0" text-anchor="middle" style="fill: rgb(153, 153, 153); font-size: 14px; font-family: inherit; stroke: transparent; letter-spacing: normal; padding: 8px; stroke-width: 0;">2019</tspan></text></g><g role="presentation"><line x1="418.69647418354316" x2="418.69647418354316" y1="274" y2="34" role="presentation" shape-rendering="auto" vector-effect="non-scaling-stroke" style="stroke: transparent; fill: transparent; stroke-width: 1; stroke-linecap: round; stroke-linejoin: round; pointer-events: none;"></line><line x1="418.69647418354316" x2="418.69647418354316" y1="274" y2="278" role="presentation" shape-rendering="auto" vector-effect="non-scaling-stroke" style="stroke: transparent; fill: transparent; size: 4px; stroke-width: 1; stroke-linecap: round; stroke-linejoin: round;"></line><text dx="0" dy="11.969999999999999" x="418.69647418354316" y="286"><tspan x="418.69647418354316" dx="0" text-anchor="middle" style="fill: rgb(153, 153, 153); font-size: 14px; font-family: inherit; stroke: transparent; letter-spacing: normal; padding: 8px; stroke-width: 0;">2020</tspan></text></g><g role="presentation"><line x1="531.4813674511951" x2="531.4813674511951" y1="274" y2="34" role="presentation" shape-rendering="auto" vector-effect="non-scaling-stroke" style="stroke: transparent; fill: transparent; stroke-width: 1; stroke-linecap: round; stroke-linejoin: round; pointer-events: none;"></line><line x1="531.4813674511951" x2="531.4813674511951" y1="274" y2="278" role="presentation" shape-rendering="auto" vector-effect="non-scaling-stroke" style="stroke: transparent; fill: transparent; size: 4px; stroke-width: 1; stroke-linecap: round; stroke-linejoin: round;"></line><text dx="0" dy="11.969999999999999" x="531.4813674511951" y="286"><tspan x="531.4813674511951" dx="0" text-anchor="middle" style="fill: rgb(153, 153, 153); font-size: 14px; font-family: inherit; stroke: transparent; letter-spacing: normal; padding: 8px; stroke-width: 0;">2021</tspan></text></g></g><g role="presentation"><line x1="578" x2="578" y1="34" y2="274" role="presentation" shape-rendering="auto" vector-effect="non-scaling-stroke" style="stroke: transparent; fill: transparent; stroke-width: 1; stroke-linejoin: round;"></line><g role="presentation"><line x1="578" x2="15" y1="274" y2="274" role="presentation" shape-rendering="auto" vector-effect="non-scaling-stroke" style="stroke: rgb(226, 226, 226); fill: transparent; stroke-width: 1; stroke-linecap: round; stroke-linejoin: round; pointer-events: none;"></line><line x1="578" x2="582" y1="274" y2="274" role="presentation" shape-rendering="auto" vector-effect="non-scaling-stroke" style="stroke: transparent; fill: transparent; size: 4px; stroke-width: 1; stroke-linecap: round; stroke-linejoin: round;"></line><text dx="0" dy="4.97" x="590" y="274"><tspan x="590" dx="0" text-anchor="start" style="fill: rgb(153, 153, 153); font-size: 14px; font-family: inherit; stroke: transparent; letter-spacing: normal; padding: 8px; stroke-width: 0;">$200K</tspan></text></g><g role="presentation"><line x1="578" x2="15" y1="214" y2="214" role="presentation" shape-rendering="auto" vector-effect="non-scaling-stroke" style="stroke: rgb(226, 226, 226); fill: transparent; stroke-width: 1; stroke-linecap: round; stroke-linejoin: round; pointer-events: none;"></line><line x1="578" x2="582" y1="214" y2="214" role="presentation" shape-rendering="auto" vector-effect="non-scaling-stroke" style="stroke: transparent; fill: transparent; size: 4px; stroke-width: 1; stroke-linecap: round; stroke-linejoin: round;"></line><text dx="0" dy="4.97" x="590" y="214"><tspan x="590" dx="0" text-anchor="start" style="fill: rgb(153, 153, 153); font-size: 14px; font-family: inherit; stroke: transparent; letter-spacing: normal; padding: 8px; stroke-width: 0;">$250K</tspan></text></g><g role="presentation"><line x1="578" x2="15" y1="154" y2="154" role="presentation" shape-rendering="auto" vector-effect="non-scaling-stroke" style="stroke: rgb(226, 226, 226); fill: transparent; stroke-width: 1; stroke-linecap: round; stroke-linejoin: round; pointer-events: none;"></line><line x1="578" x2="582" y1="154" y2="154" role="presentation" shape-rendering="auto" vector-effect="non-scaling-stroke" style="stroke: transparent; fill: transparent; size: 4px; stroke-width: 1; stroke-linecap: round; stroke-linejoin: round;"></line><text dx="0" dy="4.97" x="590" y="154"><tspan x="590" dx="0" text-anchor="start" style="fill: rgb(153, 153, 153); font-size: 14px; font-family: inherit; stroke: transparent; letter-spacing: normal; padding: 8px; stroke-width: 0;">$300K</tspan></text></g><g role="presentation"><line x1="578" x2="15" y1="94" y2="94" role="presentation" shape-rendering="auto" vector-effect="non-scaling-stroke" style="stroke: rgb(226, 226, 226); fill: transparent; stroke-width: 1; stroke-linecap: round; stroke-linejoin: round; pointer-events: none;"></line><line x1="578" x2="582" y1="94" y2="94" role="presentation" shape-rendering="auto" vector-effect="non-scaling-stroke" style="stroke: transparent; fill: transparent; size: 4px; stroke-width: 1; stroke-linecap: round; stroke-linejoin: round;"></line><text dx="0" dy="4.97" x="590" y="94"><tspan x="590" dx="0" text-anchor="start" style="fill: rgb(153, 153, 153); font-size: 14px; font-family: inherit; stroke: transparent; letter-spacing: normal; padding: 8px; stroke-width: 0;">$350K</tspan></text></g><g role="presentation"><line x1="578" x2="15" y1="34" y2="34" role="presentation" shape-rendering="auto" vector-effect="non-scaling-stroke" style="stroke: rgb(226, 226, 226); fill: transparent; stroke-width: 1; stroke-linecap: round; stroke-linejoin: round; pointer-events: none;"></line><line x1="578" x2="582" y1="34" y2="34" role="presentation" shape-rendering="auto" vector-effect="non-scaling-stroke" style="stroke: transparent; fill: transparent; size: 4px; stroke-width: 1; stroke-linecap: round; stroke-linejoin: round;"></line><text dx="0" dy="4.97" x="590" y="34"><tspan x="590" dx="0" text-anchor="start" style="fill: rgb(153, 153, 153); font-size: 14px; font-family: inherit; stroke: transparent; letter-spacing: normal; padding: 8px; stroke-width: 0;">$400K</tspan></text></g></g><g style="height: 100%; width: 100%; user-select: none;"><defs><clipPath id="victory-clip-5"><rect x="15" y="34" width="563" height="240"></rect></clipPath></defs><g clip-path="url(#victory-clip-5)"><path shape-rendering="auto" role="presentation" d="M24.5528188286809,208C27.73709177157453,214.3,30.921364714468165,220.6,34.1056376573618,220.6C37.28991060025543,220.6,40.47418354314906,220.4,43.658456486042695,220C46.7400109469075,219.61290322580646,49.821565407772304,213.10000000000002,52.90311986863711,213.10000000000002C56.08739281153075,213.10000000000002,59.271665754424376,223.006,62.45593869731801,223.006C65.54177309493402,223.006,68.62760749255003,216.4,71.71344189016602,216.4C74.89771483305965,216.4,78.0819877759533,223.70000000000002,81.26626071884692,232C84.45053366174056,240.3,87.63480660463419,266.2,90.81907954752783,266.2C93.69519704433499,266.2,96.57131454114213,232,99.44743203794928,232C102.62742504409171,232,105.80741805023415,244,108.98741105637657,244C112.06896551724138,244,115.15051997810617,232.47593865679534,118.23207443897098,226C121.41634738186463,219.30819672131148,124.60062032475825,204.4,127.7848932676519,204.4C130.8664477285167,204.4,133.9480021893815,207.20000000000002,137.02955665024632,212.8C140.21382959313993,218.58666666666667,143.39810253603358,256.6,146.5823754789272,256.6C149.76664842182083,256.6,152.95092136471445,178,156.1351943076081,178C159.2167487684729,178,162.2983032293377,201.09618191433103,165.37985769020253,211.72C168.56413063309614,222.69794535519122,171.74840357598978,242.68,174.9326765188834,242.68C178.0185109164994,242.68,181.10434531411542,233.8,184.19017971173142,233.8C187.37445265462506,233.8,190.55872559751867,250,193.74299854041232,250C196.92727148330596,250,200.1115444261996,245.0174334140436,203.29581736909324,238C206.1719348659004,231.66167304537998,209.04805236270755,218.79795614189445,211.9241698595147,211.6C215.10416286565712,203.64154551573282,218.28415587179956,193.6,221.46414887794197,193.6C224.5457033388068,193.6,227.62725779967158,208,230.7088122605364,208C233.89308520343002,208,237.07735814632366,204.4,240.26163108921727,204.4C243.3431855500821,204.4,246.4247400109469,223.9,249.5062944718117,223.9C252.69056741470536,223.9,255.874840357599,190,259.05911330049264,190C262.2433862433863,190,265.42765918627987,228.4,268.6119321291735,228.4C271.69348659003833,228.4,274.7750410509031,216.4,277.8565955117679,216.4C281.04086845466156,216.4,284.22514139755515,230.14,287.4094143404488,230.14C290.4952487380648,230.14,293.58108313568084,178,296.66691753329684,178C299.8511904761905,178,303.03546341908407,198.61599999999999,306.2197363619777,199.4896C309.40400930487135,200.3632,312.588282247765,199.9264,315.77255519065864,200.8C318.6486726874658,201.58905806451614,321.52479018427294,206.1834453961354,324.4009076810801,209.2C327.58090068722254,212.53526796230858,330.76089369336495,220,333.94088669950736,220C337.0224411603722,220,340.10399562123695,187.60000000000002,343.18555008210177,187.60000000000002C346.3698230249954,187.60000000000002,349.55409596788905,198.4,352.7383689107827,198.4C355.8199233716475,198.4,358.9014778325123,184,361.9830322933771,184C365.16730523627075,184,368.35157817916433,199.6,371.535851122058,199.6C374.7201240649516,199.6,377.90439700784526,196.8251573770492,381.0886699507389,194.8C384.1702244116037,192.840170280275,387.2517788724685,187.726,390.3333333333333,187.726C393.51760627622696,187.726,396.7018792191206,210.5476,399.88615216201424,210.5476C402.97198655963024,210.5476,406.0578209572463,200.41810238100481,409.1436553548623,196C412.32792829775593,191.4409595402669,415.5122012406495,183.7,418.69647418354316,183.7C421.8807471264368,183.7,425.0650200693304,198.49,428.24929301222403,198.49C431.22812899106003,198.49,434.206964969896,197.2,437.185800948732,197.2C440.3657939548744,197.2,443.54578696101686,209.2,446.72577996715927,209.2C449.8073344280241,209.2,452.8888888888889,174.45999999999998,455.97044334975374,174.45999999999998C459.1547162926473,174.45999999999998,462.33898923554096,176.36939890710383,465.52326217843455,178C468.6048166392994,179.57800105764147,471.6863711001642,184,474.767925561029,184C477.95219850392266,184,481.1364714468163,172,484.32074438970994,172C487.50501733260353,172,490.68929027549717,205.60000000000002,493.87356321839076,205.60000000000002C496.9551176792556,205.60000000000002,500.0366721401204,189.7677419354839,503.1182266009852,185.2C506.3024995438788,180.48,509.48677248677245,182.3943332402379,512.671045429666,178.12C515.7568798272821,173.97780340562957,518.8427142248981,160.3,521.9285486225142,160.3C525.1128215654078,160.3,528.2970945083015,162.1162,531.4813674511951,162.1162C534.6656403940887,162.1162,537.8499133369824,152.6393665859564,541.0341862798759,149.2C543.9103037766831,146.09347534171678,546.7864212734902,144.9783311852912,549.6625387702974,142C552.8425317764398,138.7069939424533,556.0225247825822,130,559.2025177887247,130C562.2840722495895,130,565.3656267104543,135.5242,568.4471811713191,135.5242C571.6314541142127,135.5242,574.8157270571064,132.7621,578,130" style="fill: transparent; stroke: rgb(51, 51, 51); stroke-width: 2; opacity: 1;"></path></g></g></svg>