<svg xmlns="http://www.w3.org/2000/svg" width="640" height="324" role="img" aria-labelledby="victory-container-1-title victory-container-1-desc" viewBox="0 0 640 324" style="pointer-events: all; width: 100%; height: 100%;"><g role="presentation"><line x1="15" x2="578" y1="274" y2="274" role="presentation" shape-rendering="auto" vector-effect="non-scaling-stroke" style="stroke: rgb(226, 226, 226); fill: transparent; stroke-width: 1; stroke-linejoin: round;"></line><g role="presentation"><line x1="81.26626071884692" x2="81.26626071884692" y1="274" y2="34" role="presentation" shape-rendering="auto" vector-effect="non-scaling-stroke" style="stroke: transparent; fill: transparent; stroke-width: 1; stroke-linecap: round; stroke-linejoin: round; pointer-events: none;"></line><line x1="81.26626071884692" x2="81.26626071884692" y1="274" y2="278" role="presentation" shape-rendering="auto" vector-effect="non-scaling-stroke" style="stroke: transparent; fill: transparent; size: 4px; stroke-width: 1; stroke-linecap: round; stroke-linejoin: round;"></line><text dx="0" dy="11.969999999999999" x="81.26626071884692" y="286"><tspan x="81.26626071884692" dx="0" text-anchor="middle" style="fill: rgb(153, 153, 153); font-size: 14px; font-family: inherit; stroke: transparent; letter-spacing: normal; padding: 8px; stroke-width: 0;">2017</tspan></text></g><g role="presentation"><line x1="193.74299854041232" x2="193.74299854041232" y1="274" y2="34" role="presentation" shape-rendering="auto" vector-effect="non-scaling-stroke" style="stroke: transparent; fill: transparent; stroke-width: 1; stroke-linecap: round; stroke-linejoin: round; pointer-events: none;"></line><line x1="193.74299854041232" x2="193.74299854041232" y1="274" y2="278" role="presentation" shape-rendering="auto" vector-effect="non-scaling-stroke" style="stroke: transparent; fill: transparent; size: 4px; stroke-width: 1; stroke-linecap: round; stroke-linejoin: round;"></line><text dx="0" dy="11.969999999999999" x="193.74299854041232" y="286"><tspan x="193.74299854041232" dx="0" text-anchor="middle" style="fill: rgb(153, 153, 153); font-size: 14px; font-family: inherit; stroke: transparent; letter-spacing: normal; padding: 8px; stroke-width: 0;">2018</tspan></text></g><g role="presentation"><line x1="306.2197363619777" x2="306.2197363619777" y1="274" y2="34" role="presentation" shape-rendering="auto" vector-effect="non-scaling-stroke" style="stroke: transparent; fill: transparent; stroke-width: 1; stroke-linecap: round; stroke-linejoin: round; pointer-events: none;"></line><line x1="306.2197363619777" x2="306.2197363619777" y1="274" y2="278" role="presentation" shape-rendering="auto" vector-effect="non-scaling-stroke" style="stroke: transparent; fill: transparent; size: 4px; stroke-width: 1; stroke-linecap: round; stroke-linejoin: round;"></line><text dx="0" dy="11.969999999999999" x="306.2197363619777" y="286"><tspan x="306.2197363619777" dx="0" text-anchor="middle" style="fill: rgb(153, 153, 153); font-size: 14px; font-family: inherit; stroke: transparent; letter-spacing: normal; padding: 8px; stroke-width: 0;">2019</tspan></text></g><g role="presentation"><line x1="418.69647418354316" x2="418.69647418354316" y1="274" y2="34" role="presentation" shape-rendering="auto" vector-effect="non-scaling-stroke" style="stroke: transparent; fill: transparent; stroke-width: 1; stroke-linecap: round; stroke-linejoin: round; pointer-events: none;"></line><line x1="418.69647418354316" x2="418.69647418354316" y1="274" y2="278" role="presentation" shape-rendering="auto" vector-effect="non-scaling-stroke" style="stroke: transparent; fill: transparent; size: 4px; stroke-width: 1; stroke-linecap: round; stroke-linejoin: round;"></line><text dx="0" dy="11.969999999999999" x="418.69647418354316" y="286"><tspan x="418.69647418354316" dx="0" text-anchor="middle" style="fill: rgb(153, 153, 153); font-size: 14px; font-family: inherit; stroke: transparent; letter-spacing: normal; padding: 8px; stroke-width: 0;">2020</tspan></text></g><g role="presentation"><line x1="531.4813674511951" x2="531.4813674511951" y1="274" y2="34" role="presentation" shape-rendering="auto" vector-effect="non-scaling-stroke" style="stroke: transparent; fill: transparent; stroke-width: 1; stroke-linecap: round; stroke-linejoin: round; pointer-events: none;"></line><line x1="531.4813674511951" x2="531.4813674511951" y1="274" y2="278" role="presentation" shape-rendering="auto" vector-effect="non-scaling-stroke" style="stroke: transparent; fill: transparent; size: 4px; stroke-width: 1; stroke-linecap: round; stroke-linejoin: round;"></line><text dx="0" dy="11.969999999999999" x="531.4813674511951" y="286"><tspan x="531.4813674511951" dx="0" text-anchor="middle" style="fill: rgb(153, 153, 153); font-size: 14px; font-family: inherit; stroke: transparent; letter-spacing: normal; padding: 8px; stroke-width: 0;">2021</tspan></text></g></g><g role="presentation"><line x1="578" x2="578" y1="34" y2="274" role="presentation" shape-rendering="auto" vector-effect="non-scaling-stroke" style="stroke: transparent; fill: transparent; stroke-width: 1; stroke-linejoin: round;"></line><g role="presentation"><line x1="578" x2="15" y1="274" y2="274" role="presentation" shape-rendering="auto" vector-effect="non-scaling-stroke" style="stroke: rgb(226, 226, 226); fill: transparent; stroke-width: 1; stroke-linecap: round; stroke-linejoin: round; pointer-events: none;"></line><line x1="578" x2="582" y1="274" y2="274" role="presentation" shape-rendering="auto" vector-effect="non-scaling-stroke" style="stroke: transparent; fill: transparent; size: 4px; stroke-width: 1; stroke-linecap: round; stroke-linejoin: round;"></line><text dx="0" dy="4.97" x="590" y="274"><tspan x="590" dx="0" text-anchor="start" style="fill: rgb(153, 153, 153); font-size: 14px; font-family: inherit; stroke: transparent; letter-spacing: normal; padding: 8px; stroke-width: 0;">$100K</tspan></text></g><g role="presentation"><line x1="578" x2="15" y1="234" y2="234" role="presentation" shape-rendering="auto" vector-effect="non-scaling-stroke" style="stroke: rgb(226, 226, 226); fill: transparent; stroke-width: 1; stroke-linecap: round; stroke-linejoin: round; pointer-events: none;"></line><line x1="578" x2="582" y1="234" y2="234" role="presentation" shape-rendering="auto" vector-effect="non-scaling-stroke" style="stroke: transparent; fill: transparent; size: 4px; stroke-width: 1; stroke-linecap: round; stroke-linejoin: round;"></line><text dx="0" dy="4.97" x="590" y="234"><tspan x="590" dx="0" text-anchor="start" style="fill: rgb(153, 153, 153); font-size: 14px; font-family: inherit; stroke: transparent; letter-spacing: normal; padding: 8px; stroke-width: 0;">$150K</tspan></text></g><g role="presentation"><line x1="578" x2="15" y1="194" y2="194" role="presentation" shape-rendering="auto" vector-effect="non-scaling-stroke" style="stroke: rgb(226, 226, 226); fill: transparent; stroke-width: 1; stroke-linecap: round; stroke-linejoin: round; pointer-events: none;"></line><line x1="578" x2="582" y1="194" y2="194" role="presentation" shape-rendering="auto" vector-effect="non-scaling-stroke" style="stroke: transparent; fill: transparent; size: 4px; stroke-width: 1; stroke-linecap: round; stroke-linejoin: round;"></line><text dx="0" dy="4.97" x="590" y="194"><tspan x="590" dx="0" text-anchor="start" style="fill: rgb(153, 153, 153); font-size: 14px; font-family: inherit; stroke: transparent; letter-spacing: normal; padding: 8px; stroke-width: 0;">$200K</tspan></text></g><g role="presentation"><line x1="578" x2="15" y1="154" y2="154" role="presentation" shape-rendering="auto" vector-effect="non-scaling-stroke" style="stroke: rgb(226, 226, 226); fill: transparent; stroke-width: 1; stroke-linecap: round; stroke-linejoin: round; pointer-events: none;"></line><line x1="578" x2="582" y1="154" y2="154" role="presentation" shape-rendering="auto" vector-effect="non-scaling-stroke" style="stroke: transparent; fill: transparent; size: 4px; stroke-width: 1; stroke-linecap: round; stroke-linejoin: round;"></line><text dx="0" dy="4.97" x="590" y="154"><tspan x="590" dx="0" text-anchor="start" style="fill: rgb(153, 153, 153); font-size: 14px; font-family: inherit; stroke: transparent; letter-spacing: normal; padding: 8px; stroke-width: 0;">$250K</tspan></text></g><g role="presentation"><line x1="578" x2="15" y1="114" y2="114" role="presentation" shape-rendering="auto" vector-effect="non-scaling-stroke" style="stroke: rgb(226, 226, 226); fill: transparent; stroke-width: 1; stroke-linecap: round; stroke-linejoin: round; pointer-events: none;"></line><line x1="578" x2="582" y1="114" y2="114" role="presentation" shape-rendering="auto" vector-effect="non-scaling-stroke" style="stroke: transparent; fill: transparent; size: 4px; stroke-width: 1; stroke-linecap: round; stroke-linejoin: round;"></line><text dx="0" dy="4.97" x="590" y="114"><tspan x="590" dx="0" text-anchor="start" style="fill: rgb(153, 153, 153); font-size: 14px; font-family: inherit; stroke: transparent; letter-spacing: normal; padding: 8px; stroke-width: 0;">$300K</tspan></text></g><g role="presentation"><line x1="578" x2="15" y1="74" y2="74" role="presentation" shape-rendering="auto" vector-effect="non-scaling-stroke" style="stroke: rgb(226, 226, 226); fill: transparent; stroke-width: 1; stroke-linecap: round; stroke-linejoin: round; pointer-events: none;"></line><line x1="578" x2="582" y1="74" y2="74" role="presentation" shape-rendering="auto" vector-effect="non-scaling-stroke" style="stroke: transparent; fill: transparent; size: 4px; stroke-width: 1; stroke-linecap: round; stroke-linejoin: round;"></line><text dx="0" dy="4.97" x="590" y="74"><tspan x="590" dx="0" text-anchor="start" style="fill: rgb(153, 153, 153); font-size: 14px; font-family: inherit; stroke: transparent; letter-spacing: normal; padding: 8px; stroke-width: 0;">$350K</tspan></text></g><g role="presentation"><line x1="578" x2="15" y1="34" y2="34" role="presentation" shape-rendering="auto" vector-effect="non-scaling-stroke" style="stroke: rgb(226, 226, 226); fill: transparent; stroke-width: 1; stroke-linecap: round; stroke-linejoin: round; pointer-events: none;"></line><line x1="578" x2="582" y1="34" y2="34" role="presentation" shape-rendering="auto" vector-effect="non-scaling-stroke" style="stroke: transparent; fill: transparent; size: 4px; stroke-width: 1; stroke-linecap: round; stroke-linejoin: round;"></line><text dx="0" dy="4.97" x="590" y="34"><tspan x="590" dx="0" text-anchor="start" style="fill: rgb(153, 153, 153); font-size: 14px; font-family: inherit; stroke: transparent; letter-spacing: normal; padding: 8px; stroke-width: 0;">$400K</tspan></text></g></g><g style="height: 100%; width: 100%; user-select: none;"><defs><clipPath id="victory-clip-2"><rect x="15" y="34" width="563" height="240"></rect></clipPath></defs><g clip-path="url(#victory-clip-2)"><path shape-rendering="auto" role="presentation" d="M24.5528188286809,182.44C27.73709177157453,180.972,30.921364714468165,179.50400000000002,34.1056376573618,179.50400000000002C37.28991060025543,179.50400000000002,40.47418354314906,185.54127504553733,43.658456486042695,188.39999999999998C46.7400109469075,191.1665080204477,49.821565407772304,196.4,52.90311986863711,196.4C56.08739281153075,196.4,59.271665754424376,175.23828016643552,62.45593869731801,174C65.54177309493402,172.79999999999998,68.62760749255003,172.2,71.71344189016602,172.2C74.89771483305965,172.2,78.0819877759533,211.64,81.26626071884692,211.64C84.45053366174056,211.64,87.63480660463419,193.7789160613398,90.81907954752783,187.252C93.69519704433499,181.3567209768544,96.57131454114213,173.488,99.44743203794928,173.488C102.62742504409171,173.488,105.80741805023415,176,108.98741105637657,176C112.06896551724138,176,115.15051997810617,165.81799999999998,118.23207443897098,165.81799999999998C121.41634738186463,165.81799999999998,124.60062032475825,186.804,127.7848932676519,186.804C130.8664477285167,186.804,133.9480021893815,182.8,137.02955665024632,182.8C140.21382959313993,182.8,143.39810253603358,192,146.5823754789272,192C149.76664842182083,192,152.95092136471445,173.476,156.1351943076081,173.476C159.2167487684729,173.476,162.2983032293377,201.6,165.37985769020253,201.6C168.56413063309614,201.6,171.74840357598978,174,174.9326765188834,174C178.0185109164994,174,181.10434531411542,176.39999999999998,184.19017971173142,176.39999999999998C187.37445265462506,176.39999999999998,190.55872559751867,158.8,193.74299854041232,158.8C196.92727148330596,158.8,200.1115444261996,166,203.29581736909324,166C206.1719348659004,166,209.04805236270755,158.8,211.9241698595147,158.8C215.10416286565712,158.8,218.28415587179956,178.8,221.46414887794197,178.8C224.5457033388068,178.8,227.62725779967158,166,230.7088122605364,166C233.89308520343002,166,237.07735814632366,178.88400000000001,240.26163108921727,178.88400000000001C243.3431855500821,178.88400000000001,246.4247400109469,178.056,249.5062944718117,176.39999999999998C252.69056741470536,174.68879999999996,255.874840357599,167.208,259.05911330049264,167.208C262.2433862433863,167.208,265.42765918627987,175.2,268.6119321291735,175.2C271.69348659003833,175.2,274.7750410509031,158,277.8565955117679,158C281.04086845466156,158,284.22514139755515,163.40800000000002,287.4094143404488,163.40800000000002C290.4952487380648,163.40800000000002,293.58108313568084,154,296.66691753329684,154C299.8511904761905,154,303.03546341908407,176.40800000000002,306.2197363619777,176.40800000000002C309.40400930487135,176.40800000000002,312.588282247765,152.92285714285714,315.77255519065864,150C318.6486726874658,147.35999999999999,321.52479018427294,146.04,324.4009076810801,146.04C327.58090068722254,146.04,330.76089369336495,164.3112814814815,333.94088669950736,167.608C337.0224411603722,170.80266666666668,340.10399562123695,172.4,343.18555008210177,172.4C346.3698230249954,172.4,349.55409596788905,169.7098724954463,352.7383689107827,166C355.8199233716475,162.40980081085846,358.9014778325123,150.8,361.9830322933771,150.8C365.16730523627075,150.8,368.35157817916433,165.00000000000003,371.535851122058,165.8C374.7201240649516,166.6,377.90439700784526,167,381.0886699507389,167C384.1702244116037,167,387.2517788724685,140,390.3333333333333,140C393.51760627622696,140,396.7018792191206,142.80972546346484,399.88615216201424,145.20000000000002C402.97198655963024,147.5163816409165,406.0578209572463,154,409.1436553548623,154C412.32792829775593,154,415.5122012406495,150,418.69647418354316,150C421.8807471264368,150,425.0650200693304,154,428.24929301222403,154C431.22812899106003,154,434.206964969896,136.12312247644687,437.185800948732,133.8C440.3657939548744,131.32,443.54578696101686,130.07999999999998,446.72577996715927,130.07999999999998C449.8073344280241,130.07999999999998,452.8888888888889,154.0392,455.97044334975374,154.0392C459.1547162926473,154.0392,462.33898923554096,151.59970091074678,465.52326217843455,148.4C468.6048166392994,145.3035152476644,471.6863711001642,135.40200000000002,474.767925561029,135.40200000000002C477.95219850392266,135.40200000000002,481.1364714468163,142.8,484.32074438970994,142.8C487.50501733260353,142.8,490.68929027549717,134.08,493.87356321839076,134.08C496.9551176792556,134.08,500.0366721401204,144,503.1182266009852,144C506.3024995438788,144,509.48677248677245,126.404,512.671045429666,126.404C515.7568798272821,126.404,518.8427142248981,154,521.9285486225142,154C525.1128215654078,154,528.2970945083015,122.93133333333333,531.4813674511951,114C534.6656403940887,105.06866666666667,537.8499133369824,100.412,541.0341862798759,100.412C543.9103037766831,100.412,546.7864212734902,123.74120000000002,549.6625387702974,123.74120000000002C552.8425317764398,123.74120000000002,556.0225247825822,122.62746666666668,559.2025177887247,120.4C562.2840722495895,118.24148586810227,565.3656267104543,93.488,568.4471811713191,93.488C571.6314541142127,93.488,574.8157270571064,100.544,578,107.6" style="fill: transparent; stroke: rgb(51, 51, 51); stroke-width: 2; opacity: 1;"></path></g></g></svg>