<svg xmlns="http://www.w3.org/2000/svg" width="640" height="324" role="img" aria-labelledby="victory-container-4-title victory-container-4-desc" viewBox="0 0 640 324" style="pointer-events: all; width: 100%; height: 100%;"><g role="presentation"><line x1="15" x2="578" y1="274" y2="274" role="presentation" shape-rendering="auto" vector-effect="non-scaling-stroke" style="stroke: rgb(226, 226, 226); fill: transparent; stroke-width: 1; stroke-linejoin: round;"></line><g role="presentation"><line x1="81.26626071884692" x2="81.26626071884692" y1="274" y2="34" role="presentation" shape-rendering="auto" vector-effect="non-scaling-stroke" style="stroke: transparent; fill: transparent; stroke-width: 1; stroke-linecap: round; stroke-linejoin: round; pointer-events: none;"></line><line x1="81.26626071884692" x2="81.26626071884692" y1="274" y2="278" role="presentation" shape-rendering="auto" vector-effect="non-scaling-stroke" style="stroke: transparent; fill: transparent; size: 4px; stroke-width: 1; stroke-linecap: round; stroke-linejoin: round;"></line><text dx="0" dy="11.969999999999999" x="81.26626071884692" y="286"><tspan x="81.26626071884692" dx="0" text-anchor="middle" style="fill: rgb(153, 153, 153); font-size: 14px; font-family: inherit; stroke: transparent; letter-spacing: normal; padding: 8px; stroke-width: 0;">2017</tspan></text></g><g role="presentation"><line x1="193.74299854041232" x2="193.74299854041232" y1="274" y2="34" role="presentation" shape-rendering="auto" vector-effect="non-scaling-stroke" style="stroke: transparent; fill: transparent; stroke-width: 1; stroke-linecap: round; stroke-linejoin: round; pointer-events: none;"></line><line x1="193.74299854041232" x2="193.74299854041232" y1="274" y2="278" role="presentation" shape-rendering="auto" vector-effect="non-scaling-stroke" style="stroke: transparent; fill: transparent; size: 4px; stroke-width: 1; stroke-linecap: round; stroke-linejoin: round;"></line><text dx="0" dy="11.969999999999999" x="193.74299854041232" y="286"><tspan x="193.74299854041232" dx="0" text-anchor="middle" style="fill: rgb(153, 153, 153); font-size: 14px; font-family: inherit; stroke: transparent; letter-spacing: normal; padding: 8px; stroke-width: 0;">2018</tspan></text></g><g role="presentation"><line x1="306.2197363619777" x2="306.2197363619777" y1="274" y2="34" role="presentation" shape-rendering="auto" vector-effect="non-scaling-stroke" style="stroke: transparent; fill: transparent; stroke-width: 1; stroke-linecap: round; stroke-linejoin: round; pointer-events: none;"></line><line x1="306.2197363619777" x2="306.2197363619777" y1="274" y2="278" role="presentation" shape-rendering="auto" vector-effect="non-scaling-stroke" style="stroke: transparent; fill: transparent; size: 4px; stroke-width: 1; stroke-linecap: round; stroke-linejoin: round;"></line><text dx="0" dy="11.969999999999999" x="306.2197363619777" y="286"><tspan x="306.2197363619777" dx="0" text-anchor="middle" style="fill: rgb(153, 153, 153); font-size: 14px; font-family: inherit; stroke: transparent; letter-spacing: normal; padding: 8px; stroke-width: 0;">2019</tspan></text></g><g role="presentation"><line x1="418.69647418354316" x2="418.69647418354316" y1="274" y2="34" role="presentation" shape-rendering="auto" vector-effect="non-scaling-stroke" style="stroke: transparent; fill: transparent; stroke-width: 1; stroke-linecap: round; stroke-linejoin: round; pointer-events: none;"></line><line x1="418.69647418354316" x2="418.69647418354316" y1="274" y2="278" role="presentation" shape-rendering="auto" vector-effect="non-scaling-stroke" style="stroke: transparent; fill: transparent; size: 4px; stroke-width: 1; stroke-linecap: round; stroke-linejoin: round;"></line><text dx="0" dy="11.969999999999999" x="418.69647418354316" y="286"><tspan x="418.69647418354316" dx="0" text-anchor="middle" style="fill: rgb(153, 153, 153); font-size: 14px; font-family: inherit; stroke: transparent; letter-spacing: normal; padding: 8px; stroke-width: 0;">2020</tspan></text></g><g role="presentation"><line x1="531.4813674511951" x2="531.4813674511951" y1="274" y2="34" role="presentation" shape-rendering="auto" vector-effect="non-scaling-stroke" style="stroke: transparent; fill: transparent; stroke-width: 1; stroke-linecap: round; stroke-linejoin: round; pointer-events: none;"></line><line x1="531.4813674511951" x2="531.4813674511951" y1="274" y2="278" role="presentation" shape-rendering="auto" vector-effect="non-scaling-stroke" style="stroke: transparent; fill: transparent; size: 4px; stroke-width: 1; stroke-linecap: round; stroke-linejoin: round;"></line><text dx="0" dy="11.969999999999999" x="531.4813674511951" y="286"><tspan x="531.4813674511951" dx="0" text-anchor="middle" style="fill: rgb(153, 153, 153); font-size: 14px; font-family: inherit; stroke: transparent; letter-spacing: normal; padding: 8px; stroke-width: 0;">2021</tspan></text></g></g><g role="presentation"><line x1="578" x2="578" y1="34" y2="274" role="presentation" shape-rendering="auto" vector-effect="non-scaling-stroke" style="stroke: transparent; fill: transparent; stroke-width: 1; stroke-linejoin: round;"></line><g role="presentation"><line x1="578" x2="15" y1="274" y2="274" role="presentation" shape-rendering="auto" vector-effect="non-scaling-stroke" style="stroke: rgb(226, 226, 226); fill: transparent; stroke-width: 1; stroke-linecap: round; stroke-linejoin: round; pointer-events: none;"></line><line x1="578" x2="582" y1="274" y2="274" role="presentation" shape-rendering="auto" vector-effect="non-scaling-stroke" style="stroke: transparent; fill: transparent; size: 4px; stroke-width: 1; stroke-linecap: round; stroke-linejoin: round;"></line><text dx="0" dy="4.97" x="590" y="274"><tspan x="590" dx="0" text-anchor="start" style="fill: rgb(153, 153, 153); font-size: 14px; font-family: inherit; stroke: transparent; letter-spacing: normal; padding: 8px; stroke-width: 0;">$200K</tspan></text></g><g role="presentation"><line x1="578" x2="15" y1="214" y2="214" role="presentation" shape-rendering="auto" vector-effect="non-scaling-stroke" style="stroke: rgb(226, 226, 226); fill: transparent; stroke-width: 1; stroke-linecap: round; stroke-linejoin: round; pointer-events: none;"></line><line x1="578" x2="582" y1="214" y2="214" role="presentation" shape-rendering="auto" vector-effect="non-scaling-stroke" style="stroke: transparent; fill: transparent; size: 4px; stroke-width: 1; stroke-linecap: round; stroke-linejoin: round;"></line><text dx="0" dy="4.97" x="590" y="214"><tspan x="590" dx="0" text-anchor="start" style="fill: rgb(153, 153, 153); font-size: 14px; font-family: inherit; stroke: transparent; letter-spacing: normal; padding: 8px; stroke-width: 0;">$250K</tspan></text></g><g role="presentation"><line x1="578" x2="15" y1="154" y2="154" role="presentation" shape-rendering="auto" vector-effect="non-scaling-stroke" style="stroke: rgb(226, 226, 226); fill: transparent; stroke-width: 1; stroke-linecap: round; stroke-linejoin: round; pointer-events: none;"></line><line x1="578" x2="582" y1="154" y2="154" role="presentation" shape-rendering="auto" vector-effect="non-scaling-stroke" style="stroke: transparent; fill: transparent; size: 4px; stroke-width: 1; stroke-linecap: round; stroke-linejoin: round;"></line><text dx="0" dy="4.97" x="590" y="154"><tspan x="590" dx="0" text-anchor="start" style="fill: rgb(153, 153, 153); font-size: 14px; font-family: inherit; stroke: transparent; letter-spacing: normal; padding: 8px; stroke-width: 0;">$300K</tspan></text></g><g role="presentation"><line x1="578" x2="15" y1="94" y2="94" role="presentation" shape-rendering="auto" vector-effect="non-scaling-stroke" style="stroke: rgb(226, 226, 226); fill: transparent; stroke-width: 1; stroke-linecap: round; stroke-linejoin: round; pointer-events: none;"></line><line x1="578" x2="582" y1="94" y2="94" role="presentation" shape-rendering="auto" vector-effect="non-scaling-stroke" style="stroke: transparent; fill: transparent; size: 4px; stroke-width: 1; stroke-linecap: round; stroke-linejoin: round;"></line><text dx="0" dy="4.97" x="590" y="94"><tspan x="590" dx="0" text-anchor="start" style="fill: rgb(153, 153, 153); font-size: 14px; font-family: inherit; stroke: transparent; letter-spacing: normal; padding: 8px; stroke-width: 0;">$350K</tspan></text></g><g role="presentation"><line x1="578" x2="15" y1="34" y2="34" role="presentation" shape-rendering="auto" vector-effect="non-scaling-stroke" style="stroke: rgb(226, 226, 226); fill: transparent; stroke-width: 1; stroke-linecap: round; stroke-linejoin: round; pointer-events: none;"></line><line x1="578" x2="582" y1="34" y2="34" role="presentation" shape-rendering="auto" vector-effect="non-scaling-stroke" style="stroke: transparent; fill: transparent; size: 4px; stroke-width: 1; stroke-linecap: round; stroke-linejoin: round;"></line><text dx="0" dy="4.97" x="590" y="34"><tspan x="590" dx="0" text-anchor="start" style="fill: rgb(153, 153, 153); font-size: 14px; font-family: inherit; stroke: transparent; letter-spacing: normal; padding: 8px; stroke-width: 0;">$400K</tspan></text></g></g><g style="height: 100%; width: 100%; user-select: none;"><defs><clipPath id="victory-clip-5"><rect x="15" y="34" width="563" height="240"></rect></clipPath></defs><g clip-path="url(#victory-clip-5)"><path shape-rendering="auto" role="presentation" d="M24.5528188286809,209.2C27.73709177157453,211.582,30.921364714468165,213.964,34.1056376573618,214.0024C37.28991060025543,214.0408,40.47418354314906,214.06,43.658456486042695,214.06C46.7400109469075,214.06,49.821565407772304,209.75421470121628,52.90311986863711,202C56.08739281153075,193.98731147540983,59.271665754424376,166,62.45593869731801,166C65.54177309493402,166,68.62760749255003,223.6,71.71344189016602,223.6C74.89771483305965,223.6,78.0819877759533,216.1,81.26626071884692,208C84.45053366174056,199.9,87.63480660463419,175,90.81907954752783,175C93.69519704433499,175,96.57131454114213,213.4,99.44743203794928,213.4C102.62742504409171,213.4,105.80741805023415,190,108.98741105637657,190C112.06896551724138,190,115.15051997810617,205.24,118.23207443897098,205.24C121.41634738186463,205.24,124.60062032475825,182.8,127.7848932676519,182.8C130.8664477285167,182.8,133.9480021893815,214.2709677419355,137.02955665024632,216.4C140.21382959313993,218.6,143.39810253603358,219.7,146.5823754789272,219.7C149.76664842182083,219.7,152.95092136471445,178.6,156.1351943076081,178.6C159.2167487684729,178.6,162.2983032293377,232,165.37985769020253,232C168.56413063309614,232,171.74840357598978,190.12,174.9326765188834,190.12C178.0185109164994,190.12,181.10434531411542,205.6556822635693,184.19017971173142,216.4C187.37445265462506,227.4870629624195,190.55872559751867,256,193.74299854041232,256C196.92727148330596,256,200.1115444261996,222.7619285714286,203.29581736909324,214C206.1719348659004,206.08599999999998,209.04805236270755,202.129,211.9241698595147,202.129C215.10416286565712,202.129,218.28415587179956,206.26,221.46414887794197,206.26C224.5457033388068,206.26,227.62725779967158,194.94924378635648,230.7088122605364,187.60000000000002C233.89308520343002,180.00578142076506,237.07735814632366,161.2,240.26163108921727,161.2C243.3431855500821,161.2,246.4247400109469,186.4,249.5062944718117,186.4C252.69056741470536,186.4,255.874840357599,184.6,259.05911330049264,184.6C262.2433862433863,184.6,265.42765918627987,185.29999999999998,268.6119321291735,186.7C271.69348659003833,188.0548387096774,274.7750410509031,207.7,277.8565955117679,207.7C281.04086845466156,207.7,284.22514139755515,160,287.4094143404488,160C290.4952487380648,160,293.58108313568084,177.1830571764101,296.66691753329684,187C299.8511904761905,197.13010466123555,303.03546341908407,220,306.2197363619777,220C309.40400930487135,220,312.588282247765,212.32857142857142,315.77255519065864,211C318.6486726874658,209.79999999999998,321.52479018427294,210.4,324.4009076810801,209.2C327.58090068722254,207.87321428571428,330.76089369336495,168.4,333.94088669950736,168.4C337.0224411603722,168.4,340.10399562123695,178.3,343.18555008210177,178.3C346.3698230249954,178.3,349.55409596788905,178,352.7383689107827,178C355.8199233716475,178,358.9014778325123,178,361.9830322933771,178C365.16730523627075,178,368.35157817916433,175.94819999999999,371.535851122058,172.6492C374.7201240649516,169.3502,377.90439700784526,158.20600000000002,381.0886699507389,158.20600000000002C384.1702244116037,158.20600000000002,387.2517788724685,178.012,390.3333333333333,178.012C393.51760627622696,178.012,396.7018792191206,178.008,399.88615216201424,178C402.97198655963024,177.99224731182795,406.0578209572463,154.00197526881718,409.1436553548623,154.00119999999998C412.32792829775593,154.00039999999998,415.5122012406495,154,418.69647418354316,154C421.8807471264368,154,425.0650200693304,182.362,428.24929301222403,182.362C431.22812899106003,182.362,434.206964969896,165.16841107094524,437.185800948732,159.12040000000002C440.3657939548744,152.66397438834443,443.54578696101686,145.5604,446.72577996715927,145.5604C449.8073344280241,145.5604,452.8888888888889,170.7046,455.97044334975374,170.7046C459.1547162926473,170.7046,462.33898923554096,148,465.52326217843455,148C468.6048166392994,148,471.6863711001642,158.2,474.767925561029,158.2C477.95219850392266,158.2,481.1364714468163,148.6288,484.32074438970994,148.6288C487.50501733260353,148.6288,490.68929027549717,169.5202,493.87356321839076,169.5202C496.9551176792556,169.5202,500.0366721401204,148.60000000000002,503.1182266009852,148.60000000000002C506.3024995438788,148.60000000000002,509.48677248677245,160,512.671045429666,160C515.7568798272821,160,518.8427142248981,128.13400000000001,521.9285486225142,128.13400000000001C525.1128215654078,128.13400000000001,528.2970945083015,148,531.4813674511951,148C534.6656403940887,148,537.8499133369824,136.38310411622277,541.0341862798759,124.708C543.9103037766831,114.16274466921814,546.7864212734902,83.5,549.6625387702974,83.5C552.8425317764398,83.5,556.0225247825822,97.006,559.2025177887247,97.006C562.2840722495895,97.006,565.3656267104543,71.65,568.4471811713191,71.65C571.6314541142127,71.65,574.8157270571064,75.2944,578,78.93879999999999" style="fill: transparent; stroke: rgb(51, 51, 51); stroke-width: 2; opacity: 1;"></path></g></g></svg>