<svg xmlns="http://www.w3.org/2000/svg" width="640" height="324" role="img" aria-labelledby="victory-container-4-title victory-container-4-desc" viewBox="0 0 640 324" style="pointer-events: all; width: 100%; height: 100%;"><g role="presentation"><line x1="15" x2="578" y1="274" y2="274" role="presentation" shape-rendering="auto" vector-effect="non-scaling-stroke" style="stroke: rgb(226, 226, 226); fill: transparent; stroke-width: 1; stroke-linejoin: round;"></line><g role="presentation"><line x1="81.26626071884692" x2="81.26626071884692" y1="274" y2="34" role="presentation" shape-rendering="auto" vector-effect="non-scaling-stroke" style="stroke: transparent; fill: transparent; stroke-width: 1; stroke-linecap: round; stroke-linejoin: round; pointer-events: none;"></line><line x1="81.26626071884692" x2="81.26626071884692" y1="274" y2="278" role="presentation" shape-rendering="auto" vector-effect="non-scaling-stroke" style="stroke: transparent; fill: transparent; size: 4px; stroke-width: 1; stroke-linecap: round; stroke-linejoin: round;"></line><text dx="0" dy="11.969999999999999" x="81.26626071884692" y="286"><tspan x="81.26626071884692" dx="0" text-anchor="middle" style="fill: rgb(153, 153, 153); font-size: 14px; font-family: inherit; stroke: transparent; letter-spacing: normal; padding: 8px; stroke-width: 0;">2017</tspan></text></g><g role="presentation"><line x1="193.74299854041232" x2="193.74299854041232" y1="274" y2="34" role="presentation" shape-rendering="auto" vector-effect="non-scaling-stroke" style="stroke: transparent; fill: transparent; stroke-width: 1; stroke-linecap: round; stroke-linejoin: round; pointer-events: none;"></line><line x1="193.74299854041232" x2="193.74299854041232" y1="274" y2="278" role="presentation" shape-rendering="auto" vector-effect="non-scaling-stroke" style="stroke: transparent; fill: transparent; size: 4px; stroke-width: 1; stroke-linecap: round; stroke-linejoin: round;"></line><text dx="0" dy="11.969999999999999" x="193.74299854041232" y="286"><tspan x="193.74299854041232" dx="0" text-anchor="middle" style="fill: rgb(153, 153, 153); font-size: 14px; font-family: inherit; stroke: transparent; letter-spacing: normal; padding: 8px; stroke-width: 0;">2018</tspan></text></g><g role="presentation"><line x1="306.2197363619777" x2="306.2197363619777" y1="274" y2="34" role="presentation" shape-rendering="auto" vector-effect="non-scaling-stroke" style="stroke: transparent; fill: transparent; stroke-width: 1; stroke-linecap: round; stroke-linejoin: round; pointer-events: none;"></line><line x1="306.2197363619777" x2="306.2197363619777" y1="274" y2="278" role="presentation" shape-rendering="auto" vector-effect="non-scaling-stroke" style="stroke: transparent; fill: transparent; size: 4px; stroke-width: 1; stroke-linecap: round; stroke-linejoin: round;"></line><text dx="0" dy="11.969999999999999" x="306.2197363619777" y="286"><tspan x="306.2197363619777" dx="0" text-anchor="middle" style="fill: rgb(153, 153, 153); font-size: 14px; font-family: inherit; stroke: transparent; letter-spacing: normal; padding: 8px; stroke-width: 0;">2019</tspan></text></g><g role="presentation"><line x1="418.69647418354316" x2="418.69647418354316" y1="274" y2="34" role="presentation" shape-rendering="auto" vector-effect="non-scaling-stroke" style="stroke: transparent; fill: transparent; stroke-width: 1; stroke-linecap: round; stroke-linejoin: round; pointer-events: none;"></line><line x1="418.69647418354316" x2="418.69647418354316" y1="274" y2="278" role="presentation" shape-rendering="auto" vector-effect="non-scaling-stroke" style="stroke: transparent; fill: transparent; size: 4px; stroke-width: 1; stroke-linecap: round; stroke-linejoin: round;"></line><text dx="0" dy="11.969999999999999" x="418.69647418354316" y="286"><tspan x="418.69647418354316" dx="0" text-anchor="middle" style="fill: rgb(153, 153, 153); font-size: 14px; font-family: inherit; stroke: transparent; letter-spacing: normal; padding: 8px; stroke-width: 0;">2020</tspan></text></g><g role="presentation"><line x1="531.4813674511951" x2="531.4813674511951" y1="274" y2="34" role="presentation" shape-rendering="auto" vector-effect="non-scaling-stroke" style="stroke: transparent; fill: transparent; stroke-width: 1; stroke-linecap: round; stroke-linejoin: round; pointer-events: none;"></line><line x1="531.4813674511951" x2="531.4813674511951" y1="274" y2="278" role="presentation" shape-rendering="auto" vector-effect="non-scaling-stroke" style="stroke: transparent; fill: transparent; size: 4px; stroke-width: 1; stroke-linecap: round; stroke-linejoin: round;"></line><text dx="0" dy="11.969999999999999" x="531.4813674511951" y="286"><tspan x="531.4813674511951" dx="0" text-anchor="middle" style="fill: rgb(153, 153, 153); font-size: 14px; font-family: inherit; stroke: transparent; letter-spacing: normal; padding: 8px; stroke-width: 0;">2021</tspan></text></g></g><g role="presentation"><line x1="578" x2="578" y1="34" y2="274" role="presentation" shape-rendering="auto" vector-effect="non-scaling-stroke" style="stroke: transparent; fill: transparent; stroke-width: 1; stroke-linejoin: round;"></line><g role="presentation"><line x1="578" x2="15" y1="274" y2="274" role="presentation" shape-rendering="auto" vector-effect="non-scaling-stroke" style="stroke: rgb(226, 226, 226); fill: transparent; stroke-width: 1; stroke-linecap: round; stroke-linejoin: round; pointer-events: none;"></line><line x1="578" x2="582" y1="274" y2="274" role="presentation" shape-rendering="auto" vector-effect="non-scaling-stroke" style="stroke: transparent; fill: transparent; size: 4px; stroke-width: 1; stroke-linecap: round; stroke-linejoin: round;"></line><text dx="0" dy="4.97" x="590" y="274"><tspan x="590" dx="0" text-anchor="start" style="fill: rgb(153, 153, 153); font-size: 14px; font-family: inherit; stroke: transparent; letter-spacing: normal; padding: 8px; stroke-width: 0;">$100K</tspan></text></g><g role="presentation"><line x1="578" x2="15" y1="234" y2="234" role="presentation" shape-rendering="auto" vector-effect="non-scaling-stroke" style="stroke: rgb(226, 226, 226); fill: transparent; stroke-width: 1; stroke-linecap: round; stroke-linejoin: round; pointer-events: none;"></line><line x1="578" x2="582" y1="234" y2="234" role="presentation" shape-rendering="auto" vector-effect="non-scaling-stroke" style="stroke: transparent; fill: transparent; size: 4px; stroke-width: 1; stroke-linecap: round; stroke-linejoin: round;"></line><text dx="0" dy="4.97" x="590" y="234"><tspan x="590" dx="0" text-anchor="start" style="fill: rgb(153, 153, 153); font-size: 14px; font-family: inherit; stroke: transparent; letter-spacing: normal; padding: 8px; stroke-width: 0;">$150K</tspan></text></g><g role="presentation"><line x1="578" x2="15" y1="194" y2="194" role="presentation" shape-rendering="auto" vector-effect="non-scaling-stroke" style="stroke: rgb(226, 226, 226); fill: transparent; stroke-width: 1; stroke-linecap: round; stroke-linejoin: round; pointer-events: none;"></line><line x1="578" x2="582" y1="194" y2="194" role="presentation" shape-rendering="auto" vector-effect="non-scaling-stroke" style="stroke: transparent; fill: transparent; size: 4px; stroke-width: 1; stroke-linecap: round; stroke-linejoin: round;"></line><text dx="0" dy="4.97" x="590" y="194"><tspan x="590" dx="0" text-anchor="start" style="fill: rgb(153, 153, 153); font-size: 14px; font-family: inherit; stroke: transparent; letter-spacing: normal; padding: 8px; stroke-width: 0;">$200K</tspan></text></g><g role="presentation"><line x1="578" x2="15" y1="154" y2="154" role="presentation" shape-rendering="auto" vector-effect="non-scaling-stroke" style="stroke: rgb(226, 226, 226); fill: transparent; stroke-width: 1; stroke-linecap: round; stroke-linejoin: round; pointer-events: none;"></line><line x1="578" x2="582" y1="154" y2="154" role="presentation" shape-rendering="auto" vector-effect="non-scaling-stroke" style="stroke: transparent; fill: transparent; size: 4px; stroke-width: 1; stroke-linecap: round; stroke-linejoin: round;"></line><text dx="0" dy="4.97" x="590" y="154"><tspan x="590" dx="0" text-anchor="start" style="fill: rgb(153, 153, 153); font-size: 14px; font-family: inherit; stroke: transparent; letter-spacing: normal; padding: 8px; stroke-width: 0;">$250K</tspan></text></g><g role="presentation"><line x1="578" x2="15" y1="114" y2="114" role="presentation" shape-rendering="auto" vector-effect="non-scaling-stroke" style="stroke: rgb(226, 226, 226); fill: transparent; stroke-width: 1; stroke-linecap: round; stroke-linejoin: round; pointer-events: none;"></line><line x1="578" x2="582" y1="114" y2="114" role="presentation" shape-rendering="auto" vector-effect="non-scaling-stroke" style="stroke: transparent; fill: transparent; size: 4px; stroke-width: 1; stroke-linecap: round; stroke-linejoin: round;"></line><text dx="0" dy="4.97" x="590" y="114"><tspan x="590" dx="0" text-anchor="start" style="fill: rgb(153, 153, 153); font-size: 14px; font-family: inherit; stroke: transparent; letter-spacing: normal; padding: 8px; stroke-width: 0;">$300K</tspan></text></g><g role="presentation"><line x1="578" x2="15" y1="74" y2="74" role="presentation" shape-rendering="auto" vector-effect="non-scaling-stroke" style="stroke: rgb(226, 226, 226); fill: transparent; stroke-width: 1; stroke-linecap: round; stroke-linejoin: round; pointer-events: none;"></line><line x1="578" x2="582" y1="74" y2="74" role="presentation" shape-rendering="auto" vector-effect="non-scaling-stroke" style="stroke: transparent; fill: transparent; size: 4px; stroke-width: 1; stroke-linecap: round; stroke-linejoin: round;"></line><text dx="0" dy="4.97" x="590" y="74"><tspan x="590" dx="0" text-anchor="start" style="fill: rgb(153, 153, 153); font-size: 14px; font-family: inherit; stroke: transparent; letter-spacing: normal; padding: 8px; stroke-width: 0;">$350K</tspan></text></g><g role="presentation"><line x1="578" x2="15" y1="34" y2="34" role="presentation" shape-rendering="auto" vector-effect="non-scaling-stroke" style="stroke: rgb(226, 226, 226); fill: transparent; stroke-width: 1; stroke-linecap: round; stroke-linejoin: round; pointer-events: none;"></line><line x1="578" x2="582" y1="34" y2="34" role="presentation" shape-rendering="auto" vector-effect="non-scaling-stroke" style="stroke: transparent; fill: transparent; size: 4px; stroke-width: 1; stroke-linecap: round; stroke-linejoin: round;"></line><text dx="0" dy="4.97" x="590" y="34"><tspan x="590" dx="0" text-anchor="start" style="fill: rgb(153, 153, 153); font-size: 14px; font-family: inherit; stroke: transparent; letter-spacing: normal; padding: 8px; stroke-width: 0;">$400K</tspan></text></g></g><g style="height: 100%; width: 100%; user-select: none;"><defs><clipPath id="victory-clip-5"><rect x="15" y="34" width="563" height="240"></rect></clipPath></defs><g clip-path="url(#victory-clip-5)"><path shape-rendering="auto" role="presentation" d="M24.5528188286809,140.6908C27.73709177157453,189.1454,30.921364714468165,237.6,34.1056376573618,237.6C37.28991060025543,237.6,40.47418354314906,224.01384335154827,43.658456486042695,218C46.7400109469075,212.18015159527587,49.821565407772304,202,52.90311986863711,202C56.08739281153075,202,59.271665754424376,221.44488210818307,62.45593869731801,225.6C65.54177309493402,229.62666666666667,68.62760749255003,231.64,71.71344189016602,231.64C74.89771483305965,231.64,78.0819877759533,217.68,81.26626071884692,217.68C84.45053366174056,217.68,87.63480660463419,222,90.81907954752783,222C93.69519704433499,222,96.57131454114213,212.40033683836734,99.44743203794928,201.2C102.62742504409171,188.8162942397218,105.80741805023415,148.4,108.98741105637657,148.4C112.06896551724138,148.4,115.15051997810617,237.2,118.23207443897098,237.2C121.41634738186463,237.2,124.60062032475825,209.9512568306011,127.7848932676519,192.8C130.8664477285167,176.20200951877314,133.9480021893815,136.4,137.02955665024632,136.4C140.21382959313993,136.4,143.39810253603358,206,146.5823754789272,206C149.76664842182083,206,152.95092136471445,174,156.1351943076081,174C159.2167487684729,174,162.2983032293377,198,165.37985769020253,198C168.56413063309614,198,171.74840357598978,109.20000000000002,174.9326765188834,109.20000000000002C178.0185109164994,109.20000000000002,181.10434531411542,109.46666666666668,184.19017971173142,110C187.37445265462506,110.55034674063799,190.55872559751867,248.4,193.74299854041232,248.4C196.92727148330596,248.4,200.1115444261996,244.4,203.29581736909324,236.4C206.1719348659004,229.1741935483871,209.04805236270755,193.235531628533,211.9241698595147,186C215.10416286565712,178,218.28415587179956,176.66733626996785,221.46414887794197,174C224.5457033388068,171.41523268589924,227.62725779967158,170,230.7088122605364,170C233.89308520343002,170,237.07735814632366,250,240.26163108921727,250C243.3431855500821,250,246.4247400109469,221.165873435572,249.5062944718117,212C252.69056741470536,202.52859744990891,255.874840357599,195.20000000000002,259.05911330049264,194.8C262.2433862433863,194.4,265.42765918627987,194.2,268.6119321291735,194.2C271.69348659003833,194.2,274.7750410509031,216,277.8565955117679,216C281.04086845466156,216,284.22514139755515,215.73333333333332,287.4094143404488,215.2C290.4952487380648,214.68315412186377,293.58108313568084,202.09558613160118,296.66691753329684,197.108C299.8511904761905,191.96130917904128,303.03546341908407,185,306.2197363619777,185C309.40400930487135,185,312.588282247765,238,315.77255519065864,238C318.6486726874658,238,321.52479018427294,107.67520000000002,324.4009076810801,107.67520000000002C327.58090068722254,107.67520000000002,330.76089369336495,191.98244444444444,333.94088669950736,192.808C337.0224411603722,193.608,340.10399562123695,194.008,343.18555008210177,194.008C346.3698230249954,194.008,349.55409596788905,178.00799999999998,352.7383689107827,178.00799999999998C355.8199233716475,178.00799999999998,358.9014778325123,182.84746666666666,361.9830322933771,192.5264C365.16730523627075,202.52796444444442,368.35157817916433,250,371.535851122058,250C374.7201240649516,250,377.90439700784526,236.09602914389802,381.0886699507389,226C384.1702244116037,216.22964921558258,387.2517788724685,197.76774193548385,390.3333333333333,190.8C393.51760627622696,183.6,396.7018792191206,180,399.88615216201424,180C402.97198655963024,180,406.0578209572463,210,409.1436553548623,210C412.32792829775593,210,415.5122012406495,180.04,418.69647418354316,180.04C421.8807471264368,180.04,425.0650200693304,194,428.24929301222403,194C431.22812899106003,194,434.206964969896,192.66933333333333,437.185800948732,190.008C440.3657939548744,187.1669501915709,443.54578696101686,166.8,446.72577996715927,166.8C449.8073344280241,166.8,452.8888888888889,183.13032258064513,455.97044334975374,186.8C459.1547162926473,190.592,462.33898923554096,192.488,465.52326217843455,192.488C468.6048166392994,192.488,471.6863711001642,176.36,474.767925561029,176.36C477.95219850392266,176.36,481.1364714468163,198,484.32074438970994,198C487.50501733260353,198,490.68929027549717,194.83954586520943,493.87356321839076,191.536C496.9551176792556,188.33902013044244,500.0366721401204,184.32769652741058,503.1182266009852,178.7172C506.3024995438788,172.91968692167578,509.48677248677245,157.04,512.671045429666,157.04C515.7568798272821,157.04,518.8427142248981,166,521.9285486225142,166C525.1128215654078,166,528.2970945083015,149.09666666666666,531.4813674511951,130C534.6656403940887,110.90333333333334,537.8499133369824,51.41999999999999,541.0341862798759,51.41999999999999C543.9103037766831,51.41999999999999,546.7864212734902,96.77185694819494,549.6625387702974,114C552.8425317764398,133.04837840400475,556.0225247825822,154.95376740740744,559.2025177887247,157.8256C562.2840722495895,160.60853333333333,565.3656267104543,159.21706666666668,568.4471811713191,162C571.6314541142127,164.87569777777776,574.8157270571064,171.13784888888887,578,177.39999999999998" style="fill: transparent; stroke: rgb(51, 51, 51); stroke-width: 2; opacity: 1;"></path></g></g></svg>