<svg xmlns="http://www.w3.org/2000/svg" width="640" height="324" role="img" aria-labelledby="victory-container-1-title victory-container-1-desc" viewBox="0 0 640 324" style="pointer-events: all; width: 100%; height: 100%;"><g role="presentation"><line x1="15" x2="578" y1="274" y2="274" role="presentation" shape-rendering="auto" vector-effect="non-scaling-stroke" style="stroke: rgb(226, 226, 226); fill: transparent; stroke-width: 1; stroke-linejoin: round;"></line><g role="presentation"><line x1="81.26626071884692" x2="81.26626071884692" y1="274" y2="34" role="presentation" shape-rendering="auto" vector-effect="non-scaling-stroke" style="stroke: transparent; fill: transparent; stroke-width: 1; stroke-linecap: round; stroke-linejoin: round; pointer-events: none;"></line><line x1="81.26626071884692" x2="81.26626071884692" y1="274" y2="278" role="presentation" shape-rendering="auto" vector-effect="non-scaling-stroke" style="stroke: transparent; fill: transparent; size: 4px; stroke-width: 1; stroke-linecap: round; stroke-linejoin: round;"></line><text dx="0" dy="11.969999999999999" x="81.26626071884692" y="286"><tspan x="81.26626071884692" dx="0" text-anchor="middle" style="fill: rgb(153, 153, 153); font-size: 14px; font-family: inherit; stroke: transparent; letter-spacing: normal; padding: 8px; stroke-width: 0;">2017</tspan></text></g><g role="presentation"><line x1="193.74299854041232" x2="193.74299854041232" y1="274" y2="34" role="presentation" shape-rendering="auto" vector-effect="non-scaling-stroke" style="stroke: transparent; fill: transparent; stroke-width: 1; stroke-linecap: round; stroke-linejoin: round; pointer-events: none;"></line><line x1="193.74299854041232" x2="193.74299854041232" y1="274" y2="278" role="presentation" shape-rendering="auto" vector-effect="non-scaling-stroke" style="stroke: transparent; fill: transparent; size: 4px; stroke-width: 1; stroke-linecap: round; stroke-linejoin: round;"></line><text dx="0" dy="11.969999999999999" x="193.74299854041232" y="286"><tspan x="193.74299854041232" dx="0" text-anchor="middle" style="fill: rgb(153, 153, 153); font-size: 14px; font-family: inherit; stroke: transparent; letter-spacing: normal; padding: 8px; stroke-width: 0;">2018</tspan></text></g><g role="presentation"><line x1="306.2197363619777" x2="306.2197363619777" y1="274" y2="34" role="presentation" shape-rendering="auto" vector-effect="non-scaling-stroke" style="stroke: transparent; fill: transparent; stroke-width: 1; stroke-linecap: round; stroke-linejoin: round; pointer-events: none;"></line><line x1="306.2197363619777" x2="306.2197363619777" y1="274" y2="278" role="presentation" shape-rendering="auto" vector-effect="non-scaling-stroke" style="stroke: transparent; fill: transparent; size: 4px; stroke-width: 1; stroke-linecap: round; stroke-linejoin: round;"></line><text dx="0" dy="11.969999999999999" x="306.2197363619777" y="286"><tspan x="306.2197363619777" dx="0" text-anchor="middle" style="fill: rgb(153, 153, 153); font-size: 14px; font-family: inherit; stroke: transparent; letter-spacing: normal; padding: 8px; stroke-width: 0;">2019</tspan></text></g><g role="presentation"><line x1="418.69647418354316" x2="418.69647418354316" y1="274" y2="34" role="presentation" shape-rendering="auto" vector-effect="non-scaling-stroke" style="stroke: transparent; fill: transparent; stroke-width: 1; stroke-linecap: round; stroke-linejoin: round; pointer-events: none;"></line><line x1="418.69647418354316" x2="418.69647418354316" y1="274" y2="278" role="presentation" shape-rendering="auto" vector-effect="non-scaling-stroke" style="stroke: transparent; fill: transparent; size: 4px; stroke-width: 1; stroke-linecap: round; stroke-linejoin: round;"></line><text dx="0" dy="11.969999999999999" x="418.69647418354316" y="286"><tspan x="418.69647418354316" dx="0" text-anchor="middle" style="fill: rgb(153, 153, 153); font-size: 14px; font-family: inherit; stroke: transparent; letter-spacing: normal; padding: 8px; stroke-width: 0;">2020</tspan></text></g><g role="presentation"><line x1="531.4813674511951" x2="531.4813674511951" y1="274" y2="34" role="presentation" shape-rendering="auto" vector-effect="non-scaling-stroke" style="stroke: transparent; fill: transparent; stroke-width: 1; stroke-linecap: round; stroke-linejoin: round; pointer-events: none;"></line><line x1="531.4813674511951" x2="531.4813674511951" y1="274" y2="278" role="presentation" shape-rendering="auto" vector-effect="non-scaling-stroke" style="stroke: transparent; fill: transparent; size: 4px; stroke-width: 1; stroke-linecap: round; stroke-linejoin: round;"></line><text dx="0" dy="11.969999999999999" x="531.4813674511951" y="286"><tspan x="531.4813674511951" dx="0" text-anchor="middle" style="fill: rgb(153, 153, 153); font-size: 14px; font-family: inherit; stroke: transparent; letter-spacing: normal; padding: 8px; stroke-width: 0;">2021</tspan></text></g></g><g role="presentation"><line x1="578" x2="578" y1="34" y2="274" role="presentation" shape-rendering="auto" vector-effect="non-scaling-stroke" style="stroke: transparent; fill: transparent; stroke-width: 1; stroke-linejoin: round;"></line><g role="presentation"><line x1="578" x2="15" y1="274" y2="274" role="presentation" shape-rendering="auto" vector-effect="non-scaling-stroke" style="stroke: rgb(226, 226, 226); fill: transparent; stroke-width: 1; stroke-linecap: round; stroke-linejoin: round; pointer-events: none;"></line><line x1="578" x2="582" y1="274" y2="274" role="presentation" shape-rendering="auto" vector-effect="non-scaling-stroke" style="stroke: transparent; fill: transparent; size: 4px; stroke-width: 1; stroke-linecap: round; stroke-linejoin: round;"></line><text dx="0" dy="4.97" x="590" y="274"><tspan x="590" dx="0" text-anchor="start" style="fill: rgb(153, 153, 153); font-size: 14px; font-family: inherit; stroke: transparent; letter-spacing: normal; padding: 8px; stroke-width: 0;">$200K</tspan></text></g><g role="presentation"><line x1="578" x2="15" y1="234" y2="234" role="presentation" shape-rendering="auto" vector-effect="non-scaling-stroke" style="stroke: rgb(226, 226, 226); fill: transparent; stroke-width: 1; stroke-linecap: round; stroke-linejoin: round; pointer-events: none;"></line><line x1="578" x2="582" y1="234" y2="234" role="presentation" shape-rendering="auto" vector-effect="non-scaling-stroke" style="stroke: transparent; fill: transparent; size: 4px; stroke-width: 1; stroke-linecap: round; stroke-linejoin: round;"></line><text dx="0" dy="4.97" x="590" y="234"><tspan x="590" dx="0" text-anchor="start" style="fill: rgb(153, 153, 153); font-size: 14px; font-family: inherit; stroke: transparent; letter-spacing: normal; padding: 8px; stroke-width: 0;">$250K</tspan></text></g><g role="presentation"><line x1="578" x2="15" y1="194" y2="194" role="presentation" shape-rendering="auto" vector-effect="non-scaling-stroke" style="stroke: rgb(226, 226, 226); fill: transparent; stroke-width: 1; stroke-linecap: round; stroke-linejoin: round; pointer-events: none;"></line><line x1="578" x2="582" y1="194" y2="194" role="presentation" shape-rendering="auto" vector-effect="non-scaling-stroke" style="stroke: transparent; fill: transparent; size: 4px; stroke-width: 1; stroke-linecap: round; stroke-linejoin: round;"></line><text dx="0" dy="4.97" x="590" y="194"><tspan x="590" dx="0" text-anchor="start" style="fill: rgb(153, 153, 153); font-size: 14px; font-family: inherit; stroke: transparent; letter-spacing: normal; padding: 8px; stroke-width: 0;">$300K</tspan></text></g><g role="presentation"><line x1="578" x2="15" y1="154" y2="154" role="presentation" shape-rendering="auto" vector-effect="non-scaling-stroke" style="stroke: rgb(226, 226, 226); fill: transparent; stroke-width: 1; stroke-linecap: round; stroke-linejoin: round; pointer-events: none;"></line><line x1="578" x2="582" y1="154" y2="154" role="presentation" shape-rendering="auto" vector-effect="non-scaling-stroke" style="stroke: transparent; fill: transparent; size: 4px; stroke-width: 1; stroke-linecap: round; stroke-linejoin: round;"></line><text dx="0" dy="4.97" x="590" y="154"><tspan x="590" dx="0" text-anchor="start" style="fill: rgb(153, 153, 153); font-size: 14px; font-family: inherit; stroke: transparent; letter-spacing: normal; padding: 8px; stroke-width: 0;">$350K</tspan></text></g><g role="presentation"><line x1="578" x2="15" y1="114" y2="114" role="presentation" shape-rendering="auto" vector-effect="non-scaling-stroke" style="stroke: rgb(226, 226, 226); fill: transparent; stroke-width: 1; stroke-linecap: round; stroke-linejoin: round; pointer-events: none;"></line><line x1="578" x2="582" y1="114" y2="114" role="presentation" shape-rendering="auto" vector-effect="non-scaling-stroke" style="stroke: transparent; fill: transparent; size: 4px; stroke-width: 1; stroke-linecap: round; stroke-linejoin: round;"></line><text dx="0" dy="4.97" x="590" y="114"><tspan x="590" dx="0" text-anchor="start" style="fill: rgb(153, 153, 153); font-size: 14px; font-family: inherit; stroke: transparent; letter-spacing: normal; padding: 8px; stroke-width: 0;">$400K</tspan></text></g><g role="presentation"><line x1="578" x2="15" y1="74" y2="74" role="presentation" shape-rendering="auto" vector-effect="non-scaling-stroke" style="stroke: rgb(226, 226, 226); fill: transparent; stroke-width: 1; stroke-linecap: round; stroke-linejoin: round; pointer-events: none;"></line><line x1="578" x2="582" y1="74" y2="74" role="presentation" shape-rendering="auto" vector-effect="non-scaling-stroke" style="stroke: transparent; fill: transparent; size: 4px; stroke-width: 1; stroke-linecap: round; stroke-linejoin: round;"></line><text dx="0" dy="4.97" x="590" y="74"><tspan x="590" dx="0" text-anchor="start" style="fill: rgb(153, 153, 153); font-size: 14px; font-family: inherit; stroke: transparent; letter-spacing: normal; padding: 8px; stroke-width: 0;">$450K</tspan></text></g><g role="presentation"><line x1="578" x2="15" y1="34" y2="34" role="presentation" shape-rendering="auto" vector-effect="non-scaling-stroke" style="stroke: rgb(226, 226, 226); fill: transparent; stroke-width: 1; stroke-linecap: round; stroke-linejoin: round; pointer-events: none;"></line><line x1="578" x2="582" y1="34" y2="34" role="presentation" shape-rendering="auto" vector-effect="non-scaling-stroke" style="stroke: transparent; fill: transparent; size: 4px; stroke-width: 1; stroke-linecap: round; stroke-linejoin: round;"></line><text dx="0" dy="4.97" x="590" y="34"><tspan x="590" dx="0" text-anchor="start" style="fill: rgb(153, 153, 153); font-size: 14px; font-family: inherit; stroke: transparent; letter-spacing: normal; padding: 8px; stroke-width: 0;">$500K</tspan></text></g></g><g style="height: 100%; width: 100%; user-select: none;"><defs><clipPath id="victory-clip-2"><rect x="15" y="34" width="563" height="240"></rect></clipPath></defs><g clip-path="url(#victory-clip-2)"><path shape-rendering="auto" role="presentation" d="M24.5528188286809,180.8C27.73709177157453,192.5,30.921364714468165,204.2,34.1056376573618,204.2C37.28991060025543,204.2,40.47418354314906,198,43.658456486042695,198C46.7400109469075,198,49.821565407772304,200.4,52.90311986863711,200.4C56.08739281153075,200.4,59.271665754424376,190.8,62.45593869731801,190.8C65.54177309493402,190.8,68.62760749255003,220.57053405017922,71.71344189016602,226C74.89771483305965,231.60266666666666,78.0819877759533,234.404,81.26626071884692,234.404C84.45053366174056,234.404,87.63480660463419,214.48330669895077,90.81907954752783,208.804C93.69519704433499,203.67430362675415,96.57131454114213,205.93716283934705,99.44743203794928,200.4C102.62742504409171,194.27780953923383,105.80741805023415,172,108.98741105637657,172C112.06896551724138,172,115.15051997810617,180.61047065044954,118.23207443897098,187.60000000000002C121.41634738186463,194.8225136612022,124.60062032475825,215,127.7848932676519,215C130.8664477285167,215,133.9480021893815,182.004,137.02955665024632,182.004C140.21382959313993,182.004,143.39810253603358,188.60066666666668,146.5823754789272,196.12C149.76664842182083,203.63933333333335,152.95092136471445,227.12,156.1351943076081,227.12C159.2167487684729,227.12,162.2983032293377,225.1437193724661,165.37985769020253,221.8C168.56413063309614,218.34482331511842,171.74840357598978,213.22238544304696,174.9326765188834,206.404C178.0185109164994,199.79639797790745,181.10434531411542,189.96920201781103,184.19017971173142,181.82999999999998C187.37445265462506,173.4311563089439,190.55872559751867,156.8,193.74299854041232,156.8C196.92727148330596,156.8,200.1115444261996,222,203.29581736909324,222C206.1719348659004,222,209.04805236270755,216,211.9241698595147,204C215.10416286565712,190.73214285714292,218.28415587179956,138,221.46414887794197,138C224.5457033388068,138,227.62725779967158,150.43699354838708,230.7088122605364,151.2068C233.89308520343002,152.00226666666666,237.07735814632366,151.6045333333333,240.26163108921727,152.39999999999998C243.3431855500821,153.16980645161289,246.4247400109469,200,249.5062944718117,200C252.69056741470536,200,255.874840357599,177.73333333333332,259.05911330049264,170.00799999999998C262.2433862433863,162.2826666666667,265.42765918627987,153.64800000000002,268.6119321291735,153.64800000000002C271.69348659003833,153.64800000000002,274.7750410509031,184.75299277278336,277.8565955117679,194C281.04086845466156,203.55524080145716,284.22514139755515,209.2,287.4094143404488,209.2C290.4952487380648,209.2,293.58108313568084,179.02212903225808,296.66691753329684,177.208C299.8511904761905,175.336,303.03546341908407,174.4,306.2197363619777,174.4C309.40400930487135,174.4,312.588282247765,210,315.77255519065864,210C318.6486726874658,210,321.52479018427294,209.2,324.4009076810801,207.6C327.58090068722254,205.8309523809524,330.76089369336495,191.43526733500417,333.94088669950736,184C337.0224411603722,176.7948957184347,340.10399562123695,163.6,343.18555008210177,163.6C346.3698230249954,163.6,349.55409596788905,164.46666666666667,352.7383689107827,166.2C355.8199233716475,167.87741935483868,358.9014778325123,171.88757271285033,361.9830322933771,180C365.16730523627075,188.38284153005463,368.35157817916433,216.4,371.535851122058,216.4C374.7201240649516,216.4,377.90439700784526,197.00790528233154,381.0886699507389,190.4C384.1702244116037,184.00525295258242,387.2517788724685,180.38046888771373,390.3333333333333,177C393.51760627622696,173.50684881602913,396.7018792191206,170,399.88615216201424,170C402.97198655963024,170,406.0578209572463,201.5624,409.1436553548623,201.5624C412.32792829775593,201.5624,415.5122012406495,185.12706666666665,418.69647418354316,177.2C421.8807471264368,169.27293333333333,425.0650200693304,154,428.24929301222403,154C431.22812899106003,154,434.206964969896,179.48000000000002,437.185800948732,179.48000000000002C440.3657939548744,179.48000000000002,443.54578696101686,169.25000135566188,446.72577996715927,164C449.8073344280241,158.91251550999115,452.8888888888889,148.48399999999998,455.97044334975374,148.48399999999998C459.1547162926473,148.48399999999998,462.33898923554096,178,465.52326217843455,178C468.6048166392994,178,471.6863711001642,171.95134849286092,474.767925561029,166C477.95219850392266,159.85027322404372,481.1364714468163,141.3,484.32074438970994,141.3C487.50501733260353,141.3,490.68929027549717,164,493.87356321839076,164C496.9551176792556,164,500.0366721401204,158,503.1182266009852,158C506.3024995438788,158,509.48677248677245,193.9,512.671045429666,193.9C515.7568798272821,193.9,518.8427142248981,173.26666128420618,521.9285486225142,166C525.1128215654078,158.50153121296907,528.2970945083015,150,531.4813674511951,150C534.6656403940887,150,537.8499133369824,158.39999999999998,541.0341862798759,158.39999999999998C543.9103037766831,158.39999999999998,546.7864212734902,143.91400000000002,549.6625387702974,143.91400000000002C552.8425317764398,143.91400000000002,556.0225247825822,165.2,559.2025177887247,165.2C562.2840722495895,165.2,565.3656267104543,164.13333333333333,568.4471811713191,162C571.6314541142127,159.79555555555558,574.8157270571064,132.9597777777778,578,106.124" style="fill: transparent; stroke: rgb(51, 51, 51); stroke-width: 2; opacity: 1;"></path></g></g></svg>