<svg xmlns="http://www.w3.org/2000/svg" width="640" height="324" role="img" aria-labelledby="victory-container-4-title victory-container-4-desc" viewBox="0 0 640 324" style="pointer-events: all; width: 100%; height: 100%;"><g role="presentation"><line x1="15" x2="578" y1="274" y2="274" role="presentation" shape-rendering="auto" vector-effect="non-scaling-stroke" style="stroke: rgb(226, 226, 226); fill: transparent; stroke-width: 1; stroke-linejoin: round;"></line><g role="presentation"><line x1="81.26626071884692" x2="81.26626071884692" y1="274" y2="34" role="presentation" shape-rendering="auto" vector-effect="non-scaling-stroke" style="stroke: transparent; fill: transparent; stroke-width: 1; stroke-linecap: round; stroke-linejoin: round; pointer-events: none;"></line><line x1="81.26626071884692" x2="81.26626071884692" y1="274" y2="278" role="presentation" shape-rendering="auto" vector-effect="non-scaling-stroke" style="stroke: transparent; fill: transparent; size: 4px; stroke-width: 1; stroke-linecap: round; stroke-linejoin: round;"></line><text dx="0" dy="11.969999999999999" x="81.26626071884692" y="286"><tspan x="81.26626071884692" dx="0" text-anchor="middle" style="fill: rgb(153, 153, 153); font-size: 14px; font-family: inherit; stroke: transparent; letter-spacing: normal; padding: 8px; stroke-width: 0;">2017</tspan></text></g><g role="presentation"><line x1="193.74299854041232" x2="193.74299854041232" y1="274" y2="34" role="presentation" shape-rendering="auto" vector-effect="non-scaling-stroke" style="stroke: transparent; fill: transparent; stroke-width: 1; stroke-linecap: round; stroke-linejoin: round; pointer-events: none;"></line><line x1="193.74299854041232" x2="193.74299854041232" y1="274" y2="278" role="presentation" shape-rendering="auto" vector-effect="non-scaling-stroke" style="stroke: transparent; fill: transparent; size: 4px; stroke-width: 1; stroke-linecap: round; stroke-linejoin: round;"></line><text dx="0" dy="11.969999999999999" x="193.74299854041232" y="286"><tspan x="193.74299854041232" dx="0" text-anchor="middle" style="fill: rgb(153, 153, 153); font-size: 14px; font-family: inherit; stroke: transparent; letter-spacing: normal; padding: 8px; stroke-width: 0;">2018</tspan></text></g><g role="presentation"><line x1="306.2197363619777" x2="306.2197363619777" y1="274" y2="34" role="presentation" shape-rendering="auto" vector-effect="non-scaling-stroke" style="stroke: transparent; fill: transparent; stroke-width: 1; stroke-linecap: round; stroke-linejoin: round; pointer-events: none;"></line><line x1="306.2197363619777" x2="306.2197363619777" y1="274" y2="278" role="presentation" shape-rendering="auto" vector-effect="non-scaling-stroke" style="stroke: transparent; fill: transparent; size: 4px; stroke-width: 1; stroke-linecap: round; stroke-linejoin: round;"></line><text dx="0" dy="11.969999999999999" x="306.2197363619777" y="286"><tspan x="306.2197363619777" dx="0" text-anchor="middle" style="fill: rgb(153, 153, 153); font-size: 14px; font-family: inherit; stroke: transparent; letter-spacing: normal; padding: 8px; stroke-width: 0;">2019</tspan></text></g><g role="presentation"><line x1="418.69647418354316" x2="418.69647418354316" y1="274" y2="34" role="presentation" shape-rendering="auto" vector-effect="non-scaling-stroke" style="stroke: transparent; fill: transparent; stroke-width: 1; stroke-linecap: round; stroke-linejoin: round; pointer-events: none;"></line><line x1="418.69647418354316" x2="418.69647418354316" y1="274" y2="278" role="presentation" shape-rendering="auto" vector-effect="non-scaling-stroke" style="stroke: transparent; fill: transparent; size: 4px; stroke-width: 1; stroke-linecap: round; stroke-linejoin: round;"></line><text dx="0" dy="11.969999999999999" x="418.69647418354316" y="286"><tspan x="418.69647418354316" dx="0" text-anchor="middle" style="fill: rgb(153, 153, 153); font-size: 14px; font-family: inherit; stroke: transparent; letter-spacing: normal; padding: 8px; stroke-width: 0;">2020</tspan></text></g><g role="presentation"><line x1="531.4813674511951" x2="531.4813674511951" y1="274" y2="34" role="presentation" shape-rendering="auto" vector-effect="non-scaling-stroke" style="stroke: transparent; fill: transparent; stroke-width: 1; stroke-linecap: round; stroke-linejoin: round; pointer-events: none;"></line><line x1="531.4813674511951" x2="531.4813674511951" y1="274" y2="278" role="presentation" shape-rendering="auto" vector-effect="non-scaling-stroke" style="stroke: transparent; fill: transparent; size: 4px; stroke-width: 1; stroke-linecap: round; stroke-linejoin: round;"></line><text dx="0" dy="11.969999999999999" x="531.4813674511951" y="286"><tspan x="531.4813674511951" dx="0" text-anchor="middle" style="fill: rgb(153, 153, 153); font-size: 14px; font-family: inherit; stroke: transparent; letter-spacing: normal; padding: 8px; stroke-width: 0;">2021</tspan></text></g></g><g role="presentation"><line x1="578" x2="578" y1="34" y2="274" role="presentation" shape-rendering="auto" vector-effect="non-scaling-stroke" style="stroke: transparent; fill: transparent; stroke-width: 1; stroke-linejoin: round;"></line><g role="presentation"><line x1="578" x2="15" y1="274" y2="274" role="presentation" shape-rendering="auto" vector-effect="non-scaling-stroke" style="stroke: rgb(226, 226, 226); fill: transparent; stroke-width: 1; stroke-linecap: round; stroke-linejoin: round; pointer-events: none;"></line><line x1="578" x2="582" y1="274" y2="274" role="presentation" shape-rendering="auto" vector-effect="non-scaling-stroke" style="stroke: transparent; fill: transparent; size: 4px; stroke-width: 1; stroke-linecap: round; stroke-linejoin: round;"></line><text dx="0" dy="4.97" x="590" y="274"><tspan x="590" dx="0" text-anchor="start" style="fill: rgb(153, 153, 153); font-size: 14px; font-family: inherit; stroke: transparent; letter-spacing: normal; padding: 8px; stroke-width: 0;">$100K</tspan></text></g><g role="presentation"><line x1="578" x2="15" y1="226" y2="226" role="presentation" shape-rendering="auto" vector-effect="non-scaling-stroke" style="stroke: rgb(226, 226, 226); fill: transparent; stroke-width: 1; stroke-linecap: round; stroke-linejoin: round; pointer-events: none;"></line><line x1="578" x2="582" y1="226" y2="226" role="presentation" shape-rendering="auto" vector-effect="non-scaling-stroke" style="stroke: transparent; fill: transparent; size: 4px; stroke-width: 1; stroke-linecap: round; stroke-linejoin: round;"></line><text dx="0" dy="4.97" x="590" y="226"><tspan x="590" dx="0" text-anchor="start" style="fill: rgb(153, 153, 153); font-size: 14px; font-family: inherit; stroke: transparent; letter-spacing: normal; padding: 8px; stroke-width: 0;">$200K</tspan></text></g><g role="presentation"><line x1="578" x2="15" y1="178" y2="178" role="presentation" shape-rendering="auto" vector-effect="non-scaling-stroke" style="stroke: rgb(226, 226, 226); fill: transparent; stroke-width: 1; stroke-linecap: round; stroke-linejoin: round; pointer-events: none;"></line><line x1="578" x2="582" y1="178" y2="178" role="presentation" shape-rendering="auto" vector-effect="non-scaling-stroke" style="stroke: transparent; fill: transparent; size: 4px; stroke-width: 1; stroke-linecap: round; stroke-linejoin: round;"></line><text dx="0" dy="4.97" x="590" y="178"><tspan x="590" dx="0" text-anchor="start" style="fill: rgb(153, 153, 153); font-size: 14px; font-family: inherit; stroke: transparent; letter-spacing: normal; padding: 8px; stroke-width: 0;">$300K</tspan></text></g><g role="presentation"><line x1="578" x2="15" y1="130" y2="130" role="presentation" shape-rendering="auto" vector-effect="non-scaling-stroke" style="stroke: rgb(226, 226, 226); fill: transparent; stroke-width: 1; stroke-linecap: round; stroke-linejoin: round; pointer-events: none;"></line><line x1="578" x2="582" y1="130" y2="130" role="presentation" shape-rendering="auto" vector-effect="non-scaling-stroke" style="stroke: transparent; fill: transparent; size: 4px; stroke-width: 1; stroke-linecap: round; stroke-linejoin: round;"></line><text dx="0" dy="4.97" x="590" y="130"><tspan x="590" dx="0" text-anchor="start" style="fill: rgb(153, 153, 153); font-size: 14px; font-family: inherit; stroke: transparent; letter-spacing: normal; padding: 8px; stroke-width: 0;">$400K</tspan></text></g><g role="presentation"><line x1="578" x2="15" y1="82" y2="82" role="presentation" shape-rendering="auto" vector-effect="non-scaling-stroke" style="stroke: rgb(226, 226, 226); fill: transparent; stroke-width: 1; stroke-linecap: round; stroke-linejoin: round; pointer-events: none;"></line><line x1="578" x2="582" y1="82" y2="82" role="presentation" shape-rendering="auto" vector-effect="non-scaling-stroke" style="stroke: transparent; fill: transparent; size: 4px; stroke-width: 1; stroke-linecap: round; stroke-linejoin: round;"></line><text dx="0" dy="4.97" x="590" y="82"><tspan x="590" dx="0" text-anchor="start" style="fill: rgb(153, 153, 153); font-size: 14px; font-family: inherit; stroke: transparent; letter-spacing: normal; padding: 8px; stroke-width: 0;">$500K</tspan></text></g><g role="presentation"><line x1="578" x2="15" y1="34" y2="34" role="presentation" shape-rendering="auto" vector-effect="non-scaling-stroke" style="stroke: rgb(226, 226, 226); fill: transparent; stroke-width: 1; stroke-linecap: round; stroke-linejoin: round; pointer-events: none;"></line><line x1="578" x2="582" y1="34" y2="34" role="presentation" shape-rendering="auto" vector-effect="non-scaling-stroke" style="stroke: transparent; fill: transparent; size: 4px; stroke-width: 1; stroke-linecap: round; stroke-linejoin: round;"></line><text dx="0" dy="4.97" x="590" y="34"><tspan x="590" dx="0" text-anchor="start" style="fill: rgb(153, 153, 153); font-size: 14px; font-family: inherit; stroke: transparent; letter-spacing: normal; padding: 8px; stroke-width: 0;">$600K</tspan></text></g></g><g style="height: 100%; width: 100%; user-select: none;"><defs><clipPath id="victory-clip-5"><rect x="15" y="34" width="563" height="240"></rect></clipPath></defs><g clip-path="url(#victory-clip-5)"><path shape-rendering="auto" role="presentation" d="M24.5528188286809,142C27.73709177157453,165.6,30.921364714468165,189.20000000000002,34.1056376573618,197.68C37.28991060025543,206.16,40.47418354314906,204.23969398907104,43.658456486042695,210.4C46.7400109469075,216.36158646218934,49.821565407772304,233.68,52.90311986863711,233.68C56.08739281153075,233.68,59.271665754424376,216.4,62.45593869731801,216.4C65.54177309493402,216.4,68.62760749255003,217.20000000000002,71.71344189016602,218.8C74.89771483305965,220.451040221914,78.0819877759533,229.12,81.26626071884692,229.12C84.45053366174056,229.12,87.63480660463419,177.28,90.81907954752783,177.28C93.69519704433499,177.28,96.57131454114213,208.1652638096914,99.44743203794928,218.8C102.62742504409171,230.55834671041563,105.80741805023415,242.32,108.98741105637657,242.32C112.06896551724138,242.32,115.15051997810617,205.60000000000002,118.23207443897098,205.60000000000002C121.41634738186463,205.60000000000002,124.60062032475825,217.336,127.7848932676519,217.336C130.8664477285167,217.336,133.9480021893815,205.84,137.02955665024632,205.84C140.21382959313993,205.84,143.39810253603358,226,146.5823754789272,226C149.76664842182083,226,152.95092136471445,225.988,156.1351943076081,225.964C159.2167487684729,225.94077419354838,162.2983032293377,132.4,165.37985769020253,132.4C168.56413063309614,132.4,171.74840357598978,233.00799999999998,174.9326765188834,233.00799999999998C178.0185109164994,233.00799999999998,181.10434531411542,214,184.19017971173142,214C187.37445265462506,214,190.55872559751867,238.84,193.74299854041232,238.84C196.92727148330596,238.84,200.1115444261996,216.88,203.29581736909324,216.88C206.1719348659004,216.88,209.04805236270755,231.28,211.9241698595147,231.28C215.10416286565712,231.28,218.28415587179956,209.66611422222218,221.46414887794197,207.51999999999998C224.5457033388068,205.44032,227.62725779967158,204.40048000000002,230.7088122605364,204.40048000000002C233.89308520343002,204.40048000000002,237.07735814632366,221.8,240.26163108921727,221.8C243.3431855500821,221.8,246.4247400109469,191.97419354838706,249.5062944718117,191.2C252.69056741470536,190.4,255.874840357599,190,259.05911330049264,190C262.2433862433863,190,265.42765918627987,191.55383606557376,268.6119321291735,192.16C271.69348659003833,192.74661025912215,274.7750410509031,192.64,277.8565955117679,193.6C281.04086845466156,194.59199999999998,284.22514139755515,223.6,287.4094143404488,223.6C290.4952487380648,223.6,293.58108313568084,211.13168241036368,296.66691753329684,204.44799999999998C299.8511904761905,197.551107193744,303.03546341908407,182.8,306.2197363619777,182.8C309.40400930487135,182.8,312.588282247765,196.71472,315.77255519065864,196.71472C318.6486726874658,196.71472,321.52479018427294,163.648,324.4009076810801,163.648C327.58090068722254,163.648,330.76089369336495,194.0687777777778,333.94088669950736,199.6C337.0224411603722,204.95999999999998,340.10399562123695,207.64,343.18555008210177,207.64C346.3698230249954,207.64,349.55409596788905,197.68,352.7383689107827,197.68C355.8199233716475,197.68,358.9014778325123,215.07999999999998,361.9830322933771,215.07999999999998C365.16730523627075,215.07999999999998,368.35157817916433,215,371.535851122058,214.84C374.7201240649516,214.68,377.90439700784526,177.04,381.0886699507389,177.04C384.1702244116037,177.04,387.2517788724685,204.9016,390.3333333333333,204.9016C393.51760627622696,204.9016,396.7018792191206,108.904,399.88615216201424,108.904C402.97198655963024,108.904,406.0578209572463,138.27192103196447,409.1436553548623,146.82399999999998C412.32792829775593,155.64889147325712,415.5122012406495,153.84400000000002,418.69647418354316,160.24C421.8807471264368,166.636,425.0650200693304,183.31862068965515,428.24929301222403,185.2C431.22812899106003,186.96,434.206964969896,186.62446506050915,437.185800948732,187.84C440.3657939548744,189.1376184770714,443.54578696101686,189.52,446.72577996715927,192.88C449.8073344280241,196.13598923283985,452.8888888888889,217.6,455.97044334975374,217.6C459.1547162926473,217.6,462.33898923554096,150.39999999999998,465.52326217843455,150.39999999999998C468.6048166392994,150.39999999999998,471.6863711001642,178,474.767925561029,178C477.95219850392266,178,481.1364714468163,170.8,484.32074438970994,170.8C487.50501733260353,170.8,490.68929027549717,185.248,493.87356321839076,185.248C496.9551176792556,185.248,500.0366721401204,137.44,503.1182266009852,137.44C506.3024995438788,137.44,509.48677248677245,142.0213939494351,512.671045429666,146.07999999999998C515.7568798272821,150.01313839039966,518.8427142248981,152.7264323094424,521.9285486225142,161.2C525.1128215654078,169.94387567513832,528.2970945083015,198.4,531.4813674511951,198.4C534.6656403940887,198.4,537.8499133369824,140.83999999999997,541.0341862798759,139.6C543.9103037766831,138.48000000000002,546.7864212734902,139.04,549.6625387702974,137.92000000000002C552.8425317764398,136.6816666666667,556.0225247825822,65.19999999999999,559.2025177887247,65.19999999999999C562.2840722495895,65.19999999999999,565.3656267104543,106.34140666314116,568.4471811713191,122.80000000000001C571.6314541142127,139.807213114754,574.8157270571064,152.423606557377,578,165.04" style="fill: transparent; stroke: rgb(51, 51, 51); stroke-width: 2; opacity: 1;"></path></g></g></svg>