<svg xmlns="http://www.w3.org/2000/svg" width="640" height="324" role="img" aria-labelledby="victory-container-1-title victory-container-1-desc" viewBox="0 0 640 324" style="pointer-events: all; width: 100%; height: 100%;"><g role="presentation"><line x1="15" x2="578" y1="274" y2="274" role="presentation" shape-rendering="auto" vector-effect="non-scaling-stroke" style="stroke: rgb(226, 226, 226); fill: transparent; stroke-width: 1; stroke-linejoin: round;"></line><g role="presentation"><line x1="81.26626071884692" x2="81.26626071884692" y1="274" y2="34" role="presentation" shape-rendering="auto" vector-effect="non-scaling-stroke" style="stroke: transparent; fill: transparent; stroke-width: 1; stroke-linecap: round; stroke-linejoin: round; pointer-events: none;"></line><line x1="81.26626071884692" x2="81.26626071884692" y1="274" y2="278" role="presentation" shape-rendering="auto" vector-effect="non-scaling-stroke" style="stroke: transparent; fill: transparent; size: 4px; stroke-width: 1; stroke-linecap: round; stroke-linejoin: round;"></line><text dx="0" dy="11.969999999999999" x="81.26626071884692" y="286"><tspan x="81.26626071884692" dx="0" text-anchor="middle" style="fill: rgb(153, 153, 153); font-size: 14px; font-family: inherit; stroke: transparent; letter-spacing: normal; padding: 8px; stroke-width: 0;">2017</tspan></text></g><g role="presentation"><line x1="193.74299854041232" x2="193.74299854041232" y1="274" y2="34" role="presentation" shape-rendering="auto" vector-effect="non-scaling-stroke" style="stroke: transparent; fill: transparent; stroke-width: 1; stroke-linecap: round; stroke-linejoin: round; pointer-events: none;"></line><line x1="193.74299854041232" x2="193.74299854041232" y1="274" y2="278" role="presentation" shape-rendering="auto" vector-effect="non-scaling-stroke" style="stroke: transparent; fill: transparent; size: 4px; stroke-width: 1; stroke-linecap: round; stroke-linejoin: round;"></line><text dx="0" dy="11.969999999999999" x="193.74299854041232" y="286"><tspan x="193.74299854041232" dx="0" text-anchor="middle" style="fill: rgb(153, 153, 153); font-size: 14px; font-family: inherit; stroke: transparent; letter-spacing: normal; padding: 8px; stroke-width: 0;">2018</tspan></text></g><g role="presentation"><line x1="306.2197363619777" x2="306.2197363619777" y1="274" y2="34" role="presentation" shape-rendering="auto" vector-effect="non-scaling-stroke" style="stroke: transparent; fill: transparent; stroke-width: 1; stroke-linecap: round; stroke-linejoin: round; pointer-events: none;"></line><line x1="306.2197363619777" x2="306.2197363619777" y1="274" y2="278" role="presentation" shape-rendering="auto" vector-effect="non-scaling-stroke" style="stroke: transparent; fill: transparent; size: 4px; stroke-width: 1; stroke-linecap: round; stroke-linejoin: round;"></line><text dx="0" dy="11.969999999999999" x="306.2197363619777" y="286"><tspan x="306.2197363619777" dx="0" text-anchor="middle" style="fill: rgb(153, 153, 153); font-size: 14px; font-family: inherit; stroke: transparent; letter-spacing: normal; padding: 8px; stroke-width: 0;">2019</tspan></text></g><g role="presentation"><line x1="418.69647418354316" x2="418.69647418354316" y1="274" y2="34" role="presentation" shape-rendering="auto" vector-effect="non-scaling-stroke" style="stroke: transparent; fill: transparent; stroke-width: 1; stroke-linecap: round; stroke-linejoin: round; pointer-events: none;"></line><line x1="418.69647418354316" x2="418.69647418354316" y1="274" y2="278" role="presentation" shape-rendering="auto" vector-effect="non-scaling-stroke" style="stroke: transparent; fill: transparent; size: 4px; stroke-width: 1; stroke-linecap: round; stroke-linejoin: round;"></line><text dx="0" dy="11.969999999999999" x="418.69647418354316" y="286"><tspan x="418.69647418354316" dx="0" text-anchor="middle" style="fill: rgb(153, 153, 153); font-size: 14px; font-family: inherit; stroke: transparent; letter-spacing: normal; padding: 8px; stroke-width: 0;">2020</tspan></text></g><g role="presentation"><line x1="531.4813674511951" x2="531.4813674511951" y1="274" y2="34" role="presentation" shape-rendering="auto" vector-effect="non-scaling-stroke" style="stroke: transparent; fill: transparent; stroke-width: 1; stroke-linecap: round; stroke-linejoin: round; pointer-events: none;"></line><line x1="531.4813674511951" x2="531.4813674511951" y1="274" y2="278" role="presentation" shape-rendering="auto" vector-effect="non-scaling-stroke" style="stroke: transparent; fill: transparent; size: 4px; stroke-width: 1; stroke-linecap: round; stroke-linejoin: round;"></line><text dx="0" dy="11.969999999999999" x="531.4813674511951" y="286"><tspan x="531.4813674511951" dx="0" text-anchor="middle" style="fill: rgb(153, 153, 153); font-size: 14px; font-family: inherit; stroke: transparent; letter-spacing: normal; padding: 8px; stroke-width: 0;">2021</tspan></text></g></g><g role="presentation"><line x1="578" x2="578" y1="34" y2="274" role="presentation" shape-rendering="auto" vector-effect="non-scaling-stroke" style="stroke: transparent; fill: transparent; stroke-width: 1; stroke-linejoin: round;"></line><g role="presentation"><line x1="578" x2="15" y1="274" y2="274" role="presentation" shape-rendering="auto" vector-effect="non-scaling-stroke" style="stroke: rgb(226, 226, 226); fill: transparent; stroke-width: 1; stroke-linecap: round; stroke-linejoin: round; pointer-events: none;"></line><line x1="578" x2="582" y1="274" y2="274" role="presentation" shape-rendering="auto" vector-effect="non-scaling-stroke" style="stroke: transparent; fill: transparent; size: 4px; stroke-width: 1; stroke-linecap: round; stroke-linejoin: round;"></line><text dx="0" dy="4.97" x="590" y="274"><tspan x="590" dx="0" text-anchor="start" style="fill: rgb(153, 153, 153); font-size: 14px; font-family: inherit; stroke: transparent; letter-spacing: normal; padding: 8px; stroke-width: 0;">$200K</tspan></text></g><g role="presentation"><line x1="578" x2="15" y1="234" y2="234" role="presentation" shape-rendering="auto" vector-effect="non-scaling-stroke" style="stroke: rgb(226, 226, 226); fill: transparent; stroke-width: 1; stroke-linecap: round; stroke-linejoin: round; pointer-events: none;"></line><line x1="578" x2="582" y1="234" y2="234" role="presentation" shape-rendering="auto" vector-effect="non-scaling-stroke" style="stroke: transparent; fill: transparent; size: 4px; stroke-width: 1; stroke-linecap: round; stroke-linejoin: round;"></line><text dx="0" dy="4.97" x="590" y="234"><tspan x="590" dx="0" text-anchor="start" style="fill: rgb(153, 153, 153); font-size: 14px; font-family: inherit; stroke: transparent; letter-spacing: normal; padding: 8px; stroke-width: 0;">$250K</tspan></text></g><g role="presentation"><line x1="578" x2="15" y1="194" y2="194" role="presentation" shape-rendering="auto" vector-effect="non-scaling-stroke" style="stroke: rgb(226, 226, 226); fill: transparent; stroke-width: 1; stroke-linecap: round; stroke-linejoin: round; pointer-events: none;"></line><line x1="578" x2="582" y1="194" y2="194" role="presentation" shape-rendering="auto" vector-effect="non-scaling-stroke" style="stroke: transparent; fill: transparent; size: 4px; stroke-width: 1; stroke-linecap: round; stroke-linejoin: round;"></line><text dx="0" dy="4.97" x="590" y="194"><tspan x="590" dx="0" text-anchor="start" style="fill: rgb(153, 153, 153); font-size: 14px; font-family: inherit; stroke: transparent; letter-spacing: normal; padding: 8px; stroke-width: 0;">$300K</tspan></text></g><g role="presentation"><line x1="578" x2="15" y1="154" y2="154" role="presentation" shape-rendering="auto" vector-effect="non-scaling-stroke" style="stroke: rgb(226, 226, 226); fill: transparent; stroke-width: 1; stroke-linecap: round; stroke-linejoin: round; pointer-events: none;"></line><line x1="578" x2="582" y1="154" y2="154" role="presentation" shape-rendering="auto" vector-effect="non-scaling-stroke" style="stroke: transparent; fill: transparent; size: 4px; stroke-width: 1; stroke-linecap: round; stroke-linejoin: round;"></line><text dx="0" dy="4.97" x="590" y="154"><tspan x="590" dx="0" text-anchor="start" style="fill: rgb(153, 153, 153); font-size: 14px; font-family: inherit; stroke: transparent; letter-spacing: normal; padding: 8px; stroke-width: 0;">$350K</tspan></text></g><g role="presentation"><line x1="578" x2="15" y1="114" y2="114" role="presentation" shape-rendering="auto" vector-effect="non-scaling-stroke" style="stroke: rgb(226, 226, 226); fill: transparent; stroke-width: 1; stroke-linecap: round; stroke-linejoin: round; pointer-events: none;"></line><line x1="578" x2="582" y1="114" y2="114" role="presentation" shape-rendering="auto" vector-effect="non-scaling-stroke" style="stroke: transparent; fill: transparent; size: 4px; stroke-width: 1; stroke-linecap: round; stroke-linejoin: round;"></line><text dx="0" dy="4.97" x="590" y="114"><tspan x="590" dx="0" text-anchor="start" style="fill: rgb(153, 153, 153); font-size: 14px; font-family: inherit; stroke: transparent; letter-spacing: normal; padding: 8px; stroke-width: 0;">$400K</tspan></text></g><g role="presentation"><line x1="578" x2="15" y1="74" y2="74" role="presentation" shape-rendering="auto" vector-effect="non-scaling-stroke" style="stroke: rgb(226, 226, 226); fill: transparent; stroke-width: 1; stroke-linecap: round; stroke-linejoin: round; pointer-events: none;"></line><line x1="578" x2="582" y1="74" y2="74" role="presentation" shape-rendering="auto" vector-effect="non-scaling-stroke" style="stroke: transparent; fill: transparent; size: 4px; stroke-width: 1; stroke-linecap: round; stroke-linejoin: round;"></line><text dx="0" dy="4.97" x="590" y="74"><tspan x="590" dx="0" text-anchor="start" style="fill: rgb(153, 153, 153); font-size: 14px; font-family: inherit; stroke: transparent; letter-spacing: normal; padding: 8px; stroke-width: 0;">$450K</tspan></text></g><g role="presentation"><line x1="578" x2="15" y1="34" y2="34" role="presentation" shape-rendering="auto" vector-effect="non-scaling-stroke" style="stroke: rgb(226, 226, 226); fill: transparent; stroke-width: 1; stroke-linecap: round; stroke-linejoin: round; pointer-events: none;"></line><line x1="578" x2="582" y1="34" y2="34" role="presentation" shape-rendering="auto" vector-effect="non-scaling-stroke" style="stroke: transparent; fill: transparent; size: 4px; stroke-width: 1; stroke-linecap: round; stroke-linejoin: round;"></line><text dx="0" dy="4.97" x="590" y="34"><tspan x="590" dx="0" text-anchor="start" style="fill: rgb(153, 153, 153); font-size: 14px; font-family: inherit; stroke: transparent; letter-spacing: normal; padding: 8px; stroke-width: 0;">$500K</tspan></text></g></g><g style="height: 100%; width: 100%; user-select: none;"><defs><clipPath id="victory-clip-2"><rect x="15" y="34" width="563" height="240"></rect></clipPath></defs><g clip-path="url(#victory-clip-2)"><path shape-rendering="auto" role="presentation" d="M15.30815544608648,173.6C18.389709906951285,166.82,21.471264367816094,160.04000000000002,24.5528188286809,160.04000000000002C27.73709177157453,160.04000000000002,30.921364714468165,186,34.1056376573618,186C37.28991060025543,186,40.47418354314906,177.43059380692168,43.658456486042695,174C46.7400109469075,170.68007050943064,49.821565407772304,165.64,52.90311986863711,165.64C56.08739281153075,165.64,59.271665754424376,176.2617605872264,62.45593869731801,179.60000000000002C65.54177309493402,182.83504115135725,68.62760749255003,185.6,71.71344189016602,185.6C74.89771483305965,185.6,78.0819877759533,184,81.26626071884692,184C84.45053366174056,184,87.63480660463419,184.08,90.81907954752783,184.24C93.69519704433499,184.38451612903228,96.57131454114213,228.4,99.44743203794928,228.4C102.62742504409171,228.4,105.80741805023415,190,108.98741105637657,190C112.06896551724138,190,115.15051997810617,206,118.23207443897098,206C121.41634738186463,206,124.60062032475825,171.3484043715847,127.7848932676519,154.14C130.8664477285167,137.4867054468535,133.9480021893815,104.4,137.02955665024632,104.4C140.21382959313993,104.4,143.39810253603358,162,146.5823754789272,162C149.76664842182083,162,152.95092136471445,136.4,156.1351943076081,136.4C159.2167487684729,136.4,162.2983032293377,219.6,165.37985769020253,219.6C168.56413063309614,219.6,171.74840357598978,198.17496518392636,174.9326765188834,187.2C178.0185109164994,176.56431465374874,181.10434531411542,154.8,184.19017971173142,154.8C187.37445265462506,154.8,190.55872559751867,212.8,193.74299854041232,212.8C196.92727148330596,212.8,200.1115444261996,183.03809523809522,203.29581736909324,179.2C206.1719348659004,175.73333333333332,209.04805236270755,177.46666666666667,211.9241698595147,174C215.10416286565712,170.1670634920635,218.28415587179956,166.5746838054732,221.46414887794197,154C224.5457033388068,141.81457289375402,227.62725779967158,100.80000000000001,230.7088122605364,100.80000000000001C233.89308520343002,100.80000000000001,237.07735814632366,114.49023679417125,240.26163108921727,124C243.3431855500821,133.20299665080205,246.4247400109469,152.7290322580645,249.5062944718117,156.6C252.69056741470536,160.6,255.874840357599,162.6,259.05911330049264,162.6C262.2433862433863,162.6,265.42765918627987,142,268.6119321291735,142C271.69348659003833,142,274.7750410509031,170.84,277.8565955117679,170.84C281.04086845466156,170.84,284.22514139755515,142.8,287.4094143404488,142.8C290.4952487380648,142.8,293.58108313568084,201,296.66691753329684,201C299.8511904761905,201,303.03546341908407,179.36666666666665,306.2197363619777,172C309.40400930487135,164.6333333333333,312.588282247765,156.8,315.77255519065864,156.8C318.6486726874658,156.8,321.52479018427294,159,324.4009076810801,159C327.58090068722254,159,330.76089369336495,158,333.94088669950736,158C337.0224411603722,158,340.10399562123695,162.8,343.18555008210177,162.8C346.3698230249954,162.8,349.55409596788905,138.04,352.7383689107827,138.04C355.8199233716475,138.04,358.9014778325123,151.2,361.9830322933771,151.2C365.16730523627075,151.2,368.35157817916433,118,371.535851122058,118C374.7201240649516,118,377.90439700784526,182.4,381.0886699507389,182.4C384.1702244116037,182.4,387.2517788724685,144.3248,390.3333333333333,144.3248C393.51760627622696,144.3248,396.7018792191206,186,399.88615216201424,186C402.97198655963024,186,406.0578209572463,184.66666666666666,409.1436553548623,182C412.32792829775593,179.24826629681002,415.5122012406495,157,418.69647418354316,157C421.8807471264368,157,425.0650200693304,162,428.24929301222403,162C431.22812899106003,162,434.206964969896,137.9178805629626,437.185800948732,130C440.3657939548744,121.5474349737339,443.54578696101686,114.03999999999999,446.72577996715927,114.03999999999999C449.8073344280241,114.03999999999999,452.8888888888889,162,455.97044334975374,162C459.1547162926473,162,462.33898923554096,154.79927140255003,465.52326217843455,149.2C468.6048166392994,143.78135025559666,471.6863711001642,136.64932134673012,474.767925561029,129.2C477.95219850392266,121.50236794171221,481.1364714468163,103.60000000000002,484.32074438970994,103.60000000000002C487.50501733260353,103.60000000000002,490.68929027549717,117.95540983606567,493.87356321839076,126.80000000000001C496.9551176792556,135.35928080380756,500.0366721401204,155.6,503.1182266009852,155.6C506.3024995438788,155.6,509.48677248677245,98.08000000000001,512.671045429666,98.08000000000001C515.7568798272821,98.08000000000001,518.8427142248981,138.79999999999998,521.9285486225142,138.79999999999998C525.1128215654078,138.79999999999998,528.2970945083015,108,531.4813674511951,108C534.6656403940887,108,537.8499133369824,114.80000000000001,541.0341862798759,114.80000000000001C543.9103037766831,114.80000000000001,546.7864212734902,95.19999999999999,549.6625387702974,95.19999999999999C552.8425317764398,95.19999999999999,556.0225247825822,138,559.2025177887247,138C562.2840722495895,138,565.3656267104543,63.032258064516135,568.4471811713191,62C571.6314541142127,60.93333333333334,574.8157270571064,60.66666666666667,578,60.400000000000006" style="fill: transparent; stroke: rgb(51, 51, 51); stroke-width: 2; opacity: 1;"></path></g></g></svg>