<svg xmlns="http://www.w3.org/2000/svg" width="640" height="324" role="img" aria-labelledby="victory-container-1-title victory-container-1-desc" viewBox="0 0 640 324" style="pointer-events: all; width: 100%; height: 100%;"><g role="presentation"><line x1="15" x2="578" y1="274" y2="274" role="presentation" shape-rendering="auto" vector-effect="non-scaling-stroke" style="stroke: rgb(226, 226, 226); fill: transparent; stroke-width: 1; stroke-linejoin: round;"></line><g role="presentation"><line x1="81.26626071884692" x2="81.26626071884692" y1="274" y2="34" role="presentation" shape-rendering="auto" vector-effect="non-scaling-stroke" style="stroke: transparent; fill: transparent; stroke-width: 1; stroke-linecap: round; stroke-linejoin: round; pointer-events: none;"></line><line x1="81.26626071884692" x2="81.26626071884692" y1="274" y2="278" role="presentation" shape-rendering="auto" vector-effect="non-scaling-stroke" style="stroke: transparent; fill: transparent; size: 4px; stroke-width: 1; stroke-linecap: round; stroke-linejoin: round;"></line><text dx="0" dy="11.969999999999999" x="81.26626071884692" y="286"><tspan x="81.26626071884692" dx="0" text-anchor="middle" style="fill: rgb(153, 153, 153); font-size: 14px; font-family: inherit; stroke: transparent; letter-spacing: normal; padding: 8px; stroke-width: 0;">2017</tspan></text></g><g role="presentation"><line x1="193.74299854041232" x2="193.74299854041232" y1="274" y2="34" role="presentation" shape-rendering="auto" vector-effect="non-scaling-stroke" style="stroke: transparent; fill: transparent; stroke-width: 1; stroke-linecap: round; stroke-linejoin: round; pointer-events: none;"></line><line x1="193.74299854041232" x2="193.74299854041232" y1="274" y2="278" role="presentation" shape-rendering="auto" vector-effect="non-scaling-stroke" style="stroke: transparent; fill: transparent; size: 4px; stroke-width: 1; stroke-linecap: round; stroke-linejoin: round;"></line><text dx="0" dy="11.969999999999999" x="193.74299854041232" y="286"><tspan x="193.74299854041232" dx="0" text-anchor="middle" style="fill: rgb(153, 153, 153); font-size: 14px; font-family: inherit; stroke: transparent; letter-spacing: normal; padding: 8px; stroke-width: 0;">2018</tspan></text></g><g role="presentation"><line x1="306.2197363619777" x2="306.2197363619777" y1="274" y2="34" role="presentation" shape-rendering="auto" vector-effect="non-scaling-stroke" style="stroke: transparent; fill: transparent; stroke-width: 1; stroke-linecap: round; stroke-linejoin: round; pointer-events: none;"></line><line x1="306.2197363619777" x2="306.2197363619777" y1="274" y2="278" role="presentation" shape-rendering="auto" vector-effect="non-scaling-stroke" style="stroke: transparent; fill: transparent; size: 4px; stroke-width: 1; stroke-linecap: round; stroke-linejoin: round;"></line><text dx="0" dy="11.969999999999999" x="306.2197363619777" y="286"><tspan x="306.2197363619777" dx="0" text-anchor="middle" style="fill: rgb(153, 153, 153); font-size: 14px; font-family: inherit; stroke: transparent; letter-spacing: normal; padding: 8px; stroke-width: 0;">2019</tspan></text></g><g role="presentation"><line x1="418.69647418354316" x2="418.69647418354316" y1="274" y2="34" role="presentation" shape-rendering="auto" vector-effect="non-scaling-stroke" style="stroke: transparent; fill: transparent; stroke-width: 1; stroke-linecap: round; stroke-linejoin: round; pointer-events: none;"></line><line x1="418.69647418354316" x2="418.69647418354316" y1="274" y2="278" role="presentation" shape-rendering="auto" vector-effect="non-scaling-stroke" style="stroke: transparent; fill: transparent; size: 4px; stroke-width: 1; stroke-linecap: round; stroke-linejoin: round;"></line><text dx="0" dy="11.969999999999999" x="418.69647418354316" y="286"><tspan x="418.69647418354316" dx="0" text-anchor="middle" style="fill: rgb(153, 153, 153); font-size: 14px; font-family: inherit; stroke: transparent; letter-spacing: normal; padding: 8px; stroke-width: 0;">2020</tspan></text></g><g role="presentation"><line x1="531.4813674511951" x2="531.4813674511951" y1="274" y2="34" role="presentation" shape-rendering="auto" vector-effect="non-scaling-stroke" style="stroke: transparent; fill: transparent; stroke-width: 1; stroke-linecap: round; stroke-linejoin: round; pointer-events: none;"></line><line x1="531.4813674511951" x2="531.4813674511951" y1="274" y2="278" role="presentation" shape-rendering="auto" vector-effect="non-scaling-stroke" style="stroke: transparent; fill: transparent; size: 4px; stroke-width: 1; stroke-linecap: round; stroke-linejoin: round;"></line><text dx="0" dy="11.969999999999999" x="531.4813674511951" y="286"><tspan x="531.4813674511951" dx="0" text-anchor="middle" style="fill: rgb(153, 153, 153); font-size: 14px; font-family: inherit; stroke: transparent; letter-spacing: normal; padding: 8px; stroke-width: 0;">2021</tspan></text></g></g><g role="presentation"><line x1="578" x2="578" y1="34" y2="274" role="presentation" shape-rendering="auto" vector-effect="non-scaling-stroke" style="stroke: transparent; fill: transparent; stroke-width: 1; stroke-linejoin: round;"></line><g role="presentation"><line x1="578" x2="15" y1="274" y2="274" role="presentation" shape-rendering="auto" vector-effect="non-scaling-stroke" style="stroke: rgb(226, 226, 226); fill: transparent; stroke-width: 1; stroke-linecap: round; stroke-linejoin: round; pointer-events: none;"></line><line x1="578" x2="582" y1="274" y2="274" role="presentation" shape-rendering="auto" vector-effect="non-scaling-stroke" style="stroke: transparent; fill: transparent; size: 4px; stroke-width: 1; stroke-linecap: round; stroke-linejoin: round;"></line><text dx="0" dy="4.97" x="590" y="274"><tspan x="590" dx="0" text-anchor="start" style="fill: rgb(153, 153, 153); font-size: 14px; font-family: inherit; stroke: transparent; letter-spacing: normal; padding: 8px; stroke-width: 0;">$100K</tspan></text></g><g role="presentation"><line x1="578" x2="15" y1="214" y2="214" role="presentation" shape-rendering="auto" vector-effect="non-scaling-stroke" style="stroke: rgb(226, 226, 226); fill: transparent; stroke-width: 1; stroke-linecap: round; stroke-linejoin: round; pointer-events: none;"></line><line x1="578" x2="582" y1="214" y2="214" role="presentation" shape-rendering="auto" vector-effect="non-scaling-stroke" style="stroke: transparent; fill: transparent; size: 4px; stroke-width: 1; stroke-linecap: round; stroke-linejoin: round;"></line><text dx="0" dy="4.97" x="590" y="214"><tspan x="590" dx="0" text-anchor="start" style="fill: rgb(153, 153, 153); font-size: 14px; font-family: inherit; stroke: transparent; letter-spacing: normal; padding: 8px; stroke-width: 0;">$150K</tspan></text></g><g role="presentation"><line x1="578" x2="15" y1="154" y2="154" role="presentation" shape-rendering="auto" vector-effect="non-scaling-stroke" style="stroke: rgb(226, 226, 226); fill: transparent; stroke-width: 1; stroke-linecap: round; stroke-linejoin: round; pointer-events: none;"></line><line x1="578" x2="582" y1="154" y2="154" role="presentation" shape-rendering="auto" vector-effect="non-scaling-stroke" style="stroke: transparent; fill: transparent; size: 4px; stroke-width: 1; stroke-linecap: round; stroke-linejoin: round;"></line><text dx="0" dy="4.97" x="590" y="154"><tspan x="590" dx="0" text-anchor="start" style="fill: rgb(153, 153, 153); font-size: 14px; font-family: inherit; stroke: transparent; letter-spacing: normal; padding: 8px; stroke-width: 0;">$200K</tspan></text></g><g role="presentation"><line x1="578" x2="15" y1="94" y2="94" role="presentation" shape-rendering="auto" vector-effect="non-scaling-stroke" style="stroke: rgb(226, 226, 226); fill: transparent; stroke-width: 1; stroke-linecap: round; stroke-linejoin: round; pointer-events: none;"></line><line x1="578" x2="582" y1="94" y2="94" role="presentation" shape-rendering="auto" vector-effect="non-scaling-stroke" style="stroke: transparent; fill: transparent; size: 4px; stroke-width: 1; stroke-linecap: round; stroke-linejoin: round;"></line><text dx="0" dy="4.97" x="590" y="94"><tspan x="590" dx="0" text-anchor="start" style="fill: rgb(153, 153, 153); font-size: 14px; font-family: inherit; stroke: transparent; letter-spacing: normal; padding: 8px; stroke-width: 0;">$250K</tspan></text></g><g role="presentation"><line x1="578" x2="15" y1="34" y2="34" role="presentation" shape-rendering="auto" vector-effect="non-scaling-stroke" style="stroke: rgb(226, 226, 226); fill: transparent; stroke-width: 1; stroke-linecap: round; stroke-linejoin: round; pointer-events: none;"></line><line x1="578" x2="582" y1="34" y2="34" role="presentation" shape-rendering="auto" vector-effect="non-scaling-stroke" style="stroke: transparent; fill: transparent; size: 4px; stroke-width: 1; stroke-linecap: round; stroke-linejoin: round;"></line><text dx="0" dy="4.97" x="590" y="34"><tspan x="590" dx="0" text-anchor="start" style="fill: rgb(153, 153, 153); font-size: 14px; font-family: inherit; stroke: transparent; letter-spacing: normal; padding: 8px; stroke-width: 0;">$300K</tspan></text></g></g><g style="height: 100%; width: 100%; user-select: none;"><defs><clipPath id="victory-clip-2"><rect x="15" y="34" width="563" height="240"></rect></clipPath></defs><g clip-path="url(#victory-clip-2)"><path shape-rendering="auto" role="presentation" d="M24.5528188286809,158.2C27.73709177157453,165.1,30.921364714468165,172,34.1056376573618,172C37.28991060025543,172,40.47418354314906,172,43.658456486042695,172C46.7400109469075,172,49.821565407772304,180.39999999999998,52.90311986863711,180.39999999999998C56.08739281153075,180.39999999999998,59.271665754424376,160.93020804438282,62.45593869731801,160.60000000000002C65.54177309493402,160.28,68.62760749255003,160.12,71.71344189016602,160.12C74.89771483305965,160.12,78.0819877759533,166,81.26626071884692,166C84.45053366174056,166,87.63480660463419,165.405,90.81907954752783,164.215C93.69519704433499,163.1401612903226,96.57131454114213,157.60000000000002,99.44743203794928,157.60000000000002C102.62742504409171,157.60000000000002,105.80741805023415,157.60000000000002,108.98741105637657,157.60000000000002C112.06896551724138,157.60000000000002,115.15051997810617,160,118.23207443897098,160C121.41634738186463,160,124.60062032475825,146.2,127.7848932676519,146.2C130.8664477285167,146.2,133.9480021893815,160.60000000000002,137.02955665024632,160.60000000000002C140.21382959313993,160.60000000000002,143.39810253603358,159.4,146.5823754789272,157.60000000000002C149.76664842182083,155.8,152.95092136471445,152.18147540983608,156.1351943076081,149.8C159.2167487684729,147.49534637757802,162.2983032293377,143.65483870967742,165.37985769020253,143.5C168.56413063309614,143.34,171.74840357598978,143.26000000000002,174.9326765188834,143.26000000000002C178.0185109164994,143.26000000000002,181.10434531411542,161.2,184.19017971173142,161.2C187.37445265462506,161.2,190.55872559751867,157.66,193.74299854041232,157.66C196.92727148330596,157.66,200.1115444261996,160.60000000000002,203.29581736909324,160.60000000000002C206.1719348659004,160.60000000000002,209.04805236270755,157.44192895766852,211.9241698595147,153.7C215.10416286565712,149.56271842924448,218.28415587179956,136,221.46414887794197,136C224.5457033388068,136,227.62725779967158,155.2,230.7088122605364,155.2C233.89308520343002,155.2,237.07735814632366,150.69770491803277,240.26163108921727,146.8C243.3431855500821,143.02802749867794,246.4247400109469,132.4,249.5062944718117,132.4C252.69056741470536,132.4,255.874840357599,133.4,259.05911330049264,135.4C262.2433862433863,137.4,265.42765918627987,144.39999999999998,268.6119321291735,144.39999999999998C271.69348659003833,144.39999999999998,274.7750410509031,136.98709677419353,277.8565955117679,136.6C281.04086845466156,136.2,284.22514139755515,136.4,287.4094143404488,136C290.4952487380648,135.61236559139786,293.58108313568084,131.3972483393886,296.66691753329684,130C299.8511904761905,128.5581792447918,303.03546341908407,127.6,306.2197363619777,127.6C309.40400930487135,127.6,312.588282247765,136.08714285714288,315.77255519065864,136.84C318.6486726874658,137.51999999999998,321.52479018427294,137.18,324.4009076810801,137.85999999999999C327.58090068722254,138.6118452380952,330.76089369336495,160,333.94088669950736,160C337.0224411603722,160,340.10399562123695,142,343.18555008210177,142C346.3698230249954,142,349.55409596788905,142,352.7383689107827,142C355.8199233716475,142,358.9014778325123,148.60000000000002,361.9830322933771,148.60000000000002C365.16730523627075,148.60000000000002,368.35157817916433,131.20000000000002,371.535851122058,131.20000000000002C374.7201240649516,131.20000000000002,377.90439700784526,131.9,381.0886699507389,133.29999999999998C384.1702244116037,134.65483870967736,387.2517788724685,142,390.3333333333333,142C393.51760627622696,142,396.7018792191206,135.65380000000002,399.88615216201424,135.65380000000002C402.97198655963024,135.65380000000002,406.0578209572463,135.8092,409.1436553548623,136.12C412.32792829775593,136.44071456310678,415.5122012406495,154,418.69647418354316,154C421.8807471264368,154,425.0650200693304,136,428.24929301222403,136C431.22812899106003,136,434.206964969896,141.10000000000002,437.185800948732,141.10000000000002C440.3657939548744,141.10000000000002,443.54578696101686,140.60000000000002,446.72577996715927,139.6C449.8073344280241,138.6309555854643,452.8888888888889,124,455.97044334975374,124C459.1547162926473,124,462.33898923554096,124,465.52326217843455,124C468.6048166392994,124,471.6863711001642,123.60000000000001,474.767925561029,122.80000000000001C477.95219850392266,121.97333333333336,481.1364714468163,112,484.32074438970994,112C487.50501733260353,112,490.68929027549717,117.487,493.87356321839076,117.487C496.9551176792556,117.487,500.0366721401204,112,503.1182266009852,112C506.3024995438788,112,509.48677248677245,112,512.671045429666,112C515.7568798272821,112,518.8427142248981,112,521.9285486225142,112C525.1128215654078,112,528.2970945083015,94,531.4813674511951,94C534.6656403940887,94,537.8499133369824,96.05004104116222,541.0341862798759,97.34979999999999C543.9103037766831,98.52377583378895,546.7864212734902,101.32,549.6625387702974,101.32C552.8425317764398,101.32,556.0225247825822,95.71013442697651,559.2025177887247,91.6C562.2840722495895,87.61709719054763,565.3656267104543,83.25647805393977,568.4471811713191,77.20000000000002C571.6314541142127,70.94163934426233,574.8157270571064,62.67081967213115,578,54.39999999999998" style="fill: transparent; stroke: rgb(51, 51, 51); stroke-width: 2; opacity: 1;"></path></g></g></svg>