<svg xmlns="http://www.w3.org/2000/svg" width="640" height="324" role="img" aria-labelledby="victory-container-1-title victory-container-1-desc" viewBox="0 0 640 324" style="pointer-events: all; width: 100%; height: 100%;"><g role="presentation"><line x1="15" x2="578" y1="274" y2="274" role="presentation" shape-rendering="auto" vector-effect="non-scaling-stroke" style="stroke: rgb(226, 226, 226); fill: transparent; stroke-width: 1; stroke-linejoin: round;"></line><g role="presentation"><line x1="81.26626071884692" x2="81.26626071884692" y1="274" y2="34" role="presentation" shape-rendering="auto" vector-effect="non-scaling-stroke" style="stroke: transparent; fill: transparent; stroke-width: 1; stroke-linecap: round; stroke-linejoin: round; pointer-events: none;"></line><line x1="81.26626071884692" x2="81.26626071884692" y1="274" y2="278" role="presentation" shape-rendering="auto" vector-effect="non-scaling-stroke" style="stroke: transparent; fill: transparent; size: 4px; stroke-width: 1; stroke-linecap: round; stroke-linejoin: round;"></line><text dx="0" dy="11.969999999999999" x="81.26626071884692" y="286"><tspan x="81.26626071884692" dx="0" text-anchor="middle" style="fill: rgb(153, 153, 153); font-size: 14px; font-family: inherit; stroke: transparent; letter-spacing: normal; padding: 8px; stroke-width: 0;">2017</tspan></text></g><g role="presentation"><line x1="193.74299854041232" x2="193.74299854041232" y1="274" y2="34" role="presentation" shape-rendering="auto" vector-effect="non-scaling-stroke" style="stroke: transparent; fill: transparent; stroke-width: 1; stroke-linecap: round; stroke-linejoin: round; pointer-events: none;"></line><line x1="193.74299854041232" x2="193.74299854041232" y1="274" y2="278" role="presentation" shape-rendering="auto" vector-effect="non-scaling-stroke" style="stroke: transparent; fill: transparent; size: 4px; stroke-width: 1; stroke-linecap: round; stroke-linejoin: round;"></line><text dx="0" dy="11.969999999999999" x="193.74299854041232" y="286"><tspan x="193.74299854041232" dx="0" text-anchor="middle" style="fill: rgb(153, 153, 153); font-size: 14px; font-family: inherit; stroke: transparent; letter-spacing: normal; padding: 8px; stroke-width: 0;">2018</tspan></text></g><g role="presentation"><line x1="306.2197363619777" x2="306.2197363619777" y1="274" y2="34" role="presentation" shape-rendering="auto" vector-effect="non-scaling-stroke" style="stroke: transparent; fill: transparent; stroke-width: 1; stroke-linecap: round; stroke-linejoin: round; pointer-events: none;"></line><line x1="306.2197363619777" x2="306.2197363619777" y1="274" y2="278" role="presentation" shape-rendering="auto" vector-effect="non-scaling-stroke" style="stroke: transparent; fill: transparent; size: 4px; stroke-width: 1; stroke-linecap: round; stroke-linejoin: round;"></line><text dx="0" dy="11.969999999999999" x="306.2197363619777" y="286"><tspan x="306.2197363619777" dx="0" text-anchor="middle" style="fill: rgb(153, 153, 153); font-size: 14px; font-family: inherit; stroke: transparent; letter-spacing: normal; padding: 8px; stroke-width: 0;">2019</tspan></text></g><g role="presentation"><line x1="418.69647418354316" x2="418.69647418354316" y1="274" y2="34" role="presentation" shape-rendering="auto" vector-effect="non-scaling-stroke" style="stroke: transparent; fill: transparent; stroke-width: 1; stroke-linecap: round; stroke-linejoin: round; pointer-events: none;"></line><line x1="418.69647418354316" x2="418.69647418354316" y1="274" y2="278" role="presentation" shape-rendering="auto" vector-effect="non-scaling-stroke" style="stroke: transparent; fill: transparent; size: 4px; stroke-width: 1; stroke-linecap: round; stroke-linejoin: round;"></line><text dx="0" dy="11.969999999999999" x="418.69647418354316" y="286"><tspan x="418.69647418354316" dx="0" text-anchor="middle" style="fill: rgb(153, 153, 153); font-size: 14px; font-family: inherit; stroke: transparent; letter-spacing: normal; padding: 8px; stroke-width: 0;">2020</tspan></text></g><g role="presentation"><line x1="531.4813674511951" x2="531.4813674511951" y1="274" y2="34" role="presentation" shape-rendering="auto" vector-effect="non-scaling-stroke" style="stroke: transparent; fill: transparent; stroke-width: 1; stroke-linecap: round; stroke-linejoin: round; pointer-events: none;"></line><line x1="531.4813674511951" x2="531.4813674511951" y1="274" y2="278" role="presentation" shape-rendering="auto" vector-effect="non-scaling-stroke" style="stroke: transparent; fill: transparent; size: 4px; stroke-width: 1; stroke-linecap: round; stroke-linejoin: round;"></line><text dx="0" dy="11.969999999999999" x="531.4813674511951" y="286"><tspan x="531.4813674511951" dx="0" text-anchor="middle" style="fill: rgb(153, 153, 153); font-size: 14px; font-family: inherit; stroke: transparent; letter-spacing: normal; padding: 8px; stroke-width: 0;">2021</tspan></text></g></g><g role="presentation"><line x1="578" x2="578" y1="34" y2="274" role="presentation" shape-rendering="auto" vector-effect="non-scaling-stroke" style="stroke: transparent; fill: transparent; stroke-width: 1; stroke-linejoin: round;"></line><g role="presentation"><line x1="578" x2="15" y1="274" y2="274" role="presentation" shape-rendering="auto" vector-effect="non-scaling-stroke" style="stroke: rgb(226, 226, 226); fill: transparent; stroke-width: 1; stroke-linecap: round; stroke-linejoin: round; pointer-events: none;"></line><line x1="578" x2="582" y1="274" y2="274" role="presentation" shape-rendering="auto" vector-effect="non-scaling-stroke" style="stroke: transparent; fill: transparent; size: 4px; stroke-width: 1; stroke-linecap: round; stroke-linejoin: round;"></line><text dx="0" dy="4.97" x="590" y="274"><tspan x="590" dx="0" text-anchor="start" style="fill: rgb(153, 153, 153); font-size: 14px; font-family: inherit; stroke: transparent; letter-spacing: normal; padding: 8px; stroke-width: 0;">$200K</tspan></text></g><g role="presentation"><line x1="578" x2="15" y1="214" y2="214" role="presentation" shape-rendering="auto" vector-effect="non-scaling-stroke" style="stroke: rgb(226, 226, 226); fill: transparent; stroke-width: 1; stroke-linecap: round; stroke-linejoin: round; pointer-events: none;"></line><line x1="578" x2="582" y1="214" y2="214" role="presentation" shape-rendering="auto" vector-effect="non-scaling-stroke" style="stroke: transparent; fill: transparent; size: 4px; stroke-width: 1; stroke-linecap: round; stroke-linejoin: round;"></line><text dx="0" dy="4.97" x="590" y="214"><tspan x="590" dx="0" text-anchor="start" style="fill: rgb(153, 153, 153); font-size: 14px; font-family: inherit; stroke: transparent; letter-spacing: normal; padding: 8px; stroke-width: 0;">$300K</tspan></text></g><g role="presentation"><line x1="578" x2="15" y1="154" y2="154" role="presentation" shape-rendering="auto" vector-effect="non-scaling-stroke" style="stroke: rgb(226, 226, 226); fill: transparent; stroke-width: 1; stroke-linecap: round; stroke-linejoin: round; pointer-events: none;"></line><line x1="578" x2="582" y1="154" y2="154" role="presentation" shape-rendering="auto" vector-effect="non-scaling-stroke" style="stroke: transparent; fill: transparent; size: 4px; stroke-width: 1; stroke-linecap: round; stroke-linejoin: round;"></line><text dx="0" dy="4.97" x="590" y="154"><tspan x="590" dx="0" text-anchor="start" style="fill: rgb(153, 153, 153); font-size: 14px; font-family: inherit; stroke: transparent; letter-spacing: normal; padding: 8px; stroke-width: 0;">$400K</tspan></text></g><g role="presentation"><line x1="578" x2="15" y1="94" y2="94" role="presentation" shape-rendering="auto" vector-effect="non-scaling-stroke" style="stroke: rgb(226, 226, 226); fill: transparent; stroke-width: 1; stroke-linecap: round; stroke-linejoin: round; pointer-events: none;"></line><line x1="578" x2="582" y1="94" y2="94" role="presentation" shape-rendering="auto" vector-effect="non-scaling-stroke" style="stroke: transparent; fill: transparent; size: 4px; stroke-width: 1; stroke-linecap: round; stroke-linejoin: round;"></line><text dx="0" dy="4.97" x="590" y="94"><tspan x="590" dx="0" text-anchor="start" style="fill: rgb(153, 153, 153); font-size: 14px; font-family: inherit; stroke: transparent; letter-spacing: normal; padding: 8px; stroke-width: 0;">$500K</tspan></text></g><g role="presentation"><line x1="578" x2="15" y1="34" y2="34" role="presentation" shape-rendering="auto" vector-effect="non-scaling-stroke" style="stroke: rgb(226, 226, 226); fill: transparent; stroke-width: 1; stroke-linecap: round; stroke-linejoin: round; pointer-events: none;"></line><line x1="578" x2="582" y1="34" y2="34" role="presentation" shape-rendering="auto" vector-effect="non-scaling-stroke" style="stroke: transparent; fill: transparent; size: 4px; stroke-width: 1; stroke-linecap: round; stroke-linejoin: round;"></line><text dx="0" dy="4.97" x="590" y="34"><tspan x="590" dx="0" text-anchor="start" style="fill: rgb(153, 153, 153); font-size: 14px; font-family: inherit; stroke: transparent; letter-spacing: normal; padding: 8px; stroke-width: 0;">$600K</tspan></text></g></g><g style="height: 100%; width: 100%; user-select: none;"><defs><clipPath id="victory-clip-2"><rect x="15" y="34" width="563" height="240"></rect></clipPath></defs><g clip-path="url(#victory-clip-2)"><path shape-rendering="auto" role="presentation" d="M15.30815544608648,190.60000000000002C18.389709906951285,186.70000000000002,21.471264367816094,182.8,24.5528188286809,182.8C27.73709177157453,182.8,30.921364714468165,185.5,34.1056376573618,185.5C37.28991060025543,185.5,40.47418354314906,154,43.658456486042695,154C46.7400109469075,154,49.821565407772304,155.9,52.90311986863711,159.7C56.08739281153075,163.62666666666664,59.271665754424376,214,62.45593869731801,214C65.54177309493402,214,68.62760749255003,187,71.71344189016602,187C74.89771483305965,187,78.0819877759533,220,81.26626071884692,220C84.45053366174056,220,87.63480660463419,220,90.81907954752783,220C93.69519704433499,220,96.57131454114213,183.7,99.44743203794928,183.7C102.62742504409171,183.7,105.80741805023415,212.8,108.98741105637657,212.8C112.06896551724138,212.8,115.15051997810617,183.49169751454258,118.23207443897098,172.3C121.41634738186463,160.73524590163933,124.60062032475825,145,127.7848932676519,145C130.8664477285167,145,133.9480021893815,152.4127551560021,137.02955665024632,155.38C140.21382959313993,158.44615300546448,143.39810253603358,158.54250000000002,146.5823754789272,163C149.76664842182083,167.4575,152.95092136471445,182.125,156.1351943076081,182.125C159.2167487684729,182.125,162.2983032293377,173.5,165.37985769020253,173.5C168.56413063309614,173.5,171.74840357598978,230.5,174.9326765188834,230.5C178.0185109164994,230.5,181.10434531411542,186.4,184.19017971173142,186.4C187.37445265462506,186.4,190.55872559751867,186.6,193.74299854041232,187C196.92727148330596,187.4,200.1115444261996,228.7,203.29581736909324,228.7C206.1719348659004,228.7,209.04805236270755,142,211.9241698595147,142C215.10416286565712,142,218.28415587179956,163.6,221.46414887794197,163.6C224.5457033388068,163.6,227.62725779967158,155.12258064516132,230.7088122605364,152.8C233.89308520343002,150.4,237.07735814632366,151.6,240.26163108921727,149.2C243.3431855500821,146.87741935483868,246.4247400109469,137.5,249.5062944718117,137.5C252.69056741470536,137.5,255.874840357599,155.24999999999997,259.05911330049264,164.5C262.2433862433863,173.74999999999997,265.42765918627987,193,268.6119321291735,193C271.69348659003833,193,274.7750410509031,191.5,277.8565955117679,188.5C281.04086845466156,185.4,284.22514139755515,152.7802211566226,287.4094143404488,139C290.4952487380648,125.64578030386431,293.58108313568084,106.6,296.66691753329684,106.6C299.8511904761905,106.6,303.03546341908407,227.575,306.2197363619777,227.575C309.40400930487135,227.575,312.588282247765,146.95,315.77255519065864,146.95C318.6486726874658,146.95,321.52479018427294,177.90269179004028,324.4009076810801,185.5C327.58090068722254,193.9,330.76089369336495,198.10000000000002,333.94088669950736,198.10000000000002C337.0224411603722,198.10000000000002,340.10399562123695,154,343.18555008210177,154C346.3698230249954,154,349.55409596788905,162.03726775956284,352.7383689107827,166C355.8199233716475,169.83490216816497,358.9014778325123,177.39999999999998,361.9830322933771,177.39999999999998C365.16730523627075,177.39999999999998,368.35157817916433,168.10000000000002,371.535851122058,168.10000000000002C374.7201240649516,168.10000000000002,377.90439700784526,180.17466666666664,381.0886699507389,182.2C384.1702244116037,184.16,387.2517788724685,185.14,390.3333333333333,185.14C393.51760627622696,185.14,396.7018792191206,175,399.88615216201424,175C402.97198655963024,175,406.0578209572463,197.5,409.1436553548623,197.5C412.32792829775593,197.5,415.5122012406495,160.75,418.69647418354316,160.75C421.8807471264368,160.75,425.0650200693304,181.51,428.24929301222403,181.51C431.22812899106003,181.51,434.206964969896,160,437.185800948732,160C440.3657939548744,160,443.54578696101686,176.5,446.72577996715927,176.5C449.8073344280241,176.5,452.8888888888889,164.16574299312538,455.97044334975374,158.98000000000002C459.1547162926473,153.6213989071039,462.33898923554096,145,465.52326217843455,145C468.6048166392994,145,471.6863711001642,155.5,474.767925561029,155.5C477.95219850392266,155.5,481.1364714468163,137.5,484.32074438970994,137.5C487.50501733260353,137.5,490.68929027549717,166,493.87356321839076,166C496.9551176792556,166,500.0366721401204,139.03,503.1182266009852,139.03C506.3024995438788,139.03,509.48677248677245,139.67000000000002,512.671045429666,140.95000000000002C515.7568798272821,142.19043010752694,518.8427142248981,148,521.9285486225142,148C525.1128215654078,148,528.2970945083015,112.6,531.4813674511951,112.6C534.6656403940887,112.6,537.8499133369824,139.9,541.0341862798759,139.9C543.9103037766831,139.9,546.7864212734902,135.6,549.6625387702974,127C552.8425317764398,117.49136904761903,556.0225247825822,76.78299999999999,559.2025177887247,76.78299999999999C562.2840722495895,76.78299999999999,565.3656267104543,113.5,568.4471811713191,113.5C571.6314541142127,113.5,574.8157270571064,109.45,578,105.4" style="fill: transparent; stroke: rgb(51, 51, 51); stroke-width: 2; opacity: 1;"></path></g></g></svg>