<svg xmlns="http://www.w3.org/2000/svg" width="640" height="324" role="img" aria-labelledby="victory-container-4-title victory-container-4-desc" viewBox="0 0 640 324" style="pointer-events: all; width: 100%; height: 100%;"><g role="presentation"><line x1="15" x2="578" y1="274" y2="274" role="presentation" shape-rendering="auto" vector-effect="non-scaling-stroke" style="stroke: rgb(226, 226, 226); fill: transparent; stroke-width: 1; stroke-linejoin: round;"></line><g role="presentation"><line x1="81.26626071884692" x2="81.26626071884692" y1="274" y2="34" role="presentation" shape-rendering="auto" vector-effect="non-scaling-stroke" style="stroke: transparent; fill: transparent; stroke-width: 1; stroke-linecap: round; stroke-linejoin: round; pointer-events: none;"></line><line x1="81.26626071884692" x2="81.26626071884692" y1="274" y2="278" role="presentation" shape-rendering="auto" vector-effect="non-scaling-stroke" style="stroke: transparent; fill: transparent; size: 4px; stroke-width: 1; stroke-linecap: round; stroke-linejoin: round;"></line><text dx="0" dy="11.969999999999999" x="81.26626071884692" y="286"><tspan x="81.26626071884692" dx="0" text-anchor="middle" style="fill: rgb(153, 153, 153); font-size: 14px; font-family: inherit; stroke: transparent; letter-spacing: normal; padding: 8px; stroke-width: 0;">2017</tspan></text></g><g role="presentation"><line x1="193.74299854041232" x2="193.74299854041232" y1="274" y2="34" role="presentation" shape-rendering="auto" vector-effect="non-scaling-stroke" style="stroke: transparent; fill: transparent; stroke-width: 1; stroke-linecap: round; stroke-linejoin: round; pointer-events: none;"></line><line x1="193.74299854041232" x2="193.74299854041232" y1="274" y2="278" role="presentation" shape-rendering="auto" vector-effect="non-scaling-stroke" style="stroke: transparent; fill: transparent; size: 4px; stroke-width: 1; stroke-linecap: round; stroke-linejoin: round;"></line><text dx="0" dy="11.969999999999999" x="193.74299854041232" y="286"><tspan x="193.74299854041232" dx="0" text-anchor="middle" style="fill: rgb(153, 153, 153); font-size: 14px; font-family: inherit; stroke: transparent; letter-spacing: normal; padding: 8px; stroke-width: 0;">2018</tspan></text></g><g role="presentation"><line x1="306.2197363619777" x2="306.2197363619777" y1="274" y2="34" role="presentation" shape-rendering="auto" vector-effect="non-scaling-stroke" style="stroke: transparent; fill: transparent; stroke-width: 1; stroke-linecap: round; stroke-linejoin: round; pointer-events: none;"></line><line x1="306.2197363619777" x2="306.2197363619777" y1="274" y2="278" role="presentation" shape-rendering="auto" vector-effect="non-scaling-stroke" style="stroke: transparent; fill: transparent; size: 4px; stroke-width: 1; stroke-linecap: round; stroke-linejoin: round;"></line><text dx="0" dy="11.969999999999999" x="306.2197363619777" y="286"><tspan x="306.2197363619777" dx="0" text-anchor="middle" style="fill: rgb(153, 153, 153); font-size: 14px; font-family: inherit; stroke: transparent; letter-spacing: normal; padding: 8px; stroke-width: 0;">2019</tspan></text></g><g role="presentation"><line x1="418.69647418354316" x2="418.69647418354316" y1="274" y2="34" role="presentation" shape-rendering="auto" vector-effect="non-scaling-stroke" style="stroke: transparent; fill: transparent; stroke-width: 1; stroke-linecap: round; stroke-linejoin: round; pointer-events: none;"></line><line x1="418.69647418354316" x2="418.69647418354316" y1="274" y2="278" role="presentation" shape-rendering="auto" vector-effect="non-scaling-stroke" style="stroke: transparent; fill: transparent; size: 4px; stroke-width: 1; stroke-linecap: round; stroke-linejoin: round;"></line><text dx="0" dy="11.969999999999999" x="418.69647418354316" y="286"><tspan x="418.69647418354316" dx="0" text-anchor="middle" style="fill: rgb(153, 153, 153); font-size: 14px; font-family: inherit; stroke: transparent; letter-spacing: normal; padding: 8px; stroke-width: 0;">2020</tspan></text></g><g role="presentation"><line x1="531.4813674511951" x2="531.4813674511951" y1="274" y2="34" role="presentation" shape-rendering="auto" vector-effect="non-scaling-stroke" style="stroke: transparent; fill: transparent; stroke-width: 1; stroke-linecap: round; stroke-linejoin: round; pointer-events: none;"></line><line x1="531.4813674511951" x2="531.4813674511951" y1="274" y2="278" role="presentation" shape-rendering="auto" vector-effect="non-scaling-stroke" style="stroke: transparent; fill: transparent; size: 4px; stroke-width: 1; stroke-linecap: round; stroke-linejoin: round;"></line><text dx="0" dy="11.969999999999999" x="531.4813674511951" y="286"><tspan x="531.4813674511951" dx="0" text-anchor="middle" style="fill: rgb(153, 153, 153); font-size: 14px; font-family: inherit; stroke: transparent; letter-spacing: normal; padding: 8px; stroke-width: 0;">2021</tspan></text></g></g><g role="presentation"><line x1="578" x2="578" y1="34" y2="274" role="presentation" shape-rendering="auto" vector-effect="non-scaling-stroke" style="stroke: transparent; fill: transparent; stroke-width: 1; stroke-linejoin: round;"></line><g role="presentation"><line x1="578" x2="15" y1="274" y2="274" role="presentation" shape-rendering="auto" vector-effect="non-scaling-stroke" style="stroke: rgb(226, 226, 226); fill: transparent; stroke-width: 1; stroke-linecap: round; stroke-linejoin: round; pointer-events: none;"></line><line x1="578" x2="582" y1="274" y2="274" role="presentation" shape-rendering="auto" vector-effect="non-scaling-stroke" style="stroke: transparent; fill: transparent; size: 4px; stroke-width: 1; stroke-linecap: round; stroke-linejoin: round;"></line><text dx="0" dy="4.97" x="590" y="274"><tspan x="590" dx="0" text-anchor="start" style="fill: rgb(153, 153, 153); font-size: 14px; font-family: inherit; stroke: transparent; letter-spacing: normal; padding: 8px; stroke-width: 0;">$200K</tspan></text></g><g role="presentation"><line x1="578" x2="15" y1="234" y2="234" role="presentation" shape-rendering="auto" vector-effect="non-scaling-stroke" style="stroke: rgb(226, 226, 226); fill: transparent; stroke-width: 1; stroke-linecap: round; stroke-linejoin: round; pointer-events: none;"></line><line x1="578" x2="582" y1="234" y2="234" role="presentation" shape-rendering="auto" vector-effect="non-scaling-stroke" style="stroke: transparent; fill: transparent; size: 4px; stroke-width: 1; stroke-linecap: round; stroke-linejoin: round;"></line><text dx="0" dy="4.97" x="590" y="234"><tspan x="590" dx="0" text-anchor="start" style="fill: rgb(153, 153, 153); font-size: 14px; font-family: inherit; stroke: transparent; letter-spacing: normal; padding: 8px; stroke-width: 0;">$250K</tspan></text></g><g role="presentation"><line x1="578" x2="15" y1="194" y2="194" role="presentation" shape-rendering="auto" vector-effect="non-scaling-stroke" style="stroke: rgb(226, 226, 226); fill: transparent; stroke-width: 1; stroke-linecap: round; stroke-linejoin: round; pointer-events: none;"></line><line x1="578" x2="582" y1="194" y2="194" role="presentation" shape-rendering="auto" vector-effect="non-scaling-stroke" style="stroke: transparent; fill: transparent; size: 4px; stroke-width: 1; stroke-linecap: round; stroke-linejoin: round;"></line><text dx="0" dy="4.97" x="590" y="194"><tspan x="590" dx="0" text-anchor="start" style="fill: rgb(153, 153, 153); font-size: 14px; font-family: inherit; stroke: transparent; letter-spacing: normal; padding: 8px; stroke-width: 0;">$300K</tspan></text></g><g role="presentation"><line x1="578" x2="15" y1="154" y2="154" role="presentation" shape-rendering="auto" vector-effect="non-scaling-stroke" style="stroke: rgb(226, 226, 226); fill: transparent; stroke-width: 1; stroke-linecap: round; stroke-linejoin: round; pointer-events: none;"></line><line x1="578" x2="582" y1="154" y2="154" role="presentation" shape-rendering="auto" vector-effect="non-scaling-stroke" style="stroke: transparent; fill: transparent; size: 4px; stroke-width: 1; stroke-linecap: round; stroke-linejoin: round;"></line><text dx="0" dy="4.97" x="590" y="154"><tspan x="590" dx="0" text-anchor="start" style="fill: rgb(153, 153, 153); font-size: 14px; font-family: inherit; stroke: transparent; letter-spacing: normal; padding: 8px; stroke-width: 0;">$350K</tspan></text></g><g role="presentation"><line x1="578" x2="15" y1="114" y2="114" role="presentation" shape-rendering="auto" vector-effect="non-scaling-stroke" style="stroke: rgb(226, 226, 226); fill: transparent; stroke-width: 1; stroke-linecap: round; stroke-linejoin: round; pointer-events: none;"></line><line x1="578" x2="582" y1="114" y2="114" role="presentation" shape-rendering="auto" vector-effect="non-scaling-stroke" style="stroke: transparent; fill: transparent; size: 4px; stroke-width: 1; stroke-linecap: round; stroke-linejoin: round;"></line><text dx="0" dy="4.97" x="590" y="114"><tspan x="590" dx="0" text-anchor="start" style="fill: rgb(153, 153, 153); font-size: 14px; font-family: inherit; stroke: transparent; letter-spacing: normal; padding: 8px; stroke-width: 0;">$400K</tspan></text></g><g role="presentation"><line x1="578" x2="15" y1="74" y2="74" role="presentation" shape-rendering="auto" vector-effect="non-scaling-stroke" style="stroke: rgb(226, 226, 226); fill: transparent; stroke-width: 1; stroke-linecap: round; stroke-linejoin: round; pointer-events: none;"></line><line x1="578" x2="582" y1="74" y2="74" role="presentation" shape-rendering="auto" vector-effect="non-scaling-stroke" style="stroke: transparent; fill: transparent; size: 4px; stroke-width: 1; stroke-linecap: round; stroke-linejoin: round;"></line><text dx="0" dy="4.97" x="590" y="74"><tspan x="590" dx="0" text-anchor="start" style="fill: rgb(153, 153, 153); font-size: 14px; font-family: inherit; stroke: transparent; letter-spacing: normal; padding: 8px; stroke-width: 0;">$450K</tspan></text></g><g role="presentation"><line x1="578" x2="15" y1="34" y2="34" role="presentation" shape-rendering="auto" vector-effect="non-scaling-stroke" style="stroke: rgb(226, 226, 226); fill: transparent; stroke-width: 1; stroke-linecap: round; stroke-linejoin: round; pointer-events: none;"></line><line x1="578" x2="582" y1="34" y2="34" role="presentation" shape-rendering="auto" vector-effect="non-scaling-stroke" style="stroke: transparent; fill: transparent; size: 4px; stroke-width: 1; stroke-linecap: round; stroke-linejoin: round;"></line><text dx="0" dy="4.97" x="590" y="34"><tspan x="590" dx="0" text-anchor="start" style="fill: rgb(153, 153, 153); font-size: 14px; font-family: inherit; stroke: transparent; letter-spacing: normal; padding: 8px; stroke-width: 0;">$500K</tspan></text></g></g><g style="height: 100%; width: 100%; user-select: none;"><defs><clipPath id="victory-clip-5"><rect x="15" y="34" width="563" height="240"></rect></clipPath></defs><g clip-path="url(#victory-clip-5)"><path shape-rendering="auto" role="presentation" d="M24.5528188286809,166.4C27.73709177157453,171.46633333333332,30.921364714468165,176.53266666666667,34.1056376573618,182C37.28991060025543,187.46733333333333,40.47418354314906,199.204,43.658456486042695,199.204C46.7400109469075,199.204,49.821565407772304,194.4,52.90311986863711,194.4C56.08739281153075,194.4,59.271665754424376,199.6,62.45593869731801,199.6C65.54177309493402,199.6,68.62760749255003,195.74190280988907,71.71344189016602,190.60000000000002C74.89771483305965,185.29406977731284,78.0819877759533,167.83999999999997,81.26626071884692,167.83999999999997C84.45053366174056,167.83999999999997,87.63480660463419,234.07999999999998,90.81907954752783,234.07999999999998C93.69519704433499,234.07999999999998,96.57131454114213,182,99.44743203794928,182C102.62742504409171,182,105.80741805023415,206,108.98741105637657,206C112.06896551724138,206,115.15051997810617,172,118.23207443897098,172C121.41634738186463,172,124.60062032475825,176.39999999999998,127.7848932676519,176.39999999999998C130.8664477285167,176.39999999999998,133.9480021893815,168.48000000000002,137.02955665024632,168.48000000000002C140.21382959313993,168.48000000000002,143.39810253603358,168.58666666666667,146.5823754789272,168.8C149.76664842182083,169.01333333333335,152.95092136471445,172.37664043715847,156.1351943076081,174C159.2167487684729,175.57099312533052,162.2983032293377,178.404,165.37985769020253,178.404C168.56413063309614,178.404,171.74840357598978,170,174.9326765188834,170C178.0185109164994,170,181.10434531411542,171.4151234907703,184.19017971173142,174C187.37445265462506,176.66733442838682,190.55872559751867,186,193.74299854041232,186C196.92727148330596,186,200.1115444261996,169.2,203.29581736909324,169.2C206.1719348659004,169.2,209.04805236270755,178.83999999999997,211.9241698595147,178.83999999999997C215.10416286565712,178.83999999999997,218.28415587179956,130,221.46414887794197,130C224.5457033388068,130,227.62725779967158,194,230.7088122605364,194C233.89308520343002,194,237.07735814632366,161.2,240.26163108921727,161.2C243.3431855500821,161.2,246.4247400109469,186,249.5062944718117,186C252.69056741470536,186,255.874840357599,174,259.05911330049264,174C262.2433862433863,174,265.42765918627987,175.33333333333334,268.6119321291735,178C271.69348659003833,180.58064516129033,274.7750410509031,194,277.8565955117679,194C281.04086845466156,194,284.22514139755515,160.0004,287.4094143404488,160.0004C290.4952487380648,160.0004,293.58108313568084,162.98751110572866,296.66691753329684,164.4C299.8511904761905,165.85754748590554,303.03546341908407,168.60000000000002,306.2197363619777,168.60000000000002C309.40400930487135,168.60000000000002,312.588282247765,162.8,315.77255519065864,162.8C318.6486726874658,162.8,321.52479018427294,174,324.4009076810801,174C327.58090068722254,174,330.76089369336495,169.89785233285232,333.94088669950736,166C337.0224411603722,162.22280796816463,340.10399562123695,151.2,343.18555008210177,151.2C346.3698230249954,151.2,349.55409596788905,170,352.7383689107827,170C355.8199233716475,170,358.9014778325123,169.64533756389918,361.9830322933771,169C365.16730523627075,168.33315118397087,368.35157817916433,166,371.535851122058,166C374.7201240649516,166,377.90439700784526,168.4,381.0886699507389,173.2C384.1702244116037,177.84516129032255,387.2517788724685,190.36258064516133,390.3333333333333,195.24C393.51760627622696,200.28,396.7018792191206,202.8,399.88615216201424,202.8C402.97198655963024,202.8,406.0578209572463,126,409.1436553548623,126C412.32792829775593,126,415.5122012406495,155.33400000000003,418.69647418354316,162.0004C421.8807471264368,168.6668,425.0650200693304,168.84251655172415,428.24929301222403,172C431.22812899106003,174.95377483870968,434.206964969896,180.39999999999998,437.185800948732,180.39999999999998C440.3657939548744,180.39999999999998,443.54578696101686,164,446.72577996715927,164C449.8073344280241,164,452.8888888888889,180.8,455.97044334975374,180.8C459.1547162926473,180.8,462.33898923554096,146.26666666666654,465.52326217843455,138C468.6048166392994,130,471.6863711001642,126,474.767925561029,126C477.95219850392266,126,481.1364714468163,162,484.32074438970994,162C487.50501733260353,162,490.68929027549717,158.77450637522767,493.87356321839076,156.04000000000002C496.9551176792556,153.39370350784418,500.0366721401204,148.64629649215584,503.1182266009852,146C506.3024995438788,143.26549362477235,509.48677248677245,140.04,512.671045429666,140.04C515.7568798272821,140.04,518.8427142248981,143.14064609098799,521.9285486225142,147.60000000000002C525.1128215654078,152.20160791720514,528.2970945083015,167.6,531.4813674511951,167.6C534.6656403940887,167.6,537.8499133369824,140.33704600484262,541.0341862798759,126C543.9103037766831,113.05041006014216,546.7864212734902,86,549.6625387702974,86C552.8425317764398,86,556.0225247825822,125.77599999999998,559.2025177887247,125.77599999999998C562.2840722495895,125.77599999999998,565.3656267104543,74,568.4471811713191,74C571.6314541142127,74,574.8157270571064,94.4,578,114.80000000000001" style="fill: transparent; stroke: rgb(51, 51, 51); stroke-width: 2; opacity: 1;"></path></g></g></svg>