<svg xmlns="http://www.w3.org/2000/svg" width="640" height="324" role="img" aria-labelledby="victory-container-4-title victory-container-4-desc" viewBox="0 0 640 324" style="pointer-events: all; width: 100%; height: 100%;"><g role="presentation"><line x1="15" x2="578" y1="274" y2="274" role="presentation" shape-rendering="auto" vector-effect="non-scaling-stroke" style="stroke: rgb(226, 226, 226); fill: transparent; stroke-width: 1; stroke-linejoin: round;"></line><g role="presentation"><line x1="81.26626071884692" x2="81.26626071884692" y1="274" y2="34" role="presentation" shape-rendering="auto" vector-effect="non-scaling-stroke" style="stroke: transparent; fill: transparent; stroke-width: 1; stroke-linecap: round; stroke-linejoin: round; pointer-events: none;"></line><line x1="81.26626071884692" x2="81.26626071884692" y1="274" y2="278" role="presentation" shape-rendering="auto" vector-effect="non-scaling-stroke" style="stroke: transparent; fill: transparent; size: 4px; stroke-width: 1; stroke-linecap: round; stroke-linejoin: round;"></line><text dx="0" dy="11.969999999999999" x="81.26626071884692" y="286"><tspan x="81.26626071884692" dx="0" text-anchor="middle" style="fill: rgb(153, 153, 153); font-size: 14px; font-family: inherit; stroke: transparent; letter-spacing: normal; padding: 8px; stroke-width: 0;">2017</tspan></text></g><g role="presentation"><line x1="193.74299854041232" x2="193.74299854041232" y1="274" y2="34" role="presentation" shape-rendering="auto" vector-effect="non-scaling-stroke" style="stroke: transparent; fill: transparent; stroke-width: 1; stroke-linecap: round; stroke-linejoin: round; pointer-events: none;"></line><line x1="193.74299854041232" x2="193.74299854041232" y1="274" y2="278" role="presentation" shape-rendering="auto" vector-effect="non-scaling-stroke" style="stroke: transparent; fill: transparent; size: 4px; stroke-width: 1; stroke-linecap: round; stroke-linejoin: round;"></line><text dx="0" dy="11.969999999999999" x="193.74299854041232" y="286"><tspan x="193.74299854041232" dx="0" text-anchor="middle" style="fill: rgb(153, 153, 153); font-size: 14px; font-family: inherit; stroke: transparent; letter-spacing: normal; padding: 8px; stroke-width: 0;">2018</tspan></text></g><g role="presentation"><line x1="306.2197363619777" x2="306.2197363619777" y1="274" y2="34" role="presentation" shape-rendering="auto" vector-effect="non-scaling-stroke" style="stroke: transparent; fill: transparent; stroke-width: 1; stroke-linecap: round; stroke-linejoin: round; pointer-events: none;"></line><line x1="306.2197363619777" x2="306.2197363619777" y1="274" y2="278" role="presentation" shape-rendering="auto" vector-effect="non-scaling-stroke" style="stroke: transparent; fill: transparent; size: 4px; stroke-width: 1; stroke-linecap: round; stroke-linejoin: round;"></line><text dx="0" dy="11.969999999999999" x="306.2197363619777" y="286"><tspan x="306.2197363619777" dx="0" text-anchor="middle" style="fill: rgb(153, 153, 153); font-size: 14px; font-family: inherit; stroke: transparent; letter-spacing: normal; padding: 8px; stroke-width: 0;">2019</tspan></text></g><g role="presentation"><line x1="418.69647418354316" x2="418.69647418354316" y1="274" y2="34" role="presentation" shape-rendering="auto" vector-effect="non-scaling-stroke" style="stroke: transparent; fill: transparent; stroke-width: 1; stroke-linecap: round; stroke-linejoin: round; pointer-events: none;"></line><line x1="418.69647418354316" x2="418.69647418354316" y1="274" y2="278" role="presentation" shape-rendering="auto" vector-effect="non-scaling-stroke" style="stroke: transparent; fill: transparent; size: 4px; stroke-width: 1; stroke-linecap: round; stroke-linejoin: round;"></line><text dx="0" dy="11.969999999999999" x="418.69647418354316" y="286"><tspan x="418.69647418354316" dx="0" text-anchor="middle" style="fill: rgb(153, 153, 153); font-size: 14px; font-family: inherit; stroke: transparent; letter-spacing: normal; padding: 8px; stroke-width: 0;">2020</tspan></text></g><g role="presentation"><line x1="531.4813674511951" x2="531.4813674511951" y1="274" y2="34" role="presentation" shape-rendering="auto" vector-effect="non-scaling-stroke" style="stroke: transparent; fill: transparent; stroke-width: 1; stroke-linecap: round; stroke-linejoin: round; pointer-events: none;"></line><line x1="531.4813674511951" x2="531.4813674511951" y1="274" y2="278" role="presentation" shape-rendering="auto" vector-effect="non-scaling-stroke" style="stroke: transparent; fill: transparent; size: 4px; stroke-width: 1; stroke-linecap: round; stroke-linejoin: round;"></line><text dx="0" dy="11.969999999999999" x="531.4813674511951" y="286"><tspan x="531.4813674511951" dx="0" text-anchor="middle" style="fill: rgb(153, 153, 153); font-size: 14px; font-family: inherit; stroke: transparent; letter-spacing: normal; padding: 8px; stroke-width: 0;">2021</tspan></text></g></g><g role="presentation"><line x1="578" x2="578" y1="34" y2="274" role="presentation" shape-rendering="auto" vector-effect="non-scaling-stroke" style="stroke: transparent; fill: transparent; stroke-width: 1; stroke-linejoin: round;"></line><g role="presentation"><line x1="578" x2="15" y1="274" y2="274" role="presentation" shape-rendering="auto" vector-effect="non-scaling-stroke" style="stroke: rgb(226, 226, 226); fill: transparent; stroke-width: 1; stroke-linecap: round; stroke-linejoin: round; pointer-events: none;"></line><line x1="578" x2="582" y1="274" y2="274" role="presentation" shape-rendering="auto" vector-effect="non-scaling-stroke" style="stroke: transparent; fill: transparent; size: 4px; stroke-width: 1; stroke-linecap: round; stroke-linejoin: round;"></line><text dx="0" dy="4.97" x="590" y="274"><tspan x="590" dx="0" text-anchor="start" style="fill: rgb(153, 153, 153); font-size: 14px; font-family: inherit; stroke: transparent; letter-spacing: normal; padding: 8px; stroke-width: 0;">$100K</tspan></text></g><g role="presentation"><line x1="578" x2="15" y1="234" y2="234" role="presentation" shape-rendering="auto" vector-effect="non-scaling-stroke" style="stroke: rgb(226, 226, 226); fill: transparent; stroke-width: 1; stroke-linecap: round; stroke-linejoin: round; pointer-events: none;"></line><line x1="578" x2="582" y1="234" y2="234" role="presentation" shape-rendering="auto" vector-effect="non-scaling-stroke" style="stroke: transparent; fill: transparent; size: 4px; stroke-width: 1; stroke-linecap: round; stroke-linejoin: round;"></line><text dx="0" dy="4.97" x="590" y="234"><tspan x="590" dx="0" text-anchor="start" style="fill: rgb(153, 153, 153); font-size: 14px; font-family: inherit; stroke: transparent; letter-spacing: normal; padding: 8px; stroke-width: 0;">$150K</tspan></text></g><g role="presentation"><line x1="578" x2="15" y1="194" y2="194" role="presentation" shape-rendering="auto" vector-effect="non-scaling-stroke" style="stroke: rgb(226, 226, 226); fill: transparent; stroke-width: 1; stroke-linecap: round; stroke-linejoin: round; pointer-events: none;"></line><line x1="578" x2="582" y1="194" y2="194" role="presentation" shape-rendering="auto" vector-effect="non-scaling-stroke" style="stroke: transparent; fill: transparent; size: 4px; stroke-width: 1; stroke-linecap: round; stroke-linejoin: round;"></line><text dx="0" dy="4.97" x="590" y="194"><tspan x="590" dx="0" text-anchor="start" style="fill: rgb(153, 153, 153); font-size: 14px; font-family: inherit; stroke: transparent; letter-spacing: normal; padding: 8px; stroke-width: 0;">$200K</tspan></text></g><g role="presentation"><line x1="578" x2="15" y1="154" y2="154" role="presentation" shape-rendering="auto" vector-effect="non-scaling-stroke" style="stroke: rgb(226, 226, 226); fill: transparent; stroke-width: 1; stroke-linecap: round; stroke-linejoin: round; pointer-events: none;"></line><line x1="578" x2="582" y1="154" y2="154" role="presentation" shape-rendering="auto" vector-effect="non-scaling-stroke" style="stroke: transparent; fill: transparent; size: 4px; stroke-width: 1; stroke-linecap: round; stroke-linejoin: round;"></line><text dx="0" dy="4.97" x="590" y="154"><tspan x="590" dx="0" text-anchor="start" style="fill: rgb(153, 153, 153); font-size: 14px; font-family: inherit; stroke: transparent; letter-spacing: normal; padding: 8px; stroke-width: 0;">$250K</tspan></text></g><g role="presentation"><line x1="578" x2="15" y1="114" y2="114" role="presentation" shape-rendering="auto" vector-effect="non-scaling-stroke" style="stroke: rgb(226, 226, 226); fill: transparent; stroke-width: 1; stroke-linecap: round; stroke-linejoin: round; pointer-events: none;"></line><line x1="578" x2="582" y1="114" y2="114" role="presentation" shape-rendering="auto" vector-effect="non-scaling-stroke" style="stroke: transparent; fill: transparent; size: 4px; stroke-width: 1; stroke-linecap: round; stroke-linejoin: round;"></line><text dx="0" dy="4.97" x="590" y="114"><tspan x="590" dx="0" text-anchor="start" style="fill: rgb(153, 153, 153); font-size: 14px; font-family: inherit; stroke: transparent; letter-spacing: normal; padding: 8px; stroke-width: 0;">$300K</tspan></text></g><g role="presentation"><line x1="578" x2="15" y1="74" y2="74" role="presentation" shape-rendering="auto" vector-effect="non-scaling-stroke" style="stroke: rgb(226, 226, 226); fill: transparent; stroke-width: 1; stroke-linecap: round; stroke-linejoin: round; pointer-events: none;"></line><line x1="578" x2="582" y1="74" y2="74" role="presentation" shape-rendering="auto" vector-effect="non-scaling-stroke" style="stroke: transparent; fill: transparent; size: 4px; stroke-width: 1; stroke-linecap: round; stroke-linejoin: round;"></line><text dx="0" dy="4.97" x="590" y="74"><tspan x="590" dx="0" text-anchor="start" style="fill: rgb(153, 153, 153); font-size: 14px; font-family: inherit; stroke: transparent; letter-spacing: normal; padding: 8px; stroke-width: 0;">$350K</tspan></text></g><g role="presentation"><line x1="578" x2="15" y1="34" y2="34" role="presentation" shape-rendering="auto" vector-effect="non-scaling-stroke" style="stroke: rgb(226, 226, 226); fill: transparent; stroke-width: 1; stroke-linecap: round; stroke-linejoin: round; pointer-events: none;"></line><line x1="578" x2="582" y1="34" y2="34" role="presentation" shape-rendering="auto" vector-effect="non-scaling-stroke" style="stroke: transparent; fill: transparent; size: 4px; stroke-width: 1; stroke-linecap: round; stroke-linejoin: round;"></line><text dx="0" dy="4.97" x="590" y="34"><tspan x="590" dx="0" text-anchor="start" style="fill: rgb(153, 153, 153); font-size: 14px; font-family: inherit; stroke: transparent; letter-spacing: normal; padding: 8px; stroke-width: 0;">$400K</tspan></text></g></g><g style="height: 100%; width: 100%; user-select: none;"><defs><clipPath id="victory-clip-5"><rect x="15" y="34" width="563" height="240"></rect></clipPath></defs><g clip-path="url(#victory-clip-5)"><path shape-rendering="auto" role="presentation" d="M15.30815544608648,168C18.389709906951285,167.04431517715494,21.471264367816094,166.08863035430988,24.5528188286809,164.4C27.73709177157453,162.65508196721314,30.921364714468165,157.60000000000002,34.1056376573618,157.60000000000002C37.28991060025543,157.60000000000002,40.47418354314906,172.88646120218579,43.658456486042695,179.16C46.7400109469075,185.23116657852987,49.821565407772304,194.808,52.90311986863711,194.808C56.08739281153075,194.808,59.271665754424376,158,62.45593869731801,158C65.54177309493402,158,68.62760749255003,175.17415300255666,71.71344189016602,182C74.89771483305965,189.0435924633812,78.0819877759533,199.38,81.26626071884692,199.38C84.45053366174056,199.38,87.63480660463419,173.2,90.81907954752783,173.2C93.69519704433499,173.2,96.57131454114213,175.0083357730653,99.44743203794928,175.89600000000002C102.62742504409171,176.87745017948288,105.80741805023415,178.8,108.98741105637657,178.8C112.06896551724138,178.8,115.15051997810617,177.62,118.23207443897098,175.26C121.41634738186463,172.8213333333333,124.60062032475825,162.39999999999998,127.7848932676519,162.39999999999998C130.8664477285167,162.39999999999998,133.9480021893815,184.8,137.02955665024632,184.8C140.21382959313993,184.8,143.39810253603358,184.4,146.5823754789272,183.60000000000002C149.76664842182083,182.80000000000004,152.95092136471445,172.8,156.1351943076081,172.8C159.2167487684729,172.8,162.2983032293377,173.20000000000002,165.37985769020253,174C168.56413063309614,174.82666666666665,171.74840357598978,186.8,174.9326765188834,186.8C178.0185109164994,186.8,181.10434531411542,178,184.19017971173142,178C187.37445265462506,178,190.55872559751867,184.56666666666666,193.74299854041232,188.39999999999998C196.92727148330596,192.23333333333332,200.1115444261996,201,203.29581736909324,201C206.1719348659004,201,209.04805236270755,185.26556065484368,211.9241698595147,180.39999999999998C215.10416286565712,175.0203696926356,218.28415587179956,171.6,221.46414887794197,171.6C224.5457033388068,171.6,227.62725779967158,174.4,230.7088122605364,174.4C233.89308520343002,174.4,237.07735814632366,174,240.26163108921727,174C243.3431855500821,174,246.4247400109469,174,249.5062944718117,174C252.69056741470536,174,255.874840357599,175.64,259.05911330049264,175.64C262.2433862433863,175.64,265.42765918627987,174.8,268.6119321291735,174.8C271.69348659003833,174.8,274.7750410509031,180.8,277.8565955117679,180.8C281.04086845466156,180.8,284.22514139755515,167.93892542748898,287.4094143404488,163.2C290.4952487380648,158.607573611264,293.58108313568084,152.6,296.66691753329684,152.6C299.8511904761905,152.6,303.03546341908407,159.675,306.2197363619777,162C309.40400930487135,164.32500000000002,312.588282247765,165.2310552865214,315.77255519065864,166.55C318.6486726874658,167.7413049024968,321.52479018427294,169.64,324.4009076810801,169.64C327.58090068722254,169.64,330.76089369336495,154.07999999999998,333.94088669950736,154.07999999999998C337.0224411603722,154.07999999999998,340.10399562123695,159.6,343.18555008210177,159.6C346.3698230249954,159.6,349.55409596788905,159.2,352.7383689107827,158.39999999999998C355.8199233716475,157.62580645161287,358.9014778325123,154,361.9830322933771,154C365.16730523627075,154,368.35157817916433,172.60000000000002,371.535851122058,172.60000000000002C374.7201240649516,172.60000000000002,377.90439700784526,170,381.0886699507389,170C384.1702244116037,170,387.2517788724685,175.15800000000002,390.3333333333333,175.15800000000002C393.51760627622696,175.15800000000002,396.7018792191206,172.372,399.88615216201424,166.8C402.97198655963024,161.40025268817206,406.0578209572463,137.904,409.1436553548623,137.904C412.32792829775593,137.904,415.5122012406495,155.33333333333334,418.69647418354316,158C421.8807471264368,160.66666666666666,425.0650200693304,160.9873563218391,428.24929301222403,162C431.22812899106003,162.94731182795698,434.206964969896,164,437.185800948732,164C440.3657939548744,164,443.54578696101686,159.1250668590669,446.72577996715927,157.60000000000002C449.8073344280241,156.12214247842783,452.8888888888889,156.69333333333336,455.97044334975374,154.88C459.1547162926473,153.00622222222222,462.33898923554096,144,465.52326217843455,144C468.6048166392994,144,471.6863711001642,148.40258064516127,474.767925561029,149.27999999999997C477.95219850392266,150.18666666666664,481.1364714468163,150.64,484.32074438970994,150.64C487.50501733260353,150.64,490.68929027549717,143.2652102003643,493.87356321839076,140.604C496.9551176792556,138.02863528997003,500.0366721401204,134.8,503.1182266009852,134.8C506.3024995438788,134.8,509.48677248677245,144.39999999999998,512.671045429666,144.39999999999998C515.7568798272821,144.39999999999998,518.8427142248981,137.5510554118194,521.9285486225142,135.4564C525.1128215654078,133.29492479002275,528.2970945083015,131.804,531.4813674511951,131.804C534.6656403940887,131.804,537.8499133369824,146.4,541.0341862798759,146.4C543.9103037766831,146.4,546.7864212734902,139.11134885947683,549.6625387702974,134.08C552.8425317764398,128.51706517471536,556.0225247825822,118.73144071415913,559.2025177887247,114C562.2840722495895,109.41502380323742,565.3656267104543,105.77200000000002,568.4471811713191,105.77200000000002C571.6314541142127,105.77200000000002,574.8157270571064,106.65060000000001,578,107.5292" style="fill: transparent; stroke: rgb(51, 51, 51); stroke-width: 2; opacity: 1;"></path></g></g></svg>