<svg xmlns="http://www.w3.org/2000/svg" width="640" height="324" role="img" aria-labelledby="victory-container-4-title victory-container-4-desc" viewBox="0 0 640 324" style="pointer-events: all; width: 100%; height: 100%;"><g role="presentation"><line x1="15" x2="578" y1="274" y2="274" role="presentation" shape-rendering="auto" vector-effect="non-scaling-stroke" style="stroke: rgb(226, 226, 226); fill: transparent; stroke-width: 1; stroke-linejoin: round;"></line><g role="presentation"><line x1="81.26626071884692" x2="81.26626071884692" y1="274" y2="34" role="presentation" shape-rendering="auto" vector-effect="non-scaling-stroke" style="stroke: transparent; fill: transparent; stroke-width: 1; stroke-linecap: round; stroke-linejoin: round; pointer-events: none;"></line><line x1="81.26626071884692" x2="81.26626071884692" y1="274" y2="278" role="presentation" shape-rendering="auto" vector-effect="non-scaling-stroke" style="stroke: transparent; fill: transparent; size: 4px; stroke-width: 1; stroke-linecap: round; stroke-linejoin: round;"></line><text dx="0" dy="11.969999999999999" x="81.26626071884692" y="286"><tspan x="81.26626071884692" dx="0" text-anchor="middle" style="fill: rgb(153, 153, 153); font-size: 14px; font-family: inherit; stroke: transparent; letter-spacing: normal; padding: 8px; stroke-width: 0;">2017</tspan></text></g><g role="presentation"><line x1="193.74299854041232" x2="193.74299854041232" y1="274" y2="34" role="presentation" shape-rendering="auto" vector-effect="non-scaling-stroke" style="stroke: transparent; fill: transparent; stroke-width: 1; stroke-linecap: round; stroke-linejoin: round; pointer-events: none;"></line><line x1="193.74299854041232" x2="193.74299854041232" y1="274" y2="278" role="presentation" shape-rendering="auto" vector-effect="non-scaling-stroke" style="stroke: transparent; fill: transparent; size: 4px; stroke-width: 1; stroke-linecap: round; stroke-linejoin: round;"></line><text dx="0" dy="11.969999999999999" x="193.74299854041232" y="286"><tspan x="193.74299854041232" dx="0" text-anchor="middle" style="fill: rgb(153, 153, 153); font-size: 14px; font-family: inherit; stroke: transparent; letter-spacing: normal; padding: 8px; stroke-width: 0;">2018</tspan></text></g><g role="presentation"><line x1="306.2197363619777" x2="306.2197363619777" y1="274" y2="34" role="presentation" shape-rendering="auto" vector-effect="non-scaling-stroke" style="stroke: transparent; fill: transparent; stroke-width: 1; stroke-linecap: round; stroke-linejoin: round; pointer-events: none;"></line><line x1="306.2197363619777" x2="306.2197363619777" y1="274" y2="278" role="presentation" shape-rendering="auto" vector-effect="non-scaling-stroke" style="stroke: transparent; fill: transparent; size: 4px; stroke-width: 1; stroke-linecap: round; stroke-linejoin: round;"></line><text dx="0" dy="11.969999999999999" x="306.2197363619777" y="286"><tspan x="306.2197363619777" dx="0" text-anchor="middle" style="fill: rgb(153, 153, 153); font-size: 14px; font-family: inherit; stroke: transparent; letter-spacing: normal; padding: 8px; stroke-width: 0;">2019</tspan></text></g><g role="presentation"><line x1="418.69647418354316" x2="418.69647418354316" y1="274" y2="34" role="presentation" shape-rendering="auto" vector-effect="non-scaling-stroke" style="stroke: transparent; fill: transparent; stroke-width: 1; stroke-linecap: round; stroke-linejoin: round; pointer-events: none;"></line><line x1="418.69647418354316" x2="418.69647418354316" y1="274" y2="278" role="presentation" shape-rendering="auto" vector-effect="non-scaling-stroke" style="stroke: transparent; fill: transparent; size: 4px; stroke-width: 1; stroke-linecap: round; stroke-linejoin: round;"></line><text dx="0" dy="11.969999999999999" x="418.69647418354316" y="286"><tspan x="418.69647418354316" dx="0" text-anchor="middle" style="fill: rgb(153, 153, 153); font-size: 14px; font-family: inherit; stroke: transparent; letter-spacing: normal; padding: 8px; stroke-width: 0;">2020</tspan></text></g><g role="presentation"><line x1="531.4813674511951" x2="531.4813674511951" y1="274" y2="34" role="presentation" shape-rendering="auto" vector-effect="non-scaling-stroke" style="stroke: transparent; fill: transparent; stroke-width: 1; stroke-linecap: round; stroke-linejoin: round; pointer-events: none;"></line><line x1="531.4813674511951" x2="531.4813674511951" y1="274" y2="278" role="presentation" shape-rendering="auto" vector-effect="non-scaling-stroke" style="stroke: transparent; fill: transparent; size: 4px; stroke-width: 1; stroke-linecap: round; stroke-linejoin: round;"></line><text dx="0" dy="11.969999999999999" x="531.4813674511951" y="286"><tspan x="531.4813674511951" dx="0" text-anchor="middle" style="fill: rgb(153, 153, 153); font-size: 14px; font-family: inherit; stroke: transparent; letter-spacing: normal; padding: 8px; stroke-width: 0;">2021</tspan></text></g></g><g role="presentation"><line x1="578" x2="578" y1="34" y2="274" role="presentation" shape-rendering="auto" vector-effect="non-scaling-stroke" style="stroke: transparent; fill: transparent; stroke-width: 1; stroke-linejoin: round;"></line><g role="presentation"><line x1="578" x2="15" y1="274" y2="274" role="presentation" shape-rendering="auto" vector-effect="non-scaling-stroke" style="stroke: rgb(226, 226, 226); fill: transparent; stroke-width: 1; stroke-linecap: round; stroke-linejoin: round; pointer-events: none;"></line><line x1="578" x2="582" y1="274" y2="274" role="presentation" shape-rendering="auto" vector-effect="non-scaling-stroke" style="stroke: transparent; fill: transparent; size: 4px; stroke-width: 1; stroke-linecap: round; stroke-linejoin: round;"></line><text dx="0" dy="4.97" x="590" y="274"><tspan x="590" dx="0" text-anchor="start" style="fill: rgb(153, 153, 153); font-size: 14px; font-family: inherit; stroke: transparent; letter-spacing: normal; padding: 8px; stroke-width: 0;">$200K</tspan></text></g><g role="presentation"><line x1="578" x2="15" y1="214" y2="214" role="presentation" shape-rendering="auto" vector-effect="non-scaling-stroke" style="stroke: rgb(226, 226, 226); fill: transparent; stroke-width: 1; stroke-linecap: round; stroke-linejoin: round; pointer-events: none;"></line><line x1="578" x2="582" y1="214" y2="214" role="presentation" shape-rendering="auto" vector-effect="non-scaling-stroke" style="stroke: transparent; fill: transparent; size: 4px; stroke-width: 1; stroke-linecap: round; stroke-linejoin: round;"></line><text dx="0" dy="4.97" x="590" y="214"><tspan x="590" dx="0" text-anchor="start" style="fill: rgb(153, 153, 153); font-size: 14px; font-family: inherit; stroke: transparent; letter-spacing: normal; padding: 8px; stroke-width: 0;">$250K</tspan></text></g><g role="presentation"><line x1="578" x2="15" y1="154" y2="154" role="presentation" shape-rendering="auto" vector-effect="non-scaling-stroke" style="stroke: rgb(226, 226, 226); fill: transparent; stroke-width: 1; stroke-linecap: round; stroke-linejoin: round; pointer-events: none;"></line><line x1="578" x2="582" y1="154" y2="154" role="presentation" shape-rendering="auto" vector-effect="non-scaling-stroke" style="stroke: transparent; fill: transparent; size: 4px; stroke-width: 1; stroke-linecap: round; stroke-linejoin: round;"></line><text dx="0" dy="4.97" x="590" y="154"><tspan x="590" dx="0" text-anchor="start" style="fill: rgb(153, 153, 153); font-size: 14px; font-family: inherit; stroke: transparent; letter-spacing: normal; padding: 8px; stroke-width: 0;">$300K</tspan></text></g><g role="presentation"><line x1="578" x2="15" y1="94" y2="94" role="presentation" shape-rendering="auto" vector-effect="non-scaling-stroke" style="stroke: rgb(226, 226, 226); fill: transparent; stroke-width: 1; stroke-linecap: round; stroke-linejoin: round; pointer-events: none;"></line><line x1="578" x2="582" y1="94" y2="94" role="presentation" shape-rendering="auto" vector-effect="non-scaling-stroke" style="stroke: transparent; fill: transparent; size: 4px; stroke-width: 1; stroke-linecap: round; stroke-linejoin: round;"></line><text dx="0" dy="4.97" x="590" y="94"><tspan x="590" dx="0" text-anchor="start" style="fill: rgb(153, 153, 153); font-size: 14px; font-family: inherit; stroke: transparent; letter-spacing: normal; padding: 8px; stroke-width: 0;">$350K</tspan></text></g><g role="presentation"><line x1="578" x2="15" y1="34" y2="34" role="presentation" shape-rendering="auto" vector-effect="non-scaling-stroke" style="stroke: rgb(226, 226, 226); fill: transparent; stroke-width: 1; stroke-linecap: round; stroke-linejoin: round; pointer-events: none;"></line><line x1="578" x2="582" y1="34" y2="34" role="presentation" shape-rendering="auto" vector-effect="non-scaling-stroke" style="stroke: transparent; fill: transparent; size: 4px; stroke-width: 1; stroke-linecap: round; stroke-linejoin: round;"></line><text dx="0" dy="4.97" x="590" y="34"><tspan x="590" dx="0" text-anchor="start" style="fill: rgb(153, 153, 153); font-size: 14px; font-family: inherit; stroke: transparent; letter-spacing: normal; padding: 8px; stroke-width: 0;">$400K</tspan></text></g></g><g style="height: 100%; width: 100%; user-select: none;"><defs><clipPath id="victory-clip-5"><rect x="15" y="34" width="563" height="240"></rect></clipPath></defs><g clip-path="url(#victory-clip-5)"><path shape-rendering="auto" role="presentation" d="M15.30815544608648,238.6528C18.389709906951285,239.3764,21.471264367816094,240.1,24.5528188286809,240.1C27.73709177157453,240.1,30.921364714468165,219.79999999999998,34.1056376573618,217C37.28991060025543,214.20000000000002,40.47418354314906,215.1689617486339,43.658456486042695,212.8C46.7400109469075,210.5074563722898,49.821565407772304,203.2,52.90311986863711,203.2C56.08739281153075,203.2,59.271665754424376,214.0048,62.45593869731801,214.0048C65.54177309493402,214.0048,68.62760749255003,203.90800000000002,71.71344189016602,203.90800000000002C74.89771483305965,203.90800000000002,78.0819877759533,226,81.26626071884692,226C84.45053366174056,226,87.63480660463419,207.406,90.81907954752783,207.406C93.69519704433499,207.406,96.57131454114213,207.63,99.44743203794928,208.078C102.62742504409171,208.57333333333332,105.80741805023415,244.12,108.98741105637657,244.12C112.06896551724138,244.12,115.15051997810617,226.65597038603912,118.23207443897098,220C121.41634738186463,213.12216393442623,124.60062032475825,203.8,127.7848932676519,203.8C130.8664477285167,203.8,133.9480021893815,213.4,137.02955665024632,213.4C140.21382959313993,213.4,143.39810253603358,208,146.5823754789272,208C149.76664842182083,208,152.95092136471445,214,156.1351943076081,214C159.2167487684729,214,162.2983032293377,199.24,165.37985769020253,199.24C168.56413063309614,199.24,171.74840357598978,217.51744798890428,174.9326765188834,217.6C178.0185109164994,217.68,181.10434531411542,217.64,184.19017971173142,217.72C187.37445265462506,217.8025520110957,190.55872559751867,226.01,193.74299854041232,229.6C196.92727148330596,233.19,200.1115444261996,239.26,203.29581736909324,239.26C206.1719348659004,239.26,209.04805236270755,185.2,211.9241698595147,185.2C215.10416286565712,185.2,218.28415587179956,205.636,221.46414887794197,205.636C224.5457033388068,205.636,227.62725779967158,190,230.7088122605364,190C233.89308520343002,190,237.07735814632366,190.0056,240.26163108921727,190.0168C243.3431855500821,190.0276387096774,246.4247400109469,214.561,249.5062944718117,214.561C252.69056741470536,214.561,255.874840357599,197.32,259.05911330049264,197.32C262.2433862433863,197.32,265.42765918627987,207.796,268.6119321291735,207.796C271.69348659003833,207.796,274.7750410509031,184,277.8565955117679,184C281.04086845466156,184,284.22514139755515,208.6498,287.4094143404488,208.6498C290.4952487380648,208.6498,293.58108313568084,190,296.66691753329684,190C299.8511904761905,190,303.03546341908407,206.8,306.2197363619777,206.8C309.40400930487135,206.8,312.588282247765,204.84041162227604,315.77255519065864,203.56C318.6486726874658,202.4034991798797,321.52479018427294,202.24,324.4009076810801,199.6C327.58090068722254,196.68107142857144,330.76089369336495,173.8,333.94088669950736,173.8C337.0224411603722,173.8,340.10399562123695,194.2,343.18555008210177,194.2C346.3698230249954,194.2,349.55409596788905,158.8,352.7383689107827,158.8C355.8199233716475,158.8,358.9014778325123,188.8,361.9830322933771,188.8C365.16730523627075,188.8,368.35157817916433,178,371.535851122058,178C374.7201240649516,178,377.90439700784526,199,381.0886699507389,199C384.1702244116037,199,387.2517788724685,196.13394394500264,390.3333333333333,193.372C393.51760627622696,190.5179912568306,396.7018792191206,181.97199999999998,399.88615216201424,181.97199999999998C402.97198655963024,181.97199999999998,406.0578209572463,182.648,409.1436553548623,184C412.32792829775593,185.39512898751735,415.5122012406495,196,418.69647418354316,196C421.8807471264368,196,425.0650200693304,187.612,428.24929301222403,187.612C431.22812899106003,187.612,434.206964969896,200.8,437.185800948732,200.8C440.3657939548744,200.8,443.54578696101686,188.0811078647376,446.72577996715927,182.2C449.8073344280241,176.5009452723942,452.8888888888889,166.0012,455.97044334975374,166.0012C459.1547162926473,166.0012,462.33898923554096,175.132,465.52326217843455,175.132C468.6048166392994,175.132,471.6863711001642,130,474.767925561029,130C477.95219850392266,130,481.1364714468163,173.4,484.32074438970994,175C487.50501733260353,176.6,490.68929027549717,176.69147540983604,493.87356321839076,177.39999999999998C496.9551176792556,178.08566895822315,500.0366721401204,177.99999999999997,503.1182266009852,179.2C506.3024995438788,180.43999999999997,509.48677248677245,189.4,512.671045429666,189.4C515.7568798272821,189.4,518.8427142248981,178.43764919630104,521.9285486225142,163C525.1128215654078,147.06988765319312,528.2970945083015,94.006,531.4813674511951,94.006C534.6656403940887,94.006,537.8499133369824,155.8,541.0341862798759,155.8C543.9103037766831,155.8,546.7864212734902,145.80577080216295,549.6625387702974,137.20000000000002C552.8425317764398,127.68498853272759,556.0225247825822,99.832,559.2025177887247,99.832C562.2840722495895,99.832,565.3656267104543,101.08800000000001,568.4471811713191,103.60000000000002C571.6314541142127,106.19573333333335,574.8157270571064,118.09786666666668,578,130" style="fill: transparent; stroke: rgb(51, 51, 51); stroke-width: 2; opacity: 1;"></path></g></g></svg>