<svg xmlns="http://www.w3.org/2000/svg" width="640" height="324" role="img" aria-labelledby="victory-container-4-title victory-container-4-desc" viewBox="0 0 640 324" style="pointer-events: all; width: 100%; height: 100%;"><g role="presentation"><line x1="15" x2="578" y1="274" y2="274" role="presentation" shape-rendering="auto" vector-effect="non-scaling-stroke" style="stroke: rgb(226, 226, 226); fill: transparent; stroke-width: 1; stroke-linejoin: round;"></line><g role="presentation"><line x1="81.26626071884692" x2="81.26626071884692" y1="274" y2="34" role="presentation" shape-rendering="auto" vector-effect="non-scaling-stroke" style="stroke: transparent; fill: transparent; stroke-width: 1; stroke-linecap: round; stroke-linejoin: round; pointer-events: none;"></line><line x1="81.26626071884692" x2="81.26626071884692" y1="274" y2="278" role="presentation" shape-rendering="auto" vector-effect="non-scaling-stroke" style="stroke: transparent; fill: transparent; size: 4px; stroke-width: 1; stroke-linecap: round; stroke-linejoin: round;"></line><text dx="0" dy="11.969999999999999" x="81.26626071884692" y="286"><tspan x="81.26626071884692" dx="0" text-anchor="middle" style="fill: rgb(153, 153, 153); font-size: 14px; font-family: inherit; stroke: transparent; letter-spacing: normal; padding: 8px; stroke-width: 0;">2017</tspan></text></g><g role="presentation"><line x1="193.74299854041232" x2="193.74299854041232" y1="274" y2="34" role="presentation" shape-rendering="auto" vector-effect="non-scaling-stroke" style="stroke: transparent; fill: transparent; stroke-width: 1; stroke-linecap: round; stroke-linejoin: round; pointer-events: none;"></line><line x1="193.74299854041232" x2="193.74299854041232" y1="274" y2="278" role="presentation" shape-rendering="auto" vector-effect="non-scaling-stroke" style="stroke: transparent; fill: transparent; size: 4px; stroke-width: 1; stroke-linecap: round; stroke-linejoin: round;"></line><text dx="0" dy="11.969999999999999" x="193.74299854041232" y="286"><tspan x="193.74299854041232" dx="0" text-anchor="middle" style="fill: rgb(153, 153, 153); font-size: 14px; font-family: inherit; stroke: transparent; letter-spacing: normal; padding: 8px; stroke-width: 0;">2018</tspan></text></g><g role="presentation"><line x1="306.2197363619777" x2="306.2197363619777" y1="274" y2="34" role="presentation" shape-rendering="auto" vector-effect="non-scaling-stroke" style="stroke: transparent; fill: transparent; stroke-width: 1; stroke-linecap: round; stroke-linejoin: round; pointer-events: none;"></line><line x1="306.2197363619777" x2="306.2197363619777" y1="274" y2="278" role="presentation" shape-rendering="auto" vector-effect="non-scaling-stroke" style="stroke: transparent; fill: transparent; size: 4px; stroke-width: 1; stroke-linecap: round; stroke-linejoin: round;"></line><text dx="0" dy="11.969999999999999" x="306.2197363619777" y="286"><tspan x="306.2197363619777" dx="0" text-anchor="middle" style="fill: rgb(153, 153, 153); font-size: 14px; font-family: inherit; stroke: transparent; letter-spacing: normal; padding: 8px; stroke-width: 0;">2019</tspan></text></g><g role="presentation"><line x1="418.69647418354316" x2="418.69647418354316" y1="274" y2="34" role="presentation" shape-rendering="auto" vector-effect="non-scaling-stroke" style="stroke: transparent; fill: transparent; stroke-width: 1; stroke-linecap: round; stroke-linejoin: round; pointer-events: none;"></line><line x1="418.69647418354316" x2="418.69647418354316" y1="274" y2="278" role="presentation" shape-rendering="auto" vector-effect="non-scaling-stroke" style="stroke: transparent; fill: transparent; size: 4px; stroke-width: 1; stroke-linecap: round; stroke-linejoin: round;"></line><text dx="0" dy="11.969999999999999" x="418.69647418354316" y="286"><tspan x="418.69647418354316" dx="0" text-anchor="middle" style="fill: rgb(153, 153, 153); font-size: 14px; font-family: inherit; stroke: transparent; letter-spacing: normal; padding: 8px; stroke-width: 0;">2020</tspan></text></g><g role="presentation"><line x1="531.4813674511951" x2="531.4813674511951" y1="274" y2="34" role="presentation" shape-rendering="auto" vector-effect="non-scaling-stroke" style="stroke: transparent; fill: transparent; stroke-width: 1; stroke-linecap: round; stroke-linejoin: round; pointer-events: none;"></line><line x1="531.4813674511951" x2="531.4813674511951" y1="274" y2="278" role="presentation" shape-rendering="auto" vector-effect="non-scaling-stroke" style="stroke: transparent; fill: transparent; size: 4px; stroke-width: 1; stroke-linecap: round; stroke-linejoin: round;"></line><text dx="0" dy="11.969999999999999" x="531.4813674511951" y="286"><tspan x="531.4813674511951" dx="0" text-anchor="middle" style="fill: rgb(153, 153, 153); font-size: 14px; font-family: inherit; stroke: transparent; letter-spacing: normal; padding: 8px; stroke-width: 0;">2021</tspan></text></g></g><g role="presentation"><line x1="578" x2="578" y1="34" y2="274" role="presentation" shape-rendering="auto" vector-effect="non-scaling-stroke" style="stroke: transparent; fill: transparent; stroke-width: 1; stroke-linejoin: round;"></line><g role="presentation"><line x1="578" x2="15" y1="274" y2="274" role="presentation" shape-rendering="auto" vector-effect="non-scaling-stroke" style="stroke: rgb(226, 226, 226); fill: transparent; stroke-width: 1; stroke-linecap: round; stroke-linejoin: round; pointer-events: none;"></line><line x1="578" x2="582" y1="274" y2="274" role="presentation" shape-rendering="auto" vector-effect="non-scaling-stroke" style="stroke: transparent; fill: transparent; size: 4px; stroke-width: 1; stroke-linecap: round; stroke-linejoin: round;"></line><text dx="0" dy="4.97" x="590" y="274"><tspan x="590" dx="0" text-anchor="start" style="fill: rgb(153, 153, 153); font-size: 14px; font-family: inherit; stroke: transparent; letter-spacing: normal; padding: 8px; stroke-width: 0;">$100K</tspan></text></g><g role="presentation"><line x1="578" x2="15" y1="214" y2="214" role="presentation" shape-rendering="auto" vector-effect="non-scaling-stroke" style="stroke: rgb(226, 226, 226); fill: transparent; stroke-width: 1; stroke-linecap: round; stroke-linejoin: round; pointer-events: none;"></line><line x1="578" x2="582" y1="214" y2="214" role="presentation" shape-rendering="auto" vector-effect="non-scaling-stroke" style="stroke: transparent; fill: transparent; size: 4px; stroke-width: 1; stroke-linecap: round; stroke-linejoin: round;"></line><text dx="0" dy="4.97" x="590" y="214"><tspan x="590" dx="0" text-anchor="start" style="fill: rgb(153, 153, 153); font-size: 14px; font-family: inherit; stroke: transparent; letter-spacing: normal; padding: 8px; stroke-width: 0;">$150K</tspan></text></g><g role="presentation"><line x1="578" x2="15" y1="154" y2="154" role="presentation" shape-rendering="auto" vector-effect="non-scaling-stroke" style="stroke: rgb(226, 226, 226); fill: transparent; stroke-width: 1; stroke-linecap: round; stroke-linejoin: round; pointer-events: none;"></line><line x1="578" x2="582" y1="154" y2="154" role="presentation" shape-rendering="auto" vector-effect="non-scaling-stroke" style="stroke: transparent; fill: transparent; size: 4px; stroke-width: 1; stroke-linecap: round; stroke-linejoin: round;"></line><text dx="0" dy="4.97" x="590" y="154"><tspan x="590" dx="0" text-anchor="start" style="fill: rgb(153, 153, 153); font-size: 14px; font-family: inherit; stroke: transparent; letter-spacing: normal; padding: 8px; stroke-width: 0;">$200K</tspan></text></g><g role="presentation"><line x1="578" x2="15" y1="94" y2="94" role="presentation" shape-rendering="auto" vector-effect="non-scaling-stroke" style="stroke: rgb(226, 226, 226); fill: transparent; stroke-width: 1; stroke-linecap: round; stroke-linejoin: round; pointer-events: none;"></line><line x1="578" x2="582" y1="94" y2="94" role="presentation" shape-rendering="auto" vector-effect="non-scaling-stroke" style="stroke: transparent; fill: transparent; size: 4px; stroke-width: 1; stroke-linecap: round; stroke-linejoin: round;"></line><text dx="0" dy="4.97" x="590" y="94"><tspan x="590" dx="0" text-anchor="start" style="fill: rgb(153, 153, 153); font-size: 14px; font-family: inherit; stroke: transparent; letter-spacing: normal; padding: 8px; stroke-width: 0;">$250K</tspan></text></g><g role="presentation"><line x1="578" x2="15" y1="34" y2="34" role="presentation" shape-rendering="auto" vector-effect="non-scaling-stroke" style="stroke: rgb(226, 226, 226); fill: transparent; stroke-width: 1; stroke-linecap: round; stroke-linejoin: round; pointer-events: none;"></line><line x1="578" x2="582" y1="34" y2="34" role="presentation" shape-rendering="auto" vector-effect="non-scaling-stroke" style="stroke: transparent; fill: transparent; size: 4px; stroke-width: 1; stroke-linecap: round; stroke-linejoin: round;"></line><text dx="0" dy="4.97" x="590" y="34"><tspan x="590" dx="0" text-anchor="start" style="fill: rgb(153, 153, 153); font-size: 14px; font-family: inherit; stroke: transparent; letter-spacing: normal; padding: 8px; stroke-width: 0;">$300K</tspan></text></g></g><g style="height: 100%; width: 100%; user-select: none;"><defs><clipPath id="victory-clip-5"><rect x="15" y="34" width="563" height="240"></rect></clipPath></defs><g clip-path="url(#victory-clip-5)"><path shape-rendering="auto" role="presentation" d="M24.5528188286809,154C27.73709177157453,162.105,30.921364714468165,170.20999999999998,34.1056376573618,177.39999999999998C37.28991060025543,184.58999999999997,40.47418354314906,197.14,43.658456486042695,197.14C46.7400109469075,197.14,49.821565407772304,182.1208,52.90311986863711,182.1208C56.08739281153075,182.1208,59.271665754424376,185.797,62.45593869731801,185.797C65.54177309493402,185.797,68.62760749255003,177.19702569598886,71.71344189016602,172C74.89771483305965,166.6371884635011,78.0819877759533,154.00119999999998,81.26626071884692,154.00119999999998C84.45053366174056,154.00119999999998,87.63480660463419,168.4,90.81907954752783,168.4C93.69519704433499,168.4,96.57131454114213,163,99.44743203794928,163C102.62742504409171,163,105.80741805023415,163.606,108.98741105637657,163.606C112.06896551724138,163.606,115.15051997810617,130,118.23207443897098,130C121.41634738186463,130,124.60062032475825,147.48126229508196,127.7848932676519,156.43C130.8664477285167,165.09006874669487,133.9480021893815,182.8,137.02955665024632,182.8C140.21382959313993,182.8,143.39810253603358,181.66559999999998,146.5823754789272,179.8672C149.76664842182083,178.06879999999998,152.95092136471445,177.248,156.1351943076081,172.0096C159.2167487684729,166.9401806451613,162.2983032293377,144.70000000000002,165.37985769020253,144.70000000000002C168.56413063309614,144.70000000000002,171.74840357598978,172,174.9326765188834,172C178.0185109164994,172,181.10434531411542,124,184.19017971173142,124C187.37445265462506,124,190.55872559751867,148.00000000000003,193.74299854041232,154C196.92727148330596,160,200.1115444261996,163,203.29581736909324,163C206.1719348659004,163,209.04805236270755,162.04210652069492,211.9241698595147,161.212C215.10416286565712,160.29418877250546,218.28415587179956,159.03107009949116,221.46414887794197,157.60000000000002C224.5457033388068,156.21322951327912,227.62725779967158,152.8,230.7088122605364,152.8C233.89308520343002,152.8,237.07735814632366,161.2,240.26163108921727,161.2C243.3431855500821,161.2,246.4247400109469,146.8,249.5062944718117,146.8C252.69056741470536,146.8,255.874840357599,157.72,259.05911330049264,157.72C262.2433862433863,157.72,265.42765918627987,144.52,268.6119321291735,144.52C271.69348659003833,144.52,274.7750410509031,161.32,277.8565955117679,161.32C281.04086845466156,161.32,284.22514139755515,149.2,287.4094143404488,149.2C290.4952487380648,149.2,293.58108313568084,163.72,296.66691753329684,163.72C299.8511904761905,163.72,303.03546341908407,160.88,306.2197363619777,155.2C309.40400930487135,149.51999999999995,312.588282247765,100.6,315.77255519065864,100.6C318.6486726874658,100.6,321.52479018427294,142.2705450874831,324.4009076810801,145.825C327.58090068722254,149.75500000000002,330.76089369336495,151.72000000000003,333.94088669950736,151.72000000000003C337.0224411603722,151.72000000000003,340.10399562123695,145.72,343.18555008210177,145.72C346.3698230249954,145.72,349.55409596788905,160.12,352.7383689107827,160.12C355.8199233716475,160.12,358.9014778325123,153.73311475409838,361.9830322933771,151.72000000000003C365.16730523627075,149.63978142076505,368.35157817916433,148,371.535851122058,148C374.7201240649516,148,377.90439700784526,154.12,381.0886699507389,154.12C384.1702244116037,154.12,387.2517788724685,153.4900264410365,390.3333333333333,152.8C393.51760627622696,152.08697267759564,396.7018792191206,150.23148404993069,399.88615216201424,149.86C402.97198655963024,149.5,406.0578209572463,149.32,409.1436553548623,149.32C412.32792829775593,149.32,415.5122012406495,168.4,418.69647418354316,168.4C421.8807471264368,168.4,425.0650200693304,153.9743011494253,428.24929301222403,148.12C431.22812899106003,142.64339569892473,434.206964969896,134.068,437.185800948732,134.068C440.3657939548744,134.068,443.54578696101686,144.19466117946382,446.72577996715927,148C449.8073344280241,151.68754232945633,452.8888888888889,156.7,455.97044334975374,156.7C459.1547162926473,156.7,462.33898923554096,144.46,465.52326217843455,144.46C468.6048166392994,144.46,471.6863711001642,148.06,474.767925561029,148.06C477.95219850392266,148.06,481.1364714468163,144.5319,484.32074438970994,141.7C487.50501733260353,138.8681,490.68929027549717,131.0686,493.87356321839076,131.0686C496.9551176792556,131.0686,500.0366721401204,135.45999999999998,503.1182266009852,135.45999999999998C506.3024995438788,135.45999999999998,509.48677248677245,118,512.671045429666,118C515.7568798272821,118,518.8427142248981,136.95520000000002,521.9285486225142,136.95520000000002C525.1128215654078,136.95520000000002,528.2970945083015,132.8792,531.4813674511951,128.32C534.6656403940887,123.76079999999999,537.8499133369824,109.6,541.0341862798759,109.6C543.9103037766831,109.6,546.7864212734902,114.56586810228802,549.6625387702974,115C552.8425317764398,115.48,556.0225247825822,115.72,559.2025177887247,115.72C562.2840722495895,115.72,565.3656267104543,104.24805922792174,568.4471811713191,98.85999999999999C571.6314541142127,93.29233879781422,574.8157270571064,88.09616939890711,578,82.9" style="fill: transparent; stroke: rgb(51, 51, 51); stroke-width: 2; opacity: 1;"></path></g></g></svg>