<svg xmlns="http://www.w3.org/2000/svg" width="640" height="324" role="img" aria-labelledby="victory-container-4-title victory-container-4-desc" viewBox="0 0 640 324" style="pointer-events: all; width: 100%; height: 100%;"><g role="presentation"><line x1="15" x2="578" y1="274" y2="274" role="presentation" shape-rendering="auto" vector-effect="non-scaling-stroke" style="stroke: rgb(226, 226, 226); fill: transparent; stroke-width: 1; stroke-linejoin: round;"></line><g role="presentation"><line x1="81.26626071884692" x2="81.26626071884692" y1="274" y2="34" role="presentation" shape-rendering="auto" vector-effect="non-scaling-stroke" style="stroke: transparent; fill: transparent; stroke-width: 1; stroke-linecap: round; stroke-linejoin: round; pointer-events: none;"></line><line x1="81.26626071884692" x2="81.26626071884692" y1="274" y2="278" role="presentation" shape-rendering="auto" vector-effect="non-scaling-stroke" style="stroke: transparent; fill: transparent; size: 4px; stroke-width: 1; stroke-linecap: round; stroke-linejoin: round;"></line><text dx="0" dy="11.969999999999999" x="81.26626071884692" y="286"><tspan x="81.26626071884692" dx="0" text-anchor="middle" style="fill: rgb(153, 153, 153); font-size: 14px; font-family: inherit; stroke: transparent; letter-spacing: normal; padding: 8px; stroke-width: 0;">2017</tspan></text></g><g role="presentation"><line x1="193.74299854041232" x2="193.74299854041232" y1="274" y2="34" role="presentation" shape-rendering="auto" vector-effect="non-scaling-stroke" style="stroke: transparent; fill: transparent; stroke-width: 1; stroke-linecap: round; stroke-linejoin: round; pointer-events: none;"></line><line x1="193.74299854041232" x2="193.74299854041232" y1="274" y2="278" role="presentation" shape-rendering="auto" vector-effect="non-scaling-stroke" style="stroke: transparent; fill: transparent; size: 4px; stroke-width: 1; stroke-linecap: round; stroke-linejoin: round;"></line><text dx="0" dy="11.969999999999999" x="193.74299854041232" y="286"><tspan x="193.74299854041232" dx="0" text-anchor="middle" style="fill: rgb(153, 153, 153); font-size: 14px; font-family: inherit; stroke: transparent; letter-spacing: normal; padding: 8px; stroke-width: 0;">2018</tspan></text></g><g role="presentation"><line x1="306.2197363619777" x2="306.2197363619777" y1="274" y2="34" role="presentation" shape-rendering="auto" vector-effect="non-scaling-stroke" style="stroke: transparent; fill: transparent; stroke-width: 1; stroke-linecap: round; stroke-linejoin: round; pointer-events: none;"></line><line x1="306.2197363619777" x2="306.2197363619777" y1="274" y2="278" role="presentation" shape-rendering="auto" vector-effect="non-scaling-stroke" style="stroke: transparent; fill: transparent; size: 4px; stroke-width: 1; stroke-linecap: round; stroke-linejoin: round;"></line><text dx="0" dy="11.969999999999999" x="306.2197363619777" y="286"><tspan x="306.2197363619777" dx="0" text-anchor="middle" style="fill: rgb(153, 153, 153); font-size: 14px; font-family: inherit; stroke: transparent; letter-spacing: normal; padding: 8px; stroke-width: 0;">2019</tspan></text></g><g role="presentation"><line x1="418.69647418354316" x2="418.69647418354316" y1="274" y2="34" role="presentation" shape-rendering="auto" vector-effect="non-scaling-stroke" style="stroke: transparent; fill: transparent; stroke-width: 1; stroke-linecap: round; stroke-linejoin: round; pointer-events: none;"></line><line x1="418.69647418354316" x2="418.69647418354316" y1="274" y2="278" role="presentation" shape-rendering="auto" vector-effect="non-scaling-stroke" style="stroke: transparent; fill: transparent; size: 4px; stroke-width: 1; stroke-linecap: round; stroke-linejoin: round;"></line><text dx="0" dy="11.969999999999999" x="418.69647418354316" y="286"><tspan x="418.69647418354316" dx="0" text-anchor="middle" style="fill: rgb(153, 153, 153); font-size: 14px; font-family: inherit; stroke: transparent; letter-spacing: normal; padding: 8px; stroke-width: 0;">2020</tspan></text></g><g role="presentation"><line x1="531.4813674511951" x2="531.4813674511951" y1="274" y2="34" role="presentation" shape-rendering="auto" vector-effect="non-scaling-stroke" style="stroke: transparent; fill: transparent; stroke-width: 1; stroke-linecap: round; stroke-linejoin: round; pointer-events: none;"></line><line x1="531.4813674511951" x2="531.4813674511951" y1="274" y2="278" role="presentation" shape-rendering="auto" vector-effect="non-scaling-stroke" style="stroke: transparent; fill: transparent; size: 4px; stroke-width: 1; stroke-linecap: round; stroke-linejoin: round;"></line><text dx="0" dy="11.969999999999999" x="531.4813674511951" y="286"><tspan x="531.4813674511951" dx="0" text-anchor="middle" style="fill: rgb(153, 153, 153); font-size: 14px; font-family: inherit; stroke: transparent; letter-spacing: normal; padding: 8px; stroke-width: 0;">2021</tspan></text></g></g><g role="presentation"><line x1="578" x2="578" y1="34" y2="274" role="presentation" shape-rendering="auto" vector-effect="non-scaling-stroke" style="stroke: transparent; fill: transparent; stroke-width: 1; stroke-linejoin: round;"></line><g role="presentation"><line x1="578" x2="15" y1="274" y2="274" role="presentation" shape-rendering="auto" vector-effect="non-scaling-stroke" style="stroke: rgb(226, 226, 226); fill: transparent; stroke-width: 1; stroke-linecap: round; stroke-linejoin: round; pointer-events: none;"></line><line x1="578" x2="582" y1="274" y2="274" role="presentation" shape-rendering="auto" vector-effect="non-scaling-stroke" style="stroke: transparent; fill: transparent; size: 4px; stroke-width: 1; stroke-linecap: round; stroke-linejoin: round;"></line><text dx="0" dy="4.97" x="590" y="274"><tspan x="590" dx="0" text-anchor="start" style="fill: rgb(153, 153, 153); font-size: 14px; font-family: inherit; stroke: transparent; letter-spacing: normal; padding: 8px; stroke-width: 0;">$200K</tspan></text></g><g role="presentation"><line x1="578" x2="15" y1="214" y2="214" role="presentation" shape-rendering="auto" vector-effect="non-scaling-stroke" style="stroke: rgb(226, 226, 226); fill: transparent; stroke-width: 1; stroke-linecap: round; stroke-linejoin: round; pointer-events: none;"></line><line x1="578" x2="582" y1="214" y2="214" role="presentation" shape-rendering="auto" vector-effect="non-scaling-stroke" style="stroke: transparent; fill: transparent; size: 4px; stroke-width: 1; stroke-linecap: round; stroke-linejoin: round;"></line><text dx="0" dy="4.97" x="590" y="214"><tspan x="590" dx="0" text-anchor="start" style="fill: rgb(153, 153, 153); font-size: 14px; font-family: inherit; stroke: transparent; letter-spacing: normal; padding: 8px; stroke-width: 0;">$250K</tspan></text></g><g role="presentation"><line x1="578" x2="15" y1="154" y2="154" role="presentation" shape-rendering="auto" vector-effect="non-scaling-stroke" style="stroke: rgb(226, 226, 226); fill: transparent; stroke-width: 1; stroke-linecap: round; stroke-linejoin: round; pointer-events: none;"></line><line x1="578" x2="582" y1="154" y2="154" role="presentation" shape-rendering="auto" vector-effect="non-scaling-stroke" style="stroke: transparent; fill: transparent; size: 4px; stroke-width: 1; stroke-linecap: round; stroke-linejoin: round;"></line><text dx="0" dy="4.97" x="590" y="154"><tspan x="590" dx="0" text-anchor="start" style="fill: rgb(153, 153, 153); font-size: 14px; font-family: inherit; stroke: transparent; letter-spacing: normal; padding: 8px; stroke-width: 0;">$300K</tspan></text></g><g role="presentation"><line x1="578" x2="15" y1="94" y2="94" role="presentation" shape-rendering="auto" vector-effect="non-scaling-stroke" style="stroke: rgb(226, 226, 226); fill: transparent; stroke-width: 1; stroke-linecap: round; stroke-linejoin: round; pointer-events: none;"></line><line x1="578" x2="582" y1="94" y2="94" role="presentation" shape-rendering="auto" vector-effect="non-scaling-stroke" style="stroke: transparent; fill: transparent; size: 4px; stroke-width: 1; stroke-linecap: round; stroke-linejoin: round;"></line><text dx="0" dy="4.97" x="590" y="94"><tspan x="590" dx="0" text-anchor="start" style="fill: rgb(153, 153, 153); font-size: 14px; font-family: inherit; stroke: transparent; letter-spacing: normal; padding: 8px; stroke-width: 0;">$350K</tspan></text></g><g role="presentation"><line x1="578" x2="15" y1="34" y2="34" role="presentation" shape-rendering="auto" vector-effect="non-scaling-stroke" style="stroke: rgb(226, 226, 226); fill: transparent; stroke-width: 1; stroke-linecap: round; stroke-linejoin: round; pointer-events: none;"></line><line x1="578" x2="582" y1="34" y2="34" role="presentation" shape-rendering="auto" vector-effect="non-scaling-stroke" style="stroke: transparent; fill: transparent; size: 4px; stroke-width: 1; stroke-linecap: round; stroke-linejoin: round;"></line><text dx="0" dy="4.97" x="590" y="34"><tspan x="590" dx="0" text-anchor="start" style="fill: rgb(153, 153, 153); font-size: 14px; font-family: inherit; stroke: transparent; letter-spacing: normal; padding: 8px; stroke-width: 0;">$400K</tspan></text></g></g><g style="height: 100%; width: 100%; user-select: none;"><defs><clipPath id="victory-clip-5"><rect x="15" y="34" width="563" height="240"></rect></clipPath></defs><g clip-path="url(#victory-clip-5)"><path shape-rendering="auto" role="presentation" d="M15.30815544608648,168.4C18.389709906951285,180.27711475409836,21.471264367816094,192.15422950819672,24.5528188286809,202.612C27.73709177157453,213.41836284153004,30.921364714468165,232,34.1056376573618,232C37.28991060025543,232,40.47418354314906,223.40818797814208,43.658456486042695,220C46.7400109469075,216.70175356953993,49.821565407772304,217.256,52.90311986863711,211.768C56.08739281153075,206.09706666666668,59.271665754424376,183.7490471652474,62.45593869731801,175.60000000000002C65.54177309493402,167.7028723035708,68.62760749255003,162.916,71.71344189016602,162.916C74.89771483305965,162.916,78.0819877759533,221.8,81.26626071884692,221.8C84.45053366174056,221.8,87.63480660463419,221.71,90.81907954752783,221.53C93.69519704433499,221.36741935483872,96.57131454114213,202,99.44743203794928,202C102.62742504409171,202,105.80741805023415,202,108.98741105637657,202C112.06896551724138,202,115.15051997810617,186.3052,118.23207443897098,186.3052C121.41634738186463,186.3052,124.60062032475825,217,127.7848932676519,217C130.8664477285167,217,133.9480021893815,214.3681649920677,137.02955665024632,212.8C140.21382959313993,211.17956284153007,143.39810253603358,207.73919999999995,146.5823754789272,207.39999999999998C149.76664842182083,207.0608,152.95092136471445,207.23039999999997,156.1351943076081,206.8912C159.2167487684729,206.56294193548388,162.2983032293377,189.92258064516133,165.37985769020253,187.60000000000002C168.56413063309614,185.20000000000002,171.74840357598978,186.4,174.9326765188834,184C178.0185109164994,181.67419354838708,181.10434531411542,148,184.19017971173142,148C187.37445265462506,148,190.55872559751867,181.15120000000002,193.74299854041232,181.15120000000002C196.92727148330596,181.15120000000002,200.1115444261996,163.6,203.29581736909324,163.6C206.1719348659004,163.6,209.04805236270755,196,211.9241698595147,196C215.10416286565712,196,218.28415587179956,182.23,221.46414887794197,182.23C224.5457033388068,182.23,227.62725779967158,185.8,230.7088122605364,185.8C233.89308520343002,185.8,237.07735814632366,167.04579999999999,240.26163108921727,167.04579999999999C243.3431855500821,167.04579999999999,246.4247400109469,180.64000000000001,249.5062944718117,184C252.69056741470536,187.472,255.874840357599,189.208,259.05911330049264,189.208C262.2433862433863,189.208,265.42765918627987,187.6072,268.6119321291735,184.4056C271.69348659003833,181.30727741935482,274.7750410509031,162.91000000000003,277.8565955117679,162.91000000000003C281.04086845466156,162.91000000000003,284.22514139755515,172,287.4094143404488,172C290.4952487380648,172,293.58108313568084,172,296.66691753329684,172C299.8511904761905,172,303.03546341908407,200.686,306.2197363619777,200.686C309.40400930487135,200.686,312.588282247765,184.06,315.77255519065864,184.06C318.6486726874658,184.06,321.52479018427294,187.61556881518436,324.4009076810801,188.8C327.58090068722254,190.10957197963992,330.76089369336495,190.03505494417863,333.94088669950736,191.278C337.0224411603722,192.48246896391842,340.10399562123695,196.066,343.18555008210177,196.066C346.3698230249954,196.066,349.55409596788905,184,352.7383689107827,184C355.8199233716475,184,358.9014778325123,184,361.9830322933771,184C365.16730523627075,184,368.35157817916433,199.6,371.535851122058,199.6C374.7201240649516,199.6,377.90439700784526,160,381.0886699507389,160C384.1702244116037,160,387.2517788724685,186.28,390.3333333333333,186.28C393.51760627622696,186.28,396.7018792191206,136,399.88615216201424,136C402.97198655963024,136,406.0578209572463,177.16,409.1436553548623,177.16C412.32792829775593,177.16,415.5122012406495,172,418.69647418354316,172C421.8807471264368,172,425.0650200693304,178.00365517241383,428.24929301222403,181.43200000000002C431.22812899106003,184.6391612903226,434.206964969896,188.45698721165908,437.185800948732,191.8C440.3657939548744,195.36876221513984,443.54578696101686,202.12,446.72577996715927,202.12C449.8073344280241,202.12,452.8888888888889,166.19354838709688,455.97044334975374,160C459.1547162926473,153.6,462.33898923554096,150.39999999999998,465.52326217843455,150.39999999999998C468.6048166392994,150.39999999999998,471.6863711001642,151.60199999999998,474.767925561029,154.006C477.95219850392266,156.49013333333335,481.1364714468163,196,484.32074438970994,196C487.50501733260353,196,490.68929027549717,192.77,493.87356321839076,186.31C496.9551176792556,180.0583870967741,500.0366721401204,153.4,503.1182266009852,153.4C506.3024995438788,153.4,509.48677248677245,170.70036799477407,512.671045429666,175.60000000000002C515.7568798272821,180.34816488678499,518.8427142248981,182.8,521.9285486225142,182.8C525.1128215654078,182.8,528.2970945083015,153.21499999999997,531.4813674511951,150.16899999999998C534.6656403940887,147.123,537.8499133369824,148.646,541.0341862798759,145.6C543.9103037766831,142.8487741935484,546.7864212734902,130,549.6625387702974,130C552.8425317764398,130,556.0225247825822,139.6,559.2025177887247,139.6C562.2840722495895,139.6,565.3656267104543,106,568.4471811713191,106C571.6314541142127,106,574.8157270571064,109,578,112" style="fill: transparent; stroke: rgb(51, 51, 51); stroke-width: 2; opacity: 1;"></path></g></g></svg>