<svg xmlns="http://www.w3.org/2000/svg" width="640" height="324" role="img" aria-labelledby="victory-container-4-title victory-container-4-desc" viewBox="0 0 640 324" style="pointer-events: all; width: 100%; height: 100%;"><g role="presentation"><line x1="15" x2="578" y1="274" y2="274" role="presentation" shape-rendering="auto" vector-effect="non-scaling-stroke" style="stroke: rgb(226, 226, 226); fill: transparent; stroke-width: 1; stroke-linejoin: round;"></line><g role="presentation"><line x1="81.26626071884692" x2="81.26626071884692" y1="274" y2="34" role="presentation" shape-rendering="auto" vector-effect="non-scaling-stroke" style="stroke: transparent; fill: transparent; stroke-width: 1; stroke-linecap: round; stroke-linejoin: round; pointer-events: none;"></line><line x1="81.26626071884692" x2="81.26626071884692" y1="274" y2="278" role="presentation" shape-rendering="auto" vector-effect="non-scaling-stroke" style="stroke: transparent; fill: transparent; size: 4px; stroke-width: 1; stroke-linecap: round; stroke-linejoin: round;"></line><text dx="0" dy="11.969999999999999" x="81.26626071884692" y="286"><tspan x="81.26626071884692" dx="0" text-anchor="middle" style="fill: rgb(153, 153, 153); font-size: 14px; font-family: inherit; stroke: transparent; letter-spacing: normal; padding: 8px; stroke-width: 0;">2017</tspan></text></g><g role="presentation"><line x1="193.74299854041232" x2="193.74299854041232" y1="274" y2="34" role="presentation" shape-rendering="auto" vector-effect="non-scaling-stroke" style="stroke: transparent; fill: transparent; stroke-width: 1; stroke-linecap: round; stroke-linejoin: round; pointer-events: none;"></line><line x1="193.74299854041232" x2="193.74299854041232" y1="274" y2="278" role="presentation" shape-rendering="auto" vector-effect="non-scaling-stroke" style="stroke: transparent; fill: transparent; size: 4px; stroke-width: 1; stroke-linecap: round; stroke-linejoin: round;"></line><text dx="0" dy="11.969999999999999" x="193.74299854041232" y="286"><tspan x="193.74299854041232" dx="0" text-anchor="middle" style="fill: rgb(153, 153, 153); font-size: 14px; font-family: inherit; stroke: transparent; letter-spacing: normal; padding: 8px; stroke-width: 0;">2018</tspan></text></g><g role="presentation"><line x1="306.2197363619777" x2="306.2197363619777" y1="274" y2="34" role="presentation" shape-rendering="auto" vector-effect="non-scaling-stroke" style="stroke: transparent; fill: transparent; stroke-width: 1; stroke-linecap: round; stroke-linejoin: round; pointer-events: none;"></line><line x1="306.2197363619777" x2="306.2197363619777" y1="274" y2="278" role="presentation" shape-rendering="auto" vector-effect="non-scaling-stroke" style="stroke: transparent; fill: transparent; size: 4px; stroke-width: 1; stroke-linecap: round; stroke-linejoin: round;"></line><text dx="0" dy="11.969999999999999" x="306.2197363619777" y="286"><tspan x="306.2197363619777" dx="0" text-anchor="middle" style="fill: rgb(153, 153, 153); font-size: 14px; font-family: inherit; stroke: transparent; letter-spacing: normal; padding: 8px; stroke-width: 0;">2019</tspan></text></g><g role="presentation"><line x1="418.69647418354316" x2="418.69647418354316" y1="274" y2="34" role="presentation" shape-rendering="auto" vector-effect="non-scaling-stroke" style="stroke: transparent; fill: transparent; stroke-width: 1; stroke-linecap: round; stroke-linejoin: round; pointer-events: none;"></line><line x1="418.69647418354316" x2="418.69647418354316" y1="274" y2="278" role="presentation" shape-rendering="auto" vector-effect="non-scaling-stroke" style="stroke: transparent; fill: transparent; size: 4px; stroke-width: 1; stroke-linecap: round; stroke-linejoin: round;"></line><text dx="0" dy="11.969999999999999" x="418.69647418354316" y="286"><tspan x="418.69647418354316" dx="0" text-anchor="middle" style="fill: rgb(153, 153, 153); font-size: 14px; font-family: inherit; stroke: transparent; letter-spacing: normal; padding: 8px; stroke-width: 0;">2020</tspan></text></g><g role="presentation"><line x1="531.4813674511951" x2="531.4813674511951" y1="274" y2="34" role="presentation" shape-rendering="auto" vector-effect="non-scaling-stroke" style="stroke: transparent; fill: transparent; stroke-width: 1; stroke-linecap: round; stroke-linejoin: round; pointer-events: none;"></line><line x1="531.4813674511951" x2="531.4813674511951" y1="274" y2="278" role="presentation" shape-rendering="auto" vector-effect="non-scaling-stroke" style="stroke: transparent; fill: transparent; size: 4px; stroke-width: 1; stroke-linecap: round; stroke-linejoin: round;"></line><text dx="0" dy="11.969999999999999" x="531.4813674511951" y="286"><tspan x="531.4813674511951" dx="0" text-anchor="middle" style="fill: rgb(153, 153, 153); font-size: 14px; font-family: inherit; stroke: transparent; letter-spacing: normal; padding: 8px; stroke-width: 0;">2021</tspan></text></g></g><g role="presentation"><line x1="578" x2="578" y1="34" y2="274" role="presentation" shape-rendering="auto" vector-effect="non-scaling-stroke" style="stroke: transparent; fill: transparent; stroke-width: 1; stroke-linejoin: round;"></line><g role="presentation"><line x1="578" x2="15" y1="274" y2="274" role="presentation" shape-rendering="auto" vector-effect="non-scaling-stroke" style="stroke: rgb(226, 226, 226); fill: transparent; stroke-width: 1; stroke-linecap: round; stroke-linejoin: round; pointer-events: none;"></line><line x1="578" x2="582" y1="274" y2="274" role="presentation" shape-rendering="auto" vector-effect="non-scaling-stroke" style="stroke: transparent; fill: transparent; size: 4px; stroke-width: 1; stroke-linecap: round; stroke-linejoin: round;"></line><text dx="0" dy="4.97" x="590" y="274"><tspan x="590" dx="0" text-anchor="start" style="fill: rgb(153, 153, 153); font-size: 14px; font-family: inherit; stroke: transparent; letter-spacing: normal; padding: 8px; stroke-width: 0;">$500K</tspan></text></g><g role="presentation"><line x1="578" x2="15" y1="234" y2="234" role="presentation" shape-rendering="auto" vector-effect="non-scaling-stroke" style="stroke: rgb(226, 226, 226); fill: transparent; stroke-width: 1; stroke-linecap: round; stroke-linejoin: round; pointer-events: none;"></line><line x1="578" x2="582" y1="234" y2="234" role="presentation" shape-rendering="auto" vector-effect="non-scaling-stroke" style="stroke: transparent; fill: transparent; size: 4px; stroke-width: 1; stroke-linecap: round; stroke-linejoin: round;"></line><text dx="0" dy="4.97" x="590" y="234"><tspan x="590" dx="0" text-anchor="start" style="fill: rgb(153, 153, 153); font-size: 14px; font-family: inherit; stroke: transparent; letter-spacing: normal; padding: 8px; stroke-width: 0;">$600K</tspan></text></g><g role="presentation"><line x1="578" x2="15" y1="194" y2="194" role="presentation" shape-rendering="auto" vector-effect="non-scaling-stroke" style="stroke: rgb(226, 226, 226); fill: transparent; stroke-width: 1; stroke-linecap: round; stroke-linejoin: round; pointer-events: none;"></line><line x1="578" x2="582" y1="194" y2="194" role="presentation" shape-rendering="auto" vector-effect="non-scaling-stroke" style="stroke: transparent; fill: transparent; size: 4px; stroke-width: 1; stroke-linecap: round; stroke-linejoin: round;"></line><text dx="0" dy="4.97" x="590" y="194"><tspan x="590" dx="0" text-anchor="start" style="fill: rgb(153, 153, 153); font-size: 14px; font-family: inherit; stroke: transparent; letter-spacing: normal; padding: 8px; stroke-width: 0;">$700K</tspan></text></g><g role="presentation"><line x1="578" x2="15" y1="154" y2="154" role="presentation" shape-rendering="auto" vector-effect="non-scaling-stroke" style="stroke: rgb(226, 226, 226); fill: transparent; stroke-width: 1; stroke-linecap: round; stroke-linejoin: round; pointer-events: none;"></line><line x1="578" x2="582" y1="154" y2="154" role="presentation" shape-rendering="auto" vector-effect="non-scaling-stroke" style="stroke: transparent; fill: transparent; size: 4px; stroke-width: 1; stroke-linecap: round; stroke-linejoin: round;"></line><text dx="0" dy="4.97" x="590" y="154"><tspan x="590" dx="0" text-anchor="start" style="fill: rgb(153, 153, 153); font-size: 14px; font-family: inherit; stroke: transparent; letter-spacing: normal; padding: 8px; stroke-width: 0;">$800K</tspan></text></g><g role="presentation"><line x1="578" x2="15" y1="114" y2="114" role="presentation" shape-rendering="auto" vector-effect="non-scaling-stroke" style="stroke: rgb(226, 226, 226); fill: transparent; stroke-width: 1; stroke-linecap: round; stroke-linejoin: round; pointer-events: none;"></line><line x1="578" x2="582" y1="114" y2="114" role="presentation" shape-rendering="auto" vector-effect="non-scaling-stroke" style="stroke: transparent; fill: transparent; size: 4px; stroke-width: 1; stroke-linecap: round; stroke-linejoin: round;"></line><text dx="0" dy="4.97" x="590" y="114"><tspan x="590" dx="0" text-anchor="start" style="fill: rgb(153, 153, 153); font-size: 14px; font-family: inherit; stroke: transparent; letter-spacing: normal; padding: 8px; stroke-width: 0;">$900K</tspan></text></g><g role="presentation"><line x1="578" x2="15" y1="74" y2="74" role="presentation" shape-rendering="auto" vector-effect="non-scaling-stroke" style="stroke: rgb(226, 226, 226); fill: transparent; stroke-width: 1; stroke-linecap: round; stroke-linejoin: round; pointer-events: none;"></line><line x1="578" x2="582" y1="74" y2="74" role="presentation" shape-rendering="auto" vector-effect="non-scaling-stroke" style="stroke: transparent; fill: transparent; size: 4px; stroke-width: 1; stroke-linecap: round; stroke-linejoin: round;"></line><text dx="0" dy="4.97" x="590" y="74"><tspan x="590" dx="0" text-anchor="start" style="fill: rgb(153, 153, 153); font-size: 14px; font-family: inherit; stroke: transparent; letter-spacing: normal; padding: 8px; stroke-width: 0;">$1.0M</tspan></text></g><g role="presentation"><line x1="578" x2="15" y1="34" y2="34" role="presentation" shape-rendering="auto" vector-effect="non-scaling-stroke" style="stroke: rgb(226, 226, 226); fill: transparent; stroke-width: 1; stroke-linecap: round; stroke-linejoin: round; pointer-events: none;"></line><line x1="578" x2="582" y1="34" y2="34" role="presentation" shape-rendering="auto" vector-effect="non-scaling-stroke" style="stroke: transparent; fill: transparent; size: 4px; stroke-width: 1; stroke-linecap: round; stroke-linejoin: round;"></line><text dx="0" dy="4.97" x="590" y="34"><tspan x="590" dx="0" text-anchor="start" style="fill: rgb(153, 153, 153); font-size: 14px; font-family: inherit; stroke: transparent; letter-spacing: normal; padding: 8px; stroke-width: 0;">$1.1M</tspan></text></g></g><g style="height: 100%; width: 100%; user-select: none;"><defs><clipPath id="victory-clip-5"><rect x="15" y="34" width="563" height="240"></rect></clipPath></defs><g clip-path="url(#victory-clip-5)"><path shape-rendering="auto" role="presentation" d="M15.30815544608648,114C18.389709906951285,88.5,21.471264367816094,63,24.5528188286809,63C27.73709177157453,63,30.921364714468165,117.60000000000002,34.1056376573618,117.60000000000002C37.28991060025543,117.60000000000002,40.47418354314906,50,43.658456486042695,50C46.7400109469075,50,49.821565407772304,160.74838709677417,52.90311986863711,163.2C56.08739281153075,165.73333333333332,59.271665754424376,167,62.45593869731801,167C65.54177309493402,167,68.62760749255003,149.9752688172043,71.71344189016602,149.2C74.89771483305965,148.4,78.0819877759533,148.79999999999998,81.26626071884692,148C84.45053366174056,147.20000000000002,87.63480660463419,134.65879741727198,90.81907954752783,131C93.69519704433499,127.69527975214143,96.57131454114213,126,99.44743203794928,126C102.62742504409171,126,105.80741805023415,129.6,108.98741105637657,129.6C112.06896551724138,129.6,115.15051997810617,95.19999999999999,118.23207443897098,95.19999999999999C121.41634738186463,95.19999999999999,124.60062032475825,112.285,127.7848932676519,112.285C130.8664477285167,112.285,133.9480021893815,58.82000000000002,137.02955665024632,58.82000000000002C140.21382959313993,58.82000000000002,143.39810253603358,106.4366666666667,146.5823754789272,122.80000000000001C149.76664842182083,139.16333333333338,152.95092136471445,149.11785063752276,156.1351943076081,157C159.2167487684729,164.62788647981668,162.2983032293377,165.7354133615371,165.37985769020253,170C168.56413063309614,174.40673952641166,171.74840357598978,174.33333333333334,174.9326765188834,183C178.0185109164994,191.3987455197133,181.10434531411542,225.7978494623656,184.19017971173142,232C187.37445265462506,238.4,190.55872559751867,241.6,193.74299854041232,241.6C196.92727148330596,241.6,200.1115444261996,140,203.29581736909324,140C206.1719348659004,140,209.04805236270755,269.2,211.9241698595147,269.2C215.10416286565712,269.2,218.28415587179956,223.75533499151913,221.46414887794197,200C224.5457033388068,176.98002531104459,227.62725779967158,134.03225806451616,230.7088122605364,129C233.89308520343002,123.8,237.07735814632366,121.19999999999999,240.26163108921727,121.19999999999999C243.3431855500821,121.19999999999999,246.4247400109469,142.8,249.5062944718117,142.8C252.69056741470536,142.8,255.874840357599,112,259.05911330049264,112C262.2433862433863,112,265.42765918627987,144.39999999999998,268.6119321291735,144.39999999999998C271.69348659003833,144.39999999999998,274.7750410509031,142.26666666666665,277.8565955117679,138C281.04086845466156,133.59111111111113,284.22514139755515,114,287.4094143404488,114C290.4952487380648,114,293.58108313568084,181.4873123784359,296.66691753329684,205C299.8511904761905,229.2627456178136,303.03546341908407,256,306.2197363619777,256C309.40400930487135,256,312.588282247765,134.64459523809523,315.77255519065864,132C318.6486726874658,129.61133333333333,321.52479018427294,128.417,324.4009076810801,128.417C327.58090068722254,128.417,330.76089369336495,192,333.94088669950736,192C337.0224411603722,192,340.10399562123695,156,343.18555008210177,156C346.3698230249954,156,349.55409596788905,162.04,352.7383689107827,162.04C355.8199233716475,162.04,358.9014778325123,74,361.9830322933771,74C365.16730523627075,74,368.35157817916433,84.3000000000001,371.535851122058,101C374.7201240649516,117.7,377.90439700784526,160.90444444444438,381.0886699507389,174.2C384.1702244116037,187.06666666666666,387.2517788724685,193.5,390.3333333333333,193.5C393.51760627622696,193.5,396.7018792191206,85,399.88615216201424,85C402.97198655963024,85,406.0578209572463,130.04808690227156,409.1436553548623,157.60000000000002C412.32792829775593,186.030822946893,415.5122012406495,253.6,418.69647418354316,253.6C421.8807471264368,253.6,425.0650200693304,250.2,428.24929301222403,243.4C431.22812899106003,237.03870967741935,434.206964969896,143.89335127860028,437.185800948732,143.4C440.3657939548744,142.87333333333333,443.54578696101686,143.13666666666666,446.72577996715927,142.60999999999999C449.8073344280241,142.09963660834453,452.8888888888889,139.6161131676362,455.97044334975374,137C459.1547162926473,134.2966830601093,462.33898923554096,129.83173041894352,465.52326217843455,126.5C468.6048166392994,123.27574475586107,471.6863711001642,117.29999999999998,474.767925561029,117.29999999999998C477.95219850392266,117.29999999999998,481.1364714468163,139,484.32074438970994,139C487.50501733260353,139,490.68929027549717,88.5,493.87356321839076,88.5C496.9551176792556,88.5,500.0366721401204,134,503.1182266009852,134C506.3024995438788,134,509.48677248677245,54,512.671045429666,54C515.7568798272821,54,518.8427142248981,145.94,521.9285486225142,145.94C525.1128215654078,145.94,528.2970945083015,98,531.4813674511951,98C534.6656403940887,98,537.8499133369824,113.64717514124293,541.0341862798759,118.19999999999999C543.9103037766831,122.31222890468379,546.7864212734902,125.19999999999999,549.6625387702974,125.19999999999999C552.8425317764398,125.19999999999999,556.0225247825822,115.9123598136756,559.2025177887247,112C562.2840722495895,108.20874957490385,565.3656267104543,104.41741582936719,568.4471811713191,102C571.6314541142127,99.50200364298726,574.8157270571064,98.47100182149363,578,97.44" style="fill: transparent; stroke: rgb(51, 51, 51); stroke-width: 2; opacity: 1;"></path></g></g></svg>