<svg xmlns="http://www.w3.org/2000/svg" width="640" height="324" role="img" aria-labelledby="victory-container-4-title victory-container-4-desc" viewBox="0 0 640 324" style="pointer-events: all; width: 100%; height: 100%;"><g role="presentation"><line x1="15" x2="578" y1="274" y2="274" role="presentation" shape-rendering="auto" vector-effect="non-scaling-stroke" style="stroke: rgb(226, 226, 226); fill: transparent; stroke-width: 1; stroke-linejoin: round;"></line><g role="presentation"><line x1="81.26626071884692" x2="81.26626071884692" y1="274" y2="34" role="presentation" shape-rendering="auto" vector-effect="non-scaling-stroke" style="stroke: transparent; fill: transparent; stroke-width: 1; stroke-linecap: round; stroke-linejoin: round; pointer-events: none;"></line><line x1="81.26626071884692" x2="81.26626071884692" y1="274" y2="278" role="presentation" shape-rendering="auto" vector-effect="non-scaling-stroke" style="stroke: transparent; fill: transparent; size: 4px; stroke-width: 1; stroke-linecap: round; stroke-linejoin: round;"></line><text dx="0" dy="11.969999999999999" x="81.26626071884692" y="286"><tspan x="81.26626071884692" dx="0" text-anchor="middle" style="fill: rgb(153, 153, 153); font-size: 14px; font-family: inherit; stroke: transparent; letter-spacing: normal; padding: 8px; stroke-width: 0;">2017</tspan></text></g><g role="presentation"><line x1="193.74299854041232" x2="193.74299854041232" y1="274" y2="34" role="presentation" shape-rendering="auto" vector-effect="non-scaling-stroke" style="stroke: transparent; fill: transparent; stroke-width: 1; stroke-linecap: round; stroke-linejoin: round; pointer-events: none;"></line><line x1="193.74299854041232" x2="193.74299854041232" y1="274" y2="278" role="presentation" shape-rendering="auto" vector-effect="non-scaling-stroke" style="stroke: transparent; fill: transparent; size: 4px; stroke-width: 1; stroke-linecap: round; stroke-linejoin: round;"></line><text dx="0" dy="11.969999999999999" x="193.74299854041232" y="286"><tspan x="193.74299854041232" dx="0" text-anchor="middle" style="fill: rgb(153, 153, 153); font-size: 14px; font-family: inherit; stroke: transparent; letter-spacing: normal; padding: 8px; stroke-width: 0;">2018</tspan></text></g><g role="presentation"><line x1="306.2197363619777" x2="306.2197363619777" y1="274" y2="34" role="presentation" shape-rendering="auto" vector-effect="non-scaling-stroke" style="stroke: transparent; fill: transparent; stroke-width: 1; stroke-linecap: round; stroke-linejoin: round; pointer-events: none;"></line><line x1="306.2197363619777" x2="306.2197363619777" y1="274" y2="278" role="presentation" shape-rendering="auto" vector-effect="non-scaling-stroke" style="stroke: transparent; fill: transparent; size: 4px; stroke-width: 1; stroke-linecap: round; stroke-linejoin: round;"></line><text dx="0" dy="11.969999999999999" x="306.2197363619777" y="286"><tspan x="306.2197363619777" dx="0" text-anchor="middle" style="fill: rgb(153, 153, 153); font-size: 14px; font-family: inherit; stroke: transparent; letter-spacing: normal; padding: 8px; stroke-width: 0;">2019</tspan></text></g><g role="presentation"><line x1="418.69647418354316" x2="418.69647418354316" y1="274" y2="34" role="presentation" shape-rendering="auto" vector-effect="non-scaling-stroke" style="stroke: transparent; fill: transparent; stroke-width: 1; stroke-linecap: round; stroke-linejoin: round; pointer-events: none;"></line><line x1="418.69647418354316" x2="418.69647418354316" y1="274" y2="278" role="presentation" shape-rendering="auto" vector-effect="non-scaling-stroke" style="stroke: transparent; fill: transparent; size: 4px; stroke-width: 1; stroke-linecap: round; stroke-linejoin: round;"></line><text dx="0" dy="11.969999999999999" x="418.69647418354316" y="286"><tspan x="418.69647418354316" dx="0" text-anchor="middle" style="fill: rgb(153, 153, 153); font-size: 14px; font-family: inherit; stroke: transparent; letter-spacing: normal; padding: 8px; stroke-width: 0;">2020</tspan></text></g><g role="presentation"><line x1="531.4813674511951" x2="531.4813674511951" y1="274" y2="34" role="presentation" shape-rendering="auto" vector-effect="non-scaling-stroke" style="stroke: transparent; fill: transparent; stroke-width: 1; stroke-linecap: round; stroke-linejoin: round; pointer-events: none;"></line><line x1="531.4813674511951" x2="531.4813674511951" y1="274" y2="278" role="presentation" shape-rendering="auto" vector-effect="non-scaling-stroke" style="stroke: transparent; fill: transparent; size: 4px; stroke-width: 1; stroke-linecap: round; stroke-linejoin: round;"></line><text dx="0" dy="11.969999999999999" x="531.4813674511951" y="286"><tspan x="531.4813674511951" dx="0" text-anchor="middle" style="fill: rgb(153, 153, 153); font-size: 14px; font-family: inherit; stroke: transparent; letter-spacing: normal; padding: 8px; stroke-width: 0;">2021</tspan></text></g></g><g role="presentation"><line x1="578" x2="578" y1="34" y2="274" role="presentation" shape-rendering="auto" vector-effect="non-scaling-stroke" style="stroke: transparent; fill: transparent; stroke-width: 1; stroke-linejoin: round;"></line><g role="presentation"><line x1="578" x2="15" y1="274" y2="274" role="presentation" shape-rendering="auto" vector-effect="non-scaling-stroke" style="stroke: rgb(226, 226, 226); fill: transparent; stroke-width: 1; stroke-linecap: round; stroke-linejoin: round; pointer-events: none;"></line><line x1="578" x2="582" y1="274" y2="274" role="presentation" shape-rendering="auto" vector-effect="non-scaling-stroke" style="stroke: transparent; fill: transparent; size: 4px; stroke-width: 1; stroke-linecap: round; stroke-linejoin: round;"></line><text dx="0" dy="4.97" x="590" y="274"><tspan x="590" dx="0" text-anchor="start" style="fill: rgb(153, 153, 153); font-size: 14px; font-family: inherit; stroke: transparent; letter-spacing: normal; padding: 8px; stroke-width: 0;">$200K</tspan></text></g><g role="presentation"><line x1="578" x2="15" y1="214" y2="214" role="presentation" shape-rendering="auto" vector-effect="non-scaling-stroke" style="stroke: rgb(226, 226, 226); fill: transparent; stroke-width: 1; stroke-linecap: round; stroke-linejoin: round; pointer-events: none;"></line><line x1="578" x2="582" y1="214" y2="214" role="presentation" shape-rendering="auto" vector-effect="non-scaling-stroke" style="stroke: transparent; fill: transparent; size: 4px; stroke-width: 1; stroke-linecap: round; stroke-linejoin: round;"></line><text dx="0" dy="4.97" x="590" y="214"><tspan x="590" dx="0" text-anchor="start" style="fill: rgb(153, 153, 153); font-size: 14px; font-family: inherit; stroke: transparent; letter-spacing: normal; padding: 8px; stroke-width: 0;">$250K</tspan></text></g><g role="presentation"><line x1="578" x2="15" y1="154" y2="154" role="presentation" shape-rendering="auto" vector-effect="non-scaling-stroke" style="stroke: rgb(226, 226, 226); fill: transparent; stroke-width: 1; stroke-linecap: round; stroke-linejoin: round; pointer-events: none;"></line><line x1="578" x2="582" y1="154" y2="154" role="presentation" shape-rendering="auto" vector-effect="non-scaling-stroke" style="stroke: transparent; fill: transparent; size: 4px; stroke-width: 1; stroke-linecap: round; stroke-linejoin: round;"></line><text dx="0" dy="4.97" x="590" y="154"><tspan x="590" dx="0" text-anchor="start" style="fill: rgb(153, 153, 153); font-size: 14px; font-family: inherit; stroke: transparent; letter-spacing: normal; padding: 8px; stroke-width: 0;">$300K</tspan></text></g><g role="presentation"><line x1="578" x2="15" y1="94" y2="94" role="presentation" shape-rendering="auto" vector-effect="non-scaling-stroke" style="stroke: rgb(226, 226, 226); fill: transparent; stroke-width: 1; stroke-linecap: round; stroke-linejoin: round; pointer-events: none;"></line><line x1="578" x2="582" y1="94" y2="94" role="presentation" shape-rendering="auto" vector-effect="non-scaling-stroke" style="stroke: transparent; fill: transparent; size: 4px; stroke-width: 1; stroke-linecap: round; stroke-linejoin: round;"></line><text dx="0" dy="4.97" x="590" y="94"><tspan x="590" dx="0" text-anchor="start" style="fill: rgb(153, 153, 153); font-size: 14px; font-family: inherit; stroke: transparent; letter-spacing: normal; padding: 8px; stroke-width: 0;">$350K</tspan></text></g><g role="presentation"><line x1="578" x2="15" y1="34" y2="34" role="presentation" shape-rendering="auto" vector-effect="non-scaling-stroke" style="stroke: rgb(226, 226, 226); fill: transparent; stroke-width: 1; stroke-linecap: round; stroke-linejoin: round; pointer-events: none;"></line><line x1="578" x2="582" y1="34" y2="34" role="presentation" shape-rendering="auto" vector-effect="non-scaling-stroke" style="stroke: transparent; fill: transparent; size: 4px; stroke-width: 1; stroke-linecap: round; stroke-linejoin: round;"></line><text dx="0" dy="4.97" x="590" y="34"><tspan x="590" dx="0" text-anchor="start" style="fill: rgb(153, 153, 153); font-size: 14px; font-family: inherit; stroke: transparent; letter-spacing: normal; padding: 8px; stroke-width: 0;">$400K</tspan></text></g></g><g style="height: 100%; width: 100%; user-select: none;"><defs><clipPath id="victory-clip-5"><rect x="15" y="34" width="563" height="240"></rect></clipPath></defs><g clip-path="url(#victory-clip-5)"><path shape-rendering="auto" role="presentation" d="M15.30815544608648,166C18.389709906951285,172,21.471264367816094,178,24.5528188286809,178C27.73709177157453,178,30.921364714468165,162.39999999999998,34.1056376573618,162.39999999999998C37.28991060025543,162.39999999999998,40.47418354314906,197.8,43.658456486042695,197.8C46.7400109469075,197.8,49.821565407772304,192.39999999999998,52.90311986863711,192.39999999999998C56.08739281153075,192.39999999999998,59.271665754424376,202,62.45593869731801,202C65.54177309493402,202,68.62760749255003,170.2636,71.71344189016602,170.2636C74.89771483305965,170.2636,78.0819877759533,200.8,81.26626071884692,200.8C84.45053366174056,200.8,87.63480660463419,176.55271428571433,90.81907954752783,170.8C93.69519704433499,165.604,96.57131454114213,163.006,99.44743203794928,163.006C102.62742504409171,163.006,105.80741805023415,164.004,108.98741105637657,166C112.06896551724138,167.9342126514132,115.15051997810617,196,118.23207443897098,196C121.41634738186463,196,124.60062032475825,178,127.7848932676519,178C130.8664477285167,178,133.9480021893815,179.2,137.02955665024632,179.2C140.21382959313993,179.2,143.39810253603358,142.6,146.5823754789272,142.6C149.76664842182083,142.6,152.95092136471445,163.76818579234973,156.1351943076081,171.7C159.2167487684729,179.37594923320995,162.2983032293377,189.76,165.37985769020253,189.76C168.56413063309614,189.76,171.74840357598978,184.12163114369972,174.9326765188834,178C178.0185109164994,172.06761282982862,181.10434531411542,154,184.19017971173142,154C187.37445265462506,154,190.55872559751867,159.174,193.74299854041232,162.544C196.92727148330596,165.91400000000002,200.1115444261996,174.22,203.29581736909324,174.22C206.1719348659004,174.22,209.04805236270755,155.7184,211.9241698595147,155.7184C215.10416286565712,155.7184,218.28415587179956,180.0552305555556,221.46414887794197,181.663C224.5457033388068,183.221,227.62725779967158,184,230.7088122605364,184C233.89308520343002,184,237.07735814632366,182.79999999999998,240.26163108921727,180.39999999999998C243.3431855500821,178.07741935483867,246.4247400109469,166.801,249.5062944718117,166.801C252.69056741470536,166.801,255.874840357599,172,259.05911330049264,172C262.2433862433863,172,265.42765918627987,154.582,268.6119321291735,154.582C271.69348659003833,154.582,274.7750410509031,175,277.8565955117679,175C281.04086845466156,175,284.22514139755515,164.6524,287.4094143404488,164.6524C290.4952487380648,164.6524,293.58108313568084,165.1036,296.66691753329684,166.006C299.8511904761905,166.9371866851595,303.03546341908407,203.2,306.2197363619777,203.2C309.40400930487135,203.2,312.588282247765,164.71305714285714,315.77255519065864,163.7308C318.6486726874658,162.84359999999998,321.52479018427294,162.39999999999998,324.4009076810801,162.39999999999998C327.58090068722254,162.39999999999998,330.76089369336495,180.76618888888888,333.94088669950736,181.6C337.0224411603722,182.40800000000002,340.10399562123695,182.812,343.18555008210177,182.812C346.3698230249954,182.812,349.55409596788905,155.3866,352.7383689107827,155.3866C355.8199233716475,155.3866,358.9014778325123,167.2,361.9830322933771,167.2C365.16730523627075,167.2,368.35157817916433,160.12,371.535851122058,160.12C374.7201240649516,160.12,377.90439700784526,176.38,381.0886699507389,176.38C384.1702244116037,176.38,387.2517788724685,168.38848387096772,390.3333333333333,167.653C393.51760627622696,166.893,396.7018792191206,166.513,399.88615216201424,166.513C402.97198655963024,166.513,406.0578209572463,168.08453403427646,409.1436553548623,170.428C412.32792829775593,172.84622285506003,415.5122012406495,181,418.69647418354316,181C421.8807471264368,181,425.0650200693304,166,428.24929301222403,166C431.22812899106003,166,434.206964969896,184.12,437.185800948732,184.12C440.3657939548744,184.12,443.54578696101686,146.8,446.72577996715927,146.8C449.8073344280241,146.8,452.8888888888889,178.7518,455.97044334975374,178.7518C459.1547162926473,178.7518,462.33898923554096,145.42986666666667,465.52326217843455,145C468.6048166392994,144.584,471.6863711001642,144.376,474.767925561029,144.376C477.95219850392266,144.376,481.1364714468163,149.84249999999994,484.32074438970994,155.0872C487.50501733260353,160.3319,490.68929027549717,175.8442,493.87356321839076,175.8442C496.9551176792556,175.8442,500.0366721401204,159.03003225806455,503.1182266009852,158.137C506.3024995438788,157.21419999999998,509.48677248677245,157.6756,512.671045429666,156.75279999999998C515.7568798272821,155.85852741935477,518.8427142248981,151.6,521.9285486225142,151.6C525.1128215654078,151.6,528.2970945083015,168.712,531.4813674511951,168.712C534.6656403940887,168.712,537.8499133369824,139.07708753026634,541.0341862798759,130.57659999999998C543.9103037766831,122.89874029524329,546.7864212734902,121.26320379266558,549.6625387702974,117.85C552.8425317764398,114.07617497328789,556.0225247825822,115.0896,559.2025177887247,109.56880000000001C562.2840722495895,104.21889959623148,565.3656267104543,58.6636,568.4471811713191,58.6636C571.6314541142127,58.6636,574.8157270571064,74.5318,578,90.4" style="fill: transparent; stroke: rgb(51, 51, 51); stroke-width: 2; opacity: 1;"></path></g></g></svg>