<svg xmlns="http://www.w3.org/2000/svg" width="640" height="324" role="img" aria-labelledby="victory-container-4-title victory-container-4-desc" viewBox="0 0 640 324" style="pointer-events: all; width: 100%; height: 100%;"><g role="presentation"><line x1="15" x2="578" y1="274" y2="274" role="presentation" shape-rendering="auto" vector-effect="non-scaling-stroke" style="stroke: rgb(226, 226, 226); fill: transparent; stroke-width: 1; stroke-linejoin: round;"></line><g role="presentation"><line x1="81.26626071884692" x2="81.26626071884692" y1="274" y2="34" role="presentation" shape-rendering="auto" vector-effect="non-scaling-stroke" style="stroke: transparent; fill: transparent; stroke-width: 1; stroke-linecap: round; stroke-linejoin: round; pointer-events: none;"></line><line x1="81.26626071884692" x2="81.26626071884692" y1="274" y2="278" role="presentation" shape-rendering="auto" vector-effect="non-scaling-stroke" style="stroke: transparent; fill: transparent; size: 4px; stroke-width: 1; stroke-linecap: round; stroke-linejoin: round;"></line><text dx="0" dy="11.969999999999999" x="81.26626071884692" y="286"><tspan x="81.26626071884692" dx="0" text-anchor="middle" style="fill: rgb(153, 153, 153); font-size: 14px; font-family: inherit; stroke: transparent; letter-spacing: normal; padding: 8px; stroke-width: 0;">2017</tspan></text></g><g role="presentation"><line x1="193.74299854041232" x2="193.74299854041232" y1="274" y2="34" role="presentation" shape-rendering="auto" vector-effect="non-scaling-stroke" style="stroke: transparent; fill: transparent; stroke-width: 1; stroke-linecap: round; stroke-linejoin: round; pointer-events: none;"></line><line x1="193.74299854041232" x2="193.74299854041232" y1="274" y2="278" role="presentation" shape-rendering="auto" vector-effect="non-scaling-stroke" style="stroke: transparent; fill: transparent; size: 4px; stroke-width: 1; stroke-linecap: round; stroke-linejoin: round;"></line><text dx="0" dy="11.969999999999999" x="193.74299854041232" y="286"><tspan x="193.74299854041232" dx="0" text-anchor="middle" style="fill: rgb(153, 153, 153); font-size: 14px; font-family: inherit; stroke: transparent; letter-spacing: normal; padding: 8px; stroke-width: 0;">2018</tspan></text></g><g role="presentation"><line x1="306.2197363619777" x2="306.2197363619777" y1="274" y2="34" role="presentation" shape-rendering="auto" vector-effect="non-scaling-stroke" style="stroke: transparent; fill: transparent; stroke-width: 1; stroke-linecap: round; stroke-linejoin: round; pointer-events: none;"></line><line x1="306.2197363619777" x2="306.2197363619777" y1="274" y2="278" role="presentation" shape-rendering="auto" vector-effect="non-scaling-stroke" style="stroke: transparent; fill: transparent; size: 4px; stroke-width: 1; stroke-linecap: round; stroke-linejoin: round;"></line><text dx="0" dy="11.969999999999999" x="306.2197363619777" y="286"><tspan x="306.2197363619777" dx="0" text-anchor="middle" style="fill: rgb(153, 153, 153); font-size: 14px; font-family: inherit; stroke: transparent; letter-spacing: normal; padding: 8px; stroke-width: 0;">2019</tspan></text></g><g role="presentation"><line x1="418.69647418354316" x2="418.69647418354316" y1="274" y2="34" role="presentation" shape-rendering="auto" vector-effect="non-scaling-stroke" style="stroke: transparent; fill: transparent; stroke-width: 1; stroke-linecap: round; stroke-linejoin: round; pointer-events: none;"></line><line x1="418.69647418354316" x2="418.69647418354316" y1="274" y2="278" role="presentation" shape-rendering="auto" vector-effect="non-scaling-stroke" style="stroke: transparent; fill: transparent; size: 4px; stroke-width: 1; stroke-linecap: round; stroke-linejoin: round;"></line><text dx="0" dy="11.969999999999999" x="418.69647418354316" y="286"><tspan x="418.69647418354316" dx="0" text-anchor="middle" style="fill: rgb(153, 153, 153); font-size: 14px; font-family: inherit; stroke: transparent; letter-spacing: normal; padding: 8px; stroke-width: 0;">2020</tspan></text></g><g role="presentation"><line x1="531.4813674511951" x2="531.4813674511951" y1="274" y2="34" role="presentation" shape-rendering="auto" vector-effect="non-scaling-stroke" style="stroke: transparent; fill: transparent; stroke-width: 1; stroke-linecap: round; stroke-linejoin: round; pointer-events: none;"></line><line x1="531.4813674511951" x2="531.4813674511951" y1="274" y2="278" role="presentation" shape-rendering="auto" vector-effect="non-scaling-stroke" style="stroke: transparent; fill: transparent; size: 4px; stroke-width: 1; stroke-linecap: round; stroke-linejoin: round;"></line><text dx="0" dy="11.969999999999999" x="531.4813674511951" y="286"><tspan x="531.4813674511951" dx="0" text-anchor="middle" style="fill: rgb(153, 153, 153); font-size: 14px; font-family: inherit; stroke: transparent; letter-spacing: normal; padding: 8px; stroke-width: 0;">2021</tspan></text></g></g><g role="presentation"><line x1="578" x2="578" y1="34" y2="274" role="presentation" shape-rendering="auto" vector-effect="non-scaling-stroke" style="stroke: transparent; fill: transparent; stroke-width: 1; stroke-linejoin: round;"></line><g role="presentation"><line x1="578" x2="15" y1="274" y2="274" role="presentation" shape-rendering="auto" vector-effect="non-scaling-stroke" style="stroke: rgb(226, 226, 226); fill: transparent; stroke-width: 1; stroke-linecap: round; stroke-linejoin: round; pointer-events: none;"></line><line x1="578" x2="582" y1="274" y2="274" role="presentation" shape-rendering="auto" vector-effect="non-scaling-stroke" style="stroke: transparent; fill: transparent; size: 4px; stroke-width: 1; stroke-linecap: round; stroke-linejoin: round;"></line><text dx="0" dy="4.97" x="590" y="274"><tspan x="590" dx="0" text-anchor="start" style="fill: rgb(153, 153, 153); font-size: 14px; font-family: inherit; stroke: transparent; letter-spacing: normal; padding: 8px; stroke-width: 0;">$200K</tspan></text></g><g role="presentation"><line x1="578" x2="15" y1="214" y2="214" role="presentation" shape-rendering="auto" vector-effect="non-scaling-stroke" style="stroke: rgb(226, 226, 226); fill: transparent; stroke-width: 1; stroke-linecap: round; stroke-linejoin: round; pointer-events: none;"></line><line x1="578" x2="582" y1="214" y2="214" role="presentation" shape-rendering="auto" vector-effect="non-scaling-stroke" style="stroke: transparent; fill: transparent; size: 4px; stroke-width: 1; stroke-linecap: round; stroke-linejoin: round;"></line><text dx="0" dy="4.97" x="590" y="214"><tspan x="590" dx="0" text-anchor="start" style="fill: rgb(153, 153, 153); font-size: 14px; font-family: inherit; stroke: transparent; letter-spacing: normal; padding: 8px; stroke-width: 0;">$250K</tspan></text></g><g role="presentation"><line x1="578" x2="15" y1="154" y2="154" role="presentation" shape-rendering="auto" vector-effect="non-scaling-stroke" style="stroke: rgb(226, 226, 226); fill: transparent; stroke-width: 1; stroke-linecap: round; stroke-linejoin: round; pointer-events: none;"></line><line x1="578" x2="582" y1="154" y2="154" role="presentation" shape-rendering="auto" vector-effect="non-scaling-stroke" style="stroke: transparent; fill: transparent; size: 4px; stroke-width: 1; stroke-linecap: round; stroke-linejoin: round;"></line><text dx="0" dy="4.97" x="590" y="154"><tspan x="590" dx="0" text-anchor="start" style="fill: rgb(153, 153, 153); font-size: 14px; font-family: inherit; stroke: transparent; letter-spacing: normal; padding: 8px; stroke-width: 0;">$300K</tspan></text></g><g role="presentation"><line x1="578" x2="15" y1="94" y2="94" role="presentation" shape-rendering="auto" vector-effect="non-scaling-stroke" style="stroke: rgb(226, 226, 226); fill: transparent; stroke-width: 1; stroke-linecap: round; stroke-linejoin: round; pointer-events: none;"></line><line x1="578" x2="582" y1="94" y2="94" role="presentation" shape-rendering="auto" vector-effect="non-scaling-stroke" style="stroke: transparent; fill: transparent; size: 4px; stroke-width: 1; stroke-linecap: round; stroke-linejoin: round;"></line><text dx="0" dy="4.97" x="590" y="94"><tspan x="590" dx="0" text-anchor="start" style="fill: rgb(153, 153, 153); font-size: 14px; font-family: inherit; stroke: transparent; letter-spacing: normal; padding: 8px; stroke-width: 0;">$350K</tspan></text></g><g role="presentation"><line x1="578" x2="15" y1="34" y2="34" role="presentation" shape-rendering="auto" vector-effect="non-scaling-stroke" style="stroke: rgb(226, 226, 226); fill: transparent; stroke-width: 1; stroke-linecap: round; stroke-linejoin: round; pointer-events: none;"></line><line x1="578" x2="582" y1="34" y2="34" role="presentation" shape-rendering="auto" vector-effect="non-scaling-stroke" style="stroke: transparent; fill: transparent; size: 4px; stroke-width: 1; stroke-linecap: round; stroke-linejoin: round;"></line><text dx="0" dy="4.97" x="590" y="34"><tspan x="590" dx="0" text-anchor="start" style="fill: rgb(153, 153, 153); font-size: 14px; font-family: inherit; stroke: transparent; letter-spacing: normal; padding: 8px; stroke-width: 0;">$400K</tspan></text></g></g><g style="height: 100%; width: 100%; user-select: none;"><defs><clipPath id="victory-clip-5"><rect x="15" y="34" width="563" height="240"></rect></clipPath></defs><g clip-path="url(#victory-clip-5)"><path shape-rendering="auto" role="presentation" d="M24.5528188286809,221.2C27.73709177157453,229.003,30.921364714468165,236.80599999999998,34.1056376573618,236.80599999999998C37.28991060025543,236.80599999999998,40.47418354314906,234.6783606557377,43.658456486042695,232C46.7400109469075,229.40803807509255,49.821565407772304,221.2,52.90311986863711,221.2C56.08739281153075,221.2,59.271665754424376,225.1975237274737,62.45593869731801,227.8C65.54177309493402,230.32202337700468,68.62760749255003,234.26413813350948,71.71344189016602,236.5C74.89771483305965,238.80718617013724,78.0819877759533,241.3,81.26626071884692,241.3C84.45053366174056,241.3,87.63480660463419,222.21428571428572,90.81907954752783,220C93.69519704433499,218,96.57131454114213,217.95461813201186,99.44743203794928,217C102.62742504409171,215.94452191654048,105.80741805023415,216,108.98741105637657,214C112.06896551724138,212.06191117092868,115.15051997810617,205,118.23207443897098,205C121.41634738186463,205,124.60062032475825,220,127.7848932676519,220C130.8664477285167,220,133.9480021893815,216.94367001586463,137.02955665024632,214.12C140.21382959313993,211.20220765027324,143.39810253603358,202.60000000000002,146.5823754789272,202.60000000000002C149.76664842182083,202.60000000000002,152.95092136471445,204.4,156.1351943076081,208C159.2167487684729,211.48387096774192,162.2983032293377,220.7993548387097,165.37985769020253,223.9C168.56413063309614,227.10399999999998,171.74840357598978,228.706,174.9326765188834,228.706C178.0185109164994,228.706,181.10434531411542,208.6,184.19017971173142,208.6C187.37445265462506,208.6,190.55872559751867,223.5,193.74299854041232,229.3C196.92727148330596,235.10000000000002,200.1115444261996,243.4,203.29581736909324,243.4C206.1719348659004,243.4,209.04805236270755,211.84710632570662,211.9241698595147,210.4C215.10416286565712,208.8,218.28415587179956,208,221.46414887794197,208C224.5457033388068,208,227.62725779967158,214,230.7088122605364,214C233.89308520343002,214,237.07735814632366,200.84131147540984,240.26163108921727,196C243.3431855500821,191.31485986250658,246.4247400109469,185.2,249.5062944718117,185.2C252.69056741470536,185.2,255.874840357599,216.61,259.05911330049264,216.61C262.2433862433863,216.61,265.42765918627987,204.29889945355194,268.6119321291735,198.10000000000002C271.69348659003833,192.10106504494976,274.7750410509031,180.022,277.8565955117679,180.022C281.04086845466156,180.022,284.22514139755515,193.6,287.4094143404488,193.6C290.4952487380648,193.6,293.58108313568084,178.94920000000002,296.66691753329684,178.94920000000002C299.8511904761905,178.94920000000002,303.03546341908407,210.1,306.2197363619777,210.1C309.40400930487135,210.1,312.588282247765,198.25,315.77255519065864,198.25C318.6486726874658,198.25,321.52479018427294,200.5,324.4009076810801,200.5C327.58090068722254,200.5,330.76089369336495,198.6146,333.94088669950736,194.8438C337.0224411603722,191.18972732166887,340.10399562123695,173.8384,343.18555008210177,173.8384C346.3698230249954,173.8384,349.55409596788905,174.22560000000001,352.7383689107827,175C355.8199233716475,175.7494193548387,358.9014778325123,202,361.9830322933771,202C365.16730523627075,202,368.35157817916433,189.64929999999998,371.535851122058,184C374.7201240649516,178.3507,377.90439700784526,169.55375999999998,381.0886699507389,168.1042C384.1702244116037,166.7014,387.2517788724685,166,390.3333333333333,166C393.51760627622696,166,396.7018792191206,169.33716141309236,399.88615216201424,174.28C402.97198655963024,179.07003578112958,406.0578209572463,194.8,409.1436553548623,194.8C412.32792829775593,194.8,415.5122012406495,184,418.69647418354316,184C421.8807471264368,184,425.0650200693304,202,428.24929301222403,202C431.22812899106003,202,434.206964969896,184.37469717362046,437.185800948732,184C440.3657939548744,183.6,443.54578696101686,183.4,446.72577996715927,183.4C449.8073344280241,183.4,452.8888888888889,190.36,455.97044334975374,190.36C459.1547162926473,190.36,462.33898923554096,162.1,465.52326217843455,162.1C468.6048166392994,162.1,471.6863711001642,178,474.767925561029,178C477.95219850392266,178,481.1364714468163,148,484.32074438970994,148C487.50501733260353,148,490.68929027549717,176.8,493.87356321839076,176.8C496.9551176792556,176.8,500.0366721401204,169.35251189846645,503.1182266009852,166C506.3024995438788,162.53573770491806,509.48677248677245,157.225520110957,512.671045429666,156.4C515.7568798272821,155.6,518.8427142248981,156,521.9285486225142,155.2C525.1128215654078,154.374479889043,528.2970945083015,148.9,531.4813674511951,148.9C534.6656403940887,148.9,537.8499133369824,152.8,541.0341862798759,152.8C543.9103037766831,152.8,546.7864212734902,141.34,549.6625387702974,141.34C552.8425317764398,141.34,556.0225247825822,145.6,559.2025177887247,145.6C562.2840722495895,145.6,565.3656267104543,104.93440000000001,568.4471811713191,104.93440000000001C571.6314541142127,104.93440000000001,574.8157270571064,115.9672,578,127" style="fill: transparent; stroke: rgb(51, 51, 51); stroke-width: 2; opacity: 1;"></path></g></g></svg>