<svg xmlns="http://www.w3.org/2000/svg" width="640" height="324" role="img" aria-labelledby="victory-container-4-title victory-container-4-desc" viewBox="0 0 640 324" style="pointer-events: all; width: 100%; height: 100%;"><g role="presentation"><line x1="15" x2="578" y1="274" y2="274" role="presentation" shape-rendering="auto" vector-effect="non-scaling-stroke" style="stroke: rgb(226, 226, 226); fill: transparent; stroke-width: 1; stroke-linejoin: round;"></line><g role="presentation"><line x1="81.26626071884692" x2="81.26626071884692" y1="274" y2="34" role="presentation" shape-rendering="auto" vector-effect="non-scaling-stroke" style="stroke: transparent; fill: transparent; stroke-width: 1; stroke-linecap: round; stroke-linejoin: round; pointer-events: none;"></line><line x1="81.26626071884692" x2="81.26626071884692" y1="274" y2="278" role="presentation" shape-rendering="auto" vector-effect="non-scaling-stroke" style="stroke: transparent; fill: transparent; size: 4px; stroke-width: 1; stroke-linecap: round; stroke-linejoin: round;"></line><text dx="0" dy="11.969999999999999" x="81.26626071884692" y="286"><tspan x="81.26626071884692" dx="0" text-anchor="middle" style="fill: rgb(153, 153, 153); font-size: 14px; font-family: inherit; stroke: transparent; letter-spacing: normal; padding: 8px; stroke-width: 0;">2017</tspan></text></g><g role="presentation"><line x1="193.74299854041232" x2="193.74299854041232" y1="274" y2="34" role="presentation" shape-rendering="auto" vector-effect="non-scaling-stroke" style="stroke: transparent; fill: transparent; stroke-width: 1; stroke-linecap: round; stroke-linejoin: round; pointer-events: none;"></line><line x1="193.74299854041232" x2="193.74299854041232" y1="274" y2="278" role="presentation" shape-rendering="auto" vector-effect="non-scaling-stroke" style="stroke: transparent; fill: transparent; size: 4px; stroke-width: 1; stroke-linecap: round; stroke-linejoin: round;"></line><text dx="0" dy="11.969999999999999" x="193.74299854041232" y="286"><tspan x="193.74299854041232" dx="0" text-anchor="middle" style="fill: rgb(153, 153, 153); font-size: 14px; font-family: inherit; stroke: transparent; letter-spacing: normal; padding: 8px; stroke-width: 0;">2018</tspan></text></g><g role="presentation"><line x1="306.2197363619777" x2="306.2197363619777" y1="274" y2="34" role="presentation" shape-rendering="auto" vector-effect="non-scaling-stroke" style="stroke: transparent; fill: transparent; stroke-width: 1; stroke-linecap: round; stroke-linejoin: round; pointer-events: none;"></line><line x1="306.2197363619777" x2="306.2197363619777" y1="274" y2="278" role="presentation" shape-rendering="auto" vector-effect="non-scaling-stroke" style="stroke: transparent; fill: transparent; size: 4px; stroke-width: 1; stroke-linecap: round; stroke-linejoin: round;"></line><text dx="0" dy="11.969999999999999" x="306.2197363619777" y="286"><tspan x="306.2197363619777" dx="0" text-anchor="middle" style="fill: rgb(153, 153, 153); font-size: 14px; font-family: inherit; stroke: transparent; letter-spacing: normal; padding: 8px; stroke-width: 0;">2019</tspan></text></g><g role="presentation"><line x1="418.69647418354316" x2="418.69647418354316" y1="274" y2="34" role="presentation" shape-rendering="auto" vector-effect="non-scaling-stroke" style="stroke: transparent; fill: transparent; stroke-width: 1; stroke-linecap: round; stroke-linejoin: round; pointer-events: none;"></line><line x1="418.69647418354316" x2="418.69647418354316" y1="274" y2="278" role="presentation" shape-rendering="auto" vector-effect="non-scaling-stroke" style="stroke: transparent; fill: transparent; size: 4px; stroke-width: 1; stroke-linecap: round; stroke-linejoin: round;"></line><text dx="0" dy="11.969999999999999" x="418.69647418354316" y="286"><tspan x="418.69647418354316" dx="0" text-anchor="middle" style="fill: rgb(153, 153, 153); font-size: 14px; font-family: inherit; stroke: transparent; letter-spacing: normal; padding: 8px; stroke-width: 0;">2020</tspan></text></g><g role="presentation"><line x1="531.4813674511951" x2="531.4813674511951" y1="274" y2="34" role="presentation" shape-rendering="auto" vector-effect="non-scaling-stroke" style="stroke: transparent; fill: transparent; stroke-width: 1; stroke-linecap: round; stroke-linejoin: round; pointer-events: none;"></line><line x1="531.4813674511951" x2="531.4813674511951" y1="274" y2="278" role="presentation" shape-rendering="auto" vector-effect="non-scaling-stroke" style="stroke: transparent; fill: transparent; size: 4px; stroke-width: 1; stroke-linecap: round; stroke-linejoin: round;"></line><text dx="0" dy="11.969999999999999" x="531.4813674511951" y="286"><tspan x="531.4813674511951" dx="0" text-anchor="middle" style="fill: rgb(153, 153, 153); font-size: 14px; font-family: inherit; stroke: transparent; letter-spacing: normal; padding: 8px; stroke-width: 0;">2021</tspan></text></g></g><g role="presentation"><line x1="578" x2="578" y1="34" y2="274" role="presentation" shape-rendering="auto" vector-effect="non-scaling-stroke" style="stroke: transparent; fill: transparent; stroke-width: 1; stroke-linejoin: round;"></line><g role="presentation"><line x1="578" x2="15" y1="274" y2="274" role="presentation" shape-rendering="auto" vector-effect="non-scaling-stroke" style="stroke: rgb(226, 226, 226); fill: transparent; stroke-width: 1; stroke-linecap: round; stroke-linejoin: round; pointer-events: none;"></line><line x1="578" x2="582" y1="274" y2="274" role="presentation" shape-rendering="auto" vector-effect="non-scaling-stroke" style="stroke: transparent; fill: transparent; size: 4px; stroke-width: 1; stroke-linecap: round; stroke-linejoin: round;"></line><text dx="0" dy="4.97" x="590" y="274"><tspan x="590" dx="0" text-anchor="start" style="fill: rgb(153, 153, 153); font-size: 14px; font-family: inherit; stroke: transparent; letter-spacing: normal; padding: 8px; stroke-width: 0;">$200K</tspan></text></g><g role="presentation"><line x1="578" x2="15" y1="214" y2="214" role="presentation" shape-rendering="auto" vector-effect="non-scaling-stroke" style="stroke: rgb(226, 226, 226); fill: transparent; stroke-width: 1; stroke-linecap: round; stroke-linejoin: round; pointer-events: none;"></line><line x1="578" x2="582" y1="214" y2="214" role="presentation" shape-rendering="auto" vector-effect="non-scaling-stroke" style="stroke: transparent; fill: transparent; size: 4px; stroke-width: 1; stroke-linecap: round; stroke-linejoin: round;"></line><text dx="0" dy="4.97" x="590" y="214"><tspan x="590" dx="0" text-anchor="start" style="fill: rgb(153, 153, 153); font-size: 14px; font-family: inherit; stroke: transparent; letter-spacing: normal; padding: 8px; stroke-width: 0;">$250K</tspan></text></g><g role="presentation"><line x1="578" x2="15" y1="154" y2="154" role="presentation" shape-rendering="auto" vector-effect="non-scaling-stroke" style="stroke: rgb(226, 226, 226); fill: transparent; stroke-width: 1; stroke-linecap: round; stroke-linejoin: round; pointer-events: none;"></line><line x1="578" x2="582" y1="154" y2="154" role="presentation" shape-rendering="auto" vector-effect="non-scaling-stroke" style="stroke: transparent; fill: transparent; size: 4px; stroke-width: 1; stroke-linecap: round; stroke-linejoin: round;"></line><text dx="0" dy="4.97" x="590" y="154"><tspan x="590" dx="0" text-anchor="start" style="fill: rgb(153, 153, 153); font-size: 14px; font-family: inherit; stroke: transparent; letter-spacing: normal; padding: 8px; stroke-width: 0;">$300K</tspan></text></g><g role="presentation"><line x1="578" x2="15" y1="94" y2="94" role="presentation" shape-rendering="auto" vector-effect="non-scaling-stroke" style="stroke: rgb(226, 226, 226); fill: transparent; stroke-width: 1; stroke-linecap: round; stroke-linejoin: round; pointer-events: none;"></line><line x1="578" x2="582" y1="94" y2="94" role="presentation" shape-rendering="auto" vector-effect="non-scaling-stroke" style="stroke: transparent; fill: transparent; size: 4px; stroke-width: 1; stroke-linecap: round; stroke-linejoin: round;"></line><text dx="0" dy="4.97" x="590" y="94"><tspan x="590" dx="0" text-anchor="start" style="fill: rgb(153, 153, 153); font-size: 14px; font-family: inherit; stroke: transparent; letter-spacing: normal; padding: 8px; stroke-width: 0;">$350K</tspan></text></g><g role="presentation"><line x1="578" x2="15" y1="34" y2="34" role="presentation" shape-rendering="auto" vector-effect="non-scaling-stroke" style="stroke: rgb(226, 226, 226); fill: transparent; stroke-width: 1; stroke-linecap: round; stroke-linejoin: round; pointer-events: none;"></line><line x1="578" x2="582" y1="34" y2="34" role="presentation" shape-rendering="auto" vector-effect="non-scaling-stroke" style="stroke: transparent; fill: transparent; size: 4px; stroke-width: 1; stroke-linecap: round; stroke-linejoin: round;"></line><text dx="0" dy="4.97" x="590" y="34"><tspan x="590" dx="0" text-anchor="start" style="fill: rgb(153, 153, 153); font-size: 14px; font-family: inherit; stroke: transparent; letter-spacing: normal; padding: 8px; stroke-width: 0;">$400K</tspan></text></g></g><g style="height: 100%; width: 100%; user-select: none;"><defs><clipPath id="victory-clip-5"><rect x="15" y="34" width="563" height="240"></rect></clipPath></defs><g clip-path="url(#victory-clip-5)"><path shape-rendering="auto" role="presentation" d="M15.30815544608648,171.8152C18.389709906951285,172.3175424643046,21.471264367816094,172.8198849286092,24.5528188286809,174.4C27.73709177157453,176.0327855737705,30.921364714468165,178.4,34.1056376573618,181.6C37.28991060025543,184.79999999999998,40.47418354314906,191.94666666666666,43.658456486042695,193.6C46.7400109469075,195.2,49.821565407772304,196,52.90311986863711,196C56.08739281153075,196,59.271665754424376,188.75739120769884,62.45593869731801,183.0208C65.54177309493402,177.46154964952842,68.62760749255003,162.37,71.71344189016602,162.37C74.89771483305965,162.37,78.0819877759533,191.2,81.26626071884692,191.2C84.45053366174056,191.2,87.63480660463419,172,90.81907954752783,172C93.69519704433499,172,96.57131454114213,187.27834667021767,99.44743203794928,192.262C102.62742504409171,197.77220003575636,105.80741805023415,202.3,108.98741105637657,202.3C112.06896551724138,202.3,115.15051997810617,176.78182580645162,118.23207443897098,172.76260000000002C121.41634738186463,168.60940000000002,124.60062032475825,166.5328,127.7848932676519,166.5328C130.8664477285167,166.5328,133.9480021893815,196,137.02955665024632,196C140.21382959313993,196,143.39810253603358,169.19599999999997,146.5823754789272,166C149.76664842182083,162.804,152.95092136471445,161.20600000000002,156.1351943076081,161.20600000000002C159.2167487684729,161.20600000000002,162.2983032293377,171.4,165.37985769020253,171.4C168.56413063309614,171.4,171.74840357598978,167.95645126933107,174.9326765188834,165.39999999999998C178.0185109164994,162.92257881023156,181.10434531411542,157.55902688172046,184.19017971173142,156.4C187.37445265462506,155.204,190.55872559751867,154.606,193.74299854041232,154.606C196.92727148330596,154.606,200.1115444261996,160,203.29581736909324,160C206.1719348659004,160,209.04805236270755,154.6006,211.9241698595147,154.6006C215.10416286565712,154.6006,218.28415587179956,162.89800000000002,221.46414887794197,162.89800000000002C224.5457033388068,162.89800000000002,227.62725779967158,162.7942,230.7088122605364,162.7942C233.89308520343002,162.7942,237.07735814632366,166,240.26163108921727,166C243.3431855500821,166,246.4247400109469,166,249.5062944718117,166C252.69056741470536,166,255.874840357599,160,259.05911330049264,160C262.2433862433863,160,265.42765918627987,177.1,268.6119321291735,177.1C271.69348659003833,177.1,274.7750410509031,155.8,277.8565955117679,155.8C281.04086845466156,155.8,284.22514139755515,175.60000000000002,287.4094143404488,175.60000000000002C290.4952487380648,175.60000000000002,293.58108313568084,154,296.66691753329684,154C299.8511904761905,154,303.03546341908407,178.6,306.2197363619777,178.6C309.40400930487135,178.6,312.588282247765,158.23189999999997,315.77255519065864,154.0066C318.6486726874658,150.1902,321.52479018427294,148.282,324.4009076810801,148.282C327.58090068722254,148.282,330.76089369336495,156.412,333.94088669950736,156.412C337.0224411603722,156.412,340.10399562123695,148.77419354838707,343.18555008210177,148C346.3698230249954,147.20000000000002,349.55409596788905,147.6,352.7383689107827,146.8C355.8199233716475,146.02580645161294,358.9014778325123,142,361.9830322933771,142C365.16730523627075,142,368.35157817916433,148.006,371.535851122058,148.006C374.7201240649516,148.006,377.90439700784526,144.11573442622952,381.0886699507389,142C384.1702244116037,139.9525150713908,387.2517788724685,135.53799999999998,390.3333333333333,135.53799999999998C393.51760627622696,135.53799999999998,396.7018792191206,142.07739999999998,399.88615216201424,142.07739999999998C402.97198655963024,142.07739999999998,406.0578209572463,123.4,409.1436553548623,123.4C412.32792829775593,123.4,415.5122012406495,155.5,418.69647418354316,155.5C421.8807471264368,155.5,425.0650200693304,141.99233793103448,428.24929301222403,140.0806C431.22812899106003,138.2922,434.206964969896,138.61452380457118,437.185800948732,137.398C440.3657939548744,136.09932588103968,443.54578696101686,132.4,446.72577996715927,132.4C449.8073344280241,132.4,452.8888888888889,136.4846747752512,455.97044334975374,137.83C459.1547162926473,139.2201693989071,462.33898923554096,140.512,465.52326217843455,140.512C468.6048166392994,140.512,471.6863711001642,126.4,474.767925561029,126.4C477.95219850392266,126.4,481.1364714468163,149.5006,484.32074438970994,149.5006C487.50501733260353,149.5006,490.68929027549717,130.07999999999996,493.87356321839076,127.6C496.9551176792556,125.2,500.0366721401204,126.39999999999999,503.1182266009852,124C506.3024995438788,121.52000000000004,509.48677248677245,110.05104022191398,512.671045429666,108.4C515.7568798272821,106.8,518.8427142248981,106,521.9285486225142,106C525.1128215654078,106,528.2970945083015,106.00119999999998,531.4813674511951,106.00119999999998C534.6656403940887,106.00119999999998,537.8499133369824,99.08227215496368,541.0341862798759,96.4C543.9103037766831,93.97730256971023,546.7864212734902,91.5916920592194,549.6625387702974,90.4C552.8425317764398,89.08239999999999,556.0225247825822,89.7412,559.2025177887247,88.4236C562.2840722495895,87.14678707940779,565.3656267104543,62.58759999999998,568.4471811713191,62.58759999999998C571.6314541142127,62.58759999999998,574.8157270571064,63.29379999999999,578,64" style="fill: transparent; stroke: rgb(51, 51, 51); stroke-width: 2; opacity: 1;"></path></g></g></svg>