<svg xmlns="http://www.w3.org/2000/svg" width="640" height="324" role="img" aria-labelledby="victory-container-4-title victory-container-4-desc" viewBox="0 0 640 324" style="pointer-events: all; width: 100%; height: 100%;"><g role="presentation"><line x1="15" x2="578" y1="274" y2="274" role="presentation" shape-rendering="auto" vector-effect="non-scaling-stroke" style="stroke: rgb(226, 226, 226); fill: transparent; stroke-width: 1; stroke-linejoin: round;"></line><g role="presentation"><line x1="81.26626071884692" x2="81.26626071884692" y1="274" y2="34" role="presentation" shape-rendering="auto" vector-effect="non-scaling-stroke" style="stroke: transparent; fill: transparent; stroke-width: 1; stroke-linecap: round; stroke-linejoin: round; pointer-events: none;"></line><line x1="81.26626071884692" x2="81.26626071884692" y1="274" y2="278" role="presentation" shape-rendering="auto" vector-effect="non-scaling-stroke" style="stroke: transparent; fill: transparent; size: 4px; stroke-width: 1; stroke-linecap: round; stroke-linejoin: round;"></line><text dx="0" dy="11.969999999999999" x="81.26626071884692" y="286"><tspan x="81.26626071884692" dx="0" text-anchor="middle" style="fill: rgb(153, 153, 153); font-size: 14px; font-family: inherit; stroke: transparent; letter-spacing: normal; padding: 8px; stroke-width: 0;">2017</tspan></text></g><g role="presentation"><line x1="193.74299854041232" x2="193.74299854041232" y1="274" y2="34" role="presentation" shape-rendering="auto" vector-effect="non-scaling-stroke" style="stroke: transparent; fill: transparent; stroke-width: 1; stroke-linecap: round; stroke-linejoin: round; pointer-events: none;"></line><line x1="193.74299854041232" x2="193.74299854041232" y1="274" y2="278" role="presentation" shape-rendering="auto" vector-effect="non-scaling-stroke" style="stroke: transparent; fill: transparent; size: 4px; stroke-width: 1; stroke-linecap: round; stroke-linejoin: round;"></line><text dx="0" dy="11.969999999999999" x="193.74299854041232" y="286"><tspan x="193.74299854041232" dx="0" text-anchor="middle" style="fill: rgb(153, 153, 153); font-size: 14px; font-family: inherit; stroke: transparent; letter-spacing: normal; padding: 8px; stroke-width: 0;">2018</tspan></text></g><g role="presentation"><line x1="306.2197363619777" x2="306.2197363619777" y1="274" y2="34" role="presentation" shape-rendering="auto" vector-effect="non-scaling-stroke" style="stroke: transparent; fill: transparent; stroke-width: 1; stroke-linecap: round; stroke-linejoin: round; pointer-events: none;"></line><line x1="306.2197363619777" x2="306.2197363619777" y1="274" y2="278" role="presentation" shape-rendering="auto" vector-effect="non-scaling-stroke" style="stroke: transparent; fill: transparent; size: 4px; stroke-width: 1; stroke-linecap: round; stroke-linejoin: round;"></line><text dx="0" dy="11.969999999999999" x="306.2197363619777" y="286"><tspan x="306.2197363619777" dx="0" text-anchor="middle" style="fill: rgb(153, 153, 153); font-size: 14px; font-family: inherit; stroke: transparent; letter-spacing: normal; padding: 8px; stroke-width: 0;">2019</tspan></text></g><g role="presentation"><line x1="418.69647418354316" x2="418.69647418354316" y1="274" y2="34" role="presentation" shape-rendering="auto" vector-effect="non-scaling-stroke" style="stroke: transparent; fill: transparent; stroke-width: 1; stroke-linecap: round; stroke-linejoin: round; pointer-events: none;"></line><line x1="418.69647418354316" x2="418.69647418354316" y1="274" y2="278" role="presentation" shape-rendering="auto" vector-effect="non-scaling-stroke" style="stroke: transparent; fill: transparent; size: 4px; stroke-width: 1; stroke-linecap: round; stroke-linejoin: round;"></line><text dx="0" dy="11.969999999999999" x="418.69647418354316" y="286"><tspan x="418.69647418354316" dx="0" text-anchor="middle" style="fill: rgb(153, 153, 153); font-size: 14px; font-family: inherit; stroke: transparent; letter-spacing: normal; padding: 8px; stroke-width: 0;">2020</tspan></text></g><g role="presentation"><line x1="531.4813674511951" x2="531.4813674511951" y1="274" y2="34" role="presentation" shape-rendering="auto" vector-effect="non-scaling-stroke" style="stroke: transparent; fill: transparent; stroke-width: 1; stroke-linecap: round; stroke-linejoin: round; pointer-events: none;"></line><line x1="531.4813674511951" x2="531.4813674511951" y1="274" y2="278" role="presentation" shape-rendering="auto" vector-effect="non-scaling-stroke" style="stroke: transparent; fill: transparent; size: 4px; stroke-width: 1; stroke-linecap: round; stroke-linejoin: round;"></line><text dx="0" dy="11.969999999999999" x="531.4813674511951" y="286"><tspan x="531.4813674511951" dx="0" text-anchor="middle" style="fill: rgb(153, 153, 153); font-size: 14px; font-family: inherit; stroke: transparent; letter-spacing: normal; padding: 8px; stroke-width: 0;">2021</tspan></text></g></g><g role="presentation"><line x1="578" x2="578" y1="34" y2="274" role="presentation" shape-rendering="auto" vector-effect="non-scaling-stroke" style="stroke: transparent; fill: transparent; stroke-width: 1; stroke-linejoin: round;"></line><g role="presentation"><line x1="578" x2="15" y1="274" y2="274" role="presentation" shape-rendering="auto" vector-effect="non-scaling-stroke" style="stroke: rgb(226, 226, 226); fill: transparent; stroke-width: 1; stroke-linecap: round; stroke-linejoin: round; pointer-events: none;"></line><line x1="578" x2="582" y1="274" y2="274" role="presentation" shape-rendering="auto" vector-effect="non-scaling-stroke" style="stroke: transparent; fill: transparent; size: 4px; stroke-width: 1; stroke-linecap: round; stroke-linejoin: round;"></line><text dx="0" dy="4.97" x="590" y="274"><tspan x="590" dx="0" text-anchor="start" style="fill: rgb(153, 153, 153); font-size: 14px; font-family: inherit; stroke: transparent; letter-spacing: normal; padding: 8px; stroke-width: 0;">$300K</tspan></text></g><g role="presentation"><line x1="578" x2="15" y1="234" y2="234" role="presentation" shape-rendering="auto" vector-effect="non-scaling-stroke" style="stroke: rgb(226, 226, 226); fill: transparent; stroke-width: 1; stroke-linecap: round; stroke-linejoin: round; pointer-events: none;"></line><line x1="578" x2="582" y1="234" y2="234" role="presentation" shape-rendering="auto" vector-effect="non-scaling-stroke" style="stroke: transparent; fill: transparent; size: 4px; stroke-width: 1; stroke-linecap: round; stroke-linejoin: round;"></line><text dx="0" dy="4.97" x="590" y="234"><tspan x="590" dx="0" text-anchor="start" style="fill: rgb(153, 153, 153); font-size: 14px; font-family: inherit; stroke: transparent; letter-spacing: normal; padding: 8px; stroke-width: 0;">$350K</tspan></text></g><g role="presentation"><line x1="578" x2="15" y1="194" y2="194" role="presentation" shape-rendering="auto" vector-effect="non-scaling-stroke" style="stroke: rgb(226, 226, 226); fill: transparent; stroke-width: 1; stroke-linecap: round; stroke-linejoin: round; pointer-events: none;"></line><line x1="578" x2="582" y1="194" y2="194" role="presentation" shape-rendering="auto" vector-effect="non-scaling-stroke" style="stroke: transparent; fill: transparent; size: 4px; stroke-width: 1; stroke-linecap: round; stroke-linejoin: round;"></line><text dx="0" dy="4.97" x="590" y="194"><tspan x="590" dx="0" text-anchor="start" style="fill: rgb(153, 153, 153); font-size: 14px; font-family: inherit; stroke: transparent; letter-spacing: normal; padding: 8px; stroke-width: 0;">$400K</tspan></text></g><g role="presentation"><line x1="578" x2="15" y1="154" y2="154" role="presentation" shape-rendering="auto" vector-effect="non-scaling-stroke" style="stroke: rgb(226, 226, 226); fill: transparent; stroke-width: 1; stroke-linecap: round; stroke-linejoin: round; pointer-events: none;"></line><line x1="578" x2="582" y1="154" y2="154" role="presentation" shape-rendering="auto" vector-effect="non-scaling-stroke" style="stroke: transparent; fill: transparent; size: 4px; stroke-width: 1; stroke-linecap: round; stroke-linejoin: round;"></line><text dx="0" dy="4.97" x="590" y="154"><tspan x="590" dx="0" text-anchor="start" style="fill: rgb(153, 153, 153); font-size: 14px; font-family: inherit; stroke: transparent; letter-spacing: normal; padding: 8px; stroke-width: 0;">$450K</tspan></text></g><g role="presentation"><line x1="578" x2="15" y1="114" y2="114" role="presentation" shape-rendering="auto" vector-effect="non-scaling-stroke" style="stroke: rgb(226, 226, 226); fill: transparent; stroke-width: 1; stroke-linecap: round; stroke-linejoin: round; pointer-events: none;"></line><line x1="578" x2="582" y1="114" y2="114" role="presentation" shape-rendering="auto" vector-effect="non-scaling-stroke" style="stroke: transparent; fill: transparent; size: 4px; stroke-width: 1; stroke-linecap: round; stroke-linejoin: round;"></line><text dx="0" dy="4.97" x="590" y="114"><tspan x="590" dx="0" text-anchor="start" style="fill: rgb(153, 153, 153); font-size: 14px; font-family: inherit; stroke: transparent; letter-spacing: normal; padding: 8px; stroke-width: 0;">$500K</tspan></text></g><g role="presentation"><line x1="578" x2="15" y1="74" y2="74" role="presentation" shape-rendering="auto" vector-effect="non-scaling-stroke" style="stroke: rgb(226, 226, 226); fill: transparent; stroke-width: 1; stroke-linecap: round; stroke-linejoin: round; pointer-events: none;"></line><line x1="578" x2="582" y1="74" y2="74" role="presentation" shape-rendering="auto" vector-effect="non-scaling-stroke" style="stroke: transparent; fill: transparent; size: 4px; stroke-width: 1; stroke-linecap: round; stroke-linejoin: round;"></line><text dx="0" dy="4.97" x="590" y="74"><tspan x="590" dx="0" text-anchor="start" style="fill: rgb(153, 153, 153); font-size: 14px; font-family: inherit; stroke: transparent; letter-spacing: normal; padding: 8px; stroke-width: 0;">$550K</tspan></text></g><g role="presentation"><line x1="578" x2="15" y1="34" y2="34" role="presentation" shape-rendering="auto" vector-effect="non-scaling-stroke" style="stroke: rgb(226, 226, 226); fill: transparent; stroke-width: 1; stroke-linecap: round; stroke-linejoin: round; pointer-events: none;"></line><line x1="578" x2="582" y1="34" y2="34" role="presentation" shape-rendering="auto" vector-effect="non-scaling-stroke" style="stroke: transparent; fill: transparent; size: 4px; stroke-width: 1; stroke-linecap: round; stroke-linejoin: round;"></line><text dx="0" dy="4.97" x="590" y="34"><tspan x="590" dx="0" text-anchor="start" style="fill: rgb(153, 153, 153); font-size: 14px; font-family: inherit; stroke: transparent; letter-spacing: normal; padding: 8px; stroke-width: 0;">$600K</tspan></text></g></g><g style="height: 100%; width: 100%; user-select: none;"><defs><clipPath id="victory-clip-5"><rect x="15" y="34" width="563" height="240"></rect></clipPath></defs><g clip-path="url(#victory-clip-5)"><path shape-rendering="auto" role="presentation" d="M24.5528188286809,206.2292C27.73709177157453,212.1146,30.921364714468165,218,34.1056376573618,218C37.28991060025543,218,40.47418354314906,206.88,43.658456486042695,206.88C46.7400109469075,206.88,49.821565407772304,222.6,52.90311986863711,222.6C56.08739281153075,222.6,59.271665754424376,221.92533333333333,62.45593869731801,220.576C65.54177309493402,219.2683799283154,68.62760749255003,192.9774193548387,71.71344189016602,186C74.89771483305965,178.79999999999998,78.0819877759533,175.2,81.26626071884692,175.2C84.45053366174056,175.2,87.63480660463419,187.61323648103308,90.81907954752783,194C93.69519704433499,199.76868963003463,96.57131454114213,211.6,99.44743203794928,211.6C102.62742504409171,211.6,105.80741805023415,209.74586666666667,108.98741105637657,206.0376C112.06896551724138,202.44412489905787,115.15051997810617,187.26451612903224,118.23207443897098,185.2C121.41634738186463,183.06666666666666,124.60062032475825,182,127.7848932676519,182C130.8664477285167,182,133.9480021893815,182.33466666666666,137.02955665024632,183.00400000000002C140.21382959313993,183.69564444444447,143.39810253603358,200.9688,146.5823754789272,200.9688C149.76664842182083,200.9688,152.95092136471445,162,156.1351943076081,162C159.2167487684729,162,162.2983032293377,185.90096076150184,165.37985769020253,193.0692C168.56413063309614,200.47638054644804,171.74840357598978,201.19307584656,174.9326765188834,205.078C178.0185109164994,208.84282569170736,181.10434531411542,216.04,184.19017971173142,216.04C187.37445265462506,216.04,190.55872559751867,205.47333333333333,193.74299854041232,202C196.92727148330596,198.52666666666667,200.1115444261996,197.28401937046004,203.29581736909324,195.2C206.1719348659004,193.31765992345544,209.04805236270755,190,211.9241698595147,190C215.10416286565712,190,218.28415587179956,196.9071081744766,221.46414887794197,199.6C224.5457033388068,202.20953178247223,227.62725779967158,206,230.7088122605364,206C233.89308520343002,206,237.07735814632366,163.2,240.26163108921727,163.2C243.3431855500821,163.2,246.4247400109469,182.32,249.5062944718117,182.32C252.69056741470536,182.32,255.874840357599,169.1804,259.05911330049264,169.1804C262.2433862433863,169.1804,265.42765918627987,182,268.6119321291735,182C271.69348659003833,182,274.7750410509031,172.1331612903226,277.8565955117679,169.728C281.04086845466156,167.24266666666668,284.22514139755515,166,287.4094143404488,166C290.4952487380648,166,293.58108313568084,174.50746194270124,296.66691753329684,181.4864C299.8511904761905,188.68796714927913,303.03546341908407,208.89479999999998,306.2197363619777,208.89479999999998C309.40400930487135,208.89479999999998,312.588282247765,192.22479911218724,315.77255519065864,186.4164C318.6486726874658,181.17010402770185,321.52479018427294,182.10211085279659,324.4009076810801,174.8C327.58090068722254,166.7263863636491,330.76089369336495,138,333.94088669950736,138C337.0224411603722,138,340.10399562123695,153.5694398025736,343.18555008210177,163.756C346.3698230249954,174.2821122040073,349.55409596788905,200.46359999999999,352.7383689107827,200.46359999999999C355.8199233716475,200.46359999999999,358.9014778325123,158,361.9830322933771,158C365.16730523627075,158,368.35157817916433,166.86666666666667,371.535851122058,170C374.7201240649516,173.13333333333335,377.90439700784526,174.13084153005465,381.0886699507389,176.8C384.1702244116037,179.3830565838181,387.2517788724685,183.18451612903226,390.3333333333333,185.68C393.51760627622696,188.25866666666667,396.7018792191206,187.76266666666666,399.88615216201424,191.928C402.97198655963024,195.96456630824372,406.0578209572463,211.24,409.1436553548623,211.24C412.32792829775593,211.24,415.5122012406495,142.08,418.69647418354316,142.08C421.8807471264368,142.08,425.0650200693304,170.59351724137937,428.24929301222403,189C431.22812899106003,206.2189677419355,434.206964969896,247.92000000000002,437.185800948732,247.92000000000002C440.3657939548744,247.92000000000002,443.54578696101686,190,446.72577996715927,190C449.8073344280241,190,452.8888888888889,192.73333333333332,455.97044334975374,198.2C459.1547162926473,203.84888888888878,462.33898923554096,224,465.52326217843455,224C468.6048166392994,224,471.6863711001642,149.082,474.767925561029,149.082C477.95219850392266,149.082,481.1364714468163,167.64699999999993,484.32074438970994,178C487.50501733260353,188.35299999999995,490.68929027549717,211.2,493.87356321839076,211.2C496.9551176792556,211.2,500.0366721401204,175.8774193548387,503.1182266009852,174.2C506.3024995438788,172.46666666666667,509.48677248677245,171.6,512.671045429666,171.6C515.7568798272821,171.6,518.8427142248981,178.18901075268818,521.9285486225142,179.60000000000002C525.1128215654078,181.056,528.2970945083015,181.784,531.4813674511951,181.784C534.6656403940887,181.784,537.8499133369824,180,541.0341862798759,180C543.9103037766831,180,546.7864212734902,181.0504,549.6625387702974,181.0504C552.8425317764398,181.0504,556.0225247825822,172.24135956482112,559.2025177887247,167.6584C562.2840722495895,163.21730863166727,565.3656267104543,163.1056,568.4471811713191,154C571.6314541142127,144.59088000000008,574.8157270571064,121.29544000000004,578,98" style="fill: transparent; stroke: rgb(51, 51, 51); stroke-width: 2; opacity: 1;"></path></g></g></svg>