<svg xmlns="http://www.w3.org/2000/svg" width="640" height="324" role="img" aria-labelledby="victory-container-4-title victory-container-4-desc" viewBox="0 0 640 324" style="pointer-events: all; width: 100%; height: 100%;"><g role="presentation"><line x1="15" x2="578" y1="274" y2="274" role="presentation" shape-rendering="auto" vector-effect="non-scaling-stroke" style="stroke: rgb(226, 226, 226); fill: transparent; stroke-width: 1; stroke-linejoin: round;"></line><g role="presentation"><line x1="81.26626071884692" x2="81.26626071884692" y1="274" y2="34" role="presentation" shape-rendering="auto" vector-effect="non-scaling-stroke" style="stroke: transparent; fill: transparent; stroke-width: 1; stroke-linecap: round; stroke-linejoin: round; pointer-events: none;"></line><line x1="81.26626071884692" x2="81.26626071884692" y1="274" y2="278" role="presentation" shape-rendering="auto" vector-effect="non-scaling-stroke" style="stroke: transparent; fill: transparent; size: 4px; stroke-width: 1; stroke-linecap: round; stroke-linejoin: round;"></line><text dx="0" dy="11.969999999999999" x="81.26626071884692" y="286"><tspan x="81.26626071884692" dx="0" text-anchor="middle" style="fill: rgb(153, 153, 153); font-size: 14px; font-family: inherit; stroke: transparent; letter-spacing: normal; padding: 8px; stroke-width: 0;">2017</tspan></text></g><g role="presentation"><line x1="193.74299854041232" x2="193.74299854041232" y1="274" y2="34" role="presentation" shape-rendering="auto" vector-effect="non-scaling-stroke" style="stroke: transparent; fill: transparent; stroke-width: 1; stroke-linecap: round; stroke-linejoin: round; pointer-events: none;"></line><line x1="193.74299854041232" x2="193.74299854041232" y1="274" y2="278" role="presentation" shape-rendering="auto" vector-effect="non-scaling-stroke" style="stroke: transparent; fill: transparent; size: 4px; stroke-width: 1; stroke-linecap: round; stroke-linejoin: round;"></line><text dx="0" dy="11.969999999999999" x="193.74299854041232" y="286"><tspan x="193.74299854041232" dx="0" text-anchor="middle" style="fill: rgb(153, 153, 153); font-size: 14px; font-family: inherit; stroke: transparent; letter-spacing: normal; padding: 8px; stroke-width: 0;">2018</tspan></text></g><g role="presentation"><line x1="306.2197363619777" x2="306.2197363619777" y1="274" y2="34" role="presentation" shape-rendering="auto" vector-effect="non-scaling-stroke" style="stroke: transparent; fill: transparent; stroke-width: 1; stroke-linecap: round; stroke-linejoin: round; pointer-events: none;"></line><line x1="306.2197363619777" x2="306.2197363619777" y1="274" y2="278" role="presentation" shape-rendering="auto" vector-effect="non-scaling-stroke" style="stroke: transparent; fill: transparent; size: 4px; stroke-width: 1; stroke-linecap: round; stroke-linejoin: round;"></line><text dx="0" dy="11.969999999999999" x="306.2197363619777" y="286"><tspan x="306.2197363619777" dx="0" text-anchor="middle" style="fill: rgb(153, 153, 153); font-size: 14px; font-family: inherit; stroke: transparent; letter-spacing: normal; padding: 8px; stroke-width: 0;">2019</tspan></text></g><g role="presentation"><line x1="418.69647418354316" x2="418.69647418354316" y1="274" y2="34" role="presentation" shape-rendering="auto" vector-effect="non-scaling-stroke" style="stroke: transparent; fill: transparent; stroke-width: 1; stroke-linecap: round; stroke-linejoin: round; pointer-events: none;"></line><line x1="418.69647418354316" x2="418.69647418354316" y1="274" y2="278" role="presentation" shape-rendering="auto" vector-effect="non-scaling-stroke" style="stroke: transparent; fill: transparent; size: 4px; stroke-width: 1; stroke-linecap: round; stroke-linejoin: round;"></line><text dx="0" dy="11.969999999999999" x="418.69647418354316" y="286"><tspan x="418.69647418354316" dx="0" text-anchor="middle" style="fill: rgb(153, 153, 153); font-size: 14px; font-family: inherit; stroke: transparent; letter-spacing: normal; padding: 8px; stroke-width: 0;">2020</tspan></text></g><g role="presentation"><line x1="531.4813674511951" x2="531.4813674511951" y1="274" y2="34" role="presentation" shape-rendering="auto" vector-effect="non-scaling-stroke" style="stroke: transparent; fill: transparent; stroke-width: 1; stroke-linecap: round; stroke-linejoin: round; pointer-events: none;"></line><line x1="531.4813674511951" x2="531.4813674511951" y1="274" y2="278" role="presentation" shape-rendering="auto" vector-effect="non-scaling-stroke" style="stroke: transparent; fill: transparent; size: 4px; stroke-width: 1; stroke-linecap: round; stroke-linejoin: round;"></line><text dx="0" dy="11.969999999999999" x="531.4813674511951" y="286"><tspan x="531.4813674511951" dx="0" text-anchor="middle" style="fill: rgb(153, 153, 153); font-size: 14px; font-family: inherit; stroke: transparent; letter-spacing: normal; padding: 8px; stroke-width: 0;">2021</tspan></text></g></g><g role="presentation"><line x1="578" x2="578" y1="34" y2="274" role="presentation" shape-rendering="auto" vector-effect="non-scaling-stroke" style="stroke: transparent; fill: transparent; stroke-width: 1; stroke-linejoin: round;"></line><g role="presentation"><line x1="578" x2="15" y1="274" y2="274" role="presentation" shape-rendering="auto" vector-effect="non-scaling-stroke" style="stroke: rgb(226, 226, 226); fill: transparent; stroke-width: 1; stroke-linecap: round; stroke-linejoin: round; pointer-events: none;"></line><line x1="578" x2="582" y1="274" y2="274" role="presentation" shape-rendering="auto" vector-effect="non-scaling-stroke" style="stroke: transparent; fill: transparent; size: 4px; stroke-width: 1; stroke-linecap: round; stroke-linejoin: round;"></line><text dx="0" dy="4.97" x="590" y="274"><tspan x="590" dx="0" text-anchor="start" style="fill: rgb(153, 153, 153); font-size: 14px; font-family: inherit; stroke: transparent; letter-spacing: normal; padding: 8px; stroke-width: 0;">$100K</tspan></text></g><g role="presentation"><line x1="578" x2="15" y1="214" y2="214" role="presentation" shape-rendering="auto" vector-effect="non-scaling-stroke" style="stroke: rgb(226, 226, 226); fill: transparent; stroke-width: 1; stroke-linecap: round; stroke-linejoin: round; pointer-events: none;"></line><line x1="578" x2="582" y1="214" y2="214" role="presentation" shape-rendering="auto" vector-effect="non-scaling-stroke" style="stroke: transparent; fill: transparent; size: 4px; stroke-width: 1; stroke-linecap: round; stroke-linejoin: round;"></line><text dx="0" dy="4.97" x="590" y="214"><tspan x="590" dx="0" text-anchor="start" style="fill: rgb(153, 153, 153); font-size: 14px; font-family: inherit; stroke: transparent; letter-spacing: normal; padding: 8px; stroke-width: 0;">$150K</tspan></text></g><g role="presentation"><line x1="578" x2="15" y1="154" y2="154" role="presentation" shape-rendering="auto" vector-effect="non-scaling-stroke" style="stroke: rgb(226, 226, 226); fill: transparent; stroke-width: 1; stroke-linecap: round; stroke-linejoin: round; pointer-events: none;"></line><line x1="578" x2="582" y1="154" y2="154" role="presentation" shape-rendering="auto" vector-effect="non-scaling-stroke" style="stroke: transparent; fill: transparent; size: 4px; stroke-width: 1; stroke-linecap: round; stroke-linejoin: round;"></line><text dx="0" dy="4.97" x="590" y="154"><tspan x="590" dx="0" text-anchor="start" style="fill: rgb(153, 153, 153); font-size: 14px; font-family: inherit; stroke: transparent; letter-spacing: normal; padding: 8px; stroke-width: 0;">$200K</tspan></text></g><g role="presentation"><line x1="578" x2="15" y1="94" y2="94" role="presentation" shape-rendering="auto" vector-effect="non-scaling-stroke" style="stroke: rgb(226, 226, 226); fill: transparent; stroke-width: 1; stroke-linecap: round; stroke-linejoin: round; pointer-events: none;"></line><line x1="578" x2="582" y1="94" y2="94" role="presentation" shape-rendering="auto" vector-effect="non-scaling-stroke" style="stroke: transparent; fill: transparent; size: 4px; stroke-width: 1; stroke-linecap: round; stroke-linejoin: round;"></line><text dx="0" dy="4.97" x="590" y="94"><tspan x="590" dx="0" text-anchor="start" style="fill: rgb(153, 153, 153); font-size: 14px; font-family: inherit; stroke: transparent; letter-spacing: normal; padding: 8px; stroke-width: 0;">$250K</tspan></text></g><g role="presentation"><line x1="578" x2="15" y1="34" y2="34" role="presentation" shape-rendering="auto" vector-effect="non-scaling-stroke" style="stroke: rgb(226, 226, 226); fill: transparent; stroke-width: 1; stroke-linecap: round; stroke-linejoin: round; pointer-events: none;"></line><line x1="578" x2="582" y1="34" y2="34" role="presentation" shape-rendering="auto" vector-effect="non-scaling-stroke" style="stroke: transparent; fill: transparent; size: 4px; stroke-width: 1; stroke-linecap: round; stroke-linejoin: round;"></line><text dx="0" dy="4.97" x="590" y="34"><tspan x="590" dx="0" text-anchor="start" style="fill: rgb(153, 153, 153); font-size: 14px; font-family: inherit; stroke: transparent; letter-spacing: normal; padding: 8px; stroke-width: 0;">$300K</tspan></text></g></g><g style="height: 100%; width: 100%; user-select: none;"><defs><clipPath id="victory-clip-5"><rect x="15" y="34" width="563" height="240"></rect></clipPath></defs><g clip-path="url(#victory-clip-5)"><path shape-rendering="auto" role="presentation" d="M24.5528188286809,186.4C27.73709177157453,189.4,30.921364714468165,192.39999999999998,34.1056376573618,192.39999999999998C37.28991060025543,192.39999999999998,40.47418354314906,190.70852459016393,43.658456486042695,190C46.7400109469075,189.31433104177685,49.821565407772304,188.2,52.90311986863711,188.2C56.08739281153075,188.2,59.271665754424376,191.2,62.45593869731801,191.2C65.54177309493402,191.2,68.62760749255003,185.8,71.71344189016602,185.8C74.89771483305965,185.8,78.0819877759533,196.75999999999996,81.26626071884692,197.2C84.45053366174056,197.64000000000001,87.63480660463419,197.86,90.81907954752783,197.86C93.69519704433499,197.86,96.57131454114213,195.0737799485421,99.44743203794928,192.39999999999998C102.62742504409171,189.44372246760892,105.80741805023415,180.39999999999998,108.98741105637657,180.39999999999998C112.06896551724138,180.39999999999998,115.15051997810617,184,118.23207443897098,184C121.41634738186463,184,124.60062032475825,184,127.7848932676519,184C130.8664477285167,184,133.9480021893815,181.79375991538868,137.02955665024632,181C140.21382959313993,180.17978142076504,143.39810253603358,179.2,146.5823754789272,179.2C149.76664842182083,179.2,152.95092136471445,181,156.1351943076081,181C159.2167487684729,181,162.2983032293377,180.39999999999998,165.37985769020253,180.39999999999998C168.56413063309614,180.39999999999998,171.74840357598978,181.54000000000002,174.9326765188834,181.54000000000002C178.0185109164994,181.54000000000002,181.10434531411542,180.97453161583908,184.19017971173142,180.39999999999998C187.37445265462506,179.8071407459302,190.55872559751867,179.6,193.74299854041232,178C196.92727148330596,176.4,200.1115444261996,169.6,203.29581736909324,169.6C206.1719348659004,169.6,209.04805236270755,182.2,211.9241698595147,182.2C215.10416286565712,182.2,218.28415587179956,181.707,221.46414887794197,180.721C224.5457033388068,179.76552220726785,227.62725779967158,172,230.7088122605364,172C233.89308520343002,172,237.07735814632366,172.43378142076503,240.26163108921727,173.26C243.3431855500821,174.0595663670016,246.4247400109469,176.8,249.5062944718117,176.8C252.69056741470536,176.8,255.874840357599,176.20000000000002,259.05911330049264,175C262.2433862433863,173.8,265.42765918627987,168.4,268.6119321291735,168.4C271.69348659003833,168.4,274.7750410509031,171.104600740349,277.8565955117679,172C281.04086845466156,172.92524590163936,284.22514139755515,173.8,287.4094143404488,173.8C290.4952487380648,173.8,293.58108313568084,166.36,296.66691753329684,166.36C299.8511904761905,166.36,303.03546341908407,174.1,306.2197363619777,174.1C309.40400930487135,174.1,312.588282247765,171.90375302663438,315.77255519065864,170.8C318.6486726874658,169.80306178239476,321.52479018427294,169.27005388335897,324.4009076810801,167.8C327.58090068722254,166.17462792360763,330.76089369336495,161.2,333.94088669950736,161.2C337.0224411603722,161.2,340.10399562123695,164.8,343.18555008210177,164.8C346.3698230249954,164.8,349.55409596788905,162.07659999999998,352.7383689107827,162.07659999999998C355.8199233716475,162.07659999999998,358.9014778325123,162.39999999999998,361.9830322933771,162.39999999999998C365.16730523627075,162.39999999999998,368.35157817916433,160,371.535851122058,160C374.7201240649516,160,377.90439700784526,167.2,381.0886699507389,167.2C384.1702244116037,167.2,387.2517788724685,163.6,390.3333333333333,163.6C393.51760627622696,163.6,396.7018792191206,164.812,399.88615216201424,164.812C402.97198655963024,164.812,406.0578209572463,155.2,409.1436553548623,155.2C412.32792829775593,155.2,415.5122012406495,166.66000000000003,418.69647418354316,166.66000000000003C421.8807471264368,166.66000000000003,425.0650200693304,160.29547816091954,428.24929301222403,157.0804C431.22812899106003,154.07274623655914,434.206964969896,148,437.185800948732,148C440.3657939548744,148,443.54578696101686,157.76805555555558,446.72577996715927,158.8C449.8073344280241,159.8,452.8888888888889,160.3,455.97044334975374,160.3C459.1547162926473,160.3,462.33898923554096,156.5403387978142,465.52326217843455,154.66C468.6048166392994,152.84031729243785,471.6863711001642,149.9664516129032,474.767925561029,149.2C477.95219850392266,148.408,481.1364714468163,148.804,484.32074438970994,148.012C487.50501733260353,147.22000000000003,490.68929027549717,139.6,493.87356321839076,139.6C496.9551176792556,139.6,500.0366721401204,142,503.1182266009852,142C506.3024995438788,142,509.48677248677245,132.02552011095702,512.671045429666,131.20000000000002C515.7568798272821,130.4,518.8427142248981,130,521.9285486225142,130C525.1128215654078,130,528.2970945083015,133.60119999999998,531.4813674511951,133.60119999999998C534.6656403940887,133.60119999999998,537.8499133369824,124.89345738498788,541.0341862798759,121.6C543.9103037766831,118.62526429743029,546.7864212734902,114.406,549.6625387702974,114.406C552.8425317764398,114.406,556.0225247825822,119.19999999999999,559.2025177887247,119.19999999999999C562.2840722495895,119.19999999999999,565.3656267104543,108.78751983077737,568.4471811713191,104.19999999999999C571.6314541142127,99.45956284153007,574.8157270571064,95.37978142076504,578,91.30000000000001" style="fill: transparent; stroke: rgb(51, 51, 51); stroke-width: 2; opacity: 1;"></path></g></g></svg>