<svg xmlns="http://www.w3.org/2000/svg" width="640" height="324" role="img" aria-labelledby="victory-container-4-title victory-container-4-desc" viewBox="0 0 640 324" style="pointer-events: all; width: 100%; height: 100%;"><g role="presentation"><line x1="15" x2="578" y1="274" y2="274" role="presentation" shape-rendering="auto" vector-effect="non-scaling-stroke" style="stroke: rgb(226, 226, 226); fill: transparent; stroke-width: 1; stroke-linejoin: round;"></line><g role="presentation"><line x1="81.26626071884692" x2="81.26626071884692" y1="274" y2="34" role="presentation" shape-rendering="auto" vector-effect="non-scaling-stroke" style="stroke: transparent; fill: transparent; stroke-width: 1; stroke-linecap: round; stroke-linejoin: round; pointer-events: none;"></line><line x1="81.26626071884692" x2="81.26626071884692" y1="274" y2="278" role="presentation" shape-rendering="auto" vector-effect="non-scaling-stroke" style="stroke: transparent; fill: transparent; size: 4px; stroke-width: 1; stroke-linecap: round; stroke-linejoin: round;"></line><text dx="0" dy="11.969999999999999" x="81.26626071884692" y="286"><tspan x="81.26626071884692" dx="0" text-anchor="middle" style="fill: rgb(153, 153, 153); font-size: 14px; font-family: inherit; stroke: transparent; letter-spacing: normal; padding: 8px; stroke-width: 0;">2017</tspan></text></g><g role="presentation"><line x1="193.74299854041232" x2="193.74299854041232" y1="274" y2="34" role="presentation" shape-rendering="auto" vector-effect="non-scaling-stroke" style="stroke: transparent; fill: transparent; stroke-width: 1; stroke-linecap: round; stroke-linejoin: round; pointer-events: none;"></line><line x1="193.74299854041232" x2="193.74299854041232" y1="274" y2="278" role="presentation" shape-rendering="auto" vector-effect="non-scaling-stroke" style="stroke: transparent; fill: transparent; size: 4px; stroke-width: 1; stroke-linecap: round; stroke-linejoin: round;"></line><text dx="0" dy="11.969999999999999" x="193.74299854041232" y="286"><tspan x="193.74299854041232" dx="0" text-anchor="middle" style="fill: rgb(153, 153, 153); font-size: 14px; font-family: inherit; stroke: transparent; letter-spacing: normal; padding: 8px; stroke-width: 0;">2018</tspan></text></g><g role="presentation"><line x1="306.2197363619777" x2="306.2197363619777" y1="274" y2="34" role="presentation" shape-rendering="auto" vector-effect="non-scaling-stroke" style="stroke: transparent; fill: transparent; stroke-width: 1; stroke-linecap: round; stroke-linejoin: round; pointer-events: none;"></line><line x1="306.2197363619777" x2="306.2197363619777" y1="274" y2="278" role="presentation" shape-rendering="auto" vector-effect="non-scaling-stroke" style="stroke: transparent; fill: transparent; size: 4px; stroke-width: 1; stroke-linecap: round; stroke-linejoin: round;"></line><text dx="0" dy="11.969999999999999" x="306.2197363619777" y="286"><tspan x="306.2197363619777" dx="0" text-anchor="middle" style="fill: rgb(153, 153, 153); font-size: 14px; font-family: inherit; stroke: transparent; letter-spacing: normal; padding: 8px; stroke-width: 0;">2019</tspan></text></g><g role="presentation"><line x1="418.69647418354316" x2="418.69647418354316" y1="274" y2="34" role="presentation" shape-rendering="auto" vector-effect="non-scaling-stroke" style="stroke: transparent; fill: transparent; stroke-width: 1; stroke-linecap: round; stroke-linejoin: round; pointer-events: none;"></line><line x1="418.69647418354316" x2="418.69647418354316" y1="274" y2="278" role="presentation" shape-rendering="auto" vector-effect="non-scaling-stroke" style="stroke: transparent; fill: transparent; size: 4px; stroke-width: 1; stroke-linecap: round; stroke-linejoin: round;"></line><text dx="0" dy="11.969999999999999" x="418.69647418354316" y="286"><tspan x="418.69647418354316" dx="0" text-anchor="middle" style="fill: rgb(153, 153, 153); font-size: 14px; font-family: inherit; stroke: transparent; letter-spacing: normal; padding: 8px; stroke-width: 0;">2020</tspan></text></g><g role="presentation"><line x1="531.4813674511951" x2="531.4813674511951" y1="274" y2="34" role="presentation" shape-rendering="auto" vector-effect="non-scaling-stroke" style="stroke: transparent; fill: transparent; stroke-width: 1; stroke-linecap: round; stroke-linejoin: round; pointer-events: none;"></line><line x1="531.4813674511951" x2="531.4813674511951" y1="274" y2="278" role="presentation" shape-rendering="auto" vector-effect="non-scaling-stroke" style="stroke: transparent; fill: transparent; size: 4px; stroke-width: 1; stroke-linecap: round; stroke-linejoin: round;"></line><text dx="0" dy="11.969999999999999" x="531.4813674511951" y="286"><tspan x="531.4813674511951" dx="0" text-anchor="middle" style="fill: rgb(153, 153, 153); font-size: 14px; font-family: inherit; stroke: transparent; letter-spacing: normal; padding: 8px; stroke-width: 0;">2021</tspan></text></g></g><g role="presentation"><line x1="578" x2="578" y1="34" y2="274" role="presentation" shape-rendering="auto" vector-effect="non-scaling-stroke" style="stroke: transparent; fill: transparent; stroke-width: 1; stroke-linejoin: round;"></line><g role="presentation"><line x1="578" x2="15" y1="274" y2="274" role="presentation" shape-rendering="auto" vector-effect="non-scaling-stroke" style="stroke: rgb(226, 226, 226); fill: transparent; stroke-width: 1; stroke-linecap: round; stroke-linejoin: round; pointer-events: none;"></line><line x1="578" x2="582" y1="274" y2="274" role="presentation" shape-rendering="auto" vector-effect="non-scaling-stroke" style="stroke: transparent; fill: transparent; size: 4px; stroke-width: 1; stroke-linecap: round; stroke-linejoin: round;"></line><text dx="0" dy="4.97" x="590" y="274"><tspan x="590" dx="0" text-anchor="start" style="fill: rgb(153, 153, 153); font-size: 14px; font-family: inherit; stroke: transparent; letter-spacing: normal; padding: 8px; stroke-width: 0;">$100K</tspan></text></g><g role="presentation"><line x1="578" x2="15" y1="214" y2="214" role="presentation" shape-rendering="auto" vector-effect="non-scaling-stroke" style="stroke: rgb(226, 226, 226); fill: transparent; stroke-width: 1; stroke-linecap: round; stroke-linejoin: round; pointer-events: none;"></line><line x1="578" x2="582" y1="214" y2="214" role="presentation" shape-rendering="auto" vector-effect="non-scaling-stroke" style="stroke: transparent; fill: transparent; size: 4px; stroke-width: 1; stroke-linecap: round; stroke-linejoin: round;"></line><text dx="0" dy="4.97" x="590" y="214"><tspan x="590" dx="0" text-anchor="start" style="fill: rgb(153, 153, 153); font-size: 14px; font-family: inherit; stroke: transparent; letter-spacing: normal; padding: 8px; stroke-width: 0;">$150K</tspan></text></g><g role="presentation"><line x1="578" x2="15" y1="154" y2="154" role="presentation" shape-rendering="auto" vector-effect="non-scaling-stroke" style="stroke: rgb(226, 226, 226); fill: transparent; stroke-width: 1; stroke-linecap: round; stroke-linejoin: round; pointer-events: none;"></line><line x1="578" x2="582" y1="154" y2="154" role="presentation" shape-rendering="auto" vector-effect="non-scaling-stroke" style="stroke: transparent; fill: transparent; size: 4px; stroke-width: 1; stroke-linecap: round; stroke-linejoin: round;"></line><text dx="0" dy="4.97" x="590" y="154"><tspan x="590" dx="0" text-anchor="start" style="fill: rgb(153, 153, 153); font-size: 14px; font-family: inherit; stroke: transparent; letter-spacing: normal; padding: 8px; stroke-width: 0;">$200K</tspan></text></g><g role="presentation"><line x1="578" x2="15" y1="94" y2="94" role="presentation" shape-rendering="auto" vector-effect="non-scaling-stroke" style="stroke: rgb(226, 226, 226); fill: transparent; stroke-width: 1; stroke-linecap: round; stroke-linejoin: round; pointer-events: none;"></line><line x1="578" x2="582" y1="94" y2="94" role="presentation" shape-rendering="auto" vector-effect="non-scaling-stroke" style="stroke: transparent; fill: transparent; size: 4px; stroke-width: 1; stroke-linecap: round; stroke-linejoin: round;"></line><text dx="0" dy="4.97" x="590" y="94"><tspan x="590" dx="0" text-anchor="start" style="fill: rgb(153, 153, 153); font-size: 14px; font-family: inherit; stroke: transparent; letter-spacing: normal; padding: 8px; stroke-width: 0;">$250K</tspan></text></g><g role="presentation"><line x1="578" x2="15" y1="34" y2="34" role="presentation" shape-rendering="auto" vector-effect="non-scaling-stroke" style="stroke: rgb(226, 226, 226); fill: transparent; stroke-width: 1; stroke-linecap: round; stroke-linejoin: round; pointer-events: none;"></line><line x1="578" x2="582" y1="34" y2="34" role="presentation" shape-rendering="auto" vector-effect="non-scaling-stroke" style="stroke: transparent; fill: transparent; size: 4px; stroke-width: 1; stroke-linecap: round; stroke-linejoin: round;"></line><text dx="0" dy="4.97" x="590" y="34"><tspan x="590" dx="0" text-anchor="start" style="fill: rgb(153, 153, 153); font-size: 14px; font-family: inherit; stroke: transparent; letter-spacing: normal; padding: 8px; stroke-width: 0;">$300K</tspan></text></g></g><g style="height: 100%; width: 100%; user-select: none;"><defs><clipPath id="victory-clip-5"><rect x="15" y="34" width="563" height="240"></rect></clipPath></defs><g clip-path="url(#victory-clip-5)"><path shape-rendering="auto" role="presentation" d="M15.30815544608648,124C18.389709906951285,151.15,21.471264367816094,178.3,24.5528188286809,178.3C27.73709177157453,178.3,30.921364714468165,106.006,34.1056376573618,106.006C37.28991060025543,106.006,40.47418354314906,157.5300655737705,43.658456486042695,175.66C46.7400109469075,193.20509783183502,49.821565407772304,214,52.90311986863711,214C56.08739281153075,214,59.271665754424376,156.38119278779476,62.45593869731801,150.52C65.54177309493402,144.84,68.62760749255003,142,71.71344189016602,142C74.89771483305965,142,78.0819877759533,193,81.26626071884692,193C84.45053366174056,193,87.63480660463419,178.75452784503634,90.81907954752783,169.72C93.69519704433499,161.55978130125752,96.57131454114213,142.12,99.44743203794928,142.12C102.62742504409171,142.12,105.80741805023415,148.12,108.98741105637657,148.12C112.06896551724138,148.12,115.15051997810617,122.85999999999999,118.23207443897098,122.85999999999999C121.41634738186463,122.85999999999999,124.60062032475825,148,127.7848932676519,148C130.8664477285167,148,133.9480021893815,128.92,137.02955665024632,128.92C140.21382959313993,128.92,143.39810253603358,147.06,146.5823754789272,152.26C149.76664842182083,157.46,152.95092136471445,160.12,156.1351943076081,160.12C159.2167487684729,160.12,162.2983032293377,147.178,165.37985769020253,147.178C168.56413063309614,147.178,171.74840357598978,158.8,174.9326765188834,158.8C178.0185109164994,158.8,181.10434531411542,136.12,184.19017971173142,136.12C187.37445265462506,136.12,190.55872559751867,160.12,193.74299854041232,160.12C196.92727148330596,160.12,200.1115444261996,118.46980000000002,203.29581736909324,118.46980000000002C206.1719348659004,118.46980000000002,209.04805236270755,142.72,211.9241698595147,142.72C215.10416286565712,142.72,218.28415587179956,141.1720228791676,221.46414887794197,139C224.5457033388068,136.89521336069893,227.62725779967158,131.56967741935486,230.7088122605364,130.06C233.89308520343002,128.5,237.07735814632366,127.72,240.26163108921727,127.72C243.3431855500821,127.72,246.4247400109469,137.4677300898995,249.5062944718117,140.7394C252.69056741470536,144.12012557377048,255.874840357599,147.46,259.05911330049264,147.46C262.2433862433863,147.46,265.42765918627987,146.06,268.6119321291735,143.26000000000002C271.69348659003833,140.55032258064517,274.7750410509031,113.27080000000001,277.8565955117679,113.27080000000001C281.04086845466156,113.27080000000001,284.22514139755515,115.9858282900598,287.4094143404488,119.28999999999999C290.4952487380648,122.49202661675658,293.58108313568084,128.8911795460384,296.66691753329684,132.5524C299.8511904761905,136.33041389424054,303.03546341908407,141.46,306.2197363619777,141.46C309.40400930487135,141.46,312.588282247765,133.09944188861985,315.77255519065864,130.12C318.6486726874658,127.42889119737562,321.52479018427294,124.006,324.4009076810801,124.006C327.58090068722254,124.006,330.76089369336495,126.60141717931194,333.94088669950736,130.12C337.0224411603722,133.52966302946894,340.10399562123695,144.52,343.18555008210177,144.52C346.3698230249954,144.52,349.55409596788905,135.47318524590165,352.7383689107827,130.528C355.8199233716475,125.74233685880486,358.9014778325123,115.58422580645161,361.9830322933771,115.381C365.16730523627075,115.171,368.35157817916433,115.066,371.535851122058,115.066C374.7201240649516,115.066,377.90439700784526,119.19999999999999,381.0886699507389,119.19999999999999C384.1702244116037,119.19999999999999,387.2517788724685,112.30000000000001,390.3333333333333,112.30000000000001C393.51760627622696,112.30000000000001,396.7018792191206,139.72,399.88615216201424,139.72C402.97198655963024,139.72,406.0578209572463,120.63591397849464,409.1436553548623,118C412.32792829775593,115.27999999999999,415.5122012406495,114.89999999999999,418.69647418354316,113.91999999999999C421.8807471264368,112.93999999999998,425.0650200693304,112.20551724137931,428.24929301222403,112.12C431.22812899106003,112.04,434.206964969896,112.08,437.185800948732,112C440.3657939548744,111.91459770114942,443.54578696101686,101.56,446.72577996715927,101.56C449.8073344280241,101.56,452.8888888888889,123.4,455.97044334975374,123.4C459.1547162926473,123.4,462.33898923554096,114.12874316939872,465.52326217843455,100C468.6048166392994,86.32702273929138,471.6863711001642,41.20000000000002,474.767925561029,41.20000000000002C477.95219850392266,41.20000000000002,481.1364714468163,71.99999999999996,484.32074438970994,76C487.50501733260353,80,490.68929027549717,78.11553879781427,493.87356321839076,82C496.9551176792556,85.75915600211529,500.0366721401204,97.99909677419355,503.1182266009852,98.572C506.3024995438788,99.164,509.48677248677245,98.86800000000001,512.671045429666,99.46000000000001C515.7568798272821,100.03369892473121,518.8427142248981,106.46649757789274,521.9285486225142,109.72C525.1128215654078,113.07728960062101,528.2970945083015,119.25999999999999,531.4813674511951,119.25999999999999C534.6656403940887,119.25999999999999,537.8499133369824,101.38703995157385,541.0341862798759,95.05000000000001C543.9103037766831,89.32622197922363,546.7864212734902,82.12,549.6625387702974,82.12C552.8425317764398,82.12,556.0225247825822,85.06,559.2025177887247,85.06C562.2840722495895,85.06,565.3656267104543,67.33028239026973,568.4471811713191,59.536C571.6314541142127,51.48190819672135,574.8157270571064,44.57095409836067,578,37.66" style="fill: transparent; stroke: rgb(51, 51, 51); stroke-width: 2; opacity: 1;"></path></g></g></svg>