<svg xmlns="http://www.w3.org/2000/svg" width="640" height="324" role="img" aria-labelledby="victory-container-4-title victory-container-4-desc" viewBox="0 0 640 324" style="pointer-events: all; width: 100%; height: 100%;"><g role="presentation"><line x1="15" x2="578" y1="274" y2="274" role="presentation" shape-rendering="auto" vector-effect="non-scaling-stroke" style="stroke: rgb(226, 226, 226); fill: transparent; stroke-width: 1; stroke-linejoin: round;"></line><g role="presentation"><line x1="81.26626071884692" x2="81.26626071884692" y1="274" y2="34" role="presentation" shape-rendering="auto" vector-effect="non-scaling-stroke" style="stroke: transparent; fill: transparent; stroke-width: 1; stroke-linecap: round; stroke-linejoin: round; pointer-events: none;"></line><line x1="81.26626071884692" x2="81.26626071884692" y1="274" y2="278" role="presentation" shape-rendering="auto" vector-effect="non-scaling-stroke" style="stroke: transparent; fill: transparent; size: 4px; stroke-width: 1; stroke-linecap: round; stroke-linejoin: round;"></line><text dx="0" dy="11.969999999999999" x="81.26626071884692" y="286"><tspan x="81.26626071884692" dx="0" text-anchor="middle" style="fill: rgb(153, 153, 153); font-size: 14px; font-family: inherit; stroke: transparent; letter-spacing: normal; padding: 8px; stroke-width: 0;">2017</tspan></text></g><g role="presentation"><line x1="193.74299854041232" x2="193.74299854041232" y1="274" y2="34" role="presentation" shape-rendering="auto" vector-effect="non-scaling-stroke" style="stroke: transparent; fill: transparent; stroke-width: 1; stroke-linecap: round; stroke-linejoin: round; pointer-events: none;"></line><line x1="193.74299854041232" x2="193.74299854041232" y1="274" y2="278" role="presentation" shape-rendering="auto" vector-effect="non-scaling-stroke" style="stroke: transparent; fill: transparent; size: 4px; stroke-width: 1; stroke-linecap: round; stroke-linejoin: round;"></line><text dx="0" dy="11.969999999999999" x="193.74299854041232" y="286"><tspan x="193.74299854041232" dx="0" text-anchor="middle" style="fill: rgb(153, 153, 153); font-size: 14px; font-family: inherit; stroke: transparent; letter-spacing: normal; padding: 8px; stroke-width: 0;">2018</tspan></text></g><g role="presentation"><line x1="306.2197363619777" x2="306.2197363619777" y1="274" y2="34" role="presentation" shape-rendering="auto" vector-effect="non-scaling-stroke" style="stroke: transparent; fill: transparent; stroke-width: 1; stroke-linecap: round; stroke-linejoin: round; pointer-events: none;"></line><line x1="306.2197363619777" x2="306.2197363619777" y1="274" y2="278" role="presentation" shape-rendering="auto" vector-effect="non-scaling-stroke" style="stroke: transparent; fill: transparent; size: 4px; stroke-width: 1; stroke-linecap: round; stroke-linejoin: round;"></line><text dx="0" dy="11.969999999999999" x="306.2197363619777" y="286"><tspan x="306.2197363619777" dx="0" text-anchor="middle" style="fill: rgb(153, 153, 153); font-size: 14px; font-family: inherit; stroke: transparent; letter-spacing: normal; padding: 8px; stroke-width: 0;">2019</tspan></text></g><g role="presentation"><line x1="418.69647418354316" x2="418.69647418354316" y1="274" y2="34" role="presentation" shape-rendering="auto" vector-effect="non-scaling-stroke" style="stroke: transparent; fill: transparent; stroke-width: 1; stroke-linecap: round; stroke-linejoin: round; pointer-events: none;"></line><line x1="418.69647418354316" x2="418.69647418354316" y1="274" y2="278" role="presentation" shape-rendering="auto" vector-effect="non-scaling-stroke" style="stroke: transparent; fill: transparent; size: 4px; stroke-width: 1; stroke-linecap: round; stroke-linejoin: round;"></line><text dx="0" dy="11.969999999999999" x="418.69647418354316" y="286"><tspan x="418.69647418354316" dx="0" text-anchor="middle" style="fill: rgb(153, 153, 153); font-size: 14px; font-family: inherit; stroke: transparent; letter-spacing: normal; padding: 8px; stroke-width: 0;">2020</tspan></text></g><g role="presentation"><line x1="531.4813674511951" x2="531.4813674511951" y1="274" y2="34" role="presentation" shape-rendering="auto" vector-effect="non-scaling-stroke" style="stroke: transparent; fill: transparent; stroke-width: 1; stroke-linecap: round; stroke-linejoin: round; pointer-events: none;"></line><line x1="531.4813674511951" x2="531.4813674511951" y1="274" y2="278" role="presentation" shape-rendering="auto" vector-effect="non-scaling-stroke" style="stroke: transparent; fill: transparent; size: 4px; stroke-width: 1; stroke-linecap: round; stroke-linejoin: round;"></line><text dx="0" dy="11.969999999999999" x="531.4813674511951" y="286"><tspan x="531.4813674511951" dx="0" text-anchor="middle" style="fill: rgb(153, 153, 153); font-size: 14px; font-family: inherit; stroke: transparent; letter-spacing: normal; padding: 8px; stroke-width: 0;">2021</tspan></text></g></g><g role="presentation"><line x1="578" x2="578" y1="34" y2="274" role="presentation" shape-rendering="auto" vector-effect="non-scaling-stroke" style="stroke: transparent; fill: transparent; stroke-width: 1; stroke-linejoin: round;"></line><g role="presentation"><line x1="578" x2="15" y1="274" y2="274" role="presentation" shape-rendering="auto" vector-effect="non-scaling-stroke" style="stroke: rgb(226, 226, 226); fill: transparent; stroke-width: 1; stroke-linecap: round; stroke-linejoin: round; pointer-events: none;"></line><line x1="578" x2="582" y1="274" y2="274" role="presentation" shape-rendering="auto" vector-effect="non-scaling-stroke" style="stroke: transparent; fill: transparent; size: 4px; stroke-width: 1; stroke-linecap: round; stroke-linejoin: round;"></line><text dx="0" dy="4.97" x="590" y="274"><tspan x="590" dx="0" text-anchor="start" style="fill: rgb(153, 153, 153); font-size: 14px; font-family: inherit; stroke: transparent; letter-spacing: normal; padding: 8px; stroke-width: 0;">$200K</tspan></text></g><g role="presentation"><line x1="578" x2="15" y1="214" y2="214" role="presentation" shape-rendering="auto" vector-effect="non-scaling-stroke" style="stroke: rgb(226, 226, 226); fill: transparent; stroke-width: 1; stroke-linecap: round; stroke-linejoin: round; pointer-events: none;"></line><line x1="578" x2="582" y1="214" y2="214" role="presentation" shape-rendering="auto" vector-effect="non-scaling-stroke" style="stroke: transparent; fill: transparent; size: 4px; stroke-width: 1; stroke-linecap: round; stroke-linejoin: round;"></line><text dx="0" dy="4.97" x="590" y="214"><tspan x="590" dx="0" text-anchor="start" style="fill: rgb(153, 153, 153); font-size: 14px; font-family: inherit; stroke: transparent; letter-spacing: normal; padding: 8px; stroke-width: 0;">$250K</tspan></text></g><g role="presentation"><line x1="578" x2="15" y1="154" y2="154" role="presentation" shape-rendering="auto" vector-effect="non-scaling-stroke" style="stroke: rgb(226, 226, 226); fill: transparent; stroke-width: 1; stroke-linecap: round; stroke-linejoin: round; pointer-events: none;"></line><line x1="578" x2="582" y1="154" y2="154" role="presentation" shape-rendering="auto" vector-effect="non-scaling-stroke" style="stroke: transparent; fill: transparent; size: 4px; stroke-width: 1; stroke-linecap: round; stroke-linejoin: round;"></line><text dx="0" dy="4.97" x="590" y="154"><tspan x="590" dx="0" text-anchor="start" style="fill: rgb(153, 153, 153); font-size: 14px; font-family: inherit; stroke: transparent; letter-spacing: normal; padding: 8px; stroke-width: 0;">$300K</tspan></text></g><g role="presentation"><line x1="578" x2="15" y1="94" y2="94" role="presentation" shape-rendering="auto" vector-effect="non-scaling-stroke" style="stroke: rgb(226, 226, 226); fill: transparent; stroke-width: 1; stroke-linecap: round; stroke-linejoin: round; pointer-events: none;"></line><line x1="578" x2="582" y1="94" y2="94" role="presentation" shape-rendering="auto" vector-effect="non-scaling-stroke" style="stroke: transparent; fill: transparent; size: 4px; stroke-width: 1; stroke-linecap: round; stroke-linejoin: round;"></line><text dx="0" dy="4.97" x="590" y="94"><tspan x="590" dx="0" text-anchor="start" style="fill: rgb(153, 153, 153); font-size: 14px; font-family: inherit; stroke: transparent; letter-spacing: normal; padding: 8px; stroke-width: 0;">$350K</tspan></text></g><g role="presentation"><line x1="578" x2="15" y1="34" y2="34" role="presentation" shape-rendering="auto" vector-effect="non-scaling-stroke" style="stroke: rgb(226, 226, 226); fill: transparent; stroke-width: 1; stroke-linecap: round; stroke-linejoin: round; pointer-events: none;"></line><line x1="578" x2="582" y1="34" y2="34" role="presentation" shape-rendering="auto" vector-effect="non-scaling-stroke" style="stroke: transparent; fill: transparent; size: 4px; stroke-width: 1; stroke-linecap: round; stroke-linejoin: round;"></line><text dx="0" dy="4.97" x="590" y="34"><tspan x="590" dx="0" text-anchor="start" style="fill: rgb(153, 153, 153); font-size: 14px; font-family: inherit; stroke: transparent; letter-spacing: normal; padding: 8px; stroke-width: 0;">$400K</tspan></text></g></g><g style="height: 100%; width: 100%; user-select: none;"><defs><clipPath id="victory-clip-5"><rect x="15" y="34" width="563" height="240"></rect></clipPath></defs><g clip-path="url(#victory-clip-5)"><path shape-rendering="auto" role="presentation" d="M24.5528188286809,202C27.73709177157453,197.3,30.921364714468165,192.60000000000002,34.1056376573618,187.60000000000002C37.28991060025543,182.60000000000002,40.47418354314906,172,43.658456486042695,172C46.7400109469075,172,49.821565407772304,194.2,52.90311986863711,194.2C56.08739281153075,194.2,59.271665754424376,175.60000000000002,62.45593869731801,175.60000000000002C65.54177309493402,175.60000000000002,68.62760749255003,196,71.71344189016602,196C74.89771483305965,196,78.0819877759533,182.2,81.26626071884692,178C84.45053366174056,173.79999999999998,87.63480660463419,172.46253026634383,90.81907954752783,170.8C93.69519704433499,169.2983597594314,96.57131454114213,168.10000000000002,99.44743203794928,168.10000000000002C102.62742504409171,168.10000000000002,105.80741805023415,180.46,108.98741105637657,180.46C112.06896551724138,180.46,115.15051997810617,163.79083870967744,118.23207443897098,160.60000000000002C121.41634738186463,157.30280000000002,124.60062032475825,155.6542,127.7848932676519,155.6542C130.8664477285167,155.6542,133.9480021893815,191.2,137.02955665024632,191.2C140.21382959313993,191.2,143.39810253603358,188.6,146.5823754789272,183.4C149.76664842182083,178.2,152.95092136471445,148,156.1351943076081,148C159.2167487684729,148,162.2983032293377,191.2,165.37985769020253,191.2C168.56413063309614,191.2,171.74840357598978,187.18,174.9326765188834,187.18C178.0185109164994,187.18,181.10434531411542,195.28,184.19017971173142,195.28C187.37445265462506,195.28,190.55872559751867,156.1,193.74299854041232,156.1C196.92727148330596,156.1,200.1115444261996,196.78,203.29581736909324,196.78C206.1719348659004,196.78,209.04805236270755,164.0649384740499,211.9241698595147,154C215.10416286565712,142.87165284788833,218.28415587179956,136,221.46414887794197,136C224.5457033388068,136,227.62725779967158,154.4984258064516,230.7088122605364,156.7312C233.89308520343002,159.0384,237.07735814632366,158.08285464480875,240.26163108921727,160.192C243.3431855500821,162.23310840824962,246.4247400109469,166.0658402961396,249.5062944718117,169C252.69056741470536,172.0319650273224,255.874840357599,178.09,259.05911330049264,178.09C262.2433862433863,178.09,265.42765918627987,169.606,268.6119321291735,169.606C271.69348659003833,169.606,274.7750410509031,172.4398,277.8565955117679,172.4398C281.04086845466156,172.4398,284.22514139755515,170.79139999999998,287.4094143404488,167.4946C290.4952487380648,164.29971720430106,293.58108313568084,148.60000000000002,296.66691753329684,148.60000000000002C299.8511904761905,148.60000000000002,303.03546341908407,185.2,306.2197363619777,185.2C309.40400930487135,185.2,312.588282247765,170.89878934624696,315.77255519065864,166C318.6486726874658,161.57528704209952,321.52479018427294,156.4,324.4009076810801,156.4C327.58090068722254,156.4,330.76089369336495,156.899,333.94088669950736,157.897C337.0224411603722,158.8641063257066,340.10399562123695,170.563,343.18555008210177,170.563C346.3698230249954,170.563,349.55409596788905,154,352.7383689107827,154C355.8199233716475,154,358.9014778325123,175.60000000000002,361.9830322933771,175.60000000000002C365.16730523627075,175.60000000000002,368.35157817916433,166.278,371.535851122058,162.178C374.7201240649516,158.07799999999997,377.90439700784526,151,381.0886699507389,151C384.1702244116037,151,387.2517788724685,167.36763617133795,390.3333333333333,173.8C393.51760627622696,180.44677595628417,396.7018792191206,190,399.88615216201424,190C402.97198655963024,190,406.0578209572463,167.2,409.1436553548623,167.2C412.32792829775593,167.2,415.5122012406495,192.136,418.69647418354316,192.136C421.8807471264368,192.136,425.0650200693304,172.60000000000002,428.24929301222403,172.60000000000002C431.22812899106003,172.60000000000002,434.206964969896,182.8,437.185800948732,182.8C440.3657939548744,182.8,443.54578696101686,150.703,446.72577996715927,150.703C449.8073344280241,150.703,452.8888888888889,159.4,455.97044334975374,159.4C459.1547162926473,159.4,462.33898923554096,139.92247868852456,465.52326217843455,134.00799999999998C468.6048166392994,128.28431094658902,471.6863711001642,124,474.767925561029,124C477.95219850392266,124,481.1364714468163,137.558,484.32074438970994,142.36C487.50501733260353,147.16199999999998,490.68929027549717,152.812,493.87356321839076,152.812C496.9551176792556,152.812,500.0366721401204,151.68567318878905,503.1182266009852,150.69100000000003C506.3024995438788,149.6631710382514,509.48677248677245,149.35600000000002,512.671045429666,146.68599999999998C515.7568798272821,144.09854032258053,518.8427142248981,120.4,521.9285486225142,120.4C525.1128215654078,120.4,528.2970945083015,145,531.4813674511951,145C534.6656403940887,145,537.8499133369824,119.98000000000002,541.0341862798759,118.12C543.9103037766831,116.44,546.7864212734902,117.28,549.6625387702974,115.6C552.8425317764398,113.74249999999998,556.0225247825822,64,559.2025177887247,64C562.2840722495895,64,565.3656267104543,85,568.4471811713191,85C571.6314541142127,85,574.8157270571064,77.5,578,70" style="fill: transparent; stroke: rgb(51, 51, 51); stroke-width: 2; opacity: 1;"></path></g></g></svg>