<svg xmlns="http://www.w3.org/2000/svg" width="640" height="324" role="img" aria-labelledby="victory-container-4-title victory-container-4-desc" viewBox="0 0 640 324" style="pointer-events: all; width: 100%; height: 100%;"><g role="presentation"><line x1="15" x2="578" y1="274" y2="274" role="presentation" shape-rendering="auto" vector-effect="non-scaling-stroke" style="stroke: rgb(226, 226, 226); fill: transparent; stroke-width: 1; stroke-linejoin: round;"></line><g role="presentation"><line x1="81.26626071884692" x2="81.26626071884692" y1="274" y2="34" role="presentation" shape-rendering="auto" vector-effect="non-scaling-stroke" style="stroke: transparent; fill: transparent; stroke-width: 1; stroke-linecap: round; stroke-linejoin: round; pointer-events: none;"></line><line x1="81.26626071884692" x2="81.26626071884692" y1="274" y2="278" role="presentation" shape-rendering="auto" vector-effect="non-scaling-stroke" style="stroke: transparent; fill: transparent; size: 4px; stroke-width: 1; stroke-linecap: round; stroke-linejoin: round;"></line><text dx="0" dy="11.969999999999999" x="81.26626071884692" y="286"><tspan x="81.26626071884692" dx="0" text-anchor="middle" style="fill: rgb(153, 153, 153); font-size: 14px; font-family: inherit; stroke: transparent; letter-spacing: normal; padding: 8px; stroke-width: 0;">2017</tspan></text></g><g role="presentation"><line x1="193.74299854041232" x2="193.74299854041232" y1="274" y2="34" role="presentation" shape-rendering="auto" vector-effect="non-scaling-stroke" style="stroke: transparent; fill: transparent; stroke-width: 1; stroke-linecap: round; stroke-linejoin: round; pointer-events: none;"></line><line x1="193.74299854041232" x2="193.74299854041232" y1="274" y2="278" role="presentation" shape-rendering="auto" vector-effect="non-scaling-stroke" style="stroke: transparent; fill: transparent; size: 4px; stroke-width: 1; stroke-linecap: round; stroke-linejoin: round;"></line><text dx="0" dy="11.969999999999999" x="193.74299854041232" y="286"><tspan x="193.74299854041232" dx="0" text-anchor="middle" style="fill: rgb(153, 153, 153); font-size: 14px; font-family: inherit; stroke: transparent; letter-spacing: normal; padding: 8px; stroke-width: 0;">2018</tspan></text></g><g role="presentation"><line x1="306.2197363619777" x2="306.2197363619777" y1="274" y2="34" role="presentation" shape-rendering="auto" vector-effect="non-scaling-stroke" style="stroke: transparent; fill: transparent; stroke-width: 1; stroke-linecap: round; stroke-linejoin: round; pointer-events: none;"></line><line x1="306.2197363619777" x2="306.2197363619777" y1="274" y2="278" role="presentation" shape-rendering="auto" vector-effect="non-scaling-stroke" style="stroke: transparent; fill: transparent; size: 4px; stroke-width: 1; stroke-linecap: round; stroke-linejoin: round;"></line><text dx="0" dy="11.969999999999999" x="306.2197363619777" y="286"><tspan x="306.2197363619777" dx="0" text-anchor="middle" style="fill: rgb(153, 153, 153); font-size: 14px; font-family: inherit; stroke: transparent; letter-spacing: normal; padding: 8px; stroke-width: 0;">2019</tspan></text></g><g role="presentation"><line x1="418.69647418354316" x2="418.69647418354316" y1="274" y2="34" role="presentation" shape-rendering="auto" vector-effect="non-scaling-stroke" style="stroke: transparent; fill: transparent; stroke-width: 1; stroke-linecap: round; stroke-linejoin: round; pointer-events: none;"></line><line x1="418.69647418354316" x2="418.69647418354316" y1="274" y2="278" role="presentation" shape-rendering="auto" vector-effect="non-scaling-stroke" style="stroke: transparent; fill: transparent; size: 4px; stroke-width: 1; stroke-linecap: round; stroke-linejoin: round;"></line><text dx="0" dy="11.969999999999999" x="418.69647418354316" y="286"><tspan x="418.69647418354316" dx="0" text-anchor="middle" style="fill: rgb(153, 153, 153); font-size: 14px; font-family: inherit; stroke: transparent; letter-spacing: normal; padding: 8px; stroke-width: 0;">2020</tspan></text></g><g role="presentation"><line x1="531.4813674511951" x2="531.4813674511951" y1="274" y2="34" role="presentation" shape-rendering="auto" vector-effect="non-scaling-stroke" style="stroke: transparent; fill: transparent; stroke-width: 1; stroke-linecap: round; stroke-linejoin: round; pointer-events: none;"></line><line x1="531.4813674511951" x2="531.4813674511951" y1="274" y2="278" role="presentation" shape-rendering="auto" vector-effect="non-scaling-stroke" style="stroke: transparent; fill: transparent; size: 4px; stroke-width: 1; stroke-linecap: round; stroke-linejoin: round;"></line><text dx="0" dy="11.969999999999999" x="531.4813674511951" y="286"><tspan x="531.4813674511951" dx="0" text-anchor="middle" style="fill: rgb(153, 153, 153); font-size: 14px; font-family: inherit; stroke: transparent; letter-spacing: normal; padding: 8px; stroke-width: 0;">2021</tspan></text></g></g><g role="presentation"><line x1="578" x2="578" y1="34" y2="274" role="presentation" shape-rendering="auto" vector-effect="non-scaling-stroke" style="stroke: transparent; fill: transparent; stroke-width: 1; stroke-linejoin: round;"></line><g role="presentation"><line x1="578" x2="15" y1="274" y2="274" role="presentation" shape-rendering="auto" vector-effect="non-scaling-stroke" style="stroke: rgb(226, 226, 226); fill: transparent; stroke-width: 1; stroke-linecap: round; stroke-linejoin: round; pointer-events: none;"></line><line x1="578" x2="582" y1="274" y2="274" role="presentation" shape-rendering="auto" vector-effect="non-scaling-stroke" style="stroke: transparent; fill: transparent; size: 4px; stroke-width: 1; stroke-linecap: round; stroke-linejoin: round;"></line><text dx="0" dy="4.97" x="590" y="274"><tspan x="590" dx="0" text-anchor="start" style="fill: rgb(153, 153, 153); font-size: 14px; font-family: inherit; stroke: transparent; letter-spacing: normal; padding: 8px; stroke-width: 0;">$200K</tspan></text></g><g role="presentation"><line x1="578" x2="15" y1="214" y2="214" role="presentation" shape-rendering="auto" vector-effect="non-scaling-stroke" style="stroke: rgb(226, 226, 226); fill: transparent; stroke-width: 1; stroke-linecap: round; stroke-linejoin: round; pointer-events: none;"></line><line x1="578" x2="582" y1="214" y2="214" role="presentation" shape-rendering="auto" vector-effect="non-scaling-stroke" style="stroke: transparent; fill: transparent; size: 4px; stroke-width: 1; stroke-linecap: round; stroke-linejoin: round;"></line><text dx="0" dy="4.97" x="590" y="214"><tspan x="590" dx="0" text-anchor="start" style="fill: rgb(153, 153, 153); font-size: 14px; font-family: inherit; stroke: transparent; letter-spacing: normal; padding: 8px; stroke-width: 0;">$250K</tspan></text></g><g role="presentation"><line x1="578" x2="15" y1="154" y2="154" role="presentation" shape-rendering="auto" vector-effect="non-scaling-stroke" style="stroke: rgb(226, 226, 226); fill: transparent; stroke-width: 1; stroke-linecap: round; stroke-linejoin: round; pointer-events: none;"></line><line x1="578" x2="582" y1="154" y2="154" role="presentation" shape-rendering="auto" vector-effect="non-scaling-stroke" style="stroke: transparent; fill: transparent; size: 4px; stroke-width: 1; stroke-linecap: round; stroke-linejoin: round;"></line><text dx="0" dy="4.97" x="590" y="154"><tspan x="590" dx="0" text-anchor="start" style="fill: rgb(153, 153, 153); font-size: 14px; font-family: inherit; stroke: transparent; letter-spacing: normal; padding: 8px; stroke-width: 0;">$300K</tspan></text></g><g role="presentation"><line x1="578" x2="15" y1="94" y2="94" role="presentation" shape-rendering="auto" vector-effect="non-scaling-stroke" style="stroke: rgb(226, 226, 226); fill: transparent; stroke-width: 1; stroke-linecap: round; stroke-linejoin: round; pointer-events: none;"></line><line x1="578" x2="582" y1="94" y2="94" role="presentation" shape-rendering="auto" vector-effect="non-scaling-stroke" style="stroke: transparent; fill: transparent; size: 4px; stroke-width: 1; stroke-linecap: round; stroke-linejoin: round;"></line><text dx="0" dy="4.97" x="590" y="94"><tspan x="590" dx="0" text-anchor="start" style="fill: rgb(153, 153, 153); font-size: 14px; font-family: inherit; stroke: transparent; letter-spacing: normal; padding: 8px; stroke-width: 0;">$350K</tspan></text></g><g role="presentation"><line x1="578" x2="15" y1="34" y2="34" role="presentation" shape-rendering="auto" vector-effect="non-scaling-stroke" style="stroke: rgb(226, 226, 226); fill: transparent; stroke-width: 1; stroke-linecap: round; stroke-linejoin: round; pointer-events: none;"></line><line x1="578" x2="582" y1="34" y2="34" role="presentation" shape-rendering="auto" vector-effect="non-scaling-stroke" style="stroke: transparent; fill: transparent; size: 4px; stroke-width: 1; stroke-linecap: round; stroke-linejoin: round;"></line><text dx="0" dy="4.97" x="590" y="34"><tspan x="590" dx="0" text-anchor="start" style="fill: rgb(153, 153, 153); font-size: 14px; font-family: inherit; stroke: transparent; letter-spacing: normal; padding: 8px; stroke-width: 0;">$400K</tspan></text></g></g><g style="height: 100%; width: 100%; user-select: none;"><defs><clipPath id="victory-clip-5"><rect x="15" y="34" width="563" height="240"></rect></clipPath></defs><g clip-path="url(#victory-clip-5)"><path shape-rendering="auto" role="presentation" d="M15.30815544608648,194.8C18.389709906951285,186.82897937599154,21.471264367816094,178.85795875198306,24.5528188286809,173.2C27.73709177157453,167.3534426229508,30.921364714468165,160.60000000000002,34.1056376573618,160.60000000000002C37.28991060025543,160.60000000000002,40.47418354314906,190.8945355191257,43.658456486042695,205C46.7400109469075,218.65044949762031,49.821565407772304,244,52.90311986863711,244C56.08739281153075,244,59.271665754424376,193.6,62.45593869731801,193.6C65.54177309493402,193.6,68.62760749255003,245.92,71.71344189016602,245.92C74.89771483305965,245.92,78.0819877759533,243.3,81.26626071884692,241.18C84.45053366174056,239.06,87.63480660463419,237.48731234866827,90.81907954752783,233.2C93.69519704433499,229.3275888463641,96.57131454114213,217.6,99.44743203794928,217.6C102.62742504409171,217.6,105.80741805023415,244,108.98741105637657,244C112.06896551724138,244,115.15051997810617,212.60306716023268,118.23207443897098,201.1C121.41634738186463,189.21349726775955,124.60062032475825,174.4,127.7848932676519,174.4C130.8664477285167,174.4,133.9480021893815,205.67741935483872,137.02955665024632,208C140.21382959313993,210.4,143.39810253603358,211.6,146.5823754789272,211.6C149.76664842182083,211.6,152.95092136471445,161.2,156.1351943076081,161.2C159.2167487684729,161.2,162.2983032293377,228.0516129032257,165.37985769020253,241.6C168.56413063309614,255.60000000000002,171.74840357598978,262.6,174.9326765188834,262.6C178.0185109164994,262.6,181.10434531411542,223.24,184.19017971173142,223.24C187.37445265462506,223.24,190.55872559751867,259,193.74299854041232,259C196.92727148330596,259,200.1115444261996,251.02663438256658,203.29581736909324,244C206.1719348659004,237.65336249316567,209.04805236270755,225.96607416214468,211.9241698595147,220C215.10416286565712,213.4035816927478,218.28415587179956,210.2498611111111,221.46414887794197,207.67000000000002C224.5457033388068,205.17000000000002,227.62725779967158,204.85984664198838,230.7088122605364,203.92000000000002C233.89308520343002,202.94882513661204,237.07735814632366,202,240.26163108921727,202C243.3431855500821,202,246.4247400109469,212.2,249.5062944718117,212.2C252.69056741470536,212.2,255.874840357599,211.6,259.05911330049264,211.6C262.2433862433863,211.6,265.42765918627987,212.4,268.6119321291735,214C271.69348659003833,215.5483870967742,274.7750410509031,226,277.8565955117679,226C281.04086845466156,226,284.22514139755515,197.8,287.4094143404488,197.8C290.4952487380648,197.8,293.58108313568084,211.3294719989724,296.66691753329684,220C299.8511904761905,228.9471190468301,303.03546341908407,250.9,306.2197363619777,250.9C309.40400930487135,250.9,312.588282247765,190.3,315.77255519065864,190.3C318.6486726874658,190.3,321.52479018427294,242.8,324.4009076810801,242.8C327.58090068722254,242.8,330.76089369336495,184.20255555555556,333.94088669950736,184.12C337.0224411603722,184.04,340.10399562123695,184.08,343.18555008210177,184C346.3698230249954,183.91733333333332,349.55409596788905,180.025,352.7383689107827,180.025C355.8199233716475,180.025,358.9014778325123,184.35,361.9830322933771,193C365.16730523627075,201.9383333333333,368.35157817916433,234.4,371.535851122058,234.4C374.7201240649516,234.4,377.90439700784526,204.6989617486339,381.0886699507389,196.3C384.1702244116037,188.1719725013221,387.2517788724685,184,390.3333333333333,184C393.51760627622696,184,396.7018792191206,222.1,399.88615216201424,222.1C402.97198655963024,222.1,406.0578209572463,184,409.1436553548623,184C412.32792829775593,184,415.5122012406495,226.12,418.69647418354316,226.12C421.8807471264368,226.12,425.0650200693304,226.08,428.24929301222403,226C431.22812899106003,225.92516129032256,434.206964969896,171.4,437.185800948732,171.4C440.3657939548744,171.4,443.54578696101686,184.09750480367586,446.72577996715927,192.51999999999998C449.8073344280241,200.6817719264514,452.8888888888889,220.9,455.97044334975374,220.9C459.1547162926473,220.9,462.33898923554096,181.088,465.52326217843455,178.36C468.6048166392994,175.72,471.6863711001642,176.59382337387626,474.767925561029,174.4C477.95219850392266,172.13304918032787,481.1364714468163,164.8,484.32074438970994,164.8C487.50501733260353,164.8,490.68929027549717,179.8,493.87356321839076,179.8C496.9551176792556,179.8,500.0366721401204,174.6987837123215,503.1182266009852,173.2C506.3024995438788,171.6512568306011,509.48677248677245,170.8,512.671045429666,170.8C515.7568798272821,170.8,518.8427142248981,178,521.9285486225142,178C525.1128215654078,178,528.2970945083015,175.25,531.4813674511951,169.75C534.6656403940887,164.25,537.8499133369824,141.59745762711864,541.0341862798759,127.6C543.9103037766831,114.95713504647347,546.7864212734902,89.80000000000001,549.6625387702974,89.80000000000001C552.8425317764398,89.80000000000001,556.0225247825822,136,559.2025177887247,136C562.2840722495895,136,565.3656267104543,115.12744579587523,568.4471811713191,106C571.6314541142127,96.568306010929,574.8157270571064,88.5341530054645,578,80.5" style="fill: transparent; stroke: rgb(51, 51, 51); stroke-width: 2; opacity: 1;"></path></g></g></svg>