<svg xmlns="http://www.w3.org/2000/svg" width="640" height="324" role="img" aria-labelledby="victory-container-4-title victory-container-4-desc" viewBox="0 0 640 324" style="pointer-events: all; width: 100%; height: 100%;"><g role="presentation"><line x1="15" x2="578" y1="274" y2="274" role="presentation" shape-rendering="auto" vector-effect="non-scaling-stroke" style="stroke: rgb(226, 226, 226); fill: transparent; stroke-width: 1; stroke-linejoin: round;"></line><g role="presentation"><line x1="81.26626071884692" x2="81.26626071884692" y1="274" y2="34" role="presentation" shape-rendering="auto" vector-effect="non-scaling-stroke" style="stroke: transparent; fill: transparent; stroke-width: 1; stroke-linecap: round; stroke-linejoin: round; pointer-events: none;"></line><line x1="81.26626071884692" x2="81.26626071884692" y1="274" y2="278" role="presentation" shape-rendering="auto" vector-effect="non-scaling-stroke" style="stroke: transparent; fill: transparent; size: 4px; stroke-width: 1; stroke-linecap: round; stroke-linejoin: round;"></line><text dx="0" dy="11.969999999999999" x="81.26626071884692" y="286"><tspan x="81.26626071884692" dx="0" text-anchor="middle" style="fill: rgb(153, 153, 153); font-size: 14px; font-family: inherit; stroke: transparent; letter-spacing: normal; padding: 8px; stroke-width: 0;">2017</tspan></text></g><g role="presentation"><line x1="193.74299854041232" x2="193.74299854041232" y1="274" y2="34" role="presentation" shape-rendering="auto" vector-effect="non-scaling-stroke" style="stroke: transparent; fill: transparent; stroke-width: 1; stroke-linecap: round; stroke-linejoin: round; pointer-events: none;"></line><line x1="193.74299854041232" x2="193.74299854041232" y1="274" y2="278" role="presentation" shape-rendering="auto" vector-effect="non-scaling-stroke" style="stroke: transparent; fill: transparent; size: 4px; stroke-width: 1; stroke-linecap: round; stroke-linejoin: round;"></line><text dx="0" dy="11.969999999999999" x="193.74299854041232" y="286"><tspan x="193.74299854041232" dx="0" text-anchor="middle" style="fill: rgb(153, 153, 153); font-size: 14px; font-family: inherit; stroke: transparent; letter-spacing: normal; padding: 8px; stroke-width: 0;">2018</tspan></text></g><g role="presentation"><line x1="306.2197363619777" x2="306.2197363619777" y1="274" y2="34" role="presentation" shape-rendering="auto" vector-effect="non-scaling-stroke" style="stroke: transparent; fill: transparent; stroke-width: 1; stroke-linecap: round; stroke-linejoin: round; pointer-events: none;"></line><line x1="306.2197363619777" x2="306.2197363619777" y1="274" y2="278" role="presentation" shape-rendering="auto" vector-effect="non-scaling-stroke" style="stroke: transparent; fill: transparent; size: 4px; stroke-width: 1; stroke-linecap: round; stroke-linejoin: round;"></line><text dx="0" dy="11.969999999999999" x="306.2197363619777" y="286"><tspan x="306.2197363619777" dx="0" text-anchor="middle" style="fill: rgb(153, 153, 153); font-size: 14px; font-family: inherit; stroke: transparent; letter-spacing: normal; padding: 8px; stroke-width: 0;">2019</tspan></text></g><g role="presentation"><line x1="418.69647418354316" x2="418.69647418354316" y1="274" y2="34" role="presentation" shape-rendering="auto" vector-effect="non-scaling-stroke" style="stroke: transparent; fill: transparent; stroke-width: 1; stroke-linecap: round; stroke-linejoin: round; pointer-events: none;"></line><line x1="418.69647418354316" x2="418.69647418354316" y1="274" y2="278" role="presentation" shape-rendering="auto" vector-effect="non-scaling-stroke" style="stroke: transparent; fill: transparent; size: 4px; stroke-width: 1; stroke-linecap: round; stroke-linejoin: round;"></line><text dx="0" dy="11.969999999999999" x="418.69647418354316" y="286"><tspan x="418.69647418354316" dx="0" text-anchor="middle" style="fill: rgb(153, 153, 153); font-size: 14px; font-family: inherit; stroke: transparent; letter-spacing: normal; padding: 8px; stroke-width: 0;">2020</tspan></text></g><g role="presentation"><line x1="531.4813674511951" x2="531.4813674511951" y1="274" y2="34" role="presentation" shape-rendering="auto" vector-effect="non-scaling-stroke" style="stroke: transparent; fill: transparent; stroke-width: 1; stroke-linecap: round; stroke-linejoin: round; pointer-events: none;"></line><line x1="531.4813674511951" x2="531.4813674511951" y1="274" y2="278" role="presentation" shape-rendering="auto" vector-effect="non-scaling-stroke" style="stroke: transparent; fill: transparent; size: 4px; stroke-width: 1; stroke-linecap: round; stroke-linejoin: round;"></line><text dx="0" dy="11.969999999999999" x="531.4813674511951" y="286"><tspan x="531.4813674511951" dx="0" text-anchor="middle" style="fill: rgb(153, 153, 153); font-size: 14px; font-family: inherit; stroke: transparent; letter-spacing: normal; padding: 8px; stroke-width: 0;">2021</tspan></text></g></g><g role="presentation"><line x1="578" x2="578" y1="34" y2="274" role="presentation" shape-rendering="auto" vector-effect="non-scaling-stroke" style="stroke: transparent; fill: transparent; stroke-width: 1; stroke-linejoin: round;"></line><g role="presentation"><line x1="578" x2="15" y1="274" y2="274" role="presentation" shape-rendering="auto" vector-effect="non-scaling-stroke" style="stroke: rgb(226, 226, 226); fill: transparent; stroke-width: 1; stroke-linecap: round; stroke-linejoin: round; pointer-events: none;"></line><line x1="578" x2="582" y1="274" y2="274" role="presentation" shape-rendering="auto" vector-effect="non-scaling-stroke" style="stroke: transparent; fill: transparent; size: 4px; stroke-width: 1; stroke-linecap: round; stroke-linejoin: round;"></line><text dx="0" dy="4.97" x="590" y="274"><tspan x="590" dx="0" text-anchor="start" style="fill: rgb(153, 153, 153); font-size: 14px; font-family: inherit; stroke: transparent; letter-spacing: normal; padding: 8px; stroke-width: 0;">$100K</tspan></text></g><g role="presentation"><line x1="578" x2="15" y1="214" y2="214" role="presentation" shape-rendering="auto" vector-effect="non-scaling-stroke" style="stroke: rgb(226, 226, 226); fill: transparent; stroke-width: 1; stroke-linecap: round; stroke-linejoin: round; pointer-events: none;"></line><line x1="578" x2="582" y1="214" y2="214" role="presentation" shape-rendering="auto" vector-effect="non-scaling-stroke" style="stroke: transparent; fill: transparent; size: 4px; stroke-width: 1; stroke-linecap: round; stroke-linejoin: round;"></line><text dx="0" dy="4.97" x="590" y="214"><tspan x="590" dx="0" text-anchor="start" style="fill: rgb(153, 153, 153); font-size: 14px; font-family: inherit; stroke: transparent; letter-spacing: normal; padding: 8px; stroke-width: 0;">$200K</tspan></text></g><g role="presentation"><line x1="578" x2="15" y1="154" y2="154" role="presentation" shape-rendering="auto" vector-effect="non-scaling-stroke" style="stroke: rgb(226, 226, 226); fill: transparent; stroke-width: 1; stroke-linecap: round; stroke-linejoin: round; pointer-events: none;"></line><line x1="578" x2="582" y1="154" y2="154" role="presentation" shape-rendering="auto" vector-effect="non-scaling-stroke" style="stroke: transparent; fill: transparent; size: 4px; stroke-width: 1; stroke-linecap: round; stroke-linejoin: round;"></line><text dx="0" dy="4.97" x="590" y="154"><tspan x="590" dx="0" text-anchor="start" style="fill: rgb(153, 153, 153); font-size: 14px; font-family: inherit; stroke: transparent; letter-spacing: normal; padding: 8px; stroke-width: 0;">$300K</tspan></text></g><g role="presentation"><line x1="578" x2="15" y1="94" y2="94" role="presentation" shape-rendering="auto" vector-effect="non-scaling-stroke" style="stroke: rgb(226, 226, 226); fill: transparent; stroke-width: 1; stroke-linecap: round; stroke-linejoin: round; pointer-events: none;"></line><line x1="578" x2="582" y1="94" y2="94" role="presentation" shape-rendering="auto" vector-effect="non-scaling-stroke" style="stroke: transparent; fill: transparent; size: 4px; stroke-width: 1; stroke-linecap: round; stroke-linejoin: round;"></line><text dx="0" dy="4.97" x="590" y="94"><tspan x="590" dx="0" text-anchor="start" style="fill: rgb(153, 153, 153); font-size: 14px; font-family: inherit; stroke: transparent; letter-spacing: normal; padding: 8px; stroke-width: 0;">$400K</tspan></text></g><g role="presentation"><line x1="578" x2="15" y1="34" y2="34" role="presentation" shape-rendering="auto" vector-effect="non-scaling-stroke" style="stroke: rgb(226, 226, 226); fill: transparent; stroke-width: 1; stroke-linecap: round; stroke-linejoin: round; pointer-events: none;"></line><line x1="578" x2="582" y1="34" y2="34" role="presentation" shape-rendering="auto" vector-effect="non-scaling-stroke" style="stroke: transparent; fill: transparent; size: 4px; stroke-width: 1; stroke-linecap: round; stroke-linejoin: round;"></line><text dx="0" dy="4.97" x="590" y="34"><tspan x="590" dx="0" text-anchor="start" style="fill: rgb(153, 153, 153); font-size: 14px; font-family: inherit; stroke: transparent; letter-spacing: normal; padding: 8px; stroke-width: 0;">$500K</tspan></text></g></g><g style="height: 100%; width: 100%; user-select: none;"><defs><clipPath id="victory-clip-5"><rect x="15" y="34" width="563" height="240"></rect></clipPath></defs><g clip-path="url(#victory-clip-5)"><path shape-rendering="auto" role="presentation" d="M15.30815544608648,173.8C18.389709906951285,174.8,21.471264367816094,175.8,24.5528188286809,179.8C27.73709177157453,183.93333333333334,30.921364714468165,204.76,34.1056376573618,215.47C37.28991060025543,226.18,40.47418354314906,244.06,43.658456486042695,244.06C46.7400109469075,244.06,49.821565407772304,128.2,52.90311986863711,128.2C56.08739281153075,128.2,59.271665754424376,202.75715672676836,62.45593869731801,212.23C65.54177309493402,221.41,68.62760749255003,219.85348247642116,71.71344189016602,226C74.89771483305965,232.34259228507997,78.0819877759533,250,81.26626071884692,250C84.45053366174056,250,87.63480660463419,202.60000000000002,90.81907954752783,202.60000000000002C93.69519704433499,202.60000000000002,96.57131454114213,205.9,99.44743203794928,205.9C102.62742504409171,205.9,105.80741805023415,203.61,108.98741105637657,199.03C112.06896551724138,194.59177658142664,115.15051997810617,170.5,118.23207443897098,170.5C121.41634738186463,170.5,124.60062032475825,188.2,127.7848932676519,188.2C130.8664477285167,188.2,133.9480021893815,167.8,137.02955665024632,167.8C140.21382959313993,167.8,143.39810253603358,184.05,146.5823754789272,187.03C149.76664842182083,190.01,152.95092136471445,188.52,156.1351943076081,191.5C159.2167487684729,194.38387096774193,162.2983032293377,209.92098360655737,165.37985769020253,216.52C168.56413063309614,223.33898360655735,171.74840357598978,231.4,174.9326765188834,231.4C178.0185109164994,231.4,181.10434531411542,152.8,184.19017971173142,152.8C187.37445265462506,152.8,190.55872559751867,229,193.74299854041232,229C196.92727148330596,229,200.1115444261996,208.94430992736076,203.29581736909324,200.2C206.1719348659004,192.30191361399673,209.04805236270755,178.6,211.9241698595147,178.6C215.10416286565712,178.6,218.28415587179956,180.79999999999998,221.46414887794197,185.2C224.5457033388068,189.46379542395695,227.62725779967158,255.91,230.7088122605364,255.91C233.89308520343002,255.91,237.07735814632366,219.28980464480873,240.26163108921727,208C243.3431855500821,197.07438260179794,246.4247400109469,196.90295610787942,249.5062944718117,188.3725C252.69056741470536,179.55769535519124,255.874840357599,155.56,259.05911330049264,155.56C262.2433862433863,155.56,265.42765918627987,201.7,268.6119321291735,201.7C271.69348659003833,201.7,274.7750410509031,185.2,277.8565955117679,185.2C281.04086845466156,185.2,284.22514139755515,241.15,287.4094143404488,241.15C290.4952487380648,241.15,293.58108313568084,193,296.66691753329684,193C299.8511904761905,193,303.03546341908407,237.4,306.2197363619777,237.4C309.40400930487135,237.4,312.588282247765,185.5,315.77255519065864,185.5C318.6486726874658,185.5,321.52479018427294,187.74582977043693,324.4009076810801,189.55C327.58090068722254,191.54478940560324,330.76089369336495,194.05834244702666,333.94088669950736,197.2C337.0224411603722,200.2444057040926,340.10399562123695,208,343.18555008210177,208C346.3698230249954,208,349.55409596788905,169,352.7383689107827,169C355.8199233716475,169,358.9014778325123,184.72924378635642,361.9830322933771,190C365.16730523627075,195.4464480874317,368.35157817916433,196.29500000000002,371.535851122058,200.8C374.7201240649516,205.305,377.90439700784526,213.2665573770492,381.0886699507389,217.03C384.1702244116037,220.6720412480169,387.2517788724685,223.32999999999998,390.3333333333333,223.32999999999998C393.51760627622696,223.32999999999998,396.7018792191206,215.80604629444315,399.88615216201424,210.7C402.97198655963024,205.7518019108958,406.0578209572463,204.1932457204852,409.1436553548623,193.33089999999999C412.32792829775593,182.12204394446468,415.5122012406495,143.5,418.69647418354316,143.5C421.8807471264368,143.5,425.0650200693304,214,428.24929301222403,214C431.22812899106003,214,434.206964969896,132.7,437.185800948732,132.7C440.3657939548744,132.7,443.54578696101686,190.60000000000002,446.72577996715927,190.60000000000002C449.8073344280241,190.60000000000002,452.8888888888889,178,455.97044334975374,178C459.1547162926473,178,462.33898923554096,184,465.52326217843455,184C468.6048166392994,184,471.6863711001642,161.5,474.767925561029,161.5C477.95219850392266,161.5,481.1364714468163,184,484.32074438970994,184C487.50501733260353,184,490.68929027549717,177.00054644808742,493.87356321839076,175C496.9551176792556,173.06398730830244,500.0366721401204,173.65044949762031,503.1182266009852,172C506.3024995438788,170.29453551912567,509.48677248677245,164.8,512.671045429666,164.8C515.7568798272821,164.8,518.8427142248981,228.51129032258058,521.9285486225142,232C525.1128215654078,235.6,528.2970945083015,237.4,531.4813674511951,237.4C534.6656403940887,237.4,537.8499133369824,207.57797088377725,541.0341862798759,188.8C543.9103037766831,171.8392521049754,546.7864212734902,147.86221961106963,549.6625387702974,131.6083C552.8425317764398,113.63707638240366,556.0225247825822,88,559.2025177887247,88C562.2840722495895,88,565.3656267104543,119.84209413008986,568.4471811713191,131.35C571.6314541142127,143.24150273224035,574.8157270571064,150.4207513661202,578,157.60000000000002" style="fill: transparent; stroke: rgb(51, 51, 51); stroke-width: 2; opacity: 1;"></path></g></g></svg>