<svg xmlns="http://www.w3.org/2000/svg" width="640" height="324" role="img" aria-labelledby="victory-container-4-title victory-container-4-desc" viewBox="0 0 640 324" style="pointer-events: all; width: 100%; height: 100%;"><g role="presentation"><line x1="15" x2="578" y1="274" y2="274" role="presentation" shape-rendering="auto" vector-effect="non-scaling-stroke" style="stroke: rgb(226, 226, 226); fill: transparent; stroke-width: 1; stroke-linejoin: round;"></line><g role="presentation"><line x1="81.26626071884692" x2="81.26626071884692" y1="274" y2="34" role="presentation" shape-rendering="auto" vector-effect="non-scaling-stroke" style="stroke: transparent; fill: transparent; stroke-width: 1; stroke-linecap: round; stroke-linejoin: round; pointer-events: none;"></line><line x1="81.26626071884692" x2="81.26626071884692" y1="274" y2="278" role="presentation" shape-rendering="auto" vector-effect="non-scaling-stroke" style="stroke: transparent; fill: transparent; size: 4px; stroke-width: 1; stroke-linecap: round; stroke-linejoin: round;"></line><text dx="0" dy="11.969999999999999" x="81.26626071884692" y="286"><tspan x="81.26626071884692" dx="0" text-anchor="middle" style="fill: rgb(153, 153, 153); font-size: 14px; font-family: inherit; stroke: transparent; letter-spacing: normal; padding: 8px; stroke-width: 0;">2017</tspan></text></g><g role="presentation"><line x1="193.74299854041232" x2="193.74299854041232" y1="274" y2="34" role="presentation" shape-rendering="auto" vector-effect="non-scaling-stroke" style="stroke: transparent; fill: transparent; stroke-width: 1; stroke-linecap: round; stroke-linejoin: round; pointer-events: none;"></line><line x1="193.74299854041232" x2="193.74299854041232" y1="274" y2="278" role="presentation" shape-rendering="auto" vector-effect="non-scaling-stroke" style="stroke: transparent; fill: transparent; size: 4px; stroke-width: 1; stroke-linecap: round; stroke-linejoin: round;"></line><text dx="0" dy="11.969999999999999" x="193.74299854041232" y="286"><tspan x="193.74299854041232" dx="0" text-anchor="middle" style="fill: rgb(153, 153, 153); font-size: 14px; font-family: inherit; stroke: transparent; letter-spacing: normal; padding: 8px; stroke-width: 0;">2018</tspan></text></g><g role="presentation"><line x1="306.2197363619777" x2="306.2197363619777" y1="274" y2="34" role="presentation" shape-rendering="auto" vector-effect="non-scaling-stroke" style="stroke: transparent; fill: transparent; stroke-width: 1; stroke-linecap: round; stroke-linejoin: round; pointer-events: none;"></line><line x1="306.2197363619777" x2="306.2197363619777" y1="274" y2="278" role="presentation" shape-rendering="auto" vector-effect="non-scaling-stroke" style="stroke: transparent; fill: transparent; size: 4px; stroke-width: 1; stroke-linecap: round; stroke-linejoin: round;"></line><text dx="0" dy="11.969999999999999" x="306.2197363619777" y="286"><tspan x="306.2197363619777" dx="0" text-anchor="middle" style="fill: rgb(153, 153, 153); font-size: 14px; font-family: inherit; stroke: transparent; letter-spacing: normal; padding: 8px; stroke-width: 0;">2019</tspan></text></g><g role="presentation"><line x1="418.69647418354316" x2="418.69647418354316" y1="274" y2="34" role="presentation" shape-rendering="auto" vector-effect="non-scaling-stroke" style="stroke: transparent; fill: transparent; stroke-width: 1; stroke-linecap: round; stroke-linejoin: round; pointer-events: none;"></line><line x1="418.69647418354316" x2="418.69647418354316" y1="274" y2="278" role="presentation" shape-rendering="auto" vector-effect="non-scaling-stroke" style="stroke: transparent; fill: transparent; size: 4px; stroke-width: 1; stroke-linecap: round; stroke-linejoin: round;"></line><text dx="0" dy="11.969999999999999" x="418.69647418354316" y="286"><tspan x="418.69647418354316" dx="0" text-anchor="middle" style="fill: rgb(153, 153, 153); font-size: 14px; font-family: inherit; stroke: transparent; letter-spacing: normal; padding: 8px; stroke-width: 0;">2020</tspan></text></g><g role="presentation"><line x1="531.4813674511951" x2="531.4813674511951" y1="274" y2="34" role="presentation" shape-rendering="auto" vector-effect="non-scaling-stroke" style="stroke: transparent; fill: transparent; stroke-width: 1; stroke-linecap: round; stroke-linejoin: round; pointer-events: none;"></line><line x1="531.4813674511951" x2="531.4813674511951" y1="274" y2="278" role="presentation" shape-rendering="auto" vector-effect="non-scaling-stroke" style="stroke: transparent; fill: transparent; size: 4px; stroke-width: 1; stroke-linecap: round; stroke-linejoin: round;"></line><text dx="0" dy="11.969999999999999" x="531.4813674511951" y="286"><tspan x="531.4813674511951" dx="0" text-anchor="middle" style="fill: rgb(153, 153, 153); font-size: 14px; font-family: inherit; stroke: transparent; letter-spacing: normal; padding: 8px; stroke-width: 0;">2021</tspan></text></g></g><g role="presentation"><line x1="578" x2="578" y1="34" y2="274" role="presentation" shape-rendering="auto" vector-effect="non-scaling-stroke" style="stroke: transparent; fill: transparent; stroke-width: 1; stroke-linejoin: round;"></line><g role="presentation"><line x1="578" x2="15" y1="274" y2="274" role="presentation" shape-rendering="auto" vector-effect="non-scaling-stroke" style="stroke: rgb(226, 226, 226); fill: transparent; stroke-width: 1; stroke-linecap: round; stroke-linejoin: round; pointer-events: none;"></line><line x1="578" x2="582" y1="274" y2="274" role="presentation" shape-rendering="auto" vector-effect="non-scaling-stroke" style="stroke: transparent; fill: transparent; size: 4px; stroke-width: 1; stroke-linecap: round; stroke-linejoin: round;"></line><text dx="0" dy="4.97" x="590" y="274"><tspan x="590" dx="0" text-anchor="start" style="fill: rgb(153, 153, 153); font-size: 14px; font-family: inherit; stroke: transparent; letter-spacing: normal; padding: 8px; stroke-width: 0;">$100K</tspan></text></g><g role="presentation"><line x1="578" x2="15" y1="234" y2="234" role="presentation" shape-rendering="auto" vector-effect="non-scaling-stroke" style="stroke: rgb(226, 226, 226); fill: transparent; stroke-width: 1; stroke-linecap: round; stroke-linejoin: round; pointer-events: none;"></line><line x1="578" x2="582" y1="234" y2="234" role="presentation" shape-rendering="auto" vector-effect="non-scaling-stroke" style="stroke: transparent; fill: transparent; size: 4px; stroke-width: 1; stroke-linecap: round; stroke-linejoin: round;"></line><text dx="0" dy="4.97" x="590" y="234"><tspan x="590" dx="0" text-anchor="start" style="fill: rgb(153, 153, 153); font-size: 14px; font-family: inherit; stroke: transparent; letter-spacing: normal; padding: 8px; stroke-width: 0;">$150K</tspan></text></g><g role="presentation"><line x1="578" x2="15" y1="194" y2="194" role="presentation" shape-rendering="auto" vector-effect="non-scaling-stroke" style="stroke: rgb(226, 226, 226); fill: transparent; stroke-width: 1; stroke-linecap: round; stroke-linejoin: round; pointer-events: none;"></line><line x1="578" x2="582" y1="194" y2="194" role="presentation" shape-rendering="auto" vector-effect="non-scaling-stroke" style="stroke: transparent; fill: transparent; size: 4px; stroke-width: 1; stroke-linecap: round; stroke-linejoin: round;"></line><text dx="0" dy="4.97" x="590" y="194"><tspan x="590" dx="0" text-anchor="start" style="fill: rgb(153, 153, 153); font-size: 14px; font-family: inherit; stroke: transparent; letter-spacing: normal; padding: 8px; stroke-width: 0;">$200K</tspan></text></g><g role="presentation"><line x1="578" x2="15" y1="154" y2="154" role="presentation" shape-rendering="auto" vector-effect="non-scaling-stroke" style="stroke: rgb(226, 226, 226); fill: transparent; stroke-width: 1; stroke-linecap: round; stroke-linejoin: round; pointer-events: none;"></line><line x1="578" x2="582" y1="154" y2="154" role="presentation" shape-rendering="auto" vector-effect="non-scaling-stroke" style="stroke: transparent; fill: transparent; size: 4px; stroke-width: 1; stroke-linecap: round; stroke-linejoin: round;"></line><text dx="0" dy="4.97" x="590" y="154"><tspan x="590" dx="0" text-anchor="start" style="fill: rgb(153, 153, 153); font-size: 14px; font-family: inherit; stroke: transparent; letter-spacing: normal; padding: 8px; stroke-width: 0;">$250K</tspan></text></g><g role="presentation"><line x1="578" x2="15" y1="114" y2="114" role="presentation" shape-rendering="auto" vector-effect="non-scaling-stroke" style="stroke: rgb(226, 226, 226); fill: transparent; stroke-width: 1; stroke-linecap: round; stroke-linejoin: round; pointer-events: none;"></line><line x1="578" x2="582" y1="114" y2="114" role="presentation" shape-rendering="auto" vector-effect="non-scaling-stroke" style="stroke: transparent; fill: transparent; size: 4px; stroke-width: 1; stroke-linecap: round; stroke-linejoin: round;"></line><text dx="0" dy="4.97" x="590" y="114"><tspan x="590" dx="0" text-anchor="start" style="fill: rgb(153, 153, 153); font-size: 14px; font-family: inherit; stroke: transparent; letter-spacing: normal; padding: 8px; stroke-width: 0;">$300K</tspan></text></g><g role="presentation"><line x1="578" x2="15" y1="74" y2="74" role="presentation" shape-rendering="auto" vector-effect="non-scaling-stroke" style="stroke: rgb(226, 226, 226); fill: transparent; stroke-width: 1; stroke-linecap: round; stroke-linejoin: round; pointer-events: none;"></line><line x1="578" x2="582" y1="74" y2="74" role="presentation" shape-rendering="auto" vector-effect="non-scaling-stroke" style="stroke: transparent; fill: transparent; size: 4px; stroke-width: 1; stroke-linecap: round; stroke-linejoin: round;"></line><text dx="0" dy="4.97" x="590" y="74"><tspan x="590" dx="0" text-anchor="start" style="fill: rgb(153, 153, 153); font-size: 14px; font-family: inherit; stroke: transparent; letter-spacing: normal; padding: 8px; stroke-width: 0;">$350K</tspan></text></g><g role="presentation"><line x1="578" x2="15" y1="34" y2="34" role="presentation" shape-rendering="auto" vector-effect="non-scaling-stroke" style="stroke: rgb(226, 226, 226); fill: transparent; stroke-width: 1; stroke-linecap: round; stroke-linejoin: round; pointer-events: none;"></line><line x1="578" x2="582" y1="34" y2="34" role="presentation" shape-rendering="auto" vector-effect="non-scaling-stroke" style="stroke: transparent; fill: transparent; size: 4px; stroke-width: 1; stroke-linecap: round; stroke-linejoin: round;"></line><text dx="0" dy="4.97" x="590" y="34"><tspan x="590" dx="0" text-anchor="start" style="fill: rgb(153, 153, 153); font-size: 14px; font-family: inherit; stroke: transparent; letter-spacing: normal; padding: 8px; stroke-width: 0;">$400K</tspan></text></g></g><g style="height: 100%; width: 100%; user-select: none;"><defs><clipPath id="victory-clip-5"><rect x="15" y="34" width="563" height="240"></rect></clipPath></defs><g clip-path="url(#victory-clip-5)"><path shape-rendering="auto" role="presentation" d="M15.30815544608648,169C18.389709906951285,173.41713379164463,21.471264367816094,177.83426758328923,24.5528188286809,180.39999999999998C27.73709177157453,183.05125683060106,30.921364714468165,184.39999999999998,34.1056376573618,184.39999999999998C37.28991060025543,184.39999999999998,40.47418354314906,182.392,43.658456486042695,182.392C46.7400109469075,182.392,49.821565407772304,193.6,52.90311986863711,193.6C56.08739281153075,193.6,59.271665754424376,172,62.45593869731801,172C65.54177309493402,172,68.62760749255003,178,71.71344189016602,178C74.89771483305965,178,78.0819877759533,161.56400000000002,81.26626071884692,161.56400000000002C84.45053366174056,161.56400000000002,87.63480660463419,185.798,90.81907954752783,185.798C93.69519704433499,185.798,96.57131454114213,179.1295233001536,99.44743203794928,176C102.62742504409171,172.53982766069325,105.80741805023415,168.29630813776868,108.98741105637657,166.12C112.06896551724138,164.01106075478677,115.15051997810617,164.13548387096773,118.23207443897098,162.94C121.41634738186463,161.70466666666667,124.60062032475825,158.8,127.7848932676519,158.8C130.8664477285167,158.8,133.9480021893815,196.4,137.02955665024632,196.4C140.21382959313993,196.4,143.39810253603358,178.54533333333336,146.5823754789272,172.11200000000002C149.76664842182083,165.6786666666667,152.95092136471445,157.8,156.1351943076081,157.8C159.2167487684729,157.8,162.2983032293377,163.28,165.37985769020253,163.28C168.56413063309614,163.28,171.74840357598978,159.58674772713286,174.9326765188834,158.02159999999998C178.0185109164994,156.5048372160446,181.10434531411542,154,184.19017971173142,154C187.37445265462506,154,190.55872559751867,162.33333333333334,193.74299854041232,166C196.92727148330596,169.66666666666669,200.1115444261996,176,203.29581736909324,176C206.1719348659004,176,209.04805236270755,163.66707940780623,211.9241698595147,163.04000000000002C215.10416286565712,162.34666666666666,218.28415587179956,162.5199975949976,221.46414887794197,162C224.5457033388068,161.4960992349956,227.62725779967158,161.33333333333334,230.7088122605364,160C233.89308520343002,158.62222222222223,237.07735814632366,142.8,240.26163108921727,142.8C243.3431855500821,142.8,246.4247400109469,172.44,249.5062944718117,172.44C252.69056741470536,172.44,255.874840357599,154,259.05911330049264,154C262.2433862433863,154,265.42765918627987,160.76,268.6119321291735,162C271.69348659003833,163.20000000000002,274.7750410509031,163.8,277.8565955117679,163.8C281.04086845466156,163.8,284.22514139755515,163.20000000000002,287.4094143404488,162C290.4952487380648,160.83709677419353,293.58108313568084,148.40800000000002,296.66691753329684,148.40800000000002C299.8511904761905,148.40800000000002,303.03546341908407,169.6,306.2197363619777,169.6C309.40400930487135,169.6,312.588282247765,156.62476190476193,315.77255519065864,155.68C318.6486726874658,154.82666666666665,321.52479018427294,155.25333333333333,324.4009076810801,154.39999999999998C327.58090068722254,153.4565079365079,330.76089369336495,146.04399999999998,333.94088669950736,146.04399999999998C337.0224411603722,146.04399999999998,340.10399562123695,163.802,343.18555008210177,163.802C346.3698230249954,163.802,349.55409596788905,140.202,352.7383689107827,140.202C355.8199233716475,140.202,358.9014778325123,153.71586849991186,361.9830322933771,158C365.16730523627075,162.4269358834244,368.35157817916433,166,371.535851122058,166C374.7201240649516,166,377.90439700784526,166,381.0886699507389,166C384.1702244116037,166,387.2517788724685,156.9912,390.3333333333333,156.9912C393.51760627622696,156.9912,396.7018792191206,157.2,399.88615216201424,157.2C402.97198655963024,157.2,406.0578209572463,144.4712,409.1436553548623,144.4712C412.32792829775593,144.4712,415.5122012406495,158,418.69647418354316,158C421.8807471264368,158,425.0650200693304,154.808,428.24929301222403,154.808C431.22812899106003,154.808,434.206964969896,156.204,437.185800948732,156.204C440.3657939548744,156.204,443.54578696101686,138.79999999999998,446.72577996715927,138.79999999999998C449.8073344280241,138.79999999999998,452.8888888888889,153.04399999999998,455.97044334975374,153.04399999999998C459.1547162926473,153.04399999999998,462.33898923554096,150.72661012750453,465.52326217843455,149.8096C468.6048166392994,148.92217084435043,471.6863711001642,147.60000000000002,474.767925561029,147.60000000000002C477.95219850392266,147.60000000000002,481.1364714468163,157.20800000000003,484.32074438970994,157.20800000000003C487.50501733260353,157.20800000000003,490.68929027549717,149.1676531147541,493.87356321839076,146C496.9551176792556,142.93452924378633,500.0366721401204,140.38098445267053,503.1182266009852,138.4004C506.3024995438788,136.3537960655738,509.48677248677245,134.0308,512.671045429666,134.0308C515.7568798272821,134.0308,518.8427142248981,137.84383512544798,521.9285486225142,138.79999999999998C525.1128215654078,139.78666666666666,528.2970945083015,140.28,531.4813674511951,140.28C534.6656403940887,140.28,537.8499133369824,122.20519999999999,541.0341862798759,122.20519999999999C543.9103037766831,122.20519999999999,546.7864212734902,138.6892,549.6625387702974,138.6892C552.8425317764398,138.6892,556.0225247825822,124.85716851598693,559.2025177887247,118.80000000000001C562.2840722495895,112.93033468168156,565.3656267104543,102.804,568.4471811713191,102.804C571.6314541142127,102.804,574.8157270571064,108.406,578,114.00800000000001" style="fill: transparent; stroke: rgb(51, 51, 51); stroke-width: 2; opacity: 1;"></path></g></g></svg>