<svg xmlns="http://www.w3.org/2000/svg" width="640" height="324" role="img" aria-labelledby="victory-container-4-title victory-container-4-desc" viewBox="0 0 640 324" style="pointer-events: all; width: 100%; height: 100%;"><g role="presentation"><line x1="15" x2="578" y1="274" y2="274" role="presentation" shape-rendering="auto" vector-effect="non-scaling-stroke" style="stroke: rgb(226, 226, 226); fill: transparent; stroke-width: 1; stroke-linejoin: round;"></line><g role="presentation"><line x1="81.26626071884692" x2="81.26626071884692" y1="274" y2="34" role="presentation" shape-rendering="auto" vector-effect="non-scaling-stroke" style="stroke: transparent; fill: transparent; stroke-width: 1; stroke-linecap: round; stroke-linejoin: round; pointer-events: none;"></line><line x1="81.26626071884692" x2="81.26626071884692" y1="274" y2="278" role="presentation" shape-rendering="auto" vector-effect="non-scaling-stroke" style="stroke: transparent; fill: transparent; size: 4px; stroke-width: 1; stroke-linecap: round; stroke-linejoin: round;"></line><text dx="0" dy="11.969999999999999" x="81.26626071884692" y="286"><tspan x="81.26626071884692" dx="0" text-anchor="middle" style="fill: rgb(153, 153, 153); font-size: 14px; font-family: inherit; stroke: transparent; letter-spacing: normal; padding: 8px; stroke-width: 0;">2017</tspan></text></g><g role="presentation"><line x1="193.74299854041232" x2="193.74299854041232" y1="274" y2="34" role="presentation" shape-rendering="auto" vector-effect="non-scaling-stroke" style="stroke: transparent; fill: transparent; stroke-width: 1; stroke-linecap: round; stroke-linejoin: round; pointer-events: none;"></line><line x1="193.74299854041232" x2="193.74299854041232" y1="274" y2="278" role="presentation" shape-rendering="auto" vector-effect="non-scaling-stroke" style="stroke: transparent; fill: transparent; size: 4px; stroke-width: 1; stroke-linecap: round; stroke-linejoin: round;"></line><text dx="0" dy="11.969999999999999" x="193.74299854041232" y="286"><tspan x="193.74299854041232" dx="0" text-anchor="middle" style="fill: rgb(153, 153, 153); font-size: 14px; font-family: inherit; stroke: transparent; letter-spacing: normal; padding: 8px; stroke-width: 0;">2018</tspan></text></g><g role="presentation"><line x1="306.2197363619777" x2="306.2197363619777" y1="274" y2="34" role="presentation" shape-rendering="auto" vector-effect="non-scaling-stroke" style="stroke: transparent; fill: transparent; stroke-width: 1; stroke-linecap: round; stroke-linejoin: round; pointer-events: none;"></line><line x1="306.2197363619777" x2="306.2197363619777" y1="274" y2="278" role="presentation" shape-rendering="auto" vector-effect="non-scaling-stroke" style="stroke: transparent; fill: transparent; size: 4px; stroke-width: 1; stroke-linecap: round; stroke-linejoin: round;"></line><text dx="0" dy="11.969999999999999" x="306.2197363619777" y="286"><tspan x="306.2197363619777" dx="0" text-anchor="middle" style="fill: rgb(153, 153, 153); font-size: 14px; font-family: inherit; stroke: transparent; letter-spacing: normal; padding: 8px; stroke-width: 0;">2019</tspan></text></g><g role="presentation"><line x1="418.69647418354316" x2="418.69647418354316" y1="274" y2="34" role="presentation" shape-rendering="auto" vector-effect="non-scaling-stroke" style="stroke: transparent; fill: transparent; stroke-width: 1; stroke-linecap: round; stroke-linejoin: round; pointer-events: none;"></line><line x1="418.69647418354316" x2="418.69647418354316" y1="274" y2="278" role="presentation" shape-rendering="auto" vector-effect="non-scaling-stroke" style="stroke: transparent; fill: transparent; size: 4px; stroke-width: 1; stroke-linecap: round; stroke-linejoin: round;"></line><text dx="0" dy="11.969999999999999" x="418.69647418354316" y="286"><tspan x="418.69647418354316" dx="0" text-anchor="middle" style="fill: rgb(153, 153, 153); font-size: 14px; font-family: inherit; stroke: transparent; letter-spacing: normal; padding: 8px; stroke-width: 0;">2020</tspan></text></g><g role="presentation"><line x1="531.4813674511951" x2="531.4813674511951" y1="274" y2="34" role="presentation" shape-rendering="auto" vector-effect="non-scaling-stroke" style="stroke: transparent; fill: transparent; stroke-width: 1; stroke-linecap: round; stroke-linejoin: round; pointer-events: none;"></line><line x1="531.4813674511951" x2="531.4813674511951" y1="274" y2="278" role="presentation" shape-rendering="auto" vector-effect="non-scaling-stroke" style="stroke: transparent; fill: transparent; size: 4px; stroke-width: 1; stroke-linecap: round; stroke-linejoin: round;"></line><text dx="0" dy="11.969999999999999" x="531.4813674511951" y="286"><tspan x="531.4813674511951" dx="0" text-anchor="middle" style="fill: rgb(153, 153, 153); font-size: 14px; font-family: inherit; stroke: transparent; letter-spacing: normal; padding: 8px; stroke-width: 0;">2021</tspan></text></g></g><g role="presentation"><line x1="578" x2="578" y1="34" y2="274" role="presentation" shape-rendering="auto" vector-effect="non-scaling-stroke" style="stroke: transparent; fill: transparent; stroke-width: 1; stroke-linejoin: round;"></line><g role="presentation"><line x1="578" x2="15" y1="274" y2="274" role="presentation" shape-rendering="auto" vector-effect="non-scaling-stroke" style="stroke: rgb(226, 226, 226); fill: transparent; stroke-width: 1; stroke-linecap: round; stroke-linejoin: round; pointer-events: none;"></line><line x1="578" x2="582" y1="274" y2="274" role="presentation" shape-rendering="auto" vector-effect="non-scaling-stroke" style="stroke: transparent; fill: transparent; size: 4px; stroke-width: 1; stroke-linecap: round; stroke-linejoin: round;"></line><text dx="0" dy="4.97" x="590" y="274"><tspan x="590" dx="0" text-anchor="start" style="fill: rgb(153, 153, 153); font-size: 14px; font-family: inherit; stroke: transparent; letter-spacing: normal; padding: 8px; stroke-width: 0;">$200K</tspan></text></g><g role="presentation"><line x1="578" x2="15" y1="234" y2="234" role="presentation" shape-rendering="auto" vector-effect="non-scaling-stroke" style="stroke: rgb(226, 226, 226); fill: transparent; stroke-width: 1; stroke-linecap: round; stroke-linejoin: round; pointer-events: none;"></line><line x1="578" x2="582" y1="234" y2="234" role="presentation" shape-rendering="auto" vector-effect="non-scaling-stroke" style="stroke: transparent; fill: transparent; size: 4px; stroke-width: 1; stroke-linecap: round; stroke-linejoin: round;"></line><text dx="0" dy="4.97" x="590" y="234"><tspan x="590" dx="0" text-anchor="start" style="fill: rgb(153, 153, 153); font-size: 14px; font-family: inherit; stroke: transparent; letter-spacing: normal; padding: 8px; stroke-width: 0;">$250K</tspan></text></g><g role="presentation"><line x1="578" x2="15" y1="194" y2="194" role="presentation" shape-rendering="auto" vector-effect="non-scaling-stroke" style="stroke: rgb(226, 226, 226); fill: transparent; stroke-width: 1; stroke-linecap: round; stroke-linejoin: round; pointer-events: none;"></line><line x1="578" x2="582" y1="194" y2="194" role="presentation" shape-rendering="auto" vector-effect="non-scaling-stroke" style="stroke: transparent; fill: transparent; size: 4px; stroke-width: 1; stroke-linecap: round; stroke-linejoin: round;"></line><text dx="0" dy="4.97" x="590" y="194"><tspan x="590" dx="0" text-anchor="start" style="fill: rgb(153, 153, 153); font-size: 14px; font-family: inherit; stroke: transparent; letter-spacing: normal; padding: 8px; stroke-width: 0;">$300K</tspan></text></g><g role="presentation"><line x1="578" x2="15" y1="154" y2="154" role="presentation" shape-rendering="auto" vector-effect="non-scaling-stroke" style="stroke: rgb(226, 226, 226); fill: transparent; stroke-width: 1; stroke-linecap: round; stroke-linejoin: round; pointer-events: none;"></line><line x1="578" x2="582" y1="154" y2="154" role="presentation" shape-rendering="auto" vector-effect="non-scaling-stroke" style="stroke: transparent; fill: transparent; size: 4px; stroke-width: 1; stroke-linecap: round; stroke-linejoin: round;"></line><text dx="0" dy="4.97" x="590" y="154"><tspan x="590" dx="0" text-anchor="start" style="fill: rgb(153, 153, 153); font-size: 14px; font-family: inherit; stroke: transparent; letter-spacing: normal; padding: 8px; stroke-width: 0;">$350K</tspan></text></g><g role="presentation"><line x1="578" x2="15" y1="114" y2="114" role="presentation" shape-rendering="auto" vector-effect="non-scaling-stroke" style="stroke: rgb(226, 226, 226); fill: transparent; stroke-width: 1; stroke-linecap: round; stroke-linejoin: round; pointer-events: none;"></line><line x1="578" x2="582" y1="114" y2="114" role="presentation" shape-rendering="auto" vector-effect="non-scaling-stroke" style="stroke: transparent; fill: transparent; size: 4px; stroke-width: 1; stroke-linecap: round; stroke-linejoin: round;"></line><text dx="0" dy="4.97" x="590" y="114"><tspan x="590" dx="0" text-anchor="start" style="fill: rgb(153, 153, 153); font-size: 14px; font-family: inherit; stroke: transparent; letter-spacing: normal; padding: 8px; stroke-width: 0;">$400K</tspan></text></g><g role="presentation"><line x1="578" x2="15" y1="74" y2="74" role="presentation" shape-rendering="auto" vector-effect="non-scaling-stroke" style="stroke: rgb(226, 226, 226); fill: transparent; stroke-width: 1; stroke-linecap: round; stroke-linejoin: round; pointer-events: none;"></line><line x1="578" x2="582" y1="74" y2="74" role="presentation" shape-rendering="auto" vector-effect="non-scaling-stroke" style="stroke: transparent; fill: transparent; size: 4px; stroke-width: 1; stroke-linecap: round; stroke-linejoin: round;"></line><text dx="0" dy="4.97" x="590" y="74"><tspan x="590" dx="0" text-anchor="start" style="fill: rgb(153, 153, 153); font-size: 14px; font-family: inherit; stroke: transparent; letter-spacing: normal; padding: 8px; stroke-width: 0;">$450K</tspan></text></g><g role="presentation"><line x1="578" x2="15" y1="34" y2="34" role="presentation" shape-rendering="auto" vector-effect="non-scaling-stroke" style="stroke: rgb(226, 226, 226); fill: transparent; stroke-width: 1; stroke-linecap: round; stroke-linejoin: round; pointer-events: none;"></line><line x1="578" x2="582" y1="34" y2="34" role="presentation" shape-rendering="auto" vector-effect="non-scaling-stroke" style="stroke: transparent; fill: transparent; size: 4px; stroke-width: 1; stroke-linecap: round; stroke-linejoin: round;"></line><text dx="0" dy="4.97" x="590" y="34"><tspan x="590" dx="0" text-anchor="start" style="fill: rgb(153, 153, 153); font-size: 14px; font-family: inherit; stroke: transparent; letter-spacing: normal; padding: 8px; stroke-width: 0;">$500K</tspan></text></g></g><g style="height: 100%; width: 100%; user-select: none;"><defs><clipPath id="victory-clip-5"><rect x="15" y="34" width="563" height="240"></rect></clipPath></defs><g clip-path="url(#victory-clip-5)"><path shape-rendering="auto" role="presentation" d="M15.30815544608648,137C18.389709906951285,117,21.471264367816094,97,24.5528188286809,97C27.73709177157453,97,30.921364714468165,117.48333333333333,34.1056376573618,130C37.28991060025543,142.51666666666668,40.47418354314906,172.10000000000002,43.658456486042695,172.10000000000002C46.7400109469075,172.10000000000002,49.821565407772304,130,52.90311986863711,130C56.08739281153075,130,59.271665754424376,160.4,62.45593869731801,160.4C65.54177309493402,160.4,68.62760749255003,146.32932340024712,71.71344189016602,140.4C74.89771483305965,134.28153036091007,78.0819877759533,124.4,81.26626071884692,124.4C84.45053366174056,124.4,87.63480660463419,142,90.81907954752783,142C93.69519704433499,142,96.57131454114213,134.8,99.44743203794928,134.8C102.62742504409171,134.8,105.80741805023415,146.8,108.98741105637657,146.8C112.06896551724138,146.8,115.15051997810617,138.94699806099067,118.23207443897098,132.96C121.41634738186463,126.77343533697632,124.60062032475825,116.21457194899818,127.7848932676519,110C130.8664477285167,103.98589811387274,133.9480021893815,96,137.02955665024632,96C140.21382959313993,96,143.39810253603358,166.8,146.5823754789272,166.8C149.76664842182083,166.8,152.95092136471445,148.48,156.1351943076081,146C159.2167487684729,143.6,162.2983032293377,144.72321523003703,165.37985769020253,142.4C168.56413063309614,139.9993442622951,171.74840357598978,131.6,174.9326765188834,131.6C178.0185109164994,131.6,181.10434531411542,143.15567763954638,184.19017971173142,152.39999999999998C187.37445265462506,161.93921752590492,190.55872559751867,188.39999999999998,193.74299854041232,188.39999999999998C196.92727148330596,188.39999999999998,200.1115444261996,170.83002421307506,203.29581736909324,162C206.1719348659004,154.02449425915802,209.04805236270755,138.7235531628533,211.9241698595147,138C215.10416286565712,137.20000000000002,218.28415587179956,137.6,221.46414887794197,136.8C224.5457033388068,136.02476446837147,227.62725779967158,129.85043257535696,230.7088122605364,126.792C233.89308520343002,123.63161967213115,237.07735814632366,123.34329617486335,240.26163108921727,118.19999999999999C243.3431855500821,113.22261660497091,246.4247400109469,96.864,249.5062944718117,96.864C252.69056741470536,96.864,255.874840357599,126.87733333333331,259.05911330049264,136.2C262.2433862433863,145.5226666666666,265.42765918627987,151.97333333333336,268.6119321291735,152.8C271.69348659003833,153.6,274.7750410509031,153.20000000000002,277.8565955117679,154C281.04086845466156,154.82666666666665,284.22514139755515,175.8,287.4094143404488,175.8C290.4952487380648,175.8,293.58108313568084,150,296.66691753329684,150C299.8511904761905,150,303.03546341908407,196,306.2197363619777,196C309.40400930487135,196,312.588282247765,192.6668,315.77255519065864,186.0004C318.6486726874658,179.97913548387098,321.52479018427294,156,324.4009076810801,156C327.58090068722254,156,330.76089369336495,159.8,333.94088669950736,159.8C337.0224411603722,159.8,340.10399562123695,108.6,343.18555008210177,108.6C346.3698230249954,108.6,349.55409596788905,119.24444444444444,352.7383689107827,122C355.8199233716475,124.66666666666667,358.9014778325123,123.33333333333333,361.9830322933771,126C365.16730523627075,128.75555555555556,368.35157817916433,163.8666666666667,371.535851122058,170C374.7201240649516,176.13333333333333,377.90439700784526,179.2,381.0886699507389,179.2C384.1702244116037,179.2,387.2517788724685,153.2,390.3333333333333,153.2C393.51760627622696,153.2,396.7018792191206,170.8,399.88615216201424,170.8C402.97198655963024,170.8,406.0578209572463,156.75053763440857,409.1436553548623,155.2C412.32792829775593,153.6,415.5122012406495,152.8,418.69647418354316,152.8C421.8807471264368,152.8,425.0650200693304,153.6152030651341,428.24929301222403,154C431.22812899106003,154.35997132616487,434.206964969896,155.04000000000002,437.185800948732,155.04000000000002C440.3657939548744,155.04000000000002,443.54578696101686,122.07999999999998,446.72577996715927,122.07999999999998C449.8073344280241,122.07999999999998,452.8888888888889,125.12733298078618,455.97044334975374,127.04000000000002C459.1547162926473,129.01642258652097,462.33898923554096,133.8,465.52326217843455,133.8C468.6048166392994,133.8,471.6863711001642,121.19999999999999,474.767925561029,121.19999999999999C477.95219850392266,121.19999999999999,481.1364714468163,139.59999999999994,484.32074438970994,143.6C487.50501733260353,147.60000000000002,490.68929027549717,149.60000000000002,493.87356321839076,149.60000000000002C496.9551176792556,149.60000000000002,500.0366721401204,134,503.1182266009852,134C506.3024995438788,134,509.48677248677245,143.6,512.671045429666,143.6C515.7568798272821,143.6,518.8427142248981,96.80000000000001,521.9285486225142,96.80000000000001C525.1128215654078,96.80000000000001,528.2970945083015,97.2,531.4813674511951,98C534.6656403940887,98.8,537.8499133369824,118,541.0341862798759,118C543.9103037766831,118,546.7864212734902,93.84710632570656,549.6625387702974,92.39999999999998C552.8425317764398,90.8,556.0225247825822,90.74310080757449,559.2025177887247,90C562.2840722495895,89.279902312983,565.3656267104543,89.33333333333333,568.4471811713191,88C571.6314541142127,86.62222222222223,574.8157270571064,75.51111111111112,578,64.4" style="fill: transparent; stroke: rgb(51, 51, 51); stroke-width: 2; opacity: 1;"></path></g></g></svg>