<svg xmlns="http://www.w3.org/2000/svg" width="640" height="324" role="img" aria-labelledby="victory-container-4-title victory-container-4-desc" viewBox="0 0 640 324" style="pointer-events: all; width: 100%; height: 100%;"><g role="presentation"><line x1="15" x2="578" y1="274" y2="274" role="presentation" shape-rendering="auto" vector-effect="non-scaling-stroke" style="stroke: rgb(226, 226, 226); fill: transparent; stroke-width: 1; stroke-linejoin: round;"></line><g role="presentation"><line x1="81.26626071884692" x2="81.26626071884692" y1="274" y2="34" role="presentation" shape-rendering="auto" vector-effect="non-scaling-stroke" style="stroke: transparent; fill: transparent; stroke-width: 1; stroke-linecap: round; stroke-linejoin: round; pointer-events: none;"></line><line x1="81.26626071884692" x2="81.26626071884692" y1="274" y2="278" role="presentation" shape-rendering="auto" vector-effect="non-scaling-stroke" style="stroke: transparent; fill: transparent; size: 4px; stroke-width: 1; stroke-linecap: round; stroke-linejoin: round;"></line><text dx="0" dy="11.969999999999999" x="81.26626071884692" y="286"><tspan x="81.26626071884692" dx="0" text-anchor="middle" style="fill: rgb(153, 153, 153); font-size: 14px; font-family: inherit; stroke: transparent; letter-spacing: normal; padding: 8px; stroke-width: 0;">2017</tspan></text></g><g role="presentation"><line x1="193.74299854041232" x2="193.74299854041232" y1="274" y2="34" role="presentation" shape-rendering="auto" vector-effect="non-scaling-stroke" style="stroke: transparent; fill: transparent; stroke-width: 1; stroke-linecap: round; stroke-linejoin: round; pointer-events: none;"></line><line x1="193.74299854041232" x2="193.74299854041232" y1="274" y2="278" role="presentation" shape-rendering="auto" vector-effect="non-scaling-stroke" style="stroke: transparent; fill: transparent; size: 4px; stroke-width: 1; stroke-linecap: round; stroke-linejoin: round;"></line><text dx="0" dy="11.969999999999999" x="193.74299854041232" y="286"><tspan x="193.74299854041232" dx="0" text-anchor="middle" style="fill: rgb(153, 153, 153); font-size: 14px; font-family: inherit; stroke: transparent; letter-spacing: normal; padding: 8px; stroke-width: 0;">2018</tspan></text></g><g role="presentation"><line x1="306.2197363619777" x2="306.2197363619777" y1="274" y2="34" role="presentation" shape-rendering="auto" vector-effect="non-scaling-stroke" style="stroke: transparent; fill: transparent; stroke-width: 1; stroke-linecap: round; stroke-linejoin: round; pointer-events: none;"></line><line x1="306.2197363619777" x2="306.2197363619777" y1="274" y2="278" role="presentation" shape-rendering="auto" vector-effect="non-scaling-stroke" style="stroke: transparent; fill: transparent; size: 4px; stroke-width: 1; stroke-linecap: round; stroke-linejoin: round;"></line><text dx="0" dy="11.969999999999999" x="306.2197363619777" y="286"><tspan x="306.2197363619777" dx="0" text-anchor="middle" style="fill: rgb(153, 153, 153); font-size: 14px; font-family: inherit; stroke: transparent; letter-spacing: normal; padding: 8px; stroke-width: 0;">2019</tspan></text></g><g role="presentation"><line x1="418.69647418354316" x2="418.69647418354316" y1="274" y2="34" role="presentation" shape-rendering="auto" vector-effect="non-scaling-stroke" style="stroke: transparent; fill: transparent; stroke-width: 1; stroke-linecap: round; stroke-linejoin: round; pointer-events: none;"></line><line x1="418.69647418354316" x2="418.69647418354316" y1="274" y2="278" role="presentation" shape-rendering="auto" vector-effect="non-scaling-stroke" style="stroke: transparent; fill: transparent; size: 4px; stroke-width: 1; stroke-linecap: round; stroke-linejoin: round;"></line><text dx="0" dy="11.969999999999999" x="418.69647418354316" y="286"><tspan x="418.69647418354316" dx="0" text-anchor="middle" style="fill: rgb(153, 153, 153); font-size: 14px; font-family: inherit; stroke: transparent; letter-spacing: normal; padding: 8px; stroke-width: 0;">2020</tspan></text></g><g role="presentation"><line x1="531.4813674511951" x2="531.4813674511951" y1="274" y2="34" role="presentation" shape-rendering="auto" vector-effect="non-scaling-stroke" style="stroke: transparent; fill: transparent; stroke-width: 1; stroke-linecap: round; stroke-linejoin: round; pointer-events: none;"></line><line x1="531.4813674511951" x2="531.4813674511951" y1="274" y2="278" role="presentation" shape-rendering="auto" vector-effect="non-scaling-stroke" style="stroke: transparent; fill: transparent; size: 4px; stroke-width: 1; stroke-linecap: round; stroke-linejoin: round;"></line><text dx="0" dy="11.969999999999999" x="531.4813674511951" y="286"><tspan x="531.4813674511951" dx="0" text-anchor="middle" style="fill: rgb(153, 153, 153); font-size: 14px; font-family: inherit; stroke: transparent; letter-spacing: normal; padding: 8px; stroke-width: 0;">2021</tspan></text></g></g><g role="presentation"><line x1="578" x2="578" y1="34" y2="274" role="presentation" shape-rendering="auto" vector-effect="non-scaling-stroke" style="stroke: transparent; fill: transparent; stroke-width: 1; stroke-linejoin: round;"></line><g role="presentation"><line x1="578" x2="15" y1="274" y2="274" role="presentation" shape-rendering="auto" vector-effect="non-scaling-stroke" style="stroke: rgb(226, 226, 226); fill: transparent; stroke-width: 1; stroke-linecap: round; stroke-linejoin: round; pointer-events: none;"></line><line x1="578" x2="582" y1="274" y2="274" role="presentation" shape-rendering="auto" vector-effect="non-scaling-stroke" style="stroke: transparent; fill: transparent; size: 4px; stroke-width: 1; stroke-linecap: round; stroke-linejoin: round;"></line><text dx="0" dy="4.97" x="590" y="274"><tspan x="590" dx="0" text-anchor="start" style="fill: rgb(153, 153, 153); font-size: 14px; font-family: inherit; stroke: transparent; letter-spacing: normal; padding: 8px; stroke-width: 0;">$100K</tspan></text></g><g role="presentation"><line x1="578" x2="15" y1="214" y2="214" role="presentation" shape-rendering="auto" vector-effect="non-scaling-stroke" style="stroke: rgb(226, 226, 226); fill: transparent; stroke-width: 1; stroke-linecap: round; stroke-linejoin: round; pointer-events: none;"></line><line x1="578" x2="582" y1="214" y2="214" role="presentation" shape-rendering="auto" vector-effect="non-scaling-stroke" style="stroke: transparent; fill: transparent; size: 4px; stroke-width: 1; stroke-linecap: round; stroke-linejoin: round;"></line><text dx="0" dy="4.97" x="590" y="214"><tspan x="590" dx="0" text-anchor="start" style="fill: rgb(153, 153, 153); font-size: 14px; font-family: inherit; stroke: transparent; letter-spacing: normal; padding: 8px; stroke-width: 0;">$150K</tspan></text></g><g role="presentation"><line x1="578" x2="15" y1="154" y2="154" role="presentation" shape-rendering="auto" vector-effect="non-scaling-stroke" style="stroke: rgb(226, 226, 226); fill: transparent; stroke-width: 1; stroke-linecap: round; stroke-linejoin: round; pointer-events: none;"></line><line x1="578" x2="582" y1="154" y2="154" role="presentation" shape-rendering="auto" vector-effect="non-scaling-stroke" style="stroke: transparent; fill: transparent; size: 4px; stroke-width: 1; stroke-linecap: round; stroke-linejoin: round;"></line><text dx="0" dy="4.97" x="590" y="154"><tspan x="590" dx="0" text-anchor="start" style="fill: rgb(153, 153, 153); font-size: 14px; font-family: inherit; stroke: transparent; letter-spacing: normal; padding: 8px; stroke-width: 0;">$200K</tspan></text></g><g role="presentation"><line x1="578" x2="15" y1="94" y2="94" role="presentation" shape-rendering="auto" vector-effect="non-scaling-stroke" style="stroke: rgb(226, 226, 226); fill: transparent; stroke-width: 1; stroke-linecap: round; stroke-linejoin: round; pointer-events: none;"></line><line x1="578" x2="582" y1="94" y2="94" role="presentation" shape-rendering="auto" vector-effect="non-scaling-stroke" style="stroke: transparent; fill: transparent; size: 4px; stroke-width: 1; stroke-linecap: round; stroke-linejoin: round;"></line><text dx="0" dy="4.97" x="590" y="94"><tspan x="590" dx="0" text-anchor="start" style="fill: rgb(153, 153, 153); font-size: 14px; font-family: inherit; stroke: transparent; letter-spacing: normal; padding: 8px; stroke-width: 0;">$250K</tspan></text></g><g role="presentation"><line x1="578" x2="15" y1="34" y2="34" role="presentation" shape-rendering="auto" vector-effect="non-scaling-stroke" style="stroke: rgb(226, 226, 226); fill: transparent; stroke-width: 1; stroke-linecap: round; stroke-linejoin: round; pointer-events: none;"></line><line x1="578" x2="582" y1="34" y2="34" role="presentation" shape-rendering="auto" vector-effect="non-scaling-stroke" style="stroke: transparent; fill: transparent; size: 4px; stroke-width: 1; stroke-linecap: round; stroke-linejoin: round;"></line><text dx="0" dy="4.97" x="590" y="34"><tspan x="590" dx="0" text-anchor="start" style="fill: rgb(153, 153, 153); font-size: 14px; font-family: inherit; stroke: transparent; letter-spacing: normal; padding: 8px; stroke-width: 0;">$300K</tspan></text></g></g><g style="height: 100%; width: 100%; user-select: none;"><defs><clipPath id="victory-clip-5"><rect x="15" y="34" width="563" height="240"></rect></clipPath></defs><g clip-path="url(#victory-clip-5)"><path shape-rendering="auto" role="presentation" d="M15.30815544608648,171.5362C18.389709906951285,173.56810000000002,21.471264367816094,175.60000000000002,24.5528188286809,175.60000000000002C27.73709177157453,175.60000000000002,30.921364714468165,166.04299999999998,34.1056376573618,162.39999999999998C37.28991060025543,158.75699999999998,40.47418354314906,153.742,43.658456486042695,153.742C46.7400109469075,153.742,49.821565407772304,175.12,52.90311986863711,175.12C56.08739281153075,175.12,59.271665754424376,169.006,62.45593869731801,169.006C65.54177309493402,169.006,68.62760749255003,175.1098,71.71344189016602,175.1098C74.89771483305965,175.1098,78.0819877759533,174.0732,81.26626071884692,172C84.45053366174056,169.9268,87.63480660463419,158.47685714285717,90.81907954752783,157.60000000000002C93.69519704433499,156.80800000000002,96.57131454114213,156.412,99.44743203794928,156.412C102.62742504409171,156.412,105.80741805023415,182.56,108.98741105637657,182.56C112.06896551724138,182.56,115.15051997810617,151.6,118.23207443897098,151.6C121.41634738186463,151.6,124.60062032475825,154.23927475409837,127.7848932676519,155.20600000000002C130.8664477285167,156.14154056055,133.9480021893815,157.35160000000002,137.02955665024632,157.35160000000002C140.21382959313993,157.35160000000002,143.39810253603358,130,146.5823754789272,130C149.76664842182083,130,152.95092136471445,146.82186010928962,156.1351943076081,154.012C159.2167487684729,160.97019989423586,162.2983032293377,169.7625806451613,165.37985769020253,172.60000000000002C168.56413063309614,175.532,171.74840357598978,176.998,174.9326765188834,176.998C178.0185109164994,176.998,181.10434531411542,157.738,184.19017971173142,157.738C187.37445265462506,157.738,190.55872559751867,168.09,193.74299854041232,168.214C196.92727148330596,168.338,200.1115444261996,168.4,203.29581736909324,168.4C206.1719348659004,168.4,209.04805236270755,160,211.9241698595147,160C215.10416286565712,160,218.28415587179956,160,221.46414887794197,160C224.5457033388068,160,227.62725779967158,166.66000000000003,230.7088122605364,166.66000000000003C233.89308520343002,166.66000000000003,237.07735814632366,146.05,240.26163108921727,146.05C243.3431855500821,146.05,246.4247400109469,163.6,249.5062944718117,163.6C252.69056741470536,163.6,255.874840357599,152.20000000000002,259.05911330049264,152.20000000000002C262.2433862433863,152.20000000000002,265.42765918627987,165.72920000000005,268.6119321291735,167.8C271.69348659003833,169.804,274.7750410509031,170.80599999999998,277.8565955117679,170.80599999999998C281.04086845466156,170.80599999999998,284.22514139755515,127.66,287.4094143404488,127.66C290.4952487380648,127.66,293.58108313568084,154,296.66691753329684,154C299.8511904761905,154,303.03546341908407,151.612,306.2197363619777,151.612C309.40400930487135,151.612,312.588282247765,181,315.77255519065864,181C318.6486726874658,181,321.52479018427294,138.96699999999998,324.4009076810801,138.96699999999998C327.58090068722254,138.96699999999998,330.76089369336495,155.0332,333.94088669950736,155.0332C337.0224411603722,155.0332,340.10399562123695,146.34488016922262,343.18555008210177,143.2C346.3698230249954,139.95029049180326,349.55409596788905,136.012,352.7383689107827,136.012C355.8199233716475,136.012,358.9014778325123,136.371,361.9830322933771,137.089C365.16730523627075,137.83093333333332,368.35157817916433,163.48,371.535851122058,163.48C374.7201240649516,163.48,377.90439700784526,156.0962513661202,381.0886699507389,151.42C384.1702244116037,146.89459545214171,387.2517788724685,136,390.3333333333333,136C393.51760627622696,136,396.7018792191206,160,399.88615216201424,160C402.97198655963024,160,406.0578209572463,118.7098,409.1436553548623,118.7098C412.32792829775593,118.7098,415.5122012406495,123.6163,418.69647418354316,125.5C421.8807471264368,127.3837,425.0650200693304,127.004,428.24929301222403,130.012C431.22812899106003,132.82593548387098,434.206964969896,167.2,437.185800948732,167.2C440.3657939548744,167.2,443.54578696101686,159.60666860522517,446.72577996715927,153.466C449.8073344280241,147.51541938659201,452.8888888888889,131.21200000000002,455.97044334975374,131.21200000000002C459.1547162926473,131.21200000000002,462.33898923554096,137.20000000000002,465.52326217843455,137.20000000000002C468.6048166392994,137.20000000000002,471.6863711001642,112,474.767925561029,112C477.95219850392266,112,481.1364714468163,129.4324,484.32074438970994,129.4324C487.50501733260353,129.4324,490.68929027549717,98.80000000000001,493.87356321839076,98.80000000000001C496.9551176792556,98.80000000000001,500.0366721401204,139.042,503.1182266009852,139.042C506.3024995438788,139.042,509.48677248677245,126.4,512.671045429666,126.4C515.7568798272821,126.4,518.8427142248981,130,521.9285486225142,130C525.1128215654078,130,528.2970945083015,130,531.4813674511951,130C534.6656403940887,130,537.8499133369824,120.66464891041161,541.0341862798759,112C543.9103037766831,104.17386550027337,546.7864212734902,88.48556877523552,549.6625387702974,82C552.8425317764398,74.8292,556.0225247825822,71.2438,559.2025177887247,71.2438C562.2840722495895,71.2438,565.3656267104543,82,568.4471811713191,82C571.6314541142127,82,574.8157270571064,79.9153,578,77.8306" style="fill: transparent; stroke: rgb(51, 51, 51); stroke-width: 2; opacity: 1;"></path></g></g></svg>