<svg xmlns="http://www.w3.org/2000/svg" width="640" height="324" role="img" aria-labelledby="victory-container-4-title victory-container-4-desc" viewBox="0 0 640 324" style="pointer-events: all; width: 100%; height: 100%;"><g role="presentation"><line x1="15" x2="578" y1="274" y2="274" role="presentation" shape-rendering="auto" vector-effect="non-scaling-stroke" style="stroke: rgb(226, 226, 226); fill: transparent; stroke-width: 1; stroke-linejoin: round;"></line><g role="presentation"><line x1="81.26626071884692" x2="81.26626071884692" y1="274" y2="34" role="presentation" shape-rendering="auto" vector-effect="non-scaling-stroke" style="stroke: transparent; fill: transparent; stroke-width: 1; stroke-linecap: round; stroke-linejoin: round; pointer-events: none;"></line><line x1="81.26626071884692" x2="81.26626071884692" y1="274" y2="278" role="presentation" shape-rendering="auto" vector-effect="non-scaling-stroke" style="stroke: transparent; fill: transparent; size: 4px; stroke-width: 1; stroke-linecap: round; stroke-linejoin: round;"></line><text dx="0" dy="11.969999999999999" x="81.26626071884692" y="286"><tspan x="81.26626071884692" dx="0" text-anchor="middle" style="fill: rgb(153, 153, 153); font-size: 14px; font-family: inherit; stroke: transparent; letter-spacing: normal; padding: 8px; stroke-width: 0;">2017</tspan></text></g><g role="presentation"><line x1="193.74299854041232" x2="193.74299854041232" y1="274" y2="34" role="presentation" shape-rendering="auto" vector-effect="non-scaling-stroke" style="stroke: transparent; fill: transparent; stroke-width: 1; stroke-linecap: round; stroke-linejoin: round; pointer-events: none;"></line><line x1="193.74299854041232" x2="193.74299854041232" y1="274" y2="278" role="presentation" shape-rendering="auto" vector-effect="non-scaling-stroke" style="stroke: transparent; fill: transparent; size: 4px; stroke-width: 1; stroke-linecap: round; stroke-linejoin: round;"></line><text dx="0" dy="11.969999999999999" x="193.74299854041232" y="286"><tspan x="193.74299854041232" dx="0" text-anchor="middle" style="fill: rgb(153, 153, 153); font-size: 14px; font-family: inherit; stroke: transparent; letter-spacing: normal; padding: 8px; stroke-width: 0;">2018</tspan></text></g><g role="presentation"><line x1="306.2197363619777" x2="306.2197363619777" y1="274" y2="34" role="presentation" shape-rendering="auto" vector-effect="non-scaling-stroke" style="stroke: transparent; fill: transparent; stroke-width: 1; stroke-linecap: round; stroke-linejoin: round; pointer-events: none;"></line><line x1="306.2197363619777" x2="306.2197363619777" y1="274" y2="278" role="presentation" shape-rendering="auto" vector-effect="non-scaling-stroke" style="stroke: transparent; fill: transparent; size: 4px; stroke-width: 1; stroke-linecap: round; stroke-linejoin: round;"></line><text dx="0" dy="11.969999999999999" x="306.2197363619777" y="286"><tspan x="306.2197363619777" dx="0" text-anchor="middle" style="fill: rgb(153, 153, 153); font-size: 14px; font-family: inherit; stroke: transparent; letter-spacing: normal; padding: 8px; stroke-width: 0;">2019</tspan></text></g><g role="presentation"><line x1="418.69647418354316" x2="418.69647418354316" y1="274" y2="34" role="presentation" shape-rendering="auto" vector-effect="non-scaling-stroke" style="stroke: transparent; fill: transparent; stroke-width: 1; stroke-linecap: round; stroke-linejoin: round; pointer-events: none;"></line><line x1="418.69647418354316" x2="418.69647418354316" y1="274" y2="278" role="presentation" shape-rendering="auto" vector-effect="non-scaling-stroke" style="stroke: transparent; fill: transparent; size: 4px; stroke-width: 1; stroke-linecap: round; stroke-linejoin: round;"></line><text dx="0" dy="11.969999999999999" x="418.69647418354316" y="286"><tspan x="418.69647418354316" dx="0" text-anchor="middle" style="fill: rgb(153, 153, 153); font-size: 14px; font-family: inherit; stroke: transparent; letter-spacing: normal; padding: 8px; stroke-width: 0;">2020</tspan></text></g><g role="presentation"><line x1="531.4813674511951" x2="531.4813674511951" y1="274" y2="34" role="presentation" shape-rendering="auto" vector-effect="non-scaling-stroke" style="stroke: transparent; fill: transparent; stroke-width: 1; stroke-linecap: round; stroke-linejoin: round; pointer-events: none;"></line><line x1="531.4813674511951" x2="531.4813674511951" y1="274" y2="278" role="presentation" shape-rendering="auto" vector-effect="non-scaling-stroke" style="stroke: transparent; fill: transparent; size: 4px; stroke-width: 1; stroke-linecap: round; stroke-linejoin: round;"></line><text dx="0" dy="11.969999999999999" x="531.4813674511951" y="286"><tspan x="531.4813674511951" dx="0" text-anchor="middle" style="fill: rgb(153, 153, 153); font-size: 14px; font-family: inherit; stroke: transparent; letter-spacing: normal; padding: 8px; stroke-width: 0;">2021</tspan></text></g></g><g role="presentation"><line x1="578" x2="578" y1="34" y2="274" role="presentation" shape-rendering="auto" vector-effect="non-scaling-stroke" style="stroke: transparent; fill: transparent; stroke-width: 1; stroke-linejoin: round;"></line><g role="presentation"><line x1="578" x2="15" y1="274" y2="274" role="presentation" shape-rendering="auto" vector-effect="non-scaling-stroke" style="stroke: rgb(226, 226, 226); fill: transparent; stroke-width: 1; stroke-linecap: round; stroke-linejoin: round; pointer-events: none;"></line><line x1="578" x2="582" y1="274" y2="274" role="presentation" shape-rendering="auto" vector-effect="non-scaling-stroke" style="stroke: transparent; fill: transparent; size: 4px; stroke-width: 1; stroke-linecap: round; stroke-linejoin: round;"></line><text dx="0" dy="4.97" x="590" y="274"><tspan x="590" dx="0" text-anchor="start" style="fill: rgb(153, 153, 153); font-size: 14px; font-family: inherit; stroke: transparent; letter-spacing: normal; padding: 8px; stroke-width: 0;">$200K</tspan></text></g><g role="presentation"><line x1="578" x2="15" y1="214" y2="214" role="presentation" shape-rendering="auto" vector-effect="non-scaling-stroke" style="stroke: rgb(226, 226, 226); fill: transparent; stroke-width: 1; stroke-linecap: round; stroke-linejoin: round; pointer-events: none;"></line><line x1="578" x2="582" y1="214" y2="214" role="presentation" shape-rendering="auto" vector-effect="non-scaling-stroke" style="stroke: transparent; fill: transparent; size: 4px; stroke-width: 1; stroke-linecap: round; stroke-linejoin: round;"></line><text dx="0" dy="4.97" x="590" y="214"><tspan x="590" dx="0" text-anchor="start" style="fill: rgb(153, 153, 153); font-size: 14px; font-family: inherit; stroke: transparent; letter-spacing: normal; padding: 8px; stroke-width: 0;">$250K</tspan></text></g><g role="presentation"><line x1="578" x2="15" y1="154" y2="154" role="presentation" shape-rendering="auto" vector-effect="non-scaling-stroke" style="stroke: rgb(226, 226, 226); fill: transparent; stroke-width: 1; stroke-linecap: round; stroke-linejoin: round; pointer-events: none;"></line><line x1="578" x2="582" y1="154" y2="154" role="presentation" shape-rendering="auto" vector-effect="non-scaling-stroke" style="stroke: transparent; fill: transparent; size: 4px; stroke-width: 1; stroke-linecap: round; stroke-linejoin: round;"></line><text dx="0" dy="4.97" x="590" y="154"><tspan x="590" dx="0" text-anchor="start" style="fill: rgb(153, 153, 153); font-size: 14px; font-family: inherit; stroke: transparent; letter-spacing: normal; padding: 8px; stroke-width: 0;">$300K</tspan></text></g><g role="presentation"><line x1="578" x2="15" y1="94" y2="94" role="presentation" shape-rendering="auto" vector-effect="non-scaling-stroke" style="stroke: rgb(226, 226, 226); fill: transparent; stroke-width: 1; stroke-linecap: round; stroke-linejoin: round; pointer-events: none;"></line><line x1="578" x2="582" y1="94" y2="94" role="presentation" shape-rendering="auto" vector-effect="non-scaling-stroke" style="stroke: transparent; fill: transparent; size: 4px; stroke-width: 1; stroke-linecap: round; stroke-linejoin: round;"></line><text dx="0" dy="4.97" x="590" y="94"><tspan x="590" dx="0" text-anchor="start" style="fill: rgb(153, 153, 153); font-size: 14px; font-family: inherit; stroke: transparent; letter-spacing: normal; padding: 8px; stroke-width: 0;">$350K</tspan></text></g><g role="presentation"><line x1="578" x2="15" y1="34" y2="34" role="presentation" shape-rendering="auto" vector-effect="non-scaling-stroke" style="stroke: rgb(226, 226, 226); fill: transparent; stroke-width: 1; stroke-linecap: round; stroke-linejoin: round; pointer-events: none;"></line><line x1="578" x2="582" y1="34" y2="34" role="presentation" shape-rendering="auto" vector-effect="non-scaling-stroke" style="stroke: transparent; fill: transparent; size: 4px; stroke-width: 1; stroke-linecap: round; stroke-linejoin: round;"></line><text dx="0" dy="4.97" x="590" y="34"><tspan x="590" dx="0" text-anchor="start" style="fill: rgb(153, 153, 153); font-size: 14px; font-family: inherit; stroke: transparent; letter-spacing: normal; padding: 8px; stroke-width: 0;">$400K</tspan></text></g></g><g style="height: 100%; width: 100%; user-select: none;"><defs><clipPath id="victory-clip-5"><rect x="15" y="34" width="563" height="240"></rect></clipPath></defs><g clip-path="url(#victory-clip-5)"><path shape-rendering="auto" role="presentation" d="M15.30815544608648,140.56C18.389709906951285,137.08,21.471264367816094,133.60000000000002,24.5528188286809,133.60000000000002C27.73709177157453,133.60000000000002,30.921364714468165,156.4,34.1056376573618,156.4C37.28991060025543,156.4,40.47418354314906,156.4,43.658456486042695,156.4C46.7400109469075,156.4,49.821565407772304,178,52.90311986863711,178C56.08739281153075,178,59.271665754424376,94,62.45593869731801,94C65.54177309493402,94,68.62760749255003,166,71.71344189016602,166C74.89771483305965,166,78.0819877759533,77.20000000000002,81.26626071884692,77.20000000000002C84.45053366174056,77.20000000000002,87.63480660463419,166,90.81907954752783,166C93.69519704433499,166,96.57131454114213,85,99.44743203794928,85C102.62742504409171,85,105.80741805023415,118.14806846662108,108.98741105637657,131.79999999999998C112.06896551724138,145.02932800004413,115.15051997810617,166,118.23207443897098,166C121.41634738186463,166,124.60062032475825,97.6,127.7848932676519,97.6C130.8664477285167,97.6,133.9480021893815,166,137.02955665024632,166C140.21382959313993,166,143.39810253603358,116.20000000000002,146.5823754789272,116.20000000000002C149.76664842182083,116.20000000000002,152.95092136471445,166,156.1351943076081,166C159.2167487684729,166,162.2983032293377,141.45129561078795,165.37985769020253,130.6C168.56413063309614,119.38699453551915,171.74840357598978,100,174.9326765188834,100C178.0185109164994,100,181.10434531411542,116.4407856710338,184.19017971173142,126.25C187.37445265462506,136.37212962656153,190.55872559751867,160,193.74299854041232,160C196.92727148330596,160,200.1115444261996,122.77142857142856,203.29581736909324,121C206.1719348659004,119.40000000000002,209.04805236270755,118.60000000000002,211.9241698595147,118.60000000000002C215.10416286565712,118.60000000000002,218.28415587179956,124,221.46414887794197,124C224.5457033388068,124,227.62725779967158,112,230.7088122605364,112C233.89308520343002,112,237.07735814632366,133.29999999999998,240.26163108921727,133.29999999999998C243.3431855500821,133.29999999999998,246.4247400109469,133,249.5062944718117,132.4C252.69056741470536,131.78000000000003,255.874840357599,48.400000000000006,259.05911330049264,48.400000000000006C262.2433862433863,48.400000000000006,265.42765918627987,136,268.6119321291735,136C271.69348659003833,136,274.7750410509031,94,277.8565955117679,94C281.04086845466156,94,284.22514139755515,118.85369485877126,287.4094143404488,130C290.4952487380648,140.80172850379833,293.58108313568084,160,296.66691753329684,160C299.8511904761905,160,303.03546341908407,120.4,306.2197363619777,120.4C309.40400930487135,120.4,312.588282247765,128.8,315.77255519065864,128.8C318.6486726874658,128.8,321.52479018427294,58,324.4009076810801,58C327.58090068722254,58,330.76089369336495,134.35,333.94088669950736,134.35C337.0224411603722,134.35,340.10399562123695,112.78,343.18555008210177,112.78C346.3698230249954,112.78,349.55409596788905,130.6735737704918,352.7383689107827,137.8C355.8199233716475,144.69654151242727,358.9014778325123,155.07999999999998,361.9830322933771,155.07999999999998C365.16730523627075,155.07999999999998,368.35157817916433,114.47999999999999,371.535851122058,101.5C374.7201240649516,88.51999999999994,377.90439700784526,77.20000000000002,381.0886699507389,77.20000000000002C384.1702244116037,77.20000000000002,387.2517788724685,78.4,390.3333333333333,78.4C393.51760627622696,78.4,396.7018792191206,76,399.88615216201424,76C402.97198655963024,76,406.0578209572463,87.96,409.1436553548623,111.88C412.32792829775593,136.56305131761428,415.5122012406495,226,418.69647418354316,226C421.8807471264368,226,425.0650200693304,182.78390804597694,428.24929301222403,160C431.22812899106003,138.6860215053763,434.206964969896,94,437.185800948732,94C440.3657939548744,94,443.54578696101686,117.91013689526852,446.72577996715927,130C449.8073344280241,141.71561431414094,452.8888888888889,165.39999999999998,455.97044334975374,165.39999999999998C459.1547162926473,165.39999999999998,462.33898923554096,85.6,465.52326217843455,85.6C468.6048166392994,85.6,471.6863711001642,88.44814383923848,474.767925561029,94.06C477.95219850392266,99.85891803278689,481.1364714468163,111.40999999999995,484.32074438970994,120.4C487.50501733260353,129.38999999999996,490.68929027549717,148,493.87356321839076,148C496.9551176792556,148,500.0366721401204,138.4,503.1182266009852,138.4C506.3024995438788,138.4,509.48677248677245,154.63,512.671045429666,154.63C515.7568798272821,154.63,518.8427142248981,150.26432085581135,521.9285486225142,142.6C525.1128215654078,134.6911862458758,528.2970945083015,114.04000000000003,531.4813674511951,107.20000000000002C534.6656403940887,100.36,537.8499133369824,103.78000000000002,541.0341862798759,96.94C543.9103037766831,90.76193548387096,546.7864212734902,62.25563930013457,549.6625387702974,60.69999999999999C552.8425317764398,58.98,556.0225247825822,58.120000000000005,559.2025177887247,58.120000000000005C562.2840722495895,58.120000000000005,565.3656267104543,94,568.4471811713191,94C571.6314541142127,94,574.8157270571064,84.13,578,74.25999999999999" style="fill: transparent; stroke: rgb(51, 51, 51); stroke-width: 2; opacity: 1;"></path></g></g></svg>