<svg xmlns="http://www.w3.org/2000/svg" width="640" height="324" role="img" aria-labelledby="victory-container-4-title victory-container-4-desc" viewBox="0 0 640 324" style="pointer-events: all; width: 100%; height: 100%;"><g role="presentation"><line x1="15" x2="578" y1="274" y2="274" role="presentation" shape-rendering="auto" vector-effect="non-scaling-stroke" style="stroke: rgb(226, 226, 226); fill: transparent; stroke-width: 1; stroke-linejoin: round;"></line><g role="presentation"><line x1="81.26626071884692" x2="81.26626071884692" y1="274" y2="34" role="presentation" shape-rendering="auto" vector-effect="non-scaling-stroke" style="stroke: transparent; fill: transparent; stroke-width: 1; stroke-linecap: round; stroke-linejoin: round; pointer-events: none;"></line><line x1="81.26626071884692" x2="81.26626071884692" y1="274" y2="278" role="presentation" shape-rendering="auto" vector-effect="non-scaling-stroke" style="stroke: transparent; fill: transparent; size: 4px; stroke-width: 1; stroke-linecap: round; stroke-linejoin: round;"></line><text dx="0" dy="11.969999999999999" x="81.26626071884692" y="286"><tspan x="81.26626071884692" dx="0" text-anchor="middle" style="fill: rgb(153, 153, 153); font-size: 14px; font-family: inherit; stroke: transparent; letter-spacing: normal; padding: 8px; stroke-width: 0;">2017</tspan></text></g><g role="presentation"><line x1="193.74299854041232" x2="193.74299854041232" y1="274" y2="34" role="presentation" shape-rendering="auto" vector-effect="non-scaling-stroke" style="stroke: transparent; fill: transparent; stroke-width: 1; stroke-linecap: round; stroke-linejoin: round; pointer-events: none;"></line><line x1="193.74299854041232" x2="193.74299854041232" y1="274" y2="278" role="presentation" shape-rendering="auto" vector-effect="non-scaling-stroke" style="stroke: transparent; fill: transparent; size: 4px; stroke-width: 1; stroke-linecap: round; stroke-linejoin: round;"></line><text dx="0" dy="11.969999999999999" x="193.74299854041232" y="286"><tspan x="193.74299854041232" dx="0" text-anchor="middle" style="fill: rgb(153, 153, 153); font-size: 14px; font-family: inherit; stroke: transparent; letter-spacing: normal; padding: 8px; stroke-width: 0;">2018</tspan></text></g><g role="presentation"><line x1="306.2197363619777" x2="306.2197363619777" y1="274" y2="34" role="presentation" shape-rendering="auto" vector-effect="non-scaling-stroke" style="stroke: transparent; fill: transparent; stroke-width: 1; stroke-linecap: round; stroke-linejoin: round; pointer-events: none;"></line><line x1="306.2197363619777" x2="306.2197363619777" y1="274" y2="278" role="presentation" shape-rendering="auto" vector-effect="non-scaling-stroke" style="stroke: transparent; fill: transparent; size: 4px; stroke-width: 1; stroke-linecap: round; stroke-linejoin: round;"></line><text dx="0" dy="11.969999999999999" x="306.2197363619777" y="286"><tspan x="306.2197363619777" dx="0" text-anchor="middle" style="fill: rgb(153, 153, 153); font-size: 14px; font-family: inherit; stroke: transparent; letter-spacing: normal; padding: 8px; stroke-width: 0;">2019</tspan></text></g><g role="presentation"><line x1="418.69647418354316" x2="418.69647418354316" y1="274" y2="34" role="presentation" shape-rendering="auto" vector-effect="non-scaling-stroke" style="stroke: transparent; fill: transparent; stroke-width: 1; stroke-linecap: round; stroke-linejoin: round; pointer-events: none;"></line><line x1="418.69647418354316" x2="418.69647418354316" y1="274" y2="278" role="presentation" shape-rendering="auto" vector-effect="non-scaling-stroke" style="stroke: transparent; fill: transparent; size: 4px; stroke-width: 1; stroke-linecap: round; stroke-linejoin: round;"></line><text dx="0" dy="11.969999999999999" x="418.69647418354316" y="286"><tspan x="418.69647418354316" dx="0" text-anchor="middle" style="fill: rgb(153, 153, 153); font-size: 14px; font-family: inherit; stroke: transparent; letter-spacing: normal; padding: 8px; stroke-width: 0;">2020</tspan></text></g><g role="presentation"><line x1="531.4813674511951" x2="531.4813674511951" y1="274" y2="34" role="presentation" shape-rendering="auto" vector-effect="non-scaling-stroke" style="stroke: transparent; fill: transparent; stroke-width: 1; stroke-linecap: round; stroke-linejoin: round; pointer-events: none;"></line><line x1="531.4813674511951" x2="531.4813674511951" y1="274" y2="278" role="presentation" shape-rendering="auto" vector-effect="non-scaling-stroke" style="stroke: transparent; fill: transparent; size: 4px; stroke-width: 1; stroke-linecap: round; stroke-linejoin: round;"></line><text dx="0" dy="11.969999999999999" x="531.4813674511951" y="286"><tspan x="531.4813674511951" dx="0" text-anchor="middle" style="fill: rgb(153, 153, 153); font-size: 14px; font-family: inherit; stroke: transparent; letter-spacing: normal; padding: 8px; stroke-width: 0;">2021</tspan></text></g></g><g role="presentation"><line x1="578" x2="578" y1="34" y2="274" role="presentation" shape-rendering="auto" vector-effect="non-scaling-stroke" style="stroke: transparent; fill: transparent; stroke-width: 1; stroke-linejoin: round;"></line><g role="presentation"><line x1="578" x2="15" y1="274" y2="274" role="presentation" shape-rendering="auto" vector-effect="non-scaling-stroke" style="stroke: rgb(226, 226, 226); fill: transparent; stroke-width: 1; stroke-linecap: round; stroke-linejoin: round; pointer-events: none;"></line><line x1="578" x2="582" y1="274" y2="274" role="presentation" shape-rendering="auto" vector-effect="non-scaling-stroke" style="stroke: transparent; fill: transparent; size: 4px; stroke-width: 1; stroke-linecap: round; stroke-linejoin: round;"></line><text dx="0" dy="4.97" x="590" y="274"><tspan x="590" dx="0" text-anchor="start" style="fill: rgb(153, 153, 153); font-size: 14px; font-family: inherit; stroke: transparent; letter-spacing: normal; padding: 8px; stroke-width: 0;">$100K</tspan></text></g><g role="presentation"><line x1="578" x2="15" y1="214" y2="214" role="presentation" shape-rendering="auto" vector-effect="non-scaling-stroke" style="stroke: rgb(226, 226, 226); fill: transparent; stroke-width: 1; stroke-linecap: round; stroke-linejoin: round; pointer-events: none;"></line><line x1="578" x2="582" y1="214" y2="214" role="presentation" shape-rendering="auto" vector-effect="non-scaling-stroke" style="stroke: transparent; fill: transparent; size: 4px; stroke-width: 1; stroke-linecap: round; stroke-linejoin: round;"></line><text dx="0" dy="4.97" x="590" y="214"><tspan x="590" dx="0" text-anchor="start" style="fill: rgb(153, 153, 153); font-size: 14px; font-family: inherit; stroke: transparent; letter-spacing: normal; padding: 8px; stroke-width: 0;">$150K</tspan></text></g><g role="presentation"><line x1="578" x2="15" y1="154" y2="154" role="presentation" shape-rendering="auto" vector-effect="non-scaling-stroke" style="stroke: rgb(226, 226, 226); fill: transparent; stroke-width: 1; stroke-linecap: round; stroke-linejoin: round; pointer-events: none;"></line><line x1="578" x2="582" y1="154" y2="154" role="presentation" shape-rendering="auto" vector-effect="non-scaling-stroke" style="stroke: transparent; fill: transparent; size: 4px; stroke-width: 1; stroke-linecap: round; stroke-linejoin: round;"></line><text dx="0" dy="4.97" x="590" y="154"><tspan x="590" dx="0" text-anchor="start" style="fill: rgb(153, 153, 153); font-size: 14px; font-family: inherit; stroke: transparent; letter-spacing: normal; padding: 8px; stroke-width: 0;">$200K</tspan></text></g><g role="presentation"><line x1="578" x2="15" y1="94" y2="94" role="presentation" shape-rendering="auto" vector-effect="non-scaling-stroke" style="stroke: rgb(226, 226, 226); fill: transparent; stroke-width: 1; stroke-linecap: round; stroke-linejoin: round; pointer-events: none;"></line><line x1="578" x2="582" y1="94" y2="94" role="presentation" shape-rendering="auto" vector-effect="non-scaling-stroke" style="stroke: transparent; fill: transparent; size: 4px; stroke-width: 1; stroke-linecap: round; stroke-linejoin: round;"></line><text dx="0" dy="4.97" x="590" y="94"><tspan x="590" dx="0" text-anchor="start" style="fill: rgb(153, 153, 153); font-size: 14px; font-family: inherit; stroke: transparent; letter-spacing: normal; padding: 8px; stroke-width: 0;">$250K</tspan></text></g><g role="presentation"><line x1="578" x2="15" y1="34" y2="34" role="presentation" shape-rendering="auto" vector-effect="non-scaling-stroke" style="stroke: rgb(226, 226, 226); fill: transparent; stroke-width: 1; stroke-linecap: round; stroke-linejoin: round; pointer-events: none;"></line><line x1="578" x2="582" y1="34" y2="34" role="presentation" shape-rendering="auto" vector-effect="non-scaling-stroke" style="stroke: transparent; fill: transparent; size: 4px; stroke-width: 1; stroke-linecap: round; stroke-linejoin: round;"></line><text dx="0" dy="4.97" x="590" y="34"><tspan x="590" dx="0" text-anchor="start" style="fill: rgb(153, 153, 153); font-size: 14px; font-family: inherit; stroke: transparent; letter-spacing: normal; padding: 8px; stroke-width: 0;">$300K</tspan></text></g></g><g style="height: 100%; width: 100%; user-select: none;"><defs><clipPath id="victory-clip-5"><rect x="15" y="34" width="563" height="240"></rect></clipPath></defs><g clip-path="url(#victory-clip-5)"><path shape-rendering="auto" role="presentation" d="M15.30815544608648,178C18.389709906951285,196.9,21.471264367816094,215.8,24.5528188286809,215.8C27.73709177157453,215.8,30.921364714468165,190.59000000000003,34.1056376573618,172.60000000000002C37.28991060025543,154.61,40.47418354314906,107.85999999999999,43.658456486042695,107.85999999999999C46.7400109469075,107.85999999999999,49.821565407772304,190.12,52.90311986863711,190.12C56.08739281153075,190.12,59.271665754424376,170.57085905525602,62.45593869731801,163.6C65.54177309493402,156.84463793166722,68.62760749255003,149.22021505376347,71.71344189016602,148.60000000000002C74.89771483305965,147.96,78.0819877759533,148.28000000000003,81.26626071884692,147.64000000000001C84.45053366174056,147,87.63480660463419,105.4,90.81907954752783,105.4C93.69519704433499,105.4,96.57131454114213,146.56,99.44743203794928,146.56C102.62742504409171,146.56,105.80741805023415,142,108.98741105637657,142C112.06896551724138,142,115.15051997810617,157.46610259122158,118.23207443897098,163.6C121.41634738186463,169.9383606557377,124.60062032475825,179.2,127.7848932676519,179.2C130.8664477285167,179.2,133.9480021893815,154.00119999999998,137.02955665024632,154.00119999999998C140.21382959313993,154.00119999999998,143.39810253603358,196,146.5823754789272,196C149.76664842182083,196,152.95092136471445,160.12,156.1351943076081,160.12C159.2167487684729,160.12,162.2983032293377,179.2,165.37985769020253,179.2C168.56413063309614,179.2,171.74840357598978,138.1,174.9326765188834,138.1C178.0185109164994,138.1,181.10434531411542,165.10000000000002,184.19017971173142,165.10000000000002C187.37445265462506,165.10000000000002,190.55872559751867,142.25,193.74299854041232,132.4C196.92727148330596,122.54999999999998,200.1115444261996,106,203.29581736909324,106C206.1719348659004,106,209.04805236270755,154,211.9241698595147,154C215.10416286565712,154,218.28415587179956,117.4,221.46414887794197,117.4C224.5457033388068,117.4,227.62725779967158,155.8,230.7088122605364,155.8C233.89308520343002,155.8,237.07735814632366,154.20000000000002,240.26163108921727,151C243.3431855500821,147.9032258064516,246.4247400109469,123.75999999999999,249.5062944718117,123.75999999999999C252.69056741470536,123.75999999999999,255.874840357599,145.6,259.05911330049264,145.6C262.2433862433863,145.6,265.42765918627987,124.11999999999998,268.6119321291735,124.11999999999998C271.69348659003833,124.11999999999998,274.7750410509031,185.2,277.8565955117679,185.2C281.04086845466156,185.2,284.22514139755515,182.29999999999998,287.4094143404488,176.5C290.4952487380648,170.87930107526878,293.58108313568084,162.15169019964043,296.66691753329684,148.75C299.8511904761905,134.9207940242269,303.03546341908407,94,306.2197363619777,94C309.40400930487135,94,312.588282247765,166,315.77255519065864,166C318.6486726874658,166,321.52479018427294,164.4,324.4009076810801,161.2C327.58090068722254,157.6619047619048,330.76089369336495,143.20391167312218,333.94088669950736,132.4C337.0224411603722,121.93052973802423,340.10399562123695,99.92258064516128,343.18555008210177,97.6C346.3698230249954,95.2,349.55409596788905,94,352.7383689107827,94C355.8199233716475,94,358.9014778325123,118.19037546271812,361.9830322933771,130C365.16730523627075,142.20327868852456,368.35157817916433,166,371.535851122058,166C374.7201240649516,166,377.90439700784526,164,381.0886699507389,160C384.1702244116037,156.12903225806454,387.2517788724685,130,390.3333333333333,130C393.51760627622696,130,396.7018792191206,164.26,399.88615216201424,164.26C402.97198655963024,164.26,406.0578209572463,154.12,409.1436553548623,154.12C412.32792829775593,154.12,415.5122012406495,168.4,418.69647418354316,168.4C421.8807471264368,168.4,425.0650200693304,94,428.24929301222403,94C431.22812899106003,94,434.206964969896,113.42205019374713,437.185800948732,125.79999999999998C440.3657939548744,139.0138171063877,443.54578696101686,171.51999999999998,446.72577996715927,171.51999999999998C449.8073344280241,171.51999999999998,452.8888888888889,97,455.97044334975374,97C459.1547162926473,97,462.33898923554096,142.6,465.52326217843455,142.6C468.6048166392994,142.6,471.6863711001642,142.4,474.767925561029,142C477.95219850392266,141.58666666666667,481.1364714468163,135.15000000000003,484.32074438970994,130C487.50501733260353,124.85000000000002,490.68929027549717,111.10000000000002,493.87356321839076,111.10000000000002C496.9551176792556,111.10000000000002,500.0366721401204,133,503.1182266009852,133C506.3024995438788,133,509.48677248677245,120.77457144561257,512.671045429666,116.16999999999999C515.7568798272821,111.70777417703393,518.8427142248981,105.61599999999999,521.9285486225142,105.61599999999999C525.1128215654078,105.61599999999999,528.2970945083015,148.00000000000003,531.4813674511951,158.8C534.6656403940887,169.6,537.8499133369824,175,541.0341862798759,175C543.9103037766831,175,546.7864212734902,141.4564559112375,549.6625387702974,130C552.8425317764398,117.33311496718827,556.0225247825822,104.995,559.2025177887247,104.995C562.2840722495895,104.995,565.3656267104543,118,568.4471811713191,118C571.6314541142127,118,574.8157270571064,117.42999999999999,578,116.85999999999999" style="fill: transparent; stroke: rgb(51, 51, 51); stroke-width: 2; opacity: 1;"></path></g></g></svg>