<svg xmlns="http://www.w3.org/2000/svg" width="640" height="324" role="img" aria-labelledby="victory-container-4-title victory-container-4-desc" viewBox="0 0 640 324" style="pointer-events: all; width: 100%; height: 100%;"><g role="presentation"><line x1="15" x2="578" y1="274" y2="274" role="presentation" shape-rendering="auto" vector-effect="non-scaling-stroke" style="stroke: rgb(226, 226, 226); fill: transparent; stroke-width: 1; stroke-linejoin: round;"></line><g role="presentation"><line x1="81.26626071884692" x2="81.26626071884692" y1="274" y2="34" role="presentation" shape-rendering="auto" vector-effect="non-scaling-stroke" style="stroke: transparent; fill: transparent; stroke-width: 1; stroke-linecap: round; stroke-linejoin: round; pointer-events: none;"></line><line x1="81.26626071884692" x2="81.26626071884692" y1="274" y2="278" role="presentation" shape-rendering="auto" vector-effect="non-scaling-stroke" style="stroke: transparent; fill: transparent; size: 4px; stroke-width: 1; stroke-linecap: round; stroke-linejoin: round;"></line><text dx="0" dy="11.969999999999999" x="81.26626071884692" y="286"><tspan x="81.26626071884692" dx="0" text-anchor="middle" style="fill: rgb(153, 153, 153); font-size: 14px; font-family: inherit; stroke: transparent; letter-spacing: normal; padding: 8px; stroke-width: 0;">2017</tspan></text></g><g role="presentation"><line x1="193.74299854041232" x2="193.74299854041232" y1="274" y2="34" role="presentation" shape-rendering="auto" vector-effect="non-scaling-stroke" style="stroke: transparent; fill: transparent; stroke-width: 1; stroke-linecap: round; stroke-linejoin: round; pointer-events: none;"></line><line x1="193.74299854041232" x2="193.74299854041232" y1="274" y2="278" role="presentation" shape-rendering="auto" vector-effect="non-scaling-stroke" style="stroke: transparent; fill: transparent; size: 4px; stroke-width: 1; stroke-linecap: round; stroke-linejoin: round;"></line><text dx="0" dy="11.969999999999999" x="193.74299854041232" y="286"><tspan x="193.74299854041232" dx="0" text-anchor="middle" style="fill: rgb(153, 153, 153); font-size: 14px; font-family: inherit; stroke: transparent; letter-spacing: normal; padding: 8px; stroke-width: 0;">2018</tspan></text></g><g role="presentation"><line x1="306.2197363619777" x2="306.2197363619777" y1="274" y2="34" role="presentation" shape-rendering="auto" vector-effect="non-scaling-stroke" style="stroke: transparent; fill: transparent; stroke-width: 1; stroke-linecap: round; stroke-linejoin: round; pointer-events: none;"></line><line x1="306.2197363619777" x2="306.2197363619777" y1="274" y2="278" role="presentation" shape-rendering="auto" vector-effect="non-scaling-stroke" style="stroke: transparent; fill: transparent; size: 4px; stroke-width: 1; stroke-linecap: round; stroke-linejoin: round;"></line><text dx="0" dy="11.969999999999999" x="306.2197363619777" y="286"><tspan x="306.2197363619777" dx="0" text-anchor="middle" style="fill: rgb(153, 153, 153); font-size: 14px; font-family: inherit; stroke: transparent; letter-spacing: normal; padding: 8px; stroke-width: 0;">2019</tspan></text></g><g role="presentation"><line x1="418.69647418354316" x2="418.69647418354316" y1="274" y2="34" role="presentation" shape-rendering="auto" vector-effect="non-scaling-stroke" style="stroke: transparent; fill: transparent; stroke-width: 1; stroke-linecap: round; stroke-linejoin: round; pointer-events: none;"></line><line x1="418.69647418354316" x2="418.69647418354316" y1="274" y2="278" role="presentation" shape-rendering="auto" vector-effect="non-scaling-stroke" style="stroke: transparent; fill: transparent; size: 4px; stroke-width: 1; stroke-linecap: round; stroke-linejoin: round;"></line><text dx="0" dy="11.969999999999999" x="418.69647418354316" y="286"><tspan x="418.69647418354316" dx="0" text-anchor="middle" style="fill: rgb(153, 153, 153); font-size: 14px; font-family: inherit; stroke: transparent; letter-spacing: normal; padding: 8px; stroke-width: 0;">2020</tspan></text></g><g role="presentation"><line x1="531.4813674511951" x2="531.4813674511951" y1="274" y2="34" role="presentation" shape-rendering="auto" vector-effect="non-scaling-stroke" style="stroke: transparent; fill: transparent; stroke-width: 1; stroke-linecap: round; stroke-linejoin: round; pointer-events: none;"></line><line x1="531.4813674511951" x2="531.4813674511951" y1="274" y2="278" role="presentation" shape-rendering="auto" vector-effect="non-scaling-stroke" style="stroke: transparent; fill: transparent; size: 4px; stroke-width: 1; stroke-linecap: round; stroke-linejoin: round;"></line><text dx="0" dy="11.969999999999999" x="531.4813674511951" y="286"><tspan x="531.4813674511951" dx="0" text-anchor="middle" style="fill: rgb(153, 153, 153); font-size: 14px; font-family: inherit; stroke: transparent; letter-spacing: normal; padding: 8px; stroke-width: 0;">2021</tspan></text></g></g><g role="presentation"><line x1="578" x2="578" y1="34" y2="274" role="presentation" shape-rendering="auto" vector-effect="non-scaling-stroke" style="stroke: transparent; fill: transparent; stroke-width: 1; stroke-linejoin: round;"></line><g role="presentation"><line x1="578" x2="15" y1="274" y2="274" role="presentation" shape-rendering="auto" vector-effect="non-scaling-stroke" style="stroke: rgb(226, 226, 226); fill: transparent; stroke-width: 1; stroke-linecap: round; stroke-linejoin: round; pointer-events: none;"></line><line x1="578" x2="582" y1="274" y2="274" role="presentation" shape-rendering="auto" vector-effect="non-scaling-stroke" style="stroke: transparent; fill: transparent; size: 4px; stroke-width: 1; stroke-linecap: round; stroke-linejoin: round;"></line><text dx="0" dy="4.97" x="590" y="274"><tspan x="590" dx="0" text-anchor="start" style="fill: rgb(153, 153, 153); font-size: 14px; font-family: inherit; stroke: transparent; letter-spacing: normal; padding: 8px; stroke-width: 0;">$100K</tspan></text></g><g role="presentation"><line x1="578" x2="15" y1="214" y2="214" role="presentation" shape-rendering="auto" vector-effect="non-scaling-stroke" style="stroke: rgb(226, 226, 226); fill: transparent; stroke-width: 1; stroke-linecap: round; stroke-linejoin: round; pointer-events: none;"></line><line x1="578" x2="582" y1="214" y2="214" role="presentation" shape-rendering="auto" vector-effect="non-scaling-stroke" style="stroke: transparent; fill: transparent; size: 4px; stroke-width: 1; stroke-linecap: round; stroke-linejoin: round;"></line><text dx="0" dy="4.97" x="590" y="214"><tspan x="590" dx="0" text-anchor="start" style="fill: rgb(153, 153, 153); font-size: 14px; font-family: inherit; stroke: transparent; letter-spacing: normal; padding: 8px; stroke-width: 0;">$150K</tspan></text></g><g role="presentation"><line x1="578" x2="15" y1="154" y2="154" role="presentation" shape-rendering="auto" vector-effect="non-scaling-stroke" style="stroke: rgb(226, 226, 226); fill: transparent; stroke-width: 1; stroke-linecap: round; stroke-linejoin: round; pointer-events: none;"></line><line x1="578" x2="582" y1="154" y2="154" role="presentation" shape-rendering="auto" vector-effect="non-scaling-stroke" style="stroke: transparent; fill: transparent; size: 4px; stroke-width: 1; stroke-linecap: round; stroke-linejoin: round;"></line><text dx="0" dy="4.97" x="590" y="154"><tspan x="590" dx="0" text-anchor="start" style="fill: rgb(153, 153, 153); font-size: 14px; font-family: inherit; stroke: transparent; letter-spacing: normal; padding: 8px; stroke-width: 0;">$200K</tspan></text></g><g role="presentation"><line x1="578" x2="15" y1="94" y2="94" role="presentation" shape-rendering="auto" vector-effect="non-scaling-stroke" style="stroke: rgb(226, 226, 226); fill: transparent; stroke-width: 1; stroke-linecap: round; stroke-linejoin: round; pointer-events: none;"></line><line x1="578" x2="582" y1="94" y2="94" role="presentation" shape-rendering="auto" vector-effect="non-scaling-stroke" style="stroke: transparent; fill: transparent; size: 4px; stroke-width: 1; stroke-linecap: round; stroke-linejoin: round;"></line><text dx="0" dy="4.97" x="590" y="94"><tspan x="590" dx="0" text-anchor="start" style="fill: rgb(153, 153, 153); font-size: 14px; font-family: inherit; stroke: transparent; letter-spacing: normal; padding: 8px; stroke-width: 0;">$250K</tspan></text></g><g role="presentation"><line x1="578" x2="15" y1="34" y2="34" role="presentation" shape-rendering="auto" vector-effect="non-scaling-stroke" style="stroke: rgb(226, 226, 226); fill: transparent; stroke-width: 1; stroke-linecap: round; stroke-linejoin: round; pointer-events: none;"></line><line x1="578" x2="582" y1="34" y2="34" role="presentation" shape-rendering="auto" vector-effect="non-scaling-stroke" style="stroke: transparent; fill: transparent; size: 4px; stroke-width: 1; stroke-linecap: round; stroke-linejoin: round;"></line><text dx="0" dy="4.97" x="590" y="34"><tspan x="590" dx="0" text-anchor="start" style="fill: rgb(153, 153, 153); font-size: 14px; font-family: inherit; stroke: transparent; letter-spacing: normal; padding: 8px; stroke-width: 0;">$300K</tspan></text></g></g><g style="height: 100%; width: 100%; user-select: none;"><defs><clipPath id="victory-clip-5"><rect x="15" y="34" width="563" height="240"></rect></clipPath></defs><g clip-path="url(#victory-clip-5)"><path shape-rendering="auto" role="presentation" d="M24.5528188286809,237.4C27.73709177157453,243.10000000000002,30.921364714468165,248.8,34.1056376573618,248.8C37.28991060025543,248.8,40.47418354314906,233.65333333333334,43.658456486042695,232C46.7400109469075,230.4,49.821565407772304,229.6,52.90311986863711,229.6C56.08739281153075,229.6,59.271665754424376,230.1,62.45593869731801,231.1C65.54177309493402,232.06908602150537,68.62760749255003,238,71.71344189016602,238C74.89771483305965,238,78.0819877759533,227.2,81.26626071884692,227.2C84.45053366174056,227.2,87.63480660463419,244,90.81907954752783,244C93.69519704433499,244,96.57131454114213,210.4,99.44743203794928,210.4C102.62742504409171,210.4,105.80741805023415,214.04184713678134,108.98741105637657,216.7C112.06896551724138,219.27586818508402,115.15051997810617,226,118.23207443897098,226C121.41634738186463,226,124.60062032475825,214,127.7848932676519,214C130.8664477285167,214,133.9480021893815,220,137.02955665024632,220C140.21382959313993,220,143.39810253603358,215.49,146.5823754789272,214C149.76664842182083,212.51,152.95092136471445,211.06,156.1351943076081,211.06C159.2167487684729,211.06,162.2983032293377,214.57496562665253,165.37985769020253,218.26C168.56413063309614,222.06786885245901,171.74840357598978,233.8,174.9326765188834,233.8C178.0185109164994,233.8,181.10434531411542,216.1,184.19017971173142,216.1C187.37445265462506,216.1,190.55872559751867,219.95,193.74299854041232,221.2C196.92727148330596,222.45,200.1115444261996,223.6,203.29581736909324,223.6C206.1719348659004,223.6,209.04805236270755,220.67101284545038,211.9241698595147,218.8C215.10416286565712,216.73130573784286,218.28415587179956,211.6,221.46414887794197,211.6C224.5457033388068,211.6,227.62725779967158,212.2,230.7088122605364,212.2C233.89308520343002,212.2,237.07735814632366,208.51496174863388,240.26163108921727,206.8C243.3431855500821,205.14035959809627,246.4247400109469,203.33888947646747,249.5062944718117,202.06C252.69056741470536,200.73848087431693,255.874840357599,199.06,259.05911330049264,199.06C262.2433862433863,199.06,265.42765918627987,211.6,268.6119321291735,211.6C271.69348659003833,211.6,274.7750410509031,202,277.8565955117679,202C281.04086845466156,202,284.22514139755515,204.91949842132422,287.4094143404488,208C290.4952487380648,210.98527101911998,293.58108313568084,220,296.66691753329684,220C299.8511904761905,220,303.03546341908407,196,306.2197363619777,196C309.40400930487135,196,312.588282247765,199.91428571428574,315.77255519065864,200.8C318.6486726874658,201.6,321.52479018427294,202,324.4009076810801,202C327.58090068722254,202,330.76089369336495,202,333.94088669950736,202C337.0224411603722,202,340.10399562123695,190,343.18555008210177,190C346.3698230249954,190,349.55409596788905,192.55704076502732,352.7383689107827,193.4638C355.8199233716475,194.34130893707032,358.9014778325123,195.39999999999998,361.9830322933771,195.39999999999998C365.16730523627075,195.39999999999998,368.35157817916433,195.39999999999998,371.535851122058,195.39999999999998C374.7201240649516,195.39999999999998,377.90439700784526,182.8,381.0886699507389,182.8C384.1702244116037,182.8,387.2517788724685,183.20000000000002,390.3333333333333,184C393.51760627622696,184.82666666666665,396.7018792191206,199.06,399.88615216201424,199.06C402.97198655963024,199.06,406.0578209572463,169.23399999999998,409.1436553548623,169.23399999999998C412.32792829775593,169.23399999999998,415.5122012406495,198.25,418.69647418354316,198.25C421.8807471264368,198.25,425.0650200693304,192.39999999999998,428.24929301222403,192.39999999999998C431.22812899106003,192.39999999999998,434.206964969896,199,437.185800948732,199C440.3657939548744,199,443.54578696101686,197.79999999999998,446.72577996715927,195.39999999999998C449.8073344280241,193.07429340511436,452.8888888888889,178,455.97044334975374,178C459.1547162926473,178,462.33898923554096,190.72,465.52326217843455,190.72C468.6048166392994,190.72,471.6863711001642,166,474.767925561029,166C477.95219850392266,166,481.1364714468163,174.11999999999998,484.32074438970994,178.12C487.50501733260353,182.11999999999998,490.68929027549717,190,493.87356321839076,190C496.9551176792556,190,500.0366721401204,179.92000000000002,503.1182266009852,179.92000000000002C506.3024995438788,179.92000000000002,509.48677248677245,188.5,512.671045429666,188.5C515.7568798272821,188.5,518.8427142248981,179.50555682777352,521.9285486225142,176.8C525.1128215654078,174.00813553416998,528.2970945083015,173.9608,531.4813674511951,172.24C534.6656403940887,170.5192,537.8499133369824,166.4752,541.0341862798759,166.4752C543.9103037766831,166.4752,546.7864212734902,178,549.6625387702974,178C552.8425317764398,178,556.0225247825822,153.4,559.2025177887247,153.4C562.2840722495895,153.4,565.3656267104543,176.8,568.4471811713191,176.8C571.6314541142127,176.8,574.8157270571064,154.534,578,132.268" style="fill: transparent; stroke: rgb(51, 51, 51); stroke-width: 2; opacity: 1;"></path></g></g></svg>