<svg xmlns="http://www.w3.org/2000/svg" width="640" height="324" role="img" aria-labelledby="victory-container-4-title victory-container-4-desc" viewBox="0 0 640 324" style="pointer-events: all; width: 100%; height: 100%;"><g role="presentation"><line x1="15" x2="578" y1="274" y2="274" role="presentation" shape-rendering="auto" vector-effect="non-scaling-stroke" style="stroke: rgb(226, 226, 226); fill: transparent; stroke-width: 1; stroke-linejoin: round;"></line><g role="presentation"><line x1="81.26626071884692" x2="81.26626071884692" y1="274" y2="34" role="presentation" shape-rendering="auto" vector-effect="non-scaling-stroke" style="stroke: transparent; fill: transparent; stroke-width: 1; stroke-linecap: round; stroke-linejoin: round; pointer-events: none;"></line><line x1="81.26626071884692" x2="81.26626071884692" y1="274" y2="278" role="presentation" shape-rendering="auto" vector-effect="non-scaling-stroke" style="stroke: transparent; fill: transparent; size: 4px; stroke-width: 1; stroke-linecap: round; stroke-linejoin: round;"></line><text dx="0" dy="11.969999999999999" x="81.26626071884692" y="286"><tspan x="81.26626071884692" dx="0" text-anchor="middle" style="fill: rgb(153, 153, 153); font-size: 14px; font-family: inherit; stroke: transparent; letter-spacing: normal; padding: 8px; stroke-width: 0;">2017</tspan></text></g><g role="presentation"><line x1="193.74299854041232" x2="193.74299854041232" y1="274" y2="34" role="presentation" shape-rendering="auto" vector-effect="non-scaling-stroke" style="stroke: transparent; fill: transparent; stroke-width: 1; stroke-linecap: round; stroke-linejoin: round; pointer-events: none;"></line><line x1="193.74299854041232" x2="193.74299854041232" y1="274" y2="278" role="presentation" shape-rendering="auto" vector-effect="non-scaling-stroke" style="stroke: transparent; fill: transparent; size: 4px; stroke-width: 1; stroke-linecap: round; stroke-linejoin: round;"></line><text dx="0" dy="11.969999999999999" x="193.74299854041232" y="286"><tspan x="193.74299854041232" dx="0" text-anchor="middle" style="fill: rgb(153, 153, 153); font-size: 14px; font-family: inherit; stroke: transparent; letter-spacing: normal; padding: 8px; stroke-width: 0;">2018</tspan></text></g><g role="presentation"><line x1="306.2197363619777" x2="306.2197363619777" y1="274" y2="34" role="presentation" shape-rendering="auto" vector-effect="non-scaling-stroke" style="stroke: transparent; fill: transparent; stroke-width: 1; stroke-linecap: round; stroke-linejoin: round; pointer-events: none;"></line><line x1="306.2197363619777" x2="306.2197363619777" y1="274" y2="278" role="presentation" shape-rendering="auto" vector-effect="non-scaling-stroke" style="stroke: transparent; fill: transparent; size: 4px; stroke-width: 1; stroke-linecap: round; stroke-linejoin: round;"></line><text dx="0" dy="11.969999999999999" x="306.2197363619777" y="286"><tspan x="306.2197363619777" dx="0" text-anchor="middle" style="fill: rgb(153, 153, 153); font-size: 14px; font-family: inherit; stroke: transparent; letter-spacing: normal; padding: 8px; stroke-width: 0;">2019</tspan></text></g><g role="presentation"><line x1="418.69647418354316" x2="418.69647418354316" y1="274" y2="34" role="presentation" shape-rendering="auto" vector-effect="non-scaling-stroke" style="stroke: transparent; fill: transparent; stroke-width: 1; stroke-linecap: round; stroke-linejoin: round; pointer-events: none;"></line><line x1="418.69647418354316" x2="418.69647418354316" y1="274" y2="278" role="presentation" shape-rendering="auto" vector-effect="non-scaling-stroke" style="stroke: transparent; fill: transparent; size: 4px; stroke-width: 1; stroke-linecap: round; stroke-linejoin: round;"></line><text dx="0" dy="11.969999999999999" x="418.69647418354316" y="286"><tspan x="418.69647418354316" dx="0" text-anchor="middle" style="fill: rgb(153, 153, 153); font-size: 14px; font-family: inherit; stroke: transparent; letter-spacing: normal; padding: 8px; stroke-width: 0;">2020</tspan></text></g><g role="presentation"><line x1="531.4813674511951" x2="531.4813674511951" y1="274" y2="34" role="presentation" shape-rendering="auto" vector-effect="non-scaling-stroke" style="stroke: transparent; fill: transparent; stroke-width: 1; stroke-linecap: round; stroke-linejoin: round; pointer-events: none;"></line><line x1="531.4813674511951" x2="531.4813674511951" y1="274" y2="278" role="presentation" shape-rendering="auto" vector-effect="non-scaling-stroke" style="stroke: transparent; fill: transparent; size: 4px; stroke-width: 1; stroke-linecap: round; stroke-linejoin: round;"></line><text dx="0" dy="11.969999999999999" x="531.4813674511951" y="286"><tspan x="531.4813674511951" dx="0" text-anchor="middle" style="fill: rgb(153, 153, 153); font-size: 14px; font-family: inherit; stroke: transparent; letter-spacing: normal; padding: 8px; stroke-width: 0;">2021</tspan></text></g></g><g role="presentation"><line x1="578" x2="578" y1="34" y2="274" role="presentation" shape-rendering="auto" vector-effect="non-scaling-stroke" style="stroke: transparent; fill: transparent; stroke-width: 1; stroke-linejoin: round;"></line><g role="presentation"><line x1="578" x2="15" y1="274" y2="274" role="presentation" shape-rendering="auto" vector-effect="non-scaling-stroke" style="stroke: rgb(226, 226, 226); fill: transparent; stroke-width: 1; stroke-linecap: round; stroke-linejoin: round; pointer-events: none;"></line><line x1="578" x2="582" y1="274" y2="274" role="presentation" shape-rendering="auto" vector-effect="non-scaling-stroke" style="stroke: transparent; fill: transparent; size: 4px; stroke-width: 1; stroke-linecap: round; stroke-linejoin: round;"></line><text dx="0" dy="4.97" x="590" y="274"><tspan x="590" dx="0" text-anchor="start" style="fill: rgb(153, 153, 153); font-size: 14px; font-family: inherit; stroke: transparent; letter-spacing: normal; padding: 8px; stroke-width: 0;">$100K</tspan></text></g><g role="presentation"><line x1="578" x2="15" y1="226" y2="226" role="presentation" shape-rendering="auto" vector-effect="non-scaling-stroke" style="stroke: rgb(226, 226, 226); fill: transparent; stroke-width: 1; stroke-linecap: round; stroke-linejoin: round; pointer-events: none;"></line><line x1="578" x2="582" y1="226" y2="226" role="presentation" shape-rendering="auto" vector-effect="non-scaling-stroke" style="stroke: transparent; fill: transparent; size: 4px; stroke-width: 1; stroke-linecap: round; stroke-linejoin: round;"></line><text dx="0" dy="4.97" x="590" y="226"><tspan x="590" dx="0" text-anchor="start" style="fill: rgb(153, 153, 153); font-size: 14px; font-family: inherit; stroke: transparent; letter-spacing: normal; padding: 8px; stroke-width: 0;">$200K</tspan></text></g><g role="presentation"><line x1="578" x2="15" y1="178" y2="178" role="presentation" shape-rendering="auto" vector-effect="non-scaling-stroke" style="stroke: rgb(226, 226, 226); fill: transparent; stroke-width: 1; stroke-linecap: round; stroke-linejoin: round; pointer-events: none;"></line><line x1="578" x2="582" y1="178" y2="178" role="presentation" shape-rendering="auto" vector-effect="non-scaling-stroke" style="stroke: transparent; fill: transparent; size: 4px; stroke-width: 1; stroke-linecap: round; stroke-linejoin: round;"></line><text dx="0" dy="4.97" x="590" y="178"><tspan x="590" dx="0" text-anchor="start" style="fill: rgb(153, 153, 153); font-size: 14px; font-family: inherit; stroke: transparent; letter-spacing: normal; padding: 8px; stroke-width: 0;">$300K</tspan></text></g><g role="presentation"><line x1="578" x2="15" y1="130" y2="130" role="presentation" shape-rendering="auto" vector-effect="non-scaling-stroke" style="stroke: rgb(226, 226, 226); fill: transparent; stroke-width: 1; stroke-linecap: round; stroke-linejoin: round; pointer-events: none;"></line><line x1="578" x2="582" y1="130" y2="130" role="presentation" shape-rendering="auto" vector-effect="non-scaling-stroke" style="stroke: transparent; fill: transparent; size: 4px; stroke-width: 1; stroke-linecap: round; stroke-linejoin: round;"></line><text dx="0" dy="4.97" x="590" y="130"><tspan x="590" dx="0" text-anchor="start" style="fill: rgb(153, 153, 153); font-size: 14px; font-family: inherit; stroke: transparent; letter-spacing: normal; padding: 8px; stroke-width: 0;">$400K</tspan></text></g><g role="presentation"><line x1="578" x2="15" y1="82" y2="82" role="presentation" shape-rendering="auto" vector-effect="non-scaling-stroke" style="stroke: rgb(226, 226, 226); fill: transparent; stroke-width: 1; stroke-linecap: round; stroke-linejoin: round; pointer-events: none;"></line><line x1="578" x2="582" y1="82" y2="82" role="presentation" shape-rendering="auto" vector-effect="non-scaling-stroke" style="stroke: transparent; fill: transparent; size: 4px; stroke-width: 1; stroke-linecap: round; stroke-linejoin: round;"></line><text dx="0" dy="4.97" x="590" y="82"><tspan x="590" dx="0" text-anchor="start" style="fill: rgb(153, 153, 153); font-size: 14px; font-family: inherit; stroke: transparent; letter-spacing: normal; padding: 8px; stroke-width: 0;">$500K</tspan></text></g><g role="presentation"><line x1="578" x2="15" y1="34" y2="34" role="presentation" shape-rendering="auto" vector-effect="non-scaling-stroke" style="stroke: rgb(226, 226, 226); fill: transparent; stroke-width: 1; stroke-linecap: round; stroke-linejoin: round; pointer-events: none;"></line><line x1="578" x2="582" y1="34" y2="34" role="presentation" shape-rendering="auto" vector-effect="non-scaling-stroke" style="stroke: transparent; fill: transparent; size: 4px; stroke-width: 1; stroke-linecap: round; stroke-linejoin: round;"></line><text dx="0" dy="4.97" x="590" y="34"><tspan x="590" dx="0" text-anchor="start" style="fill: rgb(153, 153, 153); font-size: 14px; font-family: inherit; stroke: transparent; letter-spacing: normal; padding: 8px; stroke-width: 0;">$600K</tspan></text></g></g><g style="height: 100%; width: 100%; user-select: none;"><defs><clipPath id="victory-clip-5"><rect x="15" y="34" width="563" height="240"></rect></clipPath></defs><g clip-path="url(#victory-clip-5)"><path shape-rendering="auto" role="presentation" d="M24.5528188286809,161.44C27.73709177157453,193.6,30.921364714468165,225.76,34.1056376573618,225.76C37.28991060025543,225.76,40.47418354314906,213.64,43.658456486042695,213.64C46.7400109469075,213.64,49.821565407772304,247.6,52.90311986863711,247.6C56.08739281153075,247.6,59.271665754424376,98.80000000000001,62.45593869731801,98.80000000000001C65.54177309493402,98.80000000000001,68.62760749255003,241.72,71.71344189016602,241.72C74.89771483305965,241.72,78.0819877759533,229.12,81.26626071884692,229.12C84.45053366174056,229.12,87.63480660463419,233.2024,90.81907954752783,233.2024C93.69519704433499,233.2024,96.57131454114213,217.9901402862048,99.44743203794928,207.64C102.62742504409171,196.1963181061753,105.80741805023415,166.6,108.98741105637657,166.6C112.06896551724138,166.6,115.15051997810617,203.32,118.23207443897098,203.32C121.41634738186463,203.32,124.60062032475825,172.60000000000002,127.7848932676519,172.60000000000002C130.8664477285167,172.60000000000002,133.9480021893815,199.6,137.02955665024632,199.6C140.21382959313993,199.6,143.39810253603358,139.6,146.5823754789272,139.6C149.76664842182083,139.6,152.95092136471445,212.67354666666665,156.1351943076081,216.54399999999998C159.2167487684729,220.28959999999998,162.2983032293377,219.8403265996827,165.37985769020253,222.1624C168.56413063309614,224.56187584699452,171.74840357598978,230.8,174.9326765188834,230.8C178.0185109164994,230.8,181.10434531411542,230.3224,184.19017971173142,230.3224C187.37445265462506,230.3224,190.55872559751867,230.9616,193.74299854041232,232.24C196.92727148330596,233.5184,200.1115444261996,250.72,203.29581736909324,250.72C206.1719348659004,250.72,209.04805236270755,247.56,211.9241698595147,241.24C215.10416286565712,234.25226190476195,218.28415587179956,199.8746054530264,221.46414887794197,173.2C224.5457033388068,147.35112257580198,227.62725779967158,84.39999999999998,230.7088122605364,84.39999999999998C233.89308520343002,84.39999999999998,237.07735814632366,143.63759562841534,240.26163108921727,164.8C243.3431855500821,185.2797461660498,246.4247400109469,210.4,249.5062944718117,210.4C252.69056741470536,210.4,255.874840357599,195.80000000000007,259.05911330049264,180.39999999999998C262.2433862433863,165,265.42765918627987,118,268.6119321291735,118C271.69348659003833,118,274.7750410509031,128.45372818614487,277.8565955117679,142C281.04086845466156,155.99781420765026,284.22514139755515,187.11414374233738,287.4094143404488,201.76C290.4952487380648,215.95309457227793,293.58108313568084,229.48000000000002,296.66691753329684,229.48000000000002C299.8511904761905,229.48000000000002,303.03546341908407,65.19999999999999,306.2197363619777,65.19999999999999C309.40400930487135,65.19999999999999,312.588282247765,187.50285714285712,315.77255519065864,192.64C318.6486726874658,197.28,321.52479018427294,199.6,324.4009076810801,199.6C327.58090068722254,199.6,330.76089369336495,184.6,333.94088669950736,184.6C337.0224411603722,184.6,340.10399562123695,202,343.18555008210177,202C346.3698230249954,202,349.55409596788905,120.88,352.7383689107827,120.88C355.8199233716475,120.88,358.9014778325123,188.88516129032254,361.9830322933771,203.44C365.16730523627075,218.48,368.35157817916433,226,371.535851122058,226C374.7201240649516,226,377.90439700784526,223.12,381.0886699507389,217.36C384.1702244116037,211.78580645161296,387.2517788724685,103.84,390.3333333333333,103.84C393.51760627622696,103.84,396.7018792191206,185.68,399.88615216201424,185.68C402.97198655963024,185.68,406.0578209572463,183.04,409.1436553548623,183.04C412.32792829775593,183.04,415.5122012406495,197.68,418.69647418354316,197.68C421.8807471264368,197.68,425.0650200693304,148.24,428.24929301222403,148.24C431.22812899106003,148.24,434.206964969896,199.28951297680368,437.185800948732,215.94400000000002C440.3657939548744,233.7231434744754,443.54578696101686,249.064,446.72577996715927,249.064C449.8073344280241,249.064,452.8888888888889,224.0603744050769,455.97044334975374,202C459.1547162926473,179.20427978142084,462.33898923554096,113.19999999999999,465.52326217843455,113.19999999999999C468.6048166392994,113.19999999999999,471.6863711001642,218.8,474.767925561029,218.8C477.95219850392266,218.8,481.1364714468163,211.84,484.32074438970994,197.92000000000002C487.50501733260353,184.00000000000017,490.68929027549717,127.84,493.87356321839076,127.84C496.9551176792556,127.84,500.0366721401204,181.624,503.1182266009852,181.624C506.3024995438788,181.624,509.48677248677245,94,512.671045429666,94C515.7568798272821,94,518.8427142248981,115.8928649491724,521.9285486225142,124.024C525.1128215654078,132.41451938670681,528.2970945083015,139.2,531.4813674511951,143.2C534.6656403940887,147.2,537.8499133369824,149.2,541.0341862798759,149.2C543.9103037766831,149.2,546.7864212734902,139.6,549.6625387702974,139.6C552.8425317764398,139.6,556.0225247825822,155.2,559.2025177887247,155.2C562.2840722495895,155.2,565.3656267104543,76,568.4471811713191,76C571.6314541142127,76,574.8157270571064,94.6,578,113.19999999999999" style="fill: transparent; stroke: rgb(51, 51, 51); stroke-width: 2; opacity: 1;"></path></g></g></svg>