<svg xmlns="http://www.w3.org/2000/svg" width="640" height="324" role="img" aria-labelledby="victory-container-4-title victory-container-4-desc" viewBox="0 0 640 324" style="pointer-events: all; width: 100%; height: 100%;"><g role="presentation"><line x1="15" x2="578" y1="274" y2="274" role="presentation" shape-rendering="auto" vector-effect="non-scaling-stroke" style="stroke: rgb(226, 226, 226); fill: transparent; stroke-width: 1; stroke-linejoin: round;"></line><g role="presentation"><line x1="81.26626071884692" x2="81.26626071884692" y1="274" y2="34" role="presentation" shape-rendering="auto" vector-effect="non-scaling-stroke" style="stroke: transparent; fill: transparent; stroke-width: 1; stroke-linecap: round; stroke-linejoin: round; pointer-events: none;"></line><line x1="81.26626071884692" x2="81.26626071884692" y1="274" y2="278" role="presentation" shape-rendering="auto" vector-effect="non-scaling-stroke" style="stroke: transparent; fill: transparent; size: 4px; stroke-width: 1; stroke-linecap: round; stroke-linejoin: round;"></line><text dx="0" dy="11.969999999999999" x="81.26626071884692" y="286"><tspan x="81.26626071884692" dx="0" text-anchor="middle" style="fill: rgb(153, 153, 153); font-size: 14px; font-family: inherit; stroke: transparent; letter-spacing: normal; padding: 8px; stroke-width: 0;">2017</tspan></text></g><g role="presentation"><line x1="193.74299854041232" x2="193.74299854041232" y1="274" y2="34" role="presentation" shape-rendering="auto" vector-effect="non-scaling-stroke" style="stroke: transparent; fill: transparent; stroke-width: 1; stroke-linecap: round; stroke-linejoin: round; pointer-events: none;"></line><line x1="193.74299854041232" x2="193.74299854041232" y1="274" y2="278" role="presentation" shape-rendering="auto" vector-effect="non-scaling-stroke" style="stroke: transparent; fill: transparent; size: 4px; stroke-width: 1; stroke-linecap: round; stroke-linejoin: round;"></line><text dx="0" dy="11.969999999999999" x="193.74299854041232" y="286"><tspan x="193.74299854041232" dx="0" text-anchor="middle" style="fill: rgb(153, 153, 153); font-size: 14px; font-family: inherit; stroke: transparent; letter-spacing: normal; padding: 8px; stroke-width: 0;">2018</tspan></text></g><g role="presentation"><line x1="306.2197363619777" x2="306.2197363619777" y1="274" y2="34" role="presentation" shape-rendering="auto" vector-effect="non-scaling-stroke" style="stroke: transparent; fill: transparent; stroke-width: 1; stroke-linecap: round; stroke-linejoin: round; pointer-events: none;"></line><line x1="306.2197363619777" x2="306.2197363619777" y1="274" y2="278" role="presentation" shape-rendering="auto" vector-effect="non-scaling-stroke" style="stroke: transparent; fill: transparent; size: 4px; stroke-width: 1; stroke-linecap: round; stroke-linejoin: round;"></line><text dx="0" dy="11.969999999999999" x="306.2197363619777" y="286"><tspan x="306.2197363619777" dx="0" text-anchor="middle" style="fill: rgb(153, 153, 153); font-size: 14px; font-family: inherit; stroke: transparent; letter-spacing: normal; padding: 8px; stroke-width: 0;">2019</tspan></text></g><g role="presentation"><line x1="418.69647418354316" x2="418.69647418354316" y1="274" y2="34" role="presentation" shape-rendering="auto" vector-effect="non-scaling-stroke" style="stroke: transparent; fill: transparent; stroke-width: 1; stroke-linecap: round; stroke-linejoin: round; pointer-events: none;"></line><line x1="418.69647418354316" x2="418.69647418354316" y1="274" y2="278" role="presentation" shape-rendering="auto" vector-effect="non-scaling-stroke" style="stroke: transparent; fill: transparent; size: 4px; stroke-width: 1; stroke-linecap: round; stroke-linejoin: round;"></line><text dx="0" dy="11.969999999999999" x="418.69647418354316" y="286"><tspan x="418.69647418354316" dx="0" text-anchor="middle" style="fill: rgb(153, 153, 153); font-size: 14px; font-family: inherit; stroke: transparent; letter-spacing: normal; padding: 8px; stroke-width: 0;">2020</tspan></text></g><g role="presentation"><line x1="531.4813674511951" x2="531.4813674511951" y1="274" y2="34" role="presentation" shape-rendering="auto" vector-effect="non-scaling-stroke" style="stroke: transparent; fill: transparent; stroke-width: 1; stroke-linecap: round; stroke-linejoin: round; pointer-events: none;"></line><line x1="531.4813674511951" x2="531.4813674511951" y1="274" y2="278" role="presentation" shape-rendering="auto" vector-effect="non-scaling-stroke" style="stroke: transparent; fill: transparent; size: 4px; stroke-width: 1; stroke-linecap: round; stroke-linejoin: round;"></line><text dx="0" dy="11.969999999999999" x="531.4813674511951" y="286"><tspan x="531.4813674511951" dx="0" text-anchor="middle" style="fill: rgb(153, 153, 153); font-size: 14px; font-family: inherit; stroke: transparent; letter-spacing: normal; padding: 8px; stroke-width: 0;">2021</tspan></text></g></g><g role="presentation"><line x1="578" x2="578" y1="34" y2="274" role="presentation" shape-rendering="auto" vector-effect="non-scaling-stroke" style="stroke: transparent; fill: transparent; stroke-width: 1; stroke-linejoin: round;"></line><g role="presentation"><line x1="578" x2="15" y1="274" y2="274" role="presentation" shape-rendering="auto" vector-effect="non-scaling-stroke" style="stroke: rgb(226, 226, 226); fill: transparent; stroke-width: 1; stroke-linecap: round; stroke-linejoin: round; pointer-events: none;"></line><line x1="578" x2="582" y1="274" y2="274" role="presentation" shape-rendering="auto" vector-effect="non-scaling-stroke" style="stroke: transparent; fill: transparent; size: 4px; stroke-width: 1; stroke-linecap: round; stroke-linejoin: round;"></line><text dx="0" dy="4.97" x="590" y="274"><tspan x="590" dx="0" text-anchor="start" style="fill: rgb(153, 153, 153); font-size: 14px; font-family: inherit; stroke: transparent; letter-spacing: normal; padding: 8px; stroke-width: 0;">$300K</tspan></text></g><g role="presentation"><line x1="578" x2="15" y1="214" y2="214" role="presentation" shape-rendering="auto" vector-effect="non-scaling-stroke" style="stroke: rgb(226, 226, 226); fill: transparent; stroke-width: 1; stroke-linecap: round; stroke-linejoin: round; pointer-events: none;"></line><line x1="578" x2="582" y1="214" y2="214" role="presentation" shape-rendering="auto" vector-effect="non-scaling-stroke" style="stroke: transparent; fill: transparent; size: 4px; stroke-width: 1; stroke-linecap: round; stroke-linejoin: round;"></line><text dx="0" dy="4.97" x="590" y="214"><tspan x="590" dx="0" text-anchor="start" style="fill: rgb(153, 153, 153); font-size: 14px; font-family: inherit; stroke: transparent; letter-spacing: normal; padding: 8px; stroke-width: 0;">$350K</tspan></text></g><g role="presentation"><line x1="578" x2="15" y1="154" y2="154" role="presentation" shape-rendering="auto" vector-effect="non-scaling-stroke" style="stroke: rgb(226, 226, 226); fill: transparent; stroke-width: 1; stroke-linecap: round; stroke-linejoin: round; pointer-events: none;"></line><line x1="578" x2="582" y1="154" y2="154" role="presentation" shape-rendering="auto" vector-effect="non-scaling-stroke" style="stroke: transparent; fill: transparent; size: 4px; stroke-width: 1; stroke-linecap: round; stroke-linejoin: round;"></line><text dx="0" dy="4.97" x="590" y="154"><tspan x="590" dx="0" text-anchor="start" style="fill: rgb(153, 153, 153); font-size: 14px; font-family: inherit; stroke: transparent; letter-spacing: normal; padding: 8px; stroke-width: 0;">$400K</tspan></text></g><g role="presentation"><line x1="578" x2="15" y1="94" y2="94" role="presentation" shape-rendering="auto" vector-effect="non-scaling-stroke" style="stroke: rgb(226, 226, 226); fill: transparent; stroke-width: 1; stroke-linecap: round; stroke-linejoin: round; pointer-events: none;"></line><line x1="578" x2="582" y1="94" y2="94" role="presentation" shape-rendering="auto" vector-effect="non-scaling-stroke" style="stroke: transparent; fill: transparent; size: 4px; stroke-width: 1; stroke-linecap: round; stroke-linejoin: round;"></line><text dx="0" dy="4.97" x="590" y="94"><tspan x="590" dx="0" text-anchor="start" style="fill: rgb(153, 153, 153); font-size: 14px; font-family: inherit; stroke: transparent; letter-spacing: normal; padding: 8px; stroke-width: 0;">$450K</tspan></text></g><g role="presentation"><line x1="578" x2="15" y1="34" y2="34" role="presentation" shape-rendering="auto" vector-effect="non-scaling-stroke" style="stroke: rgb(226, 226, 226); fill: transparent; stroke-width: 1; stroke-linecap: round; stroke-linejoin: round; pointer-events: none;"></line><line x1="578" x2="582" y1="34" y2="34" role="presentation" shape-rendering="auto" vector-effect="non-scaling-stroke" style="stroke: transparent; fill: transparent; size: 4px; stroke-width: 1; stroke-linecap: round; stroke-linejoin: round;"></line><text dx="0" dy="4.97" x="590" y="34"><tspan x="590" dx="0" text-anchor="start" style="fill: rgb(153, 153, 153); font-size: 14px; font-family: inherit; stroke: transparent; letter-spacing: normal; padding: 8px; stroke-width: 0;">$500K</tspan></text></g></g><g style="height: 100%; width: 100%; user-select: none;"><defs><clipPath id="victory-clip-5"><rect x="15" y="34" width="563" height="240"></rect></clipPath></defs><g clip-path="url(#victory-clip-5)"><path shape-rendering="auto" role="presentation" d="M15.30815544608648,220.66C18.389709906951285,232.32999999999998,21.471264367816094,244,24.5528188286809,244C27.73709177157453,244,30.921364714468165,227.4202,34.1056376573618,227.4202C37.28991060025543,227.4202,40.47418354314906,234.35410928961747,43.658456486042695,238C46.7400109469075,241.52828133262824,49.821565407772304,248.92000000000002,52.90311986863711,248.92000000000002C56.08739281153075,248.92000000000002,59.271665754424376,248.68,62.45593869731801,248.2C65.54177309493402,247.7348387096774,68.62760749255003,217,71.71344189016602,217C74.89771483305965,217,78.0819877759533,271,81.26626071884692,271C84.45053366174056,271,87.63480660463419,250,90.81907954752783,250C93.69519704433499,250,96.57131454114213,256,99.44743203794928,256C102.62742504409171,256,105.80741805023415,246.7,108.98741105637657,246.7C112.06896551724138,246.7,115.15051997810617,250,118.23207443897098,250C121.41634738186463,250,124.60062032475825,235.07189333333335,127.7848932676519,232.5952C130.8664477285167,230.1984,133.9480021893815,231.2034174510841,137.02955665024632,229C140.21382959313993,226.72313530054646,143.39810253603358,218.95,146.5823754789272,218.95C149.76664842182083,218.95,152.95092136471445,244,156.1351943076081,244C159.2167487684729,244,162.2983032293377,220,165.37985769020253,220C168.56413063309614,220,171.74840357598978,255.7,174.9326765188834,255.7C178.0185109164994,255.7,181.10434531411542,226,184.19017971173142,226C187.37445265462506,226,190.55872559751867,244.55,193.74299854041232,250C196.92727148330596,255.45000000000002,200.1115444261996,258.7,203.29581736909324,258.7C206.1719348659004,258.7,209.04805236270755,232,211.9241698595147,232C215.10416286565712,232,218.28415587179956,232.12,221.46414887794197,232.12C224.5457033388068,232.12,227.62725779967158,223,230.7088122605364,223C233.89308520343002,223,237.07735814632366,256,240.26163108921727,256C243.3431855500821,256,246.4247400109469,220,249.5062944718117,220C252.69056741470536,220,255.874840357599,221.365,259.05911330049264,224.095C262.2433862433863,226.825,265.42765918627987,242.03306666666668,268.6119321291735,245.038C271.69348659003833,247.946,274.7750410509031,249.4,277.8565955117679,249.4C281.04086845466156,249.4,284.22514139755515,244.10127600554785,287.4094143404488,244.06C290.4952487380648,244.02,293.58108313568084,244,296.66691753329684,244C299.8511904761905,244,303.03546341908407,245.8,306.2197363619777,245.8C309.40400930487135,245.8,312.588282247765,245.12300000000002,315.77255519065864,243.769C318.6486726874658,242.5460322580645,321.52479018427294,238,324.4009076810801,238C327.58090068722254,238,330.76089369336495,238.012,333.94088669950736,238.012C337.0224411603722,238.012,340.10399562123695,232.9,343.18555008210177,232.9C346.3698230249954,232.9,349.55409596788905,238,352.7383689107827,238C355.8199233716475,238,358.9014778325123,236.8,361.9830322933771,236.8C365.16730523627075,236.8,368.35157817916433,246.0844,371.535851122058,246.0844C374.7201240649516,246.0844,377.90439700784526,238,381.0886699507389,238C384.1702244116037,238,387.2517788724685,254.83870967741936,390.3333333333333,256C393.51760627622696,257.2,396.7018792191206,257.8,399.88615216201424,257.8C402.97198655963024,257.8,406.0578209572463,250,409.1436553548623,250C412.32792829775593,250,415.5122012406495,250.8,418.69647418354316,252.4C421.8807471264368,254,425.0650200693304,268,428.24929301222403,268C431.22812899106003,268,434.206964969896,247.9299192462988,437.185800948732,243.19C440.3657939548744,238.13,443.54578696101686,235.6,446.72577996715927,235.6C449.8073344280241,235.6,452.8888888888889,253.6,455.97044334975374,253.6C459.1547162926473,253.6,462.33898923554096,229.37273333333334,465.52326217843455,227.8C468.6048166392994,226.278,471.6863711001642,227.03900000000002,474.767925561029,225.517C477.95219850392266,223.94426666666666,481.1364714468163,213.50330000000002,484.32074438970994,209.8C487.50501733260353,206.09670000000006,490.68929027549717,203.2972,493.87356321839076,203.2972C496.9551176792556,203.2972,500.0366721401204,224.2,503.1182266009852,224.2C506.3024995438788,224.2,509.48677248677245,206.2,512.671045429666,206.2C515.7568798272821,206.2,518.8427142248981,214.12,521.9285486225142,214.12C525.1128215654078,214.12,528.2970945083015,198.466,531.4813674511951,198.466C534.6656403940887,198.466,537.8499133369824,202,541.0341862798759,202C543.9103037766831,202,546.7864212734902,166.1413189771198,549.6625387702974,161.8C552.8425317764398,157,556.0225247825822,155.8383333333333,559.2025177887247,154.6C562.2840722495895,153.4,565.3656267104543,154,568.4471811713191,152.8C571.6314541142127,151.56000000000003,574.8157270571064,139.29680000000002,578,127.0336" style="fill: transparent; stroke: rgb(51, 51, 51); stroke-width: 2; opacity: 1;"></path></g></g></svg>