<svg xmlns="http://www.w3.org/2000/svg" width="640" height="324" role="img" aria-labelledby="victory-container-4-title victory-container-4-desc" viewBox="0 0 640 324" style="pointer-events: all; width: 100%; height: 100%;"><g role="presentation"><line x1="15" x2="578" y1="274" y2="274" role="presentation" shape-rendering="auto" vector-effect="non-scaling-stroke" style="stroke: rgb(226, 226, 226); fill: transparent; stroke-width: 1; stroke-linejoin: round;"></line><g role="presentation"><line x1="81.26626071884692" x2="81.26626071884692" y1="274" y2="34" role="presentation" shape-rendering="auto" vector-effect="non-scaling-stroke" style="stroke: transparent; fill: transparent; stroke-width: 1; stroke-linecap: round; stroke-linejoin: round; pointer-events: none;"></line><line x1="81.26626071884692" x2="81.26626071884692" y1="274" y2="278" role="presentation" shape-rendering="auto" vector-effect="non-scaling-stroke" style="stroke: transparent; fill: transparent; size: 4px; stroke-width: 1; stroke-linecap: round; stroke-linejoin: round;"></line><text dx="0" dy="11.969999999999999" x="81.26626071884692" y="286"><tspan x="81.26626071884692" dx="0" text-anchor="middle" style="fill: rgb(153, 153, 153); font-size: 14px; font-family: inherit; stroke: transparent; letter-spacing: normal; padding: 8px; stroke-width: 0;">2017</tspan></text></g><g role="presentation"><line x1="193.74299854041232" x2="193.74299854041232" y1="274" y2="34" role="presentation" shape-rendering="auto" vector-effect="non-scaling-stroke" style="stroke: transparent; fill: transparent; stroke-width: 1; stroke-linecap: round; stroke-linejoin: round; pointer-events: none;"></line><line x1="193.74299854041232" x2="193.74299854041232" y1="274" y2="278" role="presentation" shape-rendering="auto" vector-effect="non-scaling-stroke" style="stroke: transparent; fill: transparent; size: 4px; stroke-width: 1; stroke-linecap: round; stroke-linejoin: round;"></line><text dx="0" dy="11.969999999999999" x="193.74299854041232" y="286"><tspan x="193.74299854041232" dx="0" text-anchor="middle" style="fill: rgb(153, 153, 153); font-size: 14px; font-family: inherit; stroke: transparent; letter-spacing: normal; padding: 8px; stroke-width: 0;">2018</tspan></text></g><g role="presentation"><line x1="306.2197363619777" x2="306.2197363619777" y1="274" y2="34" role="presentation" shape-rendering="auto" vector-effect="non-scaling-stroke" style="stroke: transparent; fill: transparent; stroke-width: 1; stroke-linecap: round; stroke-linejoin: round; pointer-events: none;"></line><line x1="306.2197363619777" x2="306.2197363619777" y1="274" y2="278" role="presentation" shape-rendering="auto" vector-effect="non-scaling-stroke" style="stroke: transparent; fill: transparent; size: 4px; stroke-width: 1; stroke-linecap: round; stroke-linejoin: round;"></line><text dx="0" dy="11.969999999999999" x="306.2197363619777" y="286"><tspan x="306.2197363619777" dx="0" text-anchor="middle" style="fill: rgb(153, 153, 153); font-size: 14px; font-family: inherit; stroke: transparent; letter-spacing: normal; padding: 8px; stroke-width: 0;">2019</tspan></text></g><g role="presentation"><line x1="418.69647418354316" x2="418.69647418354316" y1="274" y2="34" role="presentation" shape-rendering="auto" vector-effect="non-scaling-stroke" style="stroke: transparent; fill: transparent; stroke-width: 1; stroke-linecap: round; stroke-linejoin: round; pointer-events: none;"></line><line x1="418.69647418354316" x2="418.69647418354316" y1="274" y2="278" role="presentation" shape-rendering="auto" vector-effect="non-scaling-stroke" style="stroke: transparent; fill: transparent; size: 4px; stroke-width: 1; stroke-linecap: round; stroke-linejoin: round;"></line><text dx="0" dy="11.969999999999999" x="418.69647418354316" y="286"><tspan x="418.69647418354316" dx="0" text-anchor="middle" style="fill: rgb(153, 153, 153); font-size: 14px; font-family: inherit; stroke: transparent; letter-spacing: normal; padding: 8px; stroke-width: 0;">2020</tspan></text></g><g role="presentation"><line x1="531.4813674511951" x2="531.4813674511951" y1="274" y2="34" role="presentation" shape-rendering="auto" vector-effect="non-scaling-stroke" style="stroke: transparent; fill: transparent; stroke-width: 1; stroke-linecap: round; stroke-linejoin: round; pointer-events: none;"></line><line x1="531.4813674511951" x2="531.4813674511951" y1="274" y2="278" role="presentation" shape-rendering="auto" vector-effect="non-scaling-stroke" style="stroke: transparent; fill: transparent; size: 4px; stroke-width: 1; stroke-linecap: round; stroke-linejoin: round;"></line><text dx="0" dy="11.969999999999999" x="531.4813674511951" y="286"><tspan x="531.4813674511951" dx="0" text-anchor="middle" style="fill: rgb(153, 153, 153); font-size: 14px; font-family: inherit; stroke: transparent; letter-spacing: normal; padding: 8px; stroke-width: 0;">2021</tspan></text></g></g><g role="presentation"><line x1="578" x2="578" y1="34" y2="274" role="presentation" shape-rendering="auto" vector-effect="non-scaling-stroke" style="stroke: transparent; fill: transparent; stroke-width: 1; stroke-linejoin: round;"></line><g role="presentation"><line x1="578" x2="15" y1="274" y2="274" role="presentation" shape-rendering="auto" vector-effect="non-scaling-stroke" style="stroke: rgb(226, 226, 226); fill: transparent; stroke-width: 1; stroke-linecap: round; stroke-linejoin: round; pointer-events: none;"></line><line x1="578" x2="582" y1="274" y2="274" role="presentation" shape-rendering="auto" vector-effect="non-scaling-stroke" style="stroke: transparent; fill: transparent; size: 4px; stroke-width: 1; stroke-linecap: round; stroke-linejoin: round;"></line><text dx="0" dy="4.97" x="590" y="274"><tspan x="590" dx="0" text-anchor="start" style="fill: rgb(153, 153, 153); font-size: 14px; font-family: inherit; stroke: transparent; letter-spacing: normal; padding: 8px; stroke-width: 0;">$200K</tspan></text></g><g role="presentation"><line x1="578" x2="15" y1="214" y2="214" role="presentation" shape-rendering="auto" vector-effect="non-scaling-stroke" style="stroke: rgb(226, 226, 226); fill: transparent; stroke-width: 1; stroke-linecap: round; stroke-linejoin: round; pointer-events: none;"></line><line x1="578" x2="582" y1="214" y2="214" role="presentation" shape-rendering="auto" vector-effect="non-scaling-stroke" style="stroke: transparent; fill: transparent; size: 4px; stroke-width: 1; stroke-linecap: round; stroke-linejoin: round;"></line><text dx="0" dy="4.97" x="590" y="214"><tspan x="590" dx="0" text-anchor="start" style="fill: rgb(153, 153, 153); font-size: 14px; font-family: inherit; stroke: transparent; letter-spacing: normal; padding: 8px; stroke-width: 0;">$250K</tspan></text></g><g role="presentation"><line x1="578" x2="15" y1="154" y2="154" role="presentation" shape-rendering="auto" vector-effect="non-scaling-stroke" style="stroke: rgb(226, 226, 226); fill: transparent; stroke-width: 1; stroke-linecap: round; stroke-linejoin: round; pointer-events: none;"></line><line x1="578" x2="582" y1="154" y2="154" role="presentation" shape-rendering="auto" vector-effect="non-scaling-stroke" style="stroke: transparent; fill: transparent; size: 4px; stroke-width: 1; stroke-linecap: round; stroke-linejoin: round;"></line><text dx="0" dy="4.97" x="590" y="154"><tspan x="590" dx="0" text-anchor="start" style="fill: rgb(153, 153, 153); font-size: 14px; font-family: inherit; stroke: transparent; letter-spacing: normal; padding: 8px; stroke-width: 0;">$300K</tspan></text></g><g role="presentation"><line x1="578" x2="15" y1="94" y2="94" role="presentation" shape-rendering="auto" vector-effect="non-scaling-stroke" style="stroke: rgb(226, 226, 226); fill: transparent; stroke-width: 1; stroke-linecap: round; stroke-linejoin: round; pointer-events: none;"></line><line x1="578" x2="582" y1="94" y2="94" role="presentation" shape-rendering="auto" vector-effect="non-scaling-stroke" style="stroke: transparent; fill: transparent; size: 4px; stroke-width: 1; stroke-linecap: round; stroke-linejoin: round;"></line><text dx="0" dy="4.97" x="590" y="94"><tspan x="590" dx="0" text-anchor="start" style="fill: rgb(153, 153, 153); font-size: 14px; font-family: inherit; stroke: transparent; letter-spacing: normal; padding: 8px; stroke-width: 0;">$350K</tspan></text></g><g role="presentation"><line x1="578" x2="15" y1="34" y2="34" role="presentation" shape-rendering="auto" vector-effect="non-scaling-stroke" style="stroke: rgb(226, 226, 226); fill: transparent; stroke-width: 1; stroke-linecap: round; stroke-linejoin: round; pointer-events: none;"></line><line x1="578" x2="582" y1="34" y2="34" role="presentation" shape-rendering="auto" vector-effect="non-scaling-stroke" style="stroke: transparent; fill: transparent; size: 4px; stroke-width: 1; stroke-linecap: round; stroke-linejoin: round;"></line><text dx="0" dy="4.97" x="590" y="34"><tspan x="590" dx="0" text-anchor="start" style="fill: rgb(153, 153, 153); font-size: 14px; font-family: inherit; stroke: transparent; letter-spacing: normal; padding: 8px; stroke-width: 0;">$400K</tspan></text></g></g><g style="height: 100%; width: 100%; user-select: none;"><defs><clipPath id="victory-clip-5"><rect x="15" y="34" width="563" height="240"></rect></clipPath></defs><g clip-path="url(#victory-clip-5)"><path shape-rendering="auto" role="presentation" d="M15.30815544608648,226C18.389709906951285,234.4315,21.471264367816094,242.863,24.5528188286809,242.863C27.73709177157453,242.863,30.921364714468165,226.6,34.1056376573618,226.6C37.28991060025543,226.6,40.47418354314906,245.212,43.658456486042695,245.212C46.7400109469075,245.212,49.821565407772304,232,52.90311986863711,232C56.08739281153075,232,59.271665754424376,239.2,62.45593869731801,239.2C65.54177309493402,239.2,68.62760749255003,220,71.71344189016602,220C74.89771483305965,220,78.0819877759533,223.45600000000002,81.26626071884692,224.656C84.45053366174056,225.856,87.63480660463419,227.2,90.81907954752783,227.2C93.69519704433499,227.2,96.57131454114213,217,99.44743203794928,217C102.62742504409171,217,105.80741805023415,220,108.98741105637657,220C112.06896551724138,220,115.15051997810617,218.2,118.23207443897098,218.2C121.41634738186463,218.2,124.60062032475825,218.8,127.7848932676519,218.8C130.8664477285167,218.8,133.9480021893815,209.2,137.02955665024632,209.2C140.21382959313993,209.2,143.39810253603358,224,146.5823754789272,228.4C149.76664842182083,232.8,152.95092136471445,235.6,156.1351943076081,235.6C159.2167487684729,235.6,162.2983032293377,211.756,165.37985769020253,211.756C168.56413063309614,211.756,171.74840357598978,213.4,174.9326765188834,213.4C178.0185109164994,213.4,181.10434531411542,178,184.19017971173142,178C187.37445265462506,178,190.55872559751867,217.072,193.74299854041232,217.072C196.92727148330596,217.072,200.1115444261996,178.228,203.29581736909324,178.228C206.1719348659004,178.228,209.04805236270755,198.1452439250674,211.9241698595147,205C215.10416286565712,212.57899369594477,218.28415587179956,220.1482,221.46414887794197,220.1482C224.5457033388068,220.1482,227.62725779967158,202.012,230.7088122605364,202.012C233.89308520343002,202.012,237.07735814632366,232.012,240.26163108921727,232.012C243.3431855500821,232.012,246.4247400109469,218.05343416181915,249.5062944718117,212.8C252.69056741470536,207.37145136612023,255.874840357599,200.2,259.05911330049264,200.2C262.2433862433863,200.2,265.42765918627987,212.8,268.6119321291735,212.8C271.69348659003833,212.8,274.7750410509031,198.2606451612903,277.8565955117679,196.6C281.04086845466156,194.88400000000001,284.22514139755515,194.026,287.4094143404488,194.026C290.4952487380648,194.026,293.58108313568084,199.11885448640314,296.66691753329684,205C299.8511904761905,211.0687548711734,303.03546341908407,230.308,306.2197363619777,230.308C309.40400930487135,230.308,312.588282247765,194.2,315.77255519065864,194.2C318.6486726874658,194.2,321.52479018427294,223.11467025572003,324.4009076810801,224.2C327.58090068722254,225.4,330.76089369336495,224.79999999999998,333.94088669950736,226C337.0224411603722,227.1628532974428,340.10399562123695,232,343.18555008210177,232C346.3698230249954,232,349.55409596788905,225.6820478688525,352.7383689107827,222.63580000000002C355.8199233716475,219.68781819143314,358.9014778325123,214.00493548387095,361.9830322933771,214.003C365.16730523627075,214.001,368.35157817916433,214.00199999999998,371.535851122058,214C374.7201240649516,213.99800000000002,377.90439700784526,212.60260109289618,381.0886699507389,211.6C384.1702244116037,210.6297408778424,387.2517788724685,210.44,390.3333333333333,208.12C393.51760627622696,205.72266666666667,396.7018792191206,200.70089935385533,399.88615216201424,196.612C402.97198655963024,192.64950479283644,406.0578209572463,184.012,409.1436553548623,184.012C412.32792829775593,184.012,415.5122012406495,219.1,418.69647418354316,219.1C421.8807471264368,219.1,425.0650200693304,193,428.24929301222403,193C431.22812899106003,193,434.206964969896,214.0006,437.185800948732,214.0006C440.3657939548744,214.0006,443.54578696101686,172,446.72577996715927,172C449.8073344280241,172,452.8888888888889,196.006,455.97044334975374,196.006C459.1547162926473,196.006,462.33898923554096,193.7604601092896,465.52326217843455,192.226C468.6048166392994,190.74103860391327,471.6863711001642,187,474.767925561029,187C477.95219850392266,187,481.1364714468163,211.6006,484.32074438970994,211.6006C487.50501733260353,211.6006,490.68929027549717,205.02175999999997,493.87356321839076,203.7892C496.9551176792556,202.5964,500.0366721401204,203.1928,503.1182266009852,202C506.3024995438788,200.76744000000002,509.48677248677245,173.3272,512.671045429666,173.3272C515.7568798272821,173.3272,518.8427142248981,196,521.9285486225142,196C525.1128215654078,196,528.2970945083015,195,531.4813674511951,193C534.6656403940887,191,537.8499133369824,183.68708389830508,541.0341862798759,180.07659999999998C543.9103037766831,176.81551776927282,546.7864212734902,176.63511627277438,549.6625387702974,172C552.8425317764398,166.87516162102474,556.0225247825822,156.6814444634313,559.2025177887247,149.5C562.2840722495895,142.54086135441378,565.3656267104543,135.87444738233742,568.4471811713191,129.52C571.6314541142127,122.95373770491807,574.8157270571064,116.87686885245903,578,110.79999999999998" style="fill: transparent; stroke: rgb(51, 51, 51); stroke-width: 2; opacity: 1;"></path></g></g></svg>