<svg xmlns="http://www.w3.org/2000/svg" width="640" height="324" role="img" aria-labelledby="victory-container-4-title victory-container-4-desc" viewBox="0 0 640 324" style="pointer-events: all; width: 100%; height: 100%;"><g role="presentation"><line x1="15" x2="578" y1="274" y2="274" role="presentation" shape-rendering="auto" vector-effect="non-scaling-stroke" style="stroke: rgb(226, 226, 226); fill: transparent; stroke-width: 1; stroke-linejoin: round;"></line><g role="presentation"><line x1="81.26626071884692" x2="81.26626071884692" y1="274" y2="34" role="presentation" shape-rendering="auto" vector-effect="non-scaling-stroke" style="stroke: transparent; fill: transparent; stroke-width: 1; stroke-linecap: round; stroke-linejoin: round; pointer-events: none;"></line><line x1="81.26626071884692" x2="81.26626071884692" y1="274" y2="278" role="presentation" shape-rendering="auto" vector-effect="non-scaling-stroke" style="stroke: transparent; fill: transparent; size: 4px; stroke-width: 1; stroke-linecap: round; stroke-linejoin: round;"></line><text dx="0" dy="11.969999999999999" x="81.26626071884692" y="286"><tspan x="81.26626071884692" dx="0" text-anchor="middle" style="fill: rgb(153, 153, 153); font-size: 14px; font-family: inherit; stroke: transparent; letter-spacing: normal; padding: 8px; stroke-width: 0;">2017</tspan></text></g><g role="presentation"><line x1="193.74299854041232" x2="193.74299854041232" y1="274" y2="34" role="presentation" shape-rendering="auto" vector-effect="non-scaling-stroke" style="stroke: transparent; fill: transparent; stroke-width: 1; stroke-linecap: round; stroke-linejoin: round; pointer-events: none;"></line><line x1="193.74299854041232" x2="193.74299854041232" y1="274" y2="278" role="presentation" shape-rendering="auto" vector-effect="non-scaling-stroke" style="stroke: transparent; fill: transparent; size: 4px; stroke-width: 1; stroke-linecap: round; stroke-linejoin: round;"></line><text dx="0" dy="11.969999999999999" x="193.74299854041232" y="286"><tspan x="193.74299854041232" dx="0" text-anchor="middle" style="fill: rgb(153, 153, 153); font-size: 14px; font-family: inherit; stroke: transparent; letter-spacing: normal; padding: 8px; stroke-width: 0;">2018</tspan></text></g><g role="presentation"><line x1="306.2197363619777" x2="306.2197363619777" y1="274" y2="34" role="presentation" shape-rendering="auto" vector-effect="non-scaling-stroke" style="stroke: transparent; fill: transparent; stroke-width: 1; stroke-linecap: round; stroke-linejoin: round; pointer-events: none;"></line><line x1="306.2197363619777" x2="306.2197363619777" y1="274" y2="278" role="presentation" shape-rendering="auto" vector-effect="non-scaling-stroke" style="stroke: transparent; fill: transparent; size: 4px; stroke-width: 1; stroke-linecap: round; stroke-linejoin: round;"></line><text dx="0" dy="11.969999999999999" x="306.2197363619777" y="286"><tspan x="306.2197363619777" dx="0" text-anchor="middle" style="fill: rgb(153, 153, 153); font-size: 14px; font-family: inherit; stroke: transparent; letter-spacing: normal; padding: 8px; stroke-width: 0;">2019</tspan></text></g><g role="presentation"><line x1="418.69647418354316" x2="418.69647418354316" y1="274" y2="34" role="presentation" shape-rendering="auto" vector-effect="non-scaling-stroke" style="stroke: transparent; fill: transparent; stroke-width: 1; stroke-linecap: round; stroke-linejoin: round; pointer-events: none;"></line><line x1="418.69647418354316" x2="418.69647418354316" y1="274" y2="278" role="presentation" shape-rendering="auto" vector-effect="non-scaling-stroke" style="stroke: transparent; fill: transparent; size: 4px; stroke-width: 1; stroke-linecap: round; stroke-linejoin: round;"></line><text dx="0" dy="11.969999999999999" x="418.69647418354316" y="286"><tspan x="418.69647418354316" dx="0" text-anchor="middle" style="fill: rgb(153, 153, 153); font-size: 14px; font-family: inherit; stroke: transparent; letter-spacing: normal; padding: 8px; stroke-width: 0;">2020</tspan></text></g><g role="presentation"><line x1="531.4813674511951" x2="531.4813674511951" y1="274" y2="34" role="presentation" shape-rendering="auto" vector-effect="non-scaling-stroke" style="stroke: transparent; fill: transparent; stroke-width: 1; stroke-linecap: round; stroke-linejoin: round; pointer-events: none;"></line><line x1="531.4813674511951" x2="531.4813674511951" y1="274" y2="278" role="presentation" shape-rendering="auto" vector-effect="non-scaling-stroke" style="stroke: transparent; fill: transparent; size: 4px; stroke-width: 1; stroke-linecap: round; stroke-linejoin: round;"></line><text dx="0" dy="11.969999999999999" x="531.4813674511951" y="286"><tspan x="531.4813674511951" dx="0" text-anchor="middle" style="fill: rgb(153, 153, 153); font-size: 14px; font-family: inherit; stroke: transparent; letter-spacing: normal; padding: 8px; stroke-width: 0;">2021</tspan></text></g></g><g role="presentation"><line x1="578" x2="578" y1="34" y2="274" role="presentation" shape-rendering="auto" vector-effect="non-scaling-stroke" style="stroke: transparent; fill: transparent; stroke-width: 1; stroke-linejoin: round;"></line><g role="presentation"><line x1="578" x2="15" y1="274" y2="274" role="presentation" shape-rendering="auto" vector-effect="non-scaling-stroke" style="stroke: rgb(226, 226, 226); fill: transparent; stroke-width: 1; stroke-linecap: round; stroke-linejoin: round; pointer-events: none;"></line><line x1="578" x2="582" y1="274" y2="274" role="presentation" shape-rendering="auto" vector-effect="non-scaling-stroke" style="stroke: transparent; fill: transparent; size: 4px; stroke-width: 1; stroke-linecap: round; stroke-linejoin: round;"></line><text dx="0" dy="4.97" x="590" y="274"><tspan x="590" dx="0" text-anchor="start" style="fill: rgb(153, 153, 153); font-size: 14px; font-family: inherit; stroke: transparent; letter-spacing: normal; padding: 8px; stroke-width: 0;">$100K</tspan></text></g><g role="presentation"><line x1="578" x2="15" y1="214" y2="214" role="presentation" shape-rendering="auto" vector-effect="non-scaling-stroke" style="stroke: rgb(226, 226, 226); fill: transparent; stroke-width: 1; stroke-linecap: round; stroke-linejoin: round; pointer-events: none;"></line><line x1="578" x2="582" y1="214" y2="214" role="presentation" shape-rendering="auto" vector-effect="non-scaling-stroke" style="stroke: transparent; fill: transparent; size: 4px; stroke-width: 1; stroke-linecap: round; stroke-linejoin: round;"></line><text dx="0" dy="4.97" x="590" y="214"><tspan x="590" dx="0" text-anchor="start" style="fill: rgb(153, 153, 153); font-size: 14px; font-family: inherit; stroke: transparent; letter-spacing: normal; padding: 8px; stroke-width: 0;">$150K</tspan></text></g><g role="presentation"><line x1="578" x2="15" y1="154" y2="154" role="presentation" shape-rendering="auto" vector-effect="non-scaling-stroke" style="stroke: rgb(226, 226, 226); fill: transparent; stroke-width: 1; stroke-linecap: round; stroke-linejoin: round; pointer-events: none;"></line><line x1="578" x2="582" y1="154" y2="154" role="presentation" shape-rendering="auto" vector-effect="non-scaling-stroke" style="stroke: transparent; fill: transparent; size: 4px; stroke-width: 1; stroke-linecap: round; stroke-linejoin: round;"></line><text dx="0" dy="4.97" x="590" y="154"><tspan x="590" dx="0" text-anchor="start" style="fill: rgb(153, 153, 153); font-size: 14px; font-family: inherit; stroke: transparent; letter-spacing: normal; padding: 8px; stroke-width: 0;">$200K</tspan></text></g><g role="presentation"><line x1="578" x2="15" y1="94" y2="94" role="presentation" shape-rendering="auto" vector-effect="non-scaling-stroke" style="stroke: rgb(226, 226, 226); fill: transparent; stroke-width: 1; stroke-linecap: round; stroke-linejoin: round; pointer-events: none;"></line><line x1="578" x2="582" y1="94" y2="94" role="presentation" shape-rendering="auto" vector-effect="non-scaling-stroke" style="stroke: transparent; fill: transparent; size: 4px; stroke-width: 1; stroke-linecap: round; stroke-linejoin: round;"></line><text dx="0" dy="4.97" x="590" y="94"><tspan x="590" dx="0" text-anchor="start" style="fill: rgb(153, 153, 153); font-size: 14px; font-family: inherit; stroke: transparent; letter-spacing: normal; padding: 8px; stroke-width: 0;">$250K</tspan></text></g><g role="presentation"><line x1="578" x2="15" y1="34" y2="34" role="presentation" shape-rendering="auto" vector-effect="non-scaling-stroke" style="stroke: rgb(226, 226, 226); fill: transparent; stroke-width: 1; stroke-linecap: round; stroke-linejoin: round; pointer-events: none;"></line><line x1="578" x2="582" y1="34" y2="34" role="presentation" shape-rendering="auto" vector-effect="non-scaling-stroke" style="stroke: transparent; fill: transparent; size: 4px; stroke-width: 1; stroke-linecap: round; stroke-linejoin: round;"></line><text dx="0" dy="4.97" x="590" y="34"><tspan x="590" dx="0" text-anchor="start" style="fill: rgb(153, 153, 153); font-size: 14px; font-family: inherit; stroke: transparent; letter-spacing: normal; padding: 8px; stroke-width: 0;">$300K</tspan></text></g></g><g style="height: 100%; width: 100%; user-select: none;"><defs><clipPath id="victory-clip-5"><rect x="15" y="34" width="563" height="240"></rect></clipPath></defs><g clip-path="url(#victory-clip-5)"><path shape-rendering="auto" role="presentation" d="M24.5528188286809,112C27.73709177157453,123.16000000000001,30.921364714468165,134.32000000000002,34.1056376573618,134.32000000000002C37.28991060025543,134.32000000000002,40.47418354314906,109,43.658456486042695,109C46.7400109469075,109,49.821565407772304,150.39999999999998,52.90311986863711,150.39999999999998C56.08739281153075,150.39999999999998,59.271665754424376,144.74055128211197,62.45593869731801,142C65.54177309493402,139.34417006128666,68.62760749255003,134.2,71.71344189016602,134.2C74.89771483305965,134.2,78.0819877759533,141.6952,81.26626071884692,144.0952C84.45053366174056,146.4952,87.63480660463419,148.60000000000002,90.81907954752783,148.60000000000002C93.69519704433499,148.60000000000002,96.57131454114213,107.20000000000002,99.44743203794928,107.20000000000002C102.62742504409171,107.20000000000002,105.80741805023415,140.79999999999998,108.98741105637657,140.79999999999998C112.06896551724138,140.79999999999998,115.15051997810617,129.91433104177682,118.23207443897098,124.6C121.41634738186463,119.10852459016392,124.60062032475825,108.4,127.7848932676519,108.4C130.8664477285167,108.4,133.9480021893815,118.9,137.02955665024632,118.9C140.21382959313993,118.9,143.39810253603358,118,146.5823754789272,118C149.76664842182083,118,152.95092136471445,124.25180327868854,156.1351943076081,130C159.2167487684729,135.562771020624,162.2983032293377,151.6,165.37985769020253,151.6C168.56413063309614,151.6,171.74840357598978,137.20000000000002,174.9326765188834,137.20000000000002C178.0185109164994,137.20000000000002,181.10434531411542,166,184.19017971173142,166C187.37445265462506,166,190.55872559751867,141.40000000000003,193.74299854041232,133.60000000000002C196.92727148330596,125.8,200.1115444261996,119.19999999999999,203.29581736909324,119.19999999999999C206.1719348659004,119.19999999999999,209.04805236270755,126.39156280764163,211.9241698595147,130C215.10416286565712,133.98968576476526,218.28415587179956,142,221.46414887794197,142C224.5457033388068,142,227.62725779967158,131.75272342675834,230.7088122605364,127.6C233.89308520343002,123.3088524590164,237.07735814632366,116.79999999999998,240.26163108921727,116.79999999999998C243.3431855500821,116.79999999999998,246.4247400109469,142,249.5062944718117,142C252.69056741470536,142,255.874840357599,123.4,259.05911330049264,123.4C262.2433862433863,123.4,265.42765918627987,124,268.6119321291735,124C271.69348659003833,124,274.7750410509031,100,277.8565955117679,100C281.04086845466156,100,284.22514139755515,133.60000000000002,287.4094143404488,133.60000000000002C290.4952487380648,133.60000000000002,293.58108313568084,116.85999999999999,296.66691753329684,116.85999999999999C299.8511904761905,116.85999999999999,303.03546341908407,122.91000000000004,306.2197363619777,128.8C309.40400930487135,134.69000000000003,312.588282247765,152.20000000000002,315.77255519065864,152.20000000000002C318.6486726874658,152.20000000000002,321.52479018427294,143.74030123318224,324.4009076810801,140.79999999999998C327.58090068722254,137.5490419400976,330.76089369336495,138.6,333.94088669950736,134.2C337.0224411603722,129.93620457604302,340.10399562123695,67.9,343.18555008210177,67.9C346.3698230249954,67.9,349.55409596788905,109.6,352.7383689107827,109.6C355.8199233716475,109.6,358.9014778325123,104.875,361.9830322933771,104.875C365.16730523627075,104.875,368.35157817916433,107.61250000000001,371.535851122058,110.5C374.7201240649516,113.3875,377.90439700784526,122.20000000000002,381.0886699507389,122.20000000000002C384.1702244116037,122.20000000000002,387.2517788724685,91.6,390.3333333333333,91.6C393.51760627622696,91.6,396.7018792191206,124,399.88615216201424,124C402.97198655963024,124,406.0578209572463,121.88145161290325,409.1436553548623,121.30000000000001C412.32792829775593,120.7,415.5122012406495,121.00000000000001,418.69647418354316,120.4C421.8807471264368,119.8,425.0650200693304,109,428.24929301222403,109C431.22812899106003,109,434.206964969896,116.14000000000001,437.185800948732,116.14000000000001C440.3657939548744,116.14000000000001,443.54578696101686,52.06,446.72577996715927,52.06C449.8073344280241,52.06,452.8888888888889,115,455.97044334975374,115C459.1547162926473,115,462.33898923554096,103,465.52326217843455,103C468.6048166392994,103,471.6863711001642,109.52353252247488,474.767925561029,112C477.95219850392266,114.55901639344262,481.1364714468163,118,484.32074438970994,118C487.50501733260353,118,490.68929027549717,107.15191256830595,493.87356321839076,100C496.9551176792556,93.07879428873608,500.0366721401204,76,503.1182266009852,76C506.3024995438788,76,509.48677248677245,91.6,512.671045429666,91.6C515.7568798272821,91.6,518.8427142248981,90.76000000000002,521.9285486225142,90.76000000000002C525.1128215654078,90.76000000000002,528.2970945083015,99.7174,531.4813674511951,99.7174C534.6656403940887,99.7174,537.8499133369824,76,541.0341862798759,76C543.9103037766831,76,546.7864212734902,76,549.6625387702974,76C552.8425317764398,76,556.0225247825822,43,559.2025177887247,43C562.2840722495895,43,565.3656267104543,66.4,568.4471811713191,66.4C571.6314541142127,66.4,574.8157270571064,62.2,578,58" style="fill: transparent; stroke: rgb(51, 51, 51); stroke-width: 2; opacity: 1;"></path></g></g></svg>