<svg xmlns="http://www.w3.org/2000/svg" width="640" height="324" role="img" aria-labelledby="victory-container-4-title victory-container-4-desc" viewBox="0 0 640 324" style="pointer-events: all; width: 100%; height: 100%;"><g role="presentation"><line x1="15" x2="578" y1="274" y2="274" role="presentation" shape-rendering="auto" vector-effect="non-scaling-stroke" style="stroke: rgb(226, 226, 226); fill: transparent; stroke-width: 1; stroke-linejoin: round;"></line><g role="presentation"><line x1="81.26626071884692" x2="81.26626071884692" y1="274" y2="34" role="presentation" shape-rendering="auto" vector-effect="non-scaling-stroke" style="stroke: transparent; fill: transparent; stroke-width: 1; stroke-linecap: round; stroke-linejoin: round; pointer-events: none;"></line><line x1="81.26626071884692" x2="81.26626071884692" y1="274" y2="278" role="presentation" shape-rendering="auto" vector-effect="non-scaling-stroke" style="stroke: transparent; fill: transparent; size: 4px; stroke-width: 1; stroke-linecap: round; stroke-linejoin: round;"></line><text dx="0" dy="11.969999999999999" x="81.26626071884692" y="286"><tspan x="81.26626071884692" dx="0" text-anchor="middle" style="fill: rgb(153, 153, 153); font-size: 14px; font-family: inherit; stroke: transparent; letter-spacing: normal; padding: 8px; stroke-width: 0;">2017</tspan></text></g><g role="presentation"><line x1="193.74299854041232" x2="193.74299854041232" y1="274" y2="34" role="presentation" shape-rendering="auto" vector-effect="non-scaling-stroke" style="stroke: transparent; fill: transparent; stroke-width: 1; stroke-linecap: round; stroke-linejoin: round; pointer-events: none;"></line><line x1="193.74299854041232" x2="193.74299854041232" y1="274" y2="278" role="presentation" shape-rendering="auto" vector-effect="non-scaling-stroke" style="stroke: transparent; fill: transparent; size: 4px; stroke-width: 1; stroke-linecap: round; stroke-linejoin: round;"></line><text dx="0" dy="11.969999999999999" x="193.74299854041232" y="286"><tspan x="193.74299854041232" dx="0" text-anchor="middle" style="fill: rgb(153, 153, 153); font-size: 14px; font-family: inherit; stroke: transparent; letter-spacing: normal; padding: 8px; stroke-width: 0;">2018</tspan></text></g><g role="presentation"><line x1="306.2197363619777" x2="306.2197363619777" y1="274" y2="34" role="presentation" shape-rendering="auto" vector-effect="non-scaling-stroke" style="stroke: transparent; fill: transparent; stroke-width: 1; stroke-linecap: round; stroke-linejoin: round; pointer-events: none;"></line><line x1="306.2197363619777" x2="306.2197363619777" y1="274" y2="278" role="presentation" shape-rendering="auto" vector-effect="non-scaling-stroke" style="stroke: transparent; fill: transparent; size: 4px; stroke-width: 1; stroke-linecap: round; stroke-linejoin: round;"></line><text dx="0" dy="11.969999999999999" x="306.2197363619777" y="286"><tspan x="306.2197363619777" dx="0" text-anchor="middle" style="fill: rgb(153, 153, 153); font-size: 14px; font-family: inherit; stroke: transparent; letter-spacing: normal; padding: 8px; stroke-width: 0;">2019</tspan></text></g><g role="presentation"><line x1="418.69647418354316" x2="418.69647418354316" y1="274" y2="34" role="presentation" shape-rendering="auto" vector-effect="non-scaling-stroke" style="stroke: transparent; fill: transparent; stroke-width: 1; stroke-linecap: round; stroke-linejoin: round; pointer-events: none;"></line><line x1="418.69647418354316" x2="418.69647418354316" y1="274" y2="278" role="presentation" shape-rendering="auto" vector-effect="non-scaling-stroke" style="stroke: transparent; fill: transparent; size: 4px; stroke-width: 1; stroke-linecap: round; stroke-linejoin: round;"></line><text dx="0" dy="11.969999999999999" x="418.69647418354316" y="286"><tspan x="418.69647418354316" dx="0" text-anchor="middle" style="fill: rgb(153, 153, 153); font-size: 14px; font-family: inherit; stroke: transparent; letter-spacing: normal; padding: 8px; stroke-width: 0;">2020</tspan></text></g><g role="presentation"><line x1="531.4813674511951" x2="531.4813674511951" y1="274" y2="34" role="presentation" shape-rendering="auto" vector-effect="non-scaling-stroke" style="stroke: transparent; fill: transparent; stroke-width: 1; stroke-linecap: round; stroke-linejoin: round; pointer-events: none;"></line><line x1="531.4813674511951" x2="531.4813674511951" y1="274" y2="278" role="presentation" shape-rendering="auto" vector-effect="non-scaling-stroke" style="stroke: transparent; fill: transparent; size: 4px; stroke-width: 1; stroke-linecap: round; stroke-linejoin: round;"></line><text dx="0" dy="11.969999999999999" x="531.4813674511951" y="286"><tspan x="531.4813674511951" dx="0" text-anchor="middle" style="fill: rgb(153, 153, 153); font-size: 14px; font-family: inherit; stroke: transparent; letter-spacing: normal; padding: 8px; stroke-width: 0;">2021</tspan></text></g></g><g role="presentation"><line x1="578" x2="578" y1="34" y2="274" role="presentation" shape-rendering="auto" vector-effect="non-scaling-stroke" style="stroke: transparent; fill: transparent; stroke-width: 1; stroke-linejoin: round;"></line><g role="presentation"><line x1="578" x2="15" y1="274" y2="274" role="presentation" shape-rendering="auto" vector-effect="non-scaling-stroke" style="stroke: rgb(226, 226, 226); fill: transparent; stroke-width: 1; stroke-linecap: round; stroke-linejoin: round; pointer-events: none;"></line><line x1="578" x2="582" y1="274" y2="274" role="presentation" shape-rendering="auto" vector-effect="non-scaling-stroke" style="stroke: transparent; fill: transparent; size: 4px; stroke-width: 1; stroke-linecap: round; stroke-linejoin: round;"></line><text dx="0" dy="4.97" x="590" y="274"><tspan x="590" dx="0" text-anchor="start" style="fill: rgb(153, 153, 153); font-size: 14px; font-family: inherit; stroke: transparent; letter-spacing: normal; padding: 8px; stroke-width: 0;">$100K</tspan></text></g><g role="presentation"><line x1="578" x2="15" y1="226" y2="226" role="presentation" shape-rendering="auto" vector-effect="non-scaling-stroke" style="stroke: rgb(226, 226, 226); fill: transparent; stroke-width: 1; stroke-linecap: round; stroke-linejoin: round; pointer-events: none;"></line><line x1="578" x2="582" y1="226" y2="226" role="presentation" shape-rendering="auto" vector-effect="non-scaling-stroke" style="stroke: transparent; fill: transparent; size: 4px; stroke-width: 1; stroke-linecap: round; stroke-linejoin: round;"></line><text dx="0" dy="4.97" x="590" y="226"><tspan x="590" dx="0" text-anchor="start" style="fill: rgb(153, 153, 153); font-size: 14px; font-family: inherit; stroke: transparent; letter-spacing: normal; padding: 8px; stroke-width: 0;">$120K</tspan></text></g><g role="presentation"><line x1="578" x2="15" y1="178" y2="178" role="presentation" shape-rendering="auto" vector-effect="non-scaling-stroke" style="stroke: rgb(226, 226, 226); fill: transparent; stroke-width: 1; stroke-linecap: round; stroke-linejoin: round; pointer-events: none;"></line><line x1="578" x2="582" y1="178" y2="178" role="presentation" shape-rendering="auto" vector-effect="non-scaling-stroke" style="stroke: transparent; fill: transparent; size: 4px; stroke-width: 1; stroke-linecap: round; stroke-linejoin: round;"></line><text dx="0" dy="4.97" x="590" y="178"><tspan x="590" dx="0" text-anchor="start" style="fill: rgb(153, 153, 153); font-size: 14px; font-family: inherit; stroke: transparent; letter-spacing: normal; padding: 8px; stroke-width: 0;">$140K</tspan></text></g><g role="presentation"><line x1="578" x2="15" y1="130" y2="130" role="presentation" shape-rendering="auto" vector-effect="non-scaling-stroke" style="stroke: rgb(226, 226, 226); fill: transparent; stroke-width: 1; stroke-linecap: round; stroke-linejoin: round; pointer-events: none;"></line><line x1="578" x2="582" y1="130" y2="130" role="presentation" shape-rendering="auto" vector-effect="non-scaling-stroke" style="stroke: transparent; fill: transparent; size: 4px; stroke-width: 1; stroke-linecap: round; stroke-linejoin: round;"></line><text dx="0" dy="4.97" x="590" y="130"><tspan x="590" dx="0" text-anchor="start" style="fill: rgb(153, 153, 153); font-size: 14px; font-family: inherit; stroke: transparent; letter-spacing: normal; padding: 8px; stroke-width: 0;">$160K</tspan></text></g><g role="presentation"><line x1="578" x2="15" y1="82" y2="82" role="presentation" shape-rendering="auto" vector-effect="non-scaling-stroke" style="stroke: rgb(226, 226, 226); fill: transparent; stroke-width: 1; stroke-linecap: round; stroke-linejoin: round; pointer-events: none;"></line><line x1="578" x2="582" y1="82" y2="82" role="presentation" shape-rendering="auto" vector-effect="non-scaling-stroke" style="stroke: transparent; fill: transparent; size: 4px; stroke-width: 1; stroke-linecap: round; stroke-linejoin: round;"></line><text dx="0" dy="4.97" x="590" y="82"><tspan x="590" dx="0" text-anchor="start" style="fill: rgb(153, 153, 153); font-size: 14px; font-family: inherit; stroke: transparent; letter-spacing: normal; padding: 8px; stroke-width: 0;">$180K</tspan></text></g><g role="presentation"><line x1="578" x2="15" y1="34" y2="34" role="presentation" shape-rendering="auto" vector-effect="non-scaling-stroke" style="stroke: rgb(226, 226, 226); fill: transparent; stroke-width: 1; stroke-linecap: round; stroke-linejoin: round; pointer-events: none;"></line><line x1="578" x2="582" y1="34" y2="34" role="presentation" shape-rendering="auto" vector-effect="non-scaling-stroke" style="stroke: transparent; fill: transparent; size: 4px; stroke-width: 1; stroke-linecap: round; stroke-linejoin: round;"></line><text dx="0" dy="4.97" x="590" y="34"><tspan x="590" dx="0" text-anchor="start" style="fill: rgb(153, 153, 153); font-size: 14px; font-family: inherit; stroke: transparent; letter-spacing: normal; padding: 8px; stroke-width: 0;">$200K</tspan></text></g></g><g style="height: 100%; width: 100%; user-select: none;"><defs><clipPath id="victory-clip-5"><rect x="15" y="34" width="563" height="240"></rect></clipPath></defs><g clip-path="url(#victory-clip-5)"><path shape-rendering="auto" role="presentation" d="M24.5528188286809,202C27.73709177157453,208,30.921364714468165,214,34.1056376573618,214C37.28991060025543,214,40.47418354314906,178,43.658456486042695,178C46.7400109469075,178,49.821565407772304,196.04869381279747,52.90311986863711,204.52C56.08739281153075,213.2736830601093,59.271665754424376,229.6,62.45593869731801,229.6C65.54177309493402,229.6,68.62760749255003,210.12827956989247,71.71344189016602,207.88C74.89771483305965,205.56,78.0819877759533,204.4,81.26626071884692,204.4C84.45053366174056,204.4,87.63480660463419,210.40305084745762,90.81907954752783,214.24C93.69519704433499,217.70563149261892,96.57131454114213,226,99.44743203794928,226C102.62742504409171,226,105.80741805023415,226,108.98741105637657,226C112.06896551724138,226,115.15051997810617,193.6,118.23207443897098,193.6C121.41634738186463,193.6,124.60062032475825,210.88,127.7848932676519,210.88C130.8664477285167,210.88,133.9480021893815,202,137.02955665024632,202C140.21382959313993,202,143.39810253603358,204.4,146.5823754789272,204.4C149.76664842182083,204.4,152.95092136471445,194.02008743169398,156.1351943076081,190C159.2167487684729,186.10959280803806,162.2983032293377,186.84,165.37985769020253,180.51999999999998C168.56413063309614,173.98933333333335,171.74840357598978,103.60000000000002,174.9326765188834,103.60000000000002C178.0185109164994,103.60000000000002,181.10434531411542,226,184.19017971173142,226C187.37445265462506,226,190.55872559751867,185.79999999999998,193.74299854041232,172C196.92727148330596,158.19999999999996,200.1115444261996,143.2,203.29581736909324,143.2C206.1719348659004,143.2,209.04805236270755,212.5528936742934,211.9241698595147,214C215.10416286565712,215.6,218.28415587179956,216.4,221.46414887794197,216.4C224.5457033388068,216.4,227.62725779967158,158.8,230.7088122605364,158.8C233.89308520343002,158.8,237.07735814632366,178,240.26163108921727,178C243.3431855500821,178,246.4247400109469,164.8,249.5062944718117,164.8C252.69056741470536,164.8,255.874840357599,175.32,259.05911330049264,179.32C262.2433862433863,183.31999999999996,265.42765918627987,188.8,268.6119321291735,188.8C271.69348659003833,188.8,274.7750410509031,156.4,277.8565955117679,156.4C281.04086845466156,156.4,284.22514139755515,178,287.4094143404488,178C290.4952487380648,178,293.58108313568084,167.2,296.66691753329684,167.2C299.8511904761905,167.2,303.03546341908407,176.8,306.2197363619777,176.8C309.40400930487135,176.8,312.588282247765,124.47999999999999,315.77255519065864,124.47999999999999C318.6486726874658,124.47999999999999,321.52479018427294,129.0248408277016,324.4009076810801,134.8C327.58090068722254,141.18533223960964,330.76089369336495,162.51999999999998,333.94088669950736,162.51999999999998C337.0224411603722,162.51999999999998,340.10399562123695,146.8,343.18555008210177,146.8C346.3698230249954,146.8,349.55409596788905,154,352.7383689107827,154C355.8199233716475,154,358.9014778325123,141.15007932310948,361.9830322933771,137.20000000000002C365.16730523627075,133.11825136612023,368.35157817916433,130.24,371.535851122058,130.24C374.7201240649516,130.24,377.90439700784526,144.39999999999998,381.0886699507389,144.39999999999998C384.1702244116037,144.39999999999998,387.2517788724685,137.12981491274454,390.3333333333333,128.92C393.51760627622696,120.43652459016393,396.7018792191206,93.70000000000002,399.88615216201424,93.70000000000002C402.97198655963024,93.70000000000002,406.0578209572463,99.97336379316673,409.1436553548623,102.4C412.32792829775593,104.9040462383966,415.5122012406495,104.4,418.69647418354316,108.4C421.8807471264368,112.4,425.0650200693304,124.17931034482758,428.24929301222403,127.6C431.22812899106003,130.8,434.206964969896,132.4,437.185800948732,132.4C440.3657939548744,132.4,443.54578696101686,130.4,446.72577996715927,126.4C449.8073344280241,122.52382234185731,452.8888888888889,94.168,455.97044334975374,94.168C459.1547162926473,94.168,462.33898923554096,136,465.52326217843455,136C468.6048166392994,136,471.6863711001642,118.24000000000001,474.767925561029,118.24000000000001C477.95219850392266,118.24000000000001,481.1364714468163,126.4,484.32074438970994,126.4C487.50501733260353,126.4,490.68929027549717,125.44371584699452,493.87356321839076,124C496.9551176792556,122.60285563194077,500.0366721401204,120.44420941300902,503.1182266009852,118C506.3024995438788,115.47431693989073,509.48677248677245,112.25822156371738,512.671045429666,109C515.7568798272821,105.84250302763401,518.8427142248981,98.80000000000001,521.9285486225142,98.80000000000001C525.1128215654078,98.80000000000001,528.2970945083015,174.4,531.4813674511951,174.4C534.6656403940887,174.4,537.8499133369824,109.68571428571428,541.0341862798759,96.4C543.9103037766831,84.4,546.7864212734902,83.09683728937695,549.6625387702974,78.4C552.8425317764398,73.20691948510853,556.0225247825822,74.61254082175131,559.2025177887247,67.6C562.2840722495895,60.8045364849785,565.3656267104543,37.599999999999994,568.4471811713191,37.599999999999994C571.6314541142127,37.599999999999994,574.8157270571064,43,578,48.400000000000006" style="fill: transparent; stroke: rgb(51, 51, 51); stroke-width: 2; opacity: 1;"></path></g></g></svg>