<svg xmlns="http://www.w3.org/2000/svg" width="640" height="324" role="img" aria-labelledby="victory-container-4-title victory-container-4-desc" viewBox="0 0 640 324" style="pointer-events: all; width: 100%; height: 100%;"><g role="presentation"><line x1="15" x2="578" y1="274" y2="274" role="presentation" shape-rendering="auto" vector-effect="non-scaling-stroke" style="stroke: rgb(226, 226, 226); fill: transparent; stroke-width: 1; stroke-linejoin: round;"></line><g role="presentation"><line x1="81.26626071884692" x2="81.26626071884692" y1="274" y2="34" role="presentation" shape-rendering="auto" vector-effect="non-scaling-stroke" style="stroke: transparent; fill: transparent; stroke-width: 1; stroke-linecap: round; stroke-linejoin: round; pointer-events: none;"></line><line x1="81.26626071884692" x2="81.26626071884692" y1="274" y2="278" role="presentation" shape-rendering="auto" vector-effect="non-scaling-stroke" style="stroke: transparent; fill: transparent; size: 4px; stroke-width: 1; stroke-linecap: round; stroke-linejoin: round;"></line><text dx="0" dy="11.969999999999999" x="81.26626071884692" y="286"><tspan x="81.26626071884692" dx="0" text-anchor="middle" style="fill: rgb(153, 153, 153); font-size: 14px; font-family: inherit; stroke: transparent; letter-spacing: normal; padding: 8px; stroke-width: 0;">2017</tspan></text></g><g role="presentation"><line x1="193.74299854041232" x2="193.74299854041232" y1="274" y2="34" role="presentation" shape-rendering="auto" vector-effect="non-scaling-stroke" style="stroke: transparent; fill: transparent; stroke-width: 1; stroke-linecap: round; stroke-linejoin: round; pointer-events: none;"></line><line x1="193.74299854041232" x2="193.74299854041232" y1="274" y2="278" role="presentation" shape-rendering="auto" vector-effect="non-scaling-stroke" style="stroke: transparent; fill: transparent; size: 4px; stroke-width: 1; stroke-linecap: round; stroke-linejoin: round;"></line><text dx="0" dy="11.969999999999999" x="193.74299854041232" y="286"><tspan x="193.74299854041232" dx="0" text-anchor="middle" style="fill: rgb(153, 153, 153); font-size: 14px; font-family: inherit; stroke: transparent; letter-spacing: normal; padding: 8px; stroke-width: 0;">2018</tspan></text></g><g role="presentation"><line x1="306.2197363619777" x2="306.2197363619777" y1="274" y2="34" role="presentation" shape-rendering="auto" vector-effect="non-scaling-stroke" style="stroke: transparent; fill: transparent; stroke-width: 1; stroke-linecap: round; stroke-linejoin: round; pointer-events: none;"></line><line x1="306.2197363619777" x2="306.2197363619777" y1="274" y2="278" role="presentation" shape-rendering="auto" vector-effect="non-scaling-stroke" style="stroke: transparent; fill: transparent; size: 4px; stroke-width: 1; stroke-linecap: round; stroke-linejoin: round;"></line><text dx="0" dy="11.969999999999999" x="306.2197363619777" y="286"><tspan x="306.2197363619777" dx="0" text-anchor="middle" style="fill: rgb(153, 153, 153); font-size: 14px; font-family: inherit; stroke: transparent; letter-spacing: normal; padding: 8px; stroke-width: 0;">2019</tspan></text></g><g role="presentation"><line x1="418.69647418354316" x2="418.69647418354316" y1="274" y2="34" role="presentation" shape-rendering="auto" vector-effect="non-scaling-stroke" style="stroke: transparent; fill: transparent; stroke-width: 1; stroke-linecap: round; stroke-linejoin: round; pointer-events: none;"></line><line x1="418.69647418354316" x2="418.69647418354316" y1="274" y2="278" role="presentation" shape-rendering="auto" vector-effect="non-scaling-stroke" style="stroke: transparent; fill: transparent; size: 4px; stroke-width: 1; stroke-linecap: round; stroke-linejoin: round;"></line><text dx="0" dy="11.969999999999999" x="418.69647418354316" y="286"><tspan x="418.69647418354316" dx="0" text-anchor="middle" style="fill: rgb(153, 153, 153); font-size: 14px; font-family: inherit; stroke: transparent; letter-spacing: normal; padding: 8px; stroke-width: 0;">2020</tspan></text></g><g role="presentation"><line x1="531.4813674511951" x2="531.4813674511951" y1="274" y2="34" role="presentation" shape-rendering="auto" vector-effect="non-scaling-stroke" style="stroke: transparent; fill: transparent; stroke-width: 1; stroke-linecap: round; stroke-linejoin: round; pointer-events: none;"></line><line x1="531.4813674511951" x2="531.4813674511951" y1="274" y2="278" role="presentation" shape-rendering="auto" vector-effect="non-scaling-stroke" style="stroke: transparent; fill: transparent; size: 4px; stroke-width: 1; stroke-linecap: round; stroke-linejoin: round;"></line><text dx="0" dy="11.969999999999999" x="531.4813674511951" y="286"><tspan x="531.4813674511951" dx="0" text-anchor="middle" style="fill: rgb(153, 153, 153); font-size: 14px; font-family: inherit; stroke: transparent; letter-spacing: normal; padding: 8px; stroke-width: 0;">2021</tspan></text></g></g><g role="presentation"><line x1="578" x2="578" y1="34" y2="274" role="presentation" shape-rendering="auto" vector-effect="non-scaling-stroke" style="stroke: transparent; fill: transparent; stroke-width: 1; stroke-linejoin: round;"></line><g role="presentation"><line x1="578" x2="15" y1="274" y2="274" role="presentation" shape-rendering="auto" vector-effect="non-scaling-stroke" style="stroke: rgb(226, 226, 226); fill: transparent; stroke-width: 1; stroke-linecap: round; stroke-linejoin: round; pointer-events: none;"></line><line x1="578" x2="582" y1="274" y2="274" role="presentation" shape-rendering="auto" vector-effect="non-scaling-stroke" style="stroke: transparent; fill: transparent; size: 4px; stroke-width: 1; stroke-linecap: round; stroke-linejoin: round;"></line><text dx="0" dy="4.97" x="590" y="274"><tspan x="590" dx="0" text-anchor="start" style="fill: rgb(153, 153, 153); font-size: 14px; font-family: inherit; stroke: transparent; letter-spacing: normal; padding: 8px; stroke-width: 0;">$100K</tspan></text></g><g role="presentation"><line x1="578" x2="15" y1="214" y2="214" role="presentation" shape-rendering="auto" vector-effect="non-scaling-stroke" style="stroke: rgb(226, 226, 226); fill: transparent; stroke-width: 1; stroke-linecap: round; stroke-linejoin: round; pointer-events: none;"></line><line x1="578" x2="582" y1="214" y2="214" role="presentation" shape-rendering="auto" vector-effect="non-scaling-stroke" style="stroke: transparent; fill: transparent; size: 4px; stroke-width: 1; stroke-linecap: round; stroke-linejoin: round;"></line><text dx="0" dy="4.97" x="590" y="214"><tspan x="590" dx="0" text-anchor="start" style="fill: rgb(153, 153, 153); font-size: 14px; font-family: inherit; stroke: transparent; letter-spacing: normal; padding: 8px; stroke-width: 0;">$150K</tspan></text></g><g role="presentation"><line x1="578" x2="15" y1="154" y2="154" role="presentation" shape-rendering="auto" vector-effect="non-scaling-stroke" style="stroke: rgb(226, 226, 226); fill: transparent; stroke-width: 1; stroke-linecap: round; stroke-linejoin: round; pointer-events: none;"></line><line x1="578" x2="582" y1="154" y2="154" role="presentation" shape-rendering="auto" vector-effect="non-scaling-stroke" style="stroke: transparent; fill: transparent; size: 4px; stroke-width: 1; stroke-linecap: round; stroke-linejoin: round;"></line><text dx="0" dy="4.97" x="590" y="154"><tspan x="590" dx="0" text-anchor="start" style="fill: rgb(153, 153, 153); font-size: 14px; font-family: inherit; stroke: transparent; letter-spacing: normal; padding: 8px; stroke-width: 0;">$200K</tspan></text></g><g role="presentation"><line x1="578" x2="15" y1="94" y2="94" role="presentation" shape-rendering="auto" vector-effect="non-scaling-stroke" style="stroke: rgb(226, 226, 226); fill: transparent; stroke-width: 1; stroke-linecap: round; stroke-linejoin: round; pointer-events: none;"></line><line x1="578" x2="582" y1="94" y2="94" role="presentation" shape-rendering="auto" vector-effect="non-scaling-stroke" style="stroke: transparent; fill: transparent; size: 4px; stroke-width: 1; stroke-linecap: round; stroke-linejoin: round;"></line><text dx="0" dy="4.97" x="590" y="94"><tspan x="590" dx="0" text-anchor="start" style="fill: rgb(153, 153, 153); font-size: 14px; font-family: inherit; stroke: transparent; letter-spacing: normal; padding: 8px; stroke-width: 0;">$250K</tspan></text></g><g role="presentation"><line x1="578" x2="15" y1="34" y2="34" role="presentation" shape-rendering="auto" vector-effect="non-scaling-stroke" style="stroke: rgb(226, 226, 226); fill: transparent; stroke-width: 1; stroke-linecap: round; stroke-linejoin: round; pointer-events: none;"></line><line x1="578" x2="582" y1="34" y2="34" role="presentation" shape-rendering="auto" vector-effect="non-scaling-stroke" style="stroke: transparent; fill: transparent; size: 4px; stroke-width: 1; stroke-linecap: round; stroke-linejoin: round;"></line><text dx="0" dy="4.97" x="590" y="34"><tspan x="590" dx="0" text-anchor="start" style="fill: rgb(153, 153, 153); font-size: 14px; font-family: inherit; stroke: transparent; letter-spacing: normal; padding: 8px; stroke-width: 0;">$300K</tspan></text></g></g><g style="height: 100%; width: 100%; user-select: none;"><defs><clipPath id="victory-clip-5"><rect x="15" y="34" width="563" height="240"></rect></clipPath></defs><g clip-path="url(#victory-clip-5)"><path shape-rendering="auto" role="presentation" d="M24.5528188286809,233.2C27.73709177157453,243.79999999999998,30.921364714468165,254.39999999999998,34.1056376573618,255.28C37.28991060025543,256.16,40.47418354314906,256.6,43.658456486042695,256.6C46.7400109469075,256.6,49.821565407772304,240.4,52.90311986863711,240.4C56.08739281153075,240.4,59.271665754424376,259.6,62.45593869731801,259.6C65.54177309493402,259.6,68.62760749255003,216.4,71.71344189016602,216.4C74.89771483305965,216.4,78.0819877759533,238,81.26626071884692,238C84.45053366174056,238,87.63480660463419,237.84,90.81907954752783,237.52C93.69519704433499,237.2309677419355,96.57131454114213,232.6,99.44743203794928,232.6C102.62742504409171,232.6,105.80741805023415,239.26,108.98741105637657,239.26C112.06896551724138,239.26,115.15051997810617,232.26516129032257,118.23207443897098,231.22C121.41634738186463,230.14,124.60062032475825,230.68,127.7848932676519,229.6C130.8664477285167,228.5548387096774,133.9480021893815,219.3366129032258,137.02955665024632,218.185C140.21382959313993,216.995,143.39810253603358,216.4,146.5823754789272,216.4C149.76664842182083,216.4,152.95092136471445,216.8,156.1351943076081,217.6C159.2167487684729,218.3741935483871,162.2983032293377,231.4,165.37985769020253,231.4C168.56413063309614,231.4,171.74840357598978,228.2110320800178,174.9326765188834,224.2C178.0185109164994,220.3129648794451,181.10434531411542,208,184.19017971173142,208C187.37445265462506,208,190.55872559751867,234.51999999999998,193.74299854041232,234.51999999999998C196.92727148330596,234.51999999999998,200.1115444261996,227.8302421307506,203.29581736909324,224.5C206.1719348659004,221.49203936577365,209.04805236270755,215.5,211.9241698595147,215.5C215.10416286565712,215.5,218.28415587179956,230.8,221.46414887794197,230.8C224.5457033388068,230.8,227.62725779967158,229.2364,230.7088122605364,226.1092C233.89308520343002,222.87776,237.07735814632366,214.09853551912568,240.26163108921727,208C243.3431855500821,202.09819143310418,246.4247400109469,190.12,249.5062944718117,190.12C252.69056741470536,190.12,255.874840357599,214.92000000000002,259.05911330049264,222.4C262.2433862433863,229.87999999999997,265.42765918627987,235,268.6119321291735,235C271.69348659003833,235,274.7750410509031,221.2,277.8565955117679,221.2C281.04086845466156,221.2,284.22514139755515,242.26,287.4094143404488,242.26C290.4952487380648,242.26,293.58108313568084,211.3,296.66691753329684,211.3C299.8511904761905,211.3,303.03546341908407,215.86,306.2197363619777,215.86C309.40400930487135,215.86,312.588282247765,214.5214285714286,315.77255519065864,214.3C318.6486726874658,214.1,321.52479018427294,214.20000000000002,324.4009076810801,214C327.58090068722254,213.77886904761905,330.76089369336495,197.26,333.94088669950736,197.26C337.0224411603722,197.26,340.10399562123695,205.60000000000002,343.18555008210177,205.60000000000002C346.3698230249954,205.60000000000002,349.55409596788905,201.47759999999997,352.7383689107827,200.46699999999998C355.8199233716475,199.489,358.9014778325123,199,361.9830322933771,199C365.16730523627075,199,368.35157817916433,218.8,371.535851122058,218.8C374.7201240649516,218.8,377.90439700784526,196,381.0886699507389,196C384.1702244116037,196,387.2517788724685,214.66,390.3333333333333,214.66C393.51760627622696,214.66,396.7018792191206,209.72143375005325,399.88615216201424,208C402.97198655963024,206.33178261587582,406.0578209572463,204.4,409.1436553548623,204.4C412.32792829775593,204.4,415.5122012406495,208.78,418.69647418354316,208.78C421.8807471264368,208.78,425.0650200693304,208.52,428.24929301222403,208C431.22812899106003,207.51354838709676,434.206964969896,195.43584510328972,437.185800948732,190C440.3657939548744,184.19707914979273,443.54578696101686,174.52,446.72577996715927,174.52C449.8073344280241,174.52,452.8888888888889,187.57379164463242,455.97044334975374,192.7C459.1547162926473,197.99708196721306,462.33898923554096,205.60000000000002,465.52326217843455,205.60000000000002C468.6048166392994,205.60000000000002,471.6863711001642,196.12437863564253,474.767925561029,193C477.95219850392266,189.77147540983606,481.1364714468163,186.76,484.32074438970994,186.76C487.50501733260353,186.76,490.68929027549717,188.8,493.87356321839076,188.8C496.9551176792556,188.8,500.0366721401204,179.2,503.1182266009852,179.2C506.3024995438788,179.2,509.48677248677245,189.82274334565665,512.671045429666,193.6C515.7568798272821,197.2604866233624,518.8427142248981,201.7,521.9285486225142,201.7C525.1128215654078,201.7,528.2970945083015,182.324,531.4813674511951,178.1944C534.6656403940887,174.0648,537.8499133369824,173.65469927360775,541.0341862798759,172C543.9103037766831,170.50543291416074,546.7864212734902,170.34896708501964,549.6625387702974,168.51999999999998C552.8425317764398,166.49779383308092,556.0225247825822,160,559.2025177887247,160C562.2840722495895,160,565.3656267104543,175.60000000000002,568.4471811713191,175.60000000000002C571.6314541142127,175.60000000000002,574.8157270571064,159.70000000000002,578,143.8" style="fill: transparent; stroke: rgb(51, 51, 51); stroke-width: 2; opacity: 1;"></path></g></g></svg>