<svg xmlns="http://www.w3.org/2000/svg" width="640" height="324" role="img" aria-labelledby="victory-container-4-title victory-container-4-desc" viewBox="0 0 640 324" style="pointer-events: all; width: 100%; height: 100%;"><g role="presentation"><line x1="15" x2="578" y1="274" y2="274" role="presentation" shape-rendering="auto" vector-effect="non-scaling-stroke" style="stroke: rgb(226, 226, 226); fill: transparent; stroke-width: 1; stroke-linejoin: round;"></line><g role="presentation"><line x1="81.26626071884692" x2="81.26626071884692" y1="274" y2="34" role="presentation" shape-rendering="auto" vector-effect="non-scaling-stroke" style="stroke: transparent; fill: transparent; stroke-width: 1; stroke-linecap: round; stroke-linejoin: round; pointer-events: none;"></line><line x1="81.26626071884692" x2="81.26626071884692" y1="274" y2="278" role="presentation" shape-rendering="auto" vector-effect="non-scaling-stroke" style="stroke: transparent; fill: transparent; size: 4px; stroke-width: 1; stroke-linecap: round; stroke-linejoin: round;"></line><text dx="0" dy="11.969999999999999" x="81.26626071884692" y="286"><tspan x="81.26626071884692" dx="0" text-anchor="middle" style="fill: rgb(153, 153, 153); font-size: 14px; font-family: inherit; stroke: transparent; letter-spacing: normal; padding: 8px; stroke-width: 0;">2017</tspan></text></g><g role="presentation"><line x1="193.74299854041232" x2="193.74299854041232" y1="274" y2="34" role="presentation" shape-rendering="auto" vector-effect="non-scaling-stroke" style="stroke: transparent; fill: transparent; stroke-width: 1; stroke-linecap: round; stroke-linejoin: round; pointer-events: none;"></line><line x1="193.74299854041232" x2="193.74299854041232" y1="274" y2="278" role="presentation" shape-rendering="auto" vector-effect="non-scaling-stroke" style="stroke: transparent; fill: transparent; size: 4px; stroke-width: 1; stroke-linecap: round; stroke-linejoin: round;"></line><text dx="0" dy="11.969999999999999" x="193.74299854041232" y="286"><tspan x="193.74299854041232" dx="0" text-anchor="middle" style="fill: rgb(153, 153, 153); font-size: 14px; font-family: inherit; stroke: transparent; letter-spacing: normal; padding: 8px; stroke-width: 0;">2018</tspan></text></g><g role="presentation"><line x1="306.2197363619777" x2="306.2197363619777" y1="274" y2="34" role="presentation" shape-rendering="auto" vector-effect="non-scaling-stroke" style="stroke: transparent; fill: transparent; stroke-width: 1; stroke-linecap: round; stroke-linejoin: round; pointer-events: none;"></line><line x1="306.2197363619777" x2="306.2197363619777" y1="274" y2="278" role="presentation" shape-rendering="auto" vector-effect="non-scaling-stroke" style="stroke: transparent; fill: transparent; size: 4px; stroke-width: 1; stroke-linecap: round; stroke-linejoin: round;"></line><text dx="0" dy="11.969999999999999" x="306.2197363619777" y="286"><tspan x="306.2197363619777" dx="0" text-anchor="middle" style="fill: rgb(153, 153, 153); font-size: 14px; font-family: inherit; stroke: transparent; letter-spacing: normal; padding: 8px; stroke-width: 0;">2019</tspan></text></g><g role="presentation"><line x1="418.69647418354316" x2="418.69647418354316" y1="274" y2="34" role="presentation" shape-rendering="auto" vector-effect="non-scaling-stroke" style="stroke: transparent; fill: transparent; stroke-width: 1; stroke-linecap: round; stroke-linejoin: round; pointer-events: none;"></line><line x1="418.69647418354316" x2="418.69647418354316" y1="274" y2="278" role="presentation" shape-rendering="auto" vector-effect="non-scaling-stroke" style="stroke: transparent; fill: transparent; size: 4px; stroke-width: 1; stroke-linecap: round; stroke-linejoin: round;"></line><text dx="0" dy="11.969999999999999" x="418.69647418354316" y="286"><tspan x="418.69647418354316" dx="0" text-anchor="middle" style="fill: rgb(153, 153, 153); font-size: 14px; font-family: inherit; stroke: transparent; letter-spacing: normal; padding: 8px; stroke-width: 0;">2020</tspan></text></g><g role="presentation"><line x1="531.4813674511951" x2="531.4813674511951" y1="274" y2="34" role="presentation" shape-rendering="auto" vector-effect="non-scaling-stroke" style="stroke: transparent; fill: transparent; stroke-width: 1; stroke-linecap: round; stroke-linejoin: round; pointer-events: none;"></line><line x1="531.4813674511951" x2="531.4813674511951" y1="274" y2="278" role="presentation" shape-rendering="auto" vector-effect="non-scaling-stroke" style="stroke: transparent; fill: transparent; size: 4px; stroke-width: 1; stroke-linecap: round; stroke-linejoin: round;"></line><text dx="0" dy="11.969999999999999" x="531.4813674511951" y="286"><tspan x="531.4813674511951" dx="0" text-anchor="middle" style="fill: rgb(153, 153, 153); font-size: 14px; font-family: inherit; stroke: transparent; letter-spacing: normal; padding: 8px; stroke-width: 0;">2021</tspan></text></g></g><g role="presentation"><line x1="578" x2="578" y1="34" y2="274" role="presentation" shape-rendering="auto" vector-effect="non-scaling-stroke" style="stroke: transparent; fill: transparent; stroke-width: 1; stroke-linejoin: round;"></line><g role="presentation"><line x1="578" x2="15" y1="274" y2="274" role="presentation" shape-rendering="auto" vector-effect="non-scaling-stroke" style="stroke: rgb(226, 226, 226); fill: transparent; stroke-width: 1; stroke-linecap: round; stroke-linejoin: round; pointer-events: none;"></line><line x1="578" x2="582" y1="274" y2="274" role="presentation" shape-rendering="auto" vector-effect="non-scaling-stroke" style="stroke: transparent; fill: transparent; size: 4px; stroke-width: 1; stroke-linecap: round; stroke-linejoin: round;"></line><text dx="0" dy="4.97" x="590" y="274"><tspan x="590" dx="0" text-anchor="start" style="fill: rgb(153, 153, 153); font-size: 14px; font-family: inherit; stroke: transparent; letter-spacing: normal; padding: 8px; stroke-width: 0;">$100K</tspan></text></g><g role="presentation"><line x1="578" x2="15" y1="214" y2="214" role="presentation" shape-rendering="auto" vector-effect="non-scaling-stroke" style="stroke: rgb(226, 226, 226); fill: transparent; stroke-width: 1; stroke-linecap: round; stroke-linejoin: round; pointer-events: none;"></line><line x1="578" x2="582" y1="214" y2="214" role="presentation" shape-rendering="auto" vector-effect="non-scaling-stroke" style="stroke: transparent; fill: transparent; size: 4px; stroke-width: 1; stroke-linecap: round; stroke-linejoin: round;"></line><text dx="0" dy="4.97" x="590" y="214"><tspan x="590" dx="0" text-anchor="start" style="fill: rgb(153, 153, 153); font-size: 14px; font-family: inherit; stroke: transparent; letter-spacing: normal; padding: 8px; stroke-width: 0;">$150K</tspan></text></g><g role="presentation"><line x1="578" x2="15" y1="154" y2="154" role="presentation" shape-rendering="auto" vector-effect="non-scaling-stroke" style="stroke: rgb(226, 226, 226); fill: transparent; stroke-width: 1; stroke-linecap: round; stroke-linejoin: round; pointer-events: none;"></line><line x1="578" x2="582" y1="154" y2="154" role="presentation" shape-rendering="auto" vector-effect="non-scaling-stroke" style="stroke: transparent; fill: transparent; size: 4px; stroke-width: 1; stroke-linecap: round; stroke-linejoin: round;"></line><text dx="0" dy="4.97" x="590" y="154"><tspan x="590" dx="0" text-anchor="start" style="fill: rgb(153, 153, 153); font-size: 14px; font-family: inherit; stroke: transparent; letter-spacing: normal; padding: 8px; stroke-width: 0;">$200K</tspan></text></g><g role="presentation"><line x1="578" x2="15" y1="94" y2="94" role="presentation" shape-rendering="auto" vector-effect="non-scaling-stroke" style="stroke: rgb(226, 226, 226); fill: transparent; stroke-width: 1; stroke-linecap: round; stroke-linejoin: round; pointer-events: none;"></line><line x1="578" x2="582" y1="94" y2="94" role="presentation" shape-rendering="auto" vector-effect="non-scaling-stroke" style="stroke: transparent; fill: transparent; size: 4px; stroke-width: 1; stroke-linecap: round; stroke-linejoin: round;"></line><text dx="0" dy="4.97" x="590" y="94"><tspan x="590" dx="0" text-anchor="start" style="fill: rgb(153, 153, 153); font-size: 14px; font-family: inherit; stroke: transparent; letter-spacing: normal; padding: 8px; stroke-width: 0;">$250K</tspan></text></g><g role="presentation"><line x1="578" x2="15" y1="34" y2="34" role="presentation" shape-rendering="auto" vector-effect="non-scaling-stroke" style="stroke: rgb(226, 226, 226); fill: transparent; stroke-width: 1; stroke-linecap: round; stroke-linejoin: round; pointer-events: none;"></line><line x1="578" x2="582" y1="34" y2="34" role="presentation" shape-rendering="auto" vector-effect="non-scaling-stroke" style="stroke: transparent; fill: transparent; size: 4px; stroke-width: 1; stroke-linecap: round; stroke-linejoin: round;"></line><text dx="0" dy="4.97" x="590" y="34"><tspan x="590" dx="0" text-anchor="start" style="fill: rgb(153, 153, 153); font-size: 14px; font-family: inherit; stroke: transparent; letter-spacing: normal; padding: 8px; stroke-width: 0;">$300K</tspan></text></g></g><g style="height: 100%; width: 100%; user-select: none;"><defs><clipPath id="victory-clip-5"><rect x="15" y="34" width="563" height="240"></rect></clipPath></defs><g clip-path="url(#victory-clip-5)"><path shape-rendering="auto" role="presentation" d="M24.5528188286809,136C27.73709177157453,157.75,30.921364714468165,179.5,34.1056376573618,179.5C37.28991060025543,179.5,40.47418354314906,158.44,43.658456486042695,158.44C46.7400109469075,158.44,49.821565407772304,160.56,52.90311986863711,164.8C56.08739281153075,169.18133333333336,59.271665754424376,200.8,62.45593869731801,200.8C65.54177309493402,200.8,68.62760749255003,124.06,71.71344189016602,124.06C74.89771483305965,124.06,78.0819877759533,149.86,81.26626071884692,149.86C84.45053366174056,149.86,87.63480660463419,121.12857142857145,90.81907954752783,119.80000000000001C93.69519704433499,118.60000000000001,96.57131454114213,118,99.44743203794928,118C102.62742504409171,118,105.80741805023415,118,108.98741105637657,118C112.06896551724138,118,115.15051997810617,117.46000000000001,118.23207443897098,117.46000000000001C121.41634738186463,117.46000000000001,124.60062032475825,150.39999999999998,127.7848932676519,150.39999999999998C130.8664477285167,150.39999999999998,133.9480021893815,116.20000000000002,137.02955665024632,116.20000000000002C140.21382959313993,116.20000000000002,143.39810253603358,123.7792,146.5823754789272,129.98919999999998C149.76664842182083,136.1992,152.95092136471445,153.46,156.1351943076081,153.46C159.2167487684729,153.46,162.2983032293377,97,165.37985769020253,97C168.56413063309614,97,171.74840357598978,141.4,174.9326765188834,141.4C178.0185109164994,141.4,181.10434531411542,107.20000000000002,184.19017971173142,107.20000000000002C187.37445265462506,107.20000000000002,190.55872559751867,108.4,193.74299854041232,108.4C196.92727148330596,108.4,200.1115444261996,100.06,203.29581736909324,100.06C206.1719348659004,100.06,209.04805236270755,101.24000000000001,211.9241698595147,103.60000000000002C215.10416286565712,106.20934523809527,218.28415587179956,145.6,221.46414887794197,145.6C224.5457033388068,145.6,227.62725779967158,103.72580645161293,230.7088122605364,98.5C233.89308520343002,93.10000000000001,237.07735814632366,90.4,240.26163108921727,90.4C243.3431855500821,90.4,246.4247400109469,102.09201480698044,249.5062944718117,107.80000000000001C252.69056741470536,113.69825136612023,255.874840357599,125.19999999999999,259.05911330049264,125.19999999999999C262.2433862433863,125.19999999999999,265.42765918627987,116.20000000000002,268.6119321291735,116.20000000000002C271.69348659003833,116.20000000000002,274.7750410509031,124,277.8565955117679,124C281.04086845466156,124,284.22514139755515,68.26000000000002,287.4094143404488,68.26000000000002C290.4952487380648,68.26000000000002,293.58108313568084,154,296.66691753329684,154C299.8511904761905,154,303.03546341908407,104.79999999999997,306.2197363619777,100C309.40400930487135,95.2,312.588282247765,92.80000000000001,315.77255519065864,92.80000000000001C318.6486726874658,92.80000000000001,321.52479018427294,155.8,324.4009076810801,155.8C327.58090068722254,155.8,330.76089369336495,100,333.94088669950736,100C337.0224411603722,100,340.10399562123695,136,343.18555008210177,136C346.3698230249954,136,349.55409596788905,71.79999999999998,352.7383689107827,71.79999999999998C355.8199233716475,71.79999999999998,358.9014778325123,130,361.9830322933771,130C365.16730523627075,130,368.35157817916433,106,371.535851122058,106C374.7201240649516,106,377.90439700784526,106.99980000000001,381.0886699507389,108.99940000000001C384.1702244116037,110.93449677419356,387.2517788724685,135.4,390.3333333333333,135.4C393.51760627622696,135.4,396.7018792191206,104.80000000000001,399.88615216201424,104.80000000000001C402.97198655963024,104.80000000000001,406.0578209572463,124.8484,409.1436553548623,124.8484C412.32792829775593,124.8484,415.5122012406495,118.4414,418.69647418354316,115C421.8807471264368,111.5586,425.0650200693304,111.39999999999999,428.24929301222403,104.19999999999999C431.22812899106003,97.4645161290322,434.206964969896,64,437.185800948732,64C440.3657939548744,64,443.54578696101686,90.4,446.72577996715927,90.4C449.8073344280241,90.4,452.8888888888889,88.60060000000001,455.97044334975374,88.60060000000001C459.1547162926473,88.60060000000001,462.33898923554096,92.58971584699454,465.52326217843455,94C468.6048166392994,95.36479111581176,471.6863711001642,97,474.767925561029,97C477.95219850392266,97,481.1364714468163,58,484.32074438970994,58C487.50501733260353,58,490.68929027549717,130.9,493.87356321839076,130.9C496.9551176792556,130.9,500.0366721401204,105.128915917504,503.1182266009852,94.11999999999998C506.3024995438788,82.74412021857931,509.48677248677245,64,512.671045429666,64C515.7568798272821,64,518.8427142248981,66,521.9285486225142,70C525.1128215654078,74.12760055478495,528.2970945083015,91,531.4813674511951,97C534.6656403940887,103,537.8499133369824,106,541.0341862798759,106C543.9103037766831,106,546.7864212734902,70.6,549.6625387702974,70.6C552.8425317764398,70.6,556.0225247825822,82.12,559.2025177887247,82.12C562.2840722495895,82.12,565.3656267104543,82.08,568.4471811713191,82C571.6314541142127,81.91733333333333,574.8157270571064,75.35866666666666,578,68.80000000000001" style="fill: transparent; stroke: rgb(51, 51, 51); stroke-width: 2; opacity: 1;"></path></g></g></svg>