<svg xmlns="http://www.w3.org/2000/svg" width="640" height="324" role="img" aria-labelledby="victory-container-1-title victory-container-1-desc" viewBox="0 0 640 324" style="pointer-events: all; width: 100%; height: 100%;"><g role="presentation"><line x1="15" x2="578" y1="274" y2="274" role="presentation" shape-rendering="auto" vector-effect="non-scaling-stroke" style="stroke: rgb(226, 226, 226); fill: transparent; stroke-width: 1; stroke-linejoin: round;"></line><g role="presentation"><line x1="81.26626071884692" x2="81.26626071884692" y1="274" y2="34" role="presentation" shape-rendering="auto" vector-effect="non-scaling-stroke" style="stroke: transparent; fill: transparent; stroke-width: 1; stroke-linecap: round; stroke-linejoin: round; pointer-events: none;"></line><line x1="81.26626071884692" x2="81.26626071884692" y1="274" y2="278" role="presentation" shape-rendering="auto" vector-effect="non-scaling-stroke" style="stroke: transparent; fill: transparent; size: 4px; stroke-width: 1; stroke-linecap: round; stroke-linejoin: round;"></line><text dx="0" dy="11.969999999999999" x="81.26626071884692" y="286"><tspan x="81.26626071884692" dx="0" text-anchor="middle" style="fill: rgb(153, 153, 153); font-size: 14px; font-family: inherit; stroke: transparent; letter-spacing: normal; padding: 8px; stroke-width: 0;">2017</tspan></text></g><g role="presentation"><line x1="193.74299854041232" x2="193.74299854041232" y1="274" y2="34" role="presentation" shape-rendering="auto" vector-effect="non-scaling-stroke" style="stroke: transparent; fill: transparent; stroke-width: 1; stroke-linecap: round; stroke-linejoin: round; pointer-events: none;"></line><line x1="193.74299854041232" x2="193.74299854041232" y1="274" y2="278" role="presentation" shape-rendering="auto" vector-effect="non-scaling-stroke" style="stroke: transparent; fill: transparent; size: 4px; stroke-width: 1; stroke-linecap: round; stroke-linejoin: round;"></line><text dx="0" dy="11.969999999999999" x="193.74299854041232" y="286"><tspan x="193.74299854041232" dx="0" text-anchor="middle" style="fill: rgb(153, 153, 153); font-size: 14px; font-family: inherit; stroke: transparent; letter-spacing: normal; padding: 8px; stroke-width: 0;">2018</tspan></text></g><g role="presentation"><line x1="306.2197363619777" x2="306.2197363619777" y1="274" y2="34" role="presentation" shape-rendering="auto" vector-effect="non-scaling-stroke" style="stroke: transparent; fill: transparent; stroke-width: 1; stroke-linecap: round; stroke-linejoin: round; pointer-events: none;"></line><line x1="306.2197363619777" x2="306.2197363619777" y1="274" y2="278" role="presentation" shape-rendering="auto" vector-effect="non-scaling-stroke" style="stroke: transparent; fill: transparent; size: 4px; stroke-width: 1; stroke-linecap: round; stroke-linejoin: round;"></line><text dx="0" dy="11.969999999999999" x="306.2197363619777" y="286"><tspan x="306.2197363619777" dx="0" text-anchor="middle" style="fill: rgb(153, 153, 153); font-size: 14px; font-family: inherit; stroke: transparent; letter-spacing: normal; padding: 8px; stroke-width: 0;">2019</tspan></text></g><g role="presentation"><line x1="418.69647418354316" x2="418.69647418354316" y1="274" y2="34" role="presentation" shape-rendering="auto" vector-effect="non-scaling-stroke" style="stroke: transparent; fill: transparent; stroke-width: 1; stroke-linecap: round; stroke-linejoin: round; pointer-events: none;"></line><line x1="418.69647418354316" x2="418.69647418354316" y1="274" y2="278" role="presentation" shape-rendering="auto" vector-effect="non-scaling-stroke" style="stroke: transparent; fill: transparent; size: 4px; stroke-width: 1; stroke-linecap: round; stroke-linejoin: round;"></line><text dx="0" dy="11.969999999999999" x="418.69647418354316" y="286"><tspan x="418.69647418354316" dx="0" text-anchor="middle" style="fill: rgb(153, 153, 153); font-size: 14px; font-family: inherit; stroke: transparent; letter-spacing: normal; padding: 8px; stroke-width: 0;">2020</tspan></text></g><g role="presentation"><line x1="531.4813674511951" x2="531.4813674511951" y1="274" y2="34" role="presentation" shape-rendering="auto" vector-effect="non-scaling-stroke" style="stroke: transparent; fill: transparent; stroke-width: 1; stroke-linecap: round; stroke-linejoin: round; pointer-events: none;"></line><line x1="531.4813674511951" x2="531.4813674511951" y1="274" y2="278" role="presentation" shape-rendering="auto" vector-effect="non-scaling-stroke" style="stroke: transparent; fill: transparent; size: 4px; stroke-width: 1; stroke-linecap: round; stroke-linejoin: round;"></line><text dx="0" dy="11.969999999999999" x="531.4813674511951" y="286"><tspan x="531.4813674511951" dx="0" text-anchor="middle" style="fill: rgb(153, 153, 153); font-size: 14px; font-family: inherit; stroke: transparent; letter-spacing: normal; padding: 8px; stroke-width: 0;">2021</tspan></text></g></g><g role="presentation"><line x1="578" x2="578" y1="34" y2="274" role="presentation" shape-rendering="auto" vector-effect="non-scaling-stroke" style="stroke: transparent; fill: transparent; stroke-width: 1; stroke-linejoin: round;"></line><g role="presentation"><line x1="578" x2="15" y1="274" y2="274" role="presentation" shape-rendering="auto" vector-effect="non-scaling-stroke" style="stroke: rgb(226, 226, 226); fill: transparent; stroke-width: 1; stroke-linecap: round; stroke-linejoin: round; pointer-events: none;"></line><line x1="578" x2="582" y1="274" y2="274" role="presentation" shape-rendering="auto" vector-effect="non-scaling-stroke" style="stroke: transparent; fill: transparent; size: 4px; stroke-width: 1; stroke-linecap: round; stroke-linejoin: round;"></line><text dx="0" dy="4.97" x="590" y="274"><tspan x="590" dx="0" text-anchor="start" style="fill: rgb(153, 153, 153); font-size: 14px; font-family: inherit; stroke: transparent; letter-spacing: normal; padding: 8px; stroke-width: 0;">$100K</tspan></text></g><g role="presentation"><line x1="578" x2="15" y1="214" y2="214" role="presentation" shape-rendering="auto" vector-effect="non-scaling-stroke" style="stroke: rgb(226, 226, 226); fill: transparent; stroke-width: 1; stroke-linecap: round; stroke-linejoin: round; pointer-events: none;"></line><line x1="578" x2="582" y1="214" y2="214" role="presentation" shape-rendering="auto" vector-effect="non-scaling-stroke" style="stroke: transparent; fill: transparent; size: 4px; stroke-width: 1; stroke-linecap: round; stroke-linejoin: round;"></line><text dx="0" dy="4.97" x="590" y="214"><tspan x="590" dx="0" text-anchor="start" style="fill: rgb(153, 153, 153); font-size: 14px; font-family: inherit; stroke: transparent; letter-spacing: normal; padding: 8px; stroke-width: 0;">$150K</tspan></text></g><g role="presentation"><line x1="578" x2="15" y1="154" y2="154" role="presentation" shape-rendering="auto" vector-effect="non-scaling-stroke" style="stroke: rgb(226, 226, 226); fill: transparent; stroke-width: 1; stroke-linecap: round; stroke-linejoin: round; pointer-events: none;"></line><line x1="578" x2="582" y1="154" y2="154" role="presentation" shape-rendering="auto" vector-effect="non-scaling-stroke" style="stroke: transparent; fill: transparent; size: 4px; stroke-width: 1; stroke-linecap: round; stroke-linejoin: round;"></line><text dx="0" dy="4.97" x="590" y="154"><tspan x="590" dx="0" text-anchor="start" style="fill: rgb(153, 153, 153); font-size: 14px; font-family: inherit; stroke: transparent; letter-spacing: normal; padding: 8px; stroke-width: 0;">$200K</tspan></text></g><g role="presentation"><line x1="578" x2="15" y1="94" y2="94" role="presentation" shape-rendering="auto" vector-effect="non-scaling-stroke" style="stroke: rgb(226, 226, 226); fill: transparent; stroke-width: 1; stroke-linecap: round; stroke-linejoin: round; pointer-events: none;"></line><line x1="578" x2="582" y1="94" y2="94" role="presentation" shape-rendering="auto" vector-effect="non-scaling-stroke" style="stroke: transparent; fill: transparent; size: 4px; stroke-width: 1; stroke-linecap: round; stroke-linejoin: round;"></line><text dx="0" dy="4.97" x="590" y="94"><tspan x="590" dx="0" text-anchor="start" style="fill: rgb(153, 153, 153); font-size: 14px; font-family: inherit; stroke: transparent; letter-spacing: normal; padding: 8px; stroke-width: 0;">$250K</tspan></text></g><g role="presentation"><line x1="578" x2="15" y1="34" y2="34" role="presentation" shape-rendering="auto" vector-effect="non-scaling-stroke" style="stroke: rgb(226, 226, 226); fill: transparent; stroke-width: 1; stroke-linecap: round; stroke-linejoin: round; pointer-events: none;"></line><line x1="578" x2="582" y1="34" y2="34" role="presentation" shape-rendering="auto" vector-effect="non-scaling-stroke" style="stroke: transparent; fill: transparent; size: 4px; stroke-width: 1; stroke-linecap: round; stroke-linejoin: round;"></line><text dx="0" dy="4.97" x="590" y="34"><tspan x="590" dx="0" text-anchor="start" style="fill: rgb(153, 153, 153); font-size: 14px; font-family: inherit; stroke: transparent; letter-spacing: normal; padding: 8px; stroke-width: 0;">$300K</tspan></text></g></g><g style="height: 100%; width: 100%; user-select: none;"><defs><clipPath id="victory-clip-2"><rect x="15" y="34" width="563" height="240"></rect></clipPath></defs><g clip-path="url(#victory-clip-2)"><path shape-rendering="auto" role="presentation" d="M24.5528188286809,160C27.73709177157453,160.9,30.921364714468165,161.79999999999998,34.1056376573618,165.39999999999998C37.28991060025543,168.99999999999997,40.47418354314906,232,43.658456486042695,232C46.7400109469075,232,49.821565407772304,200.2,52.90311986863711,200.2C56.08739281153075,200.2,59.271665754424376,205,62.45593869731801,205C65.54177309493402,205,68.62760749255003,180.7,71.71344189016602,180.7C74.89771483305965,180.7,78.0819877759533,250,81.26626071884692,250C84.45053366174056,250,87.63480660463419,193,90.81907954752783,193C93.69519704433499,193,96.57131454114213,215.76110255720056,99.44743203794928,216.4C102.62742504409171,217.1064,105.80741805023415,217.4596,108.98741105637657,217.4596C112.06896551724138,217.4596,115.15051997810617,181.6,118.23207443897098,181.6C121.41634738186463,181.6,124.60062032475825,235.6,127.7848932676519,235.6C130.8664477285167,235.6,133.9480021893815,200.8,137.02955665024632,200.8C140.21382959313993,200.8,143.39810253603358,202.20000000000005,146.5823754789272,202.60000000000002C149.76664842182083,203,152.95092136471445,203.2,156.1351943076081,203.2C159.2167487684729,203.2,162.2983032293377,184,165.37985769020253,184C168.56413063309614,184,171.74840357598978,184.2,174.9326765188834,184.6C178.0185109164994,184.98763440860213,181.10434531411542,236.5,184.19017971173142,236.5C187.37445265462506,236.5,190.55872559751867,234.35999999999999,193.74299854041232,230.07999999999998C196.92727148330596,225.79999999999995,200.1115444261996,161.26,203.29581736909324,161.26C206.1719348659004,161.26,209.04805236270755,178,211.9241698595147,178C215.10416286565712,178,218.28415587179956,152.8,221.46414887794197,152.8C224.5457033388068,152.8,227.62725779967158,158.8,230.7088122605364,158.8C233.89308520343002,158.8,237.07735814632366,141.23229508196718,240.26163108921727,132.7C243.3431855500821,124.4429402432575,246.4247400109469,108.4,249.5062944718117,108.4C252.69056741470536,108.4,255.874840357599,162.49999999999994,259.05911330049264,175.9C262.2433862433863,189.3,265.42765918627987,196,268.6119321291735,196C271.69348659003833,196,274.7750410509031,190,277.8565955117679,190C281.04086845466156,190,284.22514139755515,208.12,287.4094143404488,208.12C290.4952487380648,208.12,293.58108313568084,154.00119999999998,296.66691753329684,154.00119999999998C299.8511904761905,154.00119999999998,303.03546341908407,192.39999999999998,306.2197363619777,192.39999999999998C309.40400930487135,192.39999999999998,312.588282247765,154,315.77255519065864,154C318.6486726874658,154,321.52479018427294,167.2,324.4009076810801,167.2C327.58090068722254,167.2,330.76089369336495,165.82,333.94088669950736,163.06C337.0224411603722,160.38543741588157,340.10399562123695,145,343.18555008210177,145C346.3698230249954,145,349.55409596788905,192.39999999999998,352.7383689107827,192.39999999999998C355.8199233716475,192.39999999999998,358.9014778325123,175,361.9830322933771,175C365.16730523627075,175,368.35157817916433,182.2,371.535851122058,182.2C374.7201240649516,182.2,377.90439700784526,128.13200000000003,381.0886699507389,122.80000000000001C384.1702244116037,117.64,387.2517788724685,115.06,390.3333333333333,115.06C393.51760627622696,115.06,396.7018792191206,151.6,399.88615216201424,151.6C402.97198655963024,151.6,406.0578209572463,139.6,409.1436553548623,139.6C412.32792829775593,139.6,415.5122012406495,187,418.69647418354316,187C421.8807471264368,187,425.0650200693304,183.63657356321838,428.24929301222403,178.12C431.22812899106003,172.95933440860216,434.206964969896,155.926,437.185800948732,155.926C440.3657939548744,155.926,443.54578696101686,166,446.72577996715927,166C449.8073344280241,166,452.8888888888889,164.25116023268114,455.97044334975374,162.886C459.1547162926473,161.4753344262295,462.33898923554096,157.606,465.52326217843455,157.606C468.6048166392994,157.606,471.6863711001642,176.572,474.767925561029,176.572C477.95219850392266,176.572,481.1364714468163,113.19999999999999,484.32074438970994,113.19999999999999C487.50501733260353,113.19999999999999,490.68929027549717,143.47393333333335,493.87356321839076,153.406C496.9551176792556,163.01767741935495,500.0366721401204,170.18877419354837,503.1182266009852,172.49200000000002C506.3024995438788,174.872,509.48677248677245,176.062,512.671045429666,176.062C515.7568798272821,176.062,518.8427142248981,145.00663615545528,521.9285486225142,134.2C525.1128215654078,123.0486306523459,528.2970945083015,110.79999999999998,531.4813674511951,110.79999999999998C534.6656403940887,110.79999999999998,537.8499133369824,168.51999999999998,541.0341862798759,168.51999999999998C543.9103037766831,168.51999999999998,546.7864212734902,149.9427886944818,549.6625387702974,149.212C552.8425317764398,148.404,556.0225247825822,148.808,559.2025177887247,148C562.2840722495895,147.21701211305518,565.3656267104543,125.46716023268115,568.4471811713191,115.6C571.6314541142127,105.40393442622955,574.8157270571064,96.70196721311477,578,88" style="fill: transparent; stroke: rgb(51, 51, 51); stroke-width: 2; opacity: 1;"></path></g></g></svg>