<svg xmlns="http://www.w3.org/2000/svg" width="640" height="324" role="img" aria-labelledby="victory-container-4-title victory-container-4-desc" viewBox="0 0 640 324" style="pointer-events: all; width: 100%; height: 100%;"><g role="presentation"><line x1="15" x2="578" y1="274" y2="274" role="presentation" shape-rendering="auto" vector-effect="non-scaling-stroke" style="stroke: rgb(226, 226, 226); fill: transparent; stroke-width: 1; stroke-linejoin: round;"></line><g role="presentation"><line x1="81.26626071884692" x2="81.26626071884692" y1="274" y2="34" role="presentation" shape-rendering="auto" vector-effect="non-scaling-stroke" style="stroke: transparent; fill: transparent; stroke-width: 1; stroke-linecap: round; stroke-linejoin: round; pointer-events: none;"></line><line x1="81.26626071884692" x2="81.26626071884692" y1="274" y2="278" role="presentation" shape-rendering="auto" vector-effect="non-scaling-stroke" style="stroke: transparent; fill: transparent; size: 4px; stroke-width: 1; stroke-linecap: round; stroke-linejoin: round;"></line><text dx="0" dy="11.969999999999999" x="81.26626071884692" y="286"><tspan x="81.26626071884692" dx="0" text-anchor="middle" style="fill: rgb(153, 153, 153); font-size: 14px; font-family: inherit; stroke: transparent; letter-spacing: normal; padding: 8px; stroke-width: 0;">2017</tspan></text></g><g role="presentation"><line x1="193.74299854041232" x2="193.74299854041232" y1="274" y2="34" role="presentation" shape-rendering="auto" vector-effect="non-scaling-stroke" style="stroke: transparent; fill: transparent; stroke-width: 1; stroke-linecap: round; stroke-linejoin: round; pointer-events: none;"></line><line x1="193.74299854041232" x2="193.74299854041232" y1="274" y2="278" role="presentation" shape-rendering="auto" vector-effect="non-scaling-stroke" style="stroke: transparent; fill: transparent; size: 4px; stroke-width: 1; stroke-linecap: round; stroke-linejoin: round;"></line><text dx="0" dy="11.969999999999999" x="193.74299854041232" y="286"><tspan x="193.74299854041232" dx="0" text-anchor="middle" style="fill: rgb(153, 153, 153); font-size: 14px; font-family: inherit; stroke: transparent; letter-spacing: normal; padding: 8px; stroke-width: 0;">2018</tspan></text></g><g role="presentation"><line x1="306.2197363619777" x2="306.2197363619777" y1="274" y2="34" role="presentation" shape-rendering="auto" vector-effect="non-scaling-stroke" style="stroke: transparent; fill: transparent; stroke-width: 1; stroke-linecap: round; stroke-linejoin: round; pointer-events: none;"></line><line x1="306.2197363619777" x2="306.2197363619777" y1="274" y2="278" role="presentation" shape-rendering="auto" vector-effect="non-scaling-stroke" style="stroke: transparent; fill: transparent; size: 4px; stroke-width: 1; stroke-linecap: round; stroke-linejoin: round;"></line><text dx="0" dy="11.969999999999999" x="306.2197363619777" y="286"><tspan x="306.2197363619777" dx="0" text-anchor="middle" style="fill: rgb(153, 153, 153); font-size: 14px; font-family: inherit; stroke: transparent; letter-spacing: normal; padding: 8px; stroke-width: 0;">2019</tspan></text></g><g role="presentation"><line x1="418.69647418354316" x2="418.69647418354316" y1="274" y2="34" role="presentation" shape-rendering="auto" vector-effect="non-scaling-stroke" style="stroke: transparent; fill: transparent; stroke-width: 1; stroke-linecap: round; stroke-linejoin: round; pointer-events: none;"></line><line x1="418.69647418354316" x2="418.69647418354316" y1="274" y2="278" role="presentation" shape-rendering="auto" vector-effect="non-scaling-stroke" style="stroke: transparent; fill: transparent; size: 4px; stroke-width: 1; stroke-linecap: round; stroke-linejoin: round;"></line><text dx="0" dy="11.969999999999999" x="418.69647418354316" y="286"><tspan x="418.69647418354316" dx="0" text-anchor="middle" style="fill: rgb(153, 153, 153); font-size: 14px; font-family: inherit; stroke: transparent; letter-spacing: normal; padding: 8px; stroke-width: 0;">2020</tspan></text></g><g role="presentation"><line x1="531.4813674511951" x2="531.4813674511951" y1="274" y2="34" role="presentation" shape-rendering="auto" vector-effect="non-scaling-stroke" style="stroke: transparent; fill: transparent; stroke-width: 1; stroke-linecap: round; stroke-linejoin: round; pointer-events: none;"></line><line x1="531.4813674511951" x2="531.4813674511951" y1="274" y2="278" role="presentation" shape-rendering="auto" vector-effect="non-scaling-stroke" style="stroke: transparent; fill: transparent; size: 4px; stroke-width: 1; stroke-linecap: round; stroke-linejoin: round;"></line><text dx="0" dy="11.969999999999999" x="531.4813674511951" y="286"><tspan x="531.4813674511951" dx="0" text-anchor="middle" style="fill: rgb(153, 153, 153); font-size: 14px; font-family: inherit; stroke: transparent; letter-spacing: normal; padding: 8px; stroke-width: 0;">2021</tspan></text></g></g><g role="presentation"><line x1="578" x2="578" y1="34" y2="274" role="presentation" shape-rendering="auto" vector-effect="non-scaling-stroke" style="stroke: transparent; fill: transparent; stroke-width: 1; stroke-linejoin: round;"></line><g role="presentation"><line x1="578" x2="15" y1="274" y2="274" role="presentation" shape-rendering="auto" vector-effect="non-scaling-stroke" style="stroke: rgb(226, 226, 226); fill: transparent; stroke-width: 1; stroke-linecap: round; stroke-linejoin: round; pointer-events: none;"></line><line x1="578" x2="582" y1="274" y2="274" role="presentation" shape-rendering="auto" vector-effect="non-scaling-stroke" style="stroke: transparent; fill: transparent; size: 4px; stroke-width: 1; stroke-linecap: round; stroke-linejoin: round;"></line><text dx="0" dy="4.97" x="590" y="274"><tspan x="590" dx="0" text-anchor="start" style="fill: rgb(153, 153, 153); font-size: 14px; font-family: inherit; stroke: transparent; letter-spacing: normal; padding: 8px; stroke-width: 0;">$60K</tspan></text></g><g role="presentation"><line x1="578" x2="15" y1="230.36363636363637" y2="230.36363636363637" role="presentation" shape-rendering="auto" vector-effect="non-scaling-stroke" style="stroke: rgb(226, 226, 226); fill: transparent; stroke-width: 1; stroke-linecap: round; stroke-linejoin: round; pointer-events: none;"></line><line x1="578" x2="582" y1="230.36363636363637" y2="230.36363636363637" role="presentation" shape-rendering="auto" vector-effect="non-scaling-stroke" style="stroke: transparent; fill: transparent; size: 4px; stroke-width: 1; stroke-linecap: round; stroke-linejoin: round;"></line><text dx="0" dy="4.97" x="590" y="230.36363636363637"><tspan x="590" dx="0" text-anchor="start" style="fill: rgb(153, 153, 153); font-size: 14px; font-family: inherit; stroke: transparent; letter-spacing: normal; padding: 8px; stroke-width: 0;">$80K</tspan></text></g><g role="presentation"><line x1="578" x2="15" y1="186.72727272727272" y2="186.72727272727272" role="presentation" shape-rendering="auto" vector-effect="non-scaling-stroke" style="stroke: rgb(226, 226, 226); fill: transparent; stroke-width: 1; stroke-linecap: round; stroke-linejoin: round; pointer-events: none;"></line><line x1="578" x2="582" y1="186.72727272727272" y2="186.72727272727272" role="presentation" shape-rendering="auto" vector-effect="non-scaling-stroke" style="stroke: transparent; fill: transparent; size: 4px; stroke-width: 1; stroke-linecap: round; stroke-linejoin: round;"></line><text dx="0" dy="4.97" x="590" y="186.72727272727272"><tspan x="590" dx="0" text-anchor="start" style="fill: rgb(153, 153, 153); font-size: 14px; font-family: inherit; stroke: transparent; letter-spacing: normal; padding: 8px; stroke-width: 0;">$100K</tspan></text></g><g role="presentation"><line x1="578" x2="15" y1="143.0909090909091" y2="143.0909090909091" role="presentation" shape-rendering="auto" vector-effect="non-scaling-stroke" style="stroke: rgb(226, 226, 226); fill: transparent; stroke-width: 1; stroke-linecap: round; stroke-linejoin: round; pointer-events: none;"></line><line x1="578" x2="582" y1="143.0909090909091" y2="143.0909090909091" role="presentation" shape-rendering="auto" vector-effect="non-scaling-stroke" style="stroke: transparent; fill: transparent; size: 4px; stroke-width: 1; stroke-linecap: round; stroke-linejoin: round;"></line><text dx="0" dy="4.97" x="590" y="143.0909090909091"><tspan x="590" dx="0" text-anchor="start" style="fill: rgb(153, 153, 153); font-size: 14px; font-family: inherit; stroke: transparent; letter-spacing: normal; padding: 8px; stroke-width: 0;">$120K</tspan></text></g><g role="presentation"><line x1="578" x2="15" y1="99.45454545454544" y2="99.45454545454544" role="presentation" shape-rendering="auto" vector-effect="non-scaling-stroke" style="stroke: rgb(226, 226, 226); fill: transparent; stroke-width: 1; stroke-linecap: round; stroke-linejoin: round; pointer-events: none;"></line><line x1="578" x2="582" y1="99.45454545454544" y2="99.45454545454544" role="presentation" shape-rendering="auto" vector-effect="non-scaling-stroke" style="stroke: transparent; fill: transparent; size: 4px; stroke-width: 1; stroke-linecap: round; stroke-linejoin: round;"></line><text dx="0" dy="4.97" x="590" y="99.45454545454544"><tspan x="590" dx="0" text-anchor="start" style="fill: rgb(153, 153, 153); font-size: 14px; font-family: inherit; stroke: transparent; letter-spacing: normal; padding: 8px; stroke-width: 0;">$140K</tspan></text></g><g role="presentation"><line x1="578" x2="15" y1="55.81818181818181" y2="55.81818181818181" role="presentation" shape-rendering="auto" vector-effect="non-scaling-stroke" style="stroke: rgb(226, 226, 226); fill: transparent; stroke-width: 1; stroke-linecap: round; stroke-linejoin: round; pointer-events: none;"></line><line x1="578" x2="582" y1="55.81818181818181" y2="55.81818181818181" role="presentation" shape-rendering="auto" vector-effect="non-scaling-stroke" style="stroke: transparent; fill: transparent; size: 4px; stroke-width: 1; stroke-linecap: round; stroke-linejoin: round;"></line><text dx="0" dy="4.97" x="590" y="55.81818181818181"><tspan x="590" dx="0" text-anchor="start" style="fill: rgb(153, 153, 153); font-size: 14px; font-family: inherit; stroke: transparent; letter-spacing: normal; padding: 8px; stroke-width: 0;">$160K</tspan></text></g></g><g style="height: 100%; width: 100%; user-select: none;"><defs><clipPath id="victory-clip-5"><rect x="15" y="34" width="563" height="240"></rect></clipPath></defs><g clip-path="url(#victory-clip-5)"><path shape-rendering="auto" role="presentation" d="M24.5528188286809,216.1818181818182C27.73709177157453,215.1818181818182,30.921364714468165,214.1818181818182,34.1056376573618,212.9090909090909C37.28991060025543,211.63636363636363,40.47418354314906,208.54545454545456,43.658456486042695,208.54545454545456C46.7400109469075,208.54545454545456,49.821565407772304,222.72727272727275,52.90311986863711,222.72727272727275C56.08739281153075,222.72727272727275,59.271665754424376,208.54545454545456,62.45593869731801,208.54545454545456C65.54177309493402,208.54545454545456,68.62760749255003,222.85469625240628,71.71344189016602,230.36363636363637C74.89771483305965,238.1121127058766,78.0819877759533,254.36363636363637,81.26626071884692,254.36363636363637C84.45053366174056,254.36363636363637,87.63480660463419,243.19920757208894,90.81907954752783,239.0909090909091C93.69519704433499,235.3801878821015,96.57131454114213,236.1818181818182,99.44743203794928,230.36363636363637C102.62742504409171,223.93073593073595,105.80741805023415,160.54545454545456,108.98741105637657,160.54545454545456C112.06896551724138,160.54545454545456,115.15051997810617,204.1818181818182,118.23207443897098,204.1818181818182C121.41634738186463,204.1818181818182,124.60062032475825,155.8424242424242,127.7848932676519,155.09090909090907C130.8664477285167,154.36363636363635,133.9480021893815,154,137.02955665024632,154C140.21382959313993,154,143.39810253603358,241.4909090909091,146.5823754789272,241.4909090909091C149.76664842182083,241.4909090909091,152.95092136471445,157.27272727272725,156.1351943076081,157.27272727272725C159.2167487684729,157.27272727272725,162.2983032293377,191.0909090909091,165.37985769020253,191.0909090909091C168.56413063309614,191.0909090909091,171.74840357598978,189.70909090909092,174.9326765188834,186.94545454545454C178.0185109164994,184.26725317693058,181.10434531411542,173.80772905761344,184.19017971173142,164.9090909090909C187.37445265462506,155.7265849694227,190.55872559751867,132.4,193.74299854041232,132.4C196.92727148330596,132.4,200.1115444261996,157.98441558441556,203.29581736909324,164.9090909090909C206.1719348659004,171.16363636363636,209.04805236270755,174.29090909090908,211.9241698595147,174.29090909090908C215.10416286565712,174.29090909090908,218.28415587179956,152.51054530265057,221.46414887794197,145.27272727272728C224.5457033388068,138.25896013740453,227.62725779967158,131.0909090909091,230.7088122605364,131.0909090909091C233.89308520343002,131.0909090909091,237.07735814632366,136.21818181818182,240.26163108921727,146.47272727272727C243.3431855500821,156.39648093841646,246.4247400109469,217.27272727272728,249.5062944718117,217.27272727272728C252.69056741470536,217.27272727272728,255.874840357599,162.36363636363637,259.05911330049264,144.1818181818182C262.2433862433863,126.0000000000001,265.42765918627987,108.18181818181819,268.6119321291735,108.18181818181819C271.69348659003833,108.18181818181819,274.7750410509031,154,277.8565955117679,154C281.04086845466156,154,284.22514139755515,136.65454545454546,287.4094143404488,136.65454545454546C290.4952487380648,136.65454545454546,293.58108313568084,145.27272727272728,296.66691753329684,145.27272727272728C299.8511904761905,145.27272727272728,303.03546341908407,132.1818181818182,306.2197363619777,132.1818181818182C309.40400930487135,132.1818181818182,312.588282247765,151.8181818181818,315.77255519065864,151.8181818181818C318.6486726874658,151.8181818181818,321.52479018427294,116.9090909090909,324.4009076810801,116.9090909090909C327.58090068722254,116.9090909090909,330.76089369336495,135.45454545454547,333.94088669950736,135.45454545454547C337.0224411603722,135.45454545454547,340.10399562123695,114.2544877650113,343.18555008210177,106.76363636363638C346.3698230249954,99.02308991554892,349.55409596788905,90.18181818181819,352.7383689107827,90.18181818181819C355.8199233716475,90.18181818181819,358.9014778325123,138.72727272727275,361.9830322933771,138.72727272727275C365.16730523627075,138.72727272727275,368.35157817916433,125.09090909090911,371.535851122058,121.3818181818182C374.7201240649516,117.67272727272727,377.90439700784526,115.81818181818181,381.0886699507389,115.81818181818181C384.1702244116037,115.81818181818181,387.2517788724685,122.36363636363637,390.3333333333333,122.36363636363637C393.51760627622696,122.36363636363637,396.7018792191206,119.75042024147693,399.88615216201424,115.81818181818181C402.97198655963024,112.00750452894017,406.0578209572463,99.45454545454544,409.1436553548623,99.45454545454544C412.32792829775593,99.45454545454544,415.5122012406495,219.45454545454544,418.69647418354316,219.45454545454544C421.8807471264368,219.45454545454544,425.0650200693304,150.48420062695925,428.24929301222403,130.65454545454546C431.22812899106003,112.10422287390021,434.206964969896,100.65454545454546,437.185800948732,100.65454545454546C440.3657939548744,100.65454545454546,443.54578696101686,103.16363636363637,446.72577996715927,108.18181818181819C449.8073344280241,113.04465924385174,452.8888888888889,175.8181818181818,455.97044334975374,175.8181818181818C459.1547162926473,175.8181818181818,462.33898923554096,113.06092399403875,465.52326217843455,94.10909090909092C468.6048166392994,75.768607278496,471.6863711001642,62.363636363636374,474.767925561029,62.363636363636374C477.95219850392266,62.363636363636374,481.1364714468163,94.10909090909092,484.32074438970994,94.10909090909092C487.50501733260353,94.10909090909092,490.68929027549717,59.090909090909065,493.87356321839076,59.090909090909065C496.9551176792556,59.090909090909065,500.0366721401204,67.81818181818181,503.1182266009852,67.81818181818181C506.3024995438788,67.81818181818181,509.48677248677245,52.76363636363635,512.671045429666,52.76363636363635C515.7568798272821,52.76363636363635,518.8427142248981,53.781818181818174,521.9285486225142,55.81818181818181C525.1128215654078,57.91950573698143,528.2970945083015,72.72727272727272,531.4813674511951,72.72727272727272C534.6656403940887,72.72727272727272,537.8499133369824,70.0033017829628,541.0341862798759,66.72727272727272C543.9103037766831,63.76827874148814,546.7864212734902,54.72727272727272,549.6625387702974,54.72727272727272C552.8425317764398,54.72727272727272,556.0225247825822,77.6472727272727,559.2025177887247,77.6472727272727C562.2840722495895,77.6472727272727,565.3656267104543,53.09090909090909,568.4471811713191,53.09090909090909C571.6314541142127,53.09090909090909,574.8157270571064,79.54545454545455,578,106" style="fill: transparent; stroke: rgb(51, 51, 51); stroke-width: 2; opacity: 1;"></path></g></g></svg>