<svg xmlns="http://www.w3.org/2000/svg" width="640" height="324" role="img" aria-labelledby="victory-container-4-title victory-container-4-desc" viewBox="0 0 640 324" style="pointer-events: all; width: 100%; height: 100%;"><g role="presentation"><line x1="15" x2="578" y1="274" y2="274" role="presentation" shape-rendering="auto" vector-effect="non-scaling-stroke" style="stroke: rgb(226, 226, 226); fill: transparent; stroke-width: 1; stroke-linejoin: round;"></line><g role="presentation"><line x1="81.26626071884692" x2="81.26626071884692" y1="274" y2="34" role="presentation" shape-rendering="auto" vector-effect="non-scaling-stroke" style="stroke: transparent; fill: transparent; stroke-width: 1; stroke-linecap: round; stroke-linejoin: round; pointer-events: none;"></line><line x1="81.26626071884692" x2="81.26626071884692" y1="274" y2="278" role="presentation" shape-rendering="auto" vector-effect="non-scaling-stroke" style="stroke: transparent; fill: transparent; size: 4px; stroke-width: 1; stroke-linecap: round; stroke-linejoin: round;"></line><text dx="0" dy="11.969999999999999" x="81.26626071884692" y="286"><tspan x="81.26626071884692" dx="0" text-anchor="middle" style="fill: rgb(153, 153, 153); font-size: 14px; font-family: inherit; stroke: transparent; letter-spacing: normal; padding: 8px; stroke-width: 0;">2017</tspan></text></g><g role="presentation"><line x1="193.74299854041232" x2="193.74299854041232" y1="274" y2="34" role="presentation" shape-rendering="auto" vector-effect="non-scaling-stroke" style="stroke: transparent; fill: transparent; stroke-width: 1; stroke-linecap: round; stroke-linejoin: round; pointer-events: none;"></line><line x1="193.74299854041232" x2="193.74299854041232" y1="274" y2="278" role="presentation" shape-rendering="auto" vector-effect="non-scaling-stroke" style="stroke: transparent; fill: transparent; size: 4px; stroke-width: 1; stroke-linecap: round; stroke-linejoin: round;"></line><text dx="0" dy="11.969999999999999" x="193.74299854041232" y="286"><tspan x="193.74299854041232" dx="0" text-anchor="middle" style="fill: rgb(153, 153, 153); font-size: 14px; font-family: inherit; stroke: transparent; letter-spacing: normal; padding: 8px; stroke-width: 0;">2018</tspan></text></g><g role="presentation"><line x1="306.2197363619777" x2="306.2197363619777" y1="274" y2="34" role="presentation" shape-rendering="auto" vector-effect="non-scaling-stroke" style="stroke: transparent; fill: transparent; stroke-width: 1; stroke-linecap: round; stroke-linejoin: round; pointer-events: none;"></line><line x1="306.2197363619777" x2="306.2197363619777" y1="274" y2="278" role="presentation" shape-rendering="auto" vector-effect="non-scaling-stroke" style="stroke: transparent; fill: transparent; size: 4px; stroke-width: 1; stroke-linecap: round; stroke-linejoin: round;"></line><text dx="0" dy="11.969999999999999" x="306.2197363619777" y="286"><tspan x="306.2197363619777" dx="0" text-anchor="middle" style="fill: rgb(153, 153, 153); font-size: 14px; font-family: inherit; stroke: transparent; letter-spacing: normal; padding: 8px; stroke-width: 0;">2019</tspan></text></g><g role="presentation"><line x1="418.69647418354316" x2="418.69647418354316" y1="274" y2="34" role="presentation" shape-rendering="auto" vector-effect="non-scaling-stroke" style="stroke: transparent; fill: transparent; stroke-width: 1; stroke-linecap: round; stroke-linejoin: round; pointer-events: none;"></line><line x1="418.69647418354316" x2="418.69647418354316" y1="274" y2="278" role="presentation" shape-rendering="auto" vector-effect="non-scaling-stroke" style="stroke: transparent; fill: transparent; size: 4px; stroke-width: 1; stroke-linecap: round; stroke-linejoin: round;"></line><text dx="0" dy="11.969999999999999" x="418.69647418354316" y="286"><tspan x="418.69647418354316" dx="0" text-anchor="middle" style="fill: rgb(153, 153, 153); font-size: 14px; font-family: inherit; stroke: transparent; letter-spacing: normal; padding: 8px; stroke-width: 0;">2020</tspan></text></g><g role="presentation"><line x1="531.4813674511951" x2="531.4813674511951" y1="274" y2="34" role="presentation" shape-rendering="auto" vector-effect="non-scaling-stroke" style="stroke: transparent; fill: transparent; stroke-width: 1; stroke-linecap: round; stroke-linejoin: round; pointer-events: none;"></line><line x1="531.4813674511951" x2="531.4813674511951" y1="274" y2="278" role="presentation" shape-rendering="auto" vector-effect="non-scaling-stroke" style="stroke: transparent; fill: transparent; size: 4px; stroke-width: 1; stroke-linecap: round; stroke-linejoin: round;"></line><text dx="0" dy="11.969999999999999" x="531.4813674511951" y="286"><tspan x="531.4813674511951" dx="0" text-anchor="middle" style="fill: rgb(153, 153, 153); font-size: 14px; font-family: inherit; stroke: transparent; letter-spacing: normal; padding: 8px; stroke-width: 0;">2021</tspan></text></g></g><g role="presentation"><line x1="578" x2="578" y1="34" y2="274" role="presentation" shape-rendering="auto" vector-effect="non-scaling-stroke" style="stroke: transparent; fill: transparent; stroke-width: 1; stroke-linejoin: round;"></line><g role="presentation"><line x1="578" x2="15" y1="247.33333333333334" y2="247.33333333333334" role="presentation" shape-rendering="auto" vector-effect="non-scaling-stroke" style="stroke: rgb(226, 226, 226); fill: transparent; stroke-width: 1; stroke-linecap: round; stroke-linejoin: round; pointer-events: none;"></line><line x1="578" x2="582" y1="247.33333333333334" y2="247.33333333333334" role="presentation" shape-rendering="auto" vector-effect="non-scaling-stroke" style="stroke: transparent; fill: transparent; size: 4px; stroke-width: 1; stroke-linecap: round; stroke-linejoin: round;"></line><text dx="0" dy="4.97" x="590" y="247.33333333333334"><tspan x="590" dx="0" text-anchor="start" style="fill: rgb(153, 153, 153); font-size: 14px; font-family: inherit; stroke: transparent; letter-spacing: normal; padding: 8px; stroke-width: 0;">$100K</tspan></text></g><g role="presentation"><line x1="578" x2="15" y1="194" y2="194" role="presentation" shape-rendering="auto" vector-effect="non-scaling-stroke" style="stroke: rgb(226, 226, 226); fill: transparent; stroke-width: 1; stroke-linecap: round; stroke-linejoin: round; pointer-events: none;"></line><line x1="578" x2="582" y1="194" y2="194" role="presentation" shape-rendering="auto" vector-effect="non-scaling-stroke" style="stroke: transparent; fill: transparent; size: 4px; stroke-width: 1; stroke-linecap: round; stroke-linejoin: round;"></line><text dx="0" dy="4.97" x="590" y="194"><tspan x="590" dx="0" text-anchor="start" style="fill: rgb(153, 153, 153); font-size: 14px; font-family: inherit; stroke: transparent; letter-spacing: normal; padding: 8px; stroke-width: 0;">$120K</tspan></text></g><g role="presentation"><line x1="578" x2="15" y1="140.66666666666666" y2="140.66666666666666" role="presentation" shape-rendering="auto" vector-effect="non-scaling-stroke" style="stroke: rgb(226, 226, 226); fill: transparent; stroke-width: 1; stroke-linecap: round; stroke-linejoin: round; pointer-events: none;"></line><line x1="578" x2="582" y1="140.66666666666666" y2="140.66666666666666" role="presentation" shape-rendering="auto" vector-effect="non-scaling-stroke" style="stroke: transparent; fill: transparent; size: 4px; stroke-width: 1; stroke-linecap: round; stroke-linejoin: round;"></line><text dx="0" dy="4.97" x="590" y="140.66666666666666"><tspan x="590" dx="0" text-anchor="start" style="fill: rgb(153, 153, 153); font-size: 14px; font-family: inherit; stroke: transparent; letter-spacing: normal; padding: 8px; stroke-width: 0;">$140K</tspan></text></g><g role="presentation"><line x1="578" x2="15" y1="87.33333333333334" y2="87.33333333333334" role="presentation" shape-rendering="auto" vector-effect="non-scaling-stroke" style="stroke: rgb(226, 226, 226); fill: transparent; stroke-width: 1; stroke-linecap: round; stroke-linejoin: round; pointer-events: none;"></line><line x1="578" x2="582" y1="87.33333333333334" y2="87.33333333333334" role="presentation" shape-rendering="auto" vector-effect="non-scaling-stroke" style="stroke: transparent; fill: transparent; size: 4px; stroke-width: 1; stroke-linecap: round; stroke-linejoin: round;"></line><text dx="0" dy="4.97" x="590" y="87.33333333333334"><tspan x="590" dx="0" text-anchor="start" style="fill: rgb(153, 153, 153); font-size: 14px; font-family: inherit; stroke: transparent; letter-spacing: normal; padding: 8px; stroke-width: 0;">$160K</tspan></text></g><g role="presentation"><line x1="578" x2="15" y1="34" y2="34" role="presentation" shape-rendering="auto" vector-effect="non-scaling-stroke" style="stroke: rgb(226, 226, 226); fill: transparent; stroke-width: 1; stroke-linecap: round; stroke-linejoin: round; pointer-events: none;"></line><line x1="578" x2="582" y1="34" y2="34" role="presentation" shape-rendering="auto" vector-effect="non-scaling-stroke" style="stroke: transparent; fill: transparent; size: 4px; stroke-width: 1; stroke-linecap: round; stroke-linejoin: round;"></line><text dx="0" dy="4.97" x="590" y="34"><tspan x="590" dx="0" text-anchor="start" style="fill: rgb(153, 153, 153); font-size: 14px; font-family: inherit; stroke: transparent; letter-spacing: normal; padding: 8px; stroke-width: 0;">$180K</tspan></text></g></g><g style="height: 100%; width: 100%; user-select: none;"><defs><clipPath id="victory-clip-5"><rect x="15" y="34" width="563" height="240"></rect></clipPath></defs><g clip-path="url(#victory-clip-5)"><path shape-rendering="auto" role="presentation" d="M15.30815544608648,198C18.389709906951285,192,21.471264367816094,186,24.5528188286809,186C27.73709177157453,186,30.921364714468165,268.6666666666667,34.1056376573618,268.6666666666667C37.28991060025543,268.6666666666667,40.47418354314906,183.2,43.658456486042695,183.2C46.7400109469075,183.2,49.821565407772304,186,52.90311986863711,186C56.08739281153075,186,59.271665754424376,182,62.45593869731801,182C65.54177309493402,182,68.62760749255003,229.18860609563652,71.71344189016602,243.48266666666666C74.89771483305965,258.2327097524453,78.0819877759533,267.9266666666667,81.26626071884692,267.9266666666667C84.45053366174056,267.9266666666667,87.63480660463419,213.45086898036053,90.81907954752783,194C93.69519704433499,176.43147317902924,96.57131454114213,154,99.44743203794928,154C102.62742504409171,154,105.80741805023415,160.0716973409956,108.98741105637657,166C112.06896551724138,171.74478857938516,115.15051997810617,188.66666666666666,118.23207443897098,188.66666666666666C121.41634738186463,188.66666666666666,124.60062032475825,186.48888888888888,127.7848932676519,182.13333333333333C130.8664477285167,177.91827956989246,133.9480021893815,158.5068452905576,137.02955665024632,151.6C140.21382959313993,144.4629265330905,143.39810253603358,140.66666666666666,146.5823754789272,140.66666666666666C149.76664842182083,140.66666666666666,152.95092136471445,146.88959319975714,156.1351943076081,154C159.2167487684729,160.8810388389447,162.2983032293377,182.13333333333333,165.37985769020253,182.13333333333333C168.56413063309614,182.13333333333333,171.74840357598978,134,174.9326765188834,134C178.0185109164994,134,181.10434531411542,155.84670303905136,184.19017971173142,171.06666666666666C187.37445265462506,186.77214924495485,190.55872559751867,227.33333333333334,193.74299854041232,227.33333333333334C196.92727148330596,227.33333333333334,200.1115444261996,115.33333333333334,203.29581736909324,115.33333333333334C206.1719348659004,115.33333333333334,209.04805236270755,116.66666666666667,211.9241698595147,119.33333333333331C215.10416286565712,122.28174603174598,218.28415587179956,244.66666666666666,221.46414887794197,244.66666666666666C224.5457033388068,244.66666666666666,227.62725779967158,130,230.7088122605364,130C233.89308520343002,130,237.07735814632366,154,240.26163108921727,154C243.3431855500821,154,246.4247400109469,87.33333333333334,249.5062944718117,87.33333333333334C252.69056741470536,87.33333333333334,255.874840357599,180.66666666666669,259.05911330049264,180.66666666666669C262.2433862433863,180.66666666666669,265.42765918627987,179.7777777777778,268.6119321291735,178C271.69348659003833,176.2795698924731,274.7750410509031,137.46666666666667,277.8565955117679,137.46666666666667C281.04086845466156,137.46666666666667,284.22514139755515,175.06666666666666,287.4094143404488,175.06666666666666C290.4952487380648,175.06666666666666,293.58108313568084,131.33333333333334,296.66691753329684,131.33333333333334C299.8511904761905,131.33333333333334,303.03546341908407,219.33333333333334,306.2197363619777,219.33333333333334C309.40400930487135,219.33333333333334,312.588282247765,100.66666666666666,315.77255519065864,100.66666666666666C318.6486726874658,100.66666666666666,321.52479018427294,167.6,324.4009076810801,167.6C327.58090068722254,167.6,330.76089369336495,87.33333333333334,333.94088669950736,87.33333333333334C337.0224411603722,87.33333333333334,340.10399562123695,127.18996415770609,343.18555008210177,140.66666666666666C346.3698230249954,154.59259259259264,349.55409596788905,162.442744383728,352.7383689107827,168.66666666666669C355.8199233716475,174.68981726305893,358.9014778325123,178,361.9830322933771,178C365.16730523627075,178,368.35157817916433,119.6,371.535851122058,119.6C374.7201240649516,119.6,377.90439700784526,148.66666666666666,381.0886699507389,148.66666666666666C384.1702244116037,148.66666666666666,387.2517788724685,119.33333333333331,390.3333333333333,119.33333333333331C393.51760627622696,119.33333333333331,396.7018792191206,214,399.88615216201424,214C402.97198655963024,214,406.0578209572463,146.00266666666664,409.1436553548623,146.00266666666664C412.32792829775593,146.00266666666664,415.5122012406495,162,418.69647418354316,162C421.8807471264368,162,425.0650200693304,159.77777777777777,428.24929301222403,155.33333333333331C431.22812899106003,151.1756272401433,434.206964969896,141.88023702135175,437.185800948732,134C440.3657939548744,125.58762053611447,443.54578696101686,106.13333333333333,446.72577996715927,106.13333333333333C449.8073344280241,106.13333333333333,452.8888888888889,174.66666666666669,455.97044334975374,174.66666666666669C459.1547162926473,174.66666666666669,462.33898923554096,135.28949605343038,465.52326217843455,119.33333333333331C468.6048166392994,103.89188553969078,471.6863711001642,80,474.767925561029,80C477.95219850392266,80,481.1364714468163,179.33333333333334,484.32074438970994,179.33333333333334C487.50501733260353,179.33333333333334,490.68929027549717,116.25185185185185,493.87356321839076,115.33333333333334C496.9551176792556,114.44444444444444,500.0366721401204,114.8888888888889,503.1182266009852,114C506.3024995438788,113.08148148148149,509.48677248677245,91.33466666666666,512.671045429666,91.33466666666666C515.7568798272821,91.33466666666666,518.8427142248981,172.66666666666669,521.9285486225142,172.66666666666669C525.1128215654078,172.66666666666669,528.2970945083015,116.66666666666666,531.4813674511951,116.66666666666666C534.6656403940887,116.66666666666666,537.8499133369824,187.33333333333331,541.0341862798759,187.33333333333331C543.9103037766831,187.33333333333331,546.7864212734902,85.84755854643336,549.6625387702974,76C552.8425317764398,65.11200000000001,556.0225247825822,59.668000000000006,559.2025177887247,59.668000000000006C562.2840722495895,59.668000000000006,565.3656267104543,94.01333333333335,568.4471811713191,94.01333333333335C571.6314541142127,94.01333333333335,574.8157270571064,77.34000000000002,578,60.666666666666686" style="fill: transparent; stroke: rgb(51, 51, 51); stroke-width: 2; opacity: 1;"></path></g></g></svg>