<svg xmlns="http://www.w3.org/2000/svg" width="640" height="324" role="img" aria-labelledby="victory-container-4-title victory-container-4-desc" viewBox="0 0 640 324" style="pointer-events: all; width: 100%; height: 100%;"><g role="presentation"><line x1="15" x2="578" y1="274" y2="274" role="presentation" shape-rendering="auto" vector-effect="non-scaling-stroke" style="stroke: rgb(226, 226, 226); fill: transparent; stroke-width: 1; stroke-linejoin: round;"></line><g role="presentation"><line x1="81.26626071884692" x2="81.26626071884692" y1="274" y2="34" role="presentation" shape-rendering="auto" vector-effect="non-scaling-stroke" style="stroke: transparent; fill: transparent; stroke-width: 1; stroke-linecap: round; stroke-linejoin: round; pointer-events: none;"></line><line x1="81.26626071884692" x2="81.26626071884692" y1="274" y2="278" role="presentation" shape-rendering="auto" vector-effect="non-scaling-stroke" style="stroke: transparent; fill: transparent; size: 4px; stroke-width: 1; stroke-linecap: round; stroke-linejoin: round;"></line><text dx="0" dy="11.969999999999999" x="81.26626071884692" y="286"><tspan x="81.26626071884692" dx="0" text-anchor="middle" style="fill: rgb(153, 153, 153); font-size: 14px; font-family: inherit; stroke: transparent; letter-spacing: normal; padding: 8px; stroke-width: 0;">2017</tspan></text></g><g role="presentation"><line x1="193.74299854041232" x2="193.74299854041232" y1="274" y2="34" role="presentation" shape-rendering="auto" vector-effect="non-scaling-stroke" style="stroke: transparent; fill: transparent; stroke-width: 1; stroke-linecap: round; stroke-linejoin: round; pointer-events: none;"></line><line x1="193.74299854041232" x2="193.74299854041232" y1="274" y2="278" role="presentation" shape-rendering="auto" vector-effect="non-scaling-stroke" style="stroke: transparent; fill: transparent; size: 4px; stroke-width: 1; stroke-linecap: round; stroke-linejoin: round;"></line><text dx="0" dy="11.969999999999999" x="193.74299854041232" y="286"><tspan x="193.74299854041232" dx="0" text-anchor="middle" style="fill: rgb(153, 153, 153); font-size: 14px; font-family: inherit; stroke: transparent; letter-spacing: normal; padding: 8px; stroke-width: 0;">2018</tspan></text></g><g role="presentation"><line x1="306.2197363619777" x2="306.2197363619777" y1="274" y2="34" role="presentation" shape-rendering="auto" vector-effect="non-scaling-stroke" style="stroke: transparent; fill: transparent; stroke-width: 1; stroke-linecap: round; stroke-linejoin: round; pointer-events: none;"></line><line x1="306.2197363619777" x2="306.2197363619777" y1="274" y2="278" role="presentation" shape-rendering="auto" vector-effect="non-scaling-stroke" style="stroke: transparent; fill: transparent; size: 4px; stroke-width: 1; stroke-linecap: round; stroke-linejoin: round;"></line><text dx="0" dy="11.969999999999999" x="306.2197363619777" y="286"><tspan x="306.2197363619777" dx="0" text-anchor="middle" style="fill: rgb(153, 153, 153); font-size: 14px; font-family: inherit; stroke: transparent; letter-spacing: normal; padding: 8px; stroke-width: 0;">2019</tspan></text></g><g role="presentation"><line x1="418.69647418354316" x2="418.69647418354316" y1="274" y2="34" role="presentation" shape-rendering="auto" vector-effect="non-scaling-stroke" style="stroke: transparent; fill: transparent; stroke-width: 1; stroke-linecap: round; stroke-linejoin: round; pointer-events: none;"></line><line x1="418.69647418354316" x2="418.69647418354316" y1="274" y2="278" role="presentation" shape-rendering="auto" vector-effect="non-scaling-stroke" style="stroke: transparent; fill: transparent; size: 4px; stroke-width: 1; stroke-linecap: round; stroke-linejoin: round;"></line><text dx="0" dy="11.969999999999999" x="418.69647418354316" y="286"><tspan x="418.69647418354316" dx="0" text-anchor="middle" style="fill: rgb(153, 153, 153); font-size: 14px; font-family: inherit; stroke: transparent; letter-spacing: normal; padding: 8px; stroke-width: 0;">2020</tspan></text></g><g role="presentation"><line x1="531.4813674511951" x2="531.4813674511951" y1="274" y2="34" role="presentation" shape-rendering="auto" vector-effect="non-scaling-stroke" style="stroke: transparent; fill: transparent; stroke-width: 1; stroke-linecap: round; stroke-linejoin: round; pointer-events: none;"></line><line x1="531.4813674511951" x2="531.4813674511951" y1="274" y2="278" role="presentation" shape-rendering="auto" vector-effect="non-scaling-stroke" style="stroke: transparent; fill: transparent; size: 4px; stroke-width: 1; stroke-linecap: round; stroke-linejoin: round;"></line><text dx="0" dy="11.969999999999999" x="531.4813674511951" y="286"><tspan x="531.4813674511951" dx="0" text-anchor="middle" style="fill: rgb(153, 153, 153); font-size: 14px; font-family: inherit; stroke: transparent; letter-spacing: normal; padding: 8px; stroke-width: 0;">2021</tspan></text></g></g><g role="presentation"><line x1="578" x2="578" y1="34" y2="274" role="presentation" shape-rendering="auto" vector-effect="non-scaling-stroke" style="stroke: transparent; fill: transparent; stroke-width: 1; stroke-linejoin: round;"></line><g role="presentation"><line x1="578" x2="15" y1="274" y2="274" role="presentation" shape-rendering="auto" vector-effect="non-scaling-stroke" style="stroke: rgb(226, 226, 226); fill: transparent; stroke-width: 1; stroke-linecap: round; stroke-linejoin: round; pointer-events: none;"></line><line x1="578" x2="582" y1="274" y2="274" role="presentation" shape-rendering="auto" vector-effect="non-scaling-stroke" style="stroke: transparent; fill: transparent; size: 4px; stroke-width: 1; stroke-linecap: round; stroke-linejoin: round;"></line><text dx="0" dy="4.97" x="590" y="274"><tspan x="590" dx="0" text-anchor="start" style="fill: rgb(153, 153, 153); font-size: 14px; font-family: inherit; stroke: transparent; letter-spacing: normal; padding: 8px; stroke-width: 0;">$100K</tspan></text></g><g role="presentation"><line x1="578" x2="15" y1="214" y2="214" role="presentation" shape-rendering="auto" vector-effect="non-scaling-stroke" style="stroke: rgb(226, 226, 226); fill: transparent; stroke-width: 1; stroke-linecap: round; stroke-linejoin: round; pointer-events: none;"></line><line x1="578" x2="582" y1="214" y2="214" role="presentation" shape-rendering="auto" vector-effect="non-scaling-stroke" style="stroke: transparent; fill: transparent; size: 4px; stroke-width: 1; stroke-linecap: round; stroke-linejoin: round;"></line><text dx="0" dy="4.97" x="590" y="214"><tspan x="590" dx="0" text-anchor="start" style="fill: rgb(153, 153, 153); font-size: 14px; font-family: inherit; stroke: transparent; letter-spacing: normal; padding: 8px; stroke-width: 0;">$150K</tspan></text></g><g role="presentation"><line x1="578" x2="15" y1="154" y2="154" role="presentation" shape-rendering="auto" vector-effect="non-scaling-stroke" style="stroke: rgb(226, 226, 226); fill: transparent; stroke-width: 1; stroke-linecap: round; stroke-linejoin: round; pointer-events: none;"></line><line x1="578" x2="582" y1="154" y2="154" role="presentation" shape-rendering="auto" vector-effect="non-scaling-stroke" style="stroke: transparent; fill: transparent; size: 4px; stroke-width: 1; stroke-linecap: round; stroke-linejoin: round;"></line><text dx="0" dy="4.97" x="590" y="154"><tspan x="590" dx="0" text-anchor="start" style="fill: rgb(153, 153, 153); font-size: 14px; font-family: inherit; stroke: transparent; letter-spacing: normal; padding: 8px; stroke-width: 0;">$200K</tspan></text></g><g role="presentation"><line x1="578" x2="15" y1="94" y2="94" role="presentation" shape-rendering="auto" vector-effect="non-scaling-stroke" style="stroke: rgb(226, 226, 226); fill: transparent; stroke-width: 1; stroke-linecap: round; stroke-linejoin: round; pointer-events: none;"></line><line x1="578" x2="582" y1="94" y2="94" role="presentation" shape-rendering="auto" vector-effect="non-scaling-stroke" style="stroke: transparent; fill: transparent; size: 4px; stroke-width: 1; stroke-linecap: round; stroke-linejoin: round;"></line><text dx="0" dy="4.97" x="590" y="94"><tspan x="590" dx="0" text-anchor="start" style="fill: rgb(153, 153, 153); font-size: 14px; font-family: inherit; stroke: transparent; letter-spacing: normal; padding: 8px; stroke-width: 0;">$250K</tspan></text></g><g role="presentation"><line x1="578" x2="15" y1="34" y2="34" role="presentation" shape-rendering="auto" vector-effect="non-scaling-stroke" style="stroke: rgb(226, 226, 226); fill: transparent; stroke-width: 1; stroke-linecap: round; stroke-linejoin: round; pointer-events: none;"></line><line x1="578" x2="582" y1="34" y2="34" role="presentation" shape-rendering="auto" vector-effect="non-scaling-stroke" style="stroke: transparent; fill: transparent; size: 4px; stroke-width: 1; stroke-linecap: round; stroke-linejoin: round;"></line><text dx="0" dy="4.97" x="590" y="34"><tspan x="590" dx="0" text-anchor="start" style="fill: rgb(153, 153, 153); font-size: 14px; font-family: inherit; stroke: transparent; letter-spacing: normal; padding: 8px; stroke-width: 0;">$300K</tspan></text></g></g><g style="height: 100%; width: 100%; user-select: none;"><defs><clipPath id="victory-clip-5"><rect x="15" y="34" width="563" height="240"></rect></clipPath></defs><g clip-path="url(#victory-clip-5)"><path shape-rendering="auto" role="presentation" d="M24.5528188286809,187.89999999999998C27.73709177157453,194.95,30.921364714468165,202,34.1056376573618,202C37.28991060025543,202,40.47418354314906,184.72333333333333,43.658456486042695,184C46.7400109469075,183.29999999999998,49.821565407772304,182.95,52.90311986863711,182.95C56.08739281153075,182.95,59.271665754424376,193,62.45593869731801,193C65.54177309493402,193,68.62760749255003,187.60000000000002,71.71344189016602,187.60000000000002C74.89771483305965,187.60000000000002,78.0819877759533,188.558,81.26626071884692,189.76C84.45053366174056,190.962,87.63480660463419,193.08438983050848,90.81907954752783,194.812C93.69519704433499,196.372422088573,96.57131454114213,199.6,99.44743203794928,199.6C102.62742504409171,199.6,105.80741805023415,195.67831584643426,108.98741105637657,191.26C112.06896551724138,186.97845570735845,115.15051997810617,173.8,118.23207443897098,173.8C121.41634738186463,173.8,124.60062032475825,174.4,127.7848932676519,175.60000000000002C130.8664477285167,176.76129032258066,133.9480021893815,191.2,137.02955665024632,191.2C140.21382959313993,191.2,143.39810253603358,172.60000000000002,146.5823754789272,172.60000000000002C149.76664842182083,172.60000000000002,152.95092136471445,183.17333333333335,156.1351943076081,184C159.2167487684729,184.79999999999998,162.2983032293377,185.2,165.37985769020253,185.2C168.56413063309614,185.2,171.74840357598978,179.26,174.9326765188834,179.26C178.0185109164994,179.26,181.10434531411542,180.928,184.19017971173142,180.928C187.37445265462506,180.928,190.55872559751867,176.0812,193.74299854041232,176.0812C196.92727148330596,176.0812,200.1115444261996,192.39999999999998,203.29581736909324,192.39999999999998C206.1719348659004,192.39999999999998,209.04805236270755,158.31688775235537,211.9241698595147,157.43560000000002C215.10416286565712,156.4612,218.28415587179956,155.974,221.46414887794197,155.974C224.5457033388068,155.974,227.62725779967158,166,230.7088122605364,166C233.89308520343002,166,237.07735814632366,163.50479781420762,240.26163108921727,162.39999999999998C243.3431855500821,161.33084082496032,246.4247400109469,159.45999999999998,249.5062944718117,159.45999999999998C252.69056741470536,159.45999999999998,255.874840357599,170.8,259.05911330049264,170.8C262.2433862433863,170.8,265.42765918627987,150.41199999999998,268.6119321291735,150.41199999999998C271.69348659003833,150.41199999999998,274.7750410509031,165.6104939185616,277.8565955117679,170.2C281.04086845466156,174.94248961748633,284.22514139755515,178,287.4094143404488,178C290.4952487380648,178,293.58108313568084,161.55053763440858,296.66691753329684,160C299.8511904761905,158.4,303.03546341908407,157.60000000000002,306.2197363619777,157.60000000000002C309.40400930487135,157.60000000000002,312.588282247765,167.80599999999998,315.77255519065864,167.80599999999998C318.6486726874658,167.80599999999998,321.52479018427294,160.12,324.4009076810801,160.12C327.58090068722254,160.12,330.76089369336495,160.48,333.94088669950736,161.2C337.0224411603722,161.89771197846565,340.10399562123695,166,343.18555008210177,166C346.3698230249954,166,349.55409596788905,140.2,352.7383689107827,140.2C355.8199233716475,140.2,358.9014778325123,148.12,361.9830322933771,148.12C365.16730523627075,148.12,368.35157817916433,148.08,371.535851122058,148C374.7201240649516,147.92,377.90439700784526,134.26360000000003,381.0886699507389,134.26360000000003C384.1702244116037,134.26360000000003,387.2517788724685,143.2856843997885,390.3333333333333,146.16400000000002C393.51760627622696,149.13825945355194,396.7018792191206,151.6,399.88615216201424,151.6C402.97198655963024,151.6,406.0578209572463,150.84,409.1436553548623,149.32C412.32792829775593,147.7515117891817,415.5122012406495,140.79999999999998,418.69647418354316,140.79999999999998C421.8807471264368,140.79999999999998,425.0650200693304,164.8,428.24929301222403,164.8C431.22812899106003,164.8,434.206964969896,144.39999999999998,437.185800948732,144.39999999999998C440.3657939548744,144.39999999999998,443.54578696101686,161.2,446.72577996715927,161.2C449.8073344280241,161.2,452.8888888888889,159.20399999999998,455.97044334975374,155.212C459.1547162926473,151.08693333333338,462.33898923554096,126.4,465.52326217843455,126.4C468.6048166392994,126.4,471.6863711001642,135.6156784769963,474.767925561029,138.412C477.95219850392266,141.30153224043715,481.1364714468163,143.212,484.32074438970994,143.212C487.50501733260353,143.212,490.68929027549717,134.812,493.87356321839076,134.812C496.9551176792556,134.812,500.0366721401204,138.35254785827604,503.1182266009852,140.506C506.3024995438788,142.7312338797814,509.48677248677245,148,512.671045429666,148C515.7568798272821,148,518.8427142248981,134.8,521.9285486225142,134.8C525.1128215654078,134.8,528.2970945083015,145.6,531.4813674511951,145.6C534.6656403940887,145.6,537.8499133369824,113.19999999999999,541.0341862798759,113.19999999999999C543.9103037766831,113.19999999999999,546.7864212734902,118,549.6625387702974,118C552.8425317764398,118,556.0225247825822,107.20000000000002,559.2025177887247,107.20000000000002C562.2840722495895,107.20000000000002,565.3656267104543,124.83999999999997,568.4471811713191,124.83999999999997C571.6314541142127,124.83999999999997,574.8157270571064,119.67399999999999,578,114.50800000000001" style="fill: transparent; stroke: rgb(51, 51, 51); stroke-width: 2; opacity: 1;"></path></g></g></svg>