<svg xmlns="http://www.w3.org/2000/svg" width="640" height="324" role="img" aria-labelledby="victory-container-4-title victory-container-4-desc" viewBox="0 0 640 324" style="pointer-events: all; width: 100%; height: 100%;"><g role="presentation"><line x1="15" x2="578" y1="274" y2="274" role="presentation" shape-rendering="auto" vector-effect="non-scaling-stroke" style="stroke: rgb(226, 226, 226); fill: transparent; stroke-width: 1; stroke-linejoin: round;"></line><g role="presentation"><line x1="81.26626071884692" x2="81.26626071884692" y1="274" y2="34" role="presentation" shape-rendering="auto" vector-effect="non-scaling-stroke" style="stroke: transparent; fill: transparent; stroke-width: 1; stroke-linecap: round; stroke-linejoin: round; pointer-events: none;"></line><line x1="81.26626071884692" x2="81.26626071884692" y1="274" y2="278" role="presentation" shape-rendering="auto" vector-effect="non-scaling-stroke" style="stroke: transparent; fill: transparent; size: 4px; stroke-width: 1; stroke-linecap: round; stroke-linejoin: round;"></line><text dx="0" dy="11.969999999999999" x="81.26626071884692" y="286"><tspan x="81.26626071884692" dx="0" text-anchor="middle" style="fill: rgb(153, 153, 153); font-size: 14px; font-family: inherit; stroke: transparent; letter-spacing: normal; padding: 8px; stroke-width: 0;">2017</tspan></text></g><g role="presentation"><line x1="193.74299854041232" x2="193.74299854041232" y1="274" y2="34" role="presentation" shape-rendering="auto" vector-effect="non-scaling-stroke" style="stroke: transparent; fill: transparent; stroke-width: 1; stroke-linecap: round; stroke-linejoin: round; pointer-events: none;"></line><line x1="193.74299854041232" x2="193.74299854041232" y1="274" y2="278" role="presentation" shape-rendering="auto" vector-effect="non-scaling-stroke" style="stroke: transparent; fill: transparent; size: 4px; stroke-width: 1; stroke-linecap: round; stroke-linejoin: round;"></line><text dx="0" dy="11.969999999999999" x="193.74299854041232" y="286"><tspan x="193.74299854041232" dx="0" text-anchor="middle" style="fill: rgb(153, 153, 153); font-size: 14px; font-family: inherit; stroke: transparent; letter-spacing: normal; padding: 8px; stroke-width: 0;">2018</tspan></text></g><g role="presentation"><line x1="306.2197363619777" x2="306.2197363619777" y1="274" y2="34" role="presentation" shape-rendering="auto" vector-effect="non-scaling-stroke" style="stroke: transparent; fill: transparent; stroke-width: 1; stroke-linecap: round; stroke-linejoin: round; pointer-events: none;"></line><line x1="306.2197363619777" x2="306.2197363619777" y1="274" y2="278" role="presentation" shape-rendering="auto" vector-effect="non-scaling-stroke" style="stroke: transparent; fill: transparent; size: 4px; stroke-width: 1; stroke-linecap: round; stroke-linejoin: round;"></line><text dx="0" dy="11.969999999999999" x="306.2197363619777" y="286"><tspan x="306.2197363619777" dx="0" text-anchor="middle" style="fill: rgb(153, 153, 153); font-size: 14px; font-family: inherit; stroke: transparent; letter-spacing: normal; padding: 8px; stroke-width: 0;">2019</tspan></text></g><g role="presentation"><line x1="418.69647418354316" x2="418.69647418354316" y1="274" y2="34" role="presentation" shape-rendering="auto" vector-effect="non-scaling-stroke" style="stroke: transparent; fill: transparent; stroke-width: 1; stroke-linecap: round; stroke-linejoin: round; pointer-events: none;"></line><line x1="418.69647418354316" x2="418.69647418354316" y1="274" y2="278" role="presentation" shape-rendering="auto" vector-effect="non-scaling-stroke" style="stroke: transparent; fill: transparent; size: 4px; stroke-width: 1; stroke-linecap: round; stroke-linejoin: round;"></line><text dx="0" dy="11.969999999999999" x="418.69647418354316" y="286"><tspan x="418.69647418354316" dx="0" text-anchor="middle" style="fill: rgb(153, 153, 153); font-size: 14px; font-family: inherit; stroke: transparent; letter-spacing: normal; padding: 8px; stroke-width: 0;">2020</tspan></text></g><g role="presentation"><line x1="531.4813674511951" x2="531.4813674511951" y1="274" y2="34" role="presentation" shape-rendering="auto" vector-effect="non-scaling-stroke" style="stroke: transparent; fill: transparent; stroke-width: 1; stroke-linecap: round; stroke-linejoin: round; pointer-events: none;"></line><line x1="531.4813674511951" x2="531.4813674511951" y1="274" y2="278" role="presentation" shape-rendering="auto" vector-effect="non-scaling-stroke" style="stroke: transparent; fill: transparent; size: 4px; stroke-width: 1; stroke-linecap: round; stroke-linejoin: round;"></line><text dx="0" dy="11.969999999999999" x="531.4813674511951" y="286"><tspan x="531.4813674511951" dx="0" text-anchor="middle" style="fill: rgb(153, 153, 153); font-size: 14px; font-family: inherit; stroke: transparent; letter-spacing: normal; padding: 8px; stroke-width: 0;">2021</tspan></text></g></g><g role="presentation"><line x1="578" x2="578" y1="34" y2="274" role="presentation" shape-rendering="auto" vector-effect="non-scaling-stroke" style="stroke: transparent; fill: transparent; stroke-width: 1; stroke-linejoin: round;"></line><g role="presentation"><line x1="578" x2="15" y1="274" y2="274" role="presentation" shape-rendering="auto" vector-effect="non-scaling-stroke" style="stroke: rgb(226, 226, 226); fill: transparent; stroke-width: 1; stroke-linecap: round; stroke-linejoin: round; pointer-events: none;"></line><line x1="578" x2="582" y1="274" y2="274" role="presentation" shape-rendering="auto" vector-effect="non-scaling-stroke" style="stroke: transparent; fill: transparent; size: 4px; stroke-width: 1; stroke-linecap: round; stroke-linejoin: round;"></line><text dx="0" dy="4.97" x="590" y="274"><tspan x="590" dx="0" text-anchor="start" style="fill: rgb(153, 153, 153); font-size: 14px; font-family: inherit; stroke: transparent; letter-spacing: normal; padding: 8px; stroke-width: 0;">$100K</tspan></text></g><g role="presentation"><line x1="578" x2="15" y1="214" y2="214" role="presentation" shape-rendering="auto" vector-effect="non-scaling-stroke" style="stroke: rgb(226, 226, 226); fill: transparent; stroke-width: 1; stroke-linecap: round; stroke-linejoin: round; pointer-events: none;"></line><line x1="578" x2="582" y1="214" y2="214" role="presentation" shape-rendering="auto" vector-effect="non-scaling-stroke" style="stroke: transparent; fill: transparent; size: 4px; stroke-width: 1; stroke-linecap: round; stroke-linejoin: round;"></line><text dx="0" dy="4.97" x="590" y="214"><tspan x="590" dx="0" text-anchor="start" style="fill: rgb(153, 153, 153); font-size: 14px; font-family: inherit; stroke: transparent; letter-spacing: normal; padding: 8px; stroke-width: 0;">$150K</tspan></text></g><g role="presentation"><line x1="578" x2="15" y1="154" y2="154" role="presentation" shape-rendering="auto" vector-effect="non-scaling-stroke" style="stroke: rgb(226, 226, 226); fill: transparent; stroke-width: 1; stroke-linecap: round; stroke-linejoin: round; pointer-events: none;"></line><line x1="578" x2="582" y1="154" y2="154" role="presentation" shape-rendering="auto" vector-effect="non-scaling-stroke" style="stroke: transparent; fill: transparent; size: 4px; stroke-width: 1; stroke-linecap: round; stroke-linejoin: round;"></line><text dx="0" dy="4.97" x="590" y="154"><tspan x="590" dx="0" text-anchor="start" style="fill: rgb(153, 153, 153); font-size: 14px; font-family: inherit; stroke: transparent; letter-spacing: normal; padding: 8px; stroke-width: 0;">$200K</tspan></text></g><g role="presentation"><line x1="578" x2="15" y1="94" y2="94" role="presentation" shape-rendering="auto" vector-effect="non-scaling-stroke" style="stroke: rgb(226, 226, 226); fill: transparent; stroke-width: 1; stroke-linecap: round; stroke-linejoin: round; pointer-events: none;"></line><line x1="578" x2="582" y1="94" y2="94" role="presentation" shape-rendering="auto" vector-effect="non-scaling-stroke" style="stroke: transparent; fill: transparent; size: 4px; stroke-width: 1; stroke-linecap: round; stroke-linejoin: round;"></line><text dx="0" dy="4.97" x="590" y="94"><tspan x="590" dx="0" text-anchor="start" style="fill: rgb(153, 153, 153); font-size: 14px; font-family: inherit; stroke: transparent; letter-spacing: normal; padding: 8px; stroke-width: 0;">$250K</tspan></text></g><g role="presentation"><line x1="578" x2="15" y1="34" y2="34" role="presentation" shape-rendering="auto" vector-effect="non-scaling-stroke" style="stroke: rgb(226, 226, 226); fill: transparent; stroke-width: 1; stroke-linecap: round; stroke-linejoin: round; pointer-events: none;"></line><line x1="578" x2="582" y1="34" y2="34" role="presentation" shape-rendering="auto" vector-effect="non-scaling-stroke" style="stroke: transparent; fill: transparent; size: 4px; stroke-width: 1; stroke-linecap: round; stroke-linejoin: round;"></line><text dx="0" dy="4.97" x="590" y="34"><tspan x="590" dx="0" text-anchor="start" style="fill: rgb(153, 153, 153); font-size: 14px; font-family: inherit; stroke: transparent; letter-spacing: normal; padding: 8px; stroke-width: 0;">$300K</tspan></text></g></g><g style="height: 100%; width: 100%; user-select: none;"><defs><clipPath id="victory-clip-5"><rect x="15" y="34" width="563" height="240"></rect></clipPath></defs><g clip-path="url(#victory-clip-5)"><path shape-rendering="auto" role="presentation" d="M24.5528188286809,253.006C27.73709177157453,248.623,30.921364714468165,244.24,34.1056376573618,244.24C37.28991060025543,244.24,40.47418354314906,264.1,43.658456486042695,264.1C46.7400109469075,264.1,49.821565407772304,232.12,52.90311986863711,232.12C56.08739281153075,232.12,59.271665754424376,252.4,62.45593869731801,252.4C65.54177309493402,252.4,68.62760749255003,247.70592725145875,71.71344189016602,243.9946C74.89771483305965,240.1648808944725,78.0819877759533,229.6,81.26626071884692,229.6C84.45053366174056,229.6,87.63480660463419,240.7,90.81907954752783,240.7C93.69519704433499,240.7,96.57131454114213,220,99.44743203794928,220C102.62742504409171,220,105.80741805023415,241,108.98741105637657,241C112.06896551724138,241,115.15051997810617,234.98064516129034,118.23207443897098,234.4C121.41634738186463,233.8,124.60062032475825,233.5,127.7848932676519,233.5C130.8664477285167,233.5,133.9480021893815,239.8,137.02955665024632,239.8C140.21382959313993,239.8,143.39810253603358,237.20000000000002,146.5823754789272,232C149.76664842182083,226.79999999999998,152.95092136471445,200.8,156.1351943076081,200.8C159.2167487684729,200.8,162.2983032293377,228.8722580645161,165.37985769020253,231.04C168.56413063309614,233.28,171.74840357598978,234.4,174.9326765188834,234.4C178.0185109164994,234.4,181.10434531411542,230.15730283680136,184.19017971173142,227.8C187.37445265462506,225.36749887575562,190.55872559751867,220,193.74299854041232,220C196.92727148330596,220,200.1115444261996,233.4614285714286,203.29581736909324,233.86C206.1719348659004,234.22,209.04805236270755,234.4,211.9241698595147,234.4C215.10416286565712,234.4,218.28415587179956,211.06,221.46414887794197,211.06C224.5457033388068,211.06,227.62725779967158,222.13655208884188,230.7088122605364,226C233.89308520343002,229.99222950819671,237.07735814632366,234.4,240.26163108921727,234.4C243.3431855500821,234.4,246.4247400109469,234,249.5062944718117,233.2C252.69056741470536,232.3733333333333,255.874840357599,209.2,259.05911330049264,209.2C262.2433862433863,209.2,265.42765918627987,247,268.6119321291735,247C271.69348659003833,247,274.7750410509031,236.5158540454786,277.8565955117679,232.12C281.04086845466156,227.57761748633882,284.22514139755515,228.18,287.4094143404488,220.3C290.4952487380648,212.6636021505376,293.58108313568084,178,296.66691753329684,178C299.8511904761905,178,303.03546341908407,232,306.2197363619777,232C309.40400930487135,232,312.588282247765,212.2,315.77255519065864,212.2C318.6486726874658,212.2,321.52479018427294,216.37,324.4009076810801,216.37C327.58090068722254,216.37,330.76089369336495,194.2,333.94088669950736,194.2C337.0224411603722,194.2,340.10399562123695,200.2027498677948,343.18555008210177,202C346.3698230249954,203.85715846994538,349.55409596788905,205,352.7383689107827,205C355.8199233716475,205,358.9014778325123,198.4,361.9830322933771,198.4C365.16730523627075,198.4,368.35157817916433,202.06,371.535851122058,202.06C374.7201240649516,202.06,377.90439700784526,178.12,381.0886699507389,178.12C384.1702244116037,178.12,387.2517788724685,187.49658381808567,390.3333333333333,192.39999999999998C393.51760627622696,197.46686338797812,396.7018792191206,208.06,399.88615216201424,208.06C402.97198655963024,208.06,406.0578209572463,206.64000000000001,409.1436553548623,203.8C412.32792829775593,200.86940360610268,415.5122012406495,178,418.69647418354316,178C421.8807471264368,178,425.0650200693304,238,428.24929301222403,238C431.22812899106003,238,434.206964969896,209.23584691477652,437.185800948732,200.29000000000002C440.3657939548744,190.7400513539096,443.54578696101686,184.0306,446.72577996715927,184.0306C449.8073344280241,184.0306,452.8888888888889,190.9,455.97044334975374,190.9C459.1547162926473,190.9,462.33898923554096,178.12,465.52326217843455,178.12C468.6048166392994,178.12,471.6863711001642,182.01863564251715,474.767925561029,188.2C477.95219850392266,194.58740983606558,481.1364714468163,216.4,484.32074438970994,216.4C487.50501733260353,216.4,490.68929027549717,197.86,493.87356321839076,197.86C496.9551176792556,197.86,500.0366721401204,198.4,503.1182266009852,198.4C506.3024995438788,198.4,509.48677248677245,193.47422171519452,512.671045429666,190C515.7568798272821,186.63318030019448,518.8427142248981,179.89940860215057,521.9285486225142,178C525.1128215654078,176.04,528.2970945083015,175.06,531.4813674511951,175.06C534.6656403940887,175.06,537.8499133369824,184,541.0341862798759,184C543.9103037766831,184,546.7864212734902,181,549.6625387702974,181C552.8425317764398,181,556.0225247825822,181.6,559.2025177887247,181.6C562.2840722495895,181.6,565.3656267104543,146.8,568.4471811713191,146.8C571.6314541142127,146.8,574.8157270571064,153.4,578,160" style="fill: transparent; stroke: rgb(51, 51, 51); stroke-width: 2; opacity: 1;"></path></g></g></svg>