<svg xmlns="http://www.w3.org/2000/svg" width="640" height="324" role="img" aria-labelledby="victory-container-4-title victory-container-4-desc" viewBox="0 0 640 324" style="pointer-events: all; width: 100%; height: 100%;"><g role="presentation"><line x1="15" x2="578" y1="274" y2="274" role="presentation" shape-rendering="auto" vector-effect="non-scaling-stroke" style="stroke: rgb(226, 226, 226); fill: transparent; stroke-width: 1; stroke-linejoin: round;"></line><g role="presentation"><line x1="81.26626071884692" x2="81.26626071884692" y1="274" y2="34" role="presentation" shape-rendering="auto" vector-effect="non-scaling-stroke" style="stroke: transparent; fill: transparent; stroke-width: 1; stroke-linecap: round; stroke-linejoin: round; pointer-events: none;"></line><line x1="81.26626071884692" x2="81.26626071884692" y1="274" y2="278" role="presentation" shape-rendering="auto" vector-effect="non-scaling-stroke" style="stroke: transparent; fill: transparent; size: 4px; stroke-width: 1; stroke-linecap: round; stroke-linejoin: round;"></line><text dx="0" dy="11.969999999999999" x="81.26626071884692" y="286"><tspan x="81.26626071884692" dx="0" text-anchor="middle" style="fill: rgb(153, 153, 153); font-size: 14px; font-family: inherit; stroke: transparent; letter-spacing: normal; padding: 8px; stroke-width: 0;">2017</tspan></text></g><g role="presentation"><line x1="193.74299854041232" x2="193.74299854041232" y1="274" y2="34" role="presentation" shape-rendering="auto" vector-effect="non-scaling-stroke" style="stroke: transparent; fill: transparent; stroke-width: 1; stroke-linecap: round; stroke-linejoin: round; pointer-events: none;"></line><line x1="193.74299854041232" x2="193.74299854041232" y1="274" y2="278" role="presentation" shape-rendering="auto" vector-effect="non-scaling-stroke" style="stroke: transparent; fill: transparent; size: 4px; stroke-width: 1; stroke-linecap: round; stroke-linejoin: round;"></line><text dx="0" dy="11.969999999999999" x="193.74299854041232" y="286"><tspan x="193.74299854041232" dx="0" text-anchor="middle" style="fill: rgb(153, 153, 153); font-size: 14px; font-family: inherit; stroke: transparent; letter-spacing: normal; padding: 8px; stroke-width: 0;">2018</tspan></text></g><g role="presentation"><line x1="306.2197363619777" x2="306.2197363619777" y1="274" y2="34" role="presentation" shape-rendering="auto" vector-effect="non-scaling-stroke" style="stroke: transparent; fill: transparent; stroke-width: 1; stroke-linecap: round; stroke-linejoin: round; pointer-events: none;"></line><line x1="306.2197363619777" x2="306.2197363619777" y1="274" y2="278" role="presentation" shape-rendering="auto" vector-effect="non-scaling-stroke" style="stroke: transparent; fill: transparent; size: 4px; stroke-width: 1; stroke-linecap: round; stroke-linejoin: round;"></line><text dx="0" dy="11.969999999999999" x="306.2197363619777" y="286"><tspan x="306.2197363619777" dx="0" text-anchor="middle" style="fill: rgb(153, 153, 153); font-size: 14px; font-family: inherit; stroke: transparent; letter-spacing: normal; padding: 8px; stroke-width: 0;">2019</tspan></text></g><g role="presentation"><line x1="418.69647418354316" x2="418.69647418354316" y1="274" y2="34" role="presentation" shape-rendering="auto" vector-effect="non-scaling-stroke" style="stroke: transparent; fill: transparent; stroke-width: 1; stroke-linecap: round; stroke-linejoin: round; pointer-events: none;"></line><line x1="418.69647418354316" x2="418.69647418354316" y1="274" y2="278" role="presentation" shape-rendering="auto" vector-effect="non-scaling-stroke" style="stroke: transparent; fill: transparent; size: 4px; stroke-width: 1; stroke-linecap: round; stroke-linejoin: round;"></line><text dx="0" dy="11.969999999999999" x="418.69647418354316" y="286"><tspan x="418.69647418354316" dx="0" text-anchor="middle" style="fill: rgb(153, 153, 153); font-size: 14px; font-family: inherit; stroke: transparent; letter-spacing: normal; padding: 8px; stroke-width: 0;">2020</tspan></text></g><g role="presentation"><line x1="531.4813674511951" x2="531.4813674511951" y1="274" y2="34" role="presentation" shape-rendering="auto" vector-effect="non-scaling-stroke" style="stroke: transparent; fill: transparent; stroke-width: 1; stroke-linecap: round; stroke-linejoin: round; pointer-events: none;"></line><line x1="531.4813674511951" x2="531.4813674511951" y1="274" y2="278" role="presentation" shape-rendering="auto" vector-effect="non-scaling-stroke" style="stroke: transparent; fill: transparent; size: 4px; stroke-width: 1; stroke-linecap: round; stroke-linejoin: round;"></line><text dx="0" dy="11.969999999999999" x="531.4813674511951" y="286"><tspan x="531.4813674511951" dx="0" text-anchor="middle" style="fill: rgb(153, 153, 153); font-size: 14px; font-family: inherit; stroke: transparent; letter-spacing: normal; padding: 8px; stroke-width: 0;">2021</tspan></text></g></g><g role="presentation"><line x1="578" x2="578" y1="34" y2="274" role="presentation" shape-rendering="auto" vector-effect="non-scaling-stroke" style="stroke: transparent; fill: transparent; stroke-width: 1; stroke-linejoin: round;"></line><g role="presentation"><line x1="578" x2="15" y1="274" y2="274" role="presentation" shape-rendering="auto" vector-effect="non-scaling-stroke" style="stroke: rgb(226, 226, 226); fill: transparent; stroke-width: 1; stroke-linecap: round; stroke-linejoin: round; pointer-events: none;"></line><line x1="578" x2="582" y1="274" y2="274" role="presentation" shape-rendering="auto" vector-effect="non-scaling-stroke" style="stroke: transparent; fill: transparent; size: 4px; stroke-width: 1; stroke-linecap: round; stroke-linejoin: round;"></line><text dx="0" dy="4.97" x="590" y="274"><tspan x="590" dx="0" text-anchor="start" style="fill: rgb(153, 153, 153); font-size: 14px; font-family: inherit; stroke: transparent; letter-spacing: normal; padding: 8px; stroke-width: 0;">$100K</tspan></text></g><g role="presentation"><line x1="578" x2="15" y1="214" y2="214" role="presentation" shape-rendering="auto" vector-effect="non-scaling-stroke" style="stroke: rgb(226, 226, 226); fill: transparent; stroke-width: 1; stroke-linecap: round; stroke-linejoin: round; pointer-events: none;"></line><line x1="578" x2="582" y1="214" y2="214" role="presentation" shape-rendering="auto" vector-effect="non-scaling-stroke" style="stroke: transparent; fill: transparent; size: 4px; stroke-width: 1; stroke-linecap: round; stroke-linejoin: round;"></line><text dx="0" dy="4.97" x="590" y="214"><tspan x="590" dx="0" text-anchor="start" style="fill: rgb(153, 153, 153); font-size: 14px; font-family: inherit; stroke: transparent; letter-spacing: normal; padding: 8px; stroke-width: 0;">$150K</tspan></text></g><g role="presentation"><line x1="578" x2="15" y1="154" y2="154" role="presentation" shape-rendering="auto" vector-effect="non-scaling-stroke" style="stroke: rgb(226, 226, 226); fill: transparent; stroke-width: 1; stroke-linecap: round; stroke-linejoin: round; pointer-events: none;"></line><line x1="578" x2="582" y1="154" y2="154" role="presentation" shape-rendering="auto" vector-effect="non-scaling-stroke" style="stroke: transparent; fill: transparent; size: 4px; stroke-width: 1; stroke-linecap: round; stroke-linejoin: round;"></line><text dx="0" dy="4.97" x="590" y="154"><tspan x="590" dx="0" text-anchor="start" style="fill: rgb(153, 153, 153); font-size: 14px; font-family: inherit; stroke: transparent; letter-spacing: normal; padding: 8px; stroke-width: 0;">$200K</tspan></text></g><g role="presentation"><line x1="578" x2="15" y1="94" y2="94" role="presentation" shape-rendering="auto" vector-effect="non-scaling-stroke" style="stroke: rgb(226, 226, 226); fill: transparent; stroke-width: 1; stroke-linecap: round; stroke-linejoin: round; pointer-events: none;"></line><line x1="578" x2="582" y1="94" y2="94" role="presentation" shape-rendering="auto" vector-effect="non-scaling-stroke" style="stroke: transparent; fill: transparent; size: 4px; stroke-width: 1; stroke-linecap: round; stroke-linejoin: round;"></line><text dx="0" dy="4.97" x="590" y="94"><tspan x="590" dx="0" text-anchor="start" style="fill: rgb(153, 153, 153); font-size: 14px; font-family: inherit; stroke: transparent; letter-spacing: normal; padding: 8px; stroke-width: 0;">$250K</tspan></text></g><g role="presentation"><line x1="578" x2="15" y1="34" y2="34" role="presentation" shape-rendering="auto" vector-effect="non-scaling-stroke" style="stroke: rgb(226, 226, 226); fill: transparent; stroke-width: 1; stroke-linecap: round; stroke-linejoin: round; pointer-events: none;"></line><line x1="578" x2="582" y1="34" y2="34" role="presentation" shape-rendering="auto" vector-effect="non-scaling-stroke" style="stroke: transparent; fill: transparent; size: 4px; stroke-width: 1; stroke-linecap: round; stroke-linejoin: round;"></line><text dx="0" dy="4.97" x="590" y="34"><tspan x="590" dx="0" text-anchor="start" style="fill: rgb(153, 153, 153); font-size: 14px; font-family: inherit; stroke: transparent; letter-spacing: normal; padding: 8px; stroke-width: 0;">$300K</tspan></text></g></g><g style="height: 100%; width: 100%; user-select: none;"><defs><clipPath id="victory-clip-5"><rect x="15" y="34" width="563" height="240"></rect></clipPath></defs><g clip-path="url(#victory-clip-5)"><path shape-rendering="auto" role="presentation" d="M24.5528188286809,157C27.73709177157453,171.1,30.921364714468165,185.2,34.1056376573618,185.2C37.28991060025543,185.2,40.47418354314906,184.79999999999998,43.658456486042695,184C46.7400109469075,183.2258064516129,49.821565407772304,163,52.90311986863711,163C56.08739281153075,163,59.271665754424376,180.39999999999998,62.45593869731801,180.39999999999998C65.54177309493402,180.39999999999998,68.62760749255003,166.12,71.71344189016602,166.12C74.89771483305965,166.12,78.0819877759533,184.02,81.26626071884692,190C84.45053366174056,195.98000000000002,87.63480660463419,202,90.81907954752783,202C93.69519704433499,202,96.57131454114213,178,99.44743203794928,178C102.62742504409171,178,105.80741805023415,178,108.98741105637657,178C112.06896551724138,178,115.15051997810617,170.8167530407192,118.23207443897098,166.12C121.41634738186463,161.26668852459017,124.60062032475825,154.28437158469944,127.7848932676519,149.2C130.8664477285167,144.27964040190375,133.9480021893815,136,137.02955665024632,136C140.21382959313993,136,143.39810253603358,156.4,146.5823754789272,163.6C149.76664842182083,170.8,152.95092136471445,179.2,156.1351943076081,179.2C159.2167487684729,179.2,162.2983032293377,148,165.37985769020253,148C168.56413063309614,148,171.74840357598978,160,174.9326765188834,160C178.0185109164994,160,181.10434531411542,158.2924413739954,184.19017971173142,157.60000000000002C187.37445265462506,156.88546965013518,190.55872559751867,155.8,193.74299854041232,155.8C196.92727148330596,155.8,200.1115444261996,172.12,203.29581736909324,172.12C206.1719348659004,172.12,209.04805236270755,160.6077719112185,211.9241698595147,154C215.10416286565712,146.69408552078076,218.28415587179956,130,221.46414887794197,130C224.5457033388068,130,227.62725779967158,178,230.7088122605364,178C233.89308520343002,178,237.07735814632366,123.80799999999999,240.26163108921727,123.80799999999999C243.3431855500821,123.80799999999999,246.4247400109469,127.85705764145953,249.5062944718117,131.79999999999998C252.69056741470536,135.8743737704918,255.874840357599,143.42,259.05911330049264,148.12C262.2433862433863,152.82,265.42765918627987,160,268.6119321291735,160C271.69348659003833,160,274.7750410509031,159.68,277.8565955117679,159.04000000000002C281.04086845466156,158.3786666666667,284.22514139755515,148,287.4094143404488,148C290.4952487380648,148,293.58108313568084,156.9098030936915,296.66691753329684,160C299.8511904761905,163.18877461621847,303.03546341908407,166.66000000000003,306.2197363619777,166.66000000000003C309.40400930487135,166.66000000000003,312.588282247765,117.4,315.77255519065864,117.4C318.6486726874658,117.4,321.52479018427294,148.48,324.4009076810801,148.48C327.58090068722254,148.48,330.76089369336495,147.94,333.94088669950736,146.85999999999999C337.0224411603722,145.81343203230145,340.10399562123695,133.60000000000002,343.18555008210177,133.60000000000002C346.3698230249954,133.60000000000002,349.55409596788905,145.06533333333334,352.7383689107827,148C355.8199233716475,150.84,358.9014778325123,152.26,361.9830322933771,152.26C365.16730523627075,152.26,368.35157817916433,138.85999999999996,371.535851122058,133.14999999999998C374.7201240649516,127.43999999999996,377.90439700784526,118,381.0886699507389,118C384.1702244116037,118,387.2517788724685,138.1,390.3333333333333,138.1C393.51760627622696,138.1,396.7018792191206,135.4,399.88615216201424,135.4C402.97198655963024,135.4,406.0578209572463,138.64113187639913,409.1436553548623,142C412.32792829775593,145.46601648260616,415.5122012406495,152.07999999999998,418.69647418354316,156.1C421.8807471264368,160.12,425.0650200693304,166.12,428.24929301222403,166.12C431.22812899106003,166.12,434.206964969896,128.8,437.185800948732,128.8C440.3657939548744,128.8,443.54578696101686,158.8,446.72577996715927,158.8C449.8073344280241,158.8,452.8888888888889,149.9805393971444,455.97044334975374,144.39999999999998C459.1547162926473,138.63344262295084,462.33898923554096,124.6,465.52326217843455,124.6C468.6048166392994,124.6,471.6863711001642,125.19999999999999,474.767925561029,125.19999999999999C477.95219850392266,125.19999999999999,481.1364714468163,117.4,484.32074438970994,117.4C487.50501733260353,117.4,490.68929027549717,136,493.87356321839076,136C496.9551176792556,136,500.0366721401204,120.4,503.1182266009852,120.4C506.3024995438788,120.4,509.48677248677245,130,512.671045429666,130C515.7568798272821,130,518.8427142248981,121.42620142023563,521.9285486225142,118.06C525.1128215654078,114.5864162875794,528.2970945083015,109.6,531.4813674511951,109.6C534.6656403940887,109.6,537.8499133369824,139.6,541.0341862798759,139.6C543.9103037766831,139.6,546.7864212734902,119.69421265141315,549.6625387702974,116.79999999999998C552.8425317764398,113.6,556.0225247825822,114.88375863902178,559.2025177887247,112C562.2840722495895,109.20550979798695,565.3656267104543,102.86092014806981,568.4471811713191,100C571.6314541142127,97.04371584699456,574.8157270571064,95.91185792349728,578,94.78" style="fill: transparent; stroke: rgb(51, 51, 51); stroke-width: 2; opacity: 1;"></path></g></g></svg>