<svg xmlns="http://www.w3.org/2000/svg" width="640" height="324" role="img" aria-labelledby="victory-container-4-title victory-container-4-desc" viewBox="0 0 640 324" style="pointer-events: all; width: 100%; height: 100%;"><g role="presentation"><line x1="15" x2="578" y1="274" y2="274" role="presentation" shape-rendering="auto" vector-effect="non-scaling-stroke" style="stroke: rgb(226, 226, 226); fill: transparent; stroke-width: 1; stroke-linejoin: round;"></line><g role="presentation"><line x1="81.26626071884692" x2="81.26626071884692" y1="274" y2="34" role="presentation" shape-rendering="auto" vector-effect="non-scaling-stroke" style="stroke: transparent; fill: transparent; stroke-width: 1; stroke-linecap: round; stroke-linejoin: round; pointer-events: none;"></line><line x1="81.26626071884692" x2="81.26626071884692" y1="274" y2="278" role="presentation" shape-rendering="auto" vector-effect="non-scaling-stroke" style="stroke: transparent; fill: transparent; size: 4px; stroke-width: 1; stroke-linecap: round; stroke-linejoin: round;"></line><text dx="0" dy="11.969999999999999" x="81.26626071884692" y="286"><tspan x="81.26626071884692" dx="0" text-anchor="middle" style="fill: rgb(153, 153, 153); font-size: 14px; font-family: inherit; stroke: transparent; letter-spacing: normal; padding: 8px; stroke-width: 0;">2017</tspan></text></g><g role="presentation"><line x1="193.74299854041232" x2="193.74299854041232" y1="274" y2="34" role="presentation" shape-rendering="auto" vector-effect="non-scaling-stroke" style="stroke: transparent; fill: transparent; stroke-width: 1; stroke-linecap: round; stroke-linejoin: round; pointer-events: none;"></line><line x1="193.74299854041232" x2="193.74299854041232" y1="274" y2="278" role="presentation" shape-rendering="auto" vector-effect="non-scaling-stroke" style="stroke: transparent; fill: transparent; size: 4px; stroke-width: 1; stroke-linecap: round; stroke-linejoin: round;"></line><text dx="0" dy="11.969999999999999" x="193.74299854041232" y="286"><tspan x="193.74299854041232" dx="0" text-anchor="middle" style="fill: rgb(153, 153, 153); font-size: 14px; font-family: inherit; stroke: transparent; letter-spacing: normal; padding: 8px; stroke-width: 0;">2018</tspan></text></g><g role="presentation"><line x1="306.2197363619777" x2="306.2197363619777" y1="274" y2="34" role="presentation" shape-rendering="auto" vector-effect="non-scaling-stroke" style="stroke: transparent; fill: transparent; stroke-width: 1; stroke-linecap: round; stroke-linejoin: round; pointer-events: none;"></line><line x1="306.2197363619777" x2="306.2197363619777" y1="274" y2="278" role="presentation" shape-rendering="auto" vector-effect="non-scaling-stroke" style="stroke: transparent; fill: transparent; size: 4px; stroke-width: 1; stroke-linecap: round; stroke-linejoin: round;"></line><text dx="0" dy="11.969999999999999" x="306.2197363619777" y="286"><tspan x="306.2197363619777" dx="0" text-anchor="middle" style="fill: rgb(153, 153, 153); font-size: 14px; font-family: inherit; stroke: transparent; letter-spacing: normal; padding: 8px; stroke-width: 0;">2019</tspan></text></g><g role="presentation"><line x1="418.69647418354316" x2="418.69647418354316" y1="274" y2="34" role="presentation" shape-rendering="auto" vector-effect="non-scaling-stroke" style="stroke: transparent; fill: transparent; stroke-width: 1; stroke-linecap: round; stroke-linejoin: round; pointer-events: none;"></line><line x1="418.69647418354316" x2="418.69647418354316" y1="274" y2="278" role="presentation" shape-rendering="auto" vector-effect="non-scaling-stroke" style="stroke: transparent; fill: transparent; size: 4px; stroke-width: 1; stroke-linecap: round; stroke-linejoin: round;"></line><text dx="0" dy="11.969999999999999" x="418.69647418354316" y="286"><tspan x="418.69647418354316" dx="0" text-anchor="middle" style="fill: rgb(153, 153, 153); font-size: 14px; font-family: inherit; stroke: transparent; letter-spacing: normal; padding: 8px; stroke-width: 0;">2020</tspan></text></g><g role="presentation"><line x1="531.4813674511951" x2="531.4813674511951" y1="274" y2="34" role="presentation" shape-rendering="auto" vector-effect="non-scaling-stroke" style="stroke: transparent; fill: transparent; stroke-width: 1; stroke-linecap: round; stroke-linejoin: round; pointer-events: none;"></line><line x1="531.4813674511951" x2="531.4813674511951" y1="274" y2="278" role="presentation" shape-rendering="auto" vector-effect="non-scaling-stroke" style="stroke: transparent; fill: transparent; size: 4px; stroke-width: 1; stroke-linecap: round; stroke-linejoin: round;"></line><text dx="0" dy="11.969999999999999" x="531.4813674511951" y="286"><tspan x="531.4813674511951" dx="0" text-anchor="middle" style="fill: rgb(153, 153, 153); font-size: 14px; font-family: inherit; stroke: transparent; letter-spacing: normal; padding: 8px; stroke-width: 0;">2021</tspan></text></g></g><g role="presentation"><line x1="578" x2="578" y1="34" y2="274" role="presentation" shape-rendering="auto" vector-effect="non-scaling-stroke" style="stroke: transparent; fill: transparent; stroke-width: 1; stroke-linejoin: round;"></line><g role="presentation"><line x1="578" x2="15" y1="274" y2="274" role="presentation" shape-rendering="auto" vector-effect="non-scaling-stroke" style="stroke: rgb(226, 226, 226); fill: transparent; stroke-width: 1; stroke-linecap: round; stroke-linejoin: round; pointer-events: none;"></line><line x1="578" x2="582" y1="274" y2="274" role="presentation" shape-rendering="auto" vector-effect="non-scaling-stroke" style="stroke: transparent; fill: transparent; size: 4px; stroke-width: 1; stroke-linecap: round; stroke-linejoin: round;"></line><text dx="0" dy="4.97" x="590" y="274"><tspan x="590" dx="0" text-anchor="start" style="fill: rgb(153, 153, 153); font-size: 14px; font-family: inherit; stroke: transparent; letter-spacing: normal; padding: 8px; stroke-width: 0;">$100K</tspan></text></g><g role="presentation"><line x1="578" x2="15" y1="214" y2="214" role="presentation" shape-rendering="auto" vector-effect="non-scaling-stroke" style="stroke: rgb(226, 226, 226); fill: transparent; stroke-width: 1; stroke-linecap: round; stroke-linejoin: round; pointer-events: none;"></line><line x1="578" x2="582" y1="214" y2="214" role="presentation" shape-rendering="auto" vector-effect="non-scaling-stroke" style="stroke: transparent; fill: transparent; size: 4px; stroke-width: 1; stroke-linecap: round; stroke-linejoin: round;"></line><text dx="0" dy="4.97" x="590" y="214"><tspan x="590" dx="0" text-anchor="start" style="fill: rgb(153, 153, 153); font-size: 14px; font-family: inherit; stroke: transparent; letter-spacing: normal; padding: 8px; stroke-width: 0;">$150K</tspan></text></g><g role="presentation"><line x1="578" x2="15" y1="154" y2="154" role="presentation" shape-rendering="auto" vector-effect="non-scaling-stroke" style="stroke: rgb(226, 226, 226); fill: transparent; stroke-width: 1; stroke-linecap: round; stroke-linejoin: round; pointer-events: none;"></line><line x1="578" x2="582" y1="154" y2="154" role="presentation" shape-rendering="auto" vector-effect="non-scaling-stroke" style="stroke: transparent; fill: transparent; size: 4px; stroke-width: 1; stroke-linecap: round; stroke-linejoin: round;"></line><text dx="0" dy="4.97" x="590" y="154"><tspan x="590" dx="0" text-anchor="start" style="fill: rgb(153, 153, 153); font-size: 14px; font-family: inherit; stroke: transparent; letter-spacing: normal; padding: 8px; stroke-width: 0;">$200K</tspan></text></g><g role="presentation"><line x1="578" x2="15" y1="94" y2="94" role="presentation" shape-rendering="auto" vector-effect="non-scaling-stroke" style="stroke: rgb(226, 226, 226); fill: transparent; stroke-width: 1; stroke-linecap: round; stroke-linejoin: round; pointer-events: none;"></line><line x1="578" x2="582" y1="94" y2="94" role="presentation" shape-rendering="auto" vector-effect="non-scaling-stroke" style="stroke: transparent; fill: transparent; size: 4px; stroke-width: 1; stroke-linecap: round; stroke-linejoin: round;"></line><text dx="0" dy="4.97" x="590" y="94"><tspan x="590" dx="0" text-anchor="start" style="fill: rgb(153, 153, 153); font-size: 14px; font-family: inherit; stroke: transparent; letter-spacing: normal; padding: 8px; stroke-width: 0;">$250K</tspan></text></g><g role="presentation"><line x1="578" x2="15" y1="34" y2="34" role="presentation" shape-rendering="auto" vector-effect="non-scaling-stroke" style="stroke: rgb(226, 226, 226); fill: transparent; stroke-width: 1; stroke-linecap: round; stroke-linejoin: round; pointer-events: none;"></line><line x1="578" x2="582" y1="34" y2="34" role="presentation" shape-rendering="auto" vector-effect="non-scaling-stroke" style="stroke: transparent; fill: transparent; size: 4px; stroke-width: 1; stroke-linecap: round; stroke-linejoin: round;"></line><text dx="0" dy="4.97" x="590" y="34"><tspan x="590" dx="0" text-anchor="start" style="fill: rgb(153, 153, 153); font-size: 14px; font-family: inherit; stroke: transparent; letter-spacing: normal; padding: 8px; stroke-width: 0;">$300K</tspan></text></g></g><g style="height: 100%; width: 100%; user-select: none;"><defs><clipPath id="victory-clip-5"><rect x="15" y="34" width="563" height="240"></rect></clipPath></defs><g clip-path="url(#victory-clip-5)"><path shape-rendering="auto" role="presentation" d="M15.30815544608648,184.6C18.389709906951285,180.39999999999998,21.471264367816094,176.2,24.5528188286809,176.2C27.73709177157453,176.2,30.921364714468165,199.6,34.1056376573618,199.6C37.28991060025543,199.6,40.47418354314906,197.5126229508197,43.658456486042695,193.9C46.7400109469075,190.40391327340032,49.821565407772304,182.2388683236383,52.90311986863711,178.6C56.08739281153075,174.83983606557376,59.271665754424376,172,62.45593869731801,172C65.54177309493402,172,68.62760749255003,173.6,71.71344189016602,176.8C74.89771483305965,180.10208044382804,78.0819877759533,190.35999999999996,81.26626071884692,192.39999999999998C84.45053366174056,194.44,87.63480660463419,195.46,90.81907954752783,195.46C93.69519704433499,195.46,96.57131454114213,166.12,99.44743203794928,166.12C102.62742504409171,166.12,105.80741805023415,172,108.98741105637657,172C112.06896551724138,172,115.15051997810617,139.6,118.23207443897098,139.6C121.41634738186463,139.6,124.60062032475825,162.11277814207654,127.7848932676519,169.55200000000002C130.8664477285167,176.75124695928082,133.9480021893815,184,137.02955665024632,184C140.21382959313993,184,143.39810253603358,175.041,146.5823754789272,171.541C149.76664842182083,168.041,152.95092136471445,167.33987868852458,156.1351943076081,163C159.2167487684729,158.80011739820202,162.2983032293377,147.7582580645161,165.37985769020253,146.206C168.56413063309614,144.602,171.74840357598978,143.8,174.9326765188834,143.8C178.0185109164994,143.8,181.10434531411542,170.92000000000002,184.19017971173142,170.92000000000002C187.37445265462506,170.92000000000002,190.55872559751867,162.03199999999998,193.74299854041232,160C196.92727148330596,157.968,200.1115444261996,156.952,203.29581736909324,156.952C206.1719348659004,156.952,209.04805236270755,164.92000000000002,211.9241698595147,164.92000000000002C215.10416286565712,164.92000000000002,218.28415587179956,160,221.46414887794197,160C224.5457033388068,160,227.62725779967158,172.12,230.7088122605364,172.12C233.89308520343002,172.12,237.07735814632366,141.70600000000002,240.26163108921727,141.70600000000002C243.3431855500821,141.70600000000002,246.4247400109469,154.48000000000002,249.5062944718117,154.48000000000002C252.69056741470536,154.48000000000002,255.874840357599,137.20000000000002,259.05911330049264,137.20000000000002C262.2433862433863,137.20000000000002,265.42765918627987,139.6,268.6119321291735,139.6C271.69348659003833,139.6,274.7750410509031,136.6967741935484,277.8565955117679,136C281.04086845466156,135.28,284.22514139755515,134.92,287.4094143404488,134.92C290.4952487380648,134.92,293.58108313568084,154,296.66691753329684,154C299.8511904761905,154,303.03546341908407,153.934,306.2197363619777,153.934C309.40400930487135,153.934,312.588282247765,156.4,315.77255519065864,156.4C318.6486726874658,156.4,321.52479018427294,147.85448183041726,324.4009076810801,145.72C327.58090068722254,143.36,330.76089369336495,142.18,333.94088669950736,142.18C337.0224411603722,142.18,340.10399562123695,151.0516,343.18555008210177,151.0516C346.3698230249954,151.0516,349.55409596788905,148.41333333333333,352.7383689107827,148C355.8199233716475,147.6,358.9014778325123,147.8,361.9830322933771,147.4C365.16730523627075,146.98666666666668,368.35157817916433,130,371.535851122058,130C374.7201240649516,130,377.90439700784526,134.98666666666668,381.0886699507389,135.4C384.1702244116037,135.8,387.2517788724685,135.6,390.3333333333333,136C393.51760627622696,136.41333333333333,396.7018792191206,154.6,399.88615216201424,154.6C402.97198655963024,154.6,406.0578209572463,131.79999999999998,409.1436553548623,131.79999999999998C412.32792829775593,131.79999999999998,415.5122012406495,161.86599999999999,418.69647418354316,161.86599999999999C421.8807471264368,161.86599999999999,425.0650200693304,155.52440344827585,428.24929301222403,151.012C431.22812899106003,146.7907193548387,434.206964969896,139.4898666881162,437.185800948732,136C440.3657939548744,132.27446702691046,443.54578696101686,130,446.72577996715927,130C449.8073344280241,130,452.8888888888889,137.0576596509783,455.97044334975374,139.8286C459.1547162926473,142.69190502732238,462.33898923554096,146.8,465.52326217843455,146.8C468.6048166392994,146.8,471.6863711001642,124.78,474.767925561029,124.78C477.95219850392266,124.78,481.1364714468163,132.12999999999997,484.32074438970994,136C487.50501733260353,139.86999999999998,490.68929027549717,148,493.87356321839076,148C496.9551176792556,148,500.0366721401204,118.732,503.1182266009852,118.732C506.3024995438788,118.732,509.48677248677245,121.30000000000001,512.671045429666,121.30000000000001C515.7568798272821,121.30000000000001,518.8427142248981,112,521.9285486225142,112C525.1128215654078,112,528.2970945083015,116.67200000000001,531.4813674511951,117.64000000000001C534.6656403940887,118.60800000000002,537.8499133369824,119.09200000000001,541.0341862798759,119.09200000000001C543.9103037766831,119.09200000000001,546.7864212734902,113.92855650238504,549.6625387702974,112C552.8425317764398,109.86768231953559,556.0225247825822,110.4,559.2025177887247,107.20000000000002C562.2840722495895,104.09905787348588,565.3656267104543,88,568.4471811713191,88C571.6314541142127,88,574.8157270571064,89.806,578,91.612" style="fill: transparent; stroke: rgb(51, 51, 51); stroke-width: 2; opacity: 1;"></path></g></g></svg>