<svg xmlns="http://www.w3.org/2000/svg" width="640" height="324" role="img" aria-labelledby="victory-container-4-title victory-container-4-desc" viewBox="0 0 640 324" style="pointer-events: all; width: 100%; height: 100%;"><g role="presentation"><line x1="15" x2="578" y1="274" y2="274" role="presentation" shape-rendering="auto" vector-effect="non-scaling-stroke" style="stroke: rgb(226, 226, 226); fill: transparent; stroke-width: 1; stroke-linejoin: round;"></line><g role="presentation"><line x1="81.26626071884692" x2="81.26626071884692" y1="274" y2="34" role="presentation" shape-rendering="auto" vector-effect="non-scaling-stroke" style="stroke: transparent; fill: transparent; stroke-width: 1; stroke-linecap: round; stroke-linejoin: round; pointer-events: none;"></line><line x1="81.26626071884692" x2="81.26626071884692" y1="274" y2="278" role="presentation" shape-rendering="auto" vector-effect="non-scaling-stroke" style="stroke: transparent; fill: transparent; size: 4px; stroke-width: 1; stroke-linecap: round; stroke-linejoin: round;"></line><text dx="0" dy="11.969999999999999" x="81.26626071884692" y="286"><tspan x="81.26626071884692" dx="0" text-anchor="middle" style="fill: rgb(153, 153, 153); font-size: 14px; font-family: inherit; stroke: transparent; letter-spacing: normal; padding: 8px; stroke-width: 0;">2017</tspan></text></g><g role="presentation"><line x1="193.74299854041232" x2="193.74299854041232" y1="274" y2="34" role="presentation" shape-rendering="auto" vector-effect="non-scaling-stroke" style="stroke: transparent; fill: transparent; stroke-width: 1; stroke-linecap: round; stroke-linejoin: round; pointer-events: none;"></line><line x1="193.74299854041232" x2="193.74299854041232" y1="274" y2="278" role="presentation" shape-rendering="auto" vector-effect="non-scaling-stroke" style="stroke: transparent; fill: transparent; size: 4px; stroke-width: 1; stroke-linecap: round; stroke-linejoin: round;"></line><text dx="0" dy="11.969999999999999" x="193.74299854041232" y="286"><tspan x="193.74299854041232" dx="0" text-anchor="middle" style="fill: rgb(153, 153, 153); font-size: 14px; font-family: inherit; stroke: transparent; letter-spacing: normal; padding: 8px; stroke-width: 0;">2018</tspan></text></g><g role="presentation"><line x1="306.2197363619777" x2="306.2197363619777" y1="274" y2="34" role="presentation" shape-rendering="auto" vector-effect="non-scaling-stroke" style="stroke: transparent; fill: transparent; stroke-width: 1; stroke-linecap: round; stroke-linejoin: round; pointer-events: none;"></line><line x1="306.2197363619777" x2="306.2197363619777" y1="274" y2="278" role="presentation" shape-rendering="auto" vector-effect="non-scaling-stroke" style="stroke: transparent; fill: transparent; size: 4px; stroke-width: 1; stroke-linecap: round; stroke-linejoin: round;"></line><text dx="0" dy="11.969999999999999" x="306.2197363619777" y="286"><tspan x="306.2197363619777" dx="0" text-anchor="middle" style="fill: rgb(153, 153, 153); font-size: 14px; font-family: inherit; stroke: transparent; letter-spacing: normal; padding: 8px; stroke-width: 0;">2019</tspan></text></g><g role="presentation"><line x1="418.69647418354316" x2="418.69647418354316" y1="274" y2="34" role="presentation" shape-rendering="auto" vector-effect="non-scaling-stroke" style="stroke: transparent; fill: transparent; stroke-width: 1; stroke-linecap: round; stroke-linejoin: round; pointer-events: none;"></line><line x1="418.69647418354316" x2="418.69647418354316" y1="274" y2="278" role="presentation" shape-rendering="auto" vector-effect="non-scaling-stroke" style="stroke: transparent; fill: transparent; size: 4px; stroke-width: 1; stroke-linecap: round; stroke-linejoin: round;"></line><text dx="0" dy="11.969999999999999" x="418.69647418354316" y="286"><tspan x="418.69647418354316" dx="0" text-anchor="middle" style="fill: rgb(153, 153, 153); font-size: 14px; font-family: inherit; stroke: transparent; letter-spacing: normal; padding: 8px; stroke-width: 0;">2020</tspan></text></g><g role="presentation"><line x1="531.4813674511951" x2="531.4813674511951" y1="274" y2="34" role="presentation" shape-rendering="auto" vector-effect="non-scaling-stroke" style="stroke: transparent; fill: transparent; stroke-width: 1; stroke-linecap: round; stroke-linejoin: round; pointer-events: none;"></line><line x1="531.4813674511951" x2="531.4813674511951" y1="274" y2="278" role="presentation" shape-rendering="auto" vector-effect="non-scaling-stroke" style="stroke: transparent; fill: transparent; size: 4px; stroke-width: 1; stroke-linecap: round; stroke-linejoin: round;"></line><text dx="0" dy="11.969999999999999" x="531.4813674511951" y="286"><tspan x="531.4813674511951" dx="0" text-anchor="middle" style="fill: rgb(153, 153, 153); font-size: 14px; font-family: inherit; stroke: transparent; letter-spacing: normal; padding: 8px; stroke-width: 0;">2021</tspan></text></g></g><g role="presentation"><line x1="578" x2="578" y1="34" y2="274" role="presentation" shape-rendering="auto" vector-effect="non-scaling-stroke" style="stroke: transparent; fill: transparent; stroke-width: 1; stroke-linejoin: round;"></line><g role="presentation"><line x1="578" x2="15" y1="274" y2="274" role="presentation" shape-rendering="auto" vector-effect="non-scaling-stroke" style="stroke: rgb(226, 226, 226); fill: transparent; stroke-width: 1; stroke-linecap: round; stroke-linejoin: round; pointer-events: none;"></line><line x1="578" x2="582" y1="274" y2="274" role="presentation" shape-rendering="auto" vector-effect="non-scaling-stroke" style="stroke: transparent; fill: transparent; size: 4px; stroke-width: 1; stroke-linecap: round; stroke-linejoin: round;"></line><text dx="0" dy="4.97" x="590" y="274"><tspan x="590" dx="0" text-anchor="start" style="fill: rgb(153, 153, 153); font-size: 14px; font-family: inherit; stroke: transparent; letter-spacing: normal; padding: 8px; stroke-width: 0;">$100K</tspan></text></g><g role="presentation"><line x1="578" x2="15" y1="214" y2="214" role="presentation" shape-rendering="auto" vector-effect="non-scaling-stroke" style="stroke: rgb(226, 226, 226); fill: transparent; stroke-width: 1; stroke-linecap: round; stroke-linejoin: round; pointer-events: none;"></line><line x1="578" x2="582" y1="214" y2="214" role="presentation" shape-rendering="auto" vector-effect="non-scaling-stroke" style="stroke: transparent; fill: transparent; size: 4px; stroke-width: 1; stroke-linecap: round; stroke-linejoin: round;"></line><text dx="0" dy="4.97" x="590" y="214"><tspan x="590" dx="0" text-anchor="start" style="fill: rgb(153, 153, 153); font-size: 14px; font-family: inherit; stroke: transparent; letter-spacing: normal; padding: 8px; stroke-width: 0;">$150K</tspan></text></g><g role="presentation"><line x1="578" x2="15" y1="154" y2="154" role="presentation" shape-rendering="auto" vector-effect="non-scaling-stroke" style="stroke: rgb(226, 226, 226); fill: transparent; stroke-width: 1; stroke-linecap: round; stroke-linejoin: round; pointer-events: none;"></line><line x1="578" x2="582" y1="154" y2="154" role="presentation" shape-rendering="auto" vector-effect="non-scaling-stroke" style="stroke: transparent; fill: transparent; size: 4px; stroke-width: 1; stroke-linecap: round; stroke-linejoin: round;"></line><text dx="0" dy="4.97" x="590" y="154"><tspan x="590" dx="0" text-anchor="start" style="fill: rgb(153, 153, 153); font-size: 14px; font-family: inherit; stroke: transparent; letter-spacing: normal; padding: 8px; stroke-width: 0;">$200K</tspan></text></g><g role="presentation"><line x1="578" x2="15" y1="94" y2="94" role="presentation" shape-rendering="auto" vector-effect="non-scaling-stroke" style="stroke: rgb(226, 226, 226); fill: transparent; stroke-width: 1; stroke-linecap: round; stroke-linejoin: round; pointer-events: none;"></line><line x1="578" x2="582" y1="94" y2="94" role="presentation" shape-rendering="auto" vector-effect="non-scaling-stroke" style="stroke: transparent; fill: transparent; size: 4px; stroke-width: 1; stroke-linecap: round; stroke-linejoin: round;"></line><text dx="0" dy="4.97" x="590" y="94"><tspan x="590" dx="0" text-anchor="start" style="fill: rgb(153, 153, 153); font-size: 14px; font-family: inherit; stroke: transparent; letter-spacing: normal; padding: 8px; stroke-width: 0;">$250K</tspan></text></g><g role="presentation"><line x1="578" x2="15" y1="34" y2="34" role="presentation" shape-rendering="auto" vector-effect="non-scaling-stroke" style="stroke: rgb(226, 226, 226); fill: transparent; stroke-width: 1; stroke-linecap: round; stroke-linejoin: round; pointer-events: none;"></line><line x1="578" x2="582" y1="34" y2="34" role="presentation" shape-rendering="auto" vector-effect="non-scaling-stroke" style="stroke: transparent; fill: transparent; size: 4px; stroke-width: 1; stroke-linecap: round; stroke-linejoin: round;"></line><text dx="0" dy="4.97" x="590" y="34"><tspan x="590" dx="0" text-anchor="start" style="fill: rgb(153, 153, 153); font-size: 14px; font-family: inherit; stroke: transparent; letter-spacing: normal; padding: 8px; stroke-width: 0;">$300K</tspan></text></g></g><g style="height: 100%; width: 100%; user-select: none;"><defs><clipPath id="victory-clip-5"><rect x="15" y="34" width="563" height="240"></rect></clipPath></defs><g clip-path="url(#victory-clip-5)"><path shape-rendering="auto" role="presentation" d="M24.5528188286809,175.60000000000002C27.73709177157453,180.55,30.921364714468165,185.5,34.1056376573618,185.5C37.28991060025543,185.5,40.47418354314906,177.05779016393444,43.658456486042695,174.4C46.7400109469075,171.8279450026441,49.821565407772304,169.612,52.90311986863711,169.612C56.08739281153075,169.612,59.271665754424376,179.5,62.45593869731801,179.5C65.54177309493402,179.5,68.62760749255003,152.04717473118276,71.71344189016602,149.2C74.89771483305965,146.262,78.0819877759533,144.793,81.26626071884692,144.793C84.45053366174056,144.793,87.63480660463419,164.0469152542373,90.81907954752783,169.6C93.69519704433499,174.61568944778566,96.57131454114213,178,99.44743203794928,178C102.62742504409171,178,105.80741805023415,148,108.98741105637657,148C112.06896551724138,148,115.15051997810617,162.09193019566365,118.23207443897098,166.95999999999998C121.41634738186463,171.9903387978142,124.60062032475825,177.39999999999998,127.7848932676519,177.39999999999998C130.8664477285167,177.39999999999998,133.9480021893815,166,137.02955665024632,166C140.21382959313993,166,143.39810253603358,187.60000000000002,146.5823754789272,187.60000000000002C149.76664842182083,187.60000000000002,152.95092136471445,141.637,156.1351943076081,141.637C159.2167487684729,141.637,162.2983032293377,166.606,165.37985769020253,166.606C168.56413063309614,166.606,171.74840357598978,147.058,174.9326765188834,147.058C178.0185109164994,147.058,181.10434531411542,178.012,184.19017971173142,178.012C187.37445265462506,178.012,190.55872559751867,173.10199999999998,193.74299854041232,169.6C196.92727148330596,166.09799999999998,200.1115444261996,162.01815980629542,203.29581736909324,157C206.1719348659004,152.46746856205579,209.04805236270755,141.4,211.9241698595147,141.4C215.10416286565712,141.4,218.28415587179956,145.4637833333333,221.46414887794197,145.6C224.5457033388068,145.732,227.62725779967158,145.666,230.7088122605364,145.798C233.89308520343002,145.9344,237.07735814632366,154.006,240.26163108921727,154.006C243.3431855500821,154.006,246.4247400109469,151.51577683765206,249.5062944718117,148.603C252.69056741470536,145.5931306010929,255.874840357599,139.05100000000002,259.05911330049264,136.012C262.2433862433863,132.973,265.42765918627987,130.369,268.6119321291735,130.369C271.69348659003833,130.369,274.7750410509031,137.52120729772608,277.8565955117679,141.10000000000002C281.04086845466156,144.79808579234975,284.22514139755515,152.20000000000002,287.4094143404488,152.20000000000002C290.4952487380648,152.20000000000002,293.58108313568084,140.806,296.66691753329684,140.806C299.8511904761905,140.806,303.03546341908407,160,306.2197363619777,160C309.40400930487135,160,312.588282247765,154.99138014527844,315.77255519065864,146.2C318.6486726874658,138.25939857845816,321.52479018427294,112.12,324.4009076810801,112.12C327.58090068722254,112.12,330.76089369336495,136,333.94088669950736,136C337.0224411603722,136,340.10399562123695,136,343.18555008210177,136C346.3698230249954,136,349.55409596788905,130.006,352.7383689107827,130.006C355.8199233716475,130.006,358.9014778325123,147.4,361.9830322933771,147.4C365.16730523627075,147.4,368.35157817916433,140.5006,371.535851122058,140.5006C374.7201240649516,140.5006,377.90439700784526,159.4,381.0886699507389,159.4C384.1702244116037,159.4,387.2517788724685,131.79999999999998,390.3333333333333,131.79999999999998C393.51760627622696,131.79999999999998,396.7018792191206,156.4,399.88615216201424,156.4C402.97198655963024,156.4,406.0578209572463,130.6,409.1436553548623,130.6C412.32792829775593,130.6,415.5122012406495,144.45,418.69647418354316,148.66C421.8807471264368,152.87,425.0650200693304,155.86,428.24929301222403,155.86C431.22812899106003,155.86,434.206964969896,138.52,437.185800948732,138.52C440.3657939548744,138.52,443.54578696101686,155.2,446.72577996715927,155.2C449.8073344280241,155.2,452.8888888888889,136,455.97044334975374,136C459.1547162926473,136,462.33898923554096,136,465.52326217843455,136C468.6048166392994,136,471.6863711001642,132.25383395029084,474.767925561029,130C477.95219850392266,127.67103825136613,481.1364714468163,125.19800000000004,484.32074438970994,122.20000000000002C487.50501733260353,119.20200000000003,490.68929027549717,112.012,493.87356321839076,112.012C496.9551176792556,112.012,500.0366721401204,127.6,503.1182266009852,127.6C506.3024995438788,127.6,509.48677248677245,118,512.671045429666,118C515.7568798272821,118,518.8427142248981,118,521.9285486225142,118C525.1128215654078,118,528.2970945083015,112,531.4813674511951,112C534.6656403940887,112,537.8499133369824,112.6,541.0341862798759,112.6C543.9103037766831,112.6,546.7864212734902,112.01542985413924,549.6625387702974,111.73000000000002C552.8425317764398,111.41441312258121,556.0225247825822,110.79999999999998,559.2025177887247,110.79999999999998C562.2840722495895,110.79999999999998,565.3656267104543,110.79999999999998,568.4471811713191,110.79999999999998C571.6314541142127,110.79999999999998,574.8157270571064,105.39999999999999,578,100" style="fill: transparent; stroke: rgb(51, 51, 51); stroke-width: 2; opacity: 1;"></path></g></g></svg>