<svg xmlns="http://www.w3.org/2000/svg" width="640" height="324" role="img" aria-labelledby="victory-container-4-title victory-container-4-desc" viewBox="0 0 640 324" style="pointer-events: all; width: 100%; height: 100%;"><g role="presentation"><line x1="15" x2="578" y1="274" y2="274" role="presentation" shape-rendering="auto" vector-effect="non-scaling-stroke" style="stroke: rgb(226, 226, 226); fill: transparent; stroke-width: 1; stroke-linejoin: round;"></line><g role="presentation"><line x1="81.26626071884692" x2="81.26626071884692" y1="274" y2="34" role="presentation" shape-rendering="auto" vector-effect="non-scaling-stroke" style="stroke: transparent; fill: transparent; stroke-width: 1; stroke-linecap: round; stroke-linejoin: round; pointer-events: none;"></line><line x1="81.26626071884692" x2="81.26626071884692" y1="274" y2="278" role="presentation" shape-rendering="auto" vector-effect="non-scaling-stroke" style="stroke: transparent; fill: transparent; size: 4px; stroke-width: 1; stroke-linecap: round; stroke-linejoin: round;"></line><text dx="0" dy="11.969999999999999" x="81.26626071884692" y="286"><tspan x="81.26626071884692" dx="0" text-anchor="middle" style="fill: rgb(153, 153, 153); font-size: 14px; font-family: inherit; stroke: transparent; letter-spacing: normal; padding: 8px; stroke-width: 0;">2017</tspan></text></g><g role="presentation"><line x1="193.74299854041232" x2="193.74299854041232" y1="274" y2="34" role="presentation" shape-rendering="auto" vector-effect="non-scaling-stroke" style="stroke: transparent; fill: transparent; stroke-width: 1; stroke-linecap: round; stroke-linejoin: round; pointer-events: none;"></line><line x1="193.74299854041232" x2="193.74299854041232" y1="274" y2="278" role="presentation" shape-rendering="auto" vector-effect="non-scaling-stroke" style="stroke: transparent; fill: transparent; size: 4px; stroke-width: 1; stroke-linecap: round; stroke-linejoin: round;"></line><text dx="0" dy="11.969999999999999" x="193.74299854041232" y="286"><tspan x="193.74299854041232" dx="0" text-anchor="middle" style="fill: rgb(153, 153, 153); font-size: 14px; font-family: inherit; stroke: transparent; letter-spacing: normal; padding: 8px; stroke-width: 0;">2018</tspan></text></g><g role="presentation"><line x1="306.2197363619777" x2="306.2197363619777" y1="274" y2="34" role="presentation" shape-rendering="auto" vector-effect="non-scaling-stroke" style="stroke: transparent; fill: transparent; stroke-width: 1; stroke-linecap: round; stroke-linejoin: round; pointer-events: none;"></line><line x1="306.2197363619777" x2="306.2197363619777" y1="274" y2="278" role="presentation" shape-rendering="auto" vector-effect="non-scaling-stroke" style="stroke: transparent; fill: transparent; size: 4px; stroke-width: 1; stroke-linecap: round; stroke-linejoin: round;"></line><text dx="0" dy="11.969999999999999" x="306.2197363619777" y="286"><tspan x="306.2197363619777" dx="0" text-anchor="middle" style="fill: rgb(153, 153, 153); font-size: 14px; font-family: inherit; stroke: transparent; letter-spacing: normal; padding: 8px; stroke-width: 0;">2019</tspan></text></g><g role="presentation"><line x1="418.69647418354316" x2="418.69647418354316" y1="274" y2="34" role="presentation" shape-rendering="auto" vector-effect="non-scaling-stroke" style="stroke: transparent; fill: transparent; stroke-width: 1; stroke-linecap: round; stroke-linejoin: round; pointer-events: none;"></line><line x1="418.69647418354316" x2="418.69647418354316" y1="274" y2="278" role="presentation" shape-rendering="auto" vector-effect="non-scaling-stroke" style="stroke: transparent; fill: transparent; size: 4px; stroke-width: 1; stroke-linecap: round; stroke-linejoin: round;"></line><text dx="0" dy="11.969999999999999" x="418.69647418354316" y="286"><tspan x="418.69647418354316" dx="0" text-anchor="middle" style="fill: rgb(153, 153, 153); font-size: 14px; font-family: inherit; stroke: transparent; letter-spacing: normal; padding: 8px; stroke-width: 0;">2020</tspan></text></g><g role="presentation"><line x1="531.4813674511951" x2="531.4813674511951" y1="274" y2="34" role="presentation" shape-rendering="auto" vector-effect="non-scaling-stroke" style="stroke: transparent; fill: transparent; stroke-width: 1; stroke-linecap: round; stroke-linejoin: round; pointer-events: none;"></line><line x1="531.4813674511951" x2="531.4813674511951" y1="274" y2="278" role="presentation" shape-rendering="auto" vector-effect="non-scaling-stroke" style="stroke: transparent; fill: transparent; size: 4px; stroke-width: 1; stroke-linecap: round; stroke-linejoin: round;"></line><text dx="0" dy="11.969999999999999" x="531.4813674511951" y="286"><tspan x="531.4813674511951" dx="0" text-anchor="middle" style="fill: rgb(153, 153, 153); font-size: 14px; font-family: inherit; stroke: transparent; letter-spacing: normal; padding: 8px; stroke-width: 0;">2021</tspan></text></g></g><g role="presentation"><line x1="578" x2="578" y1="34" y2="274" role="presentation" shape-rendering="auto" vector-effect="non-scaling-stroke" style="stroke: transparent; fill: transparent; stroke-width: 1; stroke-linejoin: round;"></line><g role="presentation"><line x1="578" x2="15" y1="231.6470588235294" y2="231.6470588235294" role="presentation" shape-rendering="auto" vector-effect="non-scaling-stroke" style="stroke: rgb(226, 226, 226); fill: transparent; stroke-width: 1; stroke-linecap: round; stroke-linejoin: round; pointer-events: none;"></line><line x1="578" x2="582" y1="231.6470588235294" y2="231.6470588235294" role="presentation" shape-rendering="auto" vector-effect="non-scaling-stroke" style="stroke: transparent; fill: transparent; size: 4px; stroke-width: 1; stroke-linecap: round; stroke-linejoin: round;"></line><text dx="0" dy="4.97" x="590" y="231.6470588235294"><tspan x="590" dx="0" text-anchor="start" style="fill: rgb(153, 153, 153); font-size: 14px; font-family: inherit; stroke: transparent; letter-spacing: normal; padding: 8px; stroke-width: 0;">$100K</tspan></text></g><g role="presentation"><line x1="578" x2="15" y1="161.05882352941177" y2="161.05882352941177" role="presentation" shape-rendering="auto" vector-effect="non-scaling-stroke" style="stroke: rgb(226, 226, 226); fill: transparent; stroke-width: 1; stroke-linecap: round; stroke-linejoin: round; pointer-events: none;"></line><line x1="578" x2="582" y1="161.05882352941177" y2="161.05882352941177" role="presentation" shape-rendering="auto" vector-effect="non-scaling-stroke" style="stroke: transparent; fill: transparent; size: 4px; stroke-width: 1; stroke-linecap: round; stroke-linejoin: round;"></line><text dx="0" dy="4.97" x="590" y="161.05882352941177"><tspan x="590" dx="0" text-anchor="start" style="fill: rgb(153, 153, 153); font-size: 14px; font-family: inherit; stroke: transparent; letter-spacing: normal; padding: 8px; stroke-width: 0;">$150K</tspan></text></g><g role="presentation"><line x1="578" x2="15" y1="90.47058823529414" y2="90.47058823529414" role="presentation" shape-rendering="auto" vector-effect="non-scaling-stroke" style="stroke: rgb(226, 226, 226); fill: transparent; stroke-width: 1; stroke-linecap: round; stroke-linejoin: round; pointer-events: none;"></line><line x1="578" x2="582" y1="90.47058823529414" y2="90.47058823529414" role="presentation" shape-rendering="auto" vector-effect="non-scaling-stroke" style="stroke: transparent; fill: transparent; size: 4px; stroke-width: 1; stroke-linecap: round; stroke-linejoin: round;"></line><text dx="0" dy="4.97" x="590" y="90.47058823529414"><tspan x="590" dx="0" text-anchor="start" style="fill: rgb(153, 153, 153); font-size: 14px; font-family: inherit; stroke: transparent; letter-spacing: normal; padding: 8px; stroke-width: 0;">$200K</tspan></text></g></g><g style="height: 100%; width: 100%; user-select: none;"><defs><clipPath id="victory-clip-5"><rect x="15" y="34" width="563" height="240"></rect></clipPath></defs><g clip-path="url(#victory-clip-5)"><path shape-rendering="auto" role="presentation" d="M24.5528188286809,196.03529411764708C27.73709177157453,203.35176470588237,30.921364714468165,210.66823529411766,34.1056376573618,210.66823529411766C37.28991060025543,210.66823529411766,40.47418354314906,180.11764705882354,43.658456486042695,180.11764705882354C46.7400109469075,180.11764705882354,49.821565407772304,189.46489563567363,52.90311986863711,191.05882352941177C56.08739281153075,192.7058823529412,59.271665754424376,191.88235294117646,62.45593869731801,193.52941176470588C65.54177309493402,195.12555344718533,68.62760749255003,231.6470588235294,71.71344189016602,231.6470588235294C74.89771483305965,231.6470588235294,78.0819877759533,175.1764705882353,81.26626071884692,175.1764705882353C84.45053366174056,175.1764705882353,87.63480660463419,227.6715294117647,90.81907954752783,227.6715294117647C93.69519704433499,227.6715294117647,96.57131454114213,154,99.44743203794928,154C102.62742504409171,154,105.80741805023415,189.2941176470588,108.98741105637657,189.2941176470588C112.06896551724138,189.2941176470588,115.15051997810617,168.11764705882354,118.23207443897098,168.11764705882354C121.41634738186463,168.11764705882354,124.60062032475825,168.6279781420765,127.7848932676519,169.6C130.8664477285167,170.5406663141195,133.9480021893815,170.98823529411763,137.02955665024632,173.76470588235293C140.21382959313993,176.63372549019604,143.39810253603358,203.41176470588235,146.5823754789272,203.41176470588235C149.76664842182083,203.41176470588235,152.95092136471445,182.08334297653485,156.1351943076081,168.11764705882354C159.2167487684729,154.60245746103834,162.2983032293377,121.38823529411766,165.37985769020253,121.38823529411766C168.56413063309614,121.38823529411766,171.74840357598978,206.94117647058823,174.9326765188834,206.94117647058823C178.0185109164994,206.94117647058823,181.10434531411542,175.1764705882353,184.19017971173142,175.1764705882353C187.37445265462506,175.1764705882353,190.55872559751867,195.17647058823528,193.74299854041232,195.6470588235294C196.92727148330596,196.1176470588235,200.1115444261996,196.35294117647058,203.29581736909324,196.35294117647058C206.1719348659004,196.35294117647058,209.04805236270755,166.70588235294116,211.9241698595147,166.70588235294116C215.10416286565712,166.70588235294116,218.28415587179956,175.31764705882352,221.46414887794197,175.31764705882352C224.5457033388068,175.31764705882352,227.62725779967158,174.6635294117647,230.7088122605364,173.35529411764708C233.89308520343002,172.0034509803922,237.07735814632366,167.52705882352942,240.26163108921727,155.87058823529412C243.3431855500821,144.59013282732442,246.4247400109469,90.47058823529414,249.5062944718117,90.47058823529414C252.69056741470536,90.47058823529414,255.874840357599,113.52941176470588,259.05911330049264,122.23529411764707C262.2433862433863,130.9411764705882,265.42765918627987,142.70588235294116,268.6119321291735,142.70588235294116C271.69348659003833,142.70588235294116,274.7750410509031,138.83217718605158,277.8565955117679,134.94117647058823C281.04086845466156,130.92047573127613,284.22514139755515,118.70588235294116,287.4094143404488,118.70588235294116C290.4952487380648,118.70588235294116,293.58108313568084,152.44737568351132,296.66691753329684,165.29411764705884C299.8511904761905,178.55067246103846,303.03546341908407,196.49411764705883,306.2197363619777,196.49411764705883C309.40400930487135,196.49411764705883,312.588282247765,176.47899159663868,315.77255519065864,175.1764705882353C318.6486726874658,174,321.52479018427294,174.58823529411765,324.4009076810801,173.41176470588235C327.58090068722254,172.1109943977591,330.76089369336495,132.96470588235294,333.94088669950736,132.96470588235294C337.0224411603722,132.96470588235294,340.10399562123695,268.70588235294116,343.18555008210177,268.70588235294116C346.3698230249954,268.70588235294116,349.55409596788905,99.64705882352942,352.7383689107827,99.64705882352942C355.8199233716475,99.64705882352942,358.9014778325123,168.11764705882354,361.9830322933771,168.11764705882354C365.16730523627075,168.11764705882354,368.35157817916433,124.58823529411761,371.535851122058,107.41176470588235C374.7201240649516,90.23529411764699,377.90439700784526,65.05882352941177,381.0886699507389,65.05882352941177C384.1702244116037,65.05882352941177,387.2517788724685,112.11515849068344,390.3333333333333,128.58823529411765C393.51760627622696,145.6104146576664,396.7018792191206,164.58823529411765,399.88615216201424,164.58823529411765C402.97198655963024,164.58823529411765,406.0578209572463,102.47058823529412,409.1436553548623,102.47058823529412C412.32792829775593,102.47058823529412,415.5122012406495,166.0705882352941,418.69647418354316,166.0705882352941C421.8807471264368,166.0705882352941,425.0650200693304,139.88235294117646,428.24929301222403,139.88235294117646C431.22812899106003,139.88235294117646,434.206964969896,185.76470588235293,437.185800948732,185.76470588235293C440.3657939548744,185.76470588235293,443.54578696101686,120.11764705882351,446.72577996715927,120.11764705882351C449.8073344280241,120.11764705882351,452.8888888888889,129.8280399415186,455.97044334975374,134.23529411764704C459.1547162926473,138.78945676631304,462.33898923554096,146.94117647058823,465.52326217843455,146.94117647058823C468.6048166392994,146.94117647058823,471.6863711001642,146,474.767925561029,144.11764705882354C477.95219850392266,142.17254901960786,481.1364714468163,133.52941176470588,484.32074438970994,133.52941176470588C487.50501733260353,133.52941176470588,490.68929027549717,135.64705882352942,493.87356321839076,135.64705882352942C496.9551176792556,135.64705882352942,500.0366721401204,54.49335863377618,503.1182266009852,48.117647058823536C506.3024995438788,41.52941176470589,509.48677248677245,38.23529411764707,512.671045429666,38.23529411764707C515.7568798272821,38.23529411764707,518.8427142248981,132.9108159392789,521.9285486225142,135.64705882352942C525.1128215654078,138.47058823529412,528.2970945083015,139.88235294117646,531.4813674511951,139.88235294117646C534.6656403940887,139.88235294117646,537.8499133369824,118.70588235294116,541.0341862798759,118.70588235294116C543.9103037766831,118.70588235294116,546.7864212734902,122.23529411764707,549.6625387702974,122.23529411764707C552.8425317764398,122.23529411764707,556.0225247825822,48.258823529411785,559.2025177887247,48.258823529411785C562.2840722495895,48.258823529411785,565.3656267104543,113.41176470588238,568.4471811713191,113.41176470588238C571.6314541142127,113.41176470588238,574.8157270571064,98.44705882352942,578,83.48235294117646" style="fill: transparent; stroke: rgb(51, 51, 51); stroke-width: 2; opacity: 1;"></path></g></g></svg>