<svg xmlns="http://www.w3.org/2000/svg" width="640" height="324" role="img" aria-labelledby="victory-container-4-title victory-container-4-desc" viewBox="0 0 640 324" style="pointer-events: all; width: 100%; height: 100%;"><g role="presentation"><line x1="15" x2="578" y1="274" y2="274" role="presentation" shape-rendering="auto" vector-effect="non-scaling-stroke" style="stroke: rgb(226, 226, 226); fill: transparent; stroke-width: 1; stroke-linejoin: round;"></line><g role="presentation"><line x1="81.26626071884692" x2="81.26626071884692" y1="274" y2="34" role="presentation" shape-rendering="auto" vector-effect="non-scaling-stroke" style="stroke: transparent; fill: transparent; stroke-width: 1; stroke-linecap: round; stroke-linejoin: round; pointer-events: none;"></line><line x1="81.26626071884692" x2="81.26626071884692" y1="274" y2="278" role="presentation" shape-rendering="auto" vector-effect="non-scaling-stroke" style="stroke: transparent; fill: transparent; size: 4px; stroke-width: 1; stroke-linecap: round; stroke-linejoin: round;"></line><text dx="0" dy="11.969999999999999" x="81.26626071884692" y="286"><tspan x="81.26626071884692" dx="0" text-anchor="middle" style="fill: rgb(153, 153, 153); font-size: 14px; font-family: inherit; stroke: transparent; letter-spacing: normal; padding: 8px; stroke-width: 0;">2017</tspan></text></g><g role="presentation"><line x1="193.74299854041232" x2="193.74299854041232" y1="274" y2="34" role="presentation" shape-rendering="auto" vector-effect="non-scaling-stroke" style="stroke: transparent; fill: transparent; stroke-width: 1; stroke-linecap: round; stroke-linejoin: round; pointer-events: none;"></line><line x1="193.74299854041232" x2="193.74299854041232" y1="274" y2="278" role="presentation" shape-rendering="auto" vector-effect="non-scaling-stroke" style="stroke: transparent; fill: transparent; size: 4px; stroke-width: 1; stroke-linecap: round; stroke-linejoin: round;"></line><text dx="0" dy="11.969999999999999" x="193.74299854041232" y="286"><tspan x="193.74299854041232" dx="0" text-anchor="middle" style="fill: rgb(153, 153, 153); font-size: 14px; font-family: inherit; stroke: transparent; letter-spacing: normal; padding: 8px; stroke-width: 0;">2018</tspan></text></g><g role="presentation"><line x1="306.2197363619777" x2="306.2197363619777" y1="274" y2="34" role="presentation" shape-rendering="auto" vector-effect="non-scaling-stroke" style="stroke: transparent; fill: transparent; stroke-width: 1; stroke-linecap: round; stroke-linejoin: round; pointer-events: none;"></line><line x1="306.2197363619777" x2="306.2197363619777" y1="274" y2="278" role="presentation" shape-rendering="auto" vector-effect="non-scaling-stroke" style="stroke: transparent; fill: transparent; size: 4px; stroke-width: 1; stroke-linecap: round; stroke-linejoin: round;"></line><text dx="0" dy="11.969999999999999" x="306.2197363619777" y="286"><tspan x="306.2197363619777" dx="0" text-anchor="middle" style="fill: rgb(153, 153, 153); font-size: 14px; font-family: inherit; stroke: transparent; letter-spacing: normal; padding: 8px; stroke-width: 0;">2019</tspan></text></g><g role="presentation"><line x1="418.69647418354316" x2="418.69647418354316" y1="274" y2="34" role="presentation" shape-rendering="auto" vector-effect="non-scaling-stroke" style="stroke: transparent; fill: transparent; stroke-width: 1; stroke-linecap: round; stroke-linejoin: round; pointer-events: none;"></line><line x1="418.69647418354316" x2="418.69647418354316" y1="274" y2="278" role="presentation" shape-rendering="auto" vector-effect="non-scaling-stroke" style="stroke: transparent; fill: transparent; size: 4px; stroke-width: 1; stroke-linecap: round; stroke-linejoin: round;"></line><text dx="0" dy="11.969999999999999" x="418.69647418354316" y="286"><tspan x="418.69647418354316" dx="0" text-anchor="middle" style="fill: rgb(153, 153, 153); font-size: 14px; font-family: inherit; stroke: transparent; letter-spacing: normal; padding: 8px; stroke-width: 0;">2020</tspan></text></g><g role="presentation"><line x1="531.4813674511951" x2="531.4813674511951" y1="274" y2="34" role="presentation" shape-rendering="auto" vector-effect="non-scaling-stroke" style="stroke: transparent; fill: transparent; stroke-width: 1; stroke-linecap: round; stroke-linejoin: round; pointer-events: none;"></line><line x1="531.4813674511951" x2="531.4813674511951" y1="274" y2="278" role="presentation" shape-rendering="auto" vector-effect="non-scaling-stroke" style="stroke: transparent; fill: transparent; size: 4px; stroke-width: 1; stroke-linecap: round; stroke-linejoin: round;"></line><text dx="0" dy="11.969999999999999" x="531.4813674511951" y="286"><tspan x="531.4813674511951" dx="0" text-anchor="middle" style="fill: rgb(153, 153, 153); font-size: 14px; font-family: inherit; stroke: transparent; letter-spacing: normal; padding: 8px; stroke-width: 0;">2021</tspan></text></g></g><g role="presentation"><line x1="578" x2="578" y1="34" y2="274" role="presentation" shape-rendering="auto" vector-effect="non-scaling-stroke" style="stroke: transparent; fill: transparent; stroke-width: 1; stroke-linejoin: round;"></line><g role="presentation"><line x1="578" x2="15" y1="274" y2="274" role="presentation" shape-rendering="auto" vector-effect="non-scaling-stroke" style="stroke: rgb(226, 226, 226); fill: transparent; stroke-width: 1; stroke-linecap: round; stroke-linejoin: round; pointer-events: none;"></line><line x1="578" x2="582" y1="274" y2="274" role="presentation" shape-rendering="auto" vector-effect="non-scaling-stroke" style="stroke: transparent; fill: transparent; size: 4px; stroke-width: 1; stroke-linecap: round; stroke-linejoin: round;"></line><text dx="0" dy="4.97" x="590" y="274"><tspan x="590" dx="0" text-anchor="start" style="fill: rgb(153, 153, 153); font-size: 14px; font-family: inherit; stroke: transparent; letter-spacing: normal; padding: 8px; stroke-width: 0;">$100K</tspan></text></g><g role="presentation"><line x1="578" x2="15" y1="214" y2="214" role="presentation" shape-rendering="auto" vector-effect="non-scaling-stroke" style="stroke: rgb(226, 226, 226); fill: transparent; stroke-width: 1; stroke-linecap: round; stroke-linejoin: round; pointer-events: none;"></line><line x1="578" x2="582" y1="214" y2="214" role="presentation" shape-rendering="auto" vector-effect="non-scaling-stroke" style="stroke: transparent; fill: transparent; size: 4px; stroke-width: 1; stroke-linecap: round; stroke-linejoin: round;"></line><text dx="0" dy="4.97" x="590" y="214"><tspan x="590" dx="0" text-anchor="start" style="fill: rgb(153, 153, 153); font-size: 14px; font-family: inherit; stroke: transparent; letter-spacing: normal; padding: 8px; stroke-width: 0;">$150K</tspan></text></g><g role="presentation"><line x1="578" x2="15" y1="154" y2="154" role="presentation" shape-rendering="auto" vector-effect="non-scaling-stroke" style="stroke: rgb(226, 226, 226); fill: transparent; stroke-width: 1; stroke-linecap: round; stroke-linejoin: round; pointer-events: none;"></line><line x1="578" x2="582" y1="154" y2="154" role="presentation" shape-rendering="auto" vector-effect="non-scaling-stroke" style="stroke: transparent; fill: transparent; size: 4px; stroke-width: 1; stroke-linecap: round; stroke-linejoin: round;"></line><text dx="0" dy="4.97" x="590" y="154"><tspan x="590" dx="0" text-anchor="start" style="fill: rgb(153, 153, 153); font-size: 14px; font-family: inherit; stroke: transparent; letter-spacing: normal; padding: 8px; stroke-width: 0;">$200K</tspan></text></g><g role="presentation"><line x1="578" x2="15" y1="94" y2="94" role="presentation" shape-rendering="auto" vector-effect="non-scaling-stroke" style="stroke: rgb(226, 226, 226); fill: transparent; stroke-width: 1; stroke-linecap: round; stroke-linejoin: round; pointer-events: none;"></line><line x1="578" x2="582" y1="94" y2="94" role="presentation" shape-rendering="auto" vector-effect="non-scaling-stroke" style="stroke: transparent; fill: transparent; size: 4px; stroke-width: 1; stroke-linecap: round; stroke-linejoin: round;"></line><text dx="0" dy="4.97" x="590" y="94"><tspan x="590" dx="0" text-anchor="start" style="fill: rgb(153, 153, 153); font-size: 14px; font-family: inherit; stroke: transparent; letter-spacing: normal; padding: 8px; stroke-width: 0;">$250K</tspan></text></g><g role="presentation"><line x1="578" x2="15" y1="34" y2="34" role="presentation" shape-rendering="auto" vector-effect="non-scaling-stroke" style="stroke: rgb(226, 226, 226); fill: transparent; stroke-width: 1; stroke-linecap: round; stroke-linejoin: round; pointer-events: none;"></line><line x1="578" x2="582" y1="34" y2="34" role="presentation" shape-rendering="auto" vector-effect="non-scaling-stroke" style="stroke: transparent; fill: transparent; size: 4px; stroke-width: 1; stroke-linecap: round; stroke-linejoin: round;"></line><text dx="0" dy="4.97" x="590" y="34"><tspan x="590" dx="0" text-anchor="start" style="fill: rgb(153, 153, 153); font-size: 14px; font-family: inherit; stroke: transparent; letter-spacing: normal; padding: 8px; stroke-width: 0;">$300K</tspan></text></g></g><g style="height: 100%; width: 100%; user-select: none;"><defs><clipPath id="victory-clip-5"><rect x="15" y="34" width="563" height="240"></rect></clipPath></defs><g clip-path="url(#victory-clip-5)"><path shape-rendering="auto" role="presentation" d="M15.30815544608648,204.4C18.389709906951285,200.35000000000002,21.471264367816094,196.3,24.5528188286809,196.3C27.73709177157453,196.3,30.921364714468165,197.8424,34.1056376573618,200.9272C37.28991060025543,204.012,40.47418354314906,217.6,43.658456486042695,217.6C46.7400109469075,217.6,49.821565407772304,209.581385510312,52.90311986863711,206.8C56.08739281153075,203.9259016393443,59.271665754424376,203.13635013940632,62.45593869731801,200.8C65.54177309493402,198.5358757385592,68.62760749255003,195.23827580828655,71.71344189016602,193.06C74.89771483305965,190.81223689131042,78.0819877759533,187.60000000000002,81.26626071884692,187.60000000000002C84.45053366174056,187.60000000000002,87.63480660463419,202.06,90.81907954752783,202.06C93.69519704433499,202.06,96.57131454114213,192.7891520861373,99.44743203794928,191.74C102.62742504409171,190.58,105.80741805023415,191.16,108.98741105637657,190C112.06896551724138,188.87590847913862,115.15051997810617,178,118.23207443897098,178C121.41634738186463,178,124.60062032475825,189.4,127.7848932676519,189.4C130.8664477285167,189.4,133.9480021893815,178,137.02955665024632,178C140.21382959313993,178,143.39810253603358,180.12,146.5823754789272,184.12C149.76664842182083,188.12,152.95092136471445,202,156.1351943076081,202C159.2167487684729,202,162.2983032293377,197.38297197250137,165.37985769020253,191.8C168.56413063309614,186.03092896174866,171.74840357598978,167.5,174.9326765188834,167.5C178.0185109164994,167.5,181.10434531411542,191.26,184.19017971173142,191.26C187.37445265462506,191.26,190.55872559751867,166,193.74299854041232,166C196.92727148330596,166,200.1115444261996,197.2,203.29581736909324,197.2C206.1719348659004,197.2,209.04805236270755,181,211.9241698595147,181C215.10416286565712,181,218.28415587179956,187.60000000000002,221.46414887794197,187.60000000000002C224.5457033388068,187.60000000000002,227.62725779967158,185.781438392385,230.7088122605364,182.875C233.89308520343002,179.87168032786886,237.07735814632366,169.6,240.26163108921727,169.6C243.3431855500821,169.6,246.4247400109469,179.2,249.5062944718117,179.2C252.69056741470536,179.2,255.874840357599,175.96,259.05911330049264,175.96C262.2433862433863,175.96,265.42765918627987,190,268.6119321291735,190C271.69348659003833,190,274.7750410509031,181.91750396615546,277.8565955117679,178C281.04086845466156,173.95191256830603,284.22514139755515,169.11701529445736,287.4094143404488,166.12C290.4952487380648,163.21563437190355,293.58108313568084,160.12,296.66691753329684,160.12C299.8511904761905,160.12,303.03546341908407,197.8,306.2197363619777,197.8C309.40400930487135,197.8,312.588282247765,172,315.77255519065864,172C318.6486726874658,172,321.52479018427294,182.2,324.4009076810801,182.2C327.58090068722254,182.2,330.76089369336495,149.2,333.94088669950736,149.2C337.0224411603722,149.2,340.10399562123695,161.39312533051296,343.18555008210177,166C346.3698230249954,170.76043715846995,349.55409596788905,177.1,352.7383689107827,177.1C355.8199233716475,177.1,358.9014778325123,164.8,361.9830322933771,164.8C365.16730523627075,164.8,368.35157817916433,167.26,371.535851122058,167.26C374.7201240649516,167.26,377.90439700784526,151.6,381.0886699507389,151.6C384.1702244116037,151.6,387.2517788724685,185.5,390.3333333333333,185.5C393.51760627622696,185.5,396.7018792191206,160.07656033287105,399.88615216201424,157.60000000000002C402.97198655963024,155.20000000000002,406.0578209572463,154,409.1436553548623,154C412.32792829775593,154,415.5122012406495,164.00000000000003,418.69647418354316,164.8C421.8807471264368,165.6,425.0650200693304,165.20000000000002,428.24929301222403,166C431.22812899106003,166.7483870967742,434.206964969896,170.2,437.185800948732,170.2C440.3657939548744,170.2,443.54578696101686,170,446.72577996715927,169.6C449.8073344280241,169.21238223418572,452.8888888888889,159.54309888947648,455.97044334975374,155.2C459.1547162926473,150.71213114754102,462.33898923554096,143.2,465.52326217843455,143.2C468.6048166392994,143.2,471.6863711001642,146.4253833950291,474.767925561029,148C477.95219850392266,149.6271038251366,481.1364714468163,151.51000000000002,484.32074438970994,152.8C487.50501733260353,154.09,490.68929027549717,153.882174863388,493.87356321839076,155.74C496.9551176792556,157.53789529349552,500.0366721401204,163.6,503.1182266009852,163.6C506.3024995438788,163.6,509.48677248677245,130,512.671045429666,130C515.7568798272821,130,518.8427142248981,146.76059139784942,521.9285486225142,148.66C525.1128215654078,150.62,528.2970945083015,151.6,531.4813674511951,151.6C534.6656403940887,151.6,537.8499133369824,145.6128329297821,541.0341862798759,142C543.9103037766831,138.73679606342264,546.7864212734902,134.1211895238956,549.6625387702974,131.20000000000002C552.8425317764398,127.97017289247856,556.0225247825822,124,559.2025177887247,124C562.2840722495895,124,565.3656267104543,130.012,568.4471811713191,130.012C571.6314541142127,130.012,574.8157270571064,111.706,578,93.4" style="fill: transparent; stroke: rgb(51, 51, 51); stroke-width: 2; opacity: 1;"></path></g></g></svg>