<svg xmlns="http://www.w3.org/2000/svg" width="640" height="324" role="img" aria-labelledby="victory-container-4-title victory-container-4-desc" viewBox="0 0 640 324" style="pointer-events: all; width: 100%; height: 100%;"><g role="presentation"><line x1="15" x2="578" y1="274" y2="274" role="presentation" shape-rendering="auto" vector-effect="non-scaling-stroke" style="stroke: rgb(226, 226, 226); fill: transparent; stroke-width: 1; stroke-linejoin: round;"></line><g role="presentation"><line x1="81.26626071884692" x2="81.26626071884692" y1="274" y2="34" role="presentation" shape-rendering="auto" vector-effect="non-scaling-stroke" style="stroke: transparent; fill: transparent; stroke-width: 1; stroke-linecap: round; stroke-linejoin: round; pointer-events: none;"></line><line x1="81.26626071884692" x2="81.26626071884692" y1="274" y2="278" role="presentation" shape-rendering="auto" vector-effect="non-scaling-stroke" style="stroke: transparent; fill: transparent; size: 4px; stroke-width: 1; stroke-linecap: round; stroke-linejoin: round;"></line><text dx="0" dy="11.969999999999999" x="81.26626071884692" y="286"><tspan x="81.26626071884692" dx="0" text-anchor="middle" style="fill: rgb(153, 153, 153); font-size: 14px; font-family: inherit; stroke: transparent; letter-spacing: normal; padding: 8px; stroke-width: 0;">2017</tspan></text></g><g role="presentation"><line x1="193.74299854041232" x2="193.74299854041232" y1="274" y2="34" role="presentation" shape-rendering="auto" vector-effect="non-scaling-stroke" style="stroke: transparent; fill: transparent; stroke-width: 1; stroke-linecap: round; stroke-linejoin: round; pointer-events: none;"></line><line x1="193.74299854041232" x2="193.74299854041232" y1="274" y2="278" role="presentation" shape-rendering="auto" vector-effect="non-scaling-stroke" style="stroke: transparent; fill: transparent; size: 4px; stroke-width: 1; stroke-linecap: round; stroke-linejoin: round;"></line><text dx="0" dy="11.969999999999999" x="193.74299854041232" y="286"><tspan x="193.74299854041232" dx="0" text-anchor="middle" style="fill: rgb(153, 153, 153); font-size: 14px; font-family: inherit; stroke: transparent; letter-spacing: normal; padding: 8px; stroke-width: 0;">2018</tspan></text></g><g role="presentation"><line x1="306.2197363619777" x2="306.2197363619777" y1="274" y2="34" role="presentation" shape-rendering="auto" vector-effect="non-scaling-stroke" style="stroke: transparent; fill: transparent; stroke-width: 1; stroke-linecap: round; stroke-linejoin: round; pointer-events: none;"></line><line x1="306.2197363619777" x2="306.2197363619777" y1="274" y2="278" role="presentation" shape-rendering="auto" vector-effect="non-scaling-stroke" style="stroke: transparent; fill: transparent; size: 4px; stroke-width: 1; stroke-linecap: round; stroke-linejoin: round;"></line><text dx="0" dy="11.969999999999999" x="306.2197363619777" y="286"><tspan x="306.2197363619777" dx="0" text-anchor="middle" style="fill: rgb(153, 153, 153); font-size: 14px; font-family: inherit; stroke: transparent; letter-spacing: normal; padding: 8px; stroke-width: 0;">2019</tspan></text></g><g role="presentation"><line x1="418.69647418354316" x2="418.69647418354316" y1="274" y2="34" role="presentation" shape-rendering="auto" vector-effect="non-scaling-stroke" style="stroke: transparent; fill: transparent; stroke-width: 1; stroke-linecap: round; stroke-linejoin: round; pointer-events: none;"></line><line x1="418.69647418354316" x2="418.69647418354316" y1="274" y2="278" role="presentation" shape-rendering="auto" vector-effect="non-scaling-stroke" style="stroke: transparent; fill: transparent; size: 4px; stroke-width: 1; stroke-linecap: round; stroke-linejoin: round;"></line><text dx="0" dy="11.969999999999999" x="418.69647418354316" y="286"><tspan x="418.69647418354316" dx="0" text-anchor="middle" style="fill: rgb(153, 153, 153); font-size: 14px; font-family: inherit; stroke: transparent; letter-spacing: normal; padding: 8px; stroke-width: 0;">2020</tspan></text></g><g role="presentation"><line x1="531.4813674511951" x2="531.4813674511951" y1="274" y2="34" role="presentation" shape-rendering="auto" vector-effect="non-scaling-stroke" style="stroke: transparent; fill: transparent; stroke-width: 1; stroke-linecap: round; stroke-linejoin: round; pointer-events: none;"></line><line x1="531.4813674511951" x2="531.4813674511951" y1="274" y2="278" role="presentation" shape-rendering="auto" vector-effect="non-scaling-stroke" style="stroke: transparent; fill: transparent; size: 4px; stroke-width: 1; stroke-linecap: round; stroke-linejoin: round;"></line><text dx="0" dy="11.969999999999999" x="531.4813674511951" y="286"><tspan x="531.4813674511951" dx="0" text-anchor="middle" style="fill: rgb(153, 153, 153); font-size: 14px; font-family: inherit; stroke: transparent; letter-spacing: normal; padding: 8px; stroke-width: 0;">2021</tspan></text></g></g><g role="presentation"><line x1="578" x2="578" y1="34" y2="274" role="presentation" shape-rendering="auto" vector-effect="non-scaling-stroke" style="stroke: transparent; fill: transparent; stroke-width: 1; stroke-linejoin: round;"></line><g role="presentation"><line x1="578" x2="15" y1="274" y2="274" role="presentation" shape-rendering="auto" vector-effect="non-scaling-stroke" style="stroke: rgb(226, 226, 226); fill: transparent; stroke-width: 1; stroke-linecap: round; stroke-linejoin: round; pointer-events: none;"></line><line x1="578" x2="582" y1="274" y2="274" role="presentation" shape-rendering="auto" vector-effect="non-scaling-stroke" style="stroke: transparent; fill: transparent; size: 4px; stroke-width: 1; stroke-linecap: round; stroke-linejoin: round;"></line><text dx="0" dy="4.97" x="590" y="274"><tspan x="590" dx="0" text-anchor="start" style="fill: rgb(153, 153, 153); font-size: 14px; font-family: inherit; stroke: transparent; letter-spacing: normal; padding: 8px; stroke-width: 0;">$200K</tspan></text></g><g role="presentation"><line x1="578" x2="15" y1="214" y2="214" role="presentation" shape-rendering="auto" vector-effect="non-scaling-stroke" style="stroke: rgb(226, 226, 226); fill: transparent; stroke-width: 1; stroke-linecap: round; stroke-linejoin: round; pointer-events: none;"></line><line x1="578" x2="582" y1="214" y2="214" role="presentation" shape-rendering="auto" vector-effect="non-scaling-stroke" style="stroke: transparent; fill: transparent; size: 4px; stroke-width: 1; stroke-linecap: round; stroke-linejoin: round;"></line><text dx="0" dy="4.97" x="590" y="214"><tspan x="590" dx="0" text-anchor="start" style="fill: rgb(153, 153, 153); font-size: 14px; font-family: inherit; stroke: transparent; letter-spacing: normal; padding: 8px; stroke-width: 0;">$250K</tspan></text></g><g role="presentation"><line x1="578" x2="15" y1="154" y2="154" role="presentation" shape-rendering="auto" vector-effect="non-scaling-stroke" style="stroke: rgb(226, 226, 226); fill: transparent; stroke-width: 1; stroke-linecap: round; stroke-linejoin: round; pointer-events: none;"></line><line x1="578" x2="582" y1="154" y2="154" role="presentation" shape-rendering="auto" vector-effect="non-scaling-stroke" style="stroke: transparent; fill: transparent; size: 4px; stroke-width: 1; stroke-linecap: round; stroke-linejoin: round;"></line><text dx="0" dy="4.97" x="590" y="154"><tspan x="590" dx="0" text-anchor="start" style="fill: rgb(153, 153, 153); font-size: 14px; font-family: inherit; stroke: transparent; letter-spacing: normal; padding: 8px; stroke-width: 0;">$300K</tspan></text></g><g role="presentation"><line x1="578" x2="15" y1="94" y2="94" role="presentation" shape-rendering="auto" vector-effect="non-scaling-stroke" style="stroke: rgb(226, 226, 226); fill: transparent; stroke-width: 1; stroke-linecap: round; stroke-linejoin: round; pointer-events: none;"></line><line x1="578" x2="582" y1="94" y2="94" role="presentation" shape-rendering="auto" vector-effect="non-scaling-stroke" style="stroke: transparent; fill: transparent; size: 4px; stroke-width: 1; stroke-linecap: round; stroke-linejoin: round;"></line><text dx="0" dy="4.97" x="590" y="94"><tspan x="590" dx="0" text-anchor="start" style="fill: rgb(153, 153, 153); font-size: 14px; font-family: inherit; stroke: transparent; letter-spacing: normal; padding: 8px; stroke-width: 0;">$350K</tspan></text></g><g role="presentation"><line x1="578" x2="15" y1="34" y2="34" role="presentation" shape-rendering="auto" vector-effect="non-scaling-stroke" style="stroke: rgb(226, 226, 226); fill: transparent; stroke-width: 1; stroke-linecap: round; stroke-linejoin: round; pointer-events: none;"></line><line x1="578" x2="582" y1="34" y2="34" role="presentation" shape-rendering="auto" vector-effect="non-scaling-stroke" style="stroke: transparent; fill: transparent; size: 4px; stroke-width: 1; stroke-linecap: round; stroke-linejoin: round;"></line><text dx="0" dy="4.97" x="590" y="34"><tspan x="590" dx="0" text-anchor="start" style="fill: rgb(153, 153, 153); font-size: 14px; font-family: inherit; stroke: transparent; letter-spacing: normal; padding: 8px; stroke-width: 0;">$400K</tspan></text></g></g><g style="height: 100%; width: 100%; user-select: none;"><defs><clipPath id="victory-clip-5"><rect x="15" y="34" width="563" height="240"></rect></clipPath></defs><g clip-path="url(#victory-clip-5)"><path shape-rendering="auto" role="presentation" d="M15.30815544608648,197.5C18.389709906951285,226.15,21.471264367816094,254.8,24.5528188286809,254.8C27.73709177157453,254.8,30.921364714468165,252.20000000000002,34.1056376573618,247C37.28991060025543,241.79999999999998,40.47418354314906,215.2,43.658456486042695,215.2C46.7400109469075,215.2,49.821565407772304,248.92000000000002,52.90311986863711,248.92000000000002C56.08739281153075,248.92000000000002,59.271665754424376,214,62.45593869731801,214C65.54177309493402,214,68.62760749255003,235,71.71344189016602,235C74.89771483305965,235,78.0819877759533,190.60000000000002,81.26626071884692,190.60000000000002C84.45053366174056,190.60000000000002,87.63480660463419,196.8801221549637,90.81907954752783,204.86380000000003C93.69519704433499,212.07486386003282,96.57131454114213,234.4,99.44743203794928,234.4C102.62742504409171,234.4,105.80741805023415,228.89044884939622,108.98741105637657,224.8C112.06896551724138,220.83617338954878,115.15051997810617,211.1741935483871,118.23207443897098,210.4C121.41634738186463,209.6,124.60062032475825,209.2,127.7848932676519,209.2C130.8664477285167,209.2,133.9480021893815,212.8,137.02955665024632,212.8C140.21382959313993,212.8,143.39810253603358,205,146.5823754789272,205C149.76664842182083,205,152.95092136471445,216.4,156.1351943076081,216.4C159.2167487684729,216.4,162.2983032293377,209.74540000000002,165.37985769020253,209.74540000000002C168.56413063309614,209.74540000000002,171.74840357598978,210.1836,174.9326765188834,211.06C178.0185109164994,211.9093069892473,181.10434531411542,229.36,184.19017971173142,229.36C187.37445265462506,229.36,190.55872559751867,223.6,193.74299854041232,223.6C196.92727148330596,223.6,200.1115444261996,236.5,203.29581736909324,236.5C206.1719348659004,236.5,209.04805236270755,213.18842530282637,211.9241698595147,207.39999999999998C215.10416286565712,201,218.28415587179956,200.73746430470115,221.46414887794197,197.8C224.5457033388068,194.95346662263145,227.62725779967158,190,230.7088122605364,190C233.89308520343002,190,237.07735814632366,193.06,240.26163108921727,193.06C243.3431855500821,193.06,246.4247400109469,171.00322580645164,249.5062944718117,168.10000000000002C252.69056741470536,165.1,255.874840357599,163.6,259.05911330049264,163.6C262.2433862433863,163.6,265.42765918627987,197.86666666666667,268.6119321291735,202C271.69348659003833,206,274.7750410509031,208,277.8565955117679,208C281.04086845466156,208,284.22514139755515,169.06,287.4094143404488,169.06C290.4952487380648,169.06,293.58108313568084,188.5533333333333,296.66691753329684,193.36C299.8511904761905,198.32000000000002,303.03546341908407,195.84,306.2197363619777,200.8C309.40400930487135,205.76000000000005,312.588282247765,265.96,315.77255519065864,265.96C318.6486726874658,265.96,321.52479018427294,199,324.4009076810801,199C327.58090068722254,199,330.76089369336495,207.92333333333335,333.94088669950736,210.4C337.0224411603722,212.8,340.10399562123695,214,343.18555008210177,214C346.3698230249954,214,349.55409596788905,192.43092896174866,352.7383689107827,182.8C355.8199233716475,173.47974616604975,358.9014778325123,157,361.9830322933771,157C365.16730523627075,157,368.35157817916433,187.60000000000002,371.535851122058,187.60000000000002C374.7201240649516,187.60000000000002,377.90439700784526,172,381.0886699507389,172C384.1702244116037,172,387.2517788724685,188.7686938127975,390.3333333333333,198.4C393.51760627622696,208.35234972677597,396.7018792191206,230.92000000000002,399.88615216201424,230.92000000000002C402.97198655963024,230.92000000000002,406.0578209572463,209.728,409.1436553548623,209.728C412.32792829775593,209.728,415.5122012406495,238,418.69647418354316,238C421.8807471264368,238,425.0650200693304,194.8,428.24929301222403,194.8C431.22812899106003,194.8,434.206964969896,212.1664,437.185800948732,212.1664C440.3657939548744,212.1664,443.54578696101686,197.71643210298473,446.72577996715927,193C449.8073344280241,188.4295678140659,452.8888888888889,184,455.97044334975374,184C459.1547162926473,184,462.33898923554096,185.2,465.52326217843455,185.2C468.6048166392994,185.2,471.6863711001642,150.24516129032259,474.767925561029,145.6C477.95219850392266,140.8,481.1364714468163,138.4,484.32074438970994,138.4C487.50501733260353,138.4,490.68929027549717,196,493.87356321839076,196C496.9551176792556,196,500.0366721401204,190.01982020095195,503.1182266009852,184C506.3024995438788,177.77951912568307,509.48677248677245,163.04305520110947,512.671045429666,158.8684C515.7568798272821,154.8228,518.8427142248981,152.8,521.9285486225142,152.8C525.1128215654078,152.8,528.2970945083015,181.6,531.4813674511951,181.6C534.6656403940887,181.6,537.8499133369824,148,541.0341862798759,148C543.9103037766831,148,546.7864212734902,154.00238223418575,549.6625387702974,154.006C552.8425317764398,154.01,556.0225247825822,154.012,559.2025177887247,154.012C562.2840722495895,154.012,565.3656267104543,149.008,568.4471811713191,139C571.6314541142127,128.65840000000009,574.8157270571064,105.32920000000004,578,82" style="fill: transparent; stroke: rgb(51, 51, 51); stroke-width: 2; opacity: 1;"></path></g></g></svg>