<svg xmlns="http://www.w3.org/2000/svg" width="640" height="324" role="img" aria-labelledby="victory-container-4-title victory-container-4-desc" viewBox="0 0 640 324" style="pointer-events: all; width: 100%; height: 100%;"><g role="presentation"><line x1="15" x2="578" y1="274" y2="274" role="presentation" shape-rendering="auto" vector-effect="non-scaling-stroke" style="stroke: rgb(226, 226, 226); fill: transparent; stroke-width: 1; stroke-linejoin: round;"></line><g role="presentation"><line x1="81.26626071884692" x2="81.26626071884692" y1="274" y2="34" role="presentation" shape-rendering="auto" vector-effect="non-scaling-stroke" style="stroke: transparent; fill: transparent; stroke-width: 1; stroke-linecap: round; stroke-linejoin: round; pointer-events: none;"></line><line x1="81.26626071884692" x2="81.26626071884692" y1="274" y2="278" role="presentation" shape-rendering="auto" vector-effect="non-scaling-stroke" style="stroke: transparent; fill: transparent; size: 4px; stroke-width: 1; stroke-linecap: round; stroke-linejoin: round;"></line><text dx="0" dy="11.969999999999999" x="81.26626071884692" y="286"><tspan x="81.26626071884692" dx="0" text-anchor="middle" style="fill: rgb(153, 153, 153); font-size: 14px; font-family: inherit; stroke: transparent; letter-spacing: normal; padding: 8px; stroke-width: 0;">2017</tspan></text></g><g role="presentation"><line x1="193.74299854041232" x2="193.74299854041232" y1="274" y2="34" role="presentation" shape-rendering="auto" vector-effect="non-scaling-stroke" style="stroke: transparent; fill: transparent; stroke-width: 1; stroke-linecap: round; stroke-linejoin: round; pointer-events: none;"></line><line x1="193.74299854041232" x2="193.74299854041232" y1="274" y2="278" role="presentation" shape-rendering="auto" vector-effect="non-scaling-stroke" style="stroke: transparent; fill: transparent; size: 4px; stroke-width: 1; stroke-linecap: round; stroke-linejoin: round;"></line><text dx="0" dy="11.969999999999999" x="193.74299854041232" y="286"><tspan x="193.74299854041232" dx="0" text-anchor="middle" style="fill: rgb(153, 153, 153); font-size: 14px; font-family: inherit; stroke: transparent; letter-spacing: normal; padding: 8px; stroke-width: 0;">2018</tspan></text></g><g role="presentation"><line x1="306.2197363619777" x2="306.2197363619777" y1="274" y2="34" role="presentation" shape-rendering="auto" vector-effect="non-scaling-stroke" style="stroke: transparent; fill: transparent; stroke-width: 1; stroke-linecap: round; stroke-linejoin: round; pointer-events: none;"></line><line x1="306.2197363619777" x2="306.2197363619777" y1="274" y2="278" role="presentation" shape-rendering="auto" vector-effect="non-scaling-stroke" style="stroke: transparent; fill: transparent; size: 4px; stroke-width: 1; stroke-linecap: round; stroke-linejoin: round;"></line><text dx="0" dy="11.969999999999999" x="306.2197363619777" y="286"><tspan x="306.2197363619777" dx="0" text-anchor="middle" style="fill: rgb(153, 153, 153); font-size: 14px; font-family: inherit; stroke: transparent; letter-spacing: normal; padding: 8px; stroke-width: 0;">2019</tspan></text></g><g role="presentation"><line x1="418.69647418354316" x2="418.69647418354316" y1="274" y2="34" role="presentation" shape-rendering="auto" vector-effect="non-scaling-stroke" style="stroke: transparent; fill: transparent; stroke-width: 1; stroke-linecap: round; stroke-linejoin: round; pointer-events: none;"></line><line x1="418.69647418354316" x2="418.69647418354316" y1="274" y2="278" role="presentation" shape-rendering="auto" vector-effect="non-scaling-stroke" style="stroke: transparent; fill: transparent; size: 4px; stroke-width: 1; stroke-linecap: round; stroke-linejoin: round;"></line><text dx="0" dy="11.969999999999999" x="418.69647418354316" y="286"><tspan x="418.69647418354316" dx="0" text-anchor="middle" style="fill: rgb(153, 153, 153); font-size: 14px; font-family: inherit; stroke: transparent; letter-spacing: normal; padding: 8px; stroke-width: 0;">2020</tspan></text></g><g role="presentation"><line x1="531.4813674511951" x2="531.4813674511951" y1="274" y2="34" role="presentation" shape-rendering="auto" vector-effect="non-scaling-stroke" style="stroke: transparent; fill: transparent; stroke-width: 1; stroke-linecap: round; stroke-linejoin: round; pointer-events: none;"></line><line x1="531.4813674511951" x2="531.4813674511951" y1="274" y2="278" role="presentation" shape-rendering="auto" vector-effect="non-scaling-stroke" style="stroke: transparent; fill: transparent; size: 4px; stroke-width: 1; stroke-linecap: round; stroke-linejoin: round;"></line><text dx="0" dy="11.969999999999999" x="531.4813674511951" y="286"><tspan x="531.4813674511951" dx="0" text-anchor="middle" style="fill: rgb(153, 153, 153); font-size: 14px; font-family: inherit; stroke: transparent; letter-spacing: normal; padding: 8px; stroke-width: 0;">2021</tspan></text></g></g><g role="presentation"><line x1="578" x2="578" y1="34" y2="274" role="presentation" shape-rendering="auto" vector-effect="non-scaling-stroke" style="stroke: transparent; fill: transparent; stroke-width: 1; stroke-linejoin: round;"></line><g role="presentation"><line x1="578" x2="15" y1="240.89655172413794" y2="240.89655172413794" role="presentation" shape-rendering="auto" vector-effect="non-scaling-stroke" style="stroke: rgb(226, 226, 226); fill: transparent; stroke-width: 1; stroke-linecap: round; stroke-linejoin: round; pointer-events: none;"></line><line x1="578" x2="582" y1="240.89655172413794" y2="240.89655172413794" role="presentation" shape-rendering="auto" vector-effect="non-scaling-stroke" style="stroke: transparent; fill: transparent; size: 4px; stroke-width: 1; stroke-linecap: round; stroke-linejoin: round;"></line><text dx="0" dy="4.97" x="590" y="240.89655172413794"><tspan x="590" dx="0" text-anchor="start" style="fill: rgb(153, 153, 153); font-size: 14px; font-family: inherit; stroke: transparent; letter-spacing: normal; padding: 8px; stroke-width: 0;">$100K</tspan></text></g><g role="presentation"><line x1="578" x2="15" y1="199.51724137931035" y2="199.51724137931035" role="presentation" shape-rendering="auto" vector-effect="non-scaling-stroke" style="stroke: rgb(226, 226, 226); fill: transparent; stroke-width: 1; stroke-linecap: round; stroke-linejoin: round; pointer-events: none;"></line><line x1="578" x2="582" y1="199.51724137931035" y2="199.51724137931035" role="presentation" shape-rendering="auto" vector-effect="non-scaling-stroke" style="stroke: transparent; fill: transparent; size: 4px; stroke-width: 1; stroke-linecap: round; stroke-linejoin: round;"></line><text dx="0" dy="4.97" x="590" y="199.51724137931035"><tspan x="590" dx="0" text-anchor="start" style="fill: rgb(153, 153, 153); font-size: 14px; font-family: inherit; stroke: transparent; letter-spacing: normal; padding: 8px; stroke-width: 0;">$150K</tspan></text></g><g role="presentation"><line x1="578" x2="15" y1="158.13793103448273" y2="158.13793103448273" role="presentation" shape-rendering="auto" vector-effect="non-scaling-stroke" style="stroke: rgb(226, 226, 226); fill: transparent; stroke-width: 1; stroke-linecap: round; stroke-linejoin: round; pointer-events: none;"></line><line x1="578" x2="582" y1="158.13793103448273" y2="158.13793103448273" role="presentation" shape-rendering="auto" vector-effect="non-scaling-stroke" style="stroke: transparent; fill: transparent; size: 4px; stroke-width: 1; stroke-linecap: round; stroke-linejoin: round;"></line><text dx="0" dy="4.97" x="590" y="158.13793103448273"><tspan x="590" dx="0" text-anchor="start" style="fill: rgb(153, 153, 153); font-size: 14px; font-family: inherit; stroke: transparent; letter-spacing: normal; padding: 8px; stroke-width: 0;">$200K</tspan></text></g><g role="presentation"><line x1="578" x2="15" y1="116.75862068965517" y2="116.75862068965517" role="presentation" shape-rendering="auto" vector-effect="non-scaling-stroke" style="stroke: rgb(226, 226, 226); fill: transparent; stroke-width: 1; stroke-linecap: round; stroke-linejoin: round; pointer-events: none;"></line><line x1="578" x2="582" y1="116.75862068965517" y2="116.75862068965517" role="presentation" shape-rendering="auto" vector-effect="non-scaling-stroke" style="stroke: transparent; fill: transparent; size: 4px; stroke-width: 1; stroke-linecap: round; stroke-linejoin: round;"></line><text dx="0" dy="4.97" x="590" y="116.75862068965517"><tspan x="590" dx="0" text-anchor="start" style="fill: rgb(153, 153, 153); font-size: 14px; font-family: inherit; stroke: transparent; letter-spacing: normal; padding: 8px; stroke-width: 0;">$250K</tspan></text></g><g role="presentation"><line x1="578" x2="15" y1="75.37931034482759" y2="75.37931034482759" role="presentation" shape-rendering="auto" vector-effect="non-scaling-stroke" style="stroke: rgb(226, 226, 226); fill: transparent; stroke-width: 1; stroke-linecap: round; stroke-linejoin: round; pointer-events: none;"></line><line x1="578" x2="582" y1="75.37931034482759" y2="75.37931034482759" role="presentation" shape-rendering="auto" vector-effect="non-scaling-stroke" style="stroke: transparent; fill: transparent; size: 4px; stroke-width: 1; stroke-linecap: round; stroke-linejoin: round;"></line><text dx="0" dy="4.97" x="590" y="75.37931034482759"><tspan x="590" dx="0" text-anchor="start" style="fill: rgb(153, 153, 153); font-size: 14px; font-family: inherit; stroke: transparent; letter-spacing: normal; padding: 8px; stroke-width: 0;">$300K</tspan></text></g><g role="presentation"><line x1="578" x2="15" y1="34" y2="34" role="presentation" shape-rendering="auto" vector-effect="non-scaling-stroke" style="stroke: rgb(226, 226, 226); fill: transparent; stroke-width: 1; stroke-linecap: round; stroke-linejoin: round; pointer-events: none;"></line><line x1="578" x2="582" y1="34" y2="34" role="presentation" shape-rendering="auto" vector-effect="non-scaling-stroke" style="stroke: transparent; fill: transparent; size: 4px; stroke-width: 1; stroke-linecap: round; stroke-linejoin: round;"></line><text dx="0" dy="4.97" x="590" y="34"><tspan x="590" dx="0" text-anchor="start" style="fill: rgb(153, 153, 153); font-size: 14px; font-family: inherit; stroke: transparent; letter-spacing: normal; padding: 8px; stroke-width: 0;">$350K</tspan></text></g></g><g style="height: 100%; width: 100%; user-select: none;"><defs><clipPath id="victory-clip-5"><rect x="15" y="34" width="563" height="240"></rect></clipPath></defs><g clip-path="url(#victory-clip-5)"><path shape-rendering="auto" role="presentation" d="M24.5528188286809,208.82758620689654C27.73709177157453,200.13793103448273,30.921364714468165,191.44827586206895,34.1056376573618,191.44827586206895C37.28991060025543,191.44827586206895,40.47418354314906,265.80689655172415,43.658456486042695,265.80689655172415C46.7400109469075,265.80689655172415,49.821565407772304,212.43826473859846,52.90311986863711,210.27586206896552C56.08739281153075,208.0413793103448,59.271665754424376,209.15862068965518,62.45593869731801,206.92413793103447C65.54177309493402,204.75873192436038,68.62760749255003,194.97145172616268,71.71344189016602,191.24137931034483C74.89771483305965,187.3923170671153,78.0819877759533,184.47793103448276,81.26626071884692,184.47793103448276C84.45053366174056,184.47793103448276,87.63480660463419,209.18594138765965,90.81907954752783,216.06896551724137C93.69519704433499,222.2858905375087,96.57131454114213,225.79310344827587,99.44743203794928,225.79310344827587C102.62742504409171,225.79310344827587,105.80741805023415,182.13793103448276,108.98741105637657,182.13793103448276C112.06896551724138,182.13793103448276,115.15051997810617,227.6551724137931,118.23207443897098,227.6551724137931C121.41634738186463,227.6551724137931,124.60062032475825,181.31034482758622,127.7848932676519,181.31034482758622C130.8664477285167,181.31034482758622,133.9480021893815,182.0630354309889,137.02955665024632,183.00689655172414C140.21382959313993,183.98221970981723,143.39810253603358,187.1448275862069,146.5823754789272,187.1448275862069C149.76664842182083,187.1448275862069,152.95092136471445,184.74155801771244,156.1351943076081,182.9655172413793C159.2167487684729,181.24676810299238,162.2983032293377,176.73337931034482,165.37985769020253,176.73337931034482C168.56413063309614,176.73337931034482,171.74840357598978,182.314816726406,174.9326765188834,184.6206896551724C178.0185109164994,186.85527887780762,181.10434531411542,187.92007969922338,184.19017971173142,190.41379310344828C187.37445265462506,192.98705631113666,190.55872559751867,197.65517241379308,193.74299854041232,199.9310344827586C196.92727148330596,202.20689655172413,200.1115444261996,204.06896551724137,203.29581736909324,204.06896551724137C206.1719348659004,204.06896551724137,209.04805236270755,163.1034482758621,211.9241698595147,163.1034482758621C215.10416286565712,163.1034482758621,218.28415587179956,176.34482758620692,221.46414887794197,176.34482758620692C224.5457033388068,176.34482758620692,227.62725779967158,174.68965517241378,230.7088122605364,174.68965517241378C233.89308520343002,174.68965517241378,237.07735814632366,180.89655172413794,240.26163108921727,180.89655172413794C243.3431855500821,180.89655172413794,246.4247400109469,61.31034482758622,249.5062944718117,61.31034482758622C252.69056741470536,61.31034482758622,255.874840357599,168.55172413793102,259.05911330049264,174.31724137931036C262.2433862433863,180.08275862068965,265.42765918627987,182.9655172413793,268.6119321291735,182.9655172413793C271.69348659003833,182.9655172413793,274.7750410509031,178.79476285125548,277.8565955117679,176.75862068965517C281.04086845466156,174.65460712266818,284.22514139755515,170.55172413793105,287.4094143404488,170.55172413793105C290.4952487380648,170.55172413793105,293.58108313568084,176.76877860750346,296.66691753329684,178.82758620689654C299.8511904761905,180.95207005425914,303.03546341908407,181.93793103448274,306.2197363619777,182.9655172413793C309.40400930487135,183.99310344827586,312.588282247765,184.99310344827586,315.77255519065864,184.99310344827586C318.6486726874658,184.99310344827586,321.52479018427294,166.82758620689657,324.4009076810801,166.82758620689657C327.58090068722254,166.82758620689657,330.76089369336495,175.0106059296622,333.94088669950736,178C337.0224411603722,180.8968556267069,340.10399562123695,184.6206896551724,343.18555008210177,184.6206896551724C346.3698230249954,184.6206896551724,349.55409596788905,165.07310344827587,352.7383689107827,164.62413793103448C355.8199233716475,164.18965517241378,358.9014778325123,163.97241379310344,361.9830322933771,163.97241379310344C365.16730523627075,163.97241379310344,368.35157817916433,164.7862068965517,371.535851122058,166.41379310344826C374.7201240649516,168.0413793103448,377.90439700784526,180.48275862068965,381.0886699507389,180.48275862068965C384.1702244116037,180.48275862068965,387.2517788724685,159.79310344827587,390.3333333333333,159.79310344827587C393.51760627622696,159.79310344827587,396.7018792191206,248.3448275862069,399.88615216201424,248.3448275862069C402.97198655963024,248.3448275862069,406.0578209572463,225.65774169504496,409.1436553548623,191.65517241379308C412.32792829775593,156.56791645644046,415.5122012406495,38.13793103448276,418.69647418354316,38.13793103448276C421.8807471264368,38.13793103448276,425.0650200693304,161.4896551724138,428.24929301222403,161.4896551724138C431.22812899106003,161.4896551724138,434.206964969896,161.2,437.185800948732,160.6206896551724C440.3657939548744,160.00225921521996,443.54578696101686,147.79310344827587,446.72577996715927,147.79310344827587C449.8073344280241,147.79310344827587,452.8888888888889,178.82758620689654,455.97044334975374,178.82758620689654C459.1547162926473,178.82758620689654,462.33898923554096,160.16091954022988,465.52326217843455,157.31034482758622C468.6048166392994,154.55172413793102,471.6863711001642,155.0550155910939,474.767925561029,153.17241379310343C477.95219850392266,151.2270586018466,481.1364714468163,145.7241379310345,484.32074438970994,145.7241379310345C487.50501733260353,145.7241379310345,490.68929027549717,151.31034482758622,493.87356321839076,151.31034482758622C496.9551176792556,151.31034482758622,500.0366721401204,145.80689655172415,503.1182266009852,145.80689655172415C506.3024995438788,145.80689655172415,509.48677248677245,152.0776585029521,512.671045429666,154C515.7568798272821,155.86291427334888,518.8427142248981,157.31034482758622,521.9285486225142,157.31034482758622C525.1128215654078,157.31034482758622,528.2970945083015,152.75862068965517,531.4813674511951,152.75862068965517C534.6656403940887,152.75862068965517,537.8499133369824,170.55172413793105,541.0341862798759,170.55172413793105C543.9103037766831,170.55172413793105,546.7864212734902,144.8796212929874,549.6625387702974,141.58620689655172C552.8425317764398,137.94482758620688,556.0225247825822,137.80087538595706,559.2025177887247,136.12413793103448C562.2840722495895,134.499304865699,565.3656267104543,131.6551724137931,568.4471811713191,131.6551724137931C571.6314541142127,131.6551724137931,574.8157270571064,134.55172413793105,578,137.44827586206895" style="fill: transparent; stroke: rgb(51, 51, 51); stroke-width: 2; opacity: 1;"></path></g></g></svg>